G04*
G04 #@! TF.GenerationSoftware,Altium Limited,Altium Designer,25.8.1 (18)*
G04*
G04 Layer_Color=0*
%FSLAX44Y44*%
%MOMM*%
G71*
G04*
G04 #@! TF.SameCoordinates,2693F913-D937-40AF-9520-92A55DCDFC83*
G04*
G04*
G04 #@! TF.FilePolarity,Positive*
G04*
G01*
G75*
%ADD119C,0.1000*%
D119*
X1121410Y843360D02*
Y853360D01*
X1116410Y848360D02*
X1126410D01*
X938530Y497220D02*
Y508620D01*
X932830Y502920D02*
X944230D01*
X1134110Y732870D02*
Y742870D01*
X1129110Y737870D02*
X1139110D01*
X628198Y995690D02*
Y1005690D01*
X623198Y1000690D02*
X633198D01*
X1032590Y739917D02*
X1042590D01*
X1037590Y734918D02*
Y744917D01*
X1032590Y759460D02*
X1042590D01*
X1037590Y754460D02*
Y764460D01*
X1200230Y848360D02*
X1210230D01*
X1205230Y843360D02*
Y853360D01*
X1187273Y597648D02*
X1197272D01*
X1192272Y592648D02*
Y602648D01*
X1135470Y631190D02*
X1145470D01*
X1140470Y626190D02*
Y636190D01*
X1136730Y597648D02*
X1146730D01*
X1141730Y592648D02*
Y602648D01*
X1077040Y518160D02*
X1087040D01*
X1082040Y513160D02*
Y523160D01*
X1077040Y476928D02*
X1087040D01*
X1082040Y471928D02*
Y481928D01*
X1077040Y497544D02*
X1087040D01*
X1082040Y492544D02*
Y502544D01*
X952500Y623650D02*
Y633650D01*
X947500Y628650D02*
X957500D01*
X848440Y741680D02*
X858440D01*
X853440Y736680D02*
Y746680D01*
X816690Y762547D02*
X826690D01*
X821690Y757548D02*
Y767547D01*
X849710Y762000D02*
X859710D01*
X854710Y757000D02*
Y767000D01*
X816690Y783590D02*
X826690D01*
X821690Y778590D02*
Y788590D01*
X849710Y783590D02*
X859710D01*
X854710Y778590D02*
Y788590D01*
X1077040Y456239D02*
X1087040D01*
X1082040Y451239D02*
Y461239D01*
X1087200Y430530D02*
X1097200D01*
X1092200Y425530D02*
Y435530D01*
X1182370Y505540D02*
Y515540D01*
X1177370Y510540D02*
X1187370D01*
X1160780Y505540D02*
Y515540D01*
X1155780Y510540D02*
X1165780D01*
X1648460Y557610D02*
Y567610D01*
X1643460Y562610D02*
X1653460D01*
X1651000Y819230D02*
Y829230D01*
X1646000Y824230D02*
X1656000D01*
X1651000Y1046560D02*
Y1056560D01*
X1646000Y1051560D02*
X1656000D01*
X1477090Y392430D02*
X1487090D01*
X1482090Y387430D02*
Y397430D01*
X1484710Y662940D02*
X1494710D01*
X1489710Y657940D02*
Y667940D01*
X1224360Y651813D02*
X1234360D01*
X1229360Y646813D02*
Y656813D01*
X1224360Y636270D02*
X1234360D01*
X1229360Y631270D02*
Y641270D01*
X1008460Y800100D02*
X1018460D01*
X1013460Y795100D02*
Y805100D01*
X1215390Y800180D02*
Y810180D01*
X1210390Y805180D02*
X1220390D01*
X1216660Y694098D02*
Y704097D01*
X1211660Y699098D02*
X1221660D01*
X1215390Y726640D02*
Y736640D01*
X1210390Y731640D02*
X1220390D01*
X1215390Y759420D02*
Y769420D01*
X1210390Y764420D02*
X1220390D01*
X739220Y652780D02*
X749220D01*
X744220Y647780D02*
Y657780D01*
X782400Y581660D02*
X792400D01*
X787400Y576660D02*
Y586660D01*
X781130Y629920D02*
X791130D01*
X786130Y624920D02*
Y634920D01*
X782400Y605790D02*
X792400D01*
X787400Y600790D02*
Y610790D01*
X653880Y639563D02*
Y649563D01*
X648880Y644563D02*
X658880D01*
X653880Y832605D02*
Y842605D01*
X648880Y837605D02*
X658880D01*
X721190Y850312D02*
Y860312D01*
X716190Y855312D02*
X726190D01*
X809070Y713740D02*
X819070D01*
X814070Y708740D02*
Y718740D01*
X812880Y688340D02*
X822880D01*
X817880Y683340D02*
Y693340D01*
X721530Y719770D02*
Y729770D01*
X716530Y724770D02*
X726530D01*
X652950Y439300D02*
Y449300D01*
X647950Y444300D02*
X657950D01*
X1479630Y890270D02*
X1489630D01*
X1484630Y885270D02*
Y895270D01*
X682070Y988060D02*
X692070D01*
X687070Y983060D02*
Y993060D01*
X682070Y1012190D02*
X692070D01*
X687070Y1007190D02*
Y1017190D01*
X1044020Y894080D02*
X1054020D01*
X1049020Y889080D02*
Y899080D01*
X985600Y910590D02*
X995600D01*
X990600Y905590D02*
Y915590D01*
M02*
