G04*
G04 #@! TF.GenerationSoftware,Altium Limited,Altium Designer,25.8.1 (18)*
G04*
G04 Layer_Color=128*
%FSLAX44Y44*%
%MOMM*%
G71*
G04*
G04 #@! TF.SameCoordinates,2693F913-D937-40AF-9520-92A55DCDFC83*
G04*
G04*
G04 #@! TF.FilePolarity,Positive*
G04*
G01*
G75*
%ADD123C,0.1270*%
D123*
X1700930Y591820D02*
X1750930D01*
X1725930Y566820D02*
Y616820D01*
X1698390Y1123950D02*
X1748390D01*
X1723390Y1098950D02*
Y1148950D01*
X1185310Y402590D02*
X1235310D01*
X1210310Y377590D02*
Y427590D01*
X752240Y1125220D02*
X802240D01*
X777240Y1100220D02*
Y1150220D01*
X654630Y582062D02*
X663630D01*
X659130Y577562D02*
Y586562D01*
X654630Y607062D02*
X663630D01*
X659130Y602562D02*
Y611562D01*
X654630Y632062D02*
X663630D01*
X659130Y627562D02*
Y636562D01*
X654630Y657063D02*
X663630D01*
X659130Y652563D02*
Y661562D01*
X654630Y682063D02*
X663630D01*
X659130Y677563D02*
Y686562D01*
X654630Y707063D02*
X663630D01*
X659130Y702563D02*
Y711562D01*
X654630Y912605D02*
X663630D01*
X659130Y908105D02*
Y917105D01*
X654630Y887605D02*
X663630D01*
X659130Y883105D02*
Y892105D01*
X654630Y862605D02*
X663630D01*
X659130Y858105D02*
Y867105D01*
X654630Y837605D02*
X663630D01*
X659130Y833105D02*
Y842105D01*
X654630Y812605D02*
X663630D01*
X659130Y808105D02*
Y817105D01*
X654630Y787605D02*
X663630D01*
X659130Y783105D02*
Y792105D01*
X654630Y762605D02*
X663630D01*
X659130Y758105D02*
Y767105D01*
X721940Y905312D02*
X730940D01*
X726440Y900813D02*
Y909812D01*
X721940Y880312D02*
X730940D01*
X726440Y875813D02*
Y884812D01*
X721940Y855312D02*
X730940D01*
X726440Y850813D02*
Y859812D01*
X721940Y830312D02*
X730940D01*
X726440Y825813D02*
Y834812D01*
X721940Y805312D02*
X730940D01*
X726440Y800813D02*
Y809812D01*
X700940Y921312D02*
X711940D01*
X706440Y915813D02*
Y926813D01*
X711780Y699770D02*
X720780D01*
X716280Y695270D02*
Y704270D01*
X711780Y724770D02*
X720780D01*
X716280Y720270D02*
Y729270D01*
X711780Y749770D02*
X720780D01*
X716280Y745270D02*
Y754270D01*
X643200Y481800D02*
X652200D01*
X647700Y477300D02*
Y486300D01*
X643200Y456800D02*
X652200D01*
X647700Y452300D02*
Y461300D01*
X643200Y431800D02*
X652200D01*
X647700Y427300D02*
Y436300D01*
X643200Y406800D02*
X652200D01*
X647700Y402300D02*
Y411300D01*
X1276093Y882918D02*
X1279093D01*
X1277593Y881418D02*
Y884418D01*
X1276093Y870218D02*
X1279093D01*
X1277593Y868718D02*
Y871718D01*
X1276093Y841008D02*
X1279093D01*
X1277593Y839508D02*
Y842508D01*
X1276093Y828308D02*
X1279093D01*
X1277593Y826808D02*
Y829808D01*
X1277363Y745758D02*
X1280363D01*
X1278863Y744258D02*
Y747258D01*
X1277363Y731788D02*
X1280363D01*
X1278863Y730288D02*
Y733288D01*
X1278660Y687070D02*
X1281660D01*
X1280160Y685570D02*
Y688570D01*
X1278633Y678448D02*
X1281633D01*
X1280133Y676948D02*
Y679948D01*
X1278633Y637808D02*
X1281633D01*
X1280133Y636308D02*
Y639308D01*
X1278633Y622568D02*
X1281633D01*
X1280133Y621068D02*
Y624068D01*
X1278633Y576848D02*
X1281633D01*
X1280133Y575348D02*
Y578348D01*
X1278633Y560338D02*
X1281633D01*
X1280133Y558838D02*
Y561838D01*
X1278633Y545098D02*
X1281633D01*
X1280133Y543598D02*
Y546598D01*
X872233Y691148D02*
X875233D01*
X873733Y689648D02*
Y692648D01*
X868450Y666750D02*
X871450D01*
X869950Y665250D02*
Y668250D01*
X853183Y772428D02*
X856183D01*
X854683Y770928D02*
Y773928D01*
X864613Y750838D02*
X867613D01*
X866113Y749338D02*
Y752338D01*
X1500117Y845826D02*
X1504117D01*
X1502117Y843827D02*
Y847826D01*
X1450117Y845826D02*
X1454117D01*
X1452117Y843827D02*
Y847826D01*
X1200117Y995826D02*
X1204117D01*
X1202117Y993827D02*
Y997827D01*
X1150117Y995826D02*
X1154117D01*
X1152117Y993827D02*
Y997827D01*
X1100117Y995826D02*
X1104117D01*
X1102117Y993827D02*
Y997827D01*
X1100117Y945826D02*
X1104117D01*
X1102117Y943827D02*
Y947827D01*
X1100117Y645826D02*
X1104117D01*
X1102117Y643826D02*
Y647826D01*
X1100117Y445826D02*
X1104117D01*
X1102117Y443826D02*
Y447826D01*
X1100117Y395826D02*
X1104117D01*
X1102117Y393826D02*
Y397826D01*
X1050117Y995826D02*
X1054117D01*
X1052117Y993827D02*
Y997827D01*
X1050117Y945826D02*
X1054117D01*
X1052117Y943827D02*
Y947827D01*
X1050117Y895826D02*
X1054117D01*
X1052117Y893827D02*
Y897826D01*
X1050117Y645826D02*
X1054117D01*
X1052117Y643826D02*
Y647826D01*
X1050117Y595826D02*
X1054117D01*
X1052117Y593826D02*
Y597826D01*
X1050117Y545826D02*
X1054117D01*
X1052117Y543826D02*
Y547826D01*
X1050117Y445826D02*
X1054117D01*
X1052117Y443826D02*
Y447826D01*
X1050117Y395826D02*
X1054117D01*
X1052117Y393826D02*
Y397826D01*
X1000117Y995826D02*
X1004117D01*
X1002117Y993827D02*
Y997827D01*
X1000117Y895826D02*
X1004117D01*
X1002117Y893827D02*
Y897826D01*
X1000117Y495826D02*
X1004117D01*
X1002117Y493826D02*
Y497826D01*
X1000117Y445826D02*
X1004117D01*
X1002117Y443826D02*
Y447826D01*
X1000117Y395826D02*
X1004117D01*
X1002117Y393826D02*
Y397826D01*
X950117Y995826D02*
X954117D01*
X952117Y993827D02*
Y997827D01*
X950117Y945826D02*
X954117D01*
X952117Y943827D02*
Y947827D01*
X950117Y895826D02*
X954117D01*
X952117Y893827D02*
Y897826D01*
X950117Y795826D02*
X954117D01*
X952117Y793827D02*
Y797826D01*
X950117Y745826D02*
X954117D01*
X952117Y743827D02*
Y747826D01*
X950117Y445826D02*
X954117D01*
X952117Y443826D02*
Y447826D01*
X950117Y395826D02*
X954117D01*
X952117Y393826D02*
Y397826D01*
X900117Y995826D02*
X904117D01*
X902117Y993827D02*
Y997827D01*
X900117Y945826D02*
X904117D01*
X902117Y943827D02*
Y947827D01*
X900117Y895826D02*
X904117D01*
X902117Y893827D02*
Y897826D01*
X900117Y845826D02*
X904117D01*
X902117Y843827D02*
Y847826D01*
X900117Y745826D02*
X904117D01*
X902117Y743827D02*
Y747826D01*
X900117Y545826D02*
X904117D01*
X902117Y543826D02*
Y547826D01*
X900117Y495826D02*
X904117D01*
X902117Y493826D02*
Y497826D01*
X900117Y445826D02*
X904117D01*
X902117Y443826D02*
Y447826D01*
X900117Y395826D02*
X904117D01*
X902117Y393826D02*
Y397826D01*
X850117Y995826D02*
X854117D01*
X852117Y993827D02*
Y997827D01*
X850117Y945826D02*
X854117D01*
X852117Y943827D02*
Y947827D01*
X850117Y895826D02*
X854117D01*
X852117Y893827D02*
Y897826D01*
X850117Y695826D02*
X854117D01*
X852117Y693827D02*
Y697826D01*
X850117Y495826D02*
X854117D01*
X852117Y493826D02*
Y497826D01*
X850117Y445826D02*
X854117D01*
X852117Y443826D02*
Y447826D01*
X850117Y395826D02*
X854117D01*
X852117Y393826D02*
Y397826D01*
X800117Y995826D02*
X804117D01*
X802117Y993827D02*
Y997827D01*
X800117Y945826D02*
X804117D01*
X802117Y943827D02*
Y947827D01*
X800117Y795826D02*
X804117D01*
X802117Y793827D02*
Y797826D01*
X800117Y745826D02*
X804117D01*
X802117Y743827D02*
Y747826D01*
X800117Y645826D02*
X804117D01*
X802117Y643826D02*
Y647826D01*
X800117Y595826D02*
X804117D01*
X802117Y593826D02*
Y597826D01*
X800117Y495826D02*
X804117D01*
X802117Y493826D02*
Y497826D01*
X800117Y445826D02*
X804117D01*
X802117Y443826D02*
Y447826D01*
X800117Y395826D02*
X804117D01*
X802117Y393826D02*
Y397826D01*
X750117Y995826D02*
X754117D01*
X752117Y993827D02*
Y997827D01*
X750117Y845826D02*
X754117D01*
X752117Y843827D02*
Y847826D01*
X750117Y795826D02*
X754117D01*
X752117Y793827D02*
Y797826D01*
X750117Y745826D02*
X754117D01*
X752117Y743827D02*
Y747826D01*
X750117Y595826D02*
X754117D01*
X752117Y593826D02*
Y597826D01*
X750117Y545826D02*
X754117D01*
X752117Y543826D02*
Y547826D01*
X750117Y395826D02*
X754117D01*
X752117Y393826D02*
Y397826D01*
X700117Y945826D02*
X704117D01*
X702117Y943827D02*
Y947827D01*
X700117Y845826D02*
X704117D01*
X702117Y843827D02*
Y847826D01*
X700117Y795826D02*
X704117D01*
X702117Y793827D02*
Y797826D01*
X700117Y745826D02*
X704117D01*
X702117Y743827D02*
Y747826D01*
X700117Y695826D02*
X704117D01*
X702117Y693827D02*
Y697826D01*
X700117Y595826D02*
X704117D01*
X702117Y593826D02*
Y597826D01*
X700117Y545826D02*
X704117D01*
X702117Y543826D02*
Y547826D01*
X700117Y495826D02*
X704117D01*
X702117Y493826D02*
Y497826D01*
X700117Y395826D02*
X704117D01*
X702117Y393826D02*
Y397826D01*
X650117Y945826D02*
X654117D01*
X652117Y943827D02*
Y947827D01*
X650117Y745826D02*
X654117D01*
X652117Y743827D02*
Y747826D01*
X650117Y695826D02*
X654117D01*
X652117Y693827D02*
Y697826D01*
X650117Y645826D02*
X654117D01*
X652117Y643826D02*
Y647826D01*
X650117Y545826D02*
X654117D01*
X652117Y543826D02*
Y547826D01*
X650117Y495826D02*
X654117D01*
X652117Y493826D02*
Y497826D01*
X918254Y627799D02*
X921254D01*
X919754Y626299D02*
Y629299D01*
X882420Y673100D02*
X885420D01*
X883920Y671600D02*
Y674600D01*
X954810Y647200D02*
X957810D01*
X956310Y645700D02*
Y648700D01*
X968780Y617220D02*
X971780D01*
X970280Y615720D02*
Y618720D01*
X951000Y617220D02*
X954000D01*
X952500Y615720D02*
Y618720D01*
X1189760Y720370D02*
X1192760D01*
X1191260Y718870D02*
Y721870D01*
X1198650Y720090D02*
X1201650D01*
X1200150Y718590D02*
Y721590D01*
X1113886Y715518D02*
X1118886D01*
X1116386Y713018D02*
Y718018D01*
X1113195Y727710D02*
X1118195D01*
X1115695Y725210D02*
Y730210D01*
X1127800Y727710D02*
X1132800D01*
X1130300Y725210D02*
Y730210D01*
X1113195Y740410D02*
X1118195D01*
X1115695Y737910D02*
Y742910D01*
X1127800Y740410D02*
X1132800D01*
X1130300Y737910D02*
Y742910D01*
X1142405Y740410D02*
X1147405D01*
X1144905Y737910D02*
Y742910D01*
X1113195Y753110D02*
X1118195D01*
X1115695Y750610D02*
Y755610D01*
X1127800Y753110D02*
X1132800D01*
X1130300Y750610D02*
Y755610D01*
X1142405Y753110D02*
X1147405D01*
X1144905Y750610D02*
Y755610D01*
X1113195Y765810D02*
X1118195D01*
X1115695Y763310D02*
Y768310D01*
X1127800Y765810D02*
X1132800D01*
X1130300Y763310D02*
Y768310D01*
X1142405Y765810D02*
X1147405D01*
X1144905Y763310D02*
Y768310D01*
X1141770Y779780D02*
X1146770D01*
X1144270Y777280D02*
Y782280D01*
X1127165Y779780D02*
X1132165D01*
X1129665Y777280D02*
Y782280D01*
X1112560Y779780D02*
X1117560D01*
X1115060Y777280D02*
Y782280D01*
X1523000Y850000D02*
X1527000D01*
X1525000Y848000D02*
Y852000D01*
X1473000Y850000D02*
X1477000D01*
X1475000Y848000D02*
Y852000D01*
X1448000Y800000D02*
X1452000D01*
X1450000Y798000D02*
Y802000D01*
X1198000Y1000000D02*
X1202000D01*
X1200000Y998000D02*
Y1002000D01*
X1223000Y950000D02*
X1227000D01*
X1225000Y948000D02*
Y952000D01*
X1148000Y1000000D02*
X1152000D01*
X1150000Y998000D02*
Y1002000D01*
X802410Y605790D02*
X805410D01*
X803910Y604290D02*
Y607290D01*
X802410Y580390D02*
X805410D01*
X803910Y578890D02*
Y581890D01*
X1370100Y962660D02*
X1373100D01*
X1371600Y961160D02*
Y964160D01*
X1196110Y750990D02*
X1199110D01*
X1197610Y749490D02*
Y752490D01*
X1185950Y745394D02*
X1188950D01*
X1187450Y743894D02*
Y746894D01*
X1064030Y735370D02*
X1067030D01*
X1065530Y733870D02*
Y736870D01*
X1064030Y744220D02*
X1067030D01*
X1065530Y742720D02*
Y745720D01*
X1520000Y840000D02*
X1525000D01*
X1522500Y837500D02*
Y842500D01*
X1512500Y825000D02*
X1517500D01*
X1515000Y822500D02*
Y827500D01*
X1505000Y840000D02*
X1510000D01*
X1507500Y837500D02*
Y842500D01*
X1497500Y825000D02*
X1502500D01*
X1500000Y822500D02*
Y827500D01*
X1490000Y840000D02*
X1495000D01*
X1492500Y837500D02*
Y842500D01*
X1482500Y825000D02*
X1487500D01*
X1485000Y822500D02*
Y827500D01*
X1490000Y810000D02*
X1495000D01*
X1492500Y807500D02*
Y812500D01*
X1475000Y840000D02*
X1480000D01*
X1477500Y837500D02*
Y842500D01*
X1467500Y825000D02*
X1472500D01*
X1470000Y822500D02*
Y827500D01*
X1475000Y810000D02*
X1480000D01*
X1477500Y807500D02*
Y812500D01*
X1460000Y840000D02*
X1465000D01*
X1462500Y837500D02*
Y842500D01*
X1452500Y825000D02*
X1457500D01*
X1455000Y822500D02*
Y827500D01*
X1460000Y810000D02*
X1465000D01*
X1462500Y807500D02*
Y812500D01*
X1445000Y840000D02*
X1450000D01*
X1447500Y837500D02*
Y842500D01*
X1242500Y975000D02*
X1247500D01*
X1245000Y972500D02*
Y977500D01*
X1227500Y975000D02*
X1232500D01*
X1230000Y972500D02*
Y977500D01*
X1227500Y945000D02*
X1232500D01*
X1230000Y942500D02*
Y947500D01*
X1235000Y870000D02*
X1240000D01*
X1237500Y867500D02*
Y872500D01*
X1235000Y840000D02*
X1240000D01*
X1237500Y837500D02*
Y842500D01*
X1220000Y990000D02*
X1225000D01*
X1222500Y987500D02*
Y992500D01*
X1212500Y975000D02*
X1217500D01*
X1215000Y972500D02*
Y977500D01*
X1205000Y990000D02*
X1210000D01*
X1207500Y987500D02*
Y992500D01*
X1197500Y975000D02*
X1202500D01*
X1200000Y972500D02*
Y977500D01*
X1205000Y960000D02*
X1210000D01*
X1207500Y957500D02*
Y962500D01*
X1182500Y1005000D02*
X1187500D01*
X1185000Y1002500D02*
Y1007500D01*
X1190000Y990000D02*
X1195000D01*
X1192500Y987500D02*
Y992500D01*
X1182500Y975000D02*
X1187500D01*
X1185000Y972500D02*
Y977500D01*
X1167500Y1005000D02*
X1172500D01*
X1170000Y1002500D02*
Y1007500D01*
X1175000Y990000D02*
X1180000D01*
X1177500Y987500D02*
Y992500D01*
X1167500Y975000D02*
X1172500D01*
X1170000Y972500D02*
Y977500D01*
X1152500Y1005000D02*
X1157500D01*
X1155000Y1002500D02*
Y1007500D01*
X1160000Y990000D02*
X1165000D01*
X1162500Y987500D02*
Y992500D01*
X1152500Y975000D02*
X1157500D01*
X1155000Y972500D02*
Y977500D01*
X1160000Y540000D02*
X1165000D01*
X1162500Y537500D02*
Y542500D01*
X1145000Y990000D02*
X1150000D01*
X1147500Y987500D02*
Y992500D01*
X984020Y710370D02*
X987020D01*
X985520Y708870D02*
Y711870D01*
X974021Y720370D02*
X977021D01*
X975521Y718870D02*
Y721870D01*
X1254530Y645160D02*
X1257530D01*
X1256030Y643660D02*
Y646660D01*
X1248166Y651524D02*
X1251166D01*
X1249666Y650024D02*
Y653024D01*
X1255340Y679487D02*
X1258340D01*
X1256840Y677987D02*
Y680987D01*
X1260880Y687070D02*
X1263880D01*
X1262380Y685570D02*
Y688570D01*
X1452760Y624840D02*
X1455760D01*
X1454260Y623340D02*
Y626340D01*
X1443760Y624840D02*
X1446760D01*
X1445260Y623340D02*
Y626340D01*
X1458310Y1014270D02*
X1461310D01*
X1459810Y1012770D02*
Y1015770D01*
X1211350Y570230D02*
X1214350D01*
X1212850Y568730D02*
Y571730D01*
X1211350Y580390D02*
X1214350D01*
X1212850Y578890D02*
Y581890D01*
X1211350Y590550D02*
X1214350D01*
X1212850Y589050D02*
Y592050D01*
X1211350Y601980D02*
X1214350D01*
X1212850Y600480D02*
Y603480D01*
X1211350Y612140D02*
X1214350D01*
X1212850Y610640D02*
Y613640D01*
X902740Y786130D02*
X905740D01*
X904240Y784630D02*
Y787630D01*
X919250Y744220D02*
X922250D01*
X920750Y742720D02*
Y745720D01*
X963700Y699080D02*
X966700D01*
X965200Y697580D02*
Y700580D01*
X978940Y698500D02*
X981940D01*
X980440Y697000D02*
Y700000D01*
X994180Y693420D02*
X997180D01*
X995680Y691920D02*
Y694920D01*
X1078000Y782320D02*
X1081000D01*
X1079500Y780820D02*
Y783820D01*
X1183410Y699770D02*
X1186410D01*
X1184910Y698270D02*
Y701270D01*
X1188490Y689610D02*
X1191490D01*
X1189990Y688110D02*
Y691110D01*
X850670Y608330D02*
X853670D01*
X852170Y606830D02*
Y609830D01*
X870990Y623570D02*
X873990D01*
X872490Y622070D02*
Y625070D01*
X1175000Y660000D02*
X1180000D01*
X1177500Y657500D02*
Y662500D01*
X1160000Y660000D02*
X1165000D01*
X1162500Y657500D02*
Y662500D01*
X1512500Y825000D02*
X1517500D01*
X1515000Y822500D02*
Y827500D01*
X1505000Y840000D02*
X1510000D01*
X1507500Y837500D02*
Y842500D01*
X1490000Y840000D02*
X1495000D01*
X1492500Y837500D02*
Y842500D01*
X1482500Y825000D02*
X1487500D01*
X1485000Y822500D02*
Y827500D01*
X1475000Y840000D02*
X1480000D01*
X1477500Y837500D02*
Y842500D01*
X1467500Y825000D02*
X1472500D01*
X1470000Y822500D02*
Y827500D01*
X1475000Y810000D02*
X1480000D01*
X1477500Y807500D02*
Y812500D01*
X1460000Y840000D02*
X1465000D01*
X1462500Y837500D02*
Y842500D01*
X1452500Y825000D02*
X1457500D01*
X1455000Y822500D02*
Y827500D01*
X1460000Y810000D02*
X1465000D01*
X1462500Y807500D02*
Y812500D01*
X1445000Y840000D02*
X1450000D01*
X1447500Y837500D02*
Y842500D01*
X1227500Y945000D02*
X1232500D01*
X1230000Y942500D02*
Y947500D01*
X1235000Y870000D02*
X1240000D01*
X1237500Y867500D02*
Y872500D01*
X1205000Y960000D02*
X1210000D01*
X1207500Y957500D02*
Y962500D01*
X1182500Y1005000D02*
X1187500D01*
X1185000Y1002500D02*
Y1007500D01*
X1182500Y975000D02*
X1187500D01*
X1185000Y972500D02*
Y977500D01*
X1167500Y1005000D02*
X1172500D01*
X1170000Y1002500D02*
Y1007500D01*
X1167500Y975000D02*
X1172500D01*
X1170000Y972500D02*
Y977500D01*
X1152500Y1005000D02*
X1157500D01*
X1155000Y1002500D02*
Y1007500D01*
X1160000Y990000D02*
X1165000D01*
X1162500Y987500D02*
Y992500D01*
X1152500Y975000D02*
X1157500D01*
X1155000Y972500D02*
Y977500D01*
X831620Y684530D02*
X834620D01*
X833120Y683030D02*
Y686030D01*
X872260Y643890D02*
X875260D01*
X873760Y642390D02*
Y645390D01*
X835416Y652780D02*
X838416D01*
X836916Y651280D02*
Y654280D01*
X910360Y601980D02*
X913360D01*
X911860Y600480D02*
Y603480D01*
X907820Y549910D02*
X910820D01*
X909320Y548410D02*
Y551410D01*
X970050Y554990D02*
X973050D01*
X971550Y553490D02*
Y556490D01*
X870990Y584200D02*
X873990D01*
X872490Y582700D02*
Y585700D01*
X719860Y652780D02*
X722860D01*
X721360Y651280D02*
Y654280D01*
X735100Y566420D02*
X738100D01*
X736600Y564920D02*
Y567920D01*
X900200Y734060D02*
X903200D01*
X901700Y732560D02*
Y735560D01*
X1130070Y439420D02*
X1133070D01*
X1131570Y437920D02*
Y440920D01*
X1075460Y768350D02*
X1078460D01*
X1076960Y766850D02*
Y769850D01*
X985290Y819150D02*
X988290D01*
X986790Y817650D02*
Y820650D01*
X1015770Y770890D02*
X1018770D01*
X1017270Y769390D02*
Y772390D01*
X995450Y779780D02*
X998450D01*
X996950Y778280D02*
Y781280D01*
X1159280Y488950D02*
X1162280D01*
X1160780Y487450D02*
Y490450D01*
X1100860Y414020D02*
X1103860D01*
X1102360Y412520D02*
Y415520D01*
X939570Y857250D02*
X942570D01*
X941070Y855750D02*
Y858750D01*
X892580Y821690D02*
X895580D01*
X894080Y820190D02*
Y823190D01*
X906550Y821690D02*
X909550D01*
X908050Y820190D02*
Y823190D01*
X793520Y763270D02*
X796520D01*
X795020Y761770D02*
Y764770D01*
X788440Y716280D02*
X791440D01*
X789940Y714780D02*
Y717780D01*
X847730Y556649D02*
X850730D01*
X849230Y555149D02*
Y558149D01*
X966240Y523240D02*
X969240D01*
X967740Y521740D02*
Y524740D01*
X916710Y458470D02*
X919710D01*
X918210Y456970D02*
Y459970D01*
X995450Y1130300D02*
X998450D01*
X996950Y1128800D02*
Y1131800D01*
X1003070Y1130300D02*
X1006070D01*
X1004570Y1128800D02*
Y1131800D01*
X1010690Y1130300D02*
X1013690D01*
X1012190Y1128800D02*
Y1131800D01*
X1018310Y1130300D02*
X1021310D01*
X1019810Y1128800D02*
Y1131800D01*
X1025930Y1130300D02*
X1028930D01*
X1027430Y1128800D02*
Y1131800D01*
X1025930Y1122680D02*
X1028930D01*
X1027430Y1121180D02*
Y1124180D01*
X1018310Y1122680D02*
X1021310D01*
X1019810Y1121180D02*
Y1124180D01*
X1010690Y1122680D02*
X1013690D01*
X1012190Y1121180D02*
Y1124180D01*
X1003070Y1122680D02*
X1006070D01*
X1004570Y1121180D02*
Y1124180D01*
X995450Y1122680D02*
X998450D01*
X996950Y1121180D02*
Y1124180D01*
X995450Y1115060D02*
X998450D01*
X996950Y1113560D02*
Y1116560D01*
X1003070Y1115060D02*
X1006070D01*
X1004570Y1113560D02*
Y1116560D01*
X1010690Y1115060D02*
X1013690D01*
X1012190Y1113560D02*
Y1116560D01*
X1018310Y1115060D02*
X1021310D01*
X1019810Y1113560D02*
Y1116560D01*
X1025930Y1115060D02*
X1028930D01*
X1027430Y1113560D02*
Y1116560D01*
X1025930Y1107440D02*
X1028930D01*
X1027430Y1105940D02*
Y1108940D01*
X1018310Y1107440D02*
X1021310D01*
X1019810Y1105940D02*
Y1108940D01*
X1010690Y1107440D02*
X1013690D01*
X1012190Y1105940D02*
Y1108940D01*
X1003070Y1107440D02*
X1006070D01*
X1004570Y1105940D02*
Y1108940D01*
X995450Y1107440D02*
X998450D01*
X996950Y1105940D02*
Y1108940D01*
X995450Y1099820D02*
X998450D01*
X996950Y1098320D02*
Y1101320D01*
X1003070Y1099820D02*
X1006070D01*
X1004570Y1098320D02*
Y1101320D01*
X1010690Y1099820D02*
X1013690D01*
X1012190Y1098320D02*
Y1101320D01*
X1018310Y1099820D02*
X1021310D01*
X1019810Y1098320D02*
Y1101320D01*
X1025930Y1099820D02*
X1028930D01*
X1027430Y1098320D02*
Y1101320D01*
X1025930Y1092200D02*
X1028930D01*
X1027430Y1090700D02*
Y1093700D01*
X1018310Y1092200D02*
X1021310D01*
X1019810Y1090700D02*
Y1093700D01*
X1010690Y1092200D02*
X1013690D01*
X1012190Y1090700D02*
Y1093700D01*
X1003070Y1092200D02*
X1006070D01*
X1004570Y1090700D02*
Y1093700D01*
X995450Y1092200D02*
X998450D01*
X996950Y1090700D02*
Y1093700D01*
X995450Y1084580D02*
X998450D01*
X996950Y1083080D02*
Y1086080D01*
X1003070Y1084580D02*
X1006070D01*
X1004570Y1083080D02*
Y1086080D01*
X1010690Y1084580D02*
X1013690D01*
X1012190Y1083080D02*
Y1086080D01*
X1018310Y1084580D02*
X1021310D01*
X1019810Y1083080D02*
Y1086080D01*
X1025930Y1084580D02*
X1028930D01*
X1027430Y1083080D02*
Y1086080D01*
X1025930Y1076960D02*
X1028930D01*
X1027430Y1075460D02*
Y1078460D01*
X1018310Y1076960D02*
X1021310D01*
X1019810Y1075460D02*
Y1078460D01*
X1010690Y1076960D02*
X1013690D01*
X1012190Y1075460D02*
Y1078460D01*
X1003070Y1076960D02*
X1006070D01*
X1004570Y1075460D02*
Y1078460D01*
X995450Y1076960D02*
X998450D01*
X996950Y1075460D02*
Y1078460D01*
X995450Y1069340D02*
X998450D01*
X996950Y1067840D02*
Y1070840D01*
X1003070Y1069340D02*
X1006070D01*
X1004570Y1067840D02*
Y1070840D01*
X1010690Y1069340D02*
X1013690D01*
X1012190Y1067840D02*
Y1070840D01*
X1018310Y1069340D02*
X1021310D01*
X1019810Y1067840D02*
Y1070840D01*
X1025930Y1069340D02*
X1028930D01*
X1027430Y1067840D02*
Y1070840D01*
X1025930Y1137920D02*
X1028930D01*
X1027430Y1136420D02*
Y1139420D01*
X1018310Y1137920D02*
X1021310D01*
X1019810Y1136420D02*
Y1139420D01*
X1010690Y1137920D02*
X1013690D01*
X1012190Y1136420D02*
Y1139420D01*
X1003070Y1137920D02*
X1006070D01*
X1004570Y1136420D02*
Y1139420D01*
X995450Y1137920D02*
X998450D01*
X996950Y1136420D02*
Y1139420D01*
X995450Y1145540D02*
X998450D01*
X996950Y1144040D02*
Y1147040D01*
X1003070Y1145540D02*
X1006070D01*
X1004570Y1144040D02*
Y1147040D01*
X1010690Y1145540D02*
X1013690D01*
X1012190Y1144040D02*
Y1147040D01*
X1018310Y1145540D02*
X1021310D01*
X1019810Y1144040D02*
Y1147040D01*
X1025930Y1153160D02*
X1028930D01*
X1027430Y1151660D02*
Y1154660D01*
X1018310Y1153160D02*
X1021310D01*
X1019810Y1151660D02*
Y1154660D01*
X1010690Y1153160D02*
X1013690D01*
X1012190Y1151660D02*
Y1154660D01*
X1003070Y1153160D02*
X1006070D01*
X1004570Y1151660D02*
Y1154660D01*
X995450Y1153160D02*
X998450D01*
X996950Y1151660D02*
Y1154660D01*
X1025930Y1145540D02*
X1028930D01*
X1027430Y1144040D02*
Y1147040D01*
X1033550Y1153160D02*
X1036550D01*
X1035050Y1151660D02*
Y1154660D01*
X1033550Y1145540D02*
X1036550D01*
X1035050Y1144040D02*
Y1147040D01*
X1033550Y1137920D02*
X1036550D01*
X1035050Y1136420D02*
Y1139420D01*
X1033550Y1130300D02*
X1036550D01*
X1035050Y1128800D02*
Y1131800D01*
X1033550Y1122680D02*
X1036550D01*
X1035050Y1121180D02*
Y1124180D01*
X1033550Y1115060D02*
X1036550D01*
X1035050Y1113560D02*
Y1116560D01*
X1033550Y1107440D02*
X1036550D01*
X1035050Y1105940D02*
Y1108940D01*
X1033550Y1099820D02*
X1036550D01*
X1035050Y1098320D02*
Y1101320D01*
X1033550Y1092200D02*
X1036550D01*
X1035050Y1090700D02*
Y1093700D01*
X1033550Y1084580D02*
X1036550D01*
X1035050Y1083080D02*
Y1086080D01*
X1033550Y1076960D02*
X1036550D01*
X1035050Y1075460D02*
Y1078460D01*
X1033550Y1069340D02*
X1036550D01*
X1035050Y1067840D02*
Y1070840D01*
X1041170Y1153160D02*
X1044170D01*
X1042670Y1151660D02*
Y1154660D01*
X1041170Y1145540D02*
X1044170D01*
X1042670Y1144040D02*
Y1147040D01*
X1041170Y1137920D02*
X1044170D01*
X1042670Y1136420D02*
Y1139420D01*
X1041170Y1130300D02*
X1044170D01*
X1042670Y1128800D02*
Y1131800D01*
X1041170Y1122680D02*
X1044170D01*
X1042670Y1121180D02*
Y1124180D01*
X1041170Y1115060D02*
X1044170D01*
X1042670Y1113560D02*
Y1116560D01*
X1041170Y1107440D02*
X1044170D01*
X1042670Y1105940D02*
Y1108940D01*
X1041170Y1099820D02*
X1044170D01*
X1042670Y1098320D02*
Y1101320D01*
X1041170Y1092200D02*
X1044170D01*
X1042670Y1090700D02*
Y1093700D01*
X1041170Y1084580D02*
X1044170D01*
X1042670Y1083080D02*
Y1086080D01*
X1041170Y1076960D02*
X1044170D01*
X1042670Y1075460D02*
Y1078460D01*
X1041170Y1069340D02*
X1044170D01*
X1042670Y1067840D02*
Y1070840D01*
X1048790Y1145540D02*
X1051790D01*
X1050290Y1144040D02*
Y1147040D01*
X1048790Y1137920D02*
X1051790D01*
X1050290Y1136420D02*
Y1139420D01*
X1048790Y1130300D02*
X1051790D01*
X1050290Y1128800D02*
Y1131800D01*
X1048790Y1122680D02*
X1051790D01*
X1050290Y1121180D02*
Y1124180D01*
X1048790Y1115060D02*
X1051790D01*
X1050290Y1113560D02*
Y1116560D01*
X1048790Y1107440D02*
X1051790D01*
X1050290Y1105940D02*
Y1108940D01*
X1048790Y1099820D02*
X1051790D01*
X1050290Y1098320D02*
Y1101320D01*
X1048790Y1092200D02*
X1051790D01*
X1050290Y1090700D02*
Y1093700D01*
X1048790Y1084580D02*
X1051790D01*
X1050290Y1083080D02*
Y1086080D01*
X1048790Y1076960D02*
X1051790D01*
X1050290Y1075460D02*
Y1078460D01*
X987830Y1069340D02*
X990830D01*
X989330Y1067840D02*
Y1070840D01*
X987830Y1076960D02*
X990830D01*
X989330Y1075460D02*
Y1078460D01*
X987830Y1084580D02*
X990830D01*
X989330Y1083080D02*
Y1086080D01*
X987830Y1092200D02*
X990830D01*
X989330Y1090700D02*
Y1093700D01*
X987830Y1099820D02*
X990830D01*
X989330Y1098320D02*
Y1101320D01*
X987830Y1107440D02*
X990830D01*
X989330Y1105940D02*
Y1108940D01*
X987830Y1115060D02*
X990830D01*
X989330Y1113560D02*
Y1116560D01*
X987830Y1122680D02*
X990830D01*
X989330Y1121180D02*
Y1124180D01*
X987830Y1130300D02*
X990830D01*
X989330Y1128800D02*
Y1131800D01*
X987830Y1137920D02*
X990830D01*
X989330Y1136420D02*
Y1139420D01*
X987830Y1145540D02*
X990830D01*
X989330Y1144040D02*
Y1147040D01*
X987830Y1153160D02*
X990830D01*
X989330Y1151660D02*
Y1154660D01*
X980210Y1153160D02*
X983210D01*
X981710Y1151660D02*
Y1154660D01*
X980210Y1145540D02*
X983210D01*
X981710Y1144040D02*
Y1147040D01*
X980210Y1137920D02*
X983210D01*
X981710Y1136420D02*
Y1139420D01*
X980210Y1130300D02*
X983210D01*
X981710Y1128800D02*
Y1131800D01*
X980210Y1122680D02*
X983210D01*
X981710Y1121180D02*
Y1124180D01*
X980210Y1115060D02*
X983210D01*
X981710Y1113560D02*
Y1116560D01*
X980210Y1107440D02*
X983210D01*
X981710Y1105940D02*
Y1108940D01*
X980210Y1099820D02*
X983210D01*
X981710Y1098320D02*
Y1101320D01*
X980210Y1092200D02*
X983210D01*
X981710Y1090700D02*
Y1093700D01*
X980210Y1084580D02*
X983210D01*
X981710Y1083080D02*
Y1086080D01*
X980210Y1076960D02*
X983210D01*
X981710Y1075460D02*
Y1078460D01*
X980210Y1069340D02*
X983210D01*
X981710Y1067840D02*
Y1070840D01*
X972590Y1076960D02*
X975590D01*
X974090Y1075460D02*
Y1078460D01*
X972590Y1084580D02*
X975590D01*
X974090Y1083080D02*
Y1086080D01*
X972590Y1092200D02*
X975590D01*
X974090Y1090700D02*
Y1093700D01*
X972590Y1099820D02*
X975590D01*
X974090Y1098320D02*
Y1101320D01*
X972590Y1107440D02*
X975590D01*
X974090Y1105940D02*
Y1108940D01*
X972590Y1115060D02*
X975590D01*
X974090Y1113560D02*
Y1116560D01*
X972590Y1122680D02*
X975590D01*
X974090Y1121180D02*
Y1124180D01*
X972590Y1130300D02*
X975590D01*
X974090Y1128800D02*
Y1131800D01*
X972590Y1137920D02*
X975590D01*
X974090Y1136420D02*
Y1139420D01*
X972590Y1145540D02*
X975590D01*
X974090Y1144040D02*
Y1147040D01*
X1132610Y1146810D02*
X1135610D01*
X1134110Y1145310D02*
Y1148310D01*
X1132610Y1139190D02*
X1135610D01*
X1134110Y1137690D02*
Y1140690D01*
X1132610Y1131570D02*
X1135610D01*
X1134110Y1130070D02*
Y1133070D01*
X1132610Y1123950D02*
X1135610D01*
X1134110Y1122450D02*
Y1125450D01*
X1132610Y1116330D02*
X1135610D01*
X1134110Y1114830D02*
Y1117830D01*
X1132610Y1108710D02*
X1135610D01*
X1134110Y1107210D02*
Y1110210D01*
X1132610Y1101090D02*
X1135610D01*
X1134110Y1099590D02*
Y1102590D01*
X1132610Y1093470D02*
X1135610D01*
X1134110Y1091970D02*
Y1094970D01*
X1132610Y1085850D02*
X1135610D01*
X1134110Y1084350D02*
Y1087350D01*
X1132610Y1078230D02*
X1135610D01*
X1134110Y1076730D02*
Y1079730D01*
X1140230Y1070610D02*
X1143230D01*
X1141730Y1069110D02*
Y1072110D01*
X1140230Y1078230D02*
X1143230D01*
X1141730Y1076730D02*
Y1079730D01*
X1140230Y1085850D02*
X1143230D01*
X1141730Y1084350D02*
Y1087350D01*
X1140230Y1093470D02*
X1143230D01*
X1141730Y1091970D02*
Y1094970D01*
X1140230Y1101090D02*
X1143230D01*
X1141730Y1099590D02*
Y1102590D01*
X1140230Y1108710D02*
X1143230D01*
X1141730Y1107210D02*
Y1110210D01*
X1140230Y1116330D02*
X1143230D01*
X1141730Y1114830D02*
Y1117830D01*
X1140230Y1123950D02*
X1143230D01*
X1141730Y1122450D02*
Y1125450D01*
X1140230Y1131570D02*
X1143230D01*
X1141730Y1130070D02*
Y1133070D01*
X1140230Y1139190D02*
X1143230D01*
X1141730Y1137690D02*
Y1140690D01*
X1140230Y1146810D02*
X1143230D01*
X1141730Y1145310D02*
Y1148310D01*
X1140230Y1154430D02*
X1143230D01*
X1141730Y1152930D02*
Y1155930D01*
X1147850Y1154430D02*
X1150850D01*
X1149350Y1152930D02*
Y1155930D01*
X1147850Y1146810D02*
X1150850D01*
X1149350Y1145310D02*
Y1148310D01*
X1147850Y1139190D02*
X1150850D01*
X1149350Y1137690D02*
Y1140690D01*
X1147850Y1131570D02*
X1150850D01*
X1149350Y1130070D02*
Y1133070D01*
X1147850Y1123950D02*
X1150850D01*
X1149350Y1122450D02*
Y1125450D01*
X1147850Y1116330D02*
X1150850D01*
X1149350Y1114830D02*
Y1117830D01*
X1147850Y1108710D02*
X1150850D01*
X1149350Y1107210D02*
Y1110210D01*
X1147850Y1101090D02*
X1150850D01*
X1149350Y1099590D02*
Y1102590D01*
X1147850Y1093470D02*
X1150850D01*
X1149350Y1091970D02*
Y1094970D01*
X1147850Y1085850D02*
X1150850D01*
X1149350Y1084350D02*
Y1087350D01*
X1147850Y1078230D02*
X1150850D01*
X1149350Y1076730D02*
Y1079730D01*
X1147850Y1070610D02*
X1150850D01*
X1149350Y1069110D02*
Y1072110D01*
X1208810Y1078230D02*
X1211810D01*
X1210310Y1076730D02*
Y1079730D01*
X1208810Y1085850D02*
X1211810D01*
X1210310Y1084350D02*
Y1087350D01*
X1208810Y1093470D02*
X1211810D01*
X1210310Y1091970D02*
Y1094970D01*
X1208810Y1101090D02*
X1211810D01*
X1210310Y1099590D02*
Y1102590D01*
X1208810Y1108710D02*
X1211810D01*
X1210310Y1107210D02*
Y1110210D01*
X1208810Y1116330D02*
X1211810D01*
X1210310Y1114830D02*
Y1117830D01*
X1208810Y1123950D02*
X1211810D01*
X1210310Y1122450D02*
Y1125450D01*
X1208810Y1131570D02*
X1211810D01*
X1210310Y1130070D02*
Y1133070D01*
X1208810Y1139190D02*
X1211810D01*
X1210310Y1137690D02*
Y1140690D01*
X1208810Y1146810D02*
X1211810D01*
X1210310Y1145310D02*
Y1148310D01*
X1201190Y1070610D02*
X1204190D01*
X1202690Y1069110D02*
Y1072110D01*
X1201190Y1078230D02*
X1204190D01*
X1202690Y1076730D02*
Y1079730D01*
X1201190Y1085850D02*
X1204190D01*
X1202690Y1084350D02*
Y1087350D01*
X1201190Y1093470D02*
X1204190D01*
X1202690Y1091970D02*
Y1094970D01*
X1201190Y1101090D02*
X1204190D01*
X1202690Y1099590D02*
Y1102590D01*
X1201190Y1108710D02*
X1204190D01*
X1202690Y1107210D02*
Y1110210D01*
X1201190Y1116330D02*
X1204190D01*
X1202690Y1114830D02*
Y1117830D01*
X1201190Y1123950D02*
X1204190D01*
X1202690Y1122450D02*
Y1125450D01*
X1201190Y1131570D02*
X1204190D01*
X1202690Y1130070D02*
Y1133070D01*
X1201190Y1139190D02*
X1204190D01*
X1202690Y1137690D02*
Y1140690D01*
X1201190Y1146810D02*
X1204190D01*
X1202690Y1145310D02*
Y1148310D01*
X1201190Y1154430D02*
X1204190D01*
X1202690Y1152930D02*
Y1155930D01*
X1193570Y1070610D02*
X1196570D01*
X1195070Y1069110D02*
Y1072110D01*
X1193570Y1078230D02*
X1196570D01*
X1195070Y1076730D02*
Y1079730D01*
X1193570Y1085850D02*
X1196570D01*
X1195070Y1084350D02*
Y1087350D01*
X1193570Y1093470D02*
X1196570D01*
X1195070Y1091970D02*
Y1094970D01*
X1193570Y1101090D02*
X1196570D01*
X1195070Y1099590D02*
Y1102590D01*
X1193570Y1108710D02*
X1196570D01*
X1195070Y1107210D02*
Y1110210D01*
X1193570Y1116330D02*
X1196570D01*
X1195070Y1114830D02*
Y1117830D01*
X1193570Y1123950D02*
X1196570D01*
X1195070Y1122450D02*
Y1125450D01*
X1193570Y1131570D02*
X1196570D01*
X1195070Y1130070D02*
Y1133070D01*
X1193570Y1139190D02*
X1196570D01*
X1195070Y1137690D02*
Y1140690D01*
X1193570Y1146810D02*
X1196570D01*
X1195070Y1145310D02*
Y1148310D01*
X1193570Y1154430D02*
X1196570D01*
X1195070Y1152930D02*
Y1155930D01*
X1185950Y1146810D02*
X1188950D01*
X1187450Y1145310D02*
Y1148310D01*
X1155470Y1154430D02*
X1158470D01*
X1156970Y1152930D02*
Y1155930D01*
X1163090Y1154430D02*
X1166090D01*
X1164590Y1152930D02*
Y1155930D01*
X1170710Y1154430D02*
X1173710D01*
X1172210Y1152930D02*
Y1155930D01*
X1178330Y1154430D02*
X1181330D01*
X1179830Y1152930D02*
Y1155930D01*
X1185950Y1154430D02*
X1188950D01*
X1187450Y1152930D02*
Y1155930D01*
X1178330Y1146810D02*
X1181330D01*
X1179830Y1145310D02*
Y1148310D01*
X1170710Y1146810D02*
X1173710D01*
X1172210Y1145310D02*
Y1148310D01*
X1163090Y1146810D02*
X1166090D01*
X1164590Y1145310D02*
Y1148310D01*
X1155470Y1146810D02*
X1158470D01*
X1156970Y1145310D02*
Y1148310D01*
X1155470Y1139190D02*
X1158470D01*
X1156970Y1137690D02*
Y1140690D01*
X1163090Y1139190D02*
X1166090D01*
X1164590Y1137690D02*
Y1140690D01*
X1170710Y1139190D02*
X1173710D01*
X1172210Y1137690D02*
Y1140690D01*
X1178330Y1139190D02*
X1181330D01*
X1179830Y1137690D02*
Y1140690D01*
X1185950Y1139190D02*
X1188950D01*
X1187450Y1137690D02*
Y1140690D01*
X1185950Y1070610D02*
X1188950D01*
X1187450Y1069110D02*
Y1072110D01*
X1178330Y1070610D02*
X1181330D01*
X1179830Y1069110D02*
Y1072110D01*
X1170710Y1070610D02*
X1173710D01*
X1172210Y1069110D02*
Y1072110D01*
X1163090Y1070610D02*
X1166090D01*
X1164590Y1069110D02*
Y1072110D01*
X1155470Y1070610D02*
X1158470D01*
X1156970Y1069110D02*
Y1072110D01*
X1155470Y1078230D02*
X1158470D01*
X1156970Y1076730D02*
Y1079730D01*
X1163090Y1078230D02*
X1166090D01*
X1164590Y1076730D02*
Y1079730D01*
X1170710Y1078230D02*
X1173710D01*
X1172210Y1076730D02*
Y1079730D01*
X1178330Y1078230D02*
X1181330D01*
X1179830Y1076730D02*
Y1079730D01*
X1185950Y1078230D02*
X1188950D01*
X1187450Y1076730D02*
Y1079730D01*
X1185950Y1085850D02*
X1188950D01*
X1187450Y1084350D02*
Y1087350D01*
X1178330Y1085850D02*
X1181330D01*
X1179830Y1084350D02*
Y1087350D01*
X1170710Y1085850D02*
X1173710D01*
X1172210Y1084350D02*
Y1087350D01*
X1163090Y1085850D02*
X1166090D01*
X1164590Y1084350D02*
Y1087350D01*
X1155470Y1085850D02*
X1158470D01*
X1156970Y1084350D02*
Y1087350D01*
X1155470Y1093470D02*
X1158470D01*
X1156970Y1091970D02*
Y1094970D01*
X1163090Y1093470D02*
X1166090D01*
X1164590Y1091970D02*
Y1094970D01*
X1170710Y1093470D02*
X1173710D01*
X1172210Y1091970D02*
Y1094970D01*
X1178330Y1093470D02*
X1181330D01*
X1179830Y1091970D02*
Y1094970D01*
X1185950Y1093470D02*
X1188950D01*
X1187450Y1091970D02*
Y1094970D01*
X1185950Y1101090D02*
X1188950D01*
X1187450Y1099590D02*
Y1102590D01*
X1178330Y1101090D02*
X1181330D01*
X1179830Y1099590D02*
Y1102590D01*
X1170710Y1101090D02*
X1173710D01*
X1172210Y1099590D02*
Y1102590D01*
X1163090Y1101090D02*
X1166090D01*
X1164590Y1099590D02*
Y1102590D01*
X1155470Y1101090D02*
X1158470D01*
X1156970Y1099590D02*
Y1102590D01*
X1155470Y1108710D02*
X1158470D01*
X1156970Y1107210D02*
Y1110210D01*
X1163090Y1108710D02*
X1166090D01*
X1164590Y1107210D02*
Y1110210D01*
X1170710Y1108710D02*
X1173710D01*
X1172210Y1107210D02*
Y1110210D01*
X1178330Y1108710D02*
X1181330D01*
X1179830Y1107210D02*
Y1110210D01*
X1185950Y1108710D02*
X1188950D01*
X1187450Y1107210D02*
Y1110210D01*
X1185950Y1116330D02*
X1188950D01*
X1187450Y1114830D02*
Y1117830D01*
X1178330Y1116330D02*
X1181330D01*
X1179830Y1114830D02*
Y1117830D01*
X1170710Y1116330D02*
X1173710D01*
X1172210Y1114830D02*
Y1117830D01*
X1163090Y1116330D02*
X1166090D01*
X1164590Y1114830D02*
Y1117830D01*
X1155470Y1116330D02*
X1158470D01*
X1156970Y1114830D02*
Y1117830D01*
X1155470Y1123950D02*
X1158470D01*
X1156970Y1122450D02*
Y1125450D01*
X1163090Y1123950D02*
X1166090D01*
X1164590Y1122450D02*
Y1125450D01*
X1170710Y1123950D02*
X1173710D01*
X1172210Y1122450D02*
Y1125450D01*
X1178330Y1123950D02*
X1181330D01*
X1179830Y1122450D02*
Y1125450D01*
X1185950Y1123950D02*
X1188950D01*
X1187450Y1122450D02*
Y1125450D01*
X1185950Y1131570D02*
X1188950D01*
X1187450Y1130070D02*
Y1133070D01*
X1178330Y1131570D02*
X1181330D01*
X1179830Y1130070D02*
Y1133070D01*
X1170710Y1131570D02*
X1173710D01*
X1172210Y1130070D02*
Y1133070D01*
X1163090Y1131570D02*
X1166090D01*
X1164590Y1130070D02*
Y1133070D01*
X1155470Y1131570D02*
X1158470D01*
X1156970Y1130070D02*
Y1133070D01*
X1706650Y962660D02*
X1709650D01*
X1708150Y961160D02*
Y964160D01*
X1706650Y970280D02*
X1709650D01*
X1708150Y968780D02*
Y971780D01*
X1706650Y977900D02*
X1709650D01*
X1708150Y976400D02*
Y979400D01*
X1706650Y985520D02*
X1709650D01*
X1708150Y984020D02*
Y987020D01*
X1706650Y993140D02*
X1709650D01*
X1708150Y991640D02*
Y994640D01*
X1714270Y993140D02*
X1717270D01*
X1715770Y991640D02*
Y994640D01*
X1714270Y985520D02*
X1717270D01*
X1715770Y984020D02*
Y987020D01*
X1714270Y977900D02*
X1717270D01*
X1715770Y976400D02*
Y979400D01*
X1714270Y970280D02*
X1717270D01*
X1715770Y968780D02*
Y971780D01*
X1714270Y962660D02*
X1717270D01*
X1715770Y961160D02*
Y964160D01*
X1721890Y962660D02*
X1724890D01*
X1723390Y961160D02*
Y964160D01*
X1721890Y970280D02*
X1724890D01*
X1723390Y968780D02*
Y971780D01*
X1721890Y977900D02*
X1724890D01*
X1723390Y976400D02*
Y979400D01*
X1721890Y985520D02*
X1724890D01*
X1723390Y984020D02*
Y987020D01*
X1721890Y993140D02*
X1724890D01*
X1723390Y991640D02*
Y994640D01*
X1729510Y993140D02*
X1732510D01*
X1731010Y991640D02*
Y994640D01*
X1729510Y985520D02*
X1732510D01*
X1731010Y984020D02*
Y987020D01*
X1729510Y977900D02*
X1732510D01*
X1731010Y976400D02*
Y979400D01*
X1729510Y970280D02*
X1732510D01*
X1731010Y968780D02*
Y971780D01*
X1729510Y962660D02*
X1732510D01*
X1731010Y961160D02*
Y964160D01*
X1737130Y962660D02*
X1740130D01*
X1738630Y961160D02*
Y964160D01*
X1737130Y970280D02*
X1740130D01*
X1738630Y968780D02*
Y971780D01*
X1737130Y977900D02*
X1740130D01*
X1738630Y976400D02*
Y979400D01*
X1737130Y985520D02*
X1740130D01*
X1738630Y984020D02*
Y987020D01*
X1737130Y993140D02*
X1740130D01*
X1738630Y991640D02*
Y994640D01*
X1744750Y993140D02*
X1747750D01*
X1746250Y991640D02*
Y994640D01*
X1744750Y985520D02*
X1747750D01*
X1746250Y984020D02*
Y987020D01*
X1744750Y977900D02*
X1747750D01*
X1746250Y976400D02*
Y979400D01*
X1744750Y970280D02*
X1747750D01*
X1746250Y968780D02*
Y971780D01*
X1744750Y962660D02*
X1747750D01*
X1746250Y961160D02*
Y964160D01*
X1752370Y962660D02*
X1755370D01*
X1753870Y961160D02*
Y964160D01*
X1752370Y970280D02*
X1755370D01*
X1753870Y968780D02*
Y971780D01*
X1752370Y977900D02*
X1755370D01*
X1753870Y976400D02*
Y979400D01*
X1752370Y985520D02*
X1755370D01*
X1753870Y984020D02*
Y987020D01*
X1752370Y993140D02*
X1755370D01*
X1753870Y991640D02*
Y994640D01*
X1759990Y993140D02*
X1762990D01*
X1761490Y991640D02*
Y994640D01*
X1759990Y985520D02*
X1762990D01*
X1761490Y984020D02*
Y987020D01*
X1759990Y977900D02*
X1762990D01*
X1761490Y976400D02*
Y979400D01*
X1759990Y970280D02*
X1762990D01*
X1761490Y968780D02*
Y971780D01*
X1759990Y962660D02*
X1762990D01*
X1761490Y961160D02*
Y964160D01*
X1767610Y962660D02*
X1770610D01*
X1769110Y961160D02*
Y964160D01*
X1767610Y970280D02*
X1770610D01*
X1769110Y968780D02*
Y971780D01*
X1767610Y977900D02*
X1770610D01*
X1769110Y976400D02*
Y979400D01*
X1767610Y985520D02*
X1770610D01*
X1769110Y984020D02*
Y987020D01*
X1767610Y993140D02*
X1770610D01*
X1769110Y991640D02*
Y994640D01*
X1699030Y993140D02*
X1702030D01*
X1700530Y991640D02*
Y994640D01*
X1699030Y985520D02*
X1702030D01*
X1700530Y984020D02*
Y987020D01*
X1699030Y977900D02*
X1702030D01*
X1700530Y976400D02*
Y979400D01*
X1699030Y970280D02*
X1702030D01*
X1700530Y968780D02*
Y971780D01*
X1699030Y962660D02*
X1702030D01*
X1700530Y961160D02*
Y964160D01*
X1691410Y962660D02*
X1694410D01*
X1692910Y961160D02*
Y964160D01*
X1691410Y970280D02*
X1694410D01*
X1692910Y968780D02*
Y971780D01*
X1691410Y977900D02*
X1694410D01*
X1692910Y976400D02*
Y979400D01*
X1691410Y985520D02*
X1694410D01*
X1692910Y984020D02*
Y987020D01*
X1683790Y993140D02*
X1686790D01*
X1685290Y991640D02*
Y994640D01*
X1683790Y985520D02*
X1686790D01*
X1685290Y984020D02*
Y987020D01*
X1683790Y977900D02*
X1686790D01*
X1685290Y976400D02*
Y979400D01*
X1683790Y970280D02*
X1686790D01*
X1685290Y968780D02*
Y971780D01*
X1683790Y962660D02*
X1686790D01*
X1685290Y961160D02*
Y964160D01*
X1691410Y993140D02*
X1694410D01*
X1692910Y991640D02*
Y994640D01*
X1683790Y1000760D02*
X1686790D01*
X1685290Y999260D02*
Y1002260D01*
X1691410Y1000760D02*
X1694410D01*
X1692910Y999260D02*
Y1002260D01*
X1699030Y1000760D02*
X1702030D01*
X1700530Y999260D02*
Y1002260D01*
X1706650Y1000760D02*
X1709650D01*
X1708150Y999260D02*
Y1002260D01*
X1714270Y1000760D02*
X1717270D01*
X1715770Y999260D02*
Y1002260D01*
X1721890Y1000760D02*
X1724890D01*
X1723390Y999260D02*
Y1002260D01*
X1729510Y1000760D02*
X1732510D01*
X1731010Y999260D02*
Y1002260D01*
X1737130Y1000760D02*
X1740130D01*
X1738630Y999260D02*
Y1002260D01*
X1744750Y1000760D02*
X1747750D01*
X1746250Y999260D02*
Y1002260D01*
X1752370Y1000760D02*
X1755370D01*
X1753870Y999260D02*
Y1002260D01*
X1759990Y1000760D02*
X1762990D01*
X1761490Y999260D02*
Y1002260D01*
X1767610Y1000760D02*
X1770610D01*
X1769110Y999260D02*
Y1002260D01*
X1683790Y1008380D02*
X1686790D01*
X1685290Y1006880D02*
Y1009880D01*
X1691410Y1008380D02*
X1694410D01*
X1692910Y1006880D02*
Y1009880D01*
X1699030Y1008380D02*
X1702030D01*
X1700530Y1006880D02*
Y1009880D01*
X1706650Y1008380D02*
X1709650D01*
X1708150Y1006880D02*
Y1009880D01*
X1714270Y1008380D02*
X1717270D01*
X1715770Y1006880D02*
Y1009880D01*
X1721890Y1008380D02*
X1724890D01*
X1723390Y1006880D02*
Y1009880D01*
X1729510Y1008380D02*
X1732510D01*
X1731010Y1006880D02*
Y1009880D01*
X1737130Y1008380D02*
X1740130D01*
X1738630Y1006880D02*
Y1009880D01*
X1744750Y1008380D02*
X1747750D01*
X1746250Y1006880D02*
Y1009880D01*
X1752370Y1008380D02*
X1755370D01*
X1753870Y1006880D02*
Y1009880D01*
X1759990Y1008380D02*
X1762990D01*
X1761490Y1006880D02*
Y1009880D01*
X1767610Y1008380D02*
X1770610D01*
X1769110Y1006880D02*
Y1009880D01*
X1691410Y1016000D02*
X1694410D01*
X1692910Y1014500D02*
Y1017500D01*
X1699030Y1016000D02*
X1702030D01*
X1700530Y1014500D02*
Y1017500D01*
X1706650Y1016000D02*
X1709650D01*
X1708150Y1014500D02*
Y1017500D01*
X1714270Y1016000D02*
X1717270D01*
X1715770Y1014500D02*
Y1017500D01*
X1721890Y1016000D02*
X1724890D01*
X1723390Y1014500D02*
Y1017500D01*
X1729510Y1016000D02*
X1732510D01*
X1731010Y1014500D02*
Y1017500D01*
X1737130Y1016000D02*
X1740130D01*
X1738630Y1014500D02*
Y1017500D01*
X1744750Y1016000D02*
X1747750D01*
X1746250Y1014500D02*
Y1017500D01*
X1752370Y1016000D02*
X1755370D01*
X1753870Y1014500D02*
Y1017500D01*
X1759990Y1016000D02*
X1762990D01*
X1761490Y1014500D02*
Y1017500D01*
X1767610Y955040D02*
X1770610D01*
X1769110Y953540D02*
Y956540D01*
X1759990Y955040D02*
X1762990D01*
X1761490Y953540D02*
Y956540D01*
X1752370Y955040D02*
X1755370D01*
X1753870Y953540D02*
Y956540D01*
X1744750Y955040D02*
X1747750D01*
X1746250Y953540D02*
Y956540D01*
X1737130Y955040D02*
X1740130D01*
X1738630Y953540D02*
Y956540D01*
X1729510Y955040D02*
X1732510D01*
X1731010Y953540D02*
Y956540D01*
X1721890Y955040D02*
X1724890D01*
X1723390Y953540D02*
Y956540D01*
X1714270Y955040D02*
X1717270D01*
X1715770Y953540D02*
Y956540D01*
X1706650Y955040D02*
X1709650D01*
X1708150Y953540D02*
Y956540D01*
X1699030Y955040D02*
X1702030D01*
X1700530Y953540D02*
Y956540D01*
X1691410Y955040D02*
X1694410D01*
X1692910Y953540D02*
Y956540D01*
X1683790Y955040D02*
X1686790D01*
X1685290Y953540D02*
Y956540D01*
X1683790Y947420D02*
X1686790D01*
X1685290Y945920D02*
Y948920D01*
X1691410Y947420D02*
X1694410D01*
X1692910Y945920D02*
Y948920D01*
X1699030Y947420D02*
X1702030D01*
X1700530Y945920D02*
Y948920D01*
X1706650Y947420D02*
X1709650D01*
X1708150Y945920D02*
Y948920D01*
X1714270Y947420D02*
X1717270D01*
X1715770Y945920D02*
Y948920D01*
X1721890Y947420D02*
X1724890D01*
X1723390Y945920D02*
Y948920D01*
X1729510Y947420D02*
X1732510D01*
X1731010Y945920D02*
Y948920D01*
X1737130Y947420D02*
X1740130D01*
X1738630Y945920D02*
Y948920D01*
X1744750Y947420D02*
X1747750D01*
X1746250Y945920D02*
Y948920D01*
X1752370Y947420D02*
X1755370D01*
X1753870Y945920D02*
Y948920D01*
X1759990Y947420D02*
X1762990D01*
X1761490Y945920D02*
Y948920D01*
X1767610Y947420D02*
X1770610D01*
X1769110Y945920D02*
Y948920D01*
X1759990Y939800D02*
X1762990D01*
X1761490Y938300D02*
Y941300D01*
X1752370Y939800D02*
X1755370D01*
X1753870Y938300D02*
Y941300D01*
X1744750Y939800D02*
X1747750D01*
X1746250Y938300D02*
Y941300D01*
X1737130Y939800D02*
X1740130D01*
X1738630Y938300D02*
Y941300D01*
X1729510Y939800D02*
X1732510D01*
X1731010Y938300D02*
Y941300D01*
X1721890Y939800D02*
X1724890D01*
X1723390Y938300D02*
Y941300D01*
X1714270Y939800D02*
X1717270D01*
X1715770Y938300D02*
Y941300D01*
X1706650Y939800D02*
X1709650D01*
X1708150Y938300D02*
Y941300D01*
X1699030Y939800D02*
X1702030D01*
X1700530Y938300D02*
Y941300D01*
X1691410Y939800D02*
X1694410D01*
X1692910Y938300D02*
Y941300D01*
X1689505Y708660D02*
X1692505D01*
X1691005Y707160D02*
Y710160D01*
X1697125Y708660D02*
X1700125D01*
X1698625Y707160D02*
Y710160D01*
X1704745Y708660D02*
X1707745D01*
X1706245Y707160D02*
Y710160D01*
X1712365Y708660D02*
X1715365D01*
X1713865Y707160D02*
Y710160D01*
X1719985Y708660D02*
X1722985D01*
X1721485Y707160D02*
Y710160D01*
X1727605Y708660D02*
X1730605D01*
X1729105Y707160D02*
Y710160D01*
X1735225Y708660D02*
X1738225D01*
X1736725Y707160D02*
Y710160D01*
X1742845Y708660D02*
X1745845D01*
X1744345Y707160D02*
Y710160D01*
X1750465Y708660D02*
X1753465D01*
X1751965Y707160D02*
Y710160D01*
X1758085Y708660D02*
X1761085D01*
X1759585Y707160D02*
Y710160D01*
X1765705Y716280D02*
X1768705D01*
X1767205Y714780D02*
Y717780D01*
X1758085Y716280D02*
X1761085D01*
X1759585Y714780D02*
Y717780D01*
X1750465Y716280D02*
X1753465D01*
X1751965Y714780D02*
Y717780D01*
X1742845Y716280D02*
X1745845D01*
X1744345Y714780D02*
Y717780D01*
X1735225Y716280D02*
X1738225D01*
X1736725Y714780D02*
Y717780D01*
X1727605Y716280D02*
X1730605D01*
X1729105Y714780D02*
Y717780D01*
X1719985Y716280D02*
X1722985D01*
X1721485Y714780D02*
Y717780D01*
X1712365Y716280D02*
X1715365D01*
X1713865Y714780D02*
Y717780D01*
X1704745Y716280D02*
X1707745D01*
X1706245Y714780D02*
Y717780D01*
X1697125Y716280D02*
X1700125D01*
X1698625Y714780D02*
Y717780D01*
X1689505Y716280D02*
X1692505D01*
X1691005Y714780D02*
Y717780D01*
X1681885Y716280D02*
X1684885D01*
X1683385Y714780D02*
Y717780D01*
X1681885Y723900D02*
X1684885D01*
X1683385Y722400D02*
Y725400D01*
X1689505Y723900D02*
X1692505D01*
X1691005Y722400D02*
Y725400D01*
X1697125Y723900D02*
X1700125D01*
X1698625Y722400D02*
Y725400D01*
X1704745Y723900D02*
X1707745D01*
X1706245Y722400D02*
Y725400D01*
X1712365Y723900D02*
X1715365D01*
X1713865Y722400D02*
Y725400D01*
X1719985Y723900D02*
X1722985D01*
X1721485Y722400D02*
Y725400D01*
X1727605Y723900D02*
X1730605D01*
X1729105Y722400D02*
Y725400D01*
X1735225Y723900D02*
X1738225D01*
X1736725Y722400D02*
Y725400D01*
X1742845Y723900D02*
X1745845D01*
X1744345Y722400D02*
Y725400D01*
X1750465Y723900D02*
X1753465D01*
X1751965Y722400D02*
Y725400D01*
X1758085Y723900D02*
X1761085D01*
X1759585Y722400D02*
Y725400D01*
X1765705Y723900D02*
X1768705D01*
X1767205Y722400D02*
Y725400D01*
X1758085Y784860D02*
X1761085D01*
X1759585Y783360D02*
Y786360D01*
X1750465Y784860D02*
X1753465D01*
X1751965Y783360D02*
Y786360D01*
X1742845Y784860D02*
X1745845D01*
X1744345Y783360D02*
Y786360D01*
X1735225Y784860D02*
X1738225D01*
X1736725Y783360D02*
Y786360D01*
X1727605Y784860D02*
X1730605D01*
X1729105Y783360D02*
Y786360D01*
X1719985Y784860D02*
X1722985D01*
X1721485Y783360D02*
Y786360D01*
X1712365Y784860D02*
X1715365D01*
X1713865Y783360D02*
Y786360D01*
X1704745Y784860D02*
X1707745D01*
X1706245Y783360D02*
Y786360D01*
X1697125Y784860D02*
X1700125D01*
X1698625Y783360D02*
Y786360D01*
X1689505Y784860D02*
X1692505D01*
X1691005Y783360D02*
Y786360D01*
X1765705Y777240D02*
X1768705D01*
X1767205Y775740D02*
Y778740D01*
X1758085Y777240D02*
X1761085D01*
X1759585Y775740D02*
Y778740D01*
X1750465Y777240D02*
X1753465D01*
X1751965Y775740D02*
Y778740D01*
X1742845Y777240D02*
X1745845D01*
X1744345Y775740D02*
Y778740D01*
X1735225Y777240D02*
X1738225D01*
X1736725Y775740D02*
Y778740D01*
X1727605Y777240D02*
X1730605D01*
X1729105Y775740D02*
Y778740D01*
X1719985Y777240D02*
X1722985D01*
X1721485Y775740D02*
Y778740D01*
X1712365Y777240D02*
X1715365D01*
X1713865Y775740D02*
Y778740D01*
X1704745Y777240D02*
X1707745D01*
X1706245Y775740D02*
Y778740D01*
X1697125Y777240D02*
X1700125D01*
X1698625Y775740D02*
Y778740D01*
X1689505Y777240D02*
X1692505D01*
X1691005Y775740D02*
Y778740D01*
X1681885Y777240D02*
X1684885D01*
X1683385Y775740D02*
Y778740D01*
X1765705Y769620D02*
X1768705D01*
X1767205Y768120D02*
Y771120D01*
X1758085Y769620D02*
X1761085D01*
X1759585Y768120D02*
Y771120D01*
X1750465Y769620D02*
X1753465D01*
X1751965Y768120D02*
Y771120D01*
X1742845Y769620D02*
X1745845D01*
X1744345Y768120D02*
Y771120D01*
X1735225Y769620D02*
X1738225D01*
X1736725Y768120D02*
Y771120D01*
X1727605Y769620D02*
X1730605D01*
X1729105Y768120D02*
Y771120D01*
X1719985Y769620D02*
X1722985D01*
X1721485Y768120D02*
Y771120D01*
X1712365Y769620D02*
X1715365D01*
X1713865Y768120D02*
Y771120D01*
X1704745Y769620D02*
X1707745D01*
X1706245Y768120D02*
Y771120D01*
X1697125Y769620D02*
X1700125D01*
X1698625Y768120D02*
Y771120D01*
X1689505Y769620D02*
X1692505D01*
X1691005Y768120D02*
Y771120D01*
X1681885Y769620D02*
X1684885D01*
X1683385Y768120D02*
Y771120D01*
X1689505Y762000D02*
X1692505D01*
X1691005Y760500D02*
Y763500D01*
X1681885Y731520D02*
X1684885D01*
X1683385Y730020D02*
Y733020D01*
X1681885Y739140D02*
X1684885D01*
X1683385Y737640D02*
Y740640D01*
X1681885Y746760D02*
X1684885D01*
X1683385Y745260D02*
Y748260D01*
X1681885Y754380D02*
X1684885D01*
X1683385Y752880D02*
Y755880D01*
X1681885Y762000D02*
X1684885D01*
X1683385Y760500D02*
Y763500D01*
X1689505Y754380D02*
X1692505D01*
X1691005Y752880D02*
Y755880D01*
X1689505Y746760D02*
X1692505D01*
X1691005Y745260D02*
Y748260D01*
X1689505Y739140D02*
X1692505D01*
X1691005Y737640D02*
Y740640D01*
X1689505Y731520D02*
X1692505D01*
X1691005Y730020D02*
Y733020D01*
X1697125Y731520D02*
X1700125D01*
X1698625Y730020D02*
Y733020D01*
X1697125Y739140D02*
X1700125D01*
X1698625Y737640D02*
Y740640D01*
X1697125Y746760D02*
X1700125D01*
X1698625Y745260D02*
Y748260D01*
X1697125Y754380D02*
X1700125D01*
X1698625Y752880D02*
Y755880D01*
X1697125Y762000D02*
X1700125D01*
X1698625Y760500D02*
Y763500D01*
X1765705Y762000D02*
X1768705D01*
X1767205Y760500D02*
Y763500D01*
X1765705Y754380D02*
X1768705D01*
X1767205Y752880D02*
Y755880D01*
X1765705Y746760D02*
X1768705D01*
X1767205Y745260D02*
Y748260D01*
X1765705Y739140D02*
X1768705D01*
X1767205Y737640D02*
Y740640D01*
X1765705Y731520D02*
X1768705D01*
X1767205Y730020D02*
Y733020D01*
X1758085Y731520D02*
X1761085D01*
X1759585Y730020D02*
Y733020D01*
X1758085Y739140D02*
X1761085D01*
X1759585Y737640D02*
Y740640D01*
X1758085Y746760D02*
X1761085D01*
X1759585Y745260D02*
Y748260D01*
X1758085Y754380D02*
X1761085D01*
X1759585Y752880D02*
Y755880D01*
X1758085Y762000D02*
X1761085D01*
X1759585Y760500D02*
Y763500D01*
X1750465Y762000D02*
X1753465D01*
X1751965Y760500D02*
Y763500D01*
X1750465Y754380D02*
X1753465D01*
X1751965Y752880D02*
Y755880D01*
X1750465Y746760D02*
X1753465D01*
X1751965Y745260D02*
Y748260D01*
X1750465Y739140D02*
X1753465D01*
X1751965Y737640D02*
Y740640D01*
X1750465Y731520D02*
X1753465D01*
X1751965Y730020D02*
Y733020D01*
X1742845Y731520D02*
X1745845D01*
X1744345Y730020D02*
Y733020D01*
X1742845Y739140D02*
X1745845D01*
X1744345Y737640D02*
Y740640D01*
X1742845Y746760D02*
X1745845D01*
X1744345Y745260D02*
Y748260D01*
X1742845Y754380D02*
X1745845D01*
X1744345Y752880D02*
Y755880D01*
X1742845Y762000D02*
X1745845D01*
X1744345Y760500D02*
Y763500D01*
X1735225Y762000D02*
X1738225D01*
X1736725Y760500D02*
Y763500D01*
X1735225Y754380D02*
X1738225D01*
X1736725Y752880D02*
Y755880D01*
X1735225Y746760D02*
X1738225D01*
X1736725Y745260D02*
Y748260D01*
X1735225Y739140D02*
X1738225D01*
X1736725Y737640D02*
Y740640D01*
X1735225Y731520D02*
X1738225D01*
X1736725Y730020D02*
Y733020D01*
X1727605Y731520D02*
X1730605D01*
X1729105Y730020D02*
Y733020D01*
X1727605Y739140D02*
X1730605D01*
X1729105Y737640D02*
Y740640D01*
X1727605Y746760D02*
X1730605D01*
X1729105Y745260D02*
Y748260D01*
X1727605Y754380D02*
X1730605D01*
X1729105Y752880D02*
Y755880D01*
X1727605Y762000D02*
X1730605D01*
X1729105Y760500D02*
Y763500D01*
X1719985Y762000D02*
X1722985D01*
X1721485Y760500D02*
Y763500D01*
X1719985Y754380D02*
X1722985D01*
X1721485Y752880D02*
Y755880D01*
X1719985Y746760D02*
X1722985D01*
X1721485Y745260D02*
Y748260D01*
X1719985Y739140D02*
X1722985D01*
X1721485Y737640D02*
Y740640D01*
X1719985Y731520D02*
X1722985D01*
X1721485Y730020D02*
Y733020D01*
X1712365Y731520D02*
X1715365D01*
X1713865Y730020D02*
Y733020D01*
X1712365Y739140D02*
X1715365D01*
X1713865Y737640D02*
Y740640D01*
X1712365Y746760D02*
X1715365D01*
X1713865Y745260D02*
Y748260D01*
X1712365Y754380D02*
X1715365D01*
X1713865Y752880D02*
Y755880D01*
X1712365Y762000D02*
X1715365D01*
X1713865Y760500D02*
Y763500D01*
X1704745Y762000D02*
X1707745D01*
X1706245Y760500D02*
Y763500D01*
X1704745Y754380D02*
X1707745D01*
X1706245Y752880D02*
Y755880D01*
X1704745Y746760D02*
X1707745D01*
X1706245Y745260D02*
Y748260D01*
X1704745Y739140D02*
X1707745D01*
X1706245Y737640D02*
Y740640D01*
X1704745Y731520D02*
X1707745D01*
X1706245Y730020D02*
Y733020D01*
X1706650Y466090D02*
X1709650D01*
X1708150Y464590D02*
Y467590D01*
X1706650Y473710D02*
X1709650D01*
X1708150Y472210D02*
Y475210D01*
X1706650Y481330D02*
X1709650D01*
X1708150Y479830D02*
Y482830D01*
X1706650Y488950D02*
X1709650D01*
X1708150Y487450D02*
Y490450D01*
X1706650Y496570D02*
X1709650D01*
X1708150Y495070D02*
Y498070D01*
X1714270Y496570D02*
X1717270D01*
X1715770Y495070D02*
Y498070D01*
X1714270Y488950D02*
X1717270D01*
X1715770Y487450D02*
Y490450D01*
X1714270Y481330D02*
X1717270D01*
X1715770Y479830D02*
Y482830D01*
X1714270Y473710D02*
X1717270D01*
X1715770Y472210D02*
Y475210D01*
X1714270Y466090D02*
X1717270D01*
X1715770Y464590D02*
Y467590D01*
X1721890Y466090D02*
X1724890D01*
X1723390Y464590D02*
Y467590D01*
X1721890Y473710D02*
X1724890D01*
X1723390Y472210D02*
Y475210D01*
X1721890Y481330D02*
X1724890D01*
X1723390Y479830D02*
Y482830D01*
X1721890Y488950D02*
X1724890D01*
X1723390Y487450D02*
Y490450D01*
X1721890Y496570D02*
X1724890D01*
X1723390Y495070D02*
Y498070D01*
X1729510Y496570D02*
X1732510D01*
X1731010Y495070D02*
Y498070D01*
X1729510Y488950D02*
X1732510D01*
X1731010Y487450D02*
Y490450D01*
X1729510Y481330D02*
X1732510D01*
X1731010Y479830D02*
Y482830D01*
X1729510Y473710D02*
X1732510D01*
X1731010Y472210D02*
Y475210D01*
X1729510Y466090D02*
X1732510D01*
X1731010Y464590D02*
Y467590D01*
X1737130Y466090D02*
X1740130D01*
X1738630Y464590D02*
Y467590D01*
X1737130Y473710D02*
X1740130D01*
X1738630Y472210D02*
Y475210D01*
X1737130Y481330D02*
X1740130D01*
X1738630Y479830D02*
Y482830D01*
X1737130Y488950D02*
X1740130D01*
X1738630Y487450D02*
Y490450D01*
X1737130Y496570D02*
X1740130D01*
X1738630Y495070D02*
Y498070D01*
X1744750Y496570D02*
X1747750D01*
X1746250Y495070D02*
Y498070D01*
X1744750Y488950D02*
X1747750D01*
X1746250Y487450D02*
Y490450D01*
X1744750Y481330D02*
X1747750D01*
X1746250Y479830D02*
Y482830D01*
X1744750Y473710D02*
X1747750D01*
X1746250Y472210D02*
Y475210D01*
X1744750Y466090D02*
X1747750D01*
X1746250Y464590D02*
Y467590D01*
X1752370Y466090D02*
X1755370D01*
X1753870Y464590D02*
Y467590D01*
X1752370Y473710D02*
X1755370D01*
X1753870Y472210D02*
Y475210D01*
X1752370Y481330D02*
X1755370D01*
X1753870Y479830D02*
Y482830D01*
X1752370Y488950D02*
X1755370D01*
X1753870Y487450D02*
Y490450D01*
X1752370Y496570D02*
X1755370D01*
X1753870Y495070D02*
Y498070D01*
X1759990Y496570D02*
X1762990D01*
X1761490Y495070D02*
Y498070D01*
X1759990Y488950D02*
X1762990D01*
X1761490Y487450D02*
Y490450D01*
X1759990Y481330D02*
X1762990D01*
X1761490Y479830D02*
Y482830D01*
X1759990Y473710D02*
X1762990D01*
X1761490Y472210D02*
Y475210D01*
X1759990Y466090D02*
X1762990D01*
X1761490Y464590D02*
Y467590D01*
X1767610Y466090D02*
X1770610D01*
X1769110Y464590D02*
Y467590D01*
X1767610Y473710D02*
X1770610D01*
X1769110Y472210D02*
Y475210D01*
X1767610Y481330D02*
X1770610D01*
X1769110Y479830D02*
Y482830D01*
X1767610Y488950D02*
X1770610D01*
X1769110Y487450D02*
Y490450D01*
X1767610Y496570D02*
X1770610D01*
X1769110Y495070D02*
Y498070D01*
X1699030Y496570D02*
X1702030D01*
X1700530Y495070D02*
Y498070D01*
X1699030Y488950D02*
X1702030D01*
X1700530Y487450D02*
Y490450D01*
X1699030Y481330D02*
X1702030D01*
X1700530Y479830D02*
Y482830D01*
X1699030Y473710D02*
X1702030D01*
X1700530Y472210D02*
Y475210D01*
X1699030Y466090D02*
X1702030D01*
X1700530Y464590D02*
Y467590D01*
X1691410Y466090D02*
X1694410D01*
X1692910Y464590D02*
Y467590D01*
X1691410Y473710D02*
X1694410D01*
X1692910Y472210D02*
Y475210D01*
X1691410Y481330D02*
X1694410D01*
X1692910Y479830D02*
Y482830D01*
X1691410Y488950D02*
X1694410D01*
X1692910Y487450D02*
Y490450D01*
X1683790Y496570D02*
X1686790D01*
X1685290Y495070D02*
Y498070D01*
X1683790Y488950D02*
X1686790D01*
X1685290Y487450D02*
Y490450D01*
X1683790Y481330D02*
X1686790D01*
X1685290Y479830D02*
Y482830D01*
X1683790Y473710D02*
X1686790D01*
X1685290Y472210D02*
Y475210D01*
X1683790Y466090D02*
X1686790D01*
X1685290Y464590D02*
Y467590D01*
X1691410Y496570D02*
X1694410D01*
X1692910Y495070D02*
Y498070D01*
X1683790Y504190D02*
X1686790D01*
X1685290Y502690D02*
Y505690D01*
X1691410Y504190D02*
X1694410D01*
X1692910Y502690D02*
Y505690D01*
X1699030Y504190D02*
X1702030D01*
X1700530Y502690D02*
Y505690D01*
X1706650Y504190D02*
X1709650D01*
X1708150Y502690D02*
Y505690D01*
X1714270Y504190D02*
X1717270D01*
X1715770Y502690D02*
Y505690D01*
X1721890Y504190D02*
X1724890D01*
X1723390Y502690D02*
Y505690D01*
X1729510Y504190D02*
X1732510D01*
X1731010Y502690D02*
Y505690D01*
X1737130Y504190D02*
X1740130D01*
X1738630Y502690D02*
Y505690D01*
X1744750Y504190D02*
X1747750D01*
X1746250Y502690D02*
Y505690D01*
X1752370Y504190D02*
X1755370D01*
X1753870Y502690D02*
Y505690D01*
X1759990Y504190D02*
X1762990D01*
X1761490Y502690D02*
Y505690D01*
X1767610Y504190D02*
X1770610D01*
X1769110Y502690D02*
Y505690D01*
X1683790Y511810D02*
X1686790D01*
X1685290Y510310D02*
Y513310D01*
X1691410Y511810D02*
X1694410D01*
X1692910Y510310D02*
Y513310D01*
X1699030Y511810D02*
X1702030D01*
X1700530Y510310D02*
Y513310D01*
X1706650Y511810D02*
X1709650D01*
X1708150Y510310D02*
Y513310D01*
X1714270Y511810D02*
X1717270D01*
X1715770Y510310D02*
Y513310D01*
X1721890Y511810D02*
X1724890D01*
X1723390Y510310D02*
Y513310D01*
X1729510Y511810D02*
X1732510D01*
X1731010Y510310D02*
Y513310D01*
X1737130Y511810D02*
X1740130D01*
X1738630Y510310D02*
Y513310D01*
X1744750Y511810D02*
X1747750D01*
X1746250Y510310D02*
Y513310D01*
X1752370Y511810D02*
X1755370D01*
X1753870Y510310D02*
Y513310D01*
X1759990Y511810D02*
X1762990D01*
X1761490Y510310D02*
Y513310D01*
X1767610Y511810D02*
X1770610D01*
X1769110Y510310D02*
Y513310D01*
X1691410Y519430D02*
X1694410D01*
X1692910Y517930D02*
Y520930D01*
X1699030Y519430D02*
X1702030D01*
X1700530Y517930D02*
Y520930D01*
X1706650Y519430D02*
X1709650D01*
X1708150Y517930D02*
Y520930D01*
X1714270Y519430D02*
X1717270D01*
X1715770Y517930D02*
Y520930D01*
X1721890Y519430D02*
X1724890D01*
X1723390Y517930D02*
Y520930D01*
X1729510Y519430D02*
X1732510D01*
X1731010Y517930D02*
Y520930D01*
X1737130Y519430D02*
X1740130D01*
X1738630Y517930D02*
Y520930D01*
X1744750Y519430D02*
X1747750D01*
X1746250Y517930D02*
Y520930D01*
X1752370Y519430D02*
X1755370D01*
X1753870Y517930D02*
Y520930D01*
X1759990Y519430D02*
X1762990D01*
X1761490Y517930D02*
Y520930D01*
X1767610Y458470D02*
X1770610D01*
X1769110Y456970D02*
Y459970D01*
X1759990Y458470D02*
X1762990D01*
X1761490Y456970D02*
Y459970D01*
X1752370Y458470D02*
X1755370D01*
X1753870Y456970D02*
Y459970D01*
X1744750Y458470D02*
X1747750D01*
X1746250Y456970D02*
Y459970D01*
X1737130Y458470D02*
X1740130D01*
X1738630Y456970D02*
Y459970D01*
X1729510Y458470D02*
X1732510D01*
X1731010Y456970D02*
Y459970D01*
X1721890Y458470D02*
X1724890D01*
X1723390Y456970D02*
Y459970D01*
X1714270Y458470D02*
X1717270D01*
X1715770Y456970D02*
Y459970D01*
X1706650Y458470D02*
X1709650D01*
X1708150Y456970D02*
Y459970D01*
X1699030Y458470D02*
X1702030D01*
X1700530Y456970D02*
Y459970D01*
X1691410Y458470D02*
X1694410D01*
X1692910Y456970D02*
Y459970D01*
X1683790Y458470D02*
X1686790D01*
X1685290Y456970D02*
Y459970D01*
X1683790Y450850D02*
X1686790D01*
X1685290Y449350D02*
Y452350D01*
X1691410Y450850D02*
X1694410D01*
X1692910Y449350D02*
Y452350D01*
X1699030Y450850D02*
X1702030D01*
X1700530Y449350D02*
Y452350D01*
X1706650Y450850D02*
X1709650D01*
X1708150Y449350D02*
Y452350D01*
X1714270Y450850D02*
X1717270D01*
X1715770Y449350D02*
Y452350D01*
X1721890Y450850D02*
X1724890D01*
X1723390Y449350D02*
Y452350D01*
X1729510Y450850D02*
X1732510D01*
X1731010Y449350D02*
Y452350D01*
X1737130Y450850D02*
X1740130D01*
X1738630Y449350D02*
Y452350D01*
X1744750Y450850D02*
X1747750D01*
X1746250Y449350D02*
Y452350D01*
X1752370Y450850D02*
X1755370D01*
X1753870Y449350D02*
Y452350D01*
X1759990Y450850D02*
X1762990D01*
X1761490Y449350D02*
Y452350D01*
X1767610Y450850D02*
X1770610D01*
X1769110Y449350D02*
Y452350D01*
X1759990Y443230D02*
X1762990D01*
X1761490Y441730D02*
Y444730D01*
X1752370Y443230D02*
X1755370D01*
X1753870Y441730D02*
Y444730D01*
X1744750Y443230D02*
X1747750D01*
X1746250Y441730D02*
Y444730D01*
X1737130Y443230D02*
X1740130D01*
X1738630Y441730D02*
Y444730D01*
X1729510Y443230D02*
X1732510D01*
X1731010Y441730D02*
Y444730D01*
X1721890Y443230D02*
X1724890D01*
X1723390Y441730D02*
Y444730D01*
X1714270Y443230D02*
X1717270D01*
X1715770Y441730D02*
Y444730D01*
X1706650Y443230D02*
X1709650D01*
X1708150Y441730D02*
Y444730D01*
X1699030Y443230D02*
X1702030D01*
X1700530Y441730D02*
Y444730D01*
X1691410Y443230D02*
X1694410D01*
X1692910Y441730D02*
Y444730D01*
X1084350Y690880D02*
X1087350D01*
X1085850Y689380D02*
Y692380D01*
X1512500Y840000D02*
X1517500D01*
X1515000Y837500D02*
Y842500D01*
X1520000Y825000D02*
X1525000D01*
X1522500Y822500D02*
Y827500D01*
X1497500Y840000D02*
X1502500D01*
X1500000Y837500D02*
Y842500D01*
X1505000Y825000D02*
X1510000D01*
X1507500Y822500D02*
Y827500D01*
X1497500Y810000D02*
X1502500D01*
X1500000Y807500D02*
Y812500D01*
X1482500Y840000D02*
X1487500D01*
X1485000Y837500D02*
Y842500D01*
X1490000Y825000D02*
X1495000D01*
X1492500Y822500D02*
Y827500D01*
X1482500Y810000D02*
X1487500D01*
X1485000Y807500D02*
Y812500D01*
X1467500Y840000D02*
X1472500D01*
X1470000Y837500D02*
Y842500D01*
X1475000Y825000D02*
X1480000D01*
X1477500Y822500D02*
Y827500D01*
X1467500Y810000D02*
X1472500D01*
X1470000Y807500D02*
Y812500D01*
X1452500Y840000D02*
X1457500D01*
X1455000Y837500D02*
Y842500D01*
X1460000Y825000D02*
X1465000D01*
X1462500Y822500D02*
Y827500D01*
X1445000Y825000D02*
X1450000D01*
X1447500Y822500D02*
Y827500D01*
X1235000Y945000D02*
X1240000D01*
X1237500Y942500D02*
Y947500D01*
X1235000Y855000D02*
X1240000D01*
X1237500Y852500D02*
Y857500D01*
X1220000Y945000D02*
X1225000D01*
X1222500Y942500D02*
Y947500D01*
X1122500Y690000D02*
X1127500D01*
X1125000Y687500D02*
Y692500D01*
X1122500Y660000D02*
X1127500D01*
X1125000Y657500D02*
Y662500D01*
X1122500Y570000D02*
X1127500D01*
X1125000Y567500D02*
Y572500D01*
X1115000Y675000D02*
X1120000D01*
X1117500Y672500D02*
Y677500D01*
X1107500Y630000D02*
X1112500D01*
X1110000Y627500D02*
Y632500D01*
X1115000Y615000D02*
X1120000D01*
X1117500Y612500D02*
Y617500D01*
X1107500Y600000D02*
X1112500D01*
X1110000Y597500D02*
Y602500D01*
X1107500Y570000D02*
X1112500D01*
X1110000Y567500D02*
Y572500D01*
X1092500Y630000D02*
X1097500D01*
X1095000Y627500D02*
Y632500D01*
X1033550Y588010D02*
X1036550D01*
X1035050Y586510D02*
Y589510D01*
X1239290Y764540D02*
X1242290D01*
X1240790Y763040D02*
Y766040D01*
X1078000Y756920D02*
X1081000D01*
X1079500Y755420D02*
Y758420D01*
X1170710Y516890D02*
X1173710D01*
X1172210Y515390D02*
Y518390D01*
X1217700Y485140D02*
X1220700D01*
X1219200Y483640D02*
Y486640D01*
X1124990Y455930D02*
X1127990D01*
X1126490Y454430D02*
Y457430D01*
X1127530Y476250D02*
X1130530D01*
X1129030Y474750D02*
Y477750D01*
X1062760Y477520D02*
X1065760D01*
X1064260Y476020D02*
Y479020D01*
X1065300Y518160D02*
X1068300D01*
X1066800Y516660D02*
Y519660D01*
X1064030Y497840D02*
X1067030D01*
X1065530Y496340D02*
Y499340D01*
X1126260Y518160D02*
X1129260D01*
X1127760Y516660D02*
Y519660D01*
X1126260Y497840D02*
X1129260D01*
X1127760Y496340D02*
Y499340D01*
X1189760Y816610D02*
X1192760D01*
X1191260Y815110D02*
Y818110D01*
X1188490Y770890D02*
X1191490D01*
X1189990Y769390D02*
Y772390D01*
X1055140Y629920D02*
X1058140D01*
X1056640Y628420D02*
Y631420D01*
X1044980Y626110D02*
X1047980D01*
X1046480Y624610D02*
Y627610D01*
X1037360Y617220D02*
X1040360D01*
X1038860Y615720D02*
Y618720D01*
X1034820Y609600D02*
X1037820D01*
X1036320Y608100D02*
Y611100D01*
X971320Y642620D02*
X974320D01*
X972820Y641120D02*
Y644120D01*
X884960Y681990D02*
X887960D01*
X886460Y680490D02*
Y683490D01*
X977670Y650240D02*
X980670D01*
X979170Y648740D02*
Y651740D01*
X947190Y668020D02*
X950190D01*
X948690Y666520D02*
Y669520D01*
X956080Y666757D02*
X959080D01*
X957580Y665257D02*
Y668257D01*
X984020Y636270D02*
X987020D01*
X985520Y634770D02*
Y637770D01*
X905280Y701040D02*
X908280D01*
X906780Y699540D02*
Y702540D01*
X916710Y701040D02*
X919710D01*
X918210Y699540D02*
Y702540D01*
X953540Y547370D02*
X956540D01*
X955040Y545870D02*
Y548870D01*
X1375180Y481330D02*
X1378180D01*
X1376680Y479830D02*
Y482830D01*
X1389150Y481330D02*
X1392150D01*
X1390650Y479830D02*
Y482830D01*
X1385340Y962660D02*
X1388340D01*
X1386840Y961160D02*
Y964160D01*
X1400580Y962660D02*
X1403580D01*
X1402080Y961160D02*
Y964160D01*
X1399310Y915670D02*
X1402310D01*
X1400810Y914170D02*
Y917170D01*
X1384070Y915670D02*
X1387070D01*
X1385570Y914170D02*
Y917170D01*
X1370100Y915670D02*
X1373100D01*
X1371600Y914170D02*
Y917170D01*
X1406930Y769620D02*
X1409930D01*
X1408430Y768120D02*
Y771120D01*
X1392960Y769620D02*
X1395960D01*
X1394460Y768120D02*
Y771120D01*
X1378990Y769620D02*
X1381990D01*
X1380490Y768120D02*
Y771120D01*
X1408200Y721360D02*
X1411200D01*
X1409700Y719860D02*
Y722860D01*
X1394230Y721360D02*
X1397230D01*
X1395730Y719860D02*
Y722860D01*
X1380260Y721360D02*
X1383260D01*
X1381760Y719860D02*
Y722860D01*
X1362480Y440690D02*
X1365480D01*
X1363980Y439190D02*
Y442190D01*
X1375180Y440690D02*
X1378180D01*
X1376680Y439190D02*
Y442190D01*
X1389150Y440690D02*
X1392150D01*
X1390650Y439190D02*
Y442190D01*
X1362480Y481330D02*
X1365480D01*
X1363980Y479830D02*
Y482830D01*
X1249450Y708660D02*
X1252450D01*
X1250950Y707160D02*
Y710160D01*
X1230400Y722630D02*
X1233400D01*
X1231900Y721130D02*
Y724130D01*
X1248180Y718820D02*
X1251180D01*
X1249680Y717320D02*
Y720320D01*
X1238724Y706824D02*
X1241724D01*
X1240224Y705324D02*
Y708324D01*
X1231670Y756920D02*
X1234670D01*
X1233170Y755420D02*
Y758420D01*
X1464674Y1022364D02*
X1467674D01*
X1466174Y1020864D02*
Y1023864D01*
X1216430Y675640D02*
X1219430D01*
X1217930Y674140D02*
Y677140D01*
X1198650Y661670D02*
X1201650D01*
X1200150Y660170D02*
Y663170D01*
X1574840Y594360D02*
X1579840D01*
X1577340Y591860D02*
Y596860D01*
X1566270Y600000D02*
X1571270D01*
X1568770Y597500D02*
Y602500D01*
X1164630Y660400D02*
X1169630D01*
X1167130Y657900D02*
Y662900D01*
X1164630Y645160D02*
X1169630D01*
X1167130Y642660D02*
Y647660D01*
X1164630Y629920D02*
X1169630D01*
X1167130Y627420D02*
Y632420D01*
X1164630Y614680D02*
X1169630D01*
X1167130Y612180D02*
Y617180D01*
X1164630Y600710D02*
X1169630D01*
X1167130Y598210D02*
Y603210D01*
X1164630Y585470D02*
X1169630D01*
X1167130Y582970D02*
Y587970D01*
X1164630Y570230D02*
X1169630D01*
X1167130Y567730D02*
Y572730D01*
X1155470Y695960D02*
X1158470D01*
X1156970Y694460D02*
Y697460D01*
X1673630Y858520D02*
X1676630D01*
X1675130Y857020D02*
Y860020D01*
X1445300Y809140D02*
X1450300D01*
X1447800Y806640D02*
Y811640D01*
X1649500Y802640D02*
X1652500D01*
X1651000Y801140D02*
Y804140D01*
X1648230Y1029970D02*
X1651230D01*
X1649730Y1028470D02*
Y1031470D01*
X1462810Y956310D02*
X1465810D01*
X1464310Y954810D02*
Y957810D01*
X1462810Y890270D02*
X1465810D01*
X1464310Y888770D02*
Y891770D01*
X1462810Y725170D02*
X1465810D01*
X1464310Y723670D02*
Y726670D01*
X1465350Y662940D02*
X1468350D01*
X1466850Y661440D02*
Y664440D01*
X1453920Y459740D02*
X1456920D01*
X1455420Y458240D02*
Y461240D01*
X1459000Y392430D02*
X1462000D01*
X1460500Y390930D02*
Y393930D01*
X1646960Y537210D02*
X1649960D01*
X1648460Y535710D02*
Y538710D01*
X1193570Y642620D02*
X1196570D01*
X1195070Y641120D02*
Y644120D01*
X756690Y518160D02*
X759690D01*
X758190Y516660D02*
Y519660D01*
X743990Y518160D02*
X746990D01*
X745490Y516660D02*
Y519660D01*
X764310Y629920D02*
X767310D01*
X765810Y628420D02*
Y631420D01*
X765580Y605790D02*
X768580D01*
X767080Y604290D02*
Y607290D01*
X765580Y581660D02*
X768580D01*
X767080Y580160D02*
Y583160D01*
X756690Y652780D02*
X759690D01*
X758190Y651280D02*
Y654280D01*
X1595000Y1095000D02*
X1600000D01*
X1597500Y1092500D02*
Y1097500D01*
X1580000Y1095000D02*
X1585000D01*
X1582500Y1092500D02*
Y1097500D01*
X1580000Y1065000D02*
X1585000D01*
X1582500Y1062500D02*
Y1067500D01*
X1565000Y1095000D02*
X1570000D01*
X1567500Y1092500D02*
Y1097500D01*
X1550000Y1095000D02*
X1555000D01*
X1552500Y1092500D02*
Y1097500D01*
X1535000Y1095000D02*
X1540000D01*
X1537500Y1092500D02*
Y1097500D01*
X1527500Y1080000D02*
X1532500D01*
X1530000Y1077500D02*
Y1082500D01*
X1527500Y1050000D02*
X1532500D01*
X1530000Y1047500D02*
Y1052500D01*
X1520000Y1095000D02*
X1525000D01*
X1522500Y1092500D02*
Y1097500D01*
X1512500Y1080000D02*
X1517500D01*
X1515000Y1077500D02*
Y1082500D01*
X1520000Y1065000D02*
X1525000D01*
X1522500Y1062500D02*
Y1067500D01*
X1512500Y1050000D02*
X1517500D01*
X1515000Y1047500D02*
Y1052500D01*
X1505000Y1095000D02*
X1510000D01*
X1507500Y1092500D02*
Y1097500D01*
X1505000Y1065000D02*
X1510000D01*
X1507500Y1062500D02*
Y1067500D01*
X1020850Y678180D02*
X1023850D01*
X1022350Y676680D02*
Y679680D01*
X1578650Y561340D02*
X1583650D01*
X1581150Y558840D02*
Y563840D01*
X1578650Y571500D02*
X1583650D01*
X1581150Y569000D02*
Y574000D01*
X1577380Y582930D02*
X1582380D01*
X1579880Y580430D02*
Y585430D01*
X1551270Y600000D02*
X1556270D01*
X1553770Y597500D02*
Y602500D01*
X1536270Y600000D02*
X1541270D01*
X1538770Y597500D02*
Y602500D01*
X1528770Y585000D02*
X1533770D01*
X1531270Y582500D02*
Y587500D01*
X1521270Y600000D02*
X1526270D01*
X1523770Y597500D02*
Y602500D01*
X1513770Y585000D02*
X1518770D01*
X1516270Y582500D02*
Y587500D01*
X1521270Y570000D02*
X1526270D01*
X1523770Y567500D02*
Y572500D01*
X1506270Y600000D02*
X1511270D01*
X1508770Y597500D02*
Y602500D01*
X1498770Y585000D02*
X1503770D01*
X1501270Y582500D02*
Y587500D01*
X1506270Y570000D02*
X1511270D01*
X1508770Y567500D02*
Y572500D01*
X1491270Y600000D02*
X1496270D01*
X1493770Y597500D02*
Y602500D01*
X1491270Y570000D02*
X1496270D01*
X1493770Y567500D02*
Y572500D01*
X892580Y560070D02*
X895580D01*
X894080Y558570D02*
Y561570D01*
X804950Y652780D02*
X807950D01*
X806450Y651280D02*
Y654280D01*
X883690Y581660D02*
X886690D01*
X885190Y580160D02*
Y583160D01*
X798600Y629920D02*
X801600D01*
X800100Y628420D02*
Y631420D01*
X1062760Y455930D02*
X1065760D01*
X1064260Y454430D02*
Y457430D01*
X970050Y584200D02*
X973050D01*
X971550Y582700D02*
Y585700D01*
X1024660Y657860D02*
X1027660D01*
X1026160Y656360D02*
Y659360D01*
X1028470Y826770D02*
X1031470D01*
X1029970Y825270D02*
Y828270D01*
X1062760Y811530D02*
X1065760D01*
X1064260Y810030D02*
Y813030D01*
X1071650Y795020D02*
X1074650D01*
X1073150Y793520D02*
Y796520D01*
X1061490Y791210D02*
X1064490D01*
X1062990Y789710D02*
Y792710D01*
X1072920Y650240D02*
X1075920D01*
X1074420Y648740D02*
Y651740D01*
X1107210Y695960D02*
X1110210D01*
X1108710Y694460D02*
Y697460D01*
X951000Y728980D02*
X954000D01*
X952500Y727480D02*
Y730480D01*
X1056410Y769620D02*
X1059410D01*
X1057910Y768120D02*
Y771120D01*
M02*
