G04*
G04 #@! TF.GenerationSoftware,Altium Limited,Altium Designer,25.8.1 (18)*
G04*
G04 Layer_Color=32768*
%FSLAX44Y44*%
%MOMM*%
G71*
G04*
G04 #@! TF.SameCoordinates,2693F913-D937-40AF-9520-92A55DCDFC83*
G04*
G04*
G04 #@! TF.FilePolarity,Positive*
G04*
G01*
G75*
%ADD14C,0.2000*%
%ADD15C,0.1524*%
%ADD119C,0.1000*%
%ADD120C,0.0500*%
G36*
X1231519Y473860D02*
X1235470D01*
Y455780D01*
X1231519D01*
Y455295D01*
X1204341D01*
Y455780D01*
X1200390D01*
Y473860D01*
X1204341D01*
Y474345D01*
X1231519D01*
Y473860D01*
D02*
G37*
D14*
X1153910Y816360D02*
Y880360D01*
X1088910D02*
X1153910D01*
X1088910Y816360D02*
Y880360D01*
Y816360D02*
X1153910D01*
X919530Y472920D02*
Y532920D01*
X957530D01*
Y472920D02*
Y532920D01*
X919530Y472920D02*
X957530D01*
X1090079Y666870D02*
Y808870D01*
Y666870D02*
X1178141D01*
Y808870D01*
X1090079D02*
X1178141D01*
X662698Y957690D02*
Y1043690D01*
X603398Y957690D02*
X662698D01*
X603398D02*
Y1043690D01*
X662698D01*
X1026590Y734417D02*
X1048590D01*
X1026590D02*
Y745417D01*
X1048590D01*
Y734417D02*
Y745417D01*
X1026590Y753960D02*
X1048590D01*
X1026590D02*
Y764960D01*
X1048590D01*
Y753960D02*
Y764960D01*
X1182230Y862860D02*
X1228230D01*
Y833860D02*
Y862860D01*
X1182230Y833860D02*
X1228230D01*
X1182230D02*
Y862860D01*
X1169273Y612147D02*
X1215273D01*
Y583148D02*
Y612147D01*
X1169273Y583148D02*
X1215273D01*
X1169273D02*
Y612147D01*
X1117470Y645690D02*
X1163470D01*
Y616690D02*
Y645690D01*
X1117470Y616690D02*
X1163470D01*
X1117470D02*
Y645690D01*
X1118730Y612147D02*
X1164730D01*
Y583148D02*
Y612147D01*
X1118730Y583148D02*
X1164730D01*
X1118730D02*
Y612147D01*
X1068040Y512660D02*
X1096040D01*
X1068040D02*
Y523660D01*
X1096040D01*
Y512660D02*
Y523660D01*
X1068040Y471428D02*
X1096040D01*
X1068040D02*
Y482428D01*
X1096040D01*
Y471428D02*
Y482428D01*
X1068040Y492044D02*
X1096040D01*
X1068040D02*
Y503044D01*
X1096040D01*
Y492044D02*
Y503044D01*
X889647Y565797D02*
Y691504D01*
X1015353D01*
Y565797D02*
Y691504D01*
X889647Y565797D02*
X1015353D01*
X839440Y747180D02*
X867440D01*
Y736180D02*
Y747180D01*
X839440Y736180D02*
X867440D01*
X839440D02*
Y747180D01*
X809190Y768047D02*
X834190D01*
Y757048D02*
Y768047D01*
X809190Y757048D02*
X834190D01*
X809190D02*
Y768047D01*
X840710Y767500D02*
X868710D01*
Y756500D02*
Y767500D01*
X840710Y756500D02*
X868710D01*
X840710D02*
Y767500D01*
X809190Y789090D02*
X834190D01*
Y778090D02*
Y789090D01*
X809190Y778090D02*
X834190D01*
X809190D02*
Y789090D01*
X840710D02*
X868710D01*
Y778090D02*
Y789090D01*
X840710Y778090D02*
X868710D01*
X840710D02*
Y789090D01*
X1068040Y450739D02*
X1096040D01*
X1068040D02*
Y461739D01*
X1096040D01*
Y450739D02*
Y461739D01*
X1072169Y441561D02*
X1112231D01*
Y419499D02*
Y441561D01*
X1072169Y419499D02*
X1112231D01*
X1072169D02*
Y441561D01*
X1187870Y499540D02*
Y521540D01*
X1176870Y499540D02*
X1187870D01*
X1176870D02*
Y521540D01*
X1187870D01*
X1166780Y499009D02*
Y522071D01*
X1154780Y499009D02*
X1166780D01*
X1154780D02*
Y522071D01*
X1166780D01*
X1642710Y551319D02*
Y573901D01*
X1654210D01*
Y551319D02*
Y573901D01*
X1642710Y551319D02*
X1654210D01*
X1645250Y812939D02*
Y835521D01*
X1656750D01*
Y812939D02*
Y835521D01*
X1645250Y812939D02*
X1656750D01*
X1645250Y1040269D02*
Y1062851D01*
X1656750D01*
Y1040269D02*
Y1062851D01*
X1645250Y1040269D02*
X1656750D01*
X1470799Y398180D02*
X1493381D01*
Y386680D02*
Y398180D01*
X1470799Y386680D02*
X1493381D01*
X1470799D02*
Y398180D01*
X1478419Y668690D02*
X1501001D01*
Y657190D02*
Y668690D01*
X1478419Y657190D02*
X1501001D01*
X1478419D02*
Y668690D01*
X1215360Y646312D02*
X1243360D01*
X1215360D02*
Y657312D01*
X1243360D01*
Y646312D02*
Y657312D01*
X1215360Y630770D02*
X1243360D01*
X1215360D02*
Y641770D01*
X1243360D01*
Y630770D02*
Y641770D01*
X1001460Y794100D02*
X1025460D01*
X1001460D02*
Y806100D01*
X1025460D01*
Y794100D02*
Y806100D01*
X1226421Y785149D02*
Y825211D01*
X1204359Y785149D02*
X1226421D01*
X1204359D02*
Y825211D01*
X1226421D01*
X1225160Y685098D02*
Y713098D01*
X1208160Y685098D02*
X1225160D01*
X1208160D02*
Y713098D01*
X1225160D01*
X1223890Y717640D02*
Y745640D01*
X1206890Y717640D02*
X1223890D01*
X1206890D02*
Y745640D01*
X1223890D01*
Y750420D02*
Y778420D01*
X1206890Y750420D02*
X1223890D01*
X1206890D02*
Y778420D01*
X1223890D01*
X732689Y646780D02*
X755751D01*
X732689D02*
Y658780D01*
X755751D01*
Y646780D02*
Y658780D01*
X775869Y587660D02*
X798931D01*
Y575660D02*
Y587660D01*
X775869Y575660D02*
X798931D01*
X775869D02*
Y587660D01*
X774599Y635920D02*
X797661D01*
Y623920D02*
Y635920D01*
X774599Y623920D02*
X797661D01*
X774599D02*
Y635920D01*
X775869Y611790D02*
X798931D01*
Y599790D02*
Y611790D01*
X775869Y599790D02*
X798931D01*
X775869D02*
Y611790D01*
X624130Y556562D02*
Y732562D01*
X683630D01*
Y556562D02*
Y732562D01*
X624130Y556562D02*
X683630D01*
X624130Y737105D02*
Y938105D01*
X683630D01*
Y737105D02*
Y938105D01*
X624130Y737105D02*
X683630D01*
X691440Y779812D02*
Y930813D01*
X750940D01*
Y779812D02*
Y930813D01*
X691440Y779812D02*
X750940D01*
X794039Y702709D02*
X834101D01*
X794039D02*
Y724771D01*
X834101D01*
Y702709D02*
Y724771D01*
X803880Y682840D02*
X831880D01*
X803880D02*
Y693840D01*
X831880D01*
Y682840D02*
Y693840D01*
X691780Y674270D02*
Y775270D01*
X751280D01*
Y674270D02*
Y775270D01*
X691780Y674270D02*
X751280D01*
X682700Y381300D02*
Y507300D01*
X623200Y381300D02*
X682700D01*
X623200D02*
Y507300D01*
X682700D01*
X1473339Y896020D02*
X1495921D01*
Y884520D02*
Y896020D01*
X1473339Y884520D02*
X1495921D01*
X1473339D02*
Y896020D01*
X672741Y995371D02*
X701399D01*
Y980749D02*
Y995371D01*
X672741Y980749D02*
X701399D01*
X672741D02*
Y995371D01*
Y1019501D02*
X701399D01*
Y1004879D02*
Y1019501D01*
X672741Y1004879D02*
X701399D01*
X672741D02*
Y1019501D01*
X1034520Y871080D02*
X1063520D01*
Y917080D01*
X1034520D02*
X1063520D01*
X1034520Y871080D02*
Y917080D01*
X958500Y868940D02*
X1022700D01*
Y952240D01*
X958500D02*
X1022700D01*
X958500Y868940D02*
Y952240D01*
D15*
X1204341Y474345D02*
X1231519D01*
X1204341Y473860D02*
Y474345D01*
Y455295D02*
Y455780D01*
Y455295D02*
X1231519D01*
Y455780D01*
Y473860D02*
Y474345D01*
Y473860D02*
X1235470D01*
X1200390D02*
X1204341D01*
X1200390Y455780D02*
Y473860D01*
Y455780D02*
X1204341D01*
X1231519D02*
X1235470D01*
Y473860D01*
D119*
X1045210Y822020D02*
Y831520D01*
X1040460Y826770D02*
X1049960D01*
X901700Y509850D02*
Y518850D01*
X897200Y514350D02*
X906200D01*
X937840Y458628D02*
X946840D01*
X942340Y454128D02*
Y463127D01*
X1643960Y599440D02*
X1652960D01*
X1648460Y594940D02*
Y603940D01*
X1646500Y852170D02*
X1655500D01*
X1651000Y847670D02*
Y856670D01*
X1646500Y1084580D02*
X1655500D01*
X1651000Y1080080D02*
Y1089080D01*
X1030300Y781807D02*
X1039800D01*
X1035050Y777057D02*
Y786557D01*
X1043940Y795350D02*
Y804850D01*
X1039190Y800100D02*
X1048690D01*
X751840Y430610D02*
Y440610D01*
X746840Y435610D02*
X756840D01*
X913130Y881460D02*
Y891460D01*
X908130Y886460D02*
X918130D01*
X746840Y481330D02*
X756840D01*
X751840Y476330D02*
Y486330D01*
D120*
X1083530Y896010D02*
X1155030D01*
X1083530D02*
Y940410D01*
X1155030D01*
Y896010D02*
Y940410D01*
X1033710Y820770D02*
X1056710D01*
X1033710Y832770D02*
X1056710D01*
Y820770D02*
Y832770D01*
X1033710Y820770D02*
Y832770D01*
X815420Y741680D02*
X825420D01*
X820420Y736680D02*
Y746680D01*
X806420Y747680D02*
X834420D01*
Y735680D02*
Y747680D01*
X806420Y735680D02*
X834420D01*
X806420D02*
Y747680D01*
X891200Y497350D02*
X912200D01*
X891200Y531350D02*
X912200D01*
X891200Y497350D02*
Y531350D01*
X912200Y497350D02*
Y531350D01*
X925340Y448128D02*
Y469128D01*
X959340Y448128D02*
Y469128D01*
X925340D02*
X959340D01*
X925340Y448128D02*
X959340D01*
X1653960Y588940D02*
Y609940D01*
X1642960Y588940D02*
Y609940D01*
X1653960D01*
X1642960Y588940D02*
X1653960D01*
X1645500Y841670D02*
Y862670D01*
X1656500Y841670D02*
Y862670D01*
X1645500Y841670D02*
X1656500D01*
X1645500Y862670D02*
X1656500D01*
X1656500Y1074080D02*
Y1095080D01*
X1645500Y1074080D02*
Y1095080D01*
X1656500D01*
X1645500Y1074080D02*
X1656500D01*
X1046050Y775807D02*
Y787807D01*
X1024050Y775807D02*
Y787807D01*
Y775807D02*
X1046050D01*
X1024050Y787807D02*
X1046050D01*
X1030440Y807600D02*
X1057440D01*
X1030440Y792600D02*
X1057440D01*
X1030440D02*
Y807600D01*
X1057440Y792600D02*
Y807600D01*
X738340Y443110D02*
X765340D01*
X738340Y428110D02*
X765340D01*
X738340D02*
Y443110D01*
X765340Y428110D02*
Y443110D01*
X877130Y842960D02*
X949130D01*
X877130Y929960D02*
X949130D01*
X877130Y842960D02*
Y929960D01*
X949130Y842960D02*
Y929960D01*
X725840Y447830D02*
Y514830D01*
X777840Y447830D02*
Y514830D01*
X725840Y447830D02*
X777840D01*
X725840Y514830D02*
X777840D01*
M02*
