G04*
G04 #@! TF.GenerationSoftware,Altium Limited,Altium Designer,25.8.1 (18)*
G04*
G04 Layer_Color=16711935*
%FSLAX44Y44*%
%MOMM*%
G71*
G04*
G04 #@! TF.SameCoordinates,2693F913-D937-40AF-9520-92A55DCDFC83*
G04*
G04*
G04 #@! TF.FilePolarity,Negative*
G04*
G01*
G75*
%ADD34R,0.6500X0.7000*%
%ADD35R,1.1000X2.0500*%
%ADD36R,0.9000X0.8000*%
%ADD41R,0.9562X1.2062*%
%ADD44R,0.7000X0.6500*%
%ADD50R,0.7500X0.9000*%
%ADD54R,0.8549X0.9062*%
%ADD77R,1.2532X1.1532*%
%ADD88C,5.2032*%
G04:AMPARAMS|DCode=89|XSize=10.2032mm|YSize=10.2032mm|CornerRadius=2.6016mm|HoleSize=0mm|Usage=FLASHONLY|Rotation=0.000|XOffset=0mm|YOffset=0mm|HoleType=Round|Shape=RoundedRectangle|*
%AMROUNDEDRECTD89*
21,1,10.2032,5.0000,0,0,0.0*
21,1,5.0000,10.2032,0,0,0.0*
1,1,5.2032,2.5000,-2.5000*
1,1,5.2032,-2.5000,-2.5000*
1,1,5.2032,-2.5000,2.5000*
1,1,5.2032,2.5000,2.5000*
%
%ADD89ROUNDEDRECTD89*%
G04:AMPARAMS|DCode=90|XSize=10.2032mm|YSize=10.2032mm|CornerRadius=2.6016mm|HoleSize=0mm|Usage=FLASHONLY|Rotation=90.000|XOffset=0mm|YOffset=0mm|HoleType=Round|Shape=RoundedRectangle|*
%AMROUNDEDRECTD90*
21,1,10.2032,5.0000,0,0,90.0*
21,1,5.0000,10.2032,0,0,90.0*
1,1,5.2032,2.5000,2.5000*
1,1,5.2032,2.5000,-2.5000*
1,1,5.2032,-2.5000,-2.5000*
1,1,5.2032,-2.5000,2.5000*
%
%ADD90ROUNDEDRECTD90*%
%ADD91R,1.4000X1.4000*%
%ADD92C,1.4000*%
%ADD93C,1.1000*%
%ADD94C,0.7032*%
%ADD95C,0.8032*%
%ADD96C,1.0032*%
%ADD105R,4.1000X2.0000*%
%ADD111R,0.9531X5.4031*%
%ADD112R,5.4610X2.2860*%
%ADD113R,2.2860X5.4610*%
%ADD114R,2.6432X5.8032*%
%ADD115R,2.6432X1.0932*%
%ADD116R,1.3532X1.2532*%
%ADD117R,0.8032X1.0032*%
%ADD118R,0.9032X1.0532*%
G36*
X1109980Y807720D02*
X1158240D01*
Y668020D01*
X1109980D01*
Y807720D01*
D02*
G37*
G36*
X1607820Y595630D02*
X1591310D01*
X1573530Y613410D01*
X1511300D01*
X1508760Y610870D01*
Y558800D01*
X1529080D01*
X1539240Y548640D01*
X1609090D01*
X1607820Y595630D01*
D02*
G37*
G36*
X1530350Y854710D02*
X1329690D01*
Y792480D01*
X1330960Y793750D01*
X1489710D01*
X1504950Y808990D01*
X1506220D01*
X1531620D01*
X1530350Y854710D01*
D02*
G37*
G36*
X1609090Y1042670D02*
X1508760D01*
Y1104900D01*
X1609090D01*
Y1042670D01*
D02*
G37*
G36*
X1395730Y1032510D02*
X1402080Y1026160D01*
X1388110Y1012190D01*
X1327150Y1073150D01*
Y1075690D01*
X1339850Y1088390D01*
X1395730Y1032510D01*
D02*
G37*
G36*
X1365250Y1000760D02*
X1371600Y994410D01*
X1357630Y980440D01*
X1296670Y1041400D01*
Y1043940D01*
X1309370Y1056640D01*
X1365250Y1000760D01*
D02*
G37*
G36*
X1339850Y975360D02*
X1346200Y969010D01*
X1332230Y955040D01*
X1271270Y1016000D01*
Y1018540D01*
X1283970Y1031240D01*
X1339850Y975360D01*
D02*
G37*
D34*
X758590Y488950D02*
D03*
X745090D02*
D03*
X1074820Y699770D02*
D03*
X1061320D02*
D03*
X1074820Y679450D02*
D03*
X1061320D02*
D03*
X1073550Y659130D02*
D03*
X1060050D02*
D03*
X907180Y828040D02*
D03*
X893680D02*
D03*
X1028700Y658637D02*
D03*
X1042200D02*
D03*
X862730Y566420D02*
D03*
X849230D02*
D03*
X1028300Y678180D02*
D03*
X1041800D02*
D03*
X862730Y546877D02*
D03*
X849230D02*
D03*
D35*
X918200Y854710D02*
D03*
X885200D02*
D03*
X1189288Y827517D02*
D03*
X1222288D02*
D03*
X1176030Y577850D02*
D03*
X1209030D02*
D03*
X1176030Y611393D02*
D03*
X1209030D02*
D03*
X1190000Y861060D02*
D03*
X1223000D02*
D03*
D36*
X753990Y581660D02*
D03*
X736990D02*
D03*
X753990Y629920D02*
D03*
X736990D02*
D03*
X753110Y605790D02*
D03*
X736110D02*
D03*
X1239130Y693420D02*
D03*
X1222130D02*
D03*
X1239130Y676910D02*
D03*
X1222130D02*
D03*
D41*
X947510Y551180D02*
D03*
X927010D02*
D03*
D44*
X1195070Y690010D02*
D03*
Y676510D02*
D03*
X922020Y712070D02*
D03*
Y725570D02*
D03*
X952007Y591420D02*
D03*
Y604920D02*
D03*
X971550Y591420D02*
D03*
Y604920D02*
D03*
X901700Y712070D02*
D03*
Y725570D02*
D03*
X1195070Y648570D02*
D03*
Y662070D02*
D03*
D50*
X825150Y581660D02*
D03*
X813150D02*
D03*
Y652780D02*
D03*
X825150D02*
D03*
X813150Y629920D02*
D03*
X825150D02*
D03*
X813150Y605790D02*
D03*
X825150D02*
D03*
D54*
X1051467Y791210D02*
D03*
X1038953D02*
D03*
D77*
X1060450Y733160D02*
D03*
Y747660D02*
D03*
D88*
X1725930Y591820D02*
D03*
X1723390Y1123950D02*
D03*
X1210310Y402590D02*
D03*
X777240Y1125220D02*
D03*
D89*
X1012190Y1112520D02*
D03*
X1172210Y1113790D02*
D03*
D90*
X1725930Y977900D02*
D03*
X1724025Y746760D02*
D03*
X1725930Y481330D02*
D03*
D91*
X659130Y582062D02*
D03*
Y912605D02*
D03*
X726440Y905312D02*
D03*
X716280Y699770D02*
D03*
X647700Y406800D02*
D03*
D92*
X659130Y607062D02*
D03*
Y632062D02*
D03*
Y657063D02*
D03*
Y682063D02*
D03*
Y707063D02*
D03*
Y887605D02*
D03*
Y862605D02*
D03*
Y837605D02*
D03*
Y812605D02*
D03*
Y787605D02*
D03*
Y762605D02*
D03*
X726440Y880312D02*
D03*
Y855312D02*
D03*
Y830312D02*
D03*
Y805312D02*
D03*
X716280Y724770D02*
D03*
Y749770D02*
D03*
X647700Y481800D02*
D03*
Y456800D02*
D03*
Y431800D02*
D03*
D93*
X706440Y921312D02*
D03*
D94*
X1277593Y882918D02*
D03*
Y870218D02*
D03*
Y841008D02*
D03*
Y828308D02*
D03*
X1278863Y745758D02*
D03*
Y731788D02*
D03*
X1280160Y687070D02*
D03*
X1280133Y678448D02*
D03*
Y637808D02*
D03*
Y622568D02*
D03*
Y576848D02*
D03*
Y560338D02*
D03*
Y545098D02*
D03*
X873733Y691148D02*
D03*
X869950Y666750D02*
D03*
X854683Y772428D02*
D03*
X866113Y750838D02*
D03*
X919754Y627799D02*
D03*
X883920Y673100D02*
D03*
X956310Y647200D02*
D03*
X970280Y617220D02*
D03*
X952500D02*
D03*
X1191260Y720370D02*
D03*
X1200150Y720090D02*
D03*
X803910Y605790D02*
D03*
Y580390D02*
D03*
X1197610Y750990D02*
D03*
X1187450Y745394D02*
D03*
X1065530Y735370D02*
D03*
Y744220D02*
D03*
X985520Y710370D02*
D03*
X975521Y720370D02*
D03*
X1256030Y645160D02*
D03*
X1249666Y651524D02*
D03*
X1256840Y679487D02*
D03*
X1262380Y687070D02*
D03*
X1454260Y624840D02*
D03*
X1445260D02*
D03*
X1459810Y1014270D02*
D03*
X904240Y786130D02*
D03*
X920750Y744220D02*
D03*
X965200Y699080D02*
D03*
X980440Y698500D02*
D03*
X995680Y693420D02*
D03*
X1079500Y782320D02*
D03*
X1184910Y699770D02*
D03*
X1189990Y689610D02*
D03*
X852170Y608330D02*
D03*
X872490Y623570D02*
D03*
X833120Y684530D02*
D03*
X873760Y643890D02*
D03*
X836916Y652780D02*
D03*
X911860Y601980D02*
D03*
X909320Y549910D02*
D03*
X971550Y554990D02*
D03*
X872490Y584200D02*
D03*
X721360Y652780D02*
D03*
X736600Y566420D02*
D03*
X901700Y734060D02*
D03*
X1131570Y439420D02*
D03*
X1076960Y768350D02*
D03*
X986790Y819150D02*
D03*
X1017270Y770890D02*
D03*
X996950Y779780D02*
D03*
X1160780Y488950D02*
D03*
X1102360Y414020D02*
D03*
X941070Y857250D02*
D03*
X894080Y821690D02*
D03*
X908050D02*
D03*
X795020Y763270D02*
D03*
X789940Y716280D02*
D03*
X849230Y556649D02*
D03*
X967740Y523240D02*
D03*
X918210Y458470D02*
D03*
X996950Y1130300D02*
D03*
X1004570D02*
D03*
X1012190D02*
D03*
X1019810D02*
D03*
X1027430D02*
D03*
Y1122680D02*
D03*
X1019810D02*
D03*
X1012190D02*
D03*
X1004570D02*
D03*
X996950D02*
D03*
Y1115060D02*
D03*
X1004570D02*
D03*
X1012190D02*
D03*
X1019810D02*
D03*
X1027430D02*
D03*
Y1107440D02*
D03*
X1019810D02*
D03*
X1012190D02*
D03*
X1004570D02*
D03*
X996950D02*
D03*
Y1099820D02*
D03*
X1004570D02*
D03*
X1012190D02*
D03*
X1019810D02*
D03*
X1027430D02*
D03*
Y1092200D02*
D03*
X1019810D02*
D03*
X1012190D02*
D03*
X1004570D02*
D03*
X996950D02*
D03*
Y1084580D02*
D03*
X1004570D02*
D03*
X1012190D02*
D03*
X1019810D02*
D03*
X1027430D02*
D03*
Y1076960D02*
D03*
X1019810D02*
D03*
X1012190D02*
D03*
X1004570D02*
D03*
X996950D02*
D03*
Y1069340D02*
D03*
X1004570D02*
D03*
X1012190D02*
D03*
X1019810D02*
D03*
X1027430D02*
D03*
Y1137920D02*
D03*
X1019810D02*
D03*
X1012190D02*
D03*
X1004570D02*
D03*
X996950D02*
D03*
Y1145540D02*
D03*
X1004570D02*
D03*
X1012190D02*
D03*
X1019810D02*
D03*
X1027430Y1153160D02*
D03*
X1019810D02*
D03*
X1012190D02*
D03*
X1004570D02*
D03*
X996950D02*
D03*
X1027430Y1145540D02*
D03*
X1035050Y1153160D02*
D03*
Y1145540D02*
D03*
Y1137920D02*
D03*
Y1130300D02*
D03*
Y1122680D02*
D03*
Y1115060D02*
D03*
Y1107440D02*
D03*
Y1099820D02*
D03*
Y1092200D02*
D03*
Y1084580D02*
D03*
Y1076960D02*
D03*
Y1069340D02*
D03*
X1042670Y1153160D02*
D03*
Y1145540D02*
D03*
Y1137920D02*
D03*
Y1130300D02*
D03*
Y1122680D02*
D03*
Y1115060D02*
D03*
Y1107440D02*
D03*
Y1099820D02*
D03*
Y1092200D02*
D03*
Y1084580D02*
D03*
Y1076960D02*
D03*
Y1069340D02*
D03*
X1050290Y1145540D02*
D03*
Y1137920D02*
D03*
Y1130300D02*
D03*
Y1122680D02*
D03*
Y1115060D02*
D03*
Y1107440D02*
D03*
Y1099820D02*
D03*
Y1092200D02*
D03*
Y1084580D02*
D03*
Y1076960D02*
D03*
X989330Y1069340D02*
D03*
Y1076960D02*
D03*
Y1084580D02*
D03*
Y1092200D02*
D03*
Y1099820D02*
D03*
Y1107440D02*
D03*
Y1115060D02*
D03*
Y1122680D02*
D03*
Y1130300D02*
D03*
Y1137920D02*
D03*
Y1145540D02*
D03*
Y1153160D02*
D03*
X981710D02*
D03*
Y1145540D02*
D03*
Y1137920D02*
D03*
Y1130300D02*
D03*
Y1122680D02*
D03*
Y1115060D02*
D03*
Y1107440D02*
D03*
Y1099820D02*
D03*
Y1092200D02*
D03*
Y1084580D02*
D03*
Y1076960D02*
D03*
Y1069340D02*
D03*
X974090Y1076960D02*
D03*
Y1084580D02*
D03*
Y1092200D02*
D03*
Y1099820D02*
D03*
Y1107440D02*
D03*
Y1115060D02*
D03*
Y1122680D02*
D03*
Y1130300D02*
D03*
Y1137920D02*
D03*
Y1145540D02*
D03*
X1134110Y1146810D02*
D03*
Y1139190D02*
D03*
Y1131570D02*
D03*
Y1123950D02*
D03*
Y1116330D02*
D03*
Y1108710D02*
D03*
Y1101090D02*
D03*
Y1093470D02*
D03*
Y1085850D02*
D03*
Y1078230D02*
D03*
X1141730Y1070610D02*
D03*
Y1078230D02*
D03*
Y1085850D02*
D03*
Y1093470D02*
D03*
Y1101090D02*
D03*
Y1108710D02*
D03*
Y1116330D02*
D03*
Y1123950D02*
D03*
Y1131570D02*
D03*
Y1139190D02*
D03*
Y1146810D02*
D03*
Y1154430D02*
D03*
X1149350D02*
D03*
Y1146810D02*
D03*
Y1139190D02*
D03*
Y1131570D02*
D03*
Y1123950D02*
D03*
Y1116330D02*
D03*
Y1108710D02*
D03*
Y1101090D02*
D03*
Y1093470D02*
D03*
Y1085850D02*
D03*
Y1078230D02*
D03*
Y1070610D02*
D03*
X1210310Y1078230D02*
D03*
Y1085850D02*
D03*
Y1093470D02*
D03*
Y1101090D02*
D03*
Y1108710D02*
D03*
Y1116330D02*
D03*
Y1123950D02*
D03*
Y1131570D02*
D03*
Y1139190D02*
D03*
Y1146810D02*
D03*
X1202690Y1070610D02*
D03*
Y1078230D02*
D03*
Y1085850D02*
D03*
Y1093470D02*
D03*
Y1101090D02*
D03*
Y1108710D02*
D03*
Y1116330D02*
D03*
Y1123950D02*
D03*
Y1131570D02*
D03*
Y1139190D02*
D03*
Y1146810D02*
D03*
Y1154430D02*
D03*
X1195070Y1070610D02*
D03*
Y1078230D02*
D03*
Y1085850D02*
D03*
Y1093470D02*
D03*
Y1101090D02*
D03*
Y1108710D02*
D03*
Y1116330D02*
D03*
Y1123950D02*
D03*
Y1131570D02*
D03*
Y1139190D02*
D03*
Y1146810D02*
D03*
Y1154430D02*
D03*
X1187450Y1146810D02*
D03*
X1156970Y1154430D02*
D03*
X1164590D02*
D03*
X1172210D02*
D03*
X1179830D02*
D03*
X1187450D02*
D03*
X1179830Y1146810D02*
D03*
X1172210D02*
D03*
X1164590D02*
D03*
X1156970D02*
D03*
Y1139190D02*
D03*
X1164590D02*
D03*
X1172210D02*
D03*
X1179830D02*
D03*
X1187450D02*
D03*
Y1070610D02*
D03*
X1179830D02*
D03*
X1172210D02*
D03*
X1164590D02*
D03*
X1156970D02*
D03*
Y1078230D02*
D03*
X1164590D02*
D03*
X1172210D02*
D03*
X1179830D02*
D03*
X1187450D02*
D03*
Y1085850D02*
D03*
X1179830D02*
D03*
X1172210D02*
D03*
X1164590D02*
D03*
X1156970D02*
D03*
Y1093470D02*
D03*
X1164590D02*
D03*
X1172210D02*
D03*
X1179830D02*
D03*
X1187450D02*
D03*
Y1101090D02*
D03*
X1179830D02*
D03*
X1172210D02*
D03*
X1164590D02*
D03*
X1156970D02*
D03*
Y1108710D02*
D03*
X1164590D02*
D03*
X1172210D02*
D03*
X1179830D02*
D03*
X1187450D02*
D03*
Y1116330D02*
D03*
X1179830D02*
D03*
X1172210D02*
D03*
X1164590D02*
D03*
X1156970D02*
D03*
Y1123950D02*
D03*
X1164590D02*
D03*
X1172210D02*
D03*
X1179830D02*
D03*
X1187450D02*
D03*
Y1131570D02*
D03*
X1179830D02*
D03*
X1172210D02*
D03*
X1164590D02*
D03*
X1156970D02*
D03*
X1708150Y962660D02*
D03*
Y970280D02*
D03*
Y977900D02*
D03*
Y985520D02*
D03*
Y993140D02*
D03*
X1715770D02*
D03*
Y985520D02*
D03*
Y977900D02*
D03*
Y970280D02*
D03*
Y962660D02*
D03*
X1723390D02*
D03*
Y970280D02*
D03*
Y977900D02*
D03*
Y985520D02*
D03*
Y993140D02*
D03*
X1731010D02*
D03*
Y985520D02*
D03*
Y977900D02*
D03*
Y970280D02*
D03*
Y962660D02*
D03*
X1738630D02*
D03*
Y970280D02*
D03*
Y977900D02*
D03*
Y985520D02*
D03*
Y993140D02*
D03*
X1746250D02*
D03*
Y985520D02*
D03*
Y977900D02*
D03*
Y970280D02*
D03*
Y962660D02*
D03*
X1753870D02*
D03*
Y970280D02*
D03*
Y977900D02*
D03*
Y985520D02*
D03*
Y993140D02*
D03*
X1761490D02*
D03*
Y985520D02*
D03*
Y977900D02*
D03*
Y970280D02*
D03*
Y962660D02*
D03*
X1769110D02*
D03*
Y970280D02*
D03*
Y977900D02*
D03*
Y985520D02*
D03*
Y993140D02*
D03*
X1700530D02*
D03*
Y985520D02*
D03*
Y977900D02*
D03*
Y970280D02*
D03*
Y962660D02*
D03*
X1692910D02*
D03*
Y970280D02*
D03*
Y977900D02*
D03*
Y985520D02*
D03*
X1685290Y993140D02*
D03*
Y985520D02*
D03*
Y977900D02*
D03*
Y970280D02*
D03*
Y962660D02*
D03*
X1692910Y993140D02*
D03*
X1685290Y1000760D02*
D03*
X1692910D02*
D03*
X1700530D02*
D03*
X1708150D02*
D03*
X1715770D02*
D03*
X1723390D02*
D03*
X1731010D02*
D03*
X1738630D02*
D03*
X1746250D02*
D03*
X1753870D02*
D03*
X1761490D02*
D03*
X1769110D02*
D03*
X1685290Y1008380D02*
D03*
X1692910D02*
D03*
X1700530D02*
D03*
X1708150D02*
D03*
X1715770D02*
D03*
X1723390D02*
D03*
X1731010D02*
D03*
X1738630D02*
D03*
X1746250D02*
D03*
X1753870D02*
D03*
X1761490D02*
D03*
X1769110D02*
D03*
X1692910Y1016000D02*
D03*
X1700530D02*
D03*
X1708150D02*
D03*
X1715770D02*
D03*
X1723390D02*
D03*
X1731010D02*
D03*
X1738630D02*
D03*
X1746250D02*
D03*
X1753870D02*
D03*
X1761490D02*
D03*
X1769110Y955040D02*
D03*
X1761490D02*
D03*
X1753870D02*
D03*
X1746250D02*
D03*
X1738630D02*
D03*
X1731010D02*
D03*
X1723390D02*
D03*
X1715770D02*
D03*
X1708150D02*
D03*
X1700530D02*
D03*
X1692910D02*
D03*
X1685290D02*
D03*
Y947420D02*
D03*
X1692910D02*
D03*
X1700530D02*
D03*
X1708150D02*
D03*
X1715770D02*
D03*
X1723390D02*
D03*
X1731010D02*
D03*
X1738630D02*
D03*
X1746250D02*
D03*
X1753870D02*
D03*
X1761490D02*
D03*
X1769110D02*
D03*
X1761490Y939800D02*
D03*
X1753870D02*
D03*
X1746250D02*
D03*
X1738630D02*
D03*
X1731010D02*
D03*
X1723390D02*
D03*
X1715770D02*
D03*
X1708150D02*
D03*
X1700530D02*
D03*
X1692910D02*
D03*
X1691005Y708660D02*
D03*
X1698625D02*
D03*
X1706245D02*
D03*
X1713865D02*
D03*
X1721485D02*
D03*
X1729105D02*
D03*
X1736725D02*
D03*
X1744345D02*
D03*
X1751965D02*
D03*
X1759585D02*
D03*
X1767205Y716280D02*
D03*
X1759585D02*
D03*
X1751965D02*
D03*
X1744345D02*
D03*
X1736725D02*
D03*
X1729105D02*
D03*
X1721485D02*
D03*
X1713865D02*
D03*
X1706245D02*
D03*
X1698625D02*
D03*
X1691005D02*
D03*
X1683385D02*
D03*
Y723900D02*
D03*
X1691005D02*
D03*
X1698625D02*
D03*
X1706245D02*
D03*
X1713865D02*
D03*
X1721485D02*
D03*
X1729105D02*
D03*
X1736725D02*
D03*
X1744345D02*
D03*
X1751965D02*
D03*
X1759585D02*
D03*
X1767205D02*
D03*
X1759585Y784860D02*
D03*
X1751965D02*
D03*
X1744345D02*
D03*
X1736725D02*
D03*
X1729105D02*
D03*
X1721485D02*
D03*
X1713865D02*
D03*
X1706245D02*
D03*
X1698625D02*
D03*
X1691005D02*
D03*
X1767205Y777240D02*
D03*
X1759585D02*
D03*
X1751965D02*
D03*
X1744345D02*
D03*
X1736725D02*
D03*
X1729105D02*
D03*
X1721485D02*
D03*
X1713865D02*
D03*
X1706245D02*
D03*
X1698625D02*
D03*
X1691005D02*
D03*
X1683385D02*
D03*
X1767205Y769620D02*
D03*
X1759585D02*
D03*
X1751965D02*
D03*
X1744345D02*
D03*
X1736725D02*
D03*
X1729105D02*
D03*
X1721485D02*
D03*
X1713865D02*
D03*
X1706245D02*
D03*
X1698625D02*
D03*
X1691005D02*
D03*
X1683385D02*
D03*
X1691005Y762000D02*
D03*
X1683385Y731520D02*
D03*
Y739140D02*
D03*
Y746760D02*
D03*
Y754380D02*
D03*
Y762000D02*
D03*
X1691005Y754380D02*
D03*
Y746760D02*
D03*
Y739140D02*
D03*
Y731520D02*
D03*
X1698625D02*
D03*
Y739140D02*
D03*
Y746760D02*
D03*
Y754380D02*
D03*
Y762000D02*
D03*
X1767205D02*
D03*
Y754380D02*
D03*
Y746760D02*
D03*
Y739140D02*
D03*
Y731520D02*
D03*
X1759585D02*
D03*
Y739140D02*
D03*
Y746760D02*
D03*
Y754380D02*
D03*
Y762000D02*
D03*
X1751965D02*
D03*
Y754380D02*
D03*
Y746760D02*
D03*
Y739140D02*
D03*
Y731520D02*
D03*
X1744345D02*
D03*
Y739140D02*
D03*
Y746760D02*
D03*
Y754380D02*
D03*
Y762000D02*
D03*
X1736725D02*
D03*
Y754380D02*
D03*
Y746760D02*
D03*
Y739140D02*
D03*
Y731520D02*
D03*
X1729105D02*
D03*
Y739140D02*
D03*
Y746760D02*
D03*
Y754380D02*
D03*
Y762000D02*
D03*
X1721485D02*
D03*
Y754380D02*
D03*
Y746760D02*
D03*
Y739140D02*
D03*
Y731520D02*
D03*
X1713865D02*
D03*
Y739140D02*
D03*
Y746760D02*
D03*
Y754380D02*
D03*
Y762000D02*
D03*
X1706245D02*
D03*
Y754380D02*
D03*
Y746760D02*
D03*
Y739140D02*
D03*
Y731520D02*
D03*
X1708150Y466090D02*
D03*
Y473710D02*
D03*
Y481330D02*
D03*
Y488950D02*
D03*
Y496570D02*
D03*
X1715770D02*
D03*
Y488950D02*
D03*
Y481330D02*
D03*
Y473710D02*
D03*
Y466090D02*
D03*
X1723390D02*
D03*
Y473710D02*
D03*
Y481330D02*
D03*
Y488950D02*
D03*
Y496570D02*
D03*
X1731010D02*
D03*
Y488950D02*
D03*
Y481330D02*
D03*
Y473710D02*
D03*
Y466090D02*
D03*
X1738630D02*
D03*
Y473710D02*
D03*
Y481330D02*
D03*
Y488950D02*
D03*
Y496570D02*
D03*
X1746250D02*
D03*
Y488950D02*
D03*
Y481330D02*
D03*
Y473710D02*
D03*
Y466090D02*
D03*
X1753870D02*
D03*
Y473710D02*
D03*
Y481330D02*
D03*
Y488950D02*
D03*
Y496570D02*
D03*
X1761490D02*
D03*
Y488950D02*
D03*
Y481330D02*
D03*
Y473710D02*
D03*
Y466090D02*
D03*
X1769110D02*
D03*
Y473710D02*
D03*
Y481330D02*
D03*
Y488950D02*
D03*
Y496570D02*
D03*
X1700530D02*
D03*
Y488950D02*
D03*
Y481330D02*
D03*
Y473710D02*
D03*
Y466090D02*
D03*
X1692910D02*
D03*
Y473710D02*
D03*
Y481330D02*
D03*
Y488950D02*
D03*
X1685290Y496570D02*
D03*
Y488950D02*
D03*
Y481330D02*
D03*
Y473710D02*
D03*
Y466090D02*
D03*
X1692910Y496570D02*
D03*
X1685290Y504190D02*
D03*
X1692910D02*
D03*
X1700530D02*
D03*
X1708150D02*
D03*
X1715770D02*
D03*
X1723390D02*
D03*
X1731010D02*
D03*
X1738630D02*
D03*
X1746250D02*
D03*
X1753870D02*
D03*
X1761490D02*
D03*
X1769110D02*
D03*
X1685290Y511810D02*
D03*
X1692910D02*
D03*
X1700530D02*
D03*
X1708150D02*
D03*
X1715770D02*
D03*
X1723390D02*
D03*
X1731010D02*
D03*
X1738630D02*
D03*
X1746250D02*
D03*
X1753870D02*
D03*
X1761490D02*
D03*
X1769110D02*
D03*
X1692910Y519430D02*
D03*
X1700530D02*
D03*
X1708150D02*
D03*
X1715770D02*
D03*
X1723390D02*
D03*
X1731010D02*
D03*
X1738630D02*
D03*
X1746250D02*
D03*
X1753870D02*
D03*
X1761490D02*
D03*
X1769110Y458470D02*
D03*
X1761490D02*
D03*
X1753870D02*
D03*
X1746250D02*
D03*
X1738630D02*
D03*
X1731010D02*
D03*
X1723390D02*
D03*
X1715770D02*
D03*
X1708150D02*
D03*
X1700530D02*
D03*
X1692910D02*
D03*
X1685290D02*
D03*
Y450850D02*
D03*
X1692910D02*
D03*
X1700530D02*
D03*
X1708150D02*
D03*
X1715770D02*
D03*
X1723390D02*
D03*
X1731010D02*
D03*
X1738630D02*
D03*
X1746250D02*
D03*
X1753870D02*
D03*
X1761490D02*
D03*
X1769110D02*
D03*
X1761490Y443230D02*
D03*
X1753870D02*
D03*
X1746250D02*
D03*
X1738630D02*
D03*
X1731010D02*
D03*
X1723390D02*
D03*
X1715770D02*
D03*
X1708150D02*
D03*
X1700530D02*
D03*
X1692910D02*
D03*
X1085850Y690880D02*
D03*
X1035050Y588010D02*
D03*
X1240790Y764540D02*
D03*
X1079500Y756920D02*
D03*
X1172210Y516890D02*
D03*
X1219200Y485140D02*
D03*
X1126490Y455930D02*
D03*
X1129030Y476250D02*
D03*
X1064260Y477520D02*
D03*
X1066800Y518160D02*
D03*
X1065530Y497840D02*
D03*
X1127760Y518160D02*
D03*
Y497840D02*
D03*
X1191260Y816610D02*
D03*
X1189990Y770890D02*
D03*
X1056640Y629920D02*
D03*
X1046480Y626110D02*
D03*
X1038860Y617220D02*
D03*
X1036320Y609600D02*
D03*
X972820Y642620D02*
D03*
X886460Y681990D02*
D03*
X979170Y650240D02*
D03*
X948690Y668020D02*
D03*
X957580Y666757D02*
D03*
X985520Y636270D02*
D03*
X906780Y701040D02*
D03*
X918210D02*
D03*
X955040Y547370D02*
D03*
X1250950Y708660D02*
D03*
X1231900Y722630D02*
D03*
X1249680Y718820D02*
D03*
X1240224Y706824D02*
D03*
X1233170Y756920D02*
D03*
X1466174Y1022364D02*
D03*
X1217930Y675640D02*
D03*
X1200150Y661670D02*
D03*
X1156970Y695960D02*
D03*
X1675130Y858520D02*
D03*
X1651000Y802640D02*
D03*
X1649730Y1029970D02*
D03*
X1464310Y956310D02*
D03*
Y890270D02*
D03*
Y725170D02*
D03*
X1466850Y662940D02*
D03*
X1455420Y459740D02*
D03*
X1460500Y392430D02*
D03*
X1648460Y537210D02*
D03*
X1195070Y642620D02*
D03*
X758190Y518160D02*
D03*
X745490D02*
D03*
X765810Y629920D02*
D03*
X767080Y605790D02*
D03*
Y581660D02*
D03*
X758190Y652780D02*
D03*
X1022350Y678180D02*
D03*
X894080Y560070D02*
D03*
X806450Y652780D02*
D03*
X885190Y581660D02*
D03*
X800100Y629920D02*
D03*
X1064260Y455930D02*
D03*
X971550Y584200D02*
D03*
X1026160Y657860D02*
D03*
X1029970Y826770D02*
D03*
X1064260Y811530D02*
D03*
X1073150Y795020D02*
D03*
X1062990Y791210D02*
D03*
X1074420Y650240D02*
D03*
X1108710Y695960D02*
D03*
X952500Y728980D02*
D03*
X1057910Y769620D02*
D03*
D95*
X1502117Y845826D02*
D03*
X1452117D02*
D03*
X1202117Y995826D02*
D03*
X1152117D02*
D03*
X1102117D02*
D03*
Y945826D02*
D03*
Y645826D02*
D03*
Y445826D02*
D03*
Y395826D02*
D03*
X1052117Y995826D02*
D03*
Y945826D02*
D03*
Y895826D02*
D03*
Y645826D02*
D03*
Y595826D02*
D03*
Y545826D02*
D03*
Y445826D02*
D03*
Y395826D02*
D03*
X1002117Y995826D02*
D03*
Y895826D02*
D03*
Y495826D02*
D03*
Y445826D02*
D03*
Y395826D02*
D03*
X952117Y995826D02*
D03*
Y945826D02*
D03*
Y895826D02*
D03*
Y795826D02*
D03*
Y745826D02*
D03*
Y445826D02*
D03*
Y395826D02*
D03*
X902117Y995826D02*
D03*
Y945826D02*
D03*
Y895826D02*
D03*
Y845826D02*
D03*
Y745826D02*
D03*
Y545826D02*
D03*
Y495826D02*
D03*
Y445826D02*
D03*
Y395826D02*
D03*
X852117Y995826D02*
D03*
Y945826D02*
D03*
Y895826D02*
D03*
Y695826D02*
D03*
Y495826D02*
D03*
Y445826D02*
D03*
Y395826D02*
D03*
X802117Y995826D02*
D03*
Y945826D02*
D03*
Y795826D02*
D03*
Y745826D02*
D03*
Y645826D02*
D03*
Y595826D02*
D03*
Y495826D02*
D03*
Y445826D02*
D03*
Y395826D02*
D03*
X752117Y995826D02*
D03*
Y845826D02*
D03*
Y795826D02*
D03*
Y745826D02*
D03*
Y595826D02*
D03*
Y545826D02*
D03*
Y395826D02*
D03*
X702117Y945826D02*
D03*
Y845826D02*
D03*
Y795826D02*
D03*
Y745826D02*
D03*
Y695826D02*
D03*
Y595826D02*
D03*
Y545826D02*
D03*
Y495826D02*
D03*
Y395826D02*
D03*
X652117Y945826D02*
D03*
Y745826D02*
D03*
Y695826D02*
D03*
Y645826D02*
D03*
Y545826D02*
D03*
Y495826D02*
D03*
X1525000Y850000D02*
D03*
X1475000D02*
D03*
X1450000Y800000D02*
D03*
X1200000Y1000000D02*
D03*
X1225000Y950000D02*
D03*
X1150000Y1000000D02*
D03*
X1371600Y962660D02*
D03*
X1212850Y570230D02*
D03*
Y580390D02*
D03*
Y590550D02*
D03*
Y601980D02*
D03*
Y612140D02*
D03*
X1376680Y481330D02*
D03*
X1390650D02*
D03*
X1386840Y962660D02*
D03*
X1402080D02*
D03*
X1400810Y915670D02*
D03*
X1385570D02*
D03*
X1371600D02*
D03*
X1408430Y769620D02*
D03*
X1394460D02*
D03*
X1380490D02*
D03*
X1409700Y721360D02*
D03*
X1395730D02*
D03*
X1381760D02*
D03*
X1363980Y440690D02*
D03*
X1376680D02*
D03*
X1390650D02*
D03*
X1363980Y481330D02*
D03*
D96*
X1116386Y715518D02*
D03*
X1115695Y727710D02*
D03*
X1130300D02*
D03*
X1115695Y740410D02*
D03*
X1130300D02*
D03*
X1144905D02*
D03*
X1115695Y753110D02*
D03*
X1130300D02*
D03*
X1144905D02*
D03*
X1115695Y765810D02*
D03*
X1130300D02*
D03*
X1144905D02*
D03*
X1144270Y779780D02*
D03*
X1129665D02*
D03*
X1115060D02*
D03*
X1522500Y840000D02*
D03*
X1515000Y825000D02*
D03*
X1507500Y840000D02*
D03*
X1500000Y825000D02*
D03*
X1492500Y840000D02*
D03*
X1485000Y825000D02*
D03*
X1492500Y810000D02*
D03*
X1477500Y840000D02*
D03*
X1470000Y825000D02*
D03*
X1477500Y810000D02*
D03*
X1462500Y840000D02*
D03*
X1455000Y825000D02*
D03*
X1462500Y810000D02*
D03*
X1447500Y840000D02*
D03*
X1245000Y975000D02*
D03*
X1230000D02*
D03*
Y945000D02*
D03*
X1237500Y870000D02*
D03*
Y840000D02*
D03*
X1222500Y990000D02*
D03*
X1215000Y975000D02*
D03*
X1207500Y990000D02*
D03*
X1200000Y975000D02*
D03*
X1207500Y960000D02*
D03*
X1185000Y1005000D02*
D03*
X1192500Y990000D02*
D03*
X1185000Y975000D02*
D03*
X1170000Y1005000D02*
D03*
X1177500Y990000D02*
D03*
X1170000Y975000D02*
D03*
X1155000Y1005000D02*
D03*
X1162500Y990000D02*
D03*
X1155000Y975000D02*
D03*
X1162500Y540000D02*
D03*
X1147500Y990000D02*
D03*
X1177500Y660000D02*
D03*
X1162500D02*
D03*
X1515000Y825000D02*
D03*
X1507500Y840000D02*
D03*
X1492500D02*
D03*
X1485000Y825000D02*
D03*
X1477500Y840000D02*
D03*
X1470000Y825000D02*
D03*
X1477500Y810000D02*
D03*
X1462500Y840000D02*
D03*
X1455000Y825000D02*
D03*
X1462500Y810000D02*
D03*
X1447500Y840000D02*
D03*
X1230000Y945000D02*
D03*
X1237500Y870000D02*
D03*
X1207500Y960000D02*
D03*
X1185000Y1005000D02*
D03*
Y975000D02*
D03*
X1170000Y1005000D02*
D03*
Y975000D02*
D03*
X1155000Y1005000D02*
D03*
X1162500Y990000D02*
D03*
X1155000Y975000D02*
D03*
X1515000Y840000D02*
D03*
X1522500Y825000D02*
D03*
X1500000Y840000D02*
D03*
X1507500Y825000D02*
D03*
X1500000Y810000D02*
D03*
X1485000Y840000D02*
D03*
X1492500Y825000D02*
D03*
X1485000Y810000D02*
D03*
X1470000Y840000D02*
D03*
X1477500Y825000D02*
D03*
X1470000Y810000D02*
D03*
X1455000Y840000D02*
D03*
X1462500Y825000D02*
D03*
X1447500D02*
D03*
X1237500Y945000D02*
D03*
Y855000D02*
D03*
X1222500Y945000D02*
D03*
X1125000Y690000D02*
D03*
Y660000D02*
D03*
Y570000D02*
D03*
X1117500Y675000D02*
D03*
X1110000Y630000D02*
D03*
X1117500Y615000D02*
D03*
X1110000Y600000D02*
D03*
Y570000D02*
D03*
X1095000Y630000D02*
D03*
X1577340Y594360D02*
D03*
X1568770Y600000D02*
D03*
X1167130Y660400D02*
D03*
Y645160D02*
D03*
Y629920D02*
D03*
Y614680D02*
D03*
Y600710D02*
D03*
Y585470D02*
D03*
Y570230D02*
D03*
X1447800Y809140D02*
D03*
X1597500Y1095000D02*
D03*
X1582500D02*
D03*
Y1065000D02*
D03*
X1567500Y1095000D02*
D03*
X1552500D02*
D03*
X1537500D02*
D03*
X1530000Y1080000D02*
D03*
Y1050000D02*
D03*
X1522500Y1095000D02*
D03*
X1515000Y1080000D02*
D03*
X1522500Y1065000D02*
D03*
X1515000Y1050000D02*
D03*
X1507500Y1095000D02*
D03*
Y1065000D02*
D03*
X1581150Y561340D02*
D03*
Y571500D02*
D03*
X1579880Y582930D02*
D03*
X1553770Y600000D02*
D03*
X1538770D02*
D03*
X1531270Y585000D02*
D03*
X1523770Y600000D02*
D03*
X1516270Y585000D02*
D03*
X1523770Y570000D02*
D03*
X1508770Y600000D02*
D03*
X1501270Y585000D02*
D03*
X1508770Y570000D02*
D03*
X1493770Y600000D02*
D03*
Y570000D02*
D03*
D105*
X1387480Y944880D02*
D03*
X1300480D02*
D03*
X1290000Y461010D02*
D03*
X1377000D02*
D03*
X1310320Y753110D02*
D03*
X1397320D02*
D03*
D111*
X1157722Y593090D02*
D03*
X1099222D02*
D03*
X1173440Y909618D02*
D03*
X1231940D02*
D03*
D112*
X1301115Y420370D02*
D03*
Y502920D02*
D03*
Y548640D02*
D03*
Y594360D02*
D03*
Y631190D02*
D03*
Y668020D02*
D03*
Y707390D02*
D03*
Y782320D02*
D03*
Y826770D02*
D03*
Y866140D02*
D03*
Y902970D02*
D03*
D113*
X1371600Y586105D02*
D03*
D114*
X1439510Y1076970D02*
D03*
X1489110D02*
D03*
X1426055Y585354D02*
D03*
X1475655D02*
D03*
D115*
X1439510Y1035620D02*
D03*
X1489110D02*
D03*
X1426055Y544004D02*
D03*
X1475655D02*
D03*
D116*
X1004960Y826770D02*
D03*
X1021960D02*
D03*
D117*
X1208890Y784860D02*
D03*
X1221890D02*
D03*
X1120290Y518160D02*
D03*
X1107290D02*
D03*
X1120290Y497840D02*
D03*
X1107290D02*
D03*
X1120290Y455930D02*
D03*
X1107290D02*
D03*
X1120290Y476250D02*
D03*
X1107290D02*
D03*
D118*
X1038960Y811530D02*
D03*
X1051460D02*
D03*
M02*
