G04*
G04 #@! TF.GenerationSoftware,Altium Limited,Altium Designer,25.8.1 (18)*
G04*
G04 Layer_Physical_Order=4*
G04 Layer_Color=16711680*
%FSLAX44Y44*%
%MOMM*%
G71*
G04*
G04 #@! TF.SameCoordinates,2693F913-D937-40AF-9520-92A55DCDFC83*
G04*
G04*
G04 #@! TF.FilePolarity,Positive*
G04*
G01*
G75*
%ADD10C,0.4000*%
%ADD13C,0.6000*%
%ADD14C,0.2000*%
%ADD34R,0.6500X0.7000*%
%ADD35R,1.1000X2.0500*%
%ADD36R,0.9000X0.8000*%
%ADD41R,0.9562X1.2062*%
%ADD42R,1.0500X0.9500*%
%ADD44R,0.7000X0.6500*%
%ADD50R,0.7500X0.9000*%
%ADD54R,0.8549X0.9062*%
%ADD91R,1.4000X1.4000*%
%ADD92C,1.4000*%
%ADD93C,1.1000*%
%ADD98C,0.3000*%
%ADD99C,5.0000*%
G04:AMPARAMS|DCode=100|XSize=10mm|YSize=10mm|CornerRadius=2.5mm|HoleSize=0mm|Usage=FLASHONLY|Rotation=0.000|XOffset=0mm|YOffset=0mm|HoleType=Round|Shape=RoundedRectangle|*
%AMROUNDEDRECTD100*
21,1,10.0000,5.0000,0,0,0.0*
21,1,5.0000,10.0000,0,0,0.0*
1,1,5.0000,2.5000,-2.5000*
1,1,5.0000,-2.5000,-2.5000*
1,1,5.0000,-2.5000,2.5000*
1,1,5.0000,2.5000,2.5000*
%
%ADD100ROUNDEDRECTD100*%
G04:AMPARAMS|DCode=101|XSize=10mm|YSize=10mm|CornerRadius=2.5mm|HoleSize=0mm|Usage=FLASHONLY|Rotation=90.000|XOffset=0mm|YOffset=0mm|HoleType=Round|Shape=RoundedRectangle|*
%AMROUNDEDRECTD101*
21,1,10.0000,5.0000,0,0,90.0*
21,1,5.0000,10.0000,0,0,90.0*
1,1,5.0000,2.5000,2.5000*
1,1,5.0000,2.5000,-2.5000*
1,1,5.0000,-2.5000,-2.5000*
1,1,5.0000,-2.5000,2.5000*
%
%ADD101ROUNDEDRECTD101*%
%ADD102C,0.5000*%
%ADD103C,0.6000*%
%ADD104C,0.8000*%
%ADD105R,4.1000X2.0000*%
%ADD106R,2.4400X5.6000*%
%ADD107R,2.4400X0.8900*%
%ADD108R,1.1500X1.0500*%
%ADD109R,0.6000X0.8000*%
%ADD110R,0.7000X0.8500*%
%ADD111R,0.9531X5.4031*%
G36*
X1610360Y1042670D02*
X1506220D01*
X1499870Y1049020D01*
X1477010D01*
Y1104900D01*
X1610360D01*
Y1042670D01*
D02*
G37*
G36*
X1481183Y1031200D02*
X1480950Y1031370D01*
X1480674Y1031455D01*
X1480356D01*
X1479995Y1031370D01*
X1479592Y1031200D01*
X1479147Y1030946D01*
X1478659Y1030607D01*
X1478128Y1030182D01*
X1476940Y1029079D01*
X1474819Y1031200D01*
X1475413Y1031816D01*
X1476346Y1032919D01*
X1476686Y1033407D01*
X1476940Y1033852D01*
X1477110Y1034255D01*
X1477195Y1034616D01*
Y1034934D01*
X1477110Y1035210D01*
X1476940Y1035443D01*
X1481183Y1031200D01*
D02*
G37*
G36*
X1451685Y1031171D02*
X1451691Y1031080D01*
X1451710Y1028201D01*
X1448710D01*
X1448695Y1028771D01*
X1448650Y1029280D01*
X1448575Y1029731D01*
X1448470Y1030120D01*
X1448335Y1030451D01*
X1448170Y1030721D01*
X1447975Y1030930D01*
X1447750Y1031080D01*
X1447495Y1031171D01*
X1447210Y1031200D01*
X1451680D01*
X1451685Y1031171D01*
D02*
G37*
G36*
X1470741Y1022880D02*
X1468365Y1021160D01*
X1467560Y1024445D01*
X1467627Y1024417D01*
X1467710Y1024414D01*
X1467808Y1024436D01*
X1467920Y1024483D01*
X1468047Y1024554D01*
X1468189Y1024651D01*
X1468345Y1024772D01*
X1468703Y1025089D01*
X1468904Y1025285D01*
X1470741Y1022880D01*
D02*
G37*
G36*
X1060450Y1103630D02*
X1150620Y1013460D01*
X1266190D01*
X1356360Y1103630D01*
X1450340D01*
Y1051560D01*
X1428750D01*
X1328420Y951230D01*
Y855980D01*
X1531620D01*
Y810260D01*
X1506220D01*
X1489710Y793750D01*
X1328420D01*
Y613410D01*
X1437251D01*
X1437737Y612237D01*
X1437640Y612140D01*
Y557530D01*
X1328420D01*
Y411480D01*
X1330960Y408940D01*
X1329690Y407670D01*
X1273810D01*
Y557530D01*
Y613410D01*
Y932180D01*
X1249680Y956310D01*
Y839470D01*
X1228090Y817880D01*
X1216660D01*
Y938530D01*
X1215390Y939800D01*
X1210310D01*
X1196340Y953770D01*
Y962660D01*
X1148460D01*
X1150297Y663887D01*
X1130935Y644525D01*
X1129030Y558800D01*
X1136650Y551180D01*
X1193800D01*
Y561340D01*
X1200150Y567690D01*
Y622300D01*
X1221740D01*
Y561340D01*
Y538480D01*
Y535940D01*
X1214120Y525780D01*
X1112520D01*
Y524628D01*
X1111790Y523660D01*
X1111250Y523660D01*
X1102790D01*
Y521469D01*
X1102716Y521358D01*
X1102590Y521207D01*
X1102584Y521207D01*
X1102267Y521199D01*
X1101905Y521116D01*
X1101540Y521044D01*
X1101517Y521029D01*
X1101491Y521023D01*
X1101188Y520808D01*
X1101039Y520709D01*
X1071873D01*
X1071727Y520806D01*
X1071428Y521020D01*
X1071398Y521027D01*
X1071372Y521044D01*
X1071011Y521116D01*
X1070653Y521198D01*
X1070469Y521204D01*
X1070366Y521213D01*
X1070284Y521227D01*
X1070219Y521243D01*
X1070170Y521259D01*
X1070134Y521274D01*
X1070107Y521288D01*
X1070085Y521302D01*
X1070065Y521319D01*
X1069978Y521399D01*
X1069669Y521591D01*
X1069366Y521794D01*
X1069332Y521801D01*
X1069302Y521819D01*
X1068942Y521878D01*
X1068585Y521949D01*
X1068551Y521942D01*
X1068517Y521948D01*
X1068255Y521887D01*
X1067596Y522160D01*
X1066004D01*
X1064534Y521551D01*
X1063409Y520426D01*
X1062800Y518956D01*
Y517364D01*
X1063409Y515894D01*
X1064534Y514769D01*
X1066004Y514160D01*
X1067596D01*
X1068255Y514433D01*
X1068517Y514372D01*
X1068551Y514378D01*
X1068585Y514371D01*
X1068942Y514442D01*
X1069302Y514501D01*
X1069332Y514519D01*
X1069366Y514526D01*
X1069669Y514729D01*
X1069978Y514921D01*
X1070065Y515001D01*
X1070085Y515018D01*
X1070107Y515032D01*
X1070134Y515046D01*
X1070170Y515061D01*
X1070219Y515077D01*
X1070283Y515093D01*
X1070367Y515107D01*
X1070469Y515116D01*
X1070653Y515122D01*
X1071011Y515204D01*
X1071372Y515276D01*
X1071398Y515293D01*
X1071428Y515300D01*
X1071728Y515514D01*
X1071873Y515611D01*
X1101039D01*
X1101188Y515512D01*
X1101491Y515297D01*
X1101517Y515291D01*
X1101540Y515276D01*
X1101905Y515204D01*
X1102267Y515121D01*
X1102584Y515113D01*
X1102590Y515113D01*
X1102716Y514962D01*
X1102790Y514851D01*
Y512660D01*
X1111250D01*
X1111790Y512660D01*
X1112520Y511692D01*
Y504308D01*
X1111790Y503340D01*
X1111250Y503340D01*
X1102790D01*
Y501149D01*
X1102716Y501038D01*
X1102590Y500887D01*
X1102584Y500887D01*
X1102267Y500878D01*
X1101905Y500797D01*
X1101540Y500724D01*
X1101517Y500709D01*
X1101491Y500703D01*
X1101188Y500488D01*
X1101039Y500389D01*
X1070603D01*
X1070457Y500486D01*
X1070158Y500700D01*
X1070128Y500707D01*
X1070102Y500724D01*
X1069741Y500796D01*
X1069383Y500878D01*
X1069199Y500884D01*
X1069096Y500894D01*
X1069014Y500907D01*
X1068949Y500923D01*
X1068900Y500939D01*
X1068864Y500954D01*
X1068837Y500968D01*
X1068815Y500982D01*
X1068795Y500998D01*
X1068708Y501079D01*
X1068399Y501272D01*
X1068096Y501474D01*
X1068062Y501481D01*
X1068032Y501499D01*
X1067672Y501558D01*
X1067315Y501629D01*
X1067281Y501623D01*
X1067247Y501628D01*
X1066985Y501567D01*
X1066326Y501840D01*
X1064734D01*
X1063264Y501231D01*
X1062139Y500106D01*
X1061530Y498636D01*
Y497044D01*
X1062139Y495574D01*
X1063264Y494449D01*
X1064734Y493840D01*
X1066326D01*
X1066985Y494113D01*
X1067247Y494052D01*
X1067281Y494058D01*
X1067315Y494051D01*
X1067672Y494122D01*
X1068032Y494181D01*
X1068062Y494199D01*
X1068096Y494206D01*
X1068399Y494408D01*
X1068708Y494601D01*
X1068795Y494682D01*
X1068815Y494697D01*
X1068837Y494712D01*
X1068864Y494726D01*
X1068900Y494741D01*
X1068949Y494757D01*
X1069013Y494773D01*
X1069097Y494786D01*
X1069199Y494796D01*
X1069383Y494802D01*
X1069741Y494884D01*
X1070102Y494956D01*
X1070128Y494973D01*
X1070158Y494980D01*
X1070458Y495194D01*
X1070603Y495291D01*
X1101039D01*
X1101188Y495192D01*
X1101491Y494977D01*
X1101517Y494971D01*
X1101540Y494956D01*
X1101905Y494883D01*
X1102267Y494801D01*
X1102584Y494793D01*
X1102590Y494793D01*
X1102716Y494642D01*
X1102790Y494531D01*
Y492340D01*
X1111250D01*
X1111790Y492340D01*
X1112520Y491372D01*
Y482718D01*
X1111790Y481750D01*
X1111250Y481750D01*
X1102790D01*
Y480268D01*
X1102716Y480157D01*
X1102590Y480006D01*
X1102584Y480006D01*
X1102267Y479997D01*
X1101905Y479915D01*
X1101540Y479843D01*
X1101517Y479827D01*
X1101491Y479822D01*
X1101188Y479607D01*
X1101039Y479508D01*
X1069518D01*
X1069442Y479592D01*
X1069244Y479687D01*
X1069066Y479815D01*
X1068888Y479856D01*
X1068724Y479935D01*
X1068505Y479947D01*
X1068291Y479997D01*
X1068115Y480003D01*
X1068042Y480011D01*
X1067818Y480229D01*
X1067576Y480485D01*
X1067533Y480504D01*
X1067499Y480537D01*
X1067171Y480667D01*
X1066850Y480812D01*
X1066804Y480813D01*
X1066760Y480830D01*
X1066609Y480828D01*
X1066526Y480911D01*
X1065056Y481520D01*
X1063464D01*
X1061994Y480911D01*
X1060869Y479786D01*
X1060260Y478316D01*
Y476724D01*
X1060869Y475254D01*
X1061994Y474129D01*
X1063464Y473520D01*
X1064931D01*
X1065103Y473438D01*
X1065127Y473437D01*
X1065149Y473427D01*
X1065524Y473415D01*
X1065898Y473396D01*
X1065920Y473404D01*
X1065944Y473403D01*
X1066295Y473536D01*
X1066648Y473660D01*
X1066764Y473730D01*
X1066829Y473762D01*
X1066900Y473793D01*
X1066980Y473821D01*
X1067071Y473848D01*
X1067173Y473871D01*
X1067263Y473886D01*
X1067583Y473916D01*
X1067758Y473920D01*
X1067880Y473947D01*
X1068005Y473941D01*
X1068265Y474033D01*
X1068534Y474092D01*
X1068637Y474164D01*
X1068755Y474206D01*
X1068960Y474391D01*
X1068987Y474410D01*
X1101039D01*
X1101188Y474310D01*
X1101491Y474096D01*
X1101517Y474090D01*
X1101540Y474075D01*
X1101905Y474002D01*
X1102267Y473920D01*
X1102584Y473912D01*
X1102590Y473911D01*
X1102716Y473760D01*
X1102790Y473649D01*
Y470750D01*
X1111250D01*
X1111790Y470750D01*
X1112520Y469782D01*
Y462398D01*
X1111790Y461430D01*
X1111250Y461430D01*
X1102790D01*
Y459239D01*
X1102716Y459128D01*
X1102590Y458977D01*
X1102584Y458977D01*
X1102267Y458969D01*
X1101905Y458886D01*
X1101540Y458814D01*
X1101517Y458799D01*
X1101491Y458793D01*
X1101188Y458578D01*
X1101039Y458479D01*
X1069333D01*
X1069187Y458576D01*
X1068888Y458790D01*
X1068858Y458797D01*
X1068832Y458814D01*
X1068471Y458886D01*
X1068113Y458968D01*
X1067929Y458974D01*
X1067826Y458983D01*
X1067744Y458997D01*
X1067679Y459013D01*
X1067630Y459029D01*
X1067594Y459044D01*
X1067567Y459058D01*
X1067545Y459072D01*
X1067525Y459089D01*
X1067438Y459169D01*
X1067129Y459361D01*
X1066826Y459564D01*
X1066792Y459571D01*
X1066762Y459589D01*
X1066402Y459648D01*
X1066045Y459719D01*
X1066012Y459712D01*
X1065977Y459718D01*
X1065715Y459657D01*
X1065056Y459930D01*
X1063464D01*
X1061994Y459321D01*
X1060869Y458196D01*
X1060260Y456726D01*
Y455134D01*
X1060869Y453664D01*
X1061994Y452539D01*
X1063464Y451930D01*
X1065056D01*
X1065715Y452203D01*
X1065977Y452142D01*
X1066012Y452147D01*
X1066045Y452141D01*
X1066402Y452212D01*
X1066762Y452271D01*
X1066792Y452289D01*
X1066826Y452296D01*
X1067129Y452499D01*
X1067438Y452691D01*
X1067525Y452771D01*
X1067545Y452788D01*
X1067567Y452802D01*
X1067594Y452816D01*
X1067630Y452831D01*
X1067679Y452847D01*
X1067743Y452863D01*
X1067827Y452877D01*
X1067929Y452886D01*
X1068113Y452892D01*
X1068471Y452974D01*
X1068832Y453046D01*
X1068858Y453063D01*
X1068888Y453070D01*
X1069187Y453284D01*
X1069333Y453381D01*
X1101039D01*
X1101188Y453282D01*
X1101491Y453067D01*
X1101517Y453061D01*
X1101540Y453046D01*
X1101905Y452974D01*
X1102267Y452892D01*
X1102584Y452883D01*
X1102590Y452883D01*
X1102716Y452732D01*
X1102790Y452621D01*
Y450430D01*
X1111250D01*
X1111790Y450430D01*
X1112520Y449462D01*
Y369570D01*
X607060D01*
Y1041400D01*
X845820D01*
X878840Y1008380D01*
X1085850D01*
X1031240Y1062990D01*
X976630D01*
X958850Y1083310D01*
Y1153160D01*
X1060450D01*
X1060450Y1103630D01*
D02*
G37*
G36*
X1409700Y908050D02*
X1365250D01*
X1365153Y907953D01*
X1363980Y908439D01*
Y970280D01*
X1409700D01*
Y908050D01*
D02*
G37*
G36*
X1227213Y817238D02*
X1226725Y817058D01*
X1226295Y816758D01*
X1225922Y816338D01*
X1225607Y815798D01*
X1225349Y815138D01*
X1225148Y814358D01*
X1225005Y813458D01*
X1224919Y812438D01*
X1224890Y811298D01*
X1218890D01*
X1218869Y812438D01*
X1218704Y814358D01*
X1218559Y815138D01*
X1218372Y815798D01*
X1218144Y816338D01*
X1217875Y816758D01*
X1217564Y817058D01*
X1217212Y817238D01*
X1216819Y817298D01*
X1227758D01*
X1227213Y817238D01*
D02*
G37*
G36*
X1191504Y772898D02*
X1191686Y772806D01*
X1191877Y772725D01*
X1192076Y772655D01*
X1192282Y772595D01*
X1192497Y772547D01*
X1192719Y772509D01*
X1193189Y772465D01*
X1193436Y772460D01*
X1193953Y770460D01*
X1193701Y770451D01*
X1193464Y770425D01*
X1193243Y770382D01*
X1193037Y770321D01*
X1192847Y770243D01*
X1192672Y770148D01*
X1192513Y770035D01*
X1192369Y769905D01*
X1192240Y769758D01*
X1192127Y769593D01*
X1191329Y773001D01*
X1191504Y772898D01*
D02*
G37*
G36*
X1418590Y715010D02*
X1374140D01*
X1374043Y714913D01*
X1372870Y715399D01*
Y777240D01*
X1418590D01*
Y715010D01*
D02*
G37*
G36*
X1243640Y697015D02*
X1243760Y696681D01*
X1243960Y696385D01*
X1244240Y696129D01*
X1244600Y695912D01*
X1245040Y695735D01*
X1245559Y695597D01*
X1246160Y695499D01*
X1246840Y695440D01*
X1247599Y695420D01*
Y691420D01*
X1246840Y691400D01*
X1246160Y691341D01*
X1245559Y691243D01*
X1245040Y691105D01*
X1244600Y690928D01*
X1244240Y690711D01*
X1243960Y690455D01*
X1243760Y690160D01*
X1243640Y689825D01*
X1243599Y689451D01*
Y697390D01*
X1243640Y697015D01*
D02*
G37*
G36*
X1217661Y689451D02*
X1217641Y689367D01*
X1217580Y689292D01*
X1217480Y689226D01*
X1217340Y689169D01*
X1217160Y689120D01*
X1216941Y689081D01*
X1216681Y689050D01*
X1216040Y689014D01*
X1215660Y689010D01*
Y691010D01*
X1216044Y691020D01*
X1216388Y691050D01*
X1216691Y691100D01*
X1216954Y691170D01*
X1217177Y691260D01*
X1217360Y691370D01*
X1217503Y691500D01*
X1217606Y691650D01*
X1217669Y691820D01*
X1217691Y692010D01*
X1217661Y689451D01*
D02*
G37*
G36*
X1198559Y691820D02*
X1198620Y691650D01*
X1198719Y691500D01*
X1198859Y691370D01*
X1199040Y691260D01*
X1199259Y691170D01*
X1199520Y691100D01*
X1199819Y691050D01*
X1200160Y691020D01*
X1200539Y691010D01*
Y689010D01*
X1200160Y689000D01*
X1199819Y688970D01*
X1199520Y688920D01*
X1199259Y688850D01*
X1199040Y688760D01*
X1198859Y688650D01*
X1198719Y688520D01*
X1198620Y688370D01*
X1198559Y688200D01*
X1198540Y688010D01*
Y692010D01*
X1198559Y691820D01*
D02*
G37*
G36*
X1191631Y687999D02*
X1191615Y688115D01*
X1191565Y688219D01*
X1191483Y688311D01*
X1191368Y688390D01*
X1191221Y688457D01*
X1191040Y688512D01*
X1190827Y688555D01*
X1190581Y688586D01*
X1190302Y688604D01*
X1189990Y688610D01*
Y690610D01*
X1190302Y690616D01*
X1190827Y690665D01*
X1191040Y690708D01*
X1191221Y690763D01*
X1191368Y690830D01*
X1191483Y690909D01*
X1191565Y691001D01*
X1191615Y691105D01*
X1191631Y691220D01*
Y687999D01*
D02*
G37*
G36*
X1191928Y691217D02*
X1192091Y691090D01*
X1192265Y690977D01*
X1192449Y690880D01*
X1192644Y690798D01*
X1192850Y690730D01*
X1193067Y690677D01*
X1193294Y690640D01*
X1193532Y690618D01*
X1193781Y690610D01*
Y688610D01*
X1193532Y688603D01*
X1193294Y688580D01*
X1193067Y688542D01*
X1192850Y688490D01*
X1192644Y688422D01*
X1192449Y688340D01*
X1192265Y688242D01*
X1192091Y688130D01*
X1191928Y688002D01*
X1191775Y687860D01*
Y691360D01*
X1191928Y691217D01*
D02*
G37*
G36*
X1217691Y673640D02*
X1217671Y673830D01*
X1217610Y674000D01*
X1217508Y674150D01*
X1217366Y674280D01*
X1217183Y674390D01*
X1216960Y674480D01*
X1216696Y674550D01*
X1216391Y674600D01*
X1216145Y674621D01*
Y673890D01*
X1215992Y674033D01*
X1215829Y674160D01*
X1215655Y674273D01*
X1215471Y674370D01*
X1215276Y674453D01*
X1215070Y674520D01*
X1214853Y674573D01*
X1214626Y674610D01*
X1214388Y674632D01*
X1214139Y674640D01*
Y676640D01*
X1214388Y676647D01*
X1214626Y676670D01*
X1214853Y676708D01*
X1215070Y676760D01*
X1215276Y676827D01*
X1215471Y676910D01*
X1215655Y677008D01*
X1215829Y677120D01*
X1215992Y677247D01*
X1216145Y677390D01*
Y676659D01*
X1216391Y676680D01*
X1216696Y676730D01*
X1216960Y676800D01*
X1217183Y676890D01*
X1217366Y677000D01*
X1217508Y677130D01*
X1217610Y677280D01*
X1217671Y677450D01*
X1217691Y677640D01*
Y673640D01*
D02*
G37*
G36*
X1198559Y677450D02*
X1198620Y677280D01*
X1198719Y677130D01*
X1198859Y677000D01*
X1199040Y676890D01*
X1199259Y676800D01*
X1199520Y676730D01*
X1199819Y676680D01*
X1200160Y676650D01*
X1200539Y676640D01*
Y674640D01*
X1200160Y674630D01*
X1199819Y674600D01*
X1199520Y674550D01*
X1199259Y674480D01*
X1199040Y674390D01*
X1198859Y674280D01*
X1198719Y674150D01*
X1198620Y674000D01*
X1198559Y673830D01*
X1198540Y673640D01*
Y677640D01*
X1198559Y677450D01*
D02*
G37*
G36*
X1243640Y680505D02*
X1243760Y680171D01*
X1243960Y679875D01*
X1244240Y679619D01*
X1244600Y679402D01*
X1245040Y679225D01*
X1245559Y679087D01*
X1246160Y678989D01*
X1246840Y678930D01*
X1247599Y678910D01*
Y674910D01*
X1246840Y674890D01*
X1246160Y674831D01*
X1245559Y674733D01*
X1245040Y674595D01*
X1244600Y674418D01*
X1244240Y674201D01*
X1243960Y673945D01*
X1243760Y673650D01*
X1243640Y673315D01*
X1243599Y672941D01*
Y680880D01*
X1243640Y680505D01*
D02*
G37*
G36*
X1198556Y663165D02*
X1198604Y663061D01*
X1198684Y662969D01*
X1198797Y662890D01*
X1198942Y662823D01*
X1199119Y662768D01*
X1199329Y662725D01*
X1199570Y662694D01*
X1199844Y662676D01*
X1200150Y662670D01*
Y660670D01*
X1199844Y660664D01*
X1199329Y660615D01*
X1199119Y660572D01*
X1198942Y660517D01*
X1198797Y660450D01*
X1198684Y660371D01*
X1198604Y660279D01*
X1198556Y660175D01*
X1198540Y660060D01*
Y663280D01*
X1198556Y663165D01*
D02*
G37*
G36*
X1198365Y659920D02*
X1198212Y660062D01*
X1198049Y660190D01*
X1197875Y660303D01*
X1197691Y660400D01*
X1197496Y660482D01*
X1197290Y660550D01*
X1197073Y660602D01*
X1196846Y660640D01*
X1196608Y660663D01*
X1196359Y660670D01*
Y662670D01*
X1196608Y662678D01*
X1196846Y662700D01*
X1197073Y662738D01*
X1197290Y662790D01*
X1197496Y662858D01*
X1197691Y662940D01*
X1197875Y663037D01*
X1198049Y663150D01*
X1198212Y663278D01*
X1198365Y663420D01*
Y659920D01*
D02*
G37*
G36*
X1196077Y646162D02*
X1196100Y645924D01*
X1196137Y645697D01*
X1196190Y645480D01*
X1196223Y645381D01*
X1197070D01*
X1196880Y645361D01*
X1196710Y645300D01*
X1196560Y645198D01*
X1196430Y645056D01*
X1196389Y644987D01*
X1196438Y644895D01*
X1196550Y644721D01*
X1196677Y644558D01*
X1196820Y644405D01*
X1196165D01*
X1196160Y644386D01*
X1196110Y644081D01*
X1196080Y643736D01*
X1196070Y643351D01*
X1194070D01*
X1194060Y643736D01*
X1194030Y644081D01*
X1193980Y644386D01*
X1193975Y644405D01*
X1193320D01*
X1193463Y644558D01*
X1193590Y644721D01*
X1193702Y644895D01*
X1193751Y644987D01*
X1193710Y645056D01*
X1193580Y645198D01*
X1193430Y645300D01*
X1193260Y645361D01*
X1193070Y645381D01*
X1193917D01*
X1193950Y645480D01*
X1194003Y645697D01*
X1194040Y645924D01*
X1194062Y646162D01*
X1194070Y646411D01*
X1196070D01*
X1196077Y646162D01*
D02*
G37*
G36*
X1455963Y622993D02*
X1455920Y622908D01*
X1455883Y622797D01*
X1455850Y622663D01*
X1455822Y622504D01*
X1455782Y622112D01*
X1455762Y621622D01*
X1455760Y621340D01*
X1452760D01*
X1452758Y621622D01*
X1452697Y622504D01*
X1452670Y622663D01*
X1452637Y622797D01*
X1452600Y622908D01*
X1452558Y622993D01*
X1452510Y623055D01*
X1456010D01*
X1455963Y622993D01*
D02*
G37*
G36*
X1446962D02*
X1446920Y622908D01*
X1446882Y622797D01*
X1446850Y622663D01*
X1446823Y622504D01*
X1446783Y622112D01*
X1446763Y621622D01*
X1446760Y621340D01*
X1443760D01*
X1443757Y621622D01*
X1443698Y622504D01*
X1443670Y622663D01*
X1443638Y622797D01*
X1443600Y622908D01*
X1443557Y622993D01*
X1443510Y623055D01*
X1447010D01*
X1446962Y622993D01*
D02*
G37*
G36*
X1200150Y801370D02*
X1178560Y779780D01*
Y709930D01*
Y698500D01*
X1181100Y694690D01*
Y666750D01*
X1182370Y665480D01*
Y642620D01*
Y563880D01*
X1150620D01*
Y659130D01*
X1160780Y669290D01*
X1165860Y674370D01*
Y784860D01*
Y938530D01*
X1200150D01*
Y801370D01*
D02*
G37*
G36*
X1591310Y595630D02*
X1609090D01*
Y548640D01*
X1537970D01*
X1527810Y558800D01*
X1466850D01*
X1466753Y558703D01*
X1465580Y559189D01*
Y613410D01*
X1573530D01*
X1591310Y595630D01*
D02*
G37*
G36*
X1438248Y548343D02*
X1438319Y548270D01*
X1438436Y548206D01*
X1438601Y548150D01*
X1438813Y548103D01*
X1439071Y548065D01*
X1439730Y548014D01*
X1440577Y547997D01*
Y544997D01*
X1440125Y544988D01*
X1439364Y544920D01*
X1439055Y544860D01*
X1438793Y544784D01*
X1438578Y544690D01*
X1438411Y544579D01*
X1438291Y544451D01*
X1438219Y544307D01*
X1438194Y544145D01*
X1438225Y548424D01*
X1438248Y548343D01*
D02*
G37*
G36*
X1463486Y548424D02*
X1463516Y544070D01*
X1463484Y544355D01*
X1463392Y544610D01*
X1463239Y544835D01*
X1463026Y545030D01*
X1462753Y545195D01*
X1462420Y545330D01*
X1462027Y545435D01*
X1461573Y545510D01*
X1461060Y545555D01*
X1460486Y545570D01*
Y548570D01*
X1463486Y548424D01*
D02*
G37*
G36*
X1123259Y520875D02*
X1123350Y520620D01*
X1123502Y520395D01*
X1123714Y520200D01*
X1123987Y520035D01*
X1124320Y519900D01*
X1124714Y519795D01*
X1125169Y519720D01*
X1125264Y519712D01*
X1125424Y519723D01*
X1125583Y519750D01*
X1125717Y519782D01*
X1125828Y519820D01*
X1125913Y519863D01*
X1125975Y519910D01*
Y519667D01*
X1126260Y519660D01*
Y516660D01*
X1125975Y516653D01*
Y516410D01*
X1125913Y516457D01*
X1125828Y516500D01*
X1125717Y516538D01*
X1125583Y516570D01*
X1125424Y516598D01*
X1125293Y516611D01*
X1125169Y516600D01*
X1124714Y516525D01*
X1124320Y516420D01*
X1123987Y516285D01*
X1123714Y516120D01*
X1123502Y515925D01*
X1123350Y515700D01*
X1123259Y515445D01*
X1123229Y515160D01*
Y521160D01*
X1123259Y520875D01*
D02*
G37*
G36*
X1068738Y519767D02*
X1068901Y519640D01*
X1069075Y519528D01*
X1069259Y519430D01*
X1069454Y519347D01*
X1069660Y519280D01*
X1069877Y519227D01*
X1070104Y519190D01*
X1070342Y519168D01*
X1070591Y519160D01*
Y517160D01*
X1070342Y517152D01*
X1070104Y517130D01*
X1069877Y517093D01*
X1069660Y517040D01*
X1069454Y516973D01*
X1069259Y516890D01*
X1069075Y516792D01*
X1068901Y516680D01*
X1068738Y516553D01*
X1068585Y516410D01*
Y519910D01*
X1068738Y519767D01*
D02*
G37*
G36*
X1104321Y516160D02*
X1104301Y516350D01*
X1104240Y516520D01*
X1104140Y516670D01*
X1104000Y516800D01*
X1103820Y516910D01*
X1103600Y517000D01*
X1103341Y517070D01*
X1103040Y517120D01*
X1102701Y517150D01*
X1102320Y517160D01*
Y519160D01*
X1102701Y519170D01*
X1103040Y519200D01*
X1103341Y519250D01*
X1103600Y519320D01*
X1103820Y519410D01*
X1104000Y519520D01*
X1104140Y519650D01*
X1104240Y519800D01*
X1104301Y519970D01*
X1104321Y520160D01*
Y516160D01*
D02*
G37*
G36*
X1174720Y516788D02*
X1174750Y516697D01*
X1174802Y516593D01*
X1174874Y516475D01*
X1174967Y516343D01*
X1175216Y516037D01*
X1175548Y515677D01*
X1175745Y515476D01*
X1173624Y513354D01*
X1173423Y513552D01*
X1172757Y514133D01*
X1172625Y514226D01*
X1172507Y514298D01*
X1172403Y514350D01*
X1172312Y514380D01*
X1172235Y514390D01*
X1174710Y516865D01*
X1174720Y516788D01*
D02*
G37*
G36*
X1123259Y500555D02*
X1123350Y500300D01*
X1123502Y500075D01*
X1123714Y499880D01*
X1123987Y499715D01*
X1124320Y499580D01*
X1124714Y499475D01*
X1125169Y499400D01*
X1125264Y499392D01*
X1125424Y499403D01*
X1125583Y499430D01*
X1125717Y499463D01*
X1125828Y499500D01*
X1125913Y499543D01*
X1125975Y499590D01*
Y499347D01*
X1126260Y499340D01*
Y496340D01*
X1125975Y496333D01*
Y496090D01*
X1125913Y496138D01*
X1125828Y496180D01*
X1125717Y496217D01*
X1125583Y496250D01*
X1125424Y496278D01*
X1125293Y496291D01*
X1125169Y496280D01*
X1124714Y496205D01*
X1124320Y496100D01*
X1123987Y495965D01*
X1123714Y495800D01*
X1123502Y495605D01*
X1123350Y495380D01*
X1123259Y495125D01*
X1123229Y494840D01*
Y500840D01*
X1123259Y500555D01*
D02*
G37*
G36*
X1067468Y499448D02*
X1067631Y499320D01*
X1067805Y499207D01*
X1067989Y499110D01*
X1068184Y499027D01*
X1068390Y498960D01*
X1068607Y498908D01*
X1068834Y498870D01*
X1069072Y498848D01*
X1069321Y498840D01*
Y496840D01*
X1069072Y496833D01*
X1068834Y496810D01*
X1068607Y496772D01*
X1068390Y496720D01*
X1068184Y496652D01*
X1067989Y496570D01*
X1067805Y496473D01*
X1067631Y496360D01*
X1067468Y496232D01*
X1067315Y496090D01*
Y499590D01*
X1067468Y499448D01*
D02*
G37*
G36*
X1104321Y495840D02*
X1104301Y496030D01*
X1104240Y496200D01*
X1104140Y496350D01*
X1104000Y496480D01*
X1103820Y496590D01*
X1103600Y496680D01*
X1103341Y496750D01*
X1103040Y496800D01*
X1102701Y496830D01*
X1102320Y496840D01*
Y498840D01*
X1102701Y498850D01*
X1103040Y498880D01*
X1103341Y498930D01*
X1103600Y499000D01*
X1103820Y499090D01*
X1104000Y499200D01*
X1104140Y499330D01*
X1104240Y499480D01*
X1104301Y499650D01*
X1104321Y499840D01*
Y495840D01*
D02*
G37*
G36*
X1217415Y483390D02*
X1217353Y483438D01*
X1217268Y483480D01*
X1217157Y483517D01*
X1217023Y483550D01*
X1216863Y483577D01*
X1216472Y483618D01*
X1215982Y483638D01*
X1215700Y483640D01*
Y486640D01*
X1215982Y486642D01*
X1216863Y486702D01*
X1217023Y486730D01*
X1217157Y486763D01*
X1217268Y486800D01*
X1217353Y486842D01*
X1217415Y486890D01*
Y483390D01*
D02*
G37*
G36*
X1066506Y478660D02*
X1066635Y478513D01*
X1066780Y478383D01*
X1066939Y478270D01*
X1067115Y478175D01*
X1067305Y478097D01*
X1067511Y478037D01*
X1067732Y477993D01*
X1067969Y477967D01*
X1068221Y477959D01*
X1067713Y475959D01*
X1067466Y475953D01*
X1066997Y475910D01*
X1066774Y475872D01*
X1066559Y475822D01*
X1066353Y475763D01*
X1066154Y475692D01*
X1065964Y475610D01*
X1065781Y475517D01*
X1065607Y475414D01*
X1066393Y478825D01*
X1066506Y478660D01*
D02*
G37*
G36*
X1104321Y474959D02*
X1104301Y475149D01*
X1104240Y475319D01*
X1104140Y475469D01*
X1104000Y475599D01*
X1103820Y475709D01*
X1103600Y475799D01*
X1103341Y475869D01*
X1103040Y475919D01*
X1102701Y475949D01*
X1102320Y475959D01*
Y477959D01*
X1102701Y477969D01*
X1103040Y477999D01*
X1103341Y478049D01*
X1103600Y478119D01*
X1103820Y478209D01*
X1104000Y478319D01*
X1104140Y478449D01*
X1104240Y478599D01*
X1104301Y478769D01*
X1104321Y478959D01*
Y474959D01*
D02*
G37*
G36*
X1123259Y478965D02*
X1123350Y478710D01*
X1123502Y478485D01*
X1123714Y478290D01*
X1123987Y478125D01*
X1124320Y477990D01*
X1124714Y477885D01*
X1125169Y477810D01*
X1125684Y477765D01*
X1125909Y477759D01*
X1126693Y477812D01*
X1126853Y477840D01*
X1126987Y477873D01*
X1127098Y477910D01*
X1127183Y477952D01*
X1127245Y478000D01*
Y474500D01*
X1127183Y474548D01*
X1127098Y474590D01*
X1126987Y474627D01*
X1126853Y474660D01*
X1126693Y474688D01*
X1126302Y474728D01*
X1125949Y474742D01*
X1125684Y474735D01*
X1125169Y474690D01*
X1124714Y474615D01*
X1124320Y474510D01*
X1123987Y474375D01*
X1123714Y474210D01*
X1123502Y474015D01*
X1123350Y473790D01*
X1123259Y473535D01*
X1123229Y473250D01*
Y479250D01*
X1123259Y478965D01*
D02*
G37*
G36*
X1066198Y457537D02*
X1066361Y457410D01*
X1066535Y457298D01*
X1066719Y457200D01*
X1066914Y457118D01*
X1067120Y457050D01*
X1067337Y456997D01*
X1067564Y456960D01*
X1067803Y456937D01*
X1068051Y456930D01*
Y454930D01*
X1067803Y454922D01*
X1067564Y454900D01*
X1067337Y454863D01*
X1067120Y454810D01*
X1066914Y454743D01*
X1066719Y454660D01*
X1066535Y454562D01*
X1066361Y454450D01*
X1066198Y454323D01*
X1066045Y454180D01*
Y457680D01*
X1066198Y457537D01*
D02*
G37*
G36*
X1104321Y453930D02*
X1104301Y454120D01*
X1104240Y454290D01*
X1104140Y454440D01*
X1104000Y454570D01*
X1103820Y454680D01*
X1103600Y454770D01*
X1103341Y454840D01*
X1103040Y454890D01*
X1102701Y454920D01*
X1102320Y454930D01*
Y456930D01*
X1102701Y456940D01*
X1103040Y456970D01*
X1103341Y457020D01*
X1103600Y457090D01*
X1103820Y457180D01*
X1104000Y457290D01*
X1104140Y457420D01*
X1104240Y457570D01*
X1104301Y457740D01*
X1104321Y457930D01*
Y453930D01*
D02*
G37*
G36*
X1123262Y459117D02*
X1123359Y459077D01*
X1123522Y459043D01*
X1123751Y459013D01*
X1124403Y458967D01*
X1126490Y458930D01*
Y452930D01*
X1125870Y452928D01*
X1123359Y452783D01*
X1123262Y452743D01*
X1123229Y452700D01*
Y459160D01*
X1123262Y459117D01*
D02*
G37*
G36*
X1399540Y430530D02*
X1355090D01*
X1354993Y430433D01*
X1353820Y430919D01*
Y492760D01*
X1399540D01*
Y430530D01*
D02*
G37*
%LPC*%
G36*
X734940Y913812D02*
X717940D01*
X717940Y896813D01*
X716746Y896629D01*
X695960D01*
X694985Y896435D01*
X694158Y895882D01*
X679664Y881389D01*
X666560D01*
X666089Y882659D01*
X667051Y884324D01*
X667630Y886486D01*
Y888724D01*
X667051Y890886D01*
X665932Y892824D01*
X664349Y894407D01*
X662411Y895526D01*
X660249Y896105D01*
X658011D01*
X655849Y895526D01*
X653911Y894407D01*
X652328Y892824D01*
X651209Y890886D01*
X650630Y888724D01*
Y886486D01*
X651209Y884324D01*
X652328Y882386D01*
X652387Y882327D01*
X651901Y881154D01*
X651275D01*
X650300Y880960D01*
X649473Y880407D01*
X637008Y867942D01*
X636455Y867115D01*
X636261Y866140D01*
Y810260D01*
X636455Y809285D01*
X637008Y808458D01*
X649682Y795783D01*
X649677Y795655D01*
X649733Y795500D01*
X649752Y795337D01*
X649867Y795130D01*
X649948Y794907D01*
X650059Y794786D01*
X650139Y794642D01*
X650377Y794363D01*
X650494Y794170D01*
X650602Y793916D01*
X650692Y793585D01*
X650755Y793169D01*
X650780Y792665D01*
X650759Y792076D01*
X650685Y791402D01*
X650555Y790650D01*
X650356Y789778D01*
X650346Y789395D01*
X650330Y789010D01*
X650334Y788997D01*
X650334Y788982D01*
X650471Y788624D01*
X650603Y788263D01*
X650613Y788252D01*
X650618Y788239D01*
X650630Y788226D01*
Y786486D01*
X651209Y784324D01*
X652328Y782386D01*
X653911Y780803D01*
X655849Y779684D01*
X658011Y779105D01*
X660249D01*
X662411Y779684D01*
X664349Y780803D01*
X665932Y782386D01*
X667051Y784324D01*
X667630Y786486D01*
Y788724D01*
X667051Y790886D01*
X665932Y792824D01*
X664349Y794407D01*
X662423Y795519D01*
X662189Y795774D01*
X661925Y796064D01*
X661920Y796066D01*
X661916Y796070D01*
X661559Y796236D01*
X661205Y796403D01*
X659016Y796947D01*
X657274Y797456D01*
X655946Y797933D01*
X655491Y798133D01*
X655148Y798310D01*
X654951Y798436D01*
X654764Y798593D01*
X654706Y798625D01*
X654661Y798674D01*
X654359Y798815D01*
X654066Y798976D01*
X654000Y798983D01*
X653940Y799011D01*
X653651Y799024D01*
X641359Y811316D01*
Y822917D01*
X642611Y822960D01*
X642805Y821984D01*
X643358Y821158D01*
X650449Y814066D01*
X650680Y813912D01*
X650630Y813724D01*
Y811486D01*
X651209Y809324D01*
X652328Y807386D01*
X653911Y805803D01*
X655849Y804684D01*
X658011Y804105D01*
X660249D01*
X662411Y804684D01*
X664349Y805803D01*
X665932Y807386D01*
X667051Y809324D01*
X667630Y811486D01*
Y813724D01*
X667051Y815886D01*
X665932Y817824D01*
X664349Y819407D01*
X662411Y820526D01*
X660249Y821105D01*
X658011D01*
X655849Y820526D01*
X653911Y819407D01*
X653114Y818610D01*
X647709Y824016D01*
Y860607D01*
X649360Y863147D01*
X650630Y862770D01*
Y861486D01*
X651209Y859324D01*
X652328Y857386D01*
X653911Y855803D01*
X655849Y854684D01*
X658011Y854105D01*
X660249D01*
X662411Y854684D01*
X664349Y855803D01*
X665932Y857386D01*
X667051Y859324D01*
X667630Y861486D01*
Y862669D01*
X667657Y862694D01*
X667759Y862914D01*
X667894Y863116D01*
X667925Y863271D01*
X667992Y863416D01*
X668002Y863658D01*
X668049Y863896D01*
X668018Y864052D01*
X668025Y864211D01*
X667928Y864829D01*
X667884Y865336D01*
X667878Y865792D01*
X667908Y866196D01*
X667967Y866551D01*
X668052Y866861D01*
X668159Y867132D01*
X668289Y867373D01*
X668309Y867401D01*
X683525D01*
X684051Y866131D01*
X666103Y848183D01*
X665982Y848159D01*
X665668Y848122D01*
X665594Y848081D01*
X665511Y848065D01*
X665249Y847889D01*
X664972Y847736D01*
X664721Y847522D01*
X664510Y847391D01*
X664198Y847245D01*
X663780Y847098D01*
X663257Y846963D01*
X662636Y846845D01*
X661939Y846755D01*
X660187Y846649D01*
X659189Y846644D01*
X658804Y846565D01*
X658420Y846489D01*
X658415Y846486D01*
X658409Y846484D01*
X658085Y846265D01*
X657758Y846047D01*
X657755Y846042D01*
X657750Y846039D01*
X657747Y846034D01*
X655849Y845526D01*
X653911Y844407D01*
X652328Y842824D01*
X651209Y840886D01*
X650630Y838724D01*
Y836486D01*
X651209Y834324D01*
X652328Y832386D01*
X653911Y830803D01*
X655849Y829684D01*
X658011Y829105D01*
X660249D01*
X662411Y829684D01*
X664349Y830803D01*
X665932Y832386D01*
X667051Y834324D01*
X667559Y836222D01*
X667563Y836225D01*
X667567Y836230D01*
X667572Y836233D01*
X667790Y836560D01*
X668009Y836884D01*
X668010Y836890D01*
X668014Y836895D01*
X668090Y837279D01*
X668169Y837664D01*
X668174Y838662D01*
X668280Y840414D01*
X668370Y841111D01*
X668487Y841732D01*
X668623Y842255D01*
X668770Y842673D01*
X668916Y842986D01*
X669047Y843196D01*
X669261Y843447D01*
X669414Y843724D01*
X669590Y843987D01*
X669606Y844069D01*
X669647Y844143D01*
X669684Y844457D01*
X669707Y844578D01*
X687451Y862321D01*
X719632D01*
X720158Y861051D01*
X719638Y860532D01*
X718519Y858593D01*
X717940Y856432D01*
Y854193D01*
X718519Y852032D01*
X719638Y850093D01*
X721221Y848511D01*
X723159Y847392D01*
X725321Y846813D01*
X727559D01*
X729721Y847392D01*
X731423Y848374D01*
X731428Y848373D01*
X731433Y848374D01*
X731439Y848373D01*
X731821Y848449D01*
X732209Y848524D01*
X732214Y848527D01*
X732219Y848529D01*
X732547Y848748D01*
X732873Y848962D01*
X733583Y849664D01*
X734896Y850829D01*
X735453Y851257D01*
X735975Y851614D01*
X736440Y851887D01*
X736840Y852080D01*
X737164Y852197D01*
X737406Y852253D01*
X737735Y852280D01*
X738039Y852367D01*
X738349Y852429D01*
X738419Y852475D01*
X738500Y852498D01*
X738747Y852695D01*
X738850Y852764D01*
X787012D01*
X805644Y834131D01*
X805118Y832861D01*
X738850D01*
X738747Y832930D01*
X738500Y833127D01*
X738419Y833150D01*
X738349Y833196D01*
X738039Y833258D01*
X737735Y833345D01*
X737406Y833372D01*
X737164Y833428D01*
X736840Y833545D01*
X736440Y833738D01*
X735975Y834011D01*
X735453Y834368D01*
X734896Y834796D01*
X733583Y835961D01*
X732873Y836663D01*
X732546Y836878D01*
X732219Y837096D01*
X732214Y837098D01*
X732209Y837101D01*
X731823Y837175D01*
X731439Y837252D01*
X731433Y837251D01*
X731428Y837252D01*
X731423Y837251D01*
X729721Y838233D01*
X727559Y838812D01*
X725321D01*
X723159Y838233D01*
X721221Y837114D01*
X719638Y835532D01*
X718519Y833593D01*
X717940Y831432D01*
Y829193D01*
X718519Y827032D01*
X719638Y825093D01*
X721221Y823511D01*
X723159Y822392D01*
X725321Y821813D01*
X727559D01*
X729721Y822392D01*
X731423Y823374D01*
X731428Y823373D01*
X731433Y823374D01*
X731439Y823373D01*
X731821Y823449D01*
X732209Y823524D01*
X732214Y823527D01*
X732219Y823529D01*
X732547Y823748D01*
X732873Y823962D01*
X733583Y824664D01*
X734896Y825829D01*
X735453Y826257D01*
X735975Y826614D01*
X736440Y826887D01*
X736840Y827080D01*
X737164Y827197D01*
X737406Y827253D01*
X737735Y827280D01*
X738039Y827367D01*
X738349Y827429D01*
X738419Y827475D01*
X738500Y827498D01*
X738747Y827695D01*
X738850Y827764D01*
X805662D01*
X857241Y776184D01*
Y665810D01*
X856429Y665333D01*
X856000Y665255D01*
X838510Y682745D01*
X838475Y682917D01*
X838415Y683280D01*
X838398Y683306D01*
X838392Y683337D01*
X838187Y683643D01*
X837993Y683954D01*
X837867Y684088D01*
X837801Y684167D01*
X837752Y684235D01*
X837718Y684292D01*
X837694Y684338D01*
X837680Y684374D01*
X837671Y684404D01*
X837665Y684429D01*
X837662Y684455D01*
X837658Y684573D01*
X837575Y684928D01*
X837504Y685285D01*
X837485Y685314D01*
X837477Y685348D01*
X837264Y685645D01*
X837062Y685947D01*
X837033Y685966D01*
X837013Y685994D01*
X836784Y686136D01*
X836511Y686796D01*
X835386Y687921D01*
X833916Y688530D01*
X832324D01*
X830854Y687921D01*
X829729Y686796D01*
X829120Y685326D01*
Y683734D01*
X829729Y682264D01*
X830854Y681139D01*
X831514Y680866D01*
X831656Y680637D01*
X831684Y680617D01*
X831703Y680588D01*
X832006Y680386D01*
X832302Y680173D01*
X832336Y680165D01*
X832365Y680146D01*
X832722Y680075D01*
X833077Y679992D01*
X833195Y679988D01*
X833221Y679985D01*
X833246Y679979D01*
X833276Y679970D01*
X833312Y679956D01*
X833358Y679932D01*
X833415Y679898D01*
X833483Y679849D01*
X833562Y679783D01*
X833696Y679657D01*
X834007Y679463D01*
X834313Y679258D01*
X834344Y679252D01*
X834370Y679235D01*
X834733Y679175D01*
X834905Y679140D01*
X868371Y645675D01*
X868405Y645503D01*
X868465Y645140D01*
X868482Y645114D01*
X868488Y645083D01*
X868692Y644778D01*
X868887Y644466D01*
X869013Y644332D01*
X869079Y644253D01*
X869128Y644185D01*
X869163Y644128D01*
X869186Y644082D01*
X869200Y644046D01*
X869210Y644016D01*
X869215Y643991D01*
X869218Y643965D01*
X869222Y643847D01*
X869305Y643492D01*
X869376Y643135D01*
X869395Y643106D01*
X869403Y643072D01*
X869616Y642775D01*
X869818Y642473D01*
X869847Y642454D01*
X869867Y642426D01*
X870096Y642284D01*
X870369Y641624D01*
X871494Y640499D01*
X872964Y639890D01*
X874556D01*
X876026Y640499D01*
X877151Y641624D01*
X877471Y642398D01*
X878933Y642732D01*
X944961Y576704D01*
Y560462D01*
X944862Y560313D01*
X944647Y560010D01*
X944641Y559984D01*
X944626Y559961D01*
X944554Y559596D01*
X944472Y559234D01*
X944463Y558917D01*
X944463Y558911D01*
X944312Y558785D01*
X944201Y558711D01*
X941229D01*
Y543649D01*
X951171D01*
X951254Y543580D01*
X951359Y543547D01*
X951450Y543486D01*
X951735Y543429D01*
X952013Y543342D01*
X952123Y543352D01*
X952230Y543331D01*
X952516Y543388D01*
X952806Y543414D01*
X952903Y543465D01*
X953010Y543486D01*
X953252Y543648D01*
X953255Y543649D01*
X953571D01*
X954244Y543370D01*
X955836D01*
X957306Y543979D01*
X958431Y545104D01*
X959040Y546574D01*
Y548166D01*
X958431Y549636D01*
X957306Y550761D01*
X955836Y551370D01*
X954244D01*
X953791Y551673D01*
Y558711D01*
X950819D01*
X950708Y558785D01*
X950557Y558911D01*
X950557Y558917D01*
X950548Y559234D01*
X950467Y559596D01*
X950394Y559961D01*
X950379Y559984D01*
X950373Y560010D01*
X950158Y560313D01*
X950059Y560462D01*
Y577760D01*
X949865Y578735D01*
X949312Y579562D01*
X862339Y666536D01*
Y775640D01*
X863609Y776166D01*
X876291Y763484D01*
Y676696D01*
X871735Y672140D01*
X871563Y672105D01*
X871200Y672045D01*
X871174Y672028D01*
X871143Y672022D01*
X870837Y671817D01*
X870526Y671623D01*
X870392Y671497D01*
X870313Y671431D01*
X870245Y671382D01*
X870188Y671348D01*
X870142Y671324D01*
X870106Y671310D01*
X870076Y671301D01*
X870051Y671295D01*
X870025Y671292D01*
X869907Y671288D01*
X869552Y671205D01*
X869195Y671134D01*
X869166Y671115D01*
X869132Y671107D01*
X868835Y670894D01*
X868533Y670692D01*
X868514Y670663D01*
X868486Y670643D01*
X868344Y670414D01*
X867684Y670141D01*
X866559Y669016D01*
X865950Y667546D01*
Y665954D01*
X866559Y664484D01*
X867684Y663359D01*
X869154Y662750D01*
X870746D01*
X872216Y663359D01*
X873341Y664484D01*
X873614Y665144D01*
X873843Y665286D01*
X873863Y665314D01*
X873892Y665333D01*
X874094Y665636D01*
X874307Y665932D01*
X874315Y665966D01*
X874334Y665995D01*
X874405Y666352D01*
X874488Y666707D01*
X874492Y666825D01*
X874495Y666851D01*
X874501Y666876D01*
X874510Y666906D01*
X874524Y666942D01*
X874548Y666988D01*
X874582Y667045D01*
X874631Y667113D01*
X874697Y667192D01*
X874823Y667326D01*
X875017Y667637D01*
X875222Y667943D01*
X875228Y667974D01*
X875245Y668000D01*
X875305Y668363D01*
X875340Y668535D01*
X878747Y671942D01*
X880209Y671608D01*
X880529Y670834D01*
X881654Y669709D01*
X882314Y669436D01*
X882456Y669207D01*
X882484Y669187D01*
X882503Y669158D01*
X882806Y668956D01*
X883102Y668743D01*
X883136Y668735D01*
X883165Y668716D01*
X883522Y668645D01*
X883877Y668562D01*
X883995Y668558D01*
X884021Y668555D01*
X884046Y668549D01*
X884075Y668540D01*
X884112Y668526D01*
X884158Y668503D01*
X884215Y668468D01*
X884283Y668419D01*
X884362Y668353D01*
X884496Y668227D01*
X884808Y668033D01*
X885113Y667828D01*
X885144Y667822D01*
X885170Y667805D01*
X885533Y667745D01*
X885705Y667710D01*
X931648Y621768D01*
X932475Y621215D01*
X933450Y621021D01*
X997164D01*
X1024358Y593828D01*
X1025184Y593275D01*
X1026160Y593081D01*
X1042670D01*
X1043645Y593275D01*
X1044472Y593828D01*
X1058442Y607798D01*
X1058995Y608625D01*
X1059189Y609600D01*
Y624847D01*
X1059286Y624993D01*
X1059500Y625292D01*
X1059507Y625322D01*
X1059524Y625348D01*
X1059596Y625709D01*
X1059678Y626067D01*
X1059684Y626251D01*
X1059694Y626354D01*
X1059707Y626437D01*
X1059723Y626501D01*
X1059739Y626550D01*
X1059754Y626586D01*
X1059768Y626613D01*
X1059782Y626635D01*
X1059799Y626655D01*
X1059879Y626742D01*
X1060071Y627051D01*
X1060274Y627354D01*
X1060281Y627388D01*
X1060299Y627418D01*
X1060358Y627778D01*
X1060429Y628135D01*
X1060423Y628168D01*
X1060428Y628203D01*
X1060367Y628465D01*
X1060640Y629124D01*
Y630716D01*
X1060031Y632186D01*
X1058906Y633311D01*
X1057436Y633920D01*
X1055844D01*
X1054374Y633311D01*
X1053249Y632186D01*
X1052640Y630716D01*
Y629124D01*
X1052913Y628465D01*
X1052852Y628203D01*
X1052858Y628168D01*
X1052851Y628135D01*
X1052922Y627778D01*
X1052981Y627418D01*
X1052999Y627388D01*
X1053006Y627354D01*
X1053208Y627051D01*
X1053401Y626742D01*
X1053482Y626655D01*
X1053497Y626635D01*
X1053512Y626613D01*
X1053526Y626586D01*
X1053541Y626550D01*
X1053557Y626501D01*
X1053573Y626437D01*
X1053587Y626353D01*
X1053596Y626251D01*
X1053602Y626067D01*
X1053684Y625709D01*
X1053756Y625348D01*
X1053773Y625322D01*
X1053780Y625292D01*
X1053994Y624992D01*
X1054091Y624847D01*
Y610656D01*
X1049502Y606067D01*
X1048515Y606876D01*
X1048835Y607355D01*
X1049029Y608330D01*
Y621037D01*
X1049126Y621183D01*
X1049340Y621482D01*
X1049347Y621512D01*
X1049364Y621538D01*
X1049436Y621899D01*
X1049518Y622257D01*
X1049524Y622441D01*
X1049533Y622544D01*
X1049547Y622626D01*
X1049563Y622691D01*
X1049579Y622740D01*
X1049594Y622776D01*
X1049608Y622803D01*
X1049622Y622825D01*
X1049639Y622845D01*
X1049719Y622932D01*
X1049911Y623241D01*
X1050114Y623544D01*
X1050121Y623578D01*
X1050139Y623608D01*
X1050198Y623968D01*
X1050269Y624325D01*
X1050263Y624358D01*
X1050268Y624393D01*
X1050207Y624655D01*
X1050480Y625314D01*
Y626906D01*
X1049871Y628376D01*
X1048746Y629501D01*
X1047276Y630110D01*
X1045684D01*
X1044214Y629501D01*
X1043089Y628376D01*
X1042480Y626906D01*
Y625314D01*
X1042753Y624655D01*
X1042692Y624393D01*
X1042698Y624358D01*
X1042691Y624325D01*
X1042762Y623968D01*
X1042821Y623608D01*
X1042839Y623578D01*
X1042846Y623544D01*
X1043048Y623241D01*
X1043241Y622932D01*
X1043322Y622845D01*
X1043337Y622825D01*
X1043352Y622803D01*
X1043366Y622776D01*
X1043381Y622740D01*
X1043397Y622691D01*
X1043413Y622627D01*
X1043427Y622543D01*
X1043436Y622441D01*
X1043442Y622257D01*
X1043524Y621899D01*
X1043596Y621538D01*
X1043613Y621512D01*
X1043620Y621482D01*
X1043834Y621183D01*
X1043931Y621037D01*
Y618749D01*
X1042661Y618496D01*
X1042251Y619486D01*
X1041126Y620611D01*
X1039656Y621220D01*
X1038465D01*
X997482Y662202D01*
X996656Y662755D01*
X995680Y662949D01*
X961225D01*
X960699Y664219D01*
X960971Y664491D01*
X961580Y665961D01*
Y667553D01*
X960971Y669023D01*
X959846Y670148D01*
X959186Y670421D01*
X959044Y670650D01*
X959016Y670670D01*
X958997Y670699D01*
X958694Y670901D01*
X958398Y671114D01*
X958364Y671122D01*
X958335Y671141D01*
X957978Y671212D01*
X957623Y671295D01*
X957505Y671299D01*
X957479Y671302D01*
X957454Y671307D01*
X957424Y671317D01*
X957388Y671331D01*
X957342Y671354D01*
X957285Y671389D01*
X957217Y671438D01*
X957138Y671504D01*
X957004Y671630D01*
X956693Y671824D01*
X956387Y672029D01*
X956356Y672035D01*
X956330Y672051D01*
X955967Y672112D01*
X955795Y672147D01*
X949969Y677973D01*
Y710144D01*
X1019596Y779771D01*
X1074427D01*
X1074573Y779674D01*
X1074872Y779460D01*
X1074902Y779453D01*
X1074928Y779436D01*
X1075289Y779364D01*
X1075647Y779282D01*
X1075831Y779276D01*
X1075934Y779267D01*
X1076016Y779253D01*
X1076081Y779237D01*
X1076130Y779221D01*
X1076166Y779206D01*
X1076193Y779192D01*
X1076215Y779178D01*
X1076235Y779162D01*
X1076322Y779081D01*
X1076631Y778888D01*
X1076934Y778686D01*
X1076968Y778679D01*
X1076998Y778661D01*
X1077358Y778602D01*
X1077715Y778531D01*
X1077748Y778538D01*
X1077783Y778532D01*
X1078045Y778593D01*
X1078704Y778320D01*
X1080296D01*
X1081766Y778929D01*
X1082891Y780054D01*
X1083500Y781524D01*
Y783116D01*
X1082891Y784586D01*
X1081766Y785711D01*
X1080296Y786320D01*
X1078704D01*
X1078045Y786047D01*
X1077783Y786108D01*
X1077748Y786103D01*
X1077715Y786109D01*
X1077358Y786038D01*
X1076998Y785979D01*
X1076968Y785961D01*
X1076934Y785954D01*
X1076631Y785751D01*
X1076322Y785559D01*
X1076235Y785479D01*
X1076215Y785462D01*
X1076193Y785448D01*
X1076166Y785434D01*
X1076130Y785419D01*
X1076081Y785403D01*
X1076017Y785387D01*
X1075933Y785374D01*
X1075831Y785364D01*
X1075647Y785358D01*
X1075289Y785276D01*
X1074928Y785204D01*
X1074902Y785187D01*
X1074872Y785180D01*
X1074573Y784966D01*
X1074427Y784869D01*
X1058383D01*
X1057241Y785179D01*
X1057241Y786139D01*
Y787946D01*
X1057284Y788010D01*
X1057409Y788160D01*
X1057440Y788163D01*
X1057763Y788171D01*
X1058126Y788253D01*
X1058455Y788319D01*
X1058779Y788254D01*
X1059137Y788172D01*
X1059321Y788166D01*
X1059424Y788157D01*
X1059507Y788143D01*
X1059571Y788127D01*
X1059620Y788111D01*
X1059656Y788096D01*
X1059683Y788082D01*
X1059705Y788068D01*
X1059725Y788052D01*
X1059812Y787971D01*
X1060121Y787778D01*
X1060424Y787576D01*
X1060458Y787569D01*
X1060488Y787551D01*
X1060848Y787492D01*
X1061205Y787421D01*
X1061238Y787428D01*
X1061273Y787422D01*
X1061535Y787483D01*
X1062194Y787210D01*
X1063786D01*
X1065256Y787819D01*
X1066381Y788944D01*
X1066990Y790414D01*
Y792006D01*
X1066381Y793476D01*
X1065256Y794601D01*
X1063786Y795210D01*
X1062194D01*
X1061535Y794937D01*
X1061273Y794998D01*
X1061238Y794993D01*
X1061205Y794999D01*
X1060848Y794928D01*
X1060488Y794869D01*
X1060458Y794851D01*
X1060424Y794844D01*
X1060121Y794641D01*
X1059812Y794449D01*
X1059725Y794369D01*
X1059705Y794352D01*
X1059683Y794338D01*
X1059656Y794324D01*
X1059620Y794309D01*
X1059571Y794293D01*
X1059507Y794277D01*
X1059423Y794264D01*
X1059321Y794254D01*
X1059137Y794248D01*
X1058779Y794166D01*
X1058455Y794101D01*
X1058126Y794167D01*
X1057763Y794249D01*
X1057440Y794257D01*
X1057409Y794259D01*
X1057284Y794410D01*
X1057241Y794474D01*
Y797241D01*
X1045692D01*
X1045692Y785179D01*
X1044550Y784869D01*
X1018540D01*
X1017564Y784675D01*
X1016738Y784122D01*
X946159Y713544D01*
X944889Y714070D01*
Y717764D01*
X950715Y723590D01*
X950887Y723625D01*
X951250Y723685D01*
X951276Y723702D01*
X951307Y723708D01*
X951612Y723913D01*
X951924Y724107D01*
X952058Y724233D01*
X952137Y724299D01*
X952205Y724348D01*
X952262Y724382D01*
X952308Y724406D01*
X952344Y724420D01*
X952374Y724429D01*
X952399Y724435D01*
X952425Y724438D01*
X952543Y724442D01*
X952898Y724525D01*
X953255Y724596D01*
X953284Y724615D01*
X953318Y724623D01*
X953615Y724836D01*
X953917Y725038D01*
X953936Y725067D01*
X953964Y725087D01*
X954106Y725316D01*
X954766Y725589D01*
X955891Y726714D01*
X956500Y728184D01*
Y729776D01*
X955891Y731246D01*
X954766Y732371D01*
X953296Y732980D01*
X951704D01*
X950234Y732371D01*
X949109Y731246D01*
X948836Y730586D01*
X948607Y730444D01*
X948587Y730416D01*
X948558Y730397D01*
X948356Y730094D01*
X948143Y729798D01*
X948135Y729764D01*
X948116Y729735D01*
X948045Y729378D01*
X947962Y729023D01*
X947958Y728905D01*
X947955Y728879D01*
X947950Y728854D01*
X947941Y728824D01*
X947926Y728788D01*
X947903Y728742D01*
X947868Y728685D01*
X947819Y728617D01*
X947753Y728538D01*
X947627Y728404D01*
X947432Y728092D01*
X947228Y727787D01*
X947222Y727756D01*
X947205Y727730D01*
X947145Y727367D01*
X947110Y727195D01*
X941079Y721164D01*
X939809Y721690D01*
Y741680D01*
X939615Y742655D01*
X939062Y743482D01*
X786662Y895882D01*
X785835Y896435D01*
X784860Y896629D01*
X736134D01*
X734940Y896813D01*
X734940Y897899D01*
Y913812D01*
D02*
G37*
G36*
X925200Y866460D02*
X911200D01*
Y854240D01*
X911186Y854219D01*
X911023Y854043D01*
X910967Y853891D01*
X910877Y853756D01*
X910830Y853521D01*
X910747Y853297D01*
X910753Y853135D01*
X910722Y852976D01*
X910769Y852741D01*
X910778Y852502D01*
X910845Y852354D01*
X910877Y852195D01*
X911010Y851996D01*
X911110Y851779D01*
X911200Y851655D01*
Y851478D01*
X911145Y851248D01*
X910917Y850711D01*
X910510Y850004D01*
X909934Y849179D01*
X908166Y847093D01*
X907021Y845907D01*
X906815Y845587D01*
X906604Y845271D01*
X906600Y845253D01*
X906591Y845238D01*
X906523Y844863D01*
X906500Y844749D01*
X904186Y842434D01*
X903191Y840946D01*
X902842Y839190D01*
Y833040D01*
X902430D01*
Y823040D01*
X903462D01*
Y821690D01*
X903811Y819934D01*
X904806Y818446D01*
X906294Y817451D01*
X908050Y817102D01*
X909806Y817451D01*
X911294Y818446D01*
X912289Y819934D01*
X912638Y821690D01*
Y831230D01*
X912289Y832986D01*
X912018Y833391D01*
Y837290D01*
X912989Y838260D01*
X913084Y838279D01*
X913441Y838337D01*
X913474Y838356D01*
X913511Y838364D01*
X913811Y838565D01*
X914119Y838754D01*
X916445Y840916D01*
X917396Y841678D01*
X918244Y842270D01*
X918951Y842677D01*
X919488Y842905D01*
X919718Y842960D01*
X919895D01*
X920019Y842870D01*
X920236Y842770D01*
X920435Y842637D01*
X920594Y842605D01*
X920742Y842538D01*
X920981Y842529D01*
X921216Y842482D01*
X921375Y842513D01*
X921537Y842507D01*
X921761Y842590D01*
X921996Y842637D01*
X922131Y842727D01*
X922283Y842783D01*
X922459Y842946D01*
X922480Y842960D01*
X925200D01*
Y866460D01*
D02*
G37*
G36*
X1056460Y817280D02*
X1046460D01*
Y805780D01*
X1056460D01*
Y808221D01*
X1056534Y808332D01*
X1056660Y808483D01*
X1056666Y808483D01*
X1056983Y808492D01*
X1057345Y808574D01*
X1057710Y808646D01*
X1057733Y808661D01*
X1057759Y808667D01*
X1058063Y808882D01*
X1058211Y808981D01*
X1059187D01*
X1059333Y808884D01*
X1059632Y808670D01*
X1059662Y808663D01*
X1059688Y808646D01*
X1060049Y808574D01*
X1060407Y808492D01*
X1060591Y808486D01*
X1060694Y808476D01*
X1060777Y808463D01*
X1060841Y808447D01*
X1060890Y808431D01*
X1060926Y808416D01*
X1060953Y808402D01*
X1060975Y808388D01*
X1060995Y808372D01*
X1061082Y808291D01*
X1061391Y808099D01*
X1061694Y807896D01*
X1061728Y807889D01*
X1061758Y807871D01*
X1062118Y807812D01*
X1062475Y807741D01*
X1062508Y807747D01*
X1062543Y807742D01*
X1062805Y807803D01*
X1063464Y807530D01*
X1065056D01*
X1066526Y808139D01*
X1067651Y809264D01*
X1068260Y810734D01*
Y812326D01*
X1067651Y813796D01*
X1066526Y814921D01*
X1065056Y815530D01*
X1063464D01*
X1062805Y815257D01*
X1062543Y815318D01*
X1062508Y815312D01*
X1062475Y815319D01*
X1062118Y815248D01*
X1061758Y815189D01*
X1061728Y815171D01*
X1061694Y815164D01*
X1061391Y814961D01*
X1061082Y814769D01*
X1060995Y814688D01*
X1060975Y814672D01*
X1060953Y814658D01*
X1060926Y814644D01*
X1060890Y814629D01*
X1060841Y814613D01*
X1060777Y814597D01*
X1060693Y814584D01*
X1060591Y814574D01*
X1060407Y814568D01*
X1060049Y814486D01*
X1059688Y814414D01*
X1059662Y814397D01*
X1059632Y814390D01*
X1059333Y814176D01*
X1059187Y814079D01*
X1058211D01*
X1058063Y814178D01*
X1057759Y814393D01*
X1057733Y814399D01*
X1057710Y814414D01*
X1057345Y814486D01*
X1056983Y814568D01*
X1056666Y814577D01*
X1056660Y814577D01*
X1056534Y814728D01*
X1056460Y814839D01*
Y817280D01*
D02*
G37*
G36*
X762000Y938038D02*
X679975D01*
X678219Y937689D01*
X676731Y936694D01*
X661141Y921105D01*
X650630D01*
Y915430D01*
X650585Y915362D01*
X650421Y915185D01*
X650366Y915035D01*
X650276Y914901D01*
X650229Y914665D01*
X650146Y914439D01*
X650153Y914278D01*
X650121Y914121D01*
X650168Y913885D01*
X650178Y913644D01*
X650245Y913498D01*
X650276Y913341D01*
X650410Y913140D01*
X650511Y912921D01*
X650630Y912758D01*
Y912701D01*
X650554Y912379D01*
X650329Y911844D01*
X649926Y911138D01*
X649353Y910316D01*
X647592Y908234D01*
X646451Y907052D01*
X646245Y906731D01*
X646034Y906416D01*
X646030Y906398D01*
X646021Y906383D01*
X645953Y906008D01*
X645930Y905894D01*
X617786Y877749D01*
X616791Y876261D01*
X616442Y874505D01*
Y753580D01*
X616791Y751824D01*
X617786Y750336D01*
X639327Y728794D01*
X639327Y728793D01*
X639398Y728567D01*
X639432Y728332D01*
X639516Y728191D01*
X639566Y728034D01*
X639718Y727852D01*
X639839Y727648D01*
X640519Y726893D01*
X640956Y726269D01*
X641234Y725713D01*
X641382Y725220D01*
X641427Y724770D01*
X641382Y724320D01*
X641234Y723828D01*
X640956Y723271D01*
X640519Y722647D01*
X639839Y721891D01*
X639718Y721688D01*
X639566Y721506D01*
X639516Y721349D01*
X639432Y721208D01*
X639398Y720973D01*
X639327Y720747D01*
X639327Y720746D01*
X627946Y709364D01*
X626951Y707876D01*
X626602Y706120D01*
Y610003D01*
X626951Y608247D01*
X627946Y606758D01*
X645930Y588774D01*
X645949Y588678D01*
X646007Y588321D01*
X646027Y588289D01*
X646034Y588252D01*
X646235Y587951D01*
X646424Y587644D01*
X648586Y585318D01*
X649348Y584366D01*
X649940Y583519D01*
X650347Y582811D01*
X650575Y582274D01*
X650630Y582044D01*
Y581868D01*
X650540Y581744D01*
X650440Y581526D01*
X650307Y581327D01*
X650275Y581168D01*
X650208Y581021D01*
X650199Y580782D01*
X650152Y580547D01*
X650183Y580388D01*
X650177Y580226D01*
X650260Y580001D01*
X650307Y579766D01*
X650397Y579632D01*
X650453Y579479D01*
X650616Y579304D01*
X650630Y579283D01*
Y573563D01*
X656305D01*
X656373Y573517D01*
X656550Y573354D01*
X656700Y573298D01*
X656834Y573209D01*
X657070Y573162D01*
X657296Y573079D01*
X657457Y573085D01*
X657614Y573054D01*
X657850Y573101D01*
X658091Y573110D01*
X658237Y573178D01*
X658395Y573209D01*
X658595Y573343D01*
X658814Y573444D01*
X658977Y573563D01*
X659034D01*
X659357Y573487D01*
X659891Y573261D01*
X660597Y572858D01*
X661419Y572286D01*
X663501Y570525D01*
X664683Y569383D01*
X665004Y569177D01*
X665319Y568966D01*
X665337Y568963D01*
X665352Y568953D01*
X665727Y568885D01*
X665841Y568863D01*
X673592Y561112D01*
Y421001D01*
X663979Y411388D01*
X661893D01*
X661802Y411448D01*
X661499Y411663D01*
X661472Y411669D01*
X661450Y411684D01*
X661086Y411756D01*
X660723Y411838D01*
X659639Y411867D01*
X658755Y411945D01*
X658026Y412065D01*
X657461Y412217D01*
X657067Y412377D01*
X656838Y412516D01*
X656742Y412605D01*
X656717Y412643D01*
X656702Y412684D01*
X656667Y413014D01*
X656580Y413294D01*
X656523Y413580D01*
X656463Y413671D01*
X656430Y413774D01*
X656243Y413999D01*
X656200Y414064D01*
Y415300D01*
X639200D01*
Y398300D01*
X656200D01*
Y399536D01*
X656243Y399601D01*
X656430Y399826D01*
X656463Y399929D01*
X656523Y400020D01*
X656580Y400306D01*
X656667Y400586D01*
X656702Y400916D01*
X656717Y400957D01*
X656742Y400995D01*
X656838Y401084D01*
X657067Y401223D01*
X657461Y401383D01*
X658026Y401535D01*
X658755Y401656D01*
X659640Y401733D01*
X660723Y401762D01*
X661086Y401844D01*
X661450Y401916D01*
X661472Y401931D01*
X661499Y401937D01*
X661803Y402152D01*
X661893Y402212D01*
X665880D01*
X667636Y402561D01*
X669124Y403556D01*
X681424Y415856D01*
X682419Y417344D01*
X682768Y419100D01*
Y563013D01*
X682419Y564768D01*
X681424Y566257D01*
X672330Y575351D01*
X672311Y575447D01*
X672254Y575803D01*
X672234Y575836D01*
X672226Y575873D01*
X672026Y576174D01*
X671836Y576481D01*
X669681Y578801D01*
X668922Y579750D01*
X668334Y580596D01*
X667931Y581301D01*
X667706Y581836D01*
X667630Y582159D01*
Y582216D01*
X667749Y582379D01*
X667850Y582598D01*
X667983Y582798D01*
X668015Y582956D01*
X668082Y583101D01*
X668092Y583342D01*
X668139Y583578D01*
X668107Y583736D01*
X668114Y583896D01*
X668030Y584122D01*
X667983Y584359D01*
X667894Y584492D01*
X667839Y584643D01*
X667675Y584820D01*
X667630Y584888D01*
Y590563D01*
X661910D01*
X661889Y590577D01*
X661713Y590739D01*
X661561Y590796D01*
X661426Y590886D01*
X661191Y590932D01*
X660967Y591015D01*
X660805Y591009D01*
X660646Y591041D01*
X660411Y590994D01*
X660172Y590985D01*
X660024Y590917D01*
X659865Y590886D01*
X659666Y590752D01*
X659449Y590653D01*
X659325Y590563D01*
X659148D01*
X658918Y590618D01*
X658381Y590846D01*
X657674Y591252D01*
X656849Y591828D01*
X654762Y593597D01*
X653577Y594742D01*
X653257Y594948D01*
X652941Y595159D01*
X652923Y595162D01*
X652908Y595172D01*
X652533Y595240D01*
X652419Y595262D01*
X635778Y611903D01*
Y704220D01*
X647101Y715543D01*
X647413Y715570D01*
X647479Y715605D01*
X647552Y715617D01*
X647830Y715788D01*
X648119Y715939D01*
X648166Y715996D01*
X648229Y716035D01*
X649040Y716789D01*
X649819Y717413D01*
X650622Y717958D01*
X651449Y718428D01*
X652303Y718824D01*
X653187Y719148D01*
X654103Y719400D01*
X655057Y719582D01*
X656049Y719692D01*
X657156Y719732D01*
X657508Y719815D01*
X657863Y719886D01*
X657894Y719907D01*
X657930Y719915D01*
X658223Y720127D01*
X658306Y720182D01*
X704532D01*
X704622Y720122D01*
X704925Y719908D01*
X704952Y719901D01*
X704975Y719886D01*
X705339Y719814D01*
X705701Y719732D01*
X706358Y719714D01*
X706914Y719667D01*
X707423Y719592D01*
X707886Y719491D01*
X708303Y719365D01*
X708677Y719219D01*
X709012Y719053D01*
X709311Y718869D01*
X709580Y718666D01*
X709897Y718373D01*
X710202Y718185D01*
X710501Y717986D01*
X710540Y717978D01*
X710575Y717957D01*
X710930Y717901D01*
X711281Y717831D01*
X711294Y717833D01*
X712999Y716849D01*
X715161Y716270D01*
X717399D01*
X719561Y716849D01*
X721499Y717968D01*
X723082Y719551D01*
X724201Y721489D01*
X724780Y723651D01*
Y725889D01*
X724201Y728051D01*
X723082Y729989D01*
X721499Y731572D01*
X719561Y732691D01*
X717399Y733270D01*
X715161D01*
X712999Y732691D01*
X711294Y731706D01*
X711281Y731709D01*
X710930Y731639D01*
X710575Y731583D01*
X710540Y731562D01*
X710501Y731554D01*
X710202Y731355D01*
X709897Y731167D01*
X709580Y730874D01*
X709311Y730671D01*
X709012Y730486D01*
X708677Y730321D01*
X708304Y730174D01*
X707886Y730049D01*
X707423Y729948D01*
X706914Y729873D01*
X706358Y729826D01*
X705701Y729809D01*
X705339Y729726D01*
X704975Y729654D01*
X704952Y729639D01*
X704925Y729633D01*
X704622Y729418D01*
X704532Y729358D01*
X658306D01*
X658223Y729413D01*
X657930Y729625D01*
X657894Y729633D01*
X657863Y729654D01*
X657508Y729725D01*
X657156Y729808D01*
X656049Y729848D01*
X655057Y729958D01*
X654104Y730139D01*
X653187Y730392D01*
X652303Y730716D01*
X651449Y731112D01*
X650622Y731582D01*
X649819Y732127D01*
X649040Y732751D01*
X648229Y733505D01*
X648166Y733544D01*
X648119Y733601D01*
X647830Y733752D01*
X647552Y733923D01*
X647479Y733935D01*
X647413Y733970D01*
X647101Y733997D01*
X625618Y755480D01*
Y872605D01*
X652419Y899405D01*
X652514Y899424D01*
X652871Y899481D01*
X652903Y899501D01*
X652941Y899509D01*
X653241Y899709D01*
X653548Y899899D01*
X655869Y902054D01*
X656818Y902813D01*
X657663Y903401D01*
X658369Y903804D01*
X658904Y904029D01*
X659226Y904105D01*
X659283D01*
X659446Y903986D01*
X659665Y903885D01*
X659865Y903752D01*
X660023Y903720D01*
X660169Y903653D01*
X660409Y903643D01*
X660646Y903596D01*
X660803Y903628D01*
X660964Y903621D01*
X661190Y903705D01*
X661426Y903752D01*
X661560Y903841D01*
X661710Y903896D01*
X661887Y904060D01*
X661955Y904105D01*
X667630D01*
Y914616D01*
X681875Y928862D01*
X702976D01*
X703316Y927592D01*
X702142Y926914D01*
X700839Y925611D01*
X699917Y924014D01*
X699440Y922234D01*
Y920391D01*
X699917Y918611D01*
X700839Y917014D01*
X702142Y915711D01*
X703738Y914790D01*
X705518Y914313D01*
X707362D01*
X709142Y914790D01*
X710738Y915711D01*
X712041Y917014D01*
X712963Y918611D01*
X713440Y920391D01*
Y922234D01*
X712963Y924014D01*
X712041Y925611D01*
X710738Y926914D01*
X709564Y927592D01*
X709904Y928862D01*
X760099D01*
X888296Y800666D01*
X889784Y799671D01*
X891540Y799322D01*
X932180D01*
X933936Y799671D01*
X935424Y800666D01*
X944314Y809556D01*
X945309Y811044D01*
X945658Y812800D01*
Y857250D01*
X945309Y859006D01*
X944314Y860494D01*
X942826Y861489D01*
X941070Y861838D01*
X939314Y861489D01*
X937826Y860494D01*
X936831Y859006D01*
X936482Y857250D01*
Y814700D01*
X930279Y808498D01*
X893440D01*
X765244Y936694D01*
X763756Y937689D01*
X762000Y938038D01*
D02*
G37*
G36*
X1029210Y833520D02*
X1014710D01*
Y820020D01*
X1029210D01*
Y822770D01*
X1030766D01*
X1031425Y823043D01*
X1031687Y822982D01*
X1031721Y822988D01*
X1031755Y822981D01*
X1032112Y823052D01*
X1032472Y823111D01*
X1032502Y823129D01*
X1032536Y823136D01*
X1032839Y823338D01*
X1033148Y823531D01*
X1033235Y823612D01*
X1033255Y823627D01*
X1033277Y823642D01*
X1033304Y823656D01*
X1033340Y823671D01*
X1033389Y823687D01*
X1033453Y823703D01*
X1033537Y823717D01*
X1033639Y823726D01*
X1033823Y823732D01*
X1034181Y823814D01*
X1034542Y823886D01*
X1034568Y823903D01*
X1034598Y823910D01*
X1034898Y824124D01*
X1035043Y824221D01*
X1061934D01*
X1070601Y815554D01*
Y800093D01*
X1070504Y799947D01*
X1070290Y799648D01*
X1070283Y799618D01*
X1070266Y799592D01*
X1070194Y799231D01*
X1070112Y798873D01*
X1070106Y798689D01*
X1070097Y798586D01*
X1070083Y798503D01*
X1070067Y798439D01*
X1070051Y798390D01*
X1070036Y798354D01*
X1070022Y798327D01*
X1070008Y798305D01*
X1069992Y798285D01*
X1069911Y798198D01*
X1069718Y797889D01*
X1069516Y797586D01*
X1069509Y797552D01*
X1069491Y797522D01*
X1069432Y797162D01*
X1069361Y796805D01*
X1069368Y796771D01*
X1069362Y796737D01*
X1069423Y796475D01*
X1069150Y795816D01*
Y794224D01*
X1069759Y792754D01*
X1070884Y791629D01*
X1072354Y791020D01*
X1073946D01*
X1075416Y791629D01*
X1076541Y792754D01*
X1077150Y794224D01*
Y795816D01*
X1076877Y796475D01*
X1076938Y796737D01*
X1076933Y796771D01*
X1076939Y796805D01*
X1076868Y797162D01*
X1076809Y797522D01*
X1076791Y797552D01*
X1076784Y797586D01*
X1076581Y797889D01*
X1076389Y798198D01*
X1076309Y798285D01*
X1076292Y798305D01*
X1076278Y798327D01*
X1076264Y798354D01*
X1076249Y798390D01*
X1076233Y798439D01*
X1076217Y798503D01*
X1076204Y798587D01*
X1076194Y798689D01*
X1076188Y798873D01*
X1076106Y799231D01*
X1076034Y799592D01*
X1076017Y799618D01*
X1076010Y799648D01*
X1075796Y799948D01*
X1075699Y800093D01*
Y816610D01*
X1075505Y817585D01*
X1074952Y818412D01*
X1064792Y828572D01*
X1063966Y829125D01*
X1062990Y829319D01*
X1035043D01*
X1034897Y829416D01*
X1034598Y829630D01*
X1034568Y829637D01*
X1034542Y829654D01*
X1034181Y829726D01*
X1033823Y829808D01*
X1033639Y829814D01*
X1033536Y829824D01*
X1033454Y829837D01*
X1033389Y829853D01*
X1033340Y829869D01*
X1033304Y829884D01*
X1033277Y829898D01*
X1033255Y829912D01*
X1033235Y829929D01*
X1033148Y830009D01*
X1032839Y830201D01*
X1032536Y830404D01*
X1032502Y830411D01*
X1032472Y830429D01*
X1032112Y830488D01*
X1031755Y830559D01*
X1031721Y830553D01*
X1031687Y830558D01*
X1031425Y830497D01*
X1030766Y830770D01*
X1029210D01*
Y833520D01*
D02*
G37*
G36*
X905036Y790130D02*
X903444D01*
X901974Y789521D01*
X900849Y788396D01*
X900240Y786926D01*
Y785334D01*
X900849Y783864D01*
X901974Y782739D01*
X903444Y782130D01*
X905036D01*
X906506Y782739D01*
X907631Y783864D01*
X908240Y785334D01*
Y786926D01*
X907631Y788396D01*
X906506Y789521D01*
X905036Y790130D01*
D02*
G37*
G36*
X1058706Y773620D02*
X1057114D01*
X1056455Y773347D01*
X1056193Y773408D01*
X1056159Y773402D01*
X1056125Y773409D01*
X1055768Y773338D01*
X1055408Y773279D01*
X1055378Y773261D01*
X1055344Y773254D01*
X1055041Y773052D01*
X1054732Y772859D01*
X1054645Y772778D01*
X1054625Y772763D01*
X1054603Y772748D01*
X1054576Y772734D01*
X1054540Y772719D01*
X1054491Y772703D01*
X1054427Y772687D01*
X1054343Y772673D01*
X1054241Y772664D01*
X1054057Y772658D01*
X1053699Y772576D01*
X1053338Y772504D01*
X1053312Y772487D01*
X1053282Y772480D01*
X1052982Y772266D01*
X1052837Y772169D01*
X1025323D01*
X1024347Y771975D01*
X1023520Y771422D01*
X993878Y741780D01*
X993325Y740953D01*
X993131Y739977D01*
Y698493D01*
X993034Y698347D01*
X992820Y698048D01*
X992813Y698018D01*
X992796Y697992D01*
X992724Y697631D01*
X992642Y697273D01*
X992636Y697089D01*
X992626Y696986D01*
X992613Y696904D01*
X992597Y696839D01*
X992581Y696790D01*
X992566Y696754D01*
X992552Y696727D01*
X992538Y696705D01*
X992522Y696685D01*
X992441Y696598D01*
X992249Y696289D01*
X992046Y695986D01*
X992039Y695952D01*
X992021Y695922D01*
X991962Y695562D01*
X991891Y695205D01*
X991898Y695172D01*
X991892Y695137D01*
X991953Y694875D01*
X991680Y694216D01*
Y692624D01*
X992289Y691154D01*
X993414Y690029D01*
X994884Y689420D01*
X996476D01*
X997946Y690029D01*
X999071Y691154D01*
X999680Y692624D01*
Y694216D01*
X999407Y694875D01*
X999468Y695137D01*
X999463Y695172D01*
X999469Y695205D01*
X999398Y695562D01*
X999339Y695922D01*
X999321Y695952D01*
X999314Y695986D01*
X999111Y696289D01*
X998919Y696598D01*
X998839Y696685D01*
X998822Y696705D01*
X998808Y696727D01*
X998794Y696754D01*
X998779Y696790D01*
X998763Y696839D01*
X998747Y696903D01*
X998734Y696987D01*
X998724Y697089D01*
X998718Y697273D01*
X998636Y697631D01*
X998564Y697992D01*
X998547Y698018D01*
X998540Y698048D01*
X998326Y698347D01*
X998229Y698493D01*
Y738922D01*
X1026378Y767071D01*
X1052837D01*
X1052983Y766974D01*
X1053282Y766760D01*
X1053312Y766753D01*
X1053338Y766736D01*
X1053699Y766664D01*
X1054057Y766582D01*
X1054241Y766576D01*
X1054344Y766566D01*
X1054426Y766553D01*
X1054491Y766537D01*
X1054540Y766521D01*
X1054576Y766506D01*
X1054603Y766492D01*
X1054625Y766478D01*
X1054645Y766461D01*
X1054732Y766381D01*
X1055041Y766189D01*
X1055344Y765986D01*
X1055378Y765979D01*
X1055408Y765961D01*
X1055768Y765902D01*
X1056125Y765831D01*
X1056159Y765837D01*
X1056193Y765832D01*
X1056455Y765893D01*
X1057114Y765620D01*
X1058706D01*
X1060176Y766229D01*
X1061301Y767354D01*
X1061910Y768824D01*
Y770416D01*
X1061301Y771886D01*
X1060176Y773011D01*
X1058706Y773620D01*
D02*
G37*
G36*
X1077756Y772350D02*
X1076164D01*
X1074694Y771741D01*
X1073569Y770616D01*
X1072960Y769146D01*
Y767554D01*
X1073569Y766084D01*
X1074694Y764959D01*
X1076164Y764350D01*
X1077756D01*
X1079226Y764959D01*
X1080351Y766084D01*
X1080960Y767554D01*
Y769146D01*
X1080351Y770616D01*
X1079226Y771741D01*
X1077756Y772350D01*
D02*
G37*
G36*
X1067200Y753910D02*
X1053700D01*
Y741410D01*
X1062683D01*
X1063264Y740829D01*
X1063624Y740680D01*
X1063371Y739410D01*
X1053700D01*
Y726910D01*
X1067200D01*
Y731732D01*
X1067796Y731979D01*
X1068921Y733104D01*
X1069530Y734574D01*
Y736166D01*
X1068921Y737636D01*
X1067796Y738761D01*
X1067200Y739008D01*
X1067200Y739410D01*
X1067318Y740631D01*
X1067796Y740829D01*
X1068921Y741954D01*
X1069530Y743424D01*
Y745016D01*
X1068921Y746486D01*
X1067796Y747611D01*
X1067200Y747858D01*
Y753910D01*
D02*
G37*
G36*
X976317Y724370D02*
X974726D01*
X973256Y723761D01*
X972130Y722636D01*
X971522Y721166D01*
Y719574D01*
X971584Y719424D01*
X971512Y719242D01*
X971512Y719215D01*
X971503Y719189D01*
X971518Y718819D01*
X971524Y718447D01*
X971535Y718421D01*
X971536Y718394D01*
X971692Y718057D01*
X971840Y717716D01*
X971915Y717607D01*
X971946Y717555D01*
X971974Y717497D01*
X972001Y717432D01*
X972026Y717357D01*
X972049Y717271D01*
X972068Y717172D01*
X972083Y717059D01*
X972093Y716931D01*
X972098Y716737D01*
X972143Y716540D01*
X972148Y716337D01*
X972229Y716155D01*
X972273Y715961D01*
X972390Y715795D01*
X972473Y715610D01*
X972588Y715501D01*
Y706953D01*
X968090Y702455D01*
X968030Y702456D01*
X967719Y702471D01*
X967663Y702495D01*
X967406Y702496D01*
X965996Y703080D01*
X964404D01*
X962934Y702471D01*
X961809Y701346D01*
X961200Y699876D01*
Y698284D01*
X961809Y696814D01*
X962934Y695689D01*
X964404Y695080D01*
X965996D01*
X967466Y695689D01*
X968086Y696309D01*
X968182Y696347D01*
X968525Y696369D01*
X968665Y696370D01*
X969046Y696449D01*
X969429Y696525D01*
X969436Y696530D01*
X969444Y696531D01*
X969767Y696750D01*
X970091Y696967D01*
X970096Y696974D01*
X970102Y696979D01*
X970317Y697305D01*
X970533Y697629D01*
X970535Y697637D01*
X970539Y697644D01*
X970551Y697706D01*
X976470Y703625D01*
X977049Y703330D01*
X977517Y702876D01*
X977484Y702711D01*
X977402Y702353D01*
X977396Y702169D01*
X977386Y702066D01*
X977373Y701983D01*
X977357Y701919D01*
X977341Y701870D01*
X977326Y701834D01*
X977312Y701807D01*
X977298Y701785D01*
X977281Y701765D01*
X977201Y701678D01*
X977009Y701369D01*
X976806Y701066D01*
X976799Y701032D01*
X976781Y701002D01*
X976722Y700642D01*
X976651Y700285D01*
X976657Y700251D01*
X976652Y700217D01*
X976713Y699955D01*
X976440Y699296D01*
Y697704D01*
X977049Y696234D01*
X978174Y695109D01*
X979644Y694500D01*
X981236D01*
X982706Y695109D01*
X983831Y696234D01*
X984440Y697704D01*
Y699296D01*
X984167Y699955D01*
X984228Y700217D01*
X984222Y700251D01*
X984229Y700285D01*
X984158Y700642D01*
X984099Y701002D01*
X984081Y701032D01*
X984074Y701066D01*
X983872Y701369D01*
X983679Y701678D01*
X983598Y701765D01*
X983583Y701785D01*
X983568Y701807D01*
X983554Y701834D01*
X983539Y701870D01*
X983523Y701919D01*
X983507Y701983D01*
X983493Y702067D01*
X983484Y702169D01*
X983478Y702353D01*
X983396Y702711D01*
X983324Y703072D01*
X983307Y703098D01*
X983300Y703128D01*
X983086Y703428D01*
X982989Y703573D01*
Y704052D01*
X983336Y705237D01*
X983539Y705310D01*
X983752Y705344D01*
X983910Y705442D01*
X984085Y705505D01*
X984245Y705650D01*
X984428Y705763D01*
X984556Y705883D01*
X984616Y705931D01*
X984934Y705937D01*
X985287Y705928D01*
X985331Y705944D01*
X985378Y705945D01*
X985701Y706086D01*
X986030Y706212D01*
X986064Y706245D01*
X986107Y706263D01*
X986210Y706370D01*
X986316D01*
X987786Y706979D01*
X988911Y708104D01*
X989520Y709574D01*
Y711166D01*
X988911Y712636D01*
X987786Y713761D01*
X986316Y714370D01*
X984724D01*
X983254Y713761D01*
X982204Y712711D01*
X982030Y712649D01*
X982012Y712632D01*
X981989Y712624D01*
X981718Y712366D01*
X981440Y712115D01*
X981430Y712093D01*
X981412Y712076D01*
X981259Y711734D01*
X981099Y711396D01*
X981066Y711265D01*
X981044Y711197D01*
X981015Y711125D01*
X980979Y711048D01*
X980934Y710966D01*
X980879Y710877D01*
X980827Y710804D01*
X980623Y710558D01*
X980502Y710432D01*
X980433Y710323D01*
X980338Y710236D01*
X980221Y709990D01*
X980075Y709760D01*
X980053Y709633D01*
X979998Y709517D01*
X979984Y709245D01*
X979979Y709216D01*
X978956Y708192D01*
X977701Y708636D01*
X977686Y708649D01*
Y715174D01*
X977862Y715360D01*
X977912Y715491D01*
X977993Y715604D01*
X978053Y715859D01*
X978147Y716104D01*
X978143Y716243D01*
X978175Y716379D01*
X978181Y716556D01*
X978189Y716639D01*
X978200Y716694D01*
X978204Y716708D01*
X978246Y716741D01*
X978476Y717013D01*
X978717Y717276D01*
X978732Y717316D01*
X978760Y717349D01*
X978868Y717688D01*
X978991Y718023D01*
X978989Y718066D01*
X979002Y718107D01*
X978987Y718285D01*
X979521Y719574D01*
Y721166D01*
X978913Y722636D01*
X977787Y723761D01*
X976317Y724370D01*
D02*
G37*
G36*
X1080296Y760920D02*
X1078704D01*
X1077234Y760311D01*
X1076109Y759186D01*
X1075500Y757716D01*
Y756124D01*
X1075773Y755465D01*
X1075712Y755203D01*
X1075717Y755169D01*
X1075711Y755135D01*
X1075782Y754778D01*
X1075841Y754418D01*
X1075859Y754388D01*
X1075866Y754354D01*
X1076068Y754051D01*
X1076261Y753742D01*
X1076341Y753655D01*
X1076357Y753635D01*
X1076372Y753613D01*
X1076386Y753586D01*
X1076401Y753550D01*
X1076417Y753501D01*
X1076433Y753437D01*
X1076447Y753353D01*
X1076456Y753251D01*
X1076462Y753067D01*
X1076544Y752709D01*
X1076616Y752348D01*
X1076633Y752322D01*
X1076640Y752292D01*
X1076854Y751992D01*
X1076951Y751847D01*
Y725170D01*
X1077145Y724194D01*
X1077698Y723368D01*
X1101383Y699682D01*
X1100897Y698509D01*
X1079714D01*
X1079678Y698717D01*
X1079666Y698736D01*
X1079661Y698757D01*
X1079570Y698894D01*
Y704770D01*
X1070070D01*
Y697355D01*
X1070029Y697306D01*
X1069997Y697202D01*
X1069936Y697111D01*
X1069879Y696825D01*
X1069792Y696547D01*
X1069802Y696438D01*
X1069781Y696331D01*
X1069838Y696045D01*
X1069864Y695754D01*
X1069915Y695658D01*
X1069936Y695551D01*
X1070070Y695350D01*
Y694770D01*
X1070556D01*
X1070621Y694727D01*
X1070845Y694540D01*
X1070949Y694508D01*
X1071040Y694447D01*
X1071189Y694417D01*
X1071189Y694416D01*
X1071235Y694136D01*
X1071268Y693761D01*
X1071282Y693247D01*
X1071364Y692885D01*
X1071436Y692520D01*
X1071451Y692498D01*
X1071457Y692471D01*
X1071672Y692168D01*
X1071761Y692033D01*
Y687187D01*
X1071672Y687052D01*
X1071457Y686749D01*
X1071451Y686723D01*
X1071436Y686700D01*
X1071364Y686335D01*
X1071282Y685973D01*
X1071268Y685466D01*
X1071236Y685097D01*
X1071192Y684834D01*
X1071040Y684803D01*
X1070950Y684743D01*
X1070847Y684711D01*
X1070622Y684524D01*
X1070511Y684450D01*
X1070070D01*
Y683900D01*
X1069936Y683700D01*
X1069915Y683594D01*
X1069865Y683498D01*
X1069838Y683207D01*
X1069781Y682919D01*
X1069802Y682814D01*
X1069792Y682706D01*
X1069879Y682426D01*
X1069936Y682139D01*
X1069996Y682049D01*
X1070028Y681946D01*
X1070070Y681896D01*
Y674450D01*
X1079570D01*
Y681896D01*
X1079612Y681946D01*
X1079644Y682049D01*
X1079704Y682139D01*
X1079761Y682426D01*
X1079848Y682706D01*
X1079838Y682814D01*
X1079859Y682919D01*
X1079802Y683207D01*
X1079775Y683498D01*
X1079725Y683594D01*
X1079704Y683700D01*
X1079570Y683900D01*
Y684450D01*
X1079129D01*
X1079018Y684524D01*
X1078793Y684711D01*
X1078690Y684743D01*
X1078600Y684803D01*
X1078448Y684834D01*
X1078404Y685097D01*
X1078372Y685466D01*
X1078359Y685973D01*
X1078277Y686335D01*
X1078204Y686700D01*
X1078189Y686723D01*
X1078183Y686749D01*
X1077968Y687052D01*
X1077879Y687187D01*
Y692033D01*
X1077968Y692168D01*
X1078183Y692471D01*
X1078189Y692498D01*
X1078204Y692520D01*
X1078630Y693411D01*
X1081194D01*
X1082043Y692141D01*
X1081850Y691676D01*
Y690084D01*
X1082459Y688614D01*
X1083584Y687489D01*
X1085054Y686880D01*
X1086646D01*
X1088116Y687489D01*
X1089241Y688614D01*
X1089850Y690084D01*
Y691676D01*
X1089657Y692141D01*
X1090506Y693411D01*
X1103637D01*
X1103783Y693314D01*
X1104082Y693100D01*
X1104112Y693093D01*
X1104138Y693076D01*
X1104499Y693004D01*
X1104857Y692922D01*
X1105041Y692916D01*
X1105144Y692906D01*
X1105227Y692893D01*
X1105291Y692877D01*
X1105340Y692861D01*
X1105376Y692846D01*
X1105403Y692832D01*
X1105425Y692818D01*
X1105445Y692802D01*
X1105532Y692721D01*
X1105841Y692529D01*
X1106144Y692326D01*
X1106178Y692319D01*
X1106208Y692301D01*
X1106568Y692242D01*
X1106925Y692171D01*
X1106958Y692178D01*
X1106993Y692172D01*
X1107255Y692233D01*
X1107914Y691960D01*
X1109506D01*
X1110976Y692569D01*
X1111250Y692843D01*
Y692843D01*
Y692843D01*
X1112710Y694303D01*
Y697617D01*
X1111250Y699077D01*
Y699077D01*
Y699077D01*
X1110976Y699351D01*
X1110316Y699624D01*
X1110174Y699853D01*
X1110146Y699873D01*
X1110127Y699902D01*
X1109824Y700104D01*
X1109528Y700317D01*
X1109494Y700325D01*
X1109465Y700344D01*
X1109108Y700415D01*
X1108753Y700498D01*
X1108635Y700502D01*
X1108609Y700505D01*
X1108584Y700510D01*
X1108555Y700519D01*
X1108518Y700534D01*
X1108472Y700557D01*
X1108415Y700592D01*
X1108347Y700641D01*
X1108268Y700707D01*
X1108134Y700833D01*
X1107822Y701028D01*
X1107517Y701232D01*
X1107486Y701238D01*
X1107460Y701255D01*
X1107097Y701315D01*
X1106925Y701350D01*
X1082049Y726226D01*
Y751847D01*
X1082146Y751993D01*
X1082360Y752292D01*
X1082367Y752322D01*
X1082384Y752348D01*
X1082456Y752709D01*
X1082538Y753067D01*
X1082544Y753251D01*
X1082553Y753354D01*
X1082567Y753437D01*
X1082583Y753501D01*
X1082599Y753550D01*
X1082614Y753586D01*
X1082628Y753613D01*
X1082642Y753635D01*
X1082658Y753655D01*
X1082739Y753742D01*
X1082932Y754051D01*
X1083134Y754354D01*
X1083141Y754388D01*
X1083159Y754418D01*
X1083218Y754778D01*
X1083289Y755135D01*
X1083282Y755169D01*
X1083288Y755203D01*
X1083227Y755465D01*
X1083500Y756124D01*
Y757716D01*
X1082891Y759186D01*
X1081766Y760311D01*
X1080296Y760920D01*
D02*
G37*
G36*
X724780Y708270D02*
X707780D01*
Y691270D01*
X724780D01*
Y708270D01*
D02*
G37*
G36*
X1033050Y683180D02*
X1023550D01*
Y682450D01*
X1023146Y682180D01*
X1021554D01*
X1020084Y681571D01*
X1018959Y680446D01*
X1018350Y678976D01*
Y677384D01*
X1018959Y675914D01*
X1020084Y674789D01*
X1021554Y674180D01*
X1023146D01*
X1023550Y673910D01*
Y673180D01*
X1033050D01*
Y683180D01*
D02*
G37*
G36*
X1033450Y663637D02*
X1023950D01*
Y661274D01*
X1023894Y661251D01*
X1022769Y660126D01*
X1022160Y658656D01*
Y657064D01*
X1022769Y655594D01*
X1023894Y654469D01*
X1023950Y654446D01*
Y653637D01*
X1033450D01*
Y663637D01*
D02*
G37*
G36*
X660249Y665563D02*
X658011D01*
X655849Y664983D01*
X653911Y663864D01*
X652328Y662282D01*
X651209Y660343D01*
X650630Y658182D01*
Y655944D01*
X651209Y653782D01*
X652328Y651843D01*
X653911Y650261D01*
X655849Y649142D01*
X658011Y648563D01*
X660249D01*
X662411Y649142D01*
X664349Y650261D01*
X665932Y651843D01*
X667051Y653782D01*
X667630Y655944D01*
Y658182D01*
X667051Y660343D01*
X665932Y662282D01*
X664349Y663864D01*
X662411Y664983D01*
X660249Y665563D01*
D02*
G37*
G36*
X1078300Y664130D02*
X1068800D01*
Y654130D01*
X1070160D01*
X1070572Y653622D01*
X1070822Y652860D01*
X1070786Y652806D01*
X1070779Y652772D01*
X1070761Y652742D01*
X1070702Y652382D01*
X1070631Y652025D01*
X1070638Y651992D01*
X1070632Y651957D01*
X1070693Y651695D01*
X1070420Y651036D01*
Y649444D01*
X1071029Y647974D01*
X1072154Y646849D01*
X1073624Y646240D01*
X1075216D01*
X1076686Y646849D01*
X1077811Y647974D01*
X1078420Y649444D01*
Y651036D01*
X1078147Y651695D01*
X1078208Y651957D01*
X1078203Y651992D01*
X1078209Y652025D01*
X1078138Y652382D01*
X1078079Y652742D01*
X1078061Y652772D01*
X1078054Y652806D01*
X1078018Y652860D01*
X1078300Y654130D01*
D01*
X1078398Y655359D01*
X1078402Y655405D01*
X1078459Y655691D01*
X1078438Y655798D01*
X1078448Y655908D01*
X1078361Y656186D01*
X1078304Y656471D01*
X1078300Y656477D01*
Y664130D01*
D02*
G37*
G36*
X660249Y690563D02*
X658011D01*
X655849Y689983D01*
X653911Y688864D01*
X652328Y687282D01*
X651209Y685343D01*
X650630Y683182D01*
Y680944D01*
X651209Y678782D01*
X652328Y676843D01*
X653911Y675261D01*
X655849Y674142D01*
X658011Y673563D01*
X660249D01*
X660953Y673751D01*
X692788Y641916D01*
X694277Y640921D01*
X696032Y640572D01*
X750570D01*
X752326Y640921D01*
X753814Y641916D01*
X761434Y649536D01*
X762429Y651024D01*
X762778Y652780D01*
X762429Y654536D01*
X761434Y656024D01*
X759946Y657019D01*
X758190Y657368D01*
X756434Y657019D01*
X754946Y656024D01*
X748670Y649748D01*
X725644D01*
X724960Y651018D01*
X725360Y651984D01*
Y653576D01*
X724751Y655046D01*
X723626Y656171D01*
X722156Y656780D01*
X720564D01*
X719094Y656171D01*
X717969Y655046D01*
X717360Y653576D01*
Y651984D01*
X717760Y651018D01*
X717076Y649748D01*
X697933D01*
X667441Y680240D01*
X667630Y680944D01*
Y683182D01*
X667051Y685343D01*
X665932Y687282D01*
X664349Y688864D01*
X662411Y689983D01*
X660249Y690563D01*
D02*
G37*
G36*
X818400Y635920D02*
X807900D01*
Y633184D01*
X807857Y633120D01*
X807732Y632970D01*
X807701Y632967D01*
X807378Y632958D01*
X807015Y632877D01*
X806650Y632804D01*
X806628Y632789D01*
X806601Y632783D01*
X806298Y632569D01*
X806149Y632469D01*
X805173D01*
X805027Y632566D01*
X804728Y632780D01*
X804698Y632787D01*
X804672Y632804D01*
X804311Y632876D01*
X803953Y632958D01*
X803769Y632964D01*
X803666Y632974D01*
X803584Y632987D01*
X803519Y633003D01*
X803470Y633019D01*
X803434Y633034D01*
X803407Y633048D01*
X803385Y633062D01*
X803365Y633078D01*
X803278Y633159D01*
X802969Y633352D01*
X802666Y633554D01*
X802632Y633561D01*
X802602Y633579D01*
X802242Y633638D01*
X801885Y633709D01*
X801852Y633703D01*
X801817Y633708D01*
X801555Y633647D01*
X800896Y633920D01*
X799304D01*
X797834Y633311D01*
X796709Y632186D01*
X796100Y630716D01*
Y629124D01*
X796709Y627654D01*
X797834Y626529D01*
X799304Y625920D01*
X800896D01*
X801555Y626193D01*
X801817Y626132D01*
X801852Y626138D01*
X801885Y626131D01*
X802242Y626202D01*
X802602Y626261D01*
X802632Y626279D01*
X802666Y626286D01*
X802969Y626488D01*
X803278Y626681D01*
X803365Y626762D01*
X803385Y626777D01*
X803407Y626792D01*
X803434Y626806D01*
X803470Y626821D01*
X803519Y626837D01*
X803583Y626853D01*
X803667Y626866D01*
X803769Y626876D01*
X803953Y626882D01*
X804311Y626964D01*
X804672Y627036D01*
X804698Y627053D01*
X804728Y627060D01*
X805027Y627274D01*
X805173Y627371D01*
X806149D01*
X806298Y627271D01*
X806601Y627057D01*
X806628Y627051D01*
X806650Y627036D01*
X807015Y626963D01*
X807378Y626881D01*
X807701Y626873D01*
X807732Y626870D01*
X807857Y626720D01*
X807900Y626656D01*
Y623920D01*
X818400D01*
Y635920D01*
D02*
G37*
G36*
X758459Y635929D02*
X758146Y635866D01*
X757828Y635828D01*
X757758Y635789D01*
X757679Y635774D01*
X757413Y635596D01*
X757134Y635439D01*
X757119Y635420D01*
X747990D01*
Y624420D01*
X757119D01*
X757134Y624401D01*
X757413Y624244D01*
X757679Y624067D01*
X757758Y624051D01*
X757828Y624012D01*
X758146Y623974D01*
X758459Y623911D01*
X758538Y623927D01*
X758618Y623918D01*
X758926Y624004D01*
X759240Y624067D01*
X759307Y624111D01*
X759384Y624133D01*
X759635Y624331D01*
X759769Y624420D01*
X759990D01*
Y624605D01*
X760229Y624652D01*
X763399Y624872D01*
X764477Y624881D01*
X764858Y624960D01*
X765240Y625036D01*
X765247Y625041D01*
X765256Y625043D01*
X765578Y625262D01*
X765683Y625332D01*
X765810D01*
X767566Y625681D01*
X769054Y626676D01*
X770049Y628164D01*
X770398Y629920D01*
X770049Y631676D01*
X769054Y633164D01*
X767566Y634159D01*
X765810Y634508D01*
X765683D01*
X765586Y634573D01*
X765274Y634790D01*
X765255Y634794D01*
X765240Y634804D01*
X764867Y634878D01*
X764496Y634959D01*
X762388Y634997D01*
X760824Y635105D01*
X760291Y635176D01*
X759990Y635235D01*
Y635420D01*
X759769D01*
X759635Y635509D01*
X759384Y635707D01*
X759307Y635729D01*
X759240Y635774D01*
X758926Y635836D01*
X758618Y635923D01*
X758538Y635913D01*
X758459Y635929D01*
D02*
G37*
G36*
X660249Y640563D02*
X658011D01*
X655849Y639983D01*
X653911Y638864D01*
X652328Y637282D01*
X651209Y635343D01*
X650630Y633182D01*
Y630943D01*
X651209Y628782D01*
X652328Y626843D01*
X653911Y625261D01*
X655849Y624142D01*
X658011Y623563D01*
X660249D01*
X662411Y624142D01*
X664349Y625261D01*
X665932Y626843D01*
X667051Y628782D01*
X667630Y630943D01*
Y633182D01*
X667051Y635343D01*
X665932Y637282D01*
X664349Y638864D01*
X662411Y639983D01*
X660249Y640563D01*
D02*
G37*
G36*
X818400Y611790D02*
X807900D01*
Y609253D01*
X806630Y608727D01*
X806176Y609181D01*
X804706Y609790D01*
X803114D01*
X801644Y609181D01*
X800519Y608056D01*
X799910Y606586D01*
Y604994D01*
X800519Y603524D01*
X801644Y602399D01*
X803114Y601790D01*
X804706D01*
X806176Y602399D01*
X806630Y602853D01*
X807900Y602327D01*
Y599790D01*
X818400D01*
Y611790D01*
D02*
G37*
G36*
X757579Y611799D02*
X757266Y611736D01*
X756948Y611698D01*
X756878Y611659D01*
X756799Y611643D01*
X756533Y611466D01*
X756254Y611309D01*
X756239Y611290D01*
X747110D01*
Y600290D01*
X756239D01*
X756254Y600271D01*
X756533Y600114D01*
X756799Y599936D01*
X756878Y599921D01*
X756948Y599882D01*
X757266Y599844D01*
X757579Y599781D01*
X757658Y599797D01*
X757738Y599787D01*
X758046Y599874D01*
X758360Y599936D01*
X758427Y599981D01*
X758504Y600003D01*
X758755Y600201D01*
X758889Y600290D01*
X759110D01*
Y600475D01*
X759349Y600522D01*
X762519Y600742D01*
X763597Y600751D01*
X763978Y600830D01*
X764360Y600906D01*
X764367Y600911D01*
X764376Y600913D01*
X764698Y601132D01*
X764803Y601202D01*
X767080D01*
X768836Y601551D01*
X770324Y602546D01*
X771319Y604034D01*
X771668Y605790D01*
X771319Y607546D01*
X770324Y609034D01*
X768836Y610029D01*
X767080Y610378D01*
X764803D01*
X764706Y610443D01*
X764394Y610660D01*
X764375Y610664D01*
X764360Y610674D01*
X763987Y610748D01*
X763616Y610829D01*
X761508Y610867D01*
X759944Y610975D01*
X759411Y611045D01*
X759110Y611105D01*
Y611290D01*
X758889D01*
X758755Y611379D01*
X758504Y611577D01*
X758427Y611599D01*
X758360Y611643D01*
X758046Y611706D01*
X757738Y611792D01*
X757658Y611783D01*
X757579Y611799D01*
D02*
G37*
G36*
X660249Y615563D02*
X658011D01*
X655849Y614983D01*
X653911Y613864D01*
X652328Y612282D01*
X651209Y610343D01*
X650630Y608182D01*
Y605943D01*
X651209Y603782D01*
X652328Y601843D01*
X653911Y600261D01*
X655849Y599142D01*
X658011Y598563D01*
X660249D01*
X662411Y599142D01*
X664349Y600261D01*
X665932Y601843D01*
X667051Y603782D01*
X667630Y605943D01*
Y608182D01*
X667051Y610343D01*
X665932Y612282D01*
X664349Y613864D01*
X662411Y614983D01*
X660249Y615563D01*
D02*
G37*
G36*
X839470Y669299D02*
X819150D01*
X818175Y669105D01*
X817348Y668552D01*
X811348Y662552D01*
X810795Y661725D01*
X810601Y660750D01*
Y660531D01*
X810501Y660382D01*
X810287Y660079D01*
X810281Y660052D01*
X810266Y660030D01*
X810193Y659665D01*
X810111Y659302D01*
X810103Y658979D01*
X810100Y658948D01*
X809950Y658823D01*
X809886Y658780D01*
X807900D01*
Y657217D01*
X807246Y656780D01*
X805654D01*
X804184Y656171D01*
X803059Y655046D01*
X802450Y653576D01*
Y651984D01*
X803059Y650514D01*
X804184Y649389D01*
X805654Y648780D01*
X807246D01*
X807900Y648343D01*
Y646780D01*
X818400D01*
Y658780D01*
X816414D01*
X816350Y658823D01*
X816296Y658868D01*
X816186Y660182D01*
X820206Y664201D01*
X838414D01*
X873943Y628672D01*
X873348Y627675D01*
X873249Y627570D01*
X871694D01*
X870224Y626961D01*
X869382Y626119D01*
X855060D01*
X854085Y625925D01*
X853258Y625372D01*
X815545Y587660D01*
X807900D01*
Y583853D01*
X806630Y583327D01*
X806176Y583781D01*
X804706Y584390D01*
X803114D01*
X801644Y583781D01*
X800519Y582656D01*
X799910Y581186D01*
Y579594D01*
X800519Y578124D01*
X801644Y576999D01*
X803114Y576390D01*
X804706D01*
X806176Y576999D01*
X806630Y577453D01*
X807900Y576927D01*
Y575660D01*
X818400D01*
Y583323D01*
X818452Y583358D01*
X856116Y621021D01*
X869382D01*
X870224Y620179D01*
X871694Y619570D01*
X873286D01*
X874756Y620179D01*
X875881Y621304D01*
X876490Y622774D01*
Y624329D01*
X876595Y624428D01*
X877592Y625023D01*
X902438Y600178D01*
X903265Y599625D01*
X904240Y599431D01*
X906787D01*
X906933Y599334D01*
X907232Y599120D01*
X907262Y599113D01*
X907288Y599096D01*
X907649Y599024D01*
X908007Y598942D01*
X908191Y598936D01*
X908294Y598927D01*
X908376Y598913D01*
X908441Y598897D01*
X908490Y598881D01*
X908526Y598866D01*
X908553Y598852D01*
X908575Y598838D01*
X908595Y598821D01*
X908682Y598741D01*
X908991Y598549D01*
X909294Y598346D01*
X909328Y598339D01*
X909358Y598321D01*
X909718Y598262D01*
X910075Y598191D01*
X910108Y598198D01*
X910143Y598192D01*
X910405Y598253D01*
X911064Y597980D01*
X912656D01*
X914126Y598589D01*
X915251Y599714D01*
X915860Y601184D01*
Y602776D01*
X915251Y604246D01*
X914126Y605371D01*
X912656Y605980D01*
X911064D01*
X910405Y605707D01*
X910143Y605768D01*
X910108Y605762D01*
X910075Y605769D01*
X909718Y605698D01*
X909358Y605639D01*
X909328Y605621D01*
X909294Y605614D01*
X908991Y605411D01*
X908682Y605219D01*
X908595Y605139D01*
X908575Y605122D01*
X908553Y605108D01*
X908526Y605094D01*
X908490Y605079D01*
X908441Y605063D01*
X908377Y605047D01*
X908293Y605033D01*
X908191Y605024D01*
X908007Y605018D01*
X907649Y604936D01*
X907288Y604864D01*
X907262Y604847D01*
X907232Y604840D01*
X906933Y604626D01*
X906787Y604529D01*
X905296D01*
X841272Y668552D01*
X840445Y669105D01*
X839470Y669299D01*
D02*
G37*
G36*
X968081Y596679D02*
X968043Y596671D01*
X968006Y596677D01*
X962006Y596458D01*
X961771Y596402D01*
X961502Y596459D01*
X957045Y596513D01*
X956184Y596561D01*
X956038Y596577D01*
X955912Y596632D01*
X955692Y596636D01*
X955477Y596679D01*
X955298Y596643D01*
X955116Y596646D01*
X954912Y596566D01*
X954697Y596524D01*
X954545Y596422D01*
X954376Y596356D01*
X954218Y596203D01*
X954167Y596170D01*
X947008D01*
Y586670D01*
X954148D01*
X954396Y586517D01*
X954697Y586316D01*
X954734Y586309D01*
X954766Y586289D01*
X955123Y586232D01*
X955477Y586161D01*
X955514Y586169D01*
X955552Y586163D01*
X961552Y586382D01*
X961786Y586438D01*
X962056Y586381D01*
X966512Y586327D01*
X966534Y586325D01*
X966859Y586235D01*
X966870Y586231D01*
X967555Y585184D01*
X967562Y585143D01*
X967550Y584996D01*
Y583404D01*
X968159Y581934D01*
X969284Y580809D01*
X970754Y580200D01*
X972346D01*
X973816Y580809D01*
X974941Y581934D01*
X975550Y583404D01*
Y584996D01*
X975383Y585400D01*
X975733Y586226D01*
X976460Y586670D01*
X976550D01*
Y596170D01*
X969409D01*
X969161Y596323D01*
X968861Y596524D01*
X968824Y596531D01*
X968791Y596551D01*
X968435Y596608D01*
X968081Y596679D01*
D02*
G37*
G36*
X758459Y587669D02*
X758146Y587606D01*
X757828Y587568D01*
X757758Y587529D01*
X757679Y587514D01*
X757413Y587336D01*
X757134Y587179D01*
X757119Y587160D01*
X747990D01*
Y576160D01*
X757119D01*
X757134Y576141D01*
X757413Y575984D01*
X757679Y575807D01*
X757758Y575791D01*
X757828Y575752D01*
X758146Y575714D01*
X758459Y575651D01*
X758538Y575667D01*
X758618Y575658D01*
X758926Y575744D01*
X759240Y575807D01*
X759307Y575851D01*
X759384Y575873D01*
X759635Y576071D01*
X759769Y576160D01*
X759990D01*
Y576345D01*
X760229Y576392D01*
X763399Y576612D01*
X764477Y576621D01*
X764858Y576700D01*
X765240Y576776D01*
X765247Y576781D01*
X765256Y576783D01*
X765578Y577002D01*
X765683Y577072D01*
X767080D01*
X768836Y577421D01*
X770324Y578416D01*
X771319Y579904D01*
X771668Y581660D01*
X771319Y583416D01*
X770324Y584904D01*
X768836Y585899D01*
X767080Y586248D01*
X765683D01*
X765586Y586313D01*
X765274Y586530D01*
X765255Y586534D01*
X765240Y586544D01*
X764867Y586618D01*
X764496Y586699D01*
X762388Y586737D01*
X760824Y586845D01*
X760291Y586916D01*
X759990Y586975D01*
Y587160D01*
X759769D01*
X759635Y587249D01*
X759384Y587447D01*
X759307Y587469D01*
X759240Y587514D01*
X758926Y587576D01*
X758618Y587663D01*
X758538Y587653D01*
X758459Y587669D01*
D02*
G37*
G36*
X885986Y585660D02*
X884394D01*
X882924Y585051D01*
X881799Y583926D01*
X881190Y582456D01*
Y580864D01*
X881463Y580205D01*
X881402Y579943D01*
X881407Y579908D01*
X881401Y579875D01*
X881472Y579518D01*
X881531Y579158D01*
X881549Y579128D01*
X881556Y579094D01*
X881758Y578791D01*
X881951Y578482D01*
X882031Y578395D01*
X882048Y578375D01*
X882062Y578353D01*
X882076Y578326D01*
X882091Y578290D01*
X882107Y578241D01*
X882123Y578177D01*
X882137Y578093D01*
X882146Y577991D01*
X882152Y577807D01*
X882234Y577449D01*
X882271Y577266D01*
X873974Y568969D01*
X869231D01*
X869082Y569069D01*
X868779Y569283D01*
X868752Y569289D01*
X868730Y569304D01*
X868365Y569377D01*
X868002Y569459D01*
X867679Y569467D01*
X867648Y569469D01*
X867523Y569620D01*
X867480Y569684D01*
Y571420D01*
X857980D01*
Y561420D01*
X867480D01*
Y563156D01*
X867523Y563220D01*
X867648Y563371D01*
X867679Y563373D01*
X868002Y563382D01*
X868365Y563463D01*
X868730Y563536D01*
X868752Y563551D01*
X868779Y563557D01*
X869082Y563771D01*
X869231Y563871D01*
X875030D01*
X876005Y564065D01*
X876832Y564618D01*
X886992Y574778D01*
X887545Y575605D01*
X887739Y576580D01*
Y576587D01*
X887836Y576733D01*
X888050Y577032D01*
X888057Y577062D01*
X888074Y577088D01*
X888146Y577449D01*
X888228Y577807D01*
X888234Y577991D01*
X888243Y578094D01*
X888257Y578176D01*
X888273Y578241D01*
X888289Y578290D01*
X888304Y578326D01*
X888318Y578353D01*
X888332Y578375D01*
X888348Y578395D01*
X888429Y578482D01*
X888622Y578791D01*
X888824Y579094D01*
X888831Y579128D01*
X888849Y579158D01*
X888908Y579518D01*
X888979Y579875D01*
X888972Y579908D01*
X888978Y579943D01*
X888917Y580205D01*
X889190Y580864D01*
Y582456D01*
X888581Y583926D01*
X887456Y585051D01*
X885986Y585660D01*
D02*
G37*
G36*
X742990Y635420D02*
X730990D01*
Y627260D01*
X730976Y627238D01*
X730843Y627109D01*
X730757Y626911D01*
X730637Y626731D01*
X730600Y626549D01*
X730527Y626379D01*
X730524Y626163D01*
X730481Y625951D01*
X730518Y625769D01*
X730515Y625583D01*
X730594Y625382D01*
X730637Y625170D01*
X730740Y625016D01*
X730808Y624844D01*
X730958Y624688D01*
X730990Y624641D01*
Y624420D01*
X731211D01*
X731233Y624406D01*
X731362Y624272D01*
X731560Y624187D01*
X731576Y624176D01*
X731642Y623957D01*
X731732Y623506D01*
X731937Y620994D01*
X731951Y619924D01*
X732031Y619548D01*
X732106Y619170D01*
X732113Y619159D01*
X732116Y619146D01*
X732335Y618828D01*
X732402Y618727D01*
Y616983D01*
X732338Y616888D01*
X732122Y616578D01*
X732118Y616558D01*
X732106Y616540D01*
X732032Y616170D01*
X731951Y615802D01*
X731929Y614711D01*
X731866Y613802D01*
X731767Y613042D01*
X731640Y612442D01*
X731503Y612014D01*
X731393Y611784D01*
X731369Y611781D01*
X731119Y611695D01*
X730860Y611643D01*
X730746Y611567D01*
X730616Y611523D01*
X730418Y611348D01*
X730331Y611290D01*
X730110D01*
Y611077D01*
X730019Y610997D01*
X729903Y610759D01*
X729756Y610540D01*
X729730Y610405D01*
X729669Y610282D01*
X729653Y610019D01*
X729601Y609759D01*
X729628Y609625D01*
X729619Y609488D01*
X729705Y609238D01*
X729756Y608979D01*
X729833Y608865D01*
X729877Y608735D01*
X730052Y608537D01*
X730110Y608450D01*
Y603130D01*
X730052Y603043D01*
X729877Y602845D01*
X729833Y602715D01*
X729756Y602601D01*
X729705Y602342D01*
X729619Y602092D01*
X729628Y601955D01*
X729601Y601820D01*
X729653Y601562D01*
X729669Y601298D01*
X729730Y601175D01*
X729756Y601040D01*
X729903Y600821D01*
X730019Y600583D01*
X730110Y600504D01*
Y600290D01*
X730331D01*
X730418Y600232D01*
X730616Y600057D01*
X730746Y600013D01*
X730860Y599936D01*
X731119Y599885D01*
X731369Y599799D01*
X731393Y599796D01*
X731503Y599566D01*
X731640Y599138D01*
X731760Y598570D01*
X731929Y596840D01*
X731951Y595779D01*
X732032Y595410D01*
X732106Y595040D01*
X732118Y595022D01*
X732122Y595001D01*
X732338Y594692D01*
X732402Y594597D01*
Y592853D01*
X732335Y592752D01*
X732116Y592434D01*
X732113Y592421D01*
X732106Y592410D01*
X732031Y592033D01*
X731951Y591656D01*
X731937Y590565D01*
X731827Y588765D01*
X731742Y588124D01*
X731642Y587623D01*
X731576Y587404D01*
X731560Y587393D01*
X731362Y587308D01*
X731233Y587174D01*
X731211Y587160D01*
X730990D01*
Y586939D01*
X730958Y586892D01*
X730808Y586736D01*
X730740Y586564D01*
X730637Y586410D01*
X730594Y586198D01*
X730515Y585997D01*
X730518Y585811D01*
X730481Y585630D01*
X730524Y585417D01*
X730527Y585201D01*
X730600Y585031D01*
X730637Y584849D01*
X730757Y584669D01*
X730843Y584471D01*
X730976Y584342D01*
X730990Y584320D01*
Y579000D01*
X730976Y578978D01*
X730843Y578849D01*
X730757Y578651D01*
X730637Y578471D01*
X730600Y578289D01*
X730527Y578119D01*
X730524Y577903D01*
X730481Y577691D01*
X730518Y577509D01*
X730515Y577323D01*
X730594Y577122D01*
X730637Y576910D01*
X730740Y576756D01*
X730808Y576584D01*
X730958Y576428D01*
X730990Y576381D01*
Y576160D01*
X731211D01*
X731233Y576146D01*
X731362Y576012D01*
X731560Y575927D01*
X731576Y575916D01*
X731642Y575697D01*
X731732Y575246D01*
X731937Y572734D01*
X731951Y571664D01*
X732031Y571287D01*
X732106Y570910D01*
X732113Y570899D01*
X732116Y570886D01*
X732335Y570568D01*
X732402Y570467D01*
Y568237D01*
X732361Y568176D01*
X732012Y566420D01*
X732361Y564664D01*
X733356Y563176D01*
X734844Y562181D01*
X736600Y561832D01*
X738356Y562181D01*
X739844Y563176D01*
X740234Y563566D01*
X741229Y565054D01*
X741578Y566810D01*
Y570467D01*
X741646Y570568D01*
X741864Y570886D01*
X741867Y570899D01*
X741874Y570910D01*
X741949Y571287D01*
X742029Y571664D01*
X742043Y572755D01*
X742153Y574555D01*
X742238Y575196D01*
X742338Y575697D01*
X742404Y575916D01*
X742420Y575927D01*
X742618Y576012D01*
X742747Y576146D01*
X742769Y576160D01*
X742990D01*
Y576381D01*
X743022Y576428D01*
X743172Y576584D01*
X743241Y576756D01*
X743344Y576910D01*
X743386Y577122D01*
X743465Y577323D01*
X743463Y577509D01*
X743499Y577691D01*
X743456Y577903D01*
X743453Y578119D01*
X743380Y578289D01*
X743344Y578471D01*
X743223Y578651D01*
X743138Y578849D01*
X743004Y578978D01*
X742990Y579000D01*
Y584320D01*
X743004Y584342D01*
X743138Y584471D01*
X743223Y584669D01*
X743344Y584849D01*
X743380Y585031D01*
X743453Y585201D01*
X743456Y585417D01*
X743499Y585630D01*
X743463Y585811D01*
X743465Y585997D01*
X743386Y586198D01*
X743344Y586410D01*
X743241Y586564D01*
X743172Y586736D01*
X743022Y586892D01*
X742990Y586939D01*
Y587160D01*
X742769D01*
X742747Y587174D01*
X742618Y587308D01*
X742420Y587393D01*
X742404Y587404D01*
X742338Y587623D01*
X742248Y588074D01*
X742043Y590586D01*
X742029Y591656D01*
X741949Y592033D01*
X741874Y592410D01*
X741867Y592421D01*
X741864Y592434D01*
X741646Y592752D01*
X741578Y592853D01*
Y594597D01*
X741644Y594695D01*
X741860Y595008D01*
X741864Y595025D01*
X741874Y595040D01*
X741948Y595413D01*
X742029Y595785D01*
X742081Y598796D01*
X742169Y600132D01*
X742219Y600555D01*
X742244Y600692D01*
X742298Y600792D01*
X742464Y601040D01*
X742483Y601140D01*
X742531Y601230D01*
X742560Y601527D01*
X742619Y601820D01*
X742599Y601921D01*
X742609Y602022D01*
X742522Y602308D01*
X742464Y602601D01*
X742407Y602686D01*
X742377Y602783D01*
X742187Y603014D01*
X742110Y603130D01*
Y608450D01*
X742187Y608566D01*
X742377Y608797D01*
X742407Y608894D01*
X742464Y608979D01*
X742522Y609272D01*
X742609Y609558D01*
X742599Y609660D01*
X742619Y609759D01*
X742560Y610052D01*
X742531Y610350D01*
X742483Y610440D01*
X742464Y610540D01*
X742298Y610788D01*
X742289Y610803D01*
X742035Y614691D01*
X742029Y615770D01*
X741951Y616155D01*
X741874Y616540D01*
X741871Y616544D01*
X741870Y616550D01*
X741650Y616875D01*
X741578Y616983D01*
Y618727D01*
X741646Y618828D01*
X741864Y619146D01*
X741867Y619159D01*
X741874Y619170D01*
X741949Y619548D01*
X742029Y619924D01*
X742043Y621015D01*
X742153Y622815D01*
X742238Y623456D01*
X742338Y623957D01*
X742404Y624176D01*
X742420Y624187D01*
X742618Y624272D01*
X742747Y624406D01*
X742769Y624420D01*
X742990D01*
Y624641D01*
X743022Y624688D01*
X743172Y624844D01*
X743241Y625016D01*
X743344Y625170D01*
X743386Y625382D01*
X743465Y625583D01*
X743463Y625769D01*
X743499Y625951D01*
X743456Y626163D01*
X743453Y626379D01*
X743380Y626549D01*
X743344Y626731D01*
X743223Y626911D01*
X743138Y627109D01*
X743004Y627238D01*
X742990Y627260D01*
Y635420D01*
D02*
G37*
G36*
X894876Y564070D02*
X893284D01*
X891814Y563461D01*
X890689Y562336D01*
X890416Y561676D01*
X890187Y561534D01*
X890167Y561506D01*
X890138Y561487D01*
X889936Y561184D01*
X889723Y560888D01*
X889715Y560854D01*
X889696Y560825D01*
X889625Y560468D01*
X889542Y560113D01*
X889538Y559995D01*
X889535Y559969D01*
X889529Y559944D01*
X889520Y559915D01*
X889506Y559878D01*
X889482Y559832D01*
X889448Y559775D01*
X889399Y559707D01*
X889333Y559628D01*
X889207Y559494D01*
X889013Y559183D01*
X888808Y558877D01*
X888802Y558846D01*
X888785Y558820D01*
X888725Y558457D01*
X888690Y558285D01*
X880324Y549919D01*
X869231D01*
X869082Y550019D01*
X868779Y550233D01*
X868752Y550239D01*
X868730Y550254D01*
X868365Y550327D01*
X868002Y550409D01*
X867679Y550417D01*
X867648Y550420D01*
X867523Y550570D01*
X867480Y550634D01*
Y551877D01*
X857980D01*
Y541878D01*
X867480D01*
Y544106D01*
X867523Y544170D01*
X867648Y544320D01*
X867679Y544323D01*
X868002Y544332D01*
X868365Y544413D01*
X868730Y544486D01*
X868752Y544501D01*
X868779Y544507D01*
X869082Y544721D01*
X869231Y544821D01*
X881380D01*
X882355Y545015D01*
X883182Y545568D01*
X892295Y554680D01*
X892467Y554715D01*
X892830Y554775D01*
X892856Y554792D01*
X892887Y554798D01*
X893193Y555003D01*
X893504Y555197D01*
X893638Y555323D01*
X893717Y555389D01*
X893785Y555438D01*
X893842Y555472D01*
X893888Y555496D01*
X893924Y555510D01*
X893954Y555519D01*
X893979Y555525D01*
X894005Y555528D01*
X894123Y555532D01*
X894478Y555615D01*
X894835Y555686D01*
X894864Y555705D01*
X894898Y555713D01*
X895195Y555926D01*
X895497Y556128D01*
X895516Y556157D01*
X895544Y556177D01*
X895686Y556406D01*
X896346Y556679D01*
X897471Y557804D01*
X898080Y559274D01*
Y560866D01*
X897471Y562336D01*
X896346Y563461D01*
X894876Y564070D01*
D02*
G37*
G36*
X746286Y522160D02*
X744694D01*
X743224Y521551D01*
X742099Y520426D01*
X741490Y518956D01*
Y517364D01*
X741635Y517014D01*
X741611Y516960D01*
X741609Y516819D01*
X741570Y516684D01*
X741600Y516425D01*
X741595Y516164D01*
X741646Y516033D01*
X741662Y515893D01*
X741700Y515827D01*
X741749Y515039D01*
X741751Y514813D01*
X741809Y514529D01*
X741837Y514240D01*
X741889Y514142D01*
X741911Y514034D01*
X742074Y513794D01*
X742211Y513537D01*
X742231Y513520D01*
Y496687D01*
X742142Y496553D01*
X741927Y496249D01*
X741921Y496222D01*
X741906Y496200D01*
X741833Y495835D01*
X741751Y495473D01*
X741738Y494959D01*
X741705Y494584D01*
X741659Y494304D01*
X741659Y494303D01*
X741510Y494273D01*
X741419Y494212D01*
X741315Y494180D01*
X741091Y493993D01*
X741026Y493950D01*
X740340D01*
Y492977D01*
X740334Y492966D01*
X740308Y492675D01*
X740251Y492389D01*
X740272Y492282D01*
X740262Y492173D01*
X740340Y491924D01*
Y483950D01*
X749840D01*
Y491109D01*
X749894Y491190D01*
X750081Y491414D01*
X750113Y491518D01*
X750174Y491609D01*
X750231Y491895D01*
X750318Y492173D01*
X750308Y492282D01*
X750329Y492389D01*
X750272Y492675D01*
X750246Y492966D01*
X750195Y493062D01*
X750174Y493169D01*
X750012Y493412D01*
X749876Y493670D01*
X749840Y493701D01*
Y493950D01*
X749554D01*
X749489Y493993D01*
X749265Y494180D01*
X749161Y494212D01*
X749070Y494273D01*
X748921Y494303D01*
X748921Y494304D01*
X748875Y494584D01*
X748842Y494959D01*
X748829Y495473D01*
X748746Y495835D01*
X748674Y496200D01*
X748659Y496222D01*
X748653Y496249D01*
X748438Y496552D01*
X748349Y496687D01*
Y513264D01*
X748383Y513312D01*
X748586Y513559D01*
X748610Y513636D01*
X748656Y513702D01*
X748725Y514014D01*
X748819Y514320D01*
X748811Y514400D01*
X748829Y514479D01*
X748839Y514955D01*
X748864Y515258D01*
X748907Y515312D01*
X748942Y515434D01*
X749007Y515541D01*
X749049Y515813D01*
X749124Y516077D01*
X749110Y516203D01*
X749129Y516328D01*
X749104Y516432D01*
X749490Y517364D01*
Y518956D01*
X748881Y520426D01*
X747756Y521551D01*
X746286Y522160D01*
D02*
G37*
G36*
X648819Y465300D02*
X646581D01*
X644419Y464721D01*
X642481Y463602D01*
X640898Y462019D01*
X639779Y460081D01*
X639200Y457919D01*
Y455681D01*
X639779Y453519D01*
X640898Y451581D01*
X642481Y449998D01*
X644419Y448879D01*
X646581Y448300D01*
X648819D01*
X650981Y448879D01*
X652919Y449998D01*
X654502Y451581D01*
X655621Y453519D01*
X656200Y455681D01*
Y457919D01*
X655621Y460081D01*
X654502Y462019D01*
X652919Y463602D01*
X650981Y464721D01*
X648819Y465300D01*
D02*
G37*
G36*
Y440300D02*
X646581D01*
X644419Y439721D01*
X642481Y438602D01*
X640898Y437019D01*
X639779Y435081D01*
X639200Y432919D01*
Y430681D01*
X639779Y428519D01*
X640898Y426581D01*
X642481Y424998D01*
X644419Y423879D01*
X646581Y423300D01*
X648819D01*
X650981Y423879D01*
X652919Y424998D01*
X654502Y426581D01*
X655621Y428519D01*
X656200Y430681D01*
Y432919D01*
X655621Y435081D01*
X654502Y437019D01*
X652919Y438602D01*
X650981Y439721D01*
X648819Y440300D01*
D02*
G37*
%LPD*%
G36*
X732188Y884472D02*
X733596Y883223D01*
X734255Y882717D01*
X734883Y882288D01*
X735480Y881936D01*
X736048Y881664D01*
X736585Y881469D01*
X737092Y881351D01*
X737568Y881312D01*
Y879313D01*
X737092Y879274D01*
X736585Y879156D01*
X736048Y878961D01*
X735480Y878689D01*
X734883Y878337D01*
X734255Y877908D01*
X733596Y877402D01*
X732188Y876153D01*
X731439Y875413D01*
Y885212D01*
X732188Y884472D01*
D02*
G37*
G36*
X667182Y869243D02*
X666841Y868860D01*
X666549Y868443D01*
X666307Y867992D01*
X666115Y867508D01*
X665973Y866990D01*
X665881Y866439D01*
X665838Y865854D01*
X665846Y865235D01*
X665903Y864582D01*
X666010Y863896D01*
X660421Y869485D01*
X661107Y869378D01*
X661760Y869321D01*
X662379Y869313D01*
X662964Y869356D01*
X663515Y869448D01*
X664033Y869590D01*
X664517Y869782D01*
X664968Y870024D01*
X665385Y870316D01*
X665768Y870657D01*
X667182Y869243D01*
D02*
G37*
G36*
X732188Y859472D02*
X733596Y858223D01*
X734255Y857717D01*
X734883Y857288D01*
X735480Y856936D01*
X736048Y856664D01*
X736585Y856469D01*
X737092Y856351D01*
X737568Y856312D01*
Y854313D01*
X737092Y854274D01*
X736585Y854156D01*
X736048Y853961D01*
X735480Y853689D01*
X734883Y853337D01*
X734255Y852908D01*
X733596Y852402D01*
X732188Y851153D01*
X731439Y850413D01*
Y860212D01*
X732188Y859472D01*
D02*
G37*
G36*
X667706Y844767D02*
X667397Y844402D01*
X667121Y843961D01*
X666879Y843444D01*
X666671Y842849D01*
X666496Y842178D01*
X666356Y841431D01*
X666249Y840607D01*
X666136Y838729D01*
X666130Y837675D01*
X659200Y844605D01*
X660254Y844611D01*
X662132Y844724D01*
X662956Y844831D01*
X663703Y844971D01*
X664374Y845146D01*
X664968Y845354D01*
X665486Y845596D01*
X665927Y845872D01*
X666292Y846181D01*
X667706Y844767D01*
D02*
G37*
G36*
X732188Y834472D02*
X733596Y833223D01*
X734255Y832717D01*
X734883Y832288D01*
X735480Y831936D01*
X736048Y831664D01*
X736585Y831469D01*
X737092Y831351D01*
X737568Y831312D01*
Y829313D01*
X737092Y829274D01*
X736585Y829156D01*
X736048Y828961D01*
X735480Y828689D01*
X734883Y828337D01*
X734255Y827908D01*
X733596Y827402D01*
X732188Y826153D01*
X731439Y825413D01*
Y835212D01*
X732188Y834472D01*
D02*
G37*
G36*
X1061205Y789460D02*
X1061052Y789603D01*
X1060889Y789730D01*
X1060715Y789843D01*
X1060531Y789940D01*
X1060336Y790023D01*
X1060130Y790090D01*
X1059913Y790143D01*
X1059686Y790180D01*
X1059447Y790202D01*
X1059199Y790210D01*
Y792210D01*
X1059447Y792217D01*
X1059686Y792240D01*
X1059913Y792278D01*
X1060130Y792330D01*
X1060336Y792398D01*
X1060531Y792480D01*
X1060715Y792578D01*
X1060889Y792690D01*
X1061052Y792818D01*
X1061205Y792960D01*
Y789460D01*
D02*
G37*
G36*
X653742Y796788D02*
X654128Y796542D01*
X654611Y796292D01*
X655191Y796037D01*
X656643Y795516D01*
X658484Y794978D01*
X660713Y794424D01*
X652344Y789324D01*
X652556Y790250D01*
X652706Y791118D01*
X652794Y791928D01*
X652821Y792679D01*
X652786Y793373D01*
X652691Y794007D01*
X652533Y794584D01*
X652314Y795102D01*
X652034Y795562D01*
X651692Y795964D01*
X653454Y797030D01*
X653742Y796788D01*
D02*
G37*
G36*
X1055700Y793020D02*
X1055761Y792850D01*
X1055863Y792700D01*
X1056005Y792570D01*
X1056188Y792460D01*
X1056411Y792370D01*
X1056675Y792300D01*
X1056980Y792250D01*
X1057325Y792220D01*
X1057710Y792210D01*
Y790210D01*
X1057325Y790200D01*
X1056980Y790170D01*
X1056675Y790120D01*
X1056411Y790050D01*
X1056188Y789960D01*
X1056005Y789850D01*
X1055863Y789720D01*
X1055761Y789570D01*
X1055700Y789400D01*
X1055680Y789210D01*
Y793210D01*
X1055700Y793020D01*
D02*
G37*
G36*
X1077715Y780570D02*
X1077562Y780713D01*
X1077399Y780840D01*
X1077225Y780953D01*
X1077041Y781050D01*
X1076846Y781133D01*
X1076640Y781200D01*
X1076423Y781253D01*
X1076196Y781290D01*
X1075957Y781312D01*
X1075709Y781320D01*
Y783320D01*
X1075957Y783327D01*
X1076196Y783350D01*
X1076423Y783388D01*
X1076640Y783440D01*
X1076846Y783508D01*
X1077041Y783590D01*
X1077225Y783688D01*
X1077399Y783800D01*
X1077562Y783928D01*
X1077715Y784070D01*
Y780570D01*
D02*
G37*
G36*
X918656Y747293D02*
X918841Y747143D01*
X919029Y747014D01*
X919219Y746905D01*
X919412Y746818D01*
X919606Y746752D01*
X919804Y746706D01*
X920003Y746682D01*
X920205Y746679D01*
X920409Y746697D01*
X918267Y743929D01*
X918235Y744135D01*
X918188Y744337D01*
X918125Y744537D01*
X918047Y744734D01*
X917954Y744927D01*
X917845Y745118D01*
X917721Y745306D01*
X917581Y745492D01*
X917426Y745674D01*
X917256Y745853D01*
X918473Y747465D01*
X918656Y747293D01*
D02*
G37*
G36*
X952475Y726480D02*
X952266Y726473D01*
X952061Y726448D01*
X951859Y726405D01*
X951659Y726343D01*
X951463Y726263D01*
X951269Y726165D01*
X951079Y726049D01*
X950892Y725915D01*
X950707Y725763D01*
X950526Y725592D01*
X949112Y727006D01*
X949283Y727188D01*
X949435Y727372D01*
X949569Y727559D01*
X949686Y727749D01*
X949783Y727943D01*
X949863Y728139D01*
X949925Y728338D01*
X949968Y728541D01*
X949993Y728746D01*
X950000Y728955D01*
X952475Y726480D01*
D02*
G37*
G36*
X835627Y684296D02*
X835652Y684091D01*
X835695Y683888D01*
X835757Y683689D01*
X835837Y683493D01*
X835935Y683299D01*
X836051Y683109D01*
X836185Y682922D01*
X836337Y682738D01*
X836508Y682556D01*
X835094Y681142D01*
X834912Y681313D01*
X834728Y681465D01*
X834541Y681599D01*
X834351Y681715D01*
X834157Y681813D01*
X833961Y681893D01*
X833762Y681955D01*
X833559Y681998D01*
X833354Y682023D01*
X833145Y682030D01*
X835620Y684505D01*
X835627Y684296D01*
D02*
G37*
G36*
X888967Y681757D02*
X888992Y681551D01*
X889035Y681348D01*
X889097Y681149D01*
X889177Y680953D01*
X889275Y680759D01*
X889391Y680569D01*
X889525Y680382D01*
X889677Y680198D01*
X889848Y680016D01*
X888434Y678602D01*
X888252Y678773D01*
X888068Y678925D01*
X887881Y679059D01*
X887691Y679175D01*
X887497Y679273D01*
X887301Y679353D01*
X887102Y679415D01*
X886899Y679458D01*
X886693Y679483D01*
X886485Y679490D01*
X888960Y681965D01*
X888967Y681757D01*
D02*
G37*
G36*
X886427Y672867D02*
X886452Y672661D01*
X886495Y672458D01*
X886557Y672259D01*
X886637Y672063D01*
X886734Y671869D01*
X886851Y671679D01*
X886985Y671492D01*
X887137Y671308D01*
X887308Y671126D01*
X885894Y669712D01*
X885713Y669883D01*
X885528Y670035D01*
X885341Y670169D01*
X885151Y670285D01*
X884957Y670383D01*
X884761Y670463D01*
X884561Y670525D01*
X884359Y670568D01*
X884154Y670593D01*
X883945Y670600D01*
X886420Y673075D01*
X886427Y672867D01*
D02*
G37*
G36*
X946898Y671237D02*
X947082Y671085D01*
X947269Y670951D01*
X947459Y670835D01*
X947653Y670737D01*
X947849Y670657D01*
X948048Y670595D01*
X948251Y670552D01*
X948456Y670527D01*
X948665Y670520D01*
X946190Y668045D01*
X946183Y668253D01*
X946158Y668459D01*
X946115Y668661D01*
X946053Y668861D01*
X945973Y669057D01*
X945875Y669251D01*
X945759Y669441D01*
X945625Y669628D01*
X945473Y669812D01*
X945302Y669994D01*
X946716Y671408D01*
X946898Y671237D01*
D02*
G37*
G36*
X955788Y669974D02*
X955972Y669822D01*
X956159Y669688D01*
X956349Y669572D01*
X956543Y669474D01*
X956739Y669394D01*
X956938Y669332D01*
X957141Y669289D01*
X957346Y669264D01*
X957555Y669257D01*
X955080Y666782D01*
X955073Y666991D01*
X955048Y667196D01*
X955005Y667398D01*
X954943Y667598D01*
X954863Y667794D01*
X954765Y667988D01*
X954649Y668178D01*
X954515Y668365D01*
X954363Y668549D01*
X954192Y668731D01*
X955606Y670145D01*
X955788Y669974D01*
D02*
G37*
G36*
X873338Y668724D02*
X873167Y668542D01*
X873015Y668358D01*
X872881Y668171D01*
X872765Y667981D01*
X872667Y667787D01*
X872587Y667591D01*
X872525Y667392D01*
X872482Y667189D01*
X872457Y666983D01*
X872450Y666775D01*
X869975Y669250D01*
X870183Y669257D01*
X870389Y669282D01*
X870592Y669325D01*
X870791Y669387D01*
X870987Y669467D01*
X871181Y669565D01*
X871371Y669681D01*
X871558Y669815D01*
X871742Y669967D01*
X871924Y670138D01*
X873338Y668724D01*
D02*
G37*
G36*
X915242Y745676D02*
X915236Y745572D01*
X915313Y745352D01*
X915352Y745123D01*
X915442Y744980D01*
X915498Y744820D01*
X915652Y744647D01*
X915777Y744450D01*
X915908Y744311D01*
X915988Y744217D01*
X916054Y744130D01*
X916106Y744050D01*
X916147Y743979D01*
X916179Y743914D01*
X916202Y743855D01*
X916219Y743799D01*
X916232Y743746D01*
X916252Y743616D01*
X916379Y743268D01*
X916497Y742917D01*
X916515Y742895D01*
X916525Y742869D01*
X916776Y742596D01*
X917019Y742317D01*
X917044Y742304D01*
X917064Y742283D01*
X917261Y742191D01*
X917359Y741954D01*
X918484Y740829D01*
X919954Y740220D01*
X921546D01*
X923016Y740829D01*
X924141Y741954D01*
X924461Y742728D01*
X925923Y743062D01*
X929631Y739354D01*
Y668020D01*
X929825Y667045D01*
X930378Y666218D01*
X940673Y655922D01*
X940187Y654749D01*
X932546D01*
X894089Y693206D01*
Y764540D01*
X893966Y765156D01*
X894334Y765510D01*
X895110Y765808D01*
X915242Y745676D01*
D02*
G37*
G36*
X1030930Y611385D02*
X1030965Y611213D01*
X1031025Y610850D01*
X1031042Y610824D01*
X1031048Y610793D01*
X1031253Y610488D01*
X1031447Y610176D01*
X1031573Y610042D01*
X1031639Y609963D01*
X1031688Y609895D01*
X1031722Y609838D01*
X1031746Y609792D01*
X1031760Y609756D01*
X1031769Y609726D01*
X1031775Y609701D01*
X1031778Y609675D01*
X1031782Y609557D01*
X1031865Y609202D01*
X1031936Y608845D01*
X1031955Y608816D01*
X1031963Y608782D01*
X1032176Y608485D01*
X1032378Y608183D01*
X1032407Y608164D01*
X1032427Y608136D01*
X1032656Y607994D01*
X1032929Y607334D01*
X1034054Y606209D01*
X1035524Y605600D01*
X1037116D01*
X1038586Y606209D01*
X1039711Y607334D01*
X1040320Y608804D01*
Y610396D01*
X1039711Y611866D01*
X1039627Y611950D01*
X1039636Y612338D01*
X1040007Y613366D01*
X1041126Y613829D01*
X1042251Y614954D01*
X1042661Y615944D01*
X1043931Y615691D01*
Y609386D01*
X1038633Y604087D01*
X1031467D01*
X1005102Y630452D01*
X1004276Y631005D01*
X1003300Y631199D01*
X987049D01*
X986796Y632469D01*
X987786Y632879D01*
X988911Y634004D01*
X989520Y635474D01*
Y637066D01*
X988911Y638536D01*
X987786Y639661D01*
X986316Y640270D01*
X984724D01*
X984065Y639997D01*
X983803Y640058D01*
X983768Y640052D01*
X983735Y640059D01*
X983378Y639988D01*
X983018Y639929D01*
X982988Y639911D01*
X982954Y639904D01*
X982651Y639701D01*
X982342Y639509D01*
X982255Y639428D01*
X982235Y639412D01*
X982213Y639398D01*
X982186Y639384D01*
X982150Y639369D01*
X982101Y639353D01*
X982037Y639337D01*
X981953Y639324D01*
X981851Y639314D01*
X981667Y639308D01*
X981309Y639226D01*
X980948Y639154D01*
X980922Y639137D01*
X980892Y639130D01*
X980592Y638916D01*
X980447Y638819D01*
X980226D01*
X978210Y640835D01*
X978175Y641007D01*
X978115Y641370D01*
X978098Y641396D01*
X978092Y641427D01*
X977887Y641732D01*
X977693Y642044D01*
X977567Y642178D01*
X977501Y642257D01*
X977452Y642325D01*
X977418Y642382D01*
X977394Y642428D01*
X977380Y642464D01*
X977371Y642494D01*
X977365Y642519D01*
X977362Y642545D01*
X977358Y642663D01*
X977275Y643018D01*
X977204Y643375D01*
X977185Y643404D01*
X977177Y643438D01*
X976964Y643735D01*
X976762Y644037D01*
X976733Y644056D01*
X976713Y644084D01*
X976484Y644226D01*
X976211Y644886D01*
X975086Y646011D01*
X973616Y646620D01*
X972024D01*
X970554Y646011D01*
X969712Y645169D01*
X963047D01*
X962071Y644975D01*
X961733Y644749D01*
X936196D01*
X932564Y648381D01*
X933090Y649651D01*
X975170D01*
Y649444D01*
X975779Y647974D01*
X976904Y646849D01*
X978374Y646240D01*
X979966D01*
X981436Y646849D01*
X982561Y647974D01*
X983170Y649444D01*
Y651036D01*
X982561Y652506D01*
X982538Y652529D01*
X983064Y653799D01*
X988517D01*
X1030930Y611385D01*
D02*
G37*
G36*
X871967Y647107D02*
X872152Y646955D01*
X872339Y646821D01*
X872529Y646704D01*
X872723Y646607D01*
X872919Y646527D01*
X873119Y646465D01*
X873321Y646422D01*
X873527Y646397D01*
X873735Y646390D01*
X871260Y643915D01*
X871253Y644124D01*
X871228Y644329D01*
X871185Y644531D01*
X871123Y644731D01*
X871043Y644927D01*
X870946Y645121D01*
X870829Y645311D01*
X870695Y645498D01*
X870543Y645683D01*
X870372Y645864D01*
X871786Y647278D01*
X871967Y647107D01*
D02*
G37*
G36*
X975327Y642386D02*
X975352Y642181D01*
X975395Y641979D01*
X975457Y641779D01*
X975537Y641583D01*
X975635Y641389D01*
X975751Y641199D01*
X975885Y641012D01*
X976037Y640827D01*
X976208Y640646D01*
X974794Y639232D01*
X974613Y639403D01*
X974428Y639555D01*
X974241Y639689D01*
X974051Y639805D01*
X973857Y639903D01*
X973661Y639983D01*
X973462Y640045D01*
X973259Y640088D01*
X973054Y640113D01*
X972845Y640120D01*
X975320Y642595D01*
X975327Y642386D01*
D02*
G37*
G36*
X983735Y634520D02*
X983582Y634663D01*
X983419Y634790D01*
X983245Y634902D01*
X983061Y635000D01*
X982866Y635083D01*
X982660Y635150D01*
X982443Y635202D01*
X982216Y635240D01*
X981977Y635262D01*
X981729Y635270D01*
Y637270D01*
X981977Y637277D01*
X982216Y637300D01*
X982443Y637337D01*
X982660Y637390D01*
X982866Y637458D01*
X983061Y637540D01*
X983245Y637637D01*
X983419Y637750D01*
X983582Y637878D01*
X983735Y638020D01*
Y634520D01*
D02*
G37*
G36*
X1058248Y627982D02*
X1058120Y627819D01*
X1058008Y627645D01*
X1057910Y627461D01*
X1057828Y627266D01*
X1057760Y627060D01*
X1057708Y626843D01*
X1057670Y626616D01*
X1057647Y626377D01*
X1057640Y626129D01*
X1055640D01*
X1055632Y626377D01*
X1055610Y626616D01*
X1055573Y626843D01*
X1055520Y627060D01*
X1055452Y627266D01*
X1055370Y627461D01*
X1055273Y627645D01*
X1055160Y627819D01*
X1055033Y627982D01*
X1054890Y628135D01*
X1058390D01*
X1058248Y627982D01*
D02*
G37*
G36*
X1048087Y624172D02*
X1047960Y624009D01*
X1047848Y623835D01*
X1047750Y623651D01*
X1047667Y623456D01*
X1047600Y623250D01*
X1047548Y623033D01*
X1047510Y622806D01*
X1047487Y622567D01*
X1047480Y622319D01*
X1045480D01*
X1045472Y622567D01*
X1045450Y622806D01*
X1045413Y623033D01*
X1045360Y623250D01*
X1045293Y623456D01*
X1045210Y623651D01*
X1045113Y623835D01*
X1045000Y624009D01*
X1044873Y624172D01*
X1044730Y624325D01*
X1048230D01*
X1048087Y624172D01*
D02*
G37*
G36*
X1034528Y612817D02*
X1034712Y612665D01*
X1034899Y612531D01*
X1035089Y612415D01*
X1035283Y612317D01*
X1035479Y612237D01*
X1035678Y612175D01*
X1035881Y612132D01*
X1036087Y612107D01*
X1036295Y612100D01*
X1033820Y609625D01*
X1033813Y609833D01*
X1033788Y610039D01*
X1033745Y610242D01*
X1033683Y610441D01*
X1033603Y610637D01*
X1033505Y610831D01*
X1033389Y611021D01*
X1033255Y611208D01*
X1033103Y611393D01*
X1032932Y611574D01*
X1034346Y612988D01*
X1034528Y612817D01*
D02*
G37*
G36*
X948520Y558801D02*
X948550Y558461D01*
X948600Y558161D01*
X948670Y557901D01*
X948760Y557681D01*
X948870Y557500D01*
X949000Y557360D01*
X949150Y557261D01*
X949320Y557201D01*
X949510Y557180D01*
X945510D01*
X945700Y557201D01*
X945870Y557261D01*
X946020Y557360D01*
X946150Y557500D01*
X946260Y557681D01*
X946350Y557901D01*
X946420Y558161D01*
X946470Y558461D01*
X946500Y558801D01*
X946510Y559180D01*
X948510D01*
X948520Y558801D01*
D02*
G37*
G36*
X952250Y549180D02*
X952311Y549010D01*
X952413Y548860D01*
X952555Y548730D01*
X952738Y548620D01*
X952751Y548614D01*
X952835Y548663D01*
X952932Y548740D01*
X953009Y548827D01*
Y548517D01*
X953225Y548460D01*
X953530Y548410D01*
X953875Y548380D01*
X954260Y548370D01*
Y546370D01*
X953875Y546360D01*
X953530Y546330D01*
X953225Y546280D01*
X953009Y546223D01*
Y545913D01*
X952932Y546000D01*
X952835Y546077D01*
X952751Y546126D01*
X952738Y546120D01*
X952555Y546010D01*
X952413Y545880D01*
X952311Y545730D01*
X952250Y545560D01*
X952230Y545370D01*
Y546297D01*
X952029Y546329D01*
X951804Y546352D01*
X951291Y546370D01*
Y548370D01*
X951558Y548375D01*
X952029Y548411D01*
X952230Y548443D01*
Y549370D01*
X952250Y549180D01*
D02*
G37*
%LPC*%
G36*
X927020Y716820D02*
X917020D01*
Y710164D01*
X916890Y709966D01*
X916679Y709660D01*
X916673Y709634D01*
X916659Y709612D01*
X916590Y709246D01*
X916512Y708882D01*
X916481Y706882D01*
X916484Y706866D01*
X916481Y706851D01*
X916555Y706476D01*
X916624Y706099D01*
X916352Y705046D01*
X916126Y704767D01*
X915889Y704498D01*
X915876Y704460D01*
X915851Y704429D01*
X915813Y704300D01*
X914819Y703306D01*
X914210Y701836D01*
Y700244D01*
X914819Y698774D01*
X915944Y697649D01*
X917414Y697040D01*
X919006D01*
X920476Y697649D01*
X921601Y698774D01*
X922210Y700244D01*
Y700581D01*
X922365Y700757D01*
X922417Y700911D01*
X922503Y701049D01*
X922544Y701284D01*
X922620Y701511D01*
X922610Y701673D01*
X922637Y701833D01*
X922558Y704725D01*
X922515Y704916D01*
X922511Y705112D01*
X922428Y705300D01*
X922382Y705501D01*
X922269Y705661D01*
X922215Y705783D01*
X922383Y706021D01*
X922389Y706048D01*
X922404Y706070D01*
X922477Y706435D01*
X922559Y706797D01*
X922567Y707119D01*
X922569Y707148D01*
X922736Y707289D01*
X922781Y707320D01*
X927020D01*
Y716820D01*
D02*
G37*
G36*
X906700D02*
X896700D01*
Y707320D01*
X898436D01*
X898500Y707277D01*
X898651Y707152D01*
X898653Y707121D01*
X898661Y706798D01*
X898743Y706435D01*
X898816Y706070D01*
X898831Y706048D01*
X898837Y706021D01*
X899051Y705718D01*
X899258Y705408D01*
X899280Y705394D01*
X899296Y705372D01*
X899301Y705369D01*
X899345Y705145D01*
X899898Y704318D01*
X901391Y702825D01*
X901425Y702653D01*
X901485Y702290D01*
X901502Y702264D01*
X901508Y702233D01*
X901712Y701927D01*
X901907Y701616D01*
X902033Y701482D01*
X902099Y701403D01*
X902148Y701335D01*
X902182Y701278D01*
X902206Y701232D01*
X902220Y701196D01*
X902230Y701166D01*
X902235Y701141D01*
X902238Y701115D01*
X902242Y700997D01*
X902325Y700642D01*
X902396Y700285D01*
X902415Y700256D01*
X902423Y700222D01*
X902636Y699925D01*
X902838Y699623D01*
X902867Y699604D01*
X902887Y699576D01*
X903116Y699434D01*
X903389Y698774D01*
X904514Y697649D01*
X905984Y697040D01*
X907576D01*
X909046Y697649D01*
X910171Y698774D01*
X910780Y700244D01*
Y701836D01*
X910171Y703306D01*
X909046Y704431D01*
X908386Y704704D01*
X908244Y704933D01*
X908216Y704953D01*
X908197Y704982D01*
X907894Y705184D01*
X907598Y705397D01*
X907564Y705405D01*
X907535Y705424D01*
X907178Y705495D01*
X906909Y705558D01*
X906550Y705957D01*
X906453Y706092D01*
X906700Y707320D01*
X906700D01*
Y716820D01*
D02*
G37*
%LPD*%
G36*
X921330Y708859D02*
X921160Y708796D01*
X921010Y708694D01*
X920880Y708551D01*
X920770Y708368D01*
X920680Y708145D01*
X920610Y707882D01*
X920560Y707578D01*
X920530Y707234D01*
X920520Y706851D01*
X918520D01*
X918550Y708850D01*
X921520Y708881D01*
X921330Y708859D01*
D02*
G37*
G36*
X920520Y704669D02*
X920599Y701777D01*
X917655Y703478D01*
X917819Y703529D01*
X917966Y703602D01*
X918096Y703699D01*
X918209Y703819D01*
X918304Y703962D01*
X918382Y704128D01*
X918442Y704316D01*
X918485Y704528D01*
X918511Y704763D01*
X918520Y705021D01*
X920520Y704669D01*
D02*
G37*
G36*
X903510Y708861D02*
X903340Y708800D01*
X903190Y708698D01*
X903060Y708556D01*
X902950Y708373D01*
X902860Y708150D01*
X902790Y707886D01*
X902740Y707581D01*
X902710Y707236D01*
X902700Y706851D01*
X900700D01*
X900690Y707236D01*
X900660Y707581D01*
X900610Y707886D01*
X900540Y708150D01*
X900450Y708373D01*
X900340Y708556D01*
X900210Y708698D01*
X900060Y708800D01*
X899890Y708861D01*
X899700Y708881D01*
X903700D01*
X903510Y708861D01*
D02*
G37*
G36*
X904987Y704257D02*
X905172Y704105D01*
X905359Y703971D01*
X905549Y703855D01*
X905743Y703757D01*
X905939Y703677D01*
X906139Y703615D01*
X906341Y703572D01*
X906546Y703547D01*
X906755Y703540D01*
X904280Y701065D01*
X904273Y701273D01*
X904248Y701479D01*
X904205Y701682D01*
X904143Y701881D01*
X904063Y702077D01*
X903966Y702271D01*
X903849Y702461D01*
X903715Y702648D01*
X903563Y702832D01*
X903392Y703014D01*
X904806Y704428D01*
X904987Y704257D01*
D02*
G37*
G36*
X921216Y844521D02*
X920752Y844857D01*
X920202Y845024D01*
X919567Y845021D01*
X918847Y844848D01*
X918041Y844506D01*
X917150Y843994D01*
X916173Y843312D01*
X915111Y842460D01*
X912730Y840248D01*
X908488Y844491D01*
X909679Y845724D01*
X911552Y847933D01*
X912234Y848910D01*
X912746Y849801D01*
X913088Y850607D01*
X913261Y851328D01*
X913264Y851962D01*
X913097Y852512D01*
X912761Y852976D01*
X921216Y844521D01*
D02*
G37*
G36*
X1062475Y809780D02*
X1062322Y809922D01*
X1062159Y810050D01*
X1061985Y810163D01*
X1061801Y810260D01*
X1061606Y810342D01*
X1061400Y810410D01*
X1061183Y810462D01*
X1060956Y810500D01*
X1060717Y810523D01*
X1060469Y810530D01*
Y812530D01*
X1060717Y812538D01*
X1060956Y812560D01*
X1061183Y812598D01*
X1061400Y812650D01*
X1061606Y812718D01*
X1061801Y812800D01*
X1061985Y812897D01*
X1062159Y813010D01*
X1062322Y813138D01*
X1062475Y813280D01*
Y809780D01*
D02*
G37*
G36*
X1054949Y813340D02*
X1055010Y813170D01*
X1055109Y813020D01*
X1055249Y812890D01*
X1055430Y812780D01*
X1055649Y812690D01*
X1055910Y812620D01*
X1056209Y812570D01*
X1056550Y812540D01*
X1056929Y812530D01*
Y810530D01*
X1056550Y810520D01*
X1056209Y810490D01*
X1055910Y810440D01*
X1055649Y810370D01*
X1055430Y810280D01*
X1055249Y810170D01*
X1055109Y810040D01*
X1055010Y809890D01*
X1054949Y809720D01*
X1054930Y809530D01*
Y813530D01*
X1054949Y813340D01*
D02*
G37*
G36*
X660646Y905636D02*
X660179Y905975D01*
X659628Y906145D01*
X658991D01*
X658270Y905975D01*
X657464Y905636D01*
X656573Y905126D01*
X655597Y904448D01*
X654536Y903599D01*
X652160Y901393D01*
X647918Y905636D01*
X649106Y906866D01*
X650973Y909072D01*
X651651Y910048D01*
X652160Y910939D01*
X652500Y911745D01*
X652670Y912466D01*
Y913103D01*
X652500Y913654D01*
X652160Y914121D01*
X660646Y905636D01*
D02*
G37*
G36*
X711281Y719870D02*
X710891Y720231D01*
X710464Y720554D01*
X710002Y720839D01*
X709503Y721086D01*
X708968Y721295D01*
X708398Y721466D01*
X707791Y721599D01*
X707149Y721694D01*
X706470Y721751D01*
X705755Y721770D01*
Y727770D01*
X706470Y727789D01*
X707149Y727846D01*
X707791Y727941D01*
X708398Y728074D01*
X708968Y728245D01*
X709503Y728454D01*
X710002Y728701D01*
X710464Y728986D01*
X710891Y729309D01*
X711281Y729670D01*
Y719870D01*
D02*
G37*
G36*
X647706Y731207D02*
X648607Y730485D01*
X649544Y729849D01*
X650515Y729297D01*
X651522Y728831D01*
X652564Y728449D01*
X653641Y728152D01*
X654753Y727940D01*
X655900Y727812D01*
X657083Y727770D01*
Y721770D01*
X655900Y721728D01*
X654753Y721600D01*
X653641Y721388D01*
X652564Y721091D01*
X651522Y720709D01*
X650515Y720243D01*
X649544Y719691D01*
X648607Y719055D01*
X647706Y718334D01*
X646840Y717527D01*
X641355Y720527D01*
X642118Y721376D01*
X642712Y722224D01*
X643137Y723073D01*
X643391Y723922D01*
X643476Y724770D01*
X643391Y725619D01*
X643137Y726467D01*
X642712Y727316D01*
X642118Y728164D01*
X641355Y729013D01*
X646840Y732013D01*
X647706Y731207D01*
D02*
G37*
G36*
X653394Y592084D02*
X655603Y590211D01*
X656580Y589529D01*
X657471Y589017D01*
X658277Y588674D01*
X658997Y588502D01*
X659632Y588498D01*
X660182Y588665D01*
X660646Y589002D01*
X652191Y580547D01*
X652527Y581011D01*
X652694Y581560D01*
X652691Y582195D01*
X652518Y582915D01*
X652176Y583721D01*
X651664Y584612D01*
X650982Y585589D01*
X650130Y586651D01*
X647918Y589032D01*
X652160Y593275D01*
X653394Y592084D01*
D02*
G37*
G36*
X665760Y583112D02*
X665590Y582560D01*
Y581924D01*
X665760Y581202D01*
X666099Y580396D01*
X666609Y579505D01*
X667287Y578530D01*
X668136Y577469D01*
X670342Y575093D01*
X666099Y570850D01*
X664869Y572038D01*
X662663Y573905D01*
X661687Y574584D01*
X660796Y575093D01*
X659990Y575433D01*
X659269Y575602D01*
X658633D01*
X658081Y575433D01*
X657614Y575093D01*
X666099Y583578D01*
X665760Y583112D01*
D02*
G37*
G36*
X654699Y412230D02*
X654880Y411720D01*
X655182Y411270D01*
X655604Y410880D01*
X656147Y410550D01*
X656810Y410280D01*
X657594Y410070D01*
X658499Y409920D01*
X659524Y409830D01*
X660669Y409800D01*
Y403800D01*
X659524Y403770D01*
X658499Y403680D01*
X657594Y403530D01*
X656810Y403320D01*
X656147Y403050D01*
X655604Y402720D01*
X655182Y402330D01*
X654880Y401880D01*
X654699Y401370D01*
X654639Y400800D01*
Y412800D01*
X654699Y412230D01*
D02*
G37*
G36*
X1031908Y828378D02*
X1032071Y828250D01*
X1032245Y828138D01*
X1032429Y828040D01*
X1032624Y827958D01*
X1032830Y827890D01*
X1033047Y827838D01*
X1033274Y827800D01*
X1033512Y827777D01*
X1033761Y827770D01*
Y825770D01*
X1033512Y825762D01*
X1033274Y825740D01*
X1033047Y825703D01*
X1032830Y825650D01*
X1032624Y825583D01*
X1032429Y825500D01*
X1032245Y825403D01*
X1032071Y825290D01*
X1031908Y825163D01*
X1031755Y825020D01*
Y828520D01*
X1031908Y828378D01*
D02*
G37*
G36*
X1027669Y828580D02*
X1027730Y828410D01*
X1027832Y828260D01*
X1027854Y828240D01*
X1027869Y828250D01*
X1028032Y828378D01*
X1028185Y828520D01*
Y828009D01*
X1028380Y827930D01*
X1028644Y827860D01*
X1028949Y827810D01*
X1029294Y827780D01*
X1029679Y827770D01*
Y825770D01*
X1029294Y825760D01*
X1028949Y825730D01*
X1028644Y825680D01*
X1028380Y825610D01*
X1028185Y825531D01*
Y825020D01*
X1028032Y825163D01*
X1027869Y825290D01*
X1027854Y825300D01*
X1027832Y825280D01*
X1027730Y825130D01*
X1027669Y824960D01*
X1027649Y824770D01*
Y825427D01*
X1027511Y825500D01*
X1027316Y825583D01*
X1027110Y825650D01*
X1026893Y825703D01*
X1026666Y825740D01*
X1026428Y825762D01*
X1026179Y825770D01*
Y827770D01*
X1026428Y827777D01*
X1026666Y827800D01*
X1026893Y827838D01*
X1027110Y827890D01*
X1027316Y827958D01*
X1027511Y828040D01*
X1027649Y828113D01*
Y828770D01*
X1027669Y828580D01*
D02*
G37*
G36*
X1074157Y798562D02*
X1074180Y798324D01*
X1074218Y798097D01*
X1074270Y797880D01*
X1074337Y797674D01*
X1074420Y797479D01*
X1074518Y797295D01*
X1074630Y797121D01*
X1074758Y796958D01*
X1074900Y796805D01*
X1071400D01*
X1071543Y796958D01*
X1071670Y797121D01*
X1071783Y797295D01*
X1071880Y797479D01*
X1071963Y797674D01*
X1072030Y797880D01*
X1072083Y798097D01*
X1072120Y798324D01*
X1072142Y798562D01*
X1072150Y798811D01*
X1074150D01*
X1074157Y798562D01*
D02*
G37*
G36*
X1056125Y767870D02*
X1055972Y768012D01*
X1055809Y768140D01*
X1055635Y768252D01*
X1055451Y768350D01*
X1055256Y768432D01*
X1055050Y768500D01*
X1054833Y768552D01*
X1054606Y768590D01*
X1054368Y768613D01*
X1054119Y768620D01*
Y770620D01*
X1054368Y770628D01*
X1054606Y770650D01*
X1054833Y770687D01*
X1055050Y770740D01*
X1055256Y770807D01*
X1055451Y770890D01*
X1055635Y770987D01*
X1055809Y771100D01*
X1055972Y771227D01*
X1056125Y771370D01*
Y767870D01*
D02*
G37*
G36*
X996687Y696963D02*
X996710Y696724D01*
X996748Y696497D01*
X996800Y696280D01*
X996868Y696074D01*
X996950Y695879D01*
X997048Y695695D01*
X997160Y695521D01*
X997288Y695358D01*
X997430Y695205D01*
X993930D01*
X994072Y695358D01*
X994200Y695521D01*
X994313Y695695D01*
X994410Y695879D01*
X994492Y696074D01*
X994560Y696280D01*
X994613Y696497D01*
X994650Y696724D01*
X994672Y696963D01*
X994680Y697211D01*
X996680D01*
X996687Y696963D01*
D02*
G37*
G36*
X976976Y718337D02*
X976816Y718210D01*
X976674Y718069D01*
X976548Y717914D01*
X976439Y717746D01*
X976347Y717564D01*
X976271Y717368D01*
X976212Y717159D01*
X976170Y716935D01*
X976145Y716698D01*
X976137Y716447D01*
X974137Y716789D01*
X974130Y717036D01*
X974112Y717274D01*
X974081Y717504D01*
X974038Y717726D01*
X973982Y717939D01*
X973914Y718143D01*
X973833Y718339D01*
X973740Y718526D01*
X973635Y718705D01*
X973518Y718875D01*
X976976Y718337D01*
D02*
G37*
G36*
X984943Y707937D02*
X984746Y707973D01*
X984550Y707985D01*
X984356Y707974D01*
X984163Y707941D01*
X983972Y707884D01*
X983782Y707804D01*
X983594Y707701D01*
X983406Y707575D01*
X983221Y707426D01*
X983036Y707254D01*
X981976Y709022D01*
X982147Y709200D01*
X982447Y709563D01*
X982578Y709748D01*
X982694Y709934D01*
X982798Y710123D01*
X982887Y710314D01*
X982964Y710507D01*
X983027Y710702D01*
X983076Y710898D01*
X984943Y707937D01*
D02*
G37*
G36*
X981448Y702042D02*
X981470Y701804D01*
X981507Y701577D01*
X981560Y701360D01*
X981628Y701154D01*
X981710Y700959D01*
X981807Y700775D01*
X981920Y700601D01*
X982048Y700438D01*
X982190Y700285D01*
X978690D01*
X978832Y700438D01*
X978960Y700601D01*
X979072Y700775D01*
X979170Y700959D01*
X979252Y701154D01*
X979320Y701360D01*
X979372Y701577D01*
X979410Y701804D01*
X979433Y702042D01*
X979440Y702291D01*
X981440D01*
X981448Y702042D01*
D02*
G37*
G36*
X967285Y700480D02*
X967335Y700465D01*
X967410Y700452D01*
X967511Y700440D01*
X967966Y700417D01*
X968649Y700409D01*
Y698409D01*
X968452Y698408D01*
X967859Y698369D01*
X967760Y698352D01*
X967680Y698331D01*
X967620Y698308D01*
X967579Y698281D01*
X967558Y698251D01*
X967260Y700496D01*
X967285Y700480D01*
D02*
G37*
G36*
X1081107Y754982D02*
X1080980Y754819D01*
X1080867Y754645D01*
X1080770Y754461D01*
X1080687Y754266D01*
X1080620Y754060D01*
X1080567Y753843D01*
X1080530Y753616D01*
X1080508Y753378D01*
X1080500Y753129D01*
X1078500D01*
X1078493Y753378D01*
X1078470Y753616D01*
X1078432Y753843D01*
X1078380Y754060D01*
X1078313Y754266D01*
X1078230Y754461D01*
X1078132Y754645D01*
X1078020Y754819D01*
X1077893Y754982D01*
X1077750Y755135D01*
X1081250D01*
X1081107Y754982D01*
D02*
G37*
G36*
X1076330Y699630D02*
X1076379Y699538D01*
X1076456Y699423D01*
X1076561Y699285D01*
X1076854Y698941D01*
X1077777Y697977D01*
X1076363Y696563D01*
X1076088Y696835D01*
X1074802Y697961D01*
X1074710Y698010D01*
X1074641Y698031D01*
X1076309Y699699D01*
X1076330Y699630D01*
D02*
G37*
G36*
X1106917Y699177D02*
X1107102Y699025D01*
X1107289Y698891D01*
X1107479Y698774D01*
X1107673Y698677D01*
X1107869Y698597D01*
X1108068Y698535D01*
X1108271Y698492D01*
X1108476Y698467D01*
X1108685Y698460D01*
X1106925Y696700D01*
Y694210D01*
X1106772Y694352D01*
X1106609Y694480D01*
X1106435Y694593D01*
X1106251Y694690D01*
X1106056Y694772D01*
X1105850Y694840D01*
X1105633Y694893D01*
X1105406Y694930D01*
X1105167Y694952D01*
X1104919Y694960D01*
Y696960D01*
X1105167Y696967D01*
X1105406Y696990D01*
X1105633Y697028D01*
X1105850Y697080D01*
X1105937Y697109D01*
X1105895Y697191D01*
X1105779Y697381D01*
X1105645Y697568D01*
X1105493Y697753D01*
X1105322Y697934D01*
X1106736Y699348D01*
X1106917Y699177D01*
D02*
G37*
G36*
X1077535Y696301D02*
X1077280Y696210D01*
X1077055Y696058D01*
X1076860Y695846D01*
X1076695Y695573D01*
X1076560Y695240D01*
X1076455Y694846D01*
X1076380Y694391D01*
X1076335Y693876D01*
X1076320Y693300D01*
X1073320D01*
X1073305Y693876D01*
X1073260Y694391D01*
X1073185Y694846D01*
X1073080Y695240D01*
X1072945Y695573D01*
X1072780Y695846D01*
X1072585Y696058D01*
X1072360Y696210D01*
X1072105Y696301D01*
X1071820Y696331D01*
X1077820D01*
X1077535Y696301D01*
D02*
G37*
G36*
X1076335Y685350D02*
X1076380Y684839D01*
X1076455Y684389D01*
X1076560Y683999D01*
X1076695Y683670D01*
X1076860Y683400D01*
X1077055Y683189D01*
X1077280Y683039D01*
X1077535Y682950D01*
X1077820Y682919D01*
X1071820D01*
X1072105Y682950D01*
X1072360Y683039D01*
X1072585Y683189D01*
X1072780Y683400D01*
X1072945Y683670D01*
X1073080Y683999D01*
X1073185Y684389D01*
X1073260Y684839D01*
X1073305Y685350D01*
X1073320Y685919D01*
X1076320D01*
X1076335Y685350D01*
D02*
G37*
G36*
X1025111Y679333D02*
X1025210Y679300D01*
X1025427Y679248D01*
X1025654Y679210D01*
X1025892Y679187D01*
X1026141Y679180D01*
Y677180D01*
X1025892Y677172D01*
X1025654Y677150D01*
X1025427Y677113D01*
X1025210Y677060D01*
X1025111Y677027D01*
Y676180D01*
X1025091Y676370D01*
X1025030Y676540D01*
X1024928Y676690D01*
X1024786Y676820D01*
X1024717Y676861D01*
X1024625Y676813D01*
X1024451Y676700D01*
X1024288Y676572D01*
X1024135Y676430D01*
Y677085D01*
X1024116Y677090D01*
X1023811Y677140D01*
X1023466Y677170D01*
X1023081Y677180D01*
Y679180D01*
X1023466Y679190D01*
X1023811Y679220D01*
X1024116Y679270D01*
X1024135Y679275D01*
Y679930D01*
X1024288Y679788D01*
X1024451Y679660D01*
X1024625Y679548D01*
X1024717Y679499D01*
X1024786Y679540D01*
X1024928Y679670D01*
X1025030Y679820D01*
X1025091Y679990D01*
X1025111Y680180D01*
Y679333D01*
D02*
G37*
G36*
X1076230Y655671D02*
X1076060Y655610D01*
X1075910Y655508D01*
X1075780Y655366D01*
X1075670Y655183D01*
X1075580Y654960D01*
X1075510Y654696D01*
X1075460Y654391D01*
X1075430Y654046D01*
X1075425Y653860D01*
X1075427Y653783D01*
X1075450Y653544D01*
X1075488Y653317D01*
X1075540Y653100D01*
X1075608Y652894D01*
X1075690Y652699D01*
X1075788Y652515D01*
X1075900Y652341D01*
X1076028Y652178D01*
X1076170Y652025D01*
X1072670D01*
X1072812Y652178D01*
X1072940Y652341D01*
X1073053Y652515D01*
X1073150Y652699D01*
X1073232Y652894D01*
X1073300Y653100D01*
X1073353Y653317D01*
X1073390Y653544D01*
X1073412Y653783D01*
X1073415Y653860D01*
X1073410Y654046D01*
X1073380Y654391D01*
X1073330Y654696D01*
X1073260Y654960D01*
X1073170Y655183D01*
X1073060Y655366D01*
X1072930Y655508D01*
X1072780Y655610D01*
X1072610Y655671D01*
X1072420Y655691D01*
X1076420D01*
X1076230Y655671D01*
D02*
G37*
G36*
X802038Y631527D02*
X802201Y631400D01*
X802375Y631287D01*
X802559Y631190D01*
X802754Y631107D01*
X802960Y631040D01*
X803177Y630988D01*
X803404Y630950D01*
X803643Y630928D01*
X803891Y630920D01*
Y628920D01*
X803643Y628913D01*
X803404Y628890D01*
X803177Y628853D01*
X802960Y628800D01*
X802754Y628732D01*
X802559Y628650D01*
X802375Y628553D01*
X802201Y628440D01*
X802038Y628312D01*
X801885Y628170D01*
Y631670D01*
X802038Y631527D01*
D02*
G37*
G36*
X809461Y627920D02*
X809441Y628110D01*
X809380Y628280D01*
X809278Y628430D01*
X809136Y628560D01*
X808953Y628670D01*
X808730Y628760D01*
X808466Y628830D01*
X808161Y628880D01*
X807816Y628910D01*
X807430Y628920D01*
Y630920D01*
X807816Y630930D01*
X808161Y630960D01*
X808466Y631010D01*
X808730Y631080D01*
X808953Y631170D01*
X809136Y631280D01*
X809278Y631410D01*
X809380Y631560D01*
X809441Y631730D01*
X809461Y631920D01*
Y627920D01*
D02*
G37*
G36*
X758520Y633705D02*
X758699Y633540D01*
X758999Y633395D01*
X759419Y633269D01*
X759959Y633162D01*
X760620Y633075D01*
X762299Y632959D01*
X764460Y632920D01*
Y626920D01*
X763319Y626910D01*
X759959Y626678D01*
X759419Y626571D01*
X758999Y626445D01*
X758699Y626300D01*
X758520Y626135D01*
X758459Y625951D01*
Y633890D01*
X758520Y633705D01*
D02*
G37*
G36*
X757639Y609575D02*
X757820Y609411D01*
X758120Y609265D01*
X758540Y609139D01*
X759080Y609032D01*
X759740Y608945D01*
X761420Y608829D01*
X763579Y608790D01*
Y602790D01*
X762439Y602780D01*
X759080Y602548D01*
X758540Y602441D01*
X758120Y602315D01*
X757820Y602169D01*
X757639Y602005D01*
X757579Y601820D01*
Y609759D01*
X757639Y609575D01*
D02*
G37*
G36*
X814160Y658864D02*
X814190Y658519D01*
X814240Y658214D01*
X814310Y657950D01*
X814400Y657727D01*
X814510Y657544D01*
X814640Y657402D01*
X814790Y657300D01*
X814960Y657239D01*
X815150Y657219D01*
X811150D01*
X811340Y657239D01*
X811510Y657300D01*
X811660Y657402D01*
X811790Y657544D01*
X811900Y657727D01*
X811990Y657950D01*
X812060Y658214D01*
X812110Y658519D01*
X812140Y658864D01*
X812150Y659249D01*
X814150D01*
X814160Y658864D01*
D02*
G37*
G36*
X809461Y653864D02*
X809527Y653848D01*
X809754Y653810D01*
X809993Y653788D01*
X810241Y653780D01*
Y651780D01*
X809993Y651773D01*
X809754Y651750D01*
X809527Y651712D01*
X809461Y651696D01*
Y650780D01*
X809441Y650970D01*
X809380Y651140D01*
X809278Y651290D01*
X809136Y651420D01*
X808955Y651529D01*
X808909Y651510D01*
X808725Y651413D01*
X808551Y651300D01*
X808388Y651172D01*
X808235Y651030D01*
Y651728D01*
X808161Y651740D01*
X807816Y651770D01*
X807430Y651780D01*
Y653780D01*
X807816Y653790D01*
X808161Y653820D01*
X808235Y653832D01*
Y654530D01*
X808388Y654388D01*
X808551Y654260D01*
X808725Y654147D01*
X808909Y654050D01*
X808955Y654031D01*
X809136Y654140D01*
X809278Y654270D01*
X809380Y654420D01*
X809441Y654590D01*
X809461Y654780D01*
Y653864D01*
D02*
G37*
G36*
X910075Y600230D02*
X909922Y600373D01*
X909759Y600500D01*
X909585Y600612D01*
X909401Y600710D01*
X909206Y600793D01*
X909000Y600860D01*
X908783Y600913D01*
X908556Y600950D01*
X908317Y600973D01*
X908069Y600980D01*
Y602980D01*
X908317Y602988D01*
X908556Y603010D01*
X908783Y603047D01*
X909000Y603100D01*
X909206Y603167D01*
X909401Y603250D01*
X909585Y603348D01*
X909759Y603460D01*
X909922Y603587D01*
X910075Y603730D01*
Y600230D01*
D02*
G37*
G36*
X968081Y588200D02*
X968020Y588242D01*
X967840Y588279D01*
X967541Y588312D01*
X966581Y588365D01*
X962081Y588420D01*
Y594420D01*
X968081Y594640D01*
Y588200D01*
D02*
G37*
G36*
X955537Y594598D02*
X955717Y594561D01*
X956017Y594528D01*
X956977Y594475D01*
X961477Y594420D01*
Y588420D01*
X955477Y588200D01*
Y594640D01*
X955537Y594598D01*
D02*
G37*
G36*
X973605Y589163D02*
X973384Y588786D01*
X973188Y588365D01*
X973139Y588231D01*
X973550D01*
X973360Y588211D01*
X973190Y588150D01*
X973083Y588078D01*
X973019Y587901D01*
X972876Y587393D01*
X972758Y586841D01*
X972754Y586815D01*
X972820Y586659D01*
X972917Y586475D01*
X973030Y586301D01*
X973158Y586138D01*
X973300Y585985D01*
X972647D01*
X972563Y584926D01*
X972550Y584200D01*
X970550D01*
X970537Y584926D01*
X970453Y585985D01*
X969800D01*
X969942Y586138D01*
X970070Y586301D01*
X970182Y586475D01*
X970280Y586659D01*
X970346Y586815D01*
X970342Y586841D01*
X970224Y587393D01*
X970081Y587901D01*
X970016Y588078D01*
X969910Y588150D01*
X969740Y588211D01*
X969550Y588231D01*
X969961D01*
X969912Y588365D01*
X969716Y588786D01*
X969495Y589163D01*
X969247Y589497D01*
X973853D01*
X973605Y589163D01*
D02*
G37*
G36*
X758520Y585445D02*
X758699Y585280D01*
X758999Y585135D01*
X759419Y585009D01*
X759959Y584902D01*
X760620Y584815D01*
X762299Y584699D01*
X764460Y584660D01*
Y578660D01*
X763319Y578650D01*
X759959Y578418D01*
X759419Y578311D01*
X758999Y578185D01*
X758699Y578040D01*
X758520Y577875D01*
X758459Y577691D01*
Y585630D01*
X758520Y585445D01*
D02*
G37*
G36*
X886797Y579722D02*
X886670Y579559D01*
X886557Y579385D01*
X886460Y579201D01*
X886377Y579006D01*
X886310Y578800D01*
X886257Y578583D01*
X886220Y578356D01*
X886198Y578117D01*
X886190Y577869D01*
X884190D01*
X884183Y578117D01*
X884160Y578356D01*
X884122Y578583D01*
X884070Y578800D01*
X884003Y579006D01*
X883920Y579201D01*
X883822Y579385D01*
X883710Y579559D01*
X883583Y579722D01*
X883440Y579875D01*
X886940D01*
X886797Y579722D01*
D02*
G37*
G36*
X865939Y568230D02*
X866000Y568060D01*
X866102Y567910D01*
X866244Y567780D01*
X866427Y567670D01*
X866650Y567580D01*
X866914Y567510D01*
X867219Y567460D01*
X867564Y567430D01*
X867950Y567420D01*
Y565420D01*
X867564Y565410D01*
X867219Y565380D01*
X866914Y565330D01*
X866650Y565260D01*
X866427Y565170D01*
X866244Y565060D01*
X866102Y564930D01*
X866000Y564780D01*
X865939Y564610D01*
X865919Y564420D01*
Y568420D01*
X865939Y568230D01*
D02*
G37*
G36*
X741180Y625891D02*
X740930Y625710D01*
X740710Y625410D01*
X740519Y624991D01*
X740357Y624450D01*
X740225Y623791D01*
X740122Y623010D01*
X740005Y621091D01*
X739990Y619950D01*
X733990D01*
X733975Y621091D01*
X733755Y623791D01*
X733623Y624450D01*
X733461Y624991D01*
X733270Y625410D01*
X733049Y625710D01*
X732800Y625891D01*
X732521Y625951D01*
X741460D01*
X741180Y625891D01*
D02*
G37*
G36*
X739996Y614619D02*
X740279Y610299D01*
X740367Y610000D01*
X740468Y609819D01*
X740580Y609759D01*
X731640D01*
X732087Y609819D01*
X732486Y610000D01*
X732839Y610299D01*
X733144Y610719D01*
X733403Y611259D01*
X733614Y611920D01*
X733779Y612700D01*
X733896Y613600D01*
X733967Y614619D01*
X733990Y615760D01*
X739990D01*
X739996Y614619D01*
D02*
G37*
G36*
X740468Y601760D02*
X740367Y601581D01*
X740279Y601281D01*
X740202Y600860D01*
X740137Y600321D01*
X740043Y598881D01*
X739990Y595821D01*
X733990D01*
X733967Y596960D01*
X733779Y598881D01*
X733614Y599660D01*
X733403Y600321D01*
X733144Y600860D01*
X732839Y601281D01*
X732486Y601581D01*
X732087Y601760D01*
X731640Y601820D01*
X740580D01*
X740468Y601760D01*
D02*
G37*
G36*
X740005Y590490D02*
X740225Y587789D01*
X740357Y587130D01*
X740519Y586590D01*
X740710Y586170D01*
X740930Y585869D01*
X741180Y585690D01*
X741460Y585630D01*
X732521D01*
X732800Y585690D01*
X733049Y585869D01*
X733270Y586170D01*
X733461Y586590D01*
X733623Y587130D01*
X733755Y587789D01*
X733858Y588569D01*
X733975Y590490D01*
X733990Y591629D01*
X739990D01*
X740005Y590490D01*
D02*
G37*
G36*
X741180Y577631D02*
X740930Y577450D01*
X740710Y577150D01*
X740519Y576730D01*
X740357Y576190D01*
X740225Y575531D01*
X740122Y574751D01*
X740005Y572831D01*
X739990Y571690D01*
X733990D01*
X733975Y572831D01*
X733755Y575531D01*
X733623Y576190D01*
X733461Y576730D01*
X733270Y577150D01*
X733049Y577450D01*
X732800Y577631D01*
X732521Y577691D01*
X741460D01*
X741180Y577631D01*
D02*
G37*
G36*
X894055Y557570D02*
X893847Y557563D01*
X893641Y557538D01*
X893438Y557495D01*
X893239Y557433D01*
X893043Y557353D01*
X892849Y557256D01*
X892659Y557139D01*
X892472Y557005D01*
X892288Y556853D01*
X892106Y556682D01*
X890692Y558096D01*
X890863Y558278D01*
X891015Y558462D01*
X891149Y558649D01*
X891265Y558839D01*
X891363Y559033D01*
X891443Y559229D01*
X891505Y559428D01*
X891548Y559631D01*
X891573Y559837D01*
X891580Y560045D01*
X894055Y557570D01*
D02*
G37*
G36*
X865939Y549180D02*
X866000Y549010D01*
X866102Y548860D01*
X866244Y548730D01*
X866427Y548620D01*
X866650Y548530D01*
X866914Y548460D01*
X867219Y548410D01*
X867564Y548380D01*
X867950Y548370D01*
Y546370D01*
X867564Y546360D01*
X867219Y546330D01*
X866914Y546280D01*
X866650Y546210D01*
X866427Y546120D01*
X866244Y546010D01*
X866102Y545880D01*
X866000Y545730D01*
X865939Y545560D01*
X865919Y545370D01*
Y549370D01*
X865939Y549180D01*
D02*
G37*
G36*
X747092Y516240D02*
X747034Y516178D01*
X746983Y516091D01*
X746938Y515980D01*
X746899Y515845D01*
X746865Y515686D01*
X746838Y515502D01*
X746802Y515062D01*
X746790Y514525D01*
X743790Y514827D01*
X743788Y515110D01*
X743723Y516146D01*
X743698Y516278D01*
X743670Y516384D01*
X743638Y516465D01*
X743603Y516520D01*
X747092Y516240D01*
D02*
G37*
G36*
X746805Y494844D02*
X746850Y494328D01*
X746925Y493874D01*
X747030Y493480D01*
X747165Y493147D01*
X747330Y492874D01*
X747525Y492662D01*
X747750Y492510D01*
X748005Y492419D01*
X748290Y492389D01*
X742290D01*
X742575Y492419D01*
X742830Y492510D01*
X743055Y492662D01*
X743250Y492874D01*
X743415Y493147D01*
X743550Y493480D01*
X743655Y493874D01*
X743730Y494328D01*
X743775Y494844D01*
X743790Y495420D01*
X746790D01*
X746805Y494844D01*
D02*
G37*
D10*
X1239130Y693420D02*
X1256030D01*
X1253992Y676910D02*
X1256569Y679487D01*
X1239130Y676910D02*
X1253992D01*
X1256030Y693420D02*
X1262380Y687070D01*
X1256569Y679487D02*
X1256840D01*
D13*
X750570Y645160D02*
X758190Y652780D01*
X659130Y682063D02*
X696032Y645160D01*
X750570D01*
X762000Y933450D02*
X891540Y803910D01*
X679975Y933450D02*
X762000D01*
X659130Y912605D02*
X679975Y933450D01*
X1221890Y827119D02*
X1222288Y827517D01*
X1221890Y784860D02*
Y827119D01*
X825150Y652780D02*
X836916D01*
X736990Y581660D02*
Y629920D01*
X736600Y566420D02*
X736990Y566810D01*
Y581660D01*
X901700Y725570D02*
Y734060D01*
Y725570D02*
X922020D01*
X992160Y824520D02*
X1002710D01*
X1004960Y826770D01*
X986790Y819150D02*
X992160Y824520D01*
X996950Y779780D02*
X1008380Y791210D01*
X1038953D01*
X891540Y803910D02*
X932180D01*
X941070Y812800D01*
Y857250D01*
X893930Y821840D02*
Y827790D01*
X908050Y821690D02*
Y831230D01*
X893930Y821840D02*
X894080Y821690D01*
X893680Y828040D02*
X893930Y827790D01*
X907430Y831850D02*
Y839190D01*
Y831850D02*
X908050Y831230D01*
X907430Y839190D02*
X918200Y849960D01*
Y854710D01*
X893180Y828540D02*
X893430D01*
X893680Y828290D01*
X885200Y836520D02*
Y854710D01*
Y836520D02*
X893180Y828540D01*
X893680Y828040D02*
Y828290D01*
X849230Y556649D02*
Y566420D01*
Y546877D02*
Y556649D01*
X1120290Y455930D02*
X1126490D01*
X1167130Y569689D02*
X1169670Y567149D01*
X1167130Y569689D02*
Y570230D01*
X839140Y566920D02*
X848980D01*
X849230Y566670D01*
Y566420D02*
Y566670D01*
X825150Y580910D02*
Y581660D01*
Y580910D02*
X839140Y566920D01*
X825150Y629920D02*
Y652780D01*
Y605790D02*
Y629920D01*
X621030Y753580D02*
X649840Y724770D01*
X621030Y753580D02*
Y874505D01*
X659130Y912605D01*
X649840Y724770D02*
X716280D01*
X631190Y610003D02*
Y706120D01*
X649840Y724770D01*
X631190Y610003D02*
X659130Y582062D01*
X678180Y419100D02*
Y563013D01*
X659130Y582062D02*
X678180Y563013D01*
X665880Y406800D02*
X678180Y419100D01*
X647700Y406800D02*
X665880D01*
X1387480Y944880D02*
X1390020Y942340D01*
X753990Y629920D02*
X765810D01*
X753110Y605790D02*
X767080D01*
X753990Y581660D02*
X767080D01*
X1210310Y1108710D02*
Y1116725D01*
X1217535Y1123950D01*
X1210310Y1101090D02*
Y1107440D01*
Y1093470D02*
Y1101090D01*
Y1085850D02*
Y1093470D01*
X1170940Y1087120D02*
X1210310D01*
X1307780Y755650D02*
X1310320Y753110D01*
X1309050Y751840D02*
X1310320Y753110D01*
X952007Y591420D02*
X971550D01*
D14*
X657159Y878312D02*
G03*
X661101Y878312I1971J9293D01*
G01*
X878840Y675640D02*
Y764540D01*
X788067Y855312D02*
X878840Y764540D01*
X869950Y666750D02*
X878840Y675640D01*
X726440Y855312D02*
X788067D01*
X883920Y673100D02*
X933450Y623570D01*
X998220D01*
X1026160Y595630D01*
X891540Y692150D02*
X931490Y652200D01*
X976498D01*
X886460Y690880D02*
X935140Y642200D01*
X962627D01*
X976498Y652200D02*
X978458Y650240D01*
X962627Y642200D02*
X963047Y642620D01*
X978458Y650240D02*
X979170D01*
X963047Y642620D02*
X972820D01*
X815900Y585160D02*
X816650D01*
X855060Y623570D01*
X813150Y581660D02*
Y582410D01*
X855060Y623570D02*
X872490D01*
X813150Y582410D02*
X815900Y585160D01*
X803910Y605790D02*
X813150D01*
X803910Y580390D02*
X811880D01*
X813150Y581660D01*
X782320Y890270D02*
X932180Y740410D01*
X702310Y890270D02*
X782320D01*
X685800Y873760D02*
X702310Y890270D01*
X995680Y660400D02*
X1038860Y617220D01*
X937260Y669290D02*
X946150Y660400D01*
X995680D01*
X1062660Y735370D02*
X1065530D01*
X1060450Y733160D02*
X1062660Y735370D01*
X1060450Y747660D02*
X1062090D01*
X1065530Y744220D01*
X651275Y878605D02*
X655776D01*
X661101Y878312D02*
X663592Y878840D01*
X680720D01*
X655776Y878605D02*
X657159Y878312D01*
X653220Y873760D02*
X685800D01*
X645160Y861363D02*
X653220Y873760D01*
X680720Y878840D02*
X695960Y894080D01*
X645160Y860770D02*
X645160Y861363D01*
X645160Y822960D02*
Y860770D01*
Y822960D02*
X652251Y815869D01*
X638810Y810260D02*
Y866140D01*
X651275Y878605D01*
X655883Y812605D02*
X659130D01*
X652251Y815869D02*
X652619D01*
X655883Y812605D01*
X659130Y787605D02*
Y789940D01*
X638810Y810260D02*
X659130Y789940D01*
X995680Y693420D02*
Y739977D01*
X1025323Y769620D01*
X968649Y699409D02*
X975137Y705897D01*
Y719985D01*
X965200Y699080D02*
X965529Y699409D01*
X968649D01*
X980440Y698500D02*
Y706072D01*
X984738Y710370D01*
X985520D01*
X975137Y719985D02*
X975521Y720370D01*
X784860Y894080D02*
X937260Y741680D01*
Y669290D02*
Y741680D01*
X932180Y668020D02*
Y740410D01*
X695960Y894080D02*
X784860D01*
X884040Y780483D02*
X920303Y744220D01*
X920750D01*
X884040Y780483D02*
Y780483D01*
X784211Y880312D02*
X884040Y780483D01*
X726440Y880312D02*
X784211D01*
X1018540Y782320D02*
X1079500D01*
X947420Y711200D02*
X1018540Y782320D01*
X1194670Y689610D02*
X1195070Y690010D01*
X1189990Y689610D02*
X1194670D01*
X886460Y690880D02*
Y763270D01*
X1195940Y675640D02*
X1220860D01*
X859790Y665480D02*
Y777240D01*
X806718Y830312D02*
X859790Y777240D01*
Y665480D02*
X947510Y577760D01*
X904240Y601980D02*
X911860D01*
X839470Y666750D02*
X904240Y601980D01*
X819150Y666750D02*
X839470D01*
X833120Y684530D02*
X873760Y643890D01*
X813150Y660750D02*
X819150Y666750D01*
X806450Y652780D02*
X811530D01*
X813150D02*
Y660750D01*
X910132Y549910D02*
X911402Y551180D01*
X927010D01*
X909320Y549910D02*
X910132D01*
X947420Y676917D02*
Y711200D01*
X1079500Y725170D02*
Y756920D01*
Y725170D02*
X1108710Y695960D01*
X1064260Y477520D02*
X1064821Y476959D01*
X1106581D01*
X1066800Y518160D02*
X1107290D01*
X1065530Y497840D02*
X1107290D01*
X1106581Y476959D02*
X1107290Y476250D01*
X1195490Y771460D02*
X1205890Y781860D01*
X1189990Y770890D02*
X1190560Y771460D01*
X1195490D01*
X1205890Y781860D02*
X1206890D01*
X1208890Y783860D02*
Y784860D01*
X1206890Y781860D02*
X1208890Y783860D01*
X1056640Y609600D02*
Y629920D01*
X1042670Y595630D02*
X1056640Y609600D01*
X1039688Y601538D02*
X1046480Y608330D01*
Y626110D01*
X1030412Y601538D02*
X1039688D01*
X989573Y656347D02*
X1036320Y609600D01*
X943853Y656347D02*
X989573D01*
X1026160Y595630D02*
X1042670D01*
X1003300Y628650D02*
X1030412Y601538D01*
X939800Y628650D02*
X1003300D01*
X886460Y681990D02*
X939800Y628650D01*
X979170Y636270D02*
X985520D01*
X972820Y642620D02*
X979170Y636270D01*
X891540Y692150D02*
Y764540D01*
X784860Y864870D02*
X886460Y763270D01*
X932180Y668020D02*
X943853Y656347D01*
X942340Y674370D02*
Y718820D01*
X947420Y676917D02*
X957580Y666757D01*
X942340Y674370D02*
X948690Y668020D01*
X786130Y869950D02*
X891540Y764540D01*
X901700Y706120D02*
X906780Y701040D01*
X918210Y701852D02*
X919520Y703162D01*
X918210Y701040D02*
Y701852D01*
X919520Y703162D02*
Y709820D01*
X947510Y551180D02*
Y577760D01*
Y551151D02*
Y551180D01*
X942340Y718820D02*
X952500Y728980D01*
X666475Y869950D02*
X786130D01*
X659130Y862605D02*
X666475Y869950D01*
X686395Y864870D02*
X784860D01*
X659130Y837605D02*
X686395Y864870D01*
X726440Y830312D02*
X806718D01*
X947510Y551151D02*
X951291Y547370D01*
X955040D01*
X921770Y712070D02*
X922020D01*
X919520Y709820D02*
X921770Y712070D01*
X901700Y706120D02*
Y712070D01*
X1220860Y675640D02*
X1222130Y676910D01*
X1220860Y675640D02*
X1222130Y676910D01*
X1217930Y675640D02*
X1220860D01*
X1195070Y676510D02*
X1195940Y675640D01*
X1195070Y662070D02*
X1195470Y661670D01*
X1200150D01*
X1195070Y690010D02*
X1218220D01*
X1195070Y642620D02*
Y648570D01*
X1022350Y678180D02*
X1028300D01*
X881380Y547370D02*
X894080Y560070D01*
X863223Y547370D02*
X881380D01*
X862730Y546877D02*
X863223Y547370D01*
X1218220Y690010D02*
X1221630Y693420D01*
X1222130D01*
X885190Y576580D02*
Y581660D01*
X875030Y566420D02*
X885190Y576580D01*
X862730Y566420D02*
X875030D01*
X800100Y629920D02*
X810610D01*
X1064260Y455930D02*
X1107290D01*
X971550Y584200D02*
Y591420D01*
X1027923Y657860D02*
X1028700Y658637D01*
X1026160Y657860D02*
X1027923D01*
X1029970Y826770D02*
X1062990D01*
X1021960D02*
X1029970D01*
X1051460Y811530D02*
X1064260D01*
X1062990Y826770D02*
X1073150Y816610D01*
Y795020D02*
Y816610D01*
X1025323Y769620D02*
X1057910D01*
X1051467Y791210D02*
X1062990D01*
X1073550Y659130D02*
X1074420Y658260D01*
Y650240D02*
Y658260D01*
X1074820Y699520D02*
X1077070Y697270D01*
X1077320D01*
X1078630Y695960D01*
X1108710D01*
D34*
X758590Y488950D02*
D03*
X745090D02*
D03*
X1074820Y699770D02*
D03*
X1061320D02*
D03*
X1074820Y679450D02*
D03*
X1061320D02*
D03*
X1073550Y659130D02*
D03*
X1060050D02*
D03*
X907180Y828040D02*
D03*
X893680D02*
D03*
X1028700Y658637D02*
D03*
X1042200D02*
D03*
X862730Y566420D02*
D03*
X849230D02*
D03*
X1028300Y678180D02*
D03*
X1041800D02*
D03*
X862730Y546877D02*
D03*
X849230D02*
D03*
D35*
X918200Y854710D02*
D03*
X885200D02*
D03*
X1189288Y827517D02*
D03*
X1222288D02*
D03*
X1176030Y577850D02*
D03*
X1209030D02*
D03*
X1176030Y611393D02*
D03*
X1209030D02*
D03*
X1190000Y861060D02*
D03*
X1223000D02*
D03*
D36*
X753990Y581660D02*
D03*
X736990D02*
D03*
X753990Y629920D02*
D03*
X736990D02*
D03*
X753110Y605790D02*
D03*
X736110D02*
D03*
X1239130Y693420D02*
D03*
X1222130D02*
D03*
X1239130Y676910D02*
D03*
X1222130D02*
D03*
D41*
X947510Y551180D02*
D03*
X927010D02*
D03*
D42*
X1060450Y733160D02*
D03*
Y747660D02*
D03*
D44*
X1195070Y690010D02*
D03*
Y676510D02*
D03*
X922020Y712070D02*
D03*
Y725570D02*
D03*
X952007Y591420D02*
D03*
Y604920D02*
D03*
X971550Y591420D02*
D03*
Y604920D02*
D03*
X901700Y712070D02*
D03*
Y725570D02*
D03*
X1195070Y648570D02*
D03*
Y662070D02*
D03*
D50*
X825150Y581660D02*
D03*
X813150D02*
D03*
Y652780D02*
D03*
X825150D02*
D03*
X813150Y629920D02*
D03*
X825150D02*
D03*
X813150Y605790D02*
D03*
X825150D02*
D03*
D54*
X1051467Y791210D02*
D03*
X1038953D02*
D03*
D91*
X659130Y582062D02*
D03*
Y912605D02*
D03*
X726440Y905312D02*
D03*
X716280Y699770D02*
D03*
X647700Y406800D02*
D03*
D92*
X659130Y607062D02*
D03*
Y632062D02*
D03*
Y657063D02*
D03*
Y682063D02*
D03*
Y707063D02*
D03*
Y887605D02*
D03*
Y862605D02*
D03*
Y837605D02*
D03*
Y812605D02*
D03*
Y787605D02*
D03*
Y762605D02*
D03*
X726440Y880312D02*
D03*
Y855312D02*
D03*
Y830312D02*
D03*
Y805312D02*
D03*
X716280Y724770D02*
D03*
Y749770D02*
D03*
X647700Y481800D02*
D03*
Y456800D02*
D03*
Y431800D02*
D03*
D93*
X706440Y921312D02*
D03*
D98*
X1440577Y546497D02*
X1445260Y551180D01*
Y624840D01*
X1426140Y544120D02*
X1428517Y546497D01*
X1440577D01*
X1454260Y550964D02*
Y624840D01*
Y550964D02*
X1458154Y547070D01*
X1465040D01*
X1467990Y544120D01*
X1475740D01*
X1450210Y1025600D02*
X1458810Y1017000D01*
Y1016184D02*
Y1017000D01*
X1459810Y1014270D02*
Y1015184D01*
X1458810Y1016184D02*
X1459810Y1015184D01*
X1172210Y516890D02*
X1203960Y485140D01*
X1219200D01*
X1120290Y476250D02*
X1129030D01*
X1120290Y518160D02*
X1127760D01*
X1120290Y497840D02*
X1127760D01*
X1439510Y1035620D02*
X1447260D01*
X1481360D02*
X1489110D01*
X1468487Y1022747D02*
X1481360Y1035620D01*
X1466557Y1022747D02*
X1468487D01*
X1466174Y1022364D02*
X1466557Y1022747D01*
X1447260Y1035620D02*
X1450210Y1032670D01*
Y1025600D02*
Y1032670D01*
X758190Y518160D02*
X758390Y517960D01*
Y489150D02*
X758590Y488950D01*
X758390Y489150D02*
Y517960D01*
X745290Y489150D02*
Y517960D01*
X745490Y518160D01*
X745090Y488950D02*
X745290Y489150D01*
X1074820Y699520D02*
Y699770D01*
Y679450D02*
Y699520D01*
D99*
X1725930Y591820D02*
D03*
X1723390Y1123950D02*
D03*
X1210310Y402590D02*
D03*
X777240Y1125220D02*
D03*
D100*
X1012190Y1112520D02*
D03*
X1172210Y1113790D02*
D03*
D101*
X1725930Y977900D02*
D03*
X1724025Y746760D02*
D03*
X1725930Y481330D02*
D03*
D102*
X1277593Y882918D02*
D03*
Y870218D02*
D03*
Y841008D02*
D03*
Y828308D02*
D03*
X1278863Y745758D02*
D03*
Y731788D02*
D03*
X1280160Y687070D02*
D03*
X1280133Y678448D02*
D03*
Y637808D02*
D03*
Y622568D02*
D03*
Y576848D02*
D03*
Y560338D02*
D03*
Y545098D02*
D03*
X873733Y691148D02*
D03*
X869950Y666750D02*
D03*
X854683Y772428D02*
D03*
X866113Y750838D02*
D03*
X919754Y627799D02*
D03*
X883920Y673100D02*
D03*
X956310Y647200D02*
D03*
X970280Y617220D02*
D03*
X952500D02*
D03*
X1191260Y720370D02*
D03*
X1200150Y720090D02*
D03*
X803910Y605790D02*
D03*
Y580390D02*
D03*
X1197610Y750990D02*
D03*
X1187450Y745394D02*
D03*
X1065530Y735370D02*
D03*
Y744220D02*
D03*
X985520Y710370D02*
D03*
X975521Y720370D02*
D03*
X1256030Y645160D02*
D03*
X1249666Y651524D02*
D03*
X1256840Y679487D02*
D03*
X1262380Y687070D02*
D03*
X1454260Y624840D02*
D03*
X1445260D02*
D03*
X1459810Y1014270D02*
D03*
X904240Y786130D02*
D03*
X920750Y744220D02*
D03*
X965200Y699080D02*
D03*
X980440Y698500D02*
D03*
X995680Y693420D02*
D03*
X1079500Y782320D02*
D03*
X1184910Y699770D02*
D03*
X1189990Y689610D02*
D03*
X852170Y608330D02*
D03*
X872490Y623570D02*
D03*
X833120Y684530D02*
D03*
X873760Y643890D02*
D03*
X836916Y652780D02*
D03*
X911860Y601980D02*
D03*
X909320Y549910D02*
D03*
X971550Y554990D02*
D03*
X872490Y584200D02*
D03*
X721360Y652780D02*
D03*
X736600Y566420D02*
D03*
X901700Y734060D02*
D03*
X1131570Y439420D02*
D03*
X1076960Y768350D02*
D03*
X986790Y819150D02*
D03*
X1017270Y770890D02*
D03*
X996950Y779780D02*
D03*
X1160780Y488950D02*
D03*
X1102360Y414020D02*
D03*
X941070Y857250D02*
D03*
X894080Y821690D02*
D03*
X908050D02*
D03*
X795020Y763270D02*
D03*
X789940Y716280D02*
D03*
X849230Y556649D02*
D03*
X967740Y523240D02*
D03*
X918210Y458470D02*
D03*
X996950Y1130300D02*
D03*
X1004570D02*
D03*
X1012190D02*
D03*
X1019810D02*
D03*
X1027430D02*
D03*
Y1122680D02*
D03*
X1019810D02*
D03*
X1012190D02*
D03*
X1004570D02*
D03*
X996950D02*
D03*
Y1115060D02*
D03*
X1004570D02*
D03*
X1012190D02*
D03*
X1019810D02*
D03*
X1027430D02*
D03*
Y1107440D02*
D03*
X1019810D02*
D03*
X1012190D02*
D03*
X1004570D02*
D03*
X996950D02*
D03*
Y1099820D02*
D03*
X1004570D02*
D03*
X1012190D02*
D03*
X1019810D02*
D03*
X1027430D02*
D03*
Y1092200D02*
D03*
X1019810D02*
D03*
X1012190D02*
D03*
X1004570D02*
D03*
X996950D02*
D03*
Y1084580D02*
D03*
X1004570D02*
D03*
X1012190D02*
D03*
X1019810D02*
D03*
X1027430D02*
D03*
Y1076960D02*
D03*
X1019810D02*
D03*
X1012190D02*
D03*
X1004570D02*
D03*
X996950D02*
D03*
Y1069340D02*
D03*
X1004570D02*
D03*
X1012190D02*
D03*
X1019810D02*
D03*
X1027430D02*
D03*
Y1137920D02*
D03*
X1019810D02*
D03*
X1012190D02*
D03*
X1004570D02*
D03*
X996950D02*
D03*
Y1145540D02*
D03*
X1004570D02*
D03*
X1012190D02*
D03*
X1019810D02*
D03*
X1027430Y1153160D02*
D03*
X1019810D02*
D03*
X1012190D02*
D03*
X1004570D02*
D03*
X996950D02*
D03*
X1027430Y1145540D02*
D03*
X1035050Y1153160D02*
D03*
Y1145540D02*
D03*
Y1137920D02*
D03*
Y1130300D02*
D03*
Y1122680D02*
D03*
Y1115060D02*
D03*
Y1107440D02*
D03*
Y1099820D02*
D03*
Y1092200D02*
D03*
Y1084580D02*
D03*
Y1076960D02*
D03*
Y1069340D02*
D03*
X1042670Y1153160D02*
D03*
Y1145540D02*
D03*
Y1137920D02*
D03*
Y1130300D02*
D03*
Y1122680D02*
D03*
Y1115060D02*
D03*
Y1107440D02*
D03*
Y1099820D02*
D03*
Y1092200D02*
D03*
Y1084580D02*
D03*
Y1076960D02*
D03*
Y1069340D02*
D03*
X1050290Y1145540D02*
D03*
Y1137920D02*
D03*
Y1130300D02*
D03*
Y1122680D02*
D03*
Y1115060D02*
D03*
Y1107440D02*
D03*
Y1099820D02*
D03*
Y1092200D02*
D03*
Y1084580D02*
D03*
Y1076960D02*
D03*
X989330Y1069340D02*
D03*
Y1076960D02*
D03*
Y1084580D02*
D03*
Y1092200D02*
D03*
Y1099820D02*
D03*
Y1107440D02*
D03*
Y1115060D02*
D03*
Y1122680D02*
D03*
Y1130300D02*
D03*
Y1137920D02*
D03*
Y1145540D02*
D03*
Y1153160D02*
D03*
X981710D02*
D03*
Y1145540D02*
D03*
Y1137920D02*
D03*
Y1130300D02*
D03*
Y1122680D02*
D03*
Y1115060D02*
D03*
Y1107440D02*
D03*
Y1099820D02*
D03*
Y1092200D02*
D03*
Y1084580D02*
D03*
Y1076960D02*
D03*
Y1069340D02*
D03*
X974090Y1076960D02*
D03*
Y1084580D02*
D03*
Y1092200D02*
D03*
Y1099820D02*
D03*
Y1107440D02*
D03*
Y1115060D02*
D03*
Y1122680D02*
D03*
Y1130300D02*
D03*
Y1137920D02*
D03*
Y1145540D02*
D03*
X1134110Y1146810D02*
D03*
Y1139190D02*
D03*
Y1131570D02*
D03*
Y1123950D02*
D03*
Y1116330D02*
D03*
Y1108710D02*
D03*
Y1101090D02*
D03*
Y1093470D02*
D03*
Y1085850D02*
D03*
Y1078230D02*
D03*
X1141730Y1070610D02*
D03*
Y1078230D02*
D03*
Y1085850D02*
D03*
Y1093470D02*
D03*
Y1101090D02*
D03*
Y1108710D02*
D03*
Y1116330D02*
D03*
Y1123950D02*
D03*
Y1131570D02*
D03*
Y1139190D02*
D03*
Y1146810D02*
D03*
Y1154430D02*
D03*
X1149350D02*
D03*
Y1146810D02*
D03*
Y1139190D02*
D03*
Y1131570D02*
D03*
Y1123950D02*
D03*
Y1116330D02*
D03*
Y1108710D02*
D03*
Y1101090D02*
D03*
Y1093470D02*
D03*
Y1085850D02*
D03*
Y1078230D02*
D03*
Y1070610D02*
D03*
X1210310Y1078230D02*
D03*
Y1085850D02*
D03*
Y1093470D02*
D03*
Y1101090D02*
D03*
Y1108710D02*
D03*
Y1116330D02*
D03*
Y1123950D02*
D03*
Y1131570D02*
D03*
Y1139190D02*
D03*
Y1146810D02*
D03*
X1202690Y1070610D02*
D03*
Y1078230D02*
D03*
Y1085850D02*
D03*
Y1093470D02*
D03*
Y1101090D02*
D03*
Y1108710D02*
D03*
Y1116330D02*
D03*
Y1123950D02*
D03*
Y1131570D02*
D03*
Y1139190D02*
D03*
Y1146810D02*
D03*
Y1154430D02*
D03*
X1195070Y1070610D02*
D03*
Y1078230D02*
D03*
Y1085850D02*
D03*
Y1093470D02*
D03*
Y1101090D02*
D03*
Y1108710D02*
D03*
Y1116330D02*
D03*
Y1123950D02*
D03*
Y1131570D02*
D03*
Y1139190D02*
D03*
Y1146810D02*
D03*
Y1154430D02*
D03*
X1187450Y1146810D02*
D03*
X1156970Y1154430D02*
D03*
X1164590D02*
D03*
X1172210D02*
D03*
X1179830D02*
D03*
X1187450D02*
D03*
X1179830Y1146810D02*
D03*
X1172210D02*
D03*
X1164590D02*
D03*
X1156970D02*
D03*
Y1139190D02*
D03*
X1164590D02*
D03*
X1172210D02*
D03*
X1179830D02*
D03*
X1187450D02*
D03*
Y1070610D02*
D03*
X1179830D02*
D03*
X1172210D02*
D03*
X1164590D02*
D03*
X1156970D02*
D03*
Y1078230D02*
D03*
X1164590D02*
D03*
X1172210D02*
D03*
X1179830D02*
D03*
X1187450D02*
D03*
Y1085850D02*
D03*
X1179830D02*
D03*
X1172210D02*
D03*
X1164590D02*
D03*
X1156970D02*
D03*
Y1093470D02*
D03*
X1164590D02*
D03*
X1172210D02*
D03*
X1179830D02*
D03*
X1187450D02*
D03*
Y1101090D02*
D03*
X1179830D02*
D03*
X1172210D02*
D03*
X1164590D02*
D03*
X1156970D02*
D03*
Y1108710D02*
D03*
X1164590D02*
D03*
X1172210D02*
D03*
X1179830D02*
D03*
X1187450D02*
D03*
Y1116330D02*
D03*
X1179830D02*
D03*
X1172210D02*
D03*
X1164590D02*
D03*
X1156970D02*
D03*
Y1123950D02*
D03*
X1164590D02*
D03*
X1172210D02*
D03*
X1179830D02*
D03*
X1187450D02*
D03*
Y1131570D02*
D03*
X1179830D02*
D03*
X1172210D02*
D03*
X1164590D02*
D03*
X1156970D02*
D03*
X1708150Y962660D02*
D03*
Y970280D02*
D03*
Y977900D02*
D03*
Y985520D02*
D03*
Y993140D02*
D03*
X1715770D02*
D03*
Y985520D02*
D03*
Y977900D02*
D03*
Y970280D02*
D03*
Y962660D02*
D03*
X1723390D02*
D03*
Y970280D02*
D03*
Y977900D02*
D03*
Y985520D02*
D03*
Y993140D02*
D03*
X1731010D02*
D03*
Y985520D02*
D03*
Y977900D02*
D03*
Y970280D02*
D03*
Y962660D02*
D03*
X1738630D02*
D03*
Y970280D02*
D03*
Y977900D02*
D03*
Y985520D02*
D03*
Y993140D02*
D03*
X1746250D02*
D03*
Y985520D02*
D03*
Y977900D02*
D03*
Y970280D02*
D03*
Y962660D02*
D03*
X1753870D02*
D03*
Y970280D02*
D03*
Y977900D02*
D03*
Y985520D02*
D03*
Y993140D02*
D03*
X1761490D02*
D03*
Y985520D02*
D03*
Y977900D02*
D03*
Y970280D02*
D03*
Y962660D02*
D03*
X1769110D02*
D03*
Y970280D02*
D03*
Y977900D02*
D03*
Y985520D02*
D03*
Y993140D02*
D03*
X1700530D02*
D03*
Y985520D02*
D03*
Y977900D02*
D03*
Y970280D02*
D03*
Y962660D02*
D03*
X1692910D02*
D03*
Y970280D02*
D03*
Y977900D02*
D03*
Y985520D02*
D03*
X1685290Y993140D02*
D03*
Y985520D02*
D03*
Y977900D02*
D03*
Y970280D02*
D03*
Y962660D02*
D03*
X1692910Y993140D02*
D03*
X1685290Y1000760D02*
D03*
X1692910D02*
D03*
X1700530D02*
D03*
X1708150D02*
D03*
X1715770D02*
D03*
X1723390D02*
D03*
X1731010D02*
D03*
X1738630D02*
D03*
X1746250D02*
D03*
X1753870D02*
D03*
X1761490D02*
D03*
X1769110D02*
D03*
X1685290Y1008380D02*
D03*
X1692910D02*
D03*
X1700530D02*
D03*
X1708150D02*
D03*
X1715770D02*
D03*
X1723390D02*
D03*
X1731010D02*
D03*
X1738630D02*
D03*
X1746250D02*
D03*
X1753870D02*
D03*
X1761490D02*
D03*
X1769110D02*
D03*
X1692910Y1016000D02*
D03*
X1700530D02*
D03*
X1708150D02*
D03*
X1715770D02*
D03*
X1723390D02*
D03*
X1731010D02*
D03*
X1738630D02*
D03*
X1746250D02*
D03*
X1753870D02*
D03*
X1761490D02*
D03*
X1769110Y955040D02*
D03*
X1761490D02*
D03*
X1753870D02*
D03*
X1746250D02*
D03*
X1738630D02*
D03*
X1731010D02*
D03*
X1723390D02*
D03*
X1715770D02*
D03*
X1708150D02*
D03*
X1700530D02*
D03*
X1692910D02*
D03*
X1685290D02*
D03*
Y947420D02*
D03*
X1692910D02*
D03*
X1700530D02*
D03*
X1708150D02*
D03*
X1715770D02*
D03*
X1723390D02*
D03*
X1731010D02*
D03*
X1738630D02*
D03*
X1746250D02*
D03*
X1753870D02*
D03*
X1761490D02*
D03*
X1769110D02*
D03*
X1761490Y939800D02*
D03*
X1753870D02*
D03*
X1746250D02*
D03*
X1738630D02*
D03*
X1731010D02*
D03*
X1723390D02*
D03*
X1715770D02*
D03*
X1708150D02*
D03*
X1700530D02*
D03*
X1692910D02*
D03*
X1691005Y708660D02*
D03*
X1698625D02*
D03*
X1706245D02*
D03*
X1713865D02*
D03*
X1721485D02*
D03*
X1729105D02*
D03*
X1736725D02*
D03*
X1744345D02*
D03*
X1751965D02*
D03*
X1759585D02*
D03*
X1767205Y716280D02*
D03*
X1759585D02*
D03*
X1751965D02*
D03*
X1744345D02*
D03*
X1736725D02*
D03*
X1729105D02*
D03*
X1721485D02*
D03*
X1713865D02*
D03*
X1706245D02*
D03*
X1698625D02*
D03*
X1691005D02*
D03*
X1683385D02*
D03*
Y723900D02*
D03*
X1691005D02*
D03*
X1698625D02*
D03*
X1706245D02*
D03*
X1713865D02*
D03*
X1721485D02*
D03*
X1729105D02*
D03*
X1736725D02*
D03*
X1744345D02*
D03*
X1751965D02*
D03*
X1759585D02*
D03*
X1767205D02*
D03*
X1759585Y784860D02*
D03*
X1751965D02*
D03*
X1744345D02*
D03*
X1736725D02*
D03*
X1729105D02*
D03*
X1721485D02*
D03*
X1713865D02*
D03*
X1706245D02*
D03*
X1698625D02*
D03*
X1691005D02*
D03*
X1767205Y777240D02*
D03*
X1759585D02*
D03*
X1751965D02*
D03*
X1744345D02*
D03*
X1736725D02*
D03*
X1729105D02*
D03*
X1721485D02*
D03*
X1713865D02*
D03*
X1706245D02*
D03*
X1698625D02*
D03*
X1691005D02*
D03*
X1683385D02*
D03*
X1767205Y769620D02*
D03*
X1759585D02*
D03*
X1751965D02*
D03*
X1744345D02*
D03*
X1736725D02*
D03*
X1729105D02*
D03*
X1721485D02*
D03*
X1713865D02*
D03*
X1706245D02*
D03*
X1698625D02*
D03*
X1691005D02*
D03*
X1683385D02*
D03*
X1691005Y762000D02*
D03*
X1683385Y731520D02*
D03*
Y739140D02*
D03*
Y746760D02*
D03*
Y754380D02*
D03*
Y762000D02*
D03*
X1691005Y754380D02*
D03*
Y746760D02*
D03*
Y739140D02*
D03*
Y731520D02*
D03*
X1698625D02*
D03*
Y739140D02*
D03*
Y746760D02*
D03*
Y754380D02*
D03*
Y762000D02*
D03*
X1767205D02*
D03*
Y754380D02*
D03*
Y746760D02*
D03*
Y739140D02*
D03*
Y731520D02*
D03*
X1759585D02*
D03*
Y739140D02*
D03*
Y746760D02*
D03*
Y754380D02*
D03*
Y762000D02*
D03*
X1751965D02*
D03*
Y754380D02*
D03*
Y746760D02*
D03*
Y739140D02*
D03*
Y731520D02*
D03*
X1744345D02*
D03*
Y739140D02*
D03*
Y746760D02*
D03*
Y754380D02*
D03*
Y762000D02*
D03*
X1736725D02*
D03*
Y754380D02*
D03*
Y746760D02*
D03*
Y739140D02*
D03*
Y731520D02*
D03*
X1729105D02*
D03*
Y739140D02*
D03*
Y746760D02*
D03*
Y754380D02*
D03*
Y762000D02*
D03*
X1721485D02*
D03*
Y754380D02*
D03*
Y746760D02*
D03*
Y739140D02*
D03*
Y731520D02*
D03*
X1713865D02*
D03*
Y739140D02*
D03*
Y746760D02*
D03*
Y754380D02*
D03*
Y762000D02*
D03*
X1706245D02*
D03*
Y754380D02*
D03*
Y746760D02*
D03*
Y739140D02*
D03*
Y731520D02*
D03*
X1708150Y466090D02*
D03*
Y473710D02*
D03*
Y481330D02*
D03*
Y488950D02*
D03*
Y496570D02*
D03*
X1715770D02*
D03*
Y488950D02*
D03*
Y481330D02*
D03*
Y473710D02*
D03*
Y466090D02*
D03*
X1723390D02*
D03*
Y473710D02*
D03*
Y481330D02*
D03*
Y488950D02*
D03*
Y496570D02*
D03*
X1731010D02*
D03*
Y488950D02*
D03*
Y481330D02*
D03*
Y473710D02*
D03*
Y466090D02*
D03*
X1738630D02*
D03*
Y473710D02*
D03*
Y481330D02*
D03*
Y488950D02*
D03*
Y496570D02*
D03*
X1746250D02*
D03*
Y488950D02*
D03*
Y481330D02*
D03*
Y473710D02*
D03*
Y466090D02*
D03*
X1753870D02*
D03*
Y473710D02*
D03*
Y481330D02*
D03*
Y488950D02*
D03*
Y496570D02*
D03*
X1761490D02*
D03*
Y488950D02*
D03*
Y481330D02*
D03*
Y473710D02*
D03*
Y466090D02*
D03*
X1769110D02*
D03*
Y473710D02*
D03*
Y481330D02*
D03*
Y488950D02*
D03*
Y496570D02*
D03*
X1700530D02*
D03*
Y488950D02*
D03*
Y481330D02*
D03*
Y473710D02*
D03*
Y466090D02*
D03*
X1692910D02*
D03*
Y473710D02*
D03*
Y481330D02*
D03*
Y488950D02*
D03*
X1685290Y496570D02*
D03*
Y488950D02*
D03*
Y481330D02*
D03*
Y473710D02*
D03*
Y466090D02*
D03*
X1692910Y496570D02*
D03*
X1685290Y504190D02*
D03*
X1692910D02*
D03*
X1700530D02*
D03*
X1708150D02*
D03*
X1715770D02*
D03*
X1723390D02*
D03*
X1731010D02*
D03*
X1738630D02*
D03*
X1746250D02*
D03*
X1753870D02*
D03*
X1761490D02*
D03*
X1769110D02*
D03*
X1685290Y511810D02*
D03*
X1692910D02*
D03*
X1700530D02*
D03*
X1708150D02*
D03*
X1715770D02*
D03*
X1723390D02*
D03*
X1731010D02*
D03*
X1738630D02*
D03*
X1746250D02*
D03*
X1753870D02*
D03*
X1761490D02*
D03*
X1769110D02*
D03*
X1692910Y519430D02*
D03*
X1700530D02*
D03*
X1708150D02*
D03*
X1715770D02*
D03*
X1723390D02*
D03*
X1731010D02*
D03*
X1738630D02*
D03*
X1746250D02*
D03*
X1753870D02*
D03*
X1761490D02*
D03*
X1769110Y458470D02*
D03*
X1761490D02*
D03*
X1753870D02*
D03*
X1746250D02*
D03*
X1738630D02*
D03*
X1731010D02*
D03*
X1723390D02*
D03*
X1715770D02*
D03*
X1708150D02*
D03*
X1700530D02*
D03*
X1692910D02*
D03*
X1685290D02*
D03*
Y450850D02*
D03*
X1692910D02*
D03*
X1700530D02*
D03*
X1708150D02*
D03*
X1715770D02*
D03*
X1723390D02*
D03*
X1731010D02*
D03*
X1738630D02*
D03*
X1746250D02*
D03*
X1753870D02*
D03*
X1761490D02*
D03*
X1769110D02*
D03*
X1761490Y443230D02*
D03*
X1753870D02*
D03*
X1746250D02*
D03*
X1738630D02*
D03*
X1731010D02*
D03*
X1723390D02*
D03*
X1715770D02*
D03*
X1708150D02*
D03*
X1700530D02*
D03*
X1692910D02*
D03*
X1085850Y690880D02*
D03*
X1035050Y588010D02*
D03*
X1240790Y764540D02*
D03*
X1079500Y756920D02*
D03*
X1172210Y516890D02*
D03*
X1219200Y485140D02*
D03*
X1126490Y455930D02*
D03*
X1129030Y476250D02*
D03*
X1064260Y477520D02*
D03*
X1066800Y518160D02*
D03*
X1065530Y497840D02*
D03*
X1127760Y518160D02*
D03*
Y497840D02*
D03*
X1191260Y816610D02*
D03*
X1189990Y770890D02*
D03*
X1056640Y629920D02*
D03*
X1046480Y626110D02*
D03*
X1038860Y617220D02*
D03*
X1036320Y609600D02*
D03*
X972820Y642620D02*
D03*
X886460Y681990D02*
D03*
X979170Y650240D02*
D03*
X948690Y668020D02*
D03*
X957580Y666757D02*
D03*
X985520Y636270D02*
D03*
X906780Y701040D02*
D03*
X918210D02*
D03*
X955040Y547370D02*
D03*
X1250950Y708660D02*
D03*
X1231900Y722630D02*
D03*
X1249680Y718820D02*
D03*
X1240224Y706824D02*
D03*
X1233170Y756920D02*
D03*
X1466174Y1022364D02*
D03*
X1217930Y675640D02*
D03*
X1200150Y661670D02*
D03*
X1156970Y695960D02*
D03*
X1675130Y858520D02*
D03*
X1651000Y802640D02*
D03*
X1649730Y1029970D02*
D03*
X1464310Y956310D02*
D03*
Y890270D02*
D03*
Y725170D02*
D03*
X1466850Y662940D02*
D03*
X1455420Y459740D02*
D03*
X1460500Y392430D02*
D03*
X1648460Y537210D02*
D03*
X1195070Y642620D02*
D03*
X758190Y518160D02*
D03*
X745490D02*
D03*
X765810Y629920D02*
D03*
X767080Y605790D02*
D03*
Y581660D02*
D03*
X758190Y652780D02*
D03*
X1022350Y678180D02*
D03*
X894080Y560070D02*
D03*
X806450Y652780D02*
D03*
X885190Y581660D02*
D03*
X800100Y629920D02*
D03*
X1064260Y455930D02*
D03*
X971550Y584200D02*
D03*
X1026160Y657860D02*
D03*
X1029970Y826770D02*
D03*
X1064260Y811530D02*
D03*
X1073150Y795020D02*
D03*
X1062990Y791210D02*
D03*
X1074420Y650240D02*
D03*
X1108710Y695960D02*
D03*
X952500Y728980D02*
D03*
X1057910Y769620D02*
D03*
D103*
X1502117Y845826D02*
D03*
X1452117D02*
D03*
X1202117Y995826D02*
D03*
X1152117D02*
D03*
X1102117D02*
D03*
Y945826D02*
D03*
Y645826D02*
D03*
Y445826D02*
D03*
Y395826D02*
D03*
X1052117Y995826D02*
D03*
Y945826D02*
D03*
Y895826D02*
D03*
Y645826D02*
D03*
Y595826D02*
D03*
Y545826D02*
D03*
Y445826D02*
D03*
Y395826D02*
D03*
X1002117Y995826D02*
D03*
Y895826D02*
D03*
Y495826D02*
D03*
Y445826D02*
D03*
Y395826D02*
D03*
X952117Y995826D02*
D03*
Y945826D02*
D03*
Y895826D02*
D03*
Y795826D02*
D03*
Y745826D02*
D03*
Y445826D02*
D03*
Y395826D02*
D03*
X902117Y995826D02*
D03*
Y945826D02*
D03*
Y895826D02*
D03*
Y845826D02*
D03*
Y745826D02*
D03*
Y545826D02*
D03*
Y495826D02*
D03*
Y445826D02*
D03*
Y395826D02*
D03*
X852117Y995826D02*
D03*
Y945826D02*
D03*
Y895826D02*
D03*
Y695826D02*
D03*
Y495826D02*
D03*
Y445826D02*
D03*
Y395826D02*
D03*
X802117Y995826D02*
D03*
Y945826D02*
D03*
Y795826D02*
D03*
Y745826D02*
D03*
Y645826D02*
D03*
Y595826D02*
D03*
Y495826D02*
D03*
Y445826D02*
D03*
Y395826D02*
D03*
X752117Y995826D02*
D03*
Y845826D02*
D03*
Y795826D02*
D03*
Y745826D02*
D03*
Y595826D02*
D03*
Y545826D02*
D03*
Y395826D02*
D03*
X702117Y945826D02*
D03*
Y845826D02*
D03*
Y795826D02*
D03*
Y745826D02*
D03*
Y695826D02*
D03*
Y595826D02*
D03*
Y545826D02*
D03*
Y495826D02*
D03*
Y395826D02*
D03*
X652117Y945826D02*
D03*
Y745826D02*
D03*
Y695826D02*
D03*
Y645826D02*
D03*
Y545826D02*
D03*
Y495826D02*
D03*
X1525000Y850000D02*
D03*
X1475000D02*
D03*
X1450000Y800000D02*
D03*
X1200000Y1000000D02*
D03*
X1225000Y950000D02*
D03*
X1150000Y1000000D02*
D03*
X1371600Y962660D02*
D03*
X1212850Y570230D02*
D03*
Y580390D02*
D03*
Y590550D02*
D03*
Y601980D02*
D03*
Y612140D02*
D03*
X1376680Y481330D02*
D03*
X1390650D02*
D03*
X1386840Y962660D02*
D03*
X1402080D02*
D03*
X1400810Y915670D02*
D03*
X1385570D02*
D03*
X1371600D02*
D03*
X1408430Y769620D02*
D03*
X1394460D02*
D03*
X1380490D02*
D03*
X1409700Y721360D02*
D03*
X1395730D02*
D03*
X1381760D02*
D03*
X1363980Y440690D02*
D03*
X1376680D02*
D03*
X1390650D02*
D03*
X1363980Y481330D02*
D03*
D104*
X1116386Y715518D02*
D03*
X1115695Y727710D02*
D03*
X1130300D02*
D03*
X1115695Y740410D02*
D03*
X1130300D02*
D03*
X1144905D02*
D03*
X1115695Y753110D02*
D03*
X1130300D02*
D03*
X1144905D02*
D03*
X1115695Y765810D02*
D03*
X1130300D02*
D03*
X1144905D02*
D03*
X1144270Y779780D02*
D03*
X1129665D02*
D03*
X1115060D02*
D03*
X1522500Y840000D02*
D03*
X1515000Y825000D02*
D03*
X1507500Y840000D02*
D03*
X1500000Y825000D02*
D03*
X1492500Y840000D02*
D03*
X1485000Y825000D02*
D03*
X1492500Y810000D02*
D03*
X1477500Y840000D02*
D03*
X1470000Y825000D02*
D03*
X1477500Y810000D02*
D03*
X1462500Y840000D02*
D03*
X1455000Y825000D02*
D03*
X1462500Y810000D02*
D03*
X1447500Y840000D02*
D03*
X1245000Y975000D02*
D03*
X1230000D02*
D03*
Y945000D02*
D03*
X1237500Y870000D02*
D03*
Y840000D02*
D03*
X1222500Y990000D02*
D03*
X1215000Y975000D02*
D03*
X1207500Y990000D02*
D03*
X1200000Y975000D02*
D03*
X1207500Y960000D02*
D03*
X1185000Y1005000D02*
D03*
X1192500Y990000D02*
D03*
X1185000Y975000D02*
D03*
X1170000Y1005000D02*
D03*
X1177500Y990000D02*
D03*
X1170000Y975000D02*
D03*
X1155000Y1005000D02*
D03*
X1162500Y990000D02*
D03*
X1155000Y975000D02*
D03*
X1162500Y540000D02*
D03*
X1147500Y990000D02*
D03*
X1177500Y660000D02*
D03*
X1162500D02*
D03*
X1515000Y825000D02*
D03*
X1507500Y840000D02*
D03*
X1492500D02*
D03*
X1485000Y825000D02*
D03*
X1477500Y840000D02*
D03*
X1470000Y825000D02*
D03*
X1477500Y810000D02*
D03*
X1462500Y840000D02*
D03*
X1455000Y825000D02*
D03*
X1462500Y810000D02*
D03*
X1447500Y840000D02*
D03*
X1230000Y945000D02*
D03*
X1237500Y870000D02*
D03*
X1207500Y960000D02*
D03*
X1185000Y1005000D02*
D03*
Y975000D02*
D03*
X1170000Y1005000D02*
D03*
Y975000D02*
D03*
X1155000Y1005000D02*
D03*
X1162500Y990000D02*
D03*
X1155000Y975000D02*
D03*
X1515000Y840000D02*
D03*
X1522500Y825000D02*
D03*
X1500000Y840000D02*
D03*
X1507500Y825000D02*
D03*
X1500000Y810000D02*
D03*
X1485000Y840000D02*
D03*
X1492500Y825000D02*
D03*
X1485000Y810000D02*
D03*
X1470000Y840000D02*
D03*
X1477500Y825000D02*
D03*
X1470000Y810000D02*
D03*
X1455000Y840000D02*
D03*
X1462500Y825000D02*
D03*
X1447500D02*
D03*
X1237500Y945000D02*
D03*
Y855000D02*
D03*
X1222500Y945000D02*
D03*
X1125000Y690000D02*
D03*
Y660000D02*
D03*
Y570000D02*
D03*
X1117500Y675000D02*
D03*
X1110000Y630000D02*
D03*
X1117500Y615000D02*
D03*
X1110000Y600000D02*
D03*
Y570000D02*
D03*
X1095000Y630000D02*
D03*
X1577340Y594360D02*
D03*
X1568770Y600000D02*
D03*
X1167130Y660400D02*
D03*
Y645160D02*
D03*
Y629920D02*
D03*
Y614680D02*
D03*
Y600710D02*
D03*
Y585470D02*
D03*
Y570230D02*
D03*
X1447800Y809140D02*
D03*
X1597500Y1095000D02*
D03*
X1582500D02*
D03*
Y1065000D02*
D03*
X1567500Y1095000D02*
D03*
X1552500D02*
D03*
X1537500D02*
D03*
X1530000Y1080000D02*
D03*
Y1050000D02*
D03*
X1522500Y1095000D02*
D03*
X1515000Y1080000D02*
D03*
X1522500Y1065000D02*
D03*
X1515000Y1050000D02*
D03*
X1507500Y1095000D02*
D03*
Y1065000D02*
D03*
X1581150Y561340D02*
D03*
Y571500D02*
D03*
X1579880Y582930D02*
D03*
X1553770Y600000D02*
D03*
X1538770D02*
D03*
X1531270Y585000D02*
D03*
X1523770Y600000D02*
D03*
X1516270Y585000D02*
D03*
X1523770Y570000D02*
D03*
X1508770Y600000D02*
D03*
X1501270Y585000D02*
D03*
X1508770Y570000D02*
D03*
X1493770Y600000D02*
D03*
Y570000D02*
D03*
D105*
X1387480Y944880D02*
D03*
X1300480D02*
D03*
X1290000Y461010D02*
D03*
X1377000D02*
D03*
X1310320Y753110D02*
D03*
X1397320D02*
D03*
D106*
X1439510Y1076970D02*
D03*
X1489110D02*
D03*
X1426055Y585354D02*
D03*
X1475655D02*
D03*
D107*
X1439510Y1035620D02*
D03*
X1489110D02*
D03*
X1426055Y544004D02*
D03*
X1475655D02*
D03*
D108*
X1004960Y826770D02*
D03*
X1021960D02*
D03*
D109*
X1208890Y784860D02*
D03*
X1221890D02*
D03*
X1120290Y518160D02*
D03*
X1107290D02*
D03*
X1120290Y497840D02*
D03*
X1107290D02*
D03*
X1120290Y455930D02*
D03*
X1107290D02*
D03*
X1120290Y476250D02*
D03*
X1107290D02*
D03*
D110*
X1038960Y811530D02*
D03*
X1051460D02*
D03*
D111*
X1157722Y593090D02*
D03*
X1099222D02*
D03*
X1173440Y909618D02*
D03*
X1231940D02*
D03*
M02*
