G04*
G04 #@! TF.GenerationSoftware,Altium Limited,Altium Designer,25.8.1 (18)*
G04*
G04 Layer_Color=32896*
%FSLAX44Y44*%
%MOMM*%
G71*
G04*
G04 #@! TF.SameCoordinates,2693F913-D937-40AF-9520-92A55DCDFC83*
G04*
G04*
G04 #@! TF.FilePolarity,Positive*
G04*
G01*
G75*
%ADD119C,0.1000*%
D119*
X1190070Y683260D02*
X1200070D01*
X1195070Y678260D02*
Y688260D01*
X1343980Y939880D02*
Y949880D01*
X1338980Y944880D02*
X1348980D01*
X819150Y576660D02*
Y586660D01*
X814150Y581660D02*
X824150D01*
X751840Y483950D02*
Y493950D01*
X746840Y488950D02*
X756840D01*
X1063070Y699770D02*
X1073070D01*
X1068070Y694770D02*
Y704770D01*
X1063070Y679450D02*
X1073070D01*
X1068070Y674450D02*
Y684450D01*
X1061800Y659130D02*
X1071800D01*
X1066800Y654130D02*
Y664130D01*
X896700Y854710D02*
X906700D01*
X901700Y849710D02*
Y859710D01*
X1040210Y791210D02*
X1050210D01*
X1045210Y786210D02*
Y796210D01*
X895430Y828040D02*
X905430D01*
X900430Y823040D02*
Y833040D01*
X740490Y581660D02*
X750490D01*
X745490Y576660D02*
Y586660D01*
X740490Y629920D02*
X750490D01*
X745490Y624920D02*
Y634920D01*
X739610Y605790D02*
X749610D01*
X744610Y600790D02*
Y610790D01*
X1030450Y658637D02*
X1040450D01*
X1035450Y653637D02*
Y663637D01*
X922020Y713820D02*
Y723820D01*
X917020Y718820D02*
X927020D01*
X952007Y593170D02*
Y603170D01*
X947008Y598170D02*
X957007D01*
X971550Y593170D02*
Y603170D01*
X966550Y598170D02*
X976550D01*
X850980Y566420D02*
X860980D01*
X855980Y561420D02*
Y571420D01*
X901700Y713820D02*
Y723820D01*
X896700Y718820D02*
X906700D01*
X1030050Y678180D02*
X1040050D01*
X1035050Y673180D02*
Y683180D01*
X850980Y546877D02*
X860980D01*
X855980Y541878D02*
Y551877D01*
X932260Y551180D02*
X942260D01*
X937260Y546180D02*
Y556180D01*
X1225630Y693420D02*
X1235630D01*
X1230630Y688420D02*
Y698420D01*
X1225630Y676910D02*
X1235630D01*
X1230630Y671910D02*
Y681910D01*
X1195070Y650320D02*
Y660320D01*
X1190070Y655320D02*
X1200070D01*
X1200788Y827517D02*
X1210788D01*
X1205788Y822517D02*
Y832517D01*
X1187530Y577850D02*
X1197530D01*
X1192530Y572850D02*
Y582850D01*
X1187530Y611393D02*
X1197530D01*
X1192530Y606393D02*
Y616393D01*
X1123472Y593090D02*
X1133472D01*
X1128472Y588090D02*
Y598090D01*
X1197690Y909618D02*
X1207690D01*
X1202690Y904618D02*
Y914618D01*
X1201500Y861060D02*
X1211500D01*
X1206500Y856060D02*
Y866060D01*
X814150Y652780D02*
X824150D01*
X819150Y647780D02*
Y657780D01*
X814150Y629920D02*
X824150D01*
X819150Y624920D02*
Y634920D01*
X814150Y605790D02*
X824150D01*
X819150Y600790D02*
Y610790D01*
X1328500Y461010D02*
X1338500D01*
X1333500Y456010D02*
Y466010D01*
X1348820Y753110D02*
X1358820D01*
X1353820Y748110D02*
Y758110D01*
M02*
