G04*
G04 #@! TF.GenerationSoftware,Altium Limited,Altium Designer,25.8.1 (18)*
G04*
G04 Layer_Physical_Order=2*
G04 Layer_Color=36540*
%FSLAX44Y44*%
%MOMM*%
G71*
G04*
G04 #@! TF.SameCoordinates,2693F913-D937-40AF-9520-92A55DCDFC83*
G04*
G04*
G04 #@! TF.FilePolarity,Positive*
G04*
G01*
G75*
%ADD91R,1.4000X1.4000*%
%ADD92C,1.4000*%
%ADD93C,1.1000*%
%ADD98C,0.3000*%
%ADD99C,5.0000*%
G04:AMPARAMS|DCode=100|XSize=10mm|YSize=10mm|CornerRadius=2.5mm|HoleSize=0mm|Usage=FLASHONLY|Rotation=0.000|XOffset=0mm|YOffset=0mm|HoleType=Round|Shape=RoundedRectangle|*
%AMROUNDEDRECTD100*
21,1,10.0000,5.0000,0,0,0.0*
21,1,5.0000,10.0000,0,0,0.0*
1,1,5.0000,2.5000,-2.5000*
1,1,5.0000,-2.5000,-2.5000*
1,1,5.0000,-2.5000,2.5000*
1,1,5.0000,2.5000,2.5000*
%
%ADD100ROUNDEDRECTD100*%
G04:AMPARAMS|DCode=101|XSize=10mm|YSize=10mm|CornerRadius=2.5mm|HoleSize=0mm|Usage=FLASHONLY|Rotation=90.000|XOffset=0mm|YOffset=0mm|HoleType=Round|Shape=RoundedRectangle|*
%AMROUNDEDRECTD101*
21,1,10.0000,5.0000,0,0,90.0*
21,1,5.0000,10.0000,0,0,90.0*
1,1,5.0000,2.5000,2.5000*
1,1,5.0000,2.5000,-2.5000*
1,1,5.0000,-2.5000,-2.5000*
1,1,5.0000,-2.5000,2.5000*
%
%ADD101ROUNDEDRECTD101*%
%ADD102C,0.5000*%
%ADD103C,0.6000*%
%ADD104C,0.8000*%
G36*
X1448448Y805193D02*
X1448093Y805123D01*
X1447747Y805032D01*
X1447409Y804919D01*
X1447079Y804785D01*
X1446758Y804629D01*
X1446446Y804452D01*
X1446142Y804253D01*
X1445847Y804033D01*
X1445560Y803791D01*
X1445282Y803528D01*
X1442759Y805248D01*
X1443027Y805537D01*
X1443260Y805832D01*
X1443459Y806133D01*
X1443622Y806440D01*
X1443750Y806753D01*
X1443844Y807073D01*
X1443902Y807399D01*
X1443925Y807731D01*
X1443913Y808069D01*
X1443867Y808413D01*
X1448448Y805193D01*
D02*
G37*
G36*
X1244325Y765954D02*
X1244128Y765753D01*
X1243547Y765087D01*
X1243454Y764955D01*
X1243382Y764837D01*
X1243330Y764733D01*
X1243300Y764642D01*
X1243290Y764565D01*
X1240815Y767040D01*
X1240892Y767050D01*
X1240983Y767080D01*
X1241087Y767132D01*
X1241205Y767204D01*
X1241337Y767297D01*
X1241643Y767546D01*
X1242003Y767878D01*
X1242204Y768075D01*
X1244325Y765954D01*
D02*
G37*
G36*
X1234672Y760138D02*
X1234733Y759257D01*
X1234760Y759097D01*
X1234792Y758963D01*
X1234830Y758852D01*
X1234873Y758767D01*
X1234920Y758705D01*
X1231420D01*
X1231468Y758767D01*
X1231510Y758852D01*
X1231547Y758963D01*
X1231580Y759097D01*
X1231608Y759257D01*
X1231647Y759648D01*
X1231667Y760138D01*
X1231670Y760420D01*
X1234670D01*
X1234672Y760138D01*
D02*
G37*
G36*
X1233747Y724333D02*
X1233832Y724290D01*
X1233943Y724252D01*
X1234077Y724220D01*
X1234237Y724193D01*
X1234628Y724153D01*
X1235118Y724133D01*
X1235400Y724130D01*
Y721130D01*
X1235118Y721127D01*
X1234237Y721068D01*
X1234077Y721040D01*
X1233943Y721008D01*
X1233832Y720970D01*
X1233747Y720928D01*
X1233685Y720880D01*
Y724380D01*
X1233747Y724333D01*
D02*
G37*
G36*
X1251527Y720523D02*
X1251612Y720480D01*
X1251723Y720443D01*
X1251857Y720410D01*
X1252017Y720383D01*
X1252408Y720342D01*
X1252898Y720322D01*
X1253180Y720320D01*
Y717320D01*
X1252898Y717318D01*
X1252017Y717258D01*
X1251857Y717230D01*
X1251723Y717197D01*
X1251612Y717160D01*
X1251527Y717117D01*
X1251465Y717070D01*
Y720570D01*
X1251527Y720523D01*
D02*
G37*
G36*
X1160506Y697374D02*
X1160308Y697173D01*
X1159727Y696507D01*
X1159634Y696375D01*
X1159562Y696257D01*
X1159510Y696153D01*
X1159480Y696062D01*
X1159470Y695985D01*
X1156995Y698460D01*
X1157072Y698470D01*
X1157163Y698500D01*
X1157267Y698552D01*
X1157385Y698624D01*
X1157517Y698717D01*
X1157823Y698966D01*
X1158183Y699298D01*
X1158384Y699495D01*
X1160506Y697374D01*
D02*
G37*
G36*
X1264880Y686823D02*
X1264907Y686727D01*
X1264955Y686618D01*
X1265024Y686496D01*
X1265115Y686361D01*
X1265227Y686212D01*
X1265514Y685876D01*
X1265886Y685488D01*
X1263616Y683515D01*
X1263415Y683714D01*
X1262629Y684397D01*
X1262516Y684472D01*
X1262418Y684526D01*
X1262334Y684559D01*
X1262265Y684573D01*
X1264875Y686906D01*
X1264880Y686823D01*
D02*
G37*
G36*
X1259351Y679533D02*
X1259384Y679449D01*
X1259438Y679351D01*
X1259513Y679238D01*
X1259609Y679111D01*
X1259861Y678811D01*
X1260395Y678251D01*
X1258422Y675982D01*
X1258221Y676178D01*
X1257549Y676752D01*
X1257414Y676843D01*
X1257292Y676912D01*
X1257183Y676960D01*
X1257087Y676987D01*
X1257005Y676993D01*
X1259337Y679602D01*
X1259351Y679533D01*
D02*
G37*
G36*
X1446763Y628058D02*
X1446823Y627177D01*
X1446850Y627017D01*
X1446882Y626883D01*
X1446920Y626772D01*
X1446962Y626687D01*
X1447010Y626625D01*
X1443510D01*
X1443557Y626687D01*
X1443600Y626772D01*
X1443638Y626883D01*
X1443670Y627017D01*
X1443698Y627177D01*
X1443737Y627568D01*
X1443757Y628058D01*
X1443760Y628340D01*
X1446760D01*
X1446763Y628058D01*
D02*
G37*
G36*
X1252220Y981747D02*
Y918726D01*
X1246247Y912753D01*
X1245584Y911760D01*
X1245351Y910590D01*
X1245351Y910590D01*
Y817877D01*
X1185287Y757813D01*
X1184624Y756821D01*
X1184391Y755650D01*
X1184391Y755650D01*
Y751321D01*
X1158240Y725170D01*
Y701556D01*
X1158178Y701494D01*
X1158002Y701459D01*
X1157621Y701386D01*
X1157613Y701381D01*
X1157604Y701379D01*
X1157280Y701163D01*
X1156955Y700950D01*
X1156777Y700776D01*
X1156487Y700508D01*
X1156309Y700362D01*
X1156215Y700344D01*
X1156107Y700272D01*
X1155984Y700231D01*
X1155779Y700053D01*
X1155553Y699902D01*
X1155481Y699794D01*
X1155384Y699709D01*
X1155335Y699612D01*
X1154704Y699351D01*
X1153579Y698226D01*
X1152970Y696756D01*
Y695164D01*
X1153579Y693694D01*
X1154704Y692569D01*
X1156174Y691960D01*
X1157766D01*
X1158240Y691643D01*
Y671830D01*
X1129030Y642620D01*
Y558800D01*
X1153160D01*
X1193800Y518160D01*
Y485140D01*
X1153160Y369570D01*
X609600Y372110D01*
Y397510D01*
X609600Y1045210D01*
X1132657D01*
X1252220Y981747D01*
D02*
G37*
G36*
X1488390Y566741D02*
X1488655Y567025D01*
X1488892Y567318D01*
X1489101Y567618D01*
X1489282Y567928D01*
X1489434Y568245D01*
X1489558Y568571D01*
X1489653Y568906D01*
X1489720Y569249D01*
X1489759Y569600D01*
X1489770Y569960D01*
X1493730Y566000D01*
X1493370Y565989D01*
X1493018Y565951D01*
X1492675Y565883D01*
X1492341Y565788D01*
X1492015Y565664D01*
X1491697Y565512D01*
X1491388Y565331D01*
X1491087Y565123D01*
X1490795Y564885D01*
X1490511Y564620D01*
X1488390Y566741D01*
D02*
G37*
G36*
X1455760Y628340D02*
X1455762Y628058D01*
X1455822Y627177D01*
X1455850Y627017D01*
X1455883Y626883D01*
X1455920Y626772D01*
X1455963Y626687D01*
X1456010Y626625D01*
X1452510D01*
X1452558Y626687D01*
X1452600Y626772D01*
X1452637Y626883D01*
X1452670Y627017D01*
X1452697Y627177D01*
X1452737Y627568D01*
X1452758Y628058D01*
X1452760Y628340D01*
X1455760D01*
D02*
G37*
G36*
X1644960Y538710D02*
X1645242Y538713D01*
X1646124Y538773D01*
X1646283Y538800D01*
X1646417Y538833D01*
X1646528Y538870D01*
X1646613Y538913D01*
X1646675Y538960D01*
Y535460D01*
X1646613Y535508D01*
X1646528Y535550D01*
X1646417Y535588D01*
X1646283Y535620D01*
X1646124Y535648D01*
X1645732Y535687D01*
X1645242Y535708D01*
X1644960Y535710D01*
Y538710D01*
D02*
G37*
G36*
X1463350Y664440D02*
X1463632Y664443D01*
X1464514Y664502D01*
X1464673Y664530D01*
X1464807Y664563D01*
X1464918Y664600D01*
X1465003Y664642D01*
X1465065Y664690D01*
Y661190D01*
X1465003Y661237D01*
X1464918Y661280D01*
X1464807Y661318D01*
X1464673Y661350D01*
X1464514Y661377D01*
X1464122Y661417D01*
X1463632Y661438D01*
X1463350Y661440D01*
Y664440D01*
D02*
G37*
G36*
X1462810Y721670D02*
X1462807Y721952D01*
X1462747Y722833D01*
X1462720Y722993D01*
X1462688Y723127D01*
X1462650Y723238D01*
X1462608Y723323D01*
X1462560Y723385D01*
X1466060D01*
X1466013Y723323D01*
X1465970Y723238D01*
X1465932Y723127D01*
X1465900Y722993D01*
X1465872Y722833D01*
X1465833Y722442D01*
X1465813Y721952D01*
X1465810Y721670D01*
X1462810D01*
D02*
G37*
G36*
X1647464Y801226D02*
X1647662Y801427D01*
X1648243Y802093D01*
X1648336Y802225D01*
X1648408Y802343D01*
X1648460Y802447D01*
X1648490Y802538D01*
X1648500Y802615D01*
X1650975Y800140D01*
X1650898Y800130D01*
X1650807Y800100D01*
X1650703Y800048D01*
X1650585Y799976D01*
X1650453Y799883D01*
X1650147Y799634D01*
X1649787Y799302D01*
X1649586Y799105D01*
X1647464Y801226D01*
D02*
G37*
G36*
X1460810Y891770D02*
X1461092Y891773D01*
X1461974Y891833D01*
X1462133Y891860D01*
X1462267Y891892D01*
X1462378Y891930D01*
X1462463Y891973D01*
X1462525Y892020D01*
Y888520D01*
X1462463Y888568D01*
X1462378Y888610D01*
X1462267Y888648D01*
X1462133Y888680D01*
X1461974Y888708D01*
X1461582Y888747D01*
X1461092Y888767D01*
X1460810Y888770D01*
Y891770D01*
D02*
G37*
G36*
X1460775Y954896D02*
X1460972Y955097D01*
X1461553Y955763D01*
X1461646Y955895D01*
X1461718Y956013D01*
X1461770Y956117D01*
X1461800Y956208D01*
X1461810Y956285D01*
X1464285Y953810D01*
X1464208Y953800D01*
X1464117Y953770D01*
X1464013Y953718D01*
X1463895Y953646D01*
X1463763Y953553D01*
X1463457Y953304D01*
X1463097Y952972D01*
X1462896Y952775D01*
X1460775Y954896D01*
D02*
G37*
G36*
X1509620Y1046741D02*
X1509885Y1047025D01*
X1510122Y1047317D01*
X1510331Y1047618D01*
X1510512Y1047927D01*
X1510664Y1048245D01*
X1510788Y1048571D01*
X1510883Y1048905D01*
X1510950Y1049248D01*
X1510989Y1049600D01*
X1511000Y1049960D01*
X1514960Y1046000D01*
X1514600Y1045989D01*
X1514248Y1045950D01*
X1513905Y1045883D01*
X1513571Y1045788D01*
X1513245Y1045664D01*
X1512927Y1045512D01*
X1512618Y1045331D01*
X1512317Y1045123D01*
X1512025Y1044885D01*
X1511741Y1044620D01*
X1509620Y1046741D01*
D02*
G37*
G36*
X1671630Y860020D02*
X1671912Y860023D01*
X1672793Y860082D01*
X1672953Y860110D01*
X1673087Y860143D01*
X1673198Y860180D01*
X1673283Y860222D01*
X1673345Y860270D01*
Y856770D01*
X1673283Y856817D01*
X1673198Y856860D01*
X1673087Y856898D01*
X1672953Y856930D01*
X1672793Y856957D01*
X1672402Y856998D01*
X1671912Y857018D01*
X1671630Y857020D01*
Y860020D01*
D02*
G37*
G36*
X1646230Y1031470D02*
X1646512Y1031472D01*
X1647393Y1031533D01*
X1647553Y1031560D01*
X1647687Y1031592D01*
X1647798Y1031630D01*
X1647883Y1031673D01*
X1647945Y1031720D01*
Y1028220D01*
X1647883Y1028268D01*
X1647798Y1028310D01*
X1647687Y1028347D01*
X1647553Y1028380D01*
X1647393Y1028408D01*
X1647002Y1028447D01*
X1646512Y1028467D01*
X1646230Y1028470D01*
Y1031470D01*
D02*
G37*
%LPC*%
G36*
X707362Y928313D02*
X705518D01*
X703738Y927835D01*
X702142Y926914D01*
X700839Y925611D01*
X699917Y924014D01*
X699440Y922234D01*
Y920391D01*
X699917Y918611D01*
X700839Y917014D01*
X702142Y915711D01*
X703738Y914790D01*
X705518Y914313D01*
X707362D01*
X709142Y914790D01*
X710738Y915711D01*
X712041Y917014D01*
X712963Y918611D01*
X713440Y920391D01*
Y922234D01*
X712963Y924014D01*
X712041Y925611D01*
X710738Y926914D01*
X709142Y927835D01*
X707362Y928313D01*
D02*
G37*
G36*
X667630Y921105D02*
X650630D01*
Y904105D01*
X667630D01*
Y921105D01*
D02*
G37*
G36*
X734940Y913812D02*
X717940D01*
Y896813D01*
X734940D01*
Y913812D01*
D02*
G37*
G36*
X660249Y896105D02*
X658011D01*
X655849Y895526D01*
X653911Y894407D01*
X652328Y892824D01*
X651209Y890886D01*
X650630Y888724D01*
Y886486D01*
X651209Y884324D01*
X652328Y882386D01*
X653911Y880803D01*
X655849Y879684D01*
X658011Y879105D01*
X660249D01*
X662411Y879684D01*
X664349Y880803D01*
X665932Y882386D01*
X667051Y884324D01*
X667630Y886486D01*
Y888724D01*
X667051Y890886D01*
X665932Y892824D01*
X664349Y894407D01*
X662411Y895526D01*
X660249Y896105D01*
D02*
G37*
G36*
X727559Y888812D02*
X725321D01*
X723159Y888233D01*
X721221Y887114D01*
X719638Y885532D01*
X718519Y883593D01*
X717940Y881432D01*
Y879193D01*
X718519Y877032D01*
X719638Y875093D01*
X721221Y873511D01*
X723159Y872392D01*
X725321Y871813D01*
X727559D01*
X729721Y872392D01*
X731659Y873511D01*
X733242Y875093D01*
X734361Y877032D01*
X734940Y879193D01*
Y881432D01*
X734361Y883593D01*
X733242Y885532D01*
X731659Y887114D01*
X729721Y888233D01*
X727559Y888812D01*
D02*
G37*
G36*
X660249Y871105D02*
X658011D01*
X655849Y870526D01*
X653911Y869407D01*
X652328Y867824D01*
X651209Y865886D01*
X650630Y863724D01*
Y861486D01*
X651209Y859324D01*
X652328Y857386D01*
X653911Y855803D01*
X655849Y854684D01*
X658011Y854105D01*
X660249D01*
X662411Y854684D01*
X664349Y855803D01*
X665932Y857386D01*
X667051Y859324D01*
X667630Y861486D01*
Y863724D01*
X667051Y865886D01*
X665932Y867824D01*
X664349Y869407D01*
X662411Y870526D01*
X660249Y871105D01*
D02*
G37*
G36*
X941866Y861250D02*
X940274D01*
X938804Y860641D01*
X937679Y859516D01*
X937070Y858046D01*
Y856454D01*
X937679Y854984D01*
X938804Y853859D01*
X940274Y853250D01*
X941866D01*
X943336Y853859D01*
X944461Y854984D01*
X945070Y856454D01*
Y858046D01*
X944461Y859516D01*
X943336Y860641D01*
X941866Y861250D01*
D02*
G37*
G36*
X727559Y863812D02*
X725321D01*
X723159Y863233D01*
X721221Y862114D01*
X719638Y860532D01*
X718519Y858593D01*
X717940Y856432D01*
Y854193D01*
X718519Y852032D01*
X719638Y850093D01*
X721221Y848511D01*
X723159Y847392D01*
X725321Y846813D01*
X727559D01*
X729721Y847392D01*
X731659Y848511D01*
X733242Y850093D01*
X734361Y852032D01*
X734940Y854193D01*
Y856432D01*
X734361Y858593D01*
X733242Y860532D01*
X731659Y862114D01*
X729721Y863233D01*
X727559Y863812D01*
D02*
G37*
G36*
X660249Y846105D02*
X658011D01*
X655849Y845526D01*
X653911Y844407D01*
X652328Y842824D01*
X651209Y840886D01*
X650630Y838724D01*
Y836486D01*
X651209Y834324D01*
X652328Y832386D01*
X653911Y830803D01*
X655849Y829684D01*
X658011Y829105D01*
X660249D01*
X662411Y829684D01*
X664349Y830803D01*
X665932Y832386D01*
X667051Y834324D01*
X667630Y836486D01*
Y838724D01*
X667051Y840886D01*
X665932Y842824D01*
X664349Y844407D01*
X662411Y845526D01*
X660249Y846105D01*
D02*
G37*
G36*
X1030766Y830770D02*
X1029174D01*
X1027704Y830161D01*
X1026579Y829036D01*
X1025970Y827566D01*
Y825974D01*
X1026579Y824504D01*
X1027704Y823379D01*
X1029174Y822770D01*
X1030766D01*
X1032236Y823379D01*
X1033361Y824504D01*
X1033970Y825974D01*
Y827566D01*
X1033361Y829036D01*
X1032236Y830161D01*
X1030766Y830770D01*
D02*
G37*
G36*
X727559Y838812D02*
X725321D01*
X723159Y838233D01*
X721221Y837114D01*
X719638Y835532D01*
X718519Y833593D01*
X717940Y831432D01*
Y829193D01*
X718519Y827032D01*
X719638Y825093D01*
X721221Y823511D01*
X723159Y822392D01*
X725321Y821813D01*
X727559D01*
X729721Y822392D01*
X731659Y823511D01*
X733242Y825093D01*
X734361Y827032D01*
X734940Y829193D01*
Y831432D01*
X734361Y833593D01*
X733242Y835532D01*
X731659Y837114D01*
X729721Y838233D01*
X727559Y838812D01*
D02*
G37*
G36*
X908846Y825690D02*
X907254D01*
X905784Y825081D01*
X904659Y823956D01*
X904050Y822486D01*
Y820894D01*
X904659Y819424D01*
X905784Y818299D01*
X907254Y817690D01*
X908846D01*
X910316Y818299D01*
X911441Y819424D01*
X912050Y820894D01*
Y822486D01*
X911441Y823956D01*
X910316Y825081D01*
X908846Y825690D01*
D02*
G37*
G36*
X1192056Y820610D02*
X1190464D01*
X1188994Y820001D01*
X1187869Y818876D01*
X1187260Y817406D01*
Y815814D01*
X1187869Y814344D01*
X1188994Y813219D01*
X1190464Y812610D01*
X1192056D01*
X1193526Y813219D01*
X1194651Y814344D01*
X1195260Y815814D01*
Y817406D01*
X1194651Y818876D01*
X1193526Y820001D01*
X1192056Y820610D01*
D02*
G37*
G36*
X1065056Y815530D02*
X1063464D01*
X1061994Y814921D01*
X1060869Y813796D01*
X1060260Y812326D01*
Y810734D01*
X1060869Y809264D01*
X1061994Y808139D01*
X1063464Y807530D01*
X1065056D01*
X1066526Y808139D01*
X1067651Y809264D01*
X1068260Y810734D01*
Y812326D01*
X1067651Y813796D01*
X1066526Y814921D01*
X1065056Y815530D01*
D02*
G37*
G36*
X660249Y821105D02*
X658011D01*
X655849Y820526D01*
X653911Y819407D01*
X652328Y817824D01*
X651209Y815886D01*
X650630Y813724D01*
Y811486D01*
X651209Y809324D01*
X652328Y807386D01*
X653911Y805803D01*
X655849Y804684D01*
X658011Y804105D01*
X660249D01*
X662411Y804684D01*
X664349Y805803D01*
X665932Y807386D01*
X667051Y809324D01*
X667630Y811486D01*
Y813724D01*
X667051Y815886D01*
X665932Y817824D01*
X664349Y819407D01*
X662411Y820526D01*
X660249Y821105D01*
D02*
G37*
G36*
X1073946Y799020D02*
X1072354D01*
X1070884Y798411D01*
X1069759Y797286D01*
X1069150Y795816D01*
Y794224D01*
X1069759Y792754D01*
X1070884Y791629D01*
X1072354Y791020D01*
X1073946D01*
X1075416Y791629D01*
X1076541Y792754D01*
X1077150Y794224D01*
Y795816D01*
X1076541Y797286D01*
X1075416Y798411D01*
X1073946Y799020D01*
D02*
G37*
G36*
X1063786Y795210D02*
X1062194D01*
X1060724Y794601D01*
X1059599Y793476D01*
X1058990Y792006D01*
Y790414D01*
X1059599Y788944D01*
X1060724Y787819D01*
X1062194Y787210D01*
X1063786D01*
X1065256Y787819D01*
X1066381Y788944D01*
X1066990Y790414D01*
Y792006D01*
X1066381Y793476D01*
X1065256Y794601D01*
X1063786Y795210D01*
D02*
G37*
G36*
X905036Y790130D02*
X903444D01*
X901974Y789521D01*
X900849Y788396D01*
X900240Y786926D01*
Y785334D01*
X900849Y783864D01*
X901974Y782739D01*
X903444Y782130D01*
X905036D01*
X906506Y782739D01*
X907631Y783864D01*
X908240Y785334D01*
Y786926D01*
X907631Y788396D01*
X906506Y789521D01*
X905036Y790130D01*
D02*
G37*
G36*
X660249Y796105D02*
X658011D01*
X655849Y795526D01*
X653911Y794407D01*
X652328Y792824D01*
X651209Y790886D01*
X650630Y788724D01*
Y786486D01*
X651209Y784324D01*
X652328Y782386D01*
X653911Y780803D01*
X655849Y779684D01*
X658011Y779105D01*
X660249D01*
X662411Y779684D01*
X664349Y780803D01*
X665932Y782386D01*
X667051Y784324D01*
X667630Y786486D01*
Y788724D01*
X667051Y790886D01*
X665932Y792824D01*
X664349Y794407D01*
X662411Y795526D01*
X660249Y796105D01*
D02*
G37*
G36*
X1080296Y786320D02*
X1078704D01*
X1077234Y785711D01*
X1076109Y784586D01*
X1075500Y783116D01*
Y781524D01*
X1076109Y780054D01*
X1077234Y778929D01*
X1078704Y778320D01*
X1080296D01*
X1081766Y778929D01*
X1082891Y780054D01*
X1083500Y781524D01*
Y783116D01*
X1082891Y784586D01*
X1081766Y785711D01*
X1080296Y786320D01*
D02*
G37*
G36*
X1190786Y774890D02*
X1189194D01*
X1187724Y774281D01*
X1186599Y773156D01*
X1185990Y771686D01*
Y770094D01*
X1186599Y768624D01*
X1187724Y767499D01*
X1189194Y766890D01*
X1190786D01*
X1192256Y767499D01*
X1193381Y768624D01*
X1193990Y770094D01*
Y771686D01*
X1193381Y773156D01*
X1192256Y774281D01*
X1190786Y774890D01*
D02*
G37*
G36*
X1058706Y773620D02*
X1057114D01*
X1055644Y773011D01*
X1054519Y771886D01*
X1053910Y770416D01*
Y768824D01*
X1054519Y767354D01*
X1055644Y766229D01*
X1057114Y765620D01*
X1058706D01*
X1060176Y766229D01*
X1061301Y767354D01*
X1061910Y768824D01*
Y770416D01*
X1061301Y771886D01*
X1060176Y773011D01*
X1058706Y773620D01*
D02*
G37*
G36*
X1077756Y772350D02*
X1076164D01*
X1074694Y771741D01*
X1073569Y770616D01*
X1072960Y769146D01*
Y767554D01*
X1073569Y766084D01*
X1074694Y764959D01*
X1076164Y764350D01*
X1077756D01*
X1079226Y764959D01*
X1080351Y766084D01*
X1080960Y767554D01*
Y769146D01*
X1080351Y770616D01*
X1079226Y771741D01*
X1077756Y772350D01*
D02*
G37*
G36*
X1080296Y760920D02*
X1078704D01*
X1077234Y760311D01*
X1076109Y759186D01*
X1075500Y757716D01*
Y756124D01*
X1076109Y754654D01*
X1077234Y753529D01*
X1078704Y752920D01*
X1080296D01*
X1081766Y753529D01*
X1082891Y754654D01*
X1083500Y756124D01*
Y757716D01*
X1082891Y759186D01*
X1081766Y760311D01*
X1080296Y760920D01*
D02*
G37*
G36*
X921546Y748220D02*
X919954D01*
X918484Y747611D01*
X917359Y746486D01*
X916750Y745016D01*
Y743424D01*
X917359Y741954D01*
X918484Y740829D01*
X919954Y740220D01*
X921546D01*
X923016Y740829D01*
X924141Y741954D01*
X924750Y743424D01*
Y745016D01*
X924141Y746486D01*
X923016Y747611D01*
X921546Y748220D01*
D02*
G37*
G36*
X1066326D02*
X1064734D01*
X1063264Y747611D01*
X1062139Y746486D01*
X1061530Y745016D01*
Y743424D01*
X1062139Y741954D01*
X1063264Y740829D01*
X1064101Y740482D01*
Y739108D01*
X1063264Y738761D01*
X1062139Y737636D01*
X1061530Y736166D01*
Y734574D01*
X1062139Y733104D01*
X1063264Y731979D01*
X1064734Y731370D01*
X1066326D01*
X1067796Y731979D01*
X1068921Y733104D01*
X1069530Y734574D01*
Y736166D01*
X1068921Y737636D01*
X1067796Y738761D01*
X1066959Y739108D01*
Y740482D01*
X1067796Y740829D01*
X1068921Y741954D01*
X1069530Y743424D01*
Y745016D01*
X1068921Y746486D01*
X1067796Y747611D01*
X1066326Y748220D01*
D02*
G37*
G36*
X953296Y732980D02*
X951704D01*
X950234Y732371D01*
X949109Y731246D01*
X948500Y729776D01*
Y728184D01*
X949109Y726714D01*
X950234Y725589D01*
X951704Y724980D01*
X953296D01*
X954766Y725589D01*
X955891Y726714D01*
X956500Y728184D01*
Y729776D01*
X955891Y731246D01*
X954766Y732371D01*
X953296Y732980D01*
D02*
G37*
G36*
X976317Y724370D02*
X974726D01*
X973256Y723761D01*
X972130Y722636D01*
X971522Y721166D01*
Y719574D01*
X972130Y718104D01*
X973256Y716979D01*
X974726Y716370D01*
X976317D01*
X977787Y716979D01*
X978913Y718104D01*
X979521Y719574D01*
Y721166D01*
X978913Y722636D01*
X977787Y723761D01*
X976317Y724370D01*
D02*
G37*
G36*
X717399Y733270D02*
X715161D01*
X712999Y732691D01*
X711061Y731572D01*
X709478Y729989D01*
X708359Y728051D01*
X707780Y725889D01*
Y723651D01*
X708359Y721489D01*
X709478Y719551D01*
X711061Y717968D01*
X712999Y716849D01*
X715161Y716270D01*
X717399D01*
X719561Y716849D01*
X721499Y717968D01*
X723082Y719551D01*
X724201Y721489D01*
X724780Y723651D01*
Y725889D01*
X724201Y728051D01*
X723082Y729989D01*
X721499Y731572D01*
X719561Y732691D01*
X717399Y733270D01*
D02*
G37*
G36*
X986316Y714370D02*
X984724D01*
X983254Y713761D01*
X982129Y712636D01*
X981520Y711166D01*
Y709574D01*
X982129Y708104D01*
X983254Y706979D01*
X984724Y706370D01*
X986316D01*
X987786Y706979D01*
X988911Y708104D01*
X989520Y709574D01*
Y711166D01*
X988911Y712636D01*
X987786Y713761D01*
X986316Y714370D01*
D02*
G37*
G36*
X919006Y705040D02*
X917414D01*
X915944Y704431D01*
X914819Y703306D01*
X914210Y701836D01*
Y700244D01*
X914819Y698774D01*
X915944Y697649D01*
X917414Y697040D01*
X919006D01*
X920476Y697649D01*
X921601Y698774D01*
X922210Y700244D01*
Y701836D01*
X921601Y703306D01*
X920476Y704431D01*
X919006Y705040D01*
D02*
G37*
G36*
X907576D02*
X905984D01*
X904514Y704431D01*
X903389Y703306D01*
X902780Y701836D01*
Y700244D01*
X903389Y698774D01*
X904514Y697649D01*
X905984Y697040D01*
X907576D01*
X909046Y697649D01*
X910171Y698774D01*
X910780Y700244D01*
Y701836D01*
X910171Y703306D01*
X909046Y704431D01*
X907576Y705040D01*
D02*
G37*
G36*
X965996Y703080D02*
X964404D01*
X962934Y702471D01*
X961809Y701346D01*
X961200Y699876D01*
Y698284D01*
X961809Y696814D01*
X962934Y695689D01*
X964404Y695080D01*
X965996D01*
X967466Y695689D01*
X968591Y696814D01*
X969200Y698284D01*
Y699876D01*
X968591Y701346D01*
X967466Y702471D01*
X965996Y703080D01*
D02*
G37*
G36*
X981236Y702500D02*
X979644D01*
X978174Y701891D01*
X977049Y700766D01*
X976440Y699296D01*
Y697704D01*
X977049Y696234D01*
X978174Y695109D01*
X979644Y694500D01*
X981236D01*
X982706Y695109D01*
X983831Y696234D01*
X984440Y697704D01*
Y699296D01*
X983831Y700766D01*
X982706Y701891D01*
X981236Y702500D01*
D02*
G37*
G36*
X1109506Y699960D02*
X1107914D01*
X1106444Y699351D01*
X1105319Y698226D01*
X1104710Y696756D01*
Y695164D01*
X1105319Y693694D01*
X1106444Y692569D01*
X1107914Y691960D01*
X1109506D01*
X1110976Y692569D01*
X1112101Y693694D01*
X1112710Y695164D01*
Y696756D01*
X1112101Y698226D01*
X1110976Y699351D01*
X1109506Y699960D01*
D02*
G37*
G36*
X724780Y708270D02*
X707780D01*
Y691270D01*
X724780D01*
Y708270D01*
D02*
G37*
G36*
X996476Y697420D02*
X994884D01*
X993414Y696811D01*
X992289Y695686D01*
X991680Y694216D01*
Y692624D01*
X992289Y691154D01*
X993414Y690029D01*
X994884Y689420D01*
X996476D01*
X997946Y690029D01*
X999071Y691154D01*
X999680Y692624D01*
Y694216D01*
X999071Y695686D01*
X997946Y696811D01*
X996476Y697420D01*
D02*
G37*
G36*
X1086646Y694880D02*
X1085054D01*
X1083584Y694271D01*
X1082459Y693146D01*
X1081850Y691676D01*
Y690084D01*
X1082459Y688614D01*
X1083584Y687489D01*
X1085054Y686880D01*
X1086646D01*
X1088116Y687489D01*
X1089241Y688614D01*
X1089850Y690084D01*
Y691676D01*
X1089241Y693146D01*
X1088116Y694271D01*
X1086646Y694880D01*
D02*
G37*
G36*
X833916Y688530D02*
X832324D01*
X830854Y687921D01*
X829729Y686796D01*
X829120Y685326D01*
Y683734D01*
X829729Y682264D01*
X830854Y681139D01*
X832324Y680530D01*
X833916D01*
X835386Y681139D01*
X836511Y682264D01*
X837120Y683734D01*
Y685326D01*
X836511Y686796D01*
X835386Y687921D01*
X833916Y688530D01*
D02*
G37*
G36*
X1023146Y682180D02*
X1021554D01*
X1020084Y681571D01*
X1018959Y680446D01*
X1018350Y678976D01*
Y677384D01*
X1018959Y675914D01*
X1020084Y674789D01*
X1021554Y674180D01*
X1023146D01*
X1024616Y674789D01*
X1025741Y675914D01*
X1026350Y677384D01*
Y678976D01*
X1025741Y680446D01*
X1024616Y681571D01*
X1023146Y682180D01*
D02*
G37*
G36*
X660249Y690563D02*
X658011D01*
X655849Y689983D01*
X653911Y688864D01*
X652328Y687282D01*
X651209Y685343D01*
X650630Y683182D01*
Y680944D01*
X651209Y678782D01*
X652328Y676843D01*
X653911Y675261D01*
X655849Y674142D01*
X658011Y673563D01*
X660249D01*
X662411Y674142D01*
X664349Y675261D01*
X665932Y676843D01*
X667051Y678782D01*
X667630Y680944D01*
Y683182D01*
X667051Y685343D01*
X665932Y687282D01*
X664349Y688864D01*
X662411Y689983D01*
X660249Y690563D01*
D02*
G37*
G36*
X887256Y685990D02*
X885664D01*
X884194Y685381D01*
X883069Y684256D01*
X882460Y682786D01*
Y681194D01*
X883069Y679724D01*
X884194Y678599D01*
X884980Y678273D01*
X884716Y677100D01*
X884162Y677100D01*
X883124D01*
X881654Y676491D01*
X880529Y675366D01*
X879920Y673896D01*
Y672304D01*
X880529Y670834D01*
X881654Y669709D01*
X883124Y669100D01*
X884716D01*
X886186Y669709D01*
X887311Y670834D01*
X887920Y672304D01*
Y673896D01*
X887311Y675366D01*
X886186Y676491D01*
X885400Y676817D01*
X885664Y677990D01*
X886218Y677990D01*
X887256D01*
X888726Y678599D01*
X889851Y679724D01*
X890460Y681194D01*
Y682786D01*
X889851Y684256D01*
X888726Y685381D01*
X887256Y685990D01*
D02*
G37*
G36*
X949486Y672020D02*
X947894D01*
X946424Y671411D01*
X945299Y670286D01*
X944690Y668816D01*
Y667224D01*
X945299Y665754D01*
X946424Y664629D01*
X947894Y664020D01*
X949486D01*
X950956Y664629D01*
X952081Y665754D01*
X952310Y666307D01*
X953580Y666054D01*
Y665961D01*
X954189Y664491D01*
X955314Y663366D01*
X956784Y662757D01*
X958376D01*
X959846Y663366D01*
X960971Y664491D01*
X961580Y665961D01*
Y667553D01*
X960971Y669023D01*
X959846Y670148D01*
X958376Y670757D01*
X956784D01*
X955314Y670148D01*
X954189Y669023D01*
X953960Y668470D01*
X952690Y668723D01*
Y668816D01*
X952081Y670286D01*
X950956Y671411D01*
X949486Y672020D01*
D02*
G37*
G36*
X870746Y670750D02*
X869154D01*
X867684Y670141D01*
X866559Y669016D01*
X865950Y667546D01*
Y665954D01*
X866559Y664484D01*
X867684Y663359D01*
X869154Y662750D01*
X870746D01*
X872216Y663359D01*
X873341Y664484D01*
X873950Y665954D01*
Y667546D01*
X873341Y669016D01*
X872216Y670141D01*
X870746Y670750D01*
D02*
G37*
G36*
X1026956Y661860D02*
X1025364D01*
X1023894Y661251D01*
X1022769Y660126D01*
X1022160Y658656D01*
Y657064D01*
X1022769Y655594D01*
X1023894Y654469D01*
X1025364Y653860D01*
X1026956D01*
X1028426Y654469D01*
X1029551Y655594D01*
X1030160Y657064D01*
Y658656D01*
X1029551Y660126D01*
X1028426Y661251D01*
X1026956Y661860D01*
D02*
G37*
G36*
X807246Y656780D02*
X805654D01*
X804184Y656171D01*
X803059Y655046D01*
X802450Y653576D01*
Y651984D01*
X803059Y650514D01*
X804184Y649389D01*
X805654Y648780D01*
X807246D01*
X808716Y649389D01*
X809841Y650514D01*
X810450Y651984D01*
Y653576D01*
X809841Y655046D01*
X808716Y656171D01*
X807246Y656780D01*
D02*
G37*
G36*
X758986D02*
X757394D01*
X755924Y656171D01*
X754799Y655046D01*
X754190Y653576D01*
Y651984D01*
X754799Y650514D01*
X755924Y649389D01*
X757394Y648780D01*
X758986D01*
X760456Y649389D01*
X761581Y650514D01*
X762190Y651984D01*
Y653576D01*
X761581Y655046D01*
X760456Y656171D01*
X758986Y656780D01*
D02*
G37*
G36*
X722156D02*
X720564D01*
X719094Y656171D01*
X717969Y655046D01*
X717360Y653576D01*
Y651984D01*
X717969Y650514D01*
X719094Y649389D01*
X720564Y648780D01*
X722156D01*
X723626Y649389D01*
X724751Y650514D01*
X725360Y651984D01*
Y653576D01*
X724751Y655046D01*
X723626Y656171D01*
X722156Y656780D01*
D02*
G37*
G36*
X660249Y665563D02*
X658011D01*
X655849Y664983D01*
X653911Y663864D01*
X652328Y662282D01*
X651209Y660343D01*
X650630Y658182D01*
Y655944D01*
X651209Y653782D01*
X652328Y651843D01*
X653911Y650261D01*
X655849Y649142D01*
X658011Y648563D01*
X660249D01*
X662411Y649142D01*
X664349Y650261D01*
X665932Y651843D01*
X667051Y653782D01*
X667630Y655944D01*
Y658182D01*
X667051Y660343D01*
X665932Y662282D01*
X664349Y663864D01*
X662411Y664983D01*
X660249Y665563D01*
D02*
G37*
G36*
X1075216Y654240D02*
X1073624D01*
X1072154Y653631D01*
X1071029Y652506D01*
X1070420Y651036D01*
Y649444D01*
X1071029Y647974D01*
X1072154Y646849D01*
X1073624Y646240D01*
X1075216D01*
X1076686Y646849D01*
X1077811Y647974D01*
X1078420Y649444D01*
Y651036D01*
X1077811Y652506D01*
X1076686Y653631D01*
X1075216Y654240D01*
D02*
G37*
G36*
X979966D02*
X978374D01*
X976904Y653631D01*
X975779Y652506D01*
X975170Y651036D01*
Y649444D01*
X975779Y647974D01*
X976904Y646849D01*
X978374Y646240D01*
X979966D01*
X981436Y646849D01*
X982561Y647974D01*
X983170Y649444D01*
Y651036D01*
X982561Y652506D01*
X981436Y653631D01*
X979966Y654240D01*
D02*
G37*
G36*
X874556Y647890D02*
X872964D01*
X871494Y647281D01*
X870369Y646156D01*
X869760Y644686D01*
Y643094D01*
X870369Y641624D01*
X871494Y640499D01*
X872964Y639890D01*
X874556D01*
X876026Y640499D01*
X877151Y641624D01*
X877760Y643094D01*
Y644686D01*
X877151Y646156D01*
X876026Y647281D01*
X874556Y647890D01*
D02*
G37*
G36*
X973616Y646620D02*
X972024D01*
X970554Y646011D01*
X969429Y644886D01*
X968820Y643416D01*
Y641824D01*
X969429Y640354D01*
X970554Y639229D01*
X972024Y638620D01*
X973616D01*
X975086Y639229D01*
X976211Y640354D01*
X976820Y641824D01*
Y643416D01*
X976211Y644886D01*
X975086Y646011D01*
X973616Y646620D01*
D02*
G37*
G36*
X986316Y640270D02*
X984724D01*
X983254Y639661D01*
X982129Y638536D01*
X981520Y637066D01*
Y635474D01*
X982129Y634004D01*
X983254Y632879D01*
X984724Y632270D01*
X986316D01*
X987786Y632879D01*
X988911Y634004D01*
X989520Y635474D01*
Y637066D01*
X988911Y638536D01*
X987786Y639661D01*
X986316Y640270D01*
D02*
G37*
G36*
X1057436Y633920D02*
X1055844D01*
X1054374Y633311D01*
X1053249Y632186D01*
X1052640Y630716D01*
Y629124D01*
X1053249Y627654D01*
X1054374Y626529D01*
X1055844Y625920D01*
X1057436D01*
X1058906Y626529D01*
X1060031Y627654D01*
X1060640Y629124D01*
Y630716D01*
X1060031Y632186D01*
X1058906Y633311D01*
X1057436Y633920D01*
D02*
G37*
G36*
X800896D02*
X799304D01*
X797834Y633311D01*
X796709Y632186D01*
X796100Y630716D01*
Y629124D01*
X796709Y627654D01*
X797834Y626529D01*
X799304Y625920D01*
X800896D01*
X802366Y626529D01*
X803491Y627654D01*
X804100Y629124D01*
Y630716D01*
X803491Y632186D01*
X802366Y633311D01*
X800896Y633920D01*
D02*
G37*
G36*
X766606D02*
X765014D01*
X763544Y633311D01*
X762419Y632186D01*
X761810Y630716D01*
Y629124D01*
X762419Y627654D01*
X763544Y626529D01*
X765014Y625920D01*
X766606D01*
X768076Y626529D01*
X769201Y627654D01*
X769810Y629124D01*
Y630716D01*
X769201Y632186D01*
X768076Y633311D01*
X766606Y633920D01*
D02*
G37*
G36*
X660249Y640563D02*
X658011D01*
X655849Y639983D01*
X653911Y638864D01*
X652328Y637282D01*
X651209Y635343D01*
X650630Y633182D01*
Y630943D01*
X651209Y628782D01*
X652328Y626843D01*
X653911Y625261D01*
X655849Y624142D01*
X658011Y623563D01*
X660249D01*
X662411Y624142D01*
X664349Y625261D01*
X665932Y626843D01*
X667051Y628782D01*
X667630Y630943D01*
Y633182D01*
X667051Y635343D01*
X665932Y637282D01*
X664349Y638864D01*
X662411Y639983D01*
X660249Y640563D01*
D02*
G37*
G36*
X1047276Y630110D02*
X1045684D01*
X1044214Y629501D01*
X1043089Y628376D01*
X1042480Y626906D01*
Y625314D01*
X1043089Y623844D01*
X1044214Y622719D01*
X1045684Y622110D01*
X1047276D01*
X1048746Y622719D01*
X1049871Y623844D01*
X1050480Y625314D01*
Y626906D01*
X1049871Y628376D01*
X1048746Y629501D01*
X1047276Y630110D01*
D02*
G37*
G36*
X873286Y627570D02*
X871694D01*
X870224Y626961D01*
X869099Y625836D01*
X868490Y624366D01*
Y622774D01*
X869099Y621304D01*
X870224Y620179D01*
X871694Y619570D01*
X873286D01*
X874756Y620179D01*
X875881Y621304D01*
X876490Y622774D01*
Y624366D01*
X875881Y625836D01*
X874756Y626961D01*
X873286Y627570D01*
D02*
G37*
G36*
X1039656Y621220D02*
X1038064D01*
X1036594Y620611D01*
X1035469Y619486D01*
X1034860Y618016D01*
Y616424D01*
X1035469Y614954D01*
X1035553Y614870D01*
X1035544Y614482D01*
X1035173Y613454D01*
X1034054Y612991D01*
X1032929Y611866D01*
X1032320Y610396D01*
Y608804D01*
X1032929Y607334D01*
X1034054Y606209D01*
X1035524Y605600D01*
X1037116D01*
X1038586Y606209D01*
X1039711Y607334D01*
X1040320Y608804D01*
Y610396D01*
X1039711Y611866D01*
X1039627Y611950D01*
X1039636Y612338D01*
X1040007Y613366D01*
X1041126Y613829D01*
X1042251Y614954D01*
X1042860Y616424D01*
Y618016D01*
X1042251Y619486D01*
X1041126Y620611D01*
X1039656Y621220D01*
D02*
G37*
G36*
X804706Y609790D02*
X803114D01*
X801644Y609181D01*
X800519Y608056D01*
X799910Y606586D01*
Y604994D01*
X800519Y603524D01*
X801644Y602399D01*
X803114Y601790D01*
X804706D01*
X806176Y602399D01*
X807301Y603524D01*
X807910Y604994D01*
Y606586D01*
X807301Y608056D01*
X806176Y609181D01*
X804706Y609790D01*
D02*
G37*
G36*
X767876D02*
X766284D01*
X764814Y609181D01*
X763689Y608056D01*
X763080Y606586D01*
Y604994D01*
X763689Y603524D01*
X764814Y602399D01*
X766284Y601790D01*
X767876D01*
X769346Y602399D01*
X770471Y603524D01*
X771080Y604994D01*
Y606586D01*
X770471Y608056D01*
X769346Y609181D01*
X767876Y609790D01*
D02*
G37*
G36*
X660249Y615563D02*
X658011D01*
X655849Y614983D01*
X653911Y613864D01*
X652328Y612282D01*
X651209Y610343D01*
X650630Y608182D01*
Y605943D01*
X651209Y603782D01*
X652328Y601843D01*
X653911Y600261D01*
X655849Y599142D01*
X658011Y598563D01*
X660249D01*
X662411Y599142D01*
X664349Y600261D01*
X665932Y601843D01*
X667051Y603782D01*
X667630Y605943D01*
Y608182D01*
X667051Y610343D01*
X665932Y612282D01*
X664349Y613864D01*
X662411Y614983D01*
X660249Y615563D01*
D02*
G37*
G36*
X912656Y605980D02*
X911064D01*
X909594Y605371D01*
X908469Y604246D01*
X907860Y602776D01*
Y601184D01*
X908469Y599714D01*
X909594Y598589D01*
X911064Y597980D01*
X912656D01*
X914126Y598589D01*
X915251Y599714D01*
X915860Y601184D01*
Y602776D01*
X915251Y604246D01*
X914126Y605371D01*
X912656Y605980D01*
D02*
G37*
G36*
X972346Y588200D02*
X970754D01*
X969284Y587591D01*
X968159Y586466D01*
X967550Y584996D01*
Y583404D01*
X968159Y581934D01*
X969284Y580809D01*
X970754Y580200D01*
X972346D01*
X973816Y580809D01*
X974941Y581934D01*
X975550Y583404D01*
Y584996D01*
X974941Y586466D01*
X973816Y587591D01*
X972346Y588200D01*
D02*
G37*
G36*
X885986Y585660D02*
X884394D01*
X882924Y585051D01*
X881799Y583926D01*
X881190Y582456D01*
Y580864D01*
X881799Y579394D01*
X882924Y578269D01*
X884394Y577660D01*
X885986D01*
X887456Y578269D01*
X888581Y579394D01*
X889190Y580864D01*
Y582456D01*
X888581Y583926D01*
X887456Y585051D01*
X885986Y585660D01*
D02*
G37*
G36*
X767876D02*
X766284D01*
X764814Y585051D01*
X763689Y583926D01*
X763080Y582456D01*
Y580864D01*
X763689Y579394D01*
X764814Y578269D01*
X766284Y577660D01*
X767876D01*
X769346Y578269D01*
X770471Y579394D01*
X771080Y580864D01*
Y582456D01*
X770471Y583926D01*
X769346Y585051D01*
X767876Y585660D01*
D02*
G37*
G36*
X804706Y584390D02*
X803114D01*
X801644Y583781D01*
X800519Y582656D01*
X799910Y581186D01*
Y579594D01*
X800519Y578124D01*
X801644Y576999D01*
X803114Y576390D01*
X804706D01*
X806176Y576999D01*
X807301Y578124D01*
X807910Y579594D01*
Y581186D01*
X807301Y582656D01*
X806176Y583781D01*
X804706Y584390D01*
D02*
G37*
G36*
X667630Y590563D02*
X650630D01*
Y573563D01*
X667630D01*
Y590563D01*
D02*
G37*
G36*
X737396Y570420D02*
X735804D01*
X734334Y569811D01*
X733209Y568686D01*
X732600Y567216D01*
Y565624D01*
X733209Y564154D01*
X734334Y563029D01*
X735804Y562420D01*
X737396D01*
X738866Y563029D01*
X739991Y564154D01*
X740600Y565624D01*
Y567216D01*
X739991Y568686D01*
X738866Y569811D01*
X737396Y570420D01*
D02*
G37*
G36*
X894876Y564070D02*
X893284D01*
X891814Y563461D01*
X890689Y562336D01*
X890080Y560866D01*
Y559274D01*
X890689Y557804D01*
X891814Y556679D01*
X893284Y556070D01*
X894876D01*
X896346Y556679D01*
X897471Y557804D01*
X898080Y559274D01*
Y560866D01*
X897471Y562336D01*
X896346Y563461D01*
X894876Y564070D01*
D02*
G37*
G36*
X955836Y551370D02*
X954244D01*
X952774Y550761D01*
X951649Y549636D01*
X951040Y548166D01*
Y546574D01*
X951649Y545104D01*
X952774Y543979D01*
X954244Y543370D01*
X955836D01*
X957306Y543979D01*
X958431Y545104D01*
X959040Y546574D01*
Y548166D01*
X958431Y549636D01*
X957306Y550761D01*
X955836Y551370D01*
D02*
G37*
G36*
X1128556Y522160D02*
X1126964D01*
X1125494Y521551D01*
X1124369Y520426D01*
X1123760Y518956D01*
Y517364D01*
X1124369Y515894D01*
X1125494Y514769D01*
X1126964Y514160D01*
X1128556D01*
X1130026Y514769D01*
X1131151Y515894D01*
X1131760Y517364D01*
Y518956D01*
X1131151Y520426D01*
X1130026Y521551D01*
X1128556Y522160D01*
D02*
G37*
G36*
X1067596D02*
X1066004D01*
X1064534Y521551D01*
X1063409Y520426D01*
X1062800Y518956D01*
Y517364D01*
X1063409Y515894D01*
X1064534Y514769D01*
X1066004Y514160D01*
X1067596D01*
X1069066Y514769D01*
X1070191Y515894D01*
X1070800Y517364D01*
Y518956D01*
X1070191Y520426D01*
X1069066Y521551D01*
X1067596Y522160D01*
D02*
G37*
G36*
X746286D02*
X744694D01*
X743224Y521551D01*
X742099Y520426D01*
X741490Y518956D01*
Y517364D01*
X742099Y515894D01*
X743224Y514769D01*
X744694Y514160D01*
X746286D01*
X747756Y514769D01*
X748881Y515894D01*
X749490Y517364D01*
Y518956D01*
X748881Y520426D01*
X747756Y521551D01*
X746286Y522160D01*
D02*
G37*
G36*
X1173006Y520890D02*
X1171414D01*
X1169944Y520281D01*
X1168819Y519156D01*
X1168210Y517686D01*
Y516094D01*
X1168819Y514624D01*
X1169944Y513499D01*
X1171414Y512890D01*
X1173006D01*
X1174476Y513499D01*
X1175601Y514624D01*
X1176210Y516094D01*
Y517686D01*
X1175601Y519156D01*
X1174476Y520281D01*
X1173006Y520890D01*
D02*
G37*
G36*
X1128556Y501840D02*
X1126964D01*
X1125494Y501231D01*
X1124369Y500106D01*
X1123760Y498636D01*
Y497044D01*
X1124369Y495574D01*
X1125494Y494449D01*
X1126964Y493840D01*
X1128556D01*
X1130026Y494449D01*
X1131151Y495574D01*
X1131760Y497044D01*
Y498636D01*
X1131151Y500106D01*
X1130026Y501231D01*
X1128556Y501840D01*
D02*
G37*
G36*
X1066326D02*
X1064734D01*
X1063264Y501231D01*
X1062139Y500106D01*
X1061530Y498636D01*
Y497044D01*
X1062139Y495574D01*
X1063264Y494449D01*
X1064734Y493840D01*
X1066326D01*
X1067796Y494449D01*
X1068921Y495574D01*
X1069530Y497044D01*
Y498636D01*
X1068921Y500106D01*
X1067796Y501231D01*
X1066326Y501840D01*
D02*
G37*
G36*
X1065056Y481520D02*
X1063464D01*
X1061994Y480911D01*
X1060869Y479786D01*
X1060260Y478316D01*
Y476724D01*
X1060869Y475254D01*
X1061994Y474129D01*
X1063464Y473520D01*
X1065056D01*
X1066526Y474129D01*
X1067651Y475254D01*
X1068260Y476724D01*
Y478316D01*
X1067651Y479786D01*
X1066526Y480911D01*
X1065056Y481520D01*
D02*
G37*
G36*
X1129826Y480250D02*
X1128234D01*
X1126764Y479641D01*
X1125639Y478516D01*
X1125030Y477046D01*
Y475454D01*
X1125639Y473984D01*
X1126764Y472859D01*
X1128234Y472250D01*
X1129826D01*
X1131296Y472859D01*
X1132421Y473984D01*
X1133030Y475454D01*
Y477046D01*
X1132421Y478516D01*
X1131296Y479641D01*
X1129826Y480250D01*
D02*
G37*
G36*
X1127286Y459930D02*
X1125694D01*
X1124224Y459321D01*
X1123099Y458196D01*
X1122490Y456726D01*
Y455134D01*
X1123099Y453664D01*
X1124224Y452539D01*
X1125694Y451930D01*
X1127286D01*
X1128756Y452539D01*
X1129881Y453664D01*
X1130490Y455134D01*
Y456726D01*
X1129881Y458196D01*
X1128756Y459321D01*
X1127286Y459930D01*
D02*
G37*
G36*
X1065056D02*
X1063464D01*
X1061994Y459321D01*
X1060869Y458196D01*
X1060260Y456726D01*
Y455134D01*
X1060869Y453664D01*
X1061994Y452539D01*
X1063464Y451930D01*
X1065056D01*
X1066526Y452539D01*
X1067651Y453664D01*
X1068260Y455134D01*
Y456726D01*
X1067651Y458196D01*
X1066526Y459321D01*
X1065056Y459930D01*
D02*
G37*
G36*
X648819Y465300D02*
X646581D01*
X644419Y464721D01*
X642481Y463602D01*
X640898Y462019D01*
X639779Y460081D01*
X639200Y457919D01*
Y455681D01*
X639779Y453519D01*
X640898Y451581D01*
X642481Y449998D01*
X644419Y448879D01*
X646581Y448300D01*
X648819D01*
X650981Y448879D01*
X652919Y449998D01*
X654502Y451581D01*
X655621Y453519D01*
X656200Y455681D01*
Y457919D01*
X655621Y460081D01*
X654502Y462019D01*
X652919Y463602D01*
X650981Y464721D01*
X648819Y465300D01*
D02*
G37*
G36*
X1132366Y443420D02*
X1130774D01*
X1129304Y442811D01*
X1128179Y441686D01*
X1127570Y440216D01*
Y438624D01*
X1128179Y437154D01*
X1129304Y436029D01*
X1130774Y435420D01*
X1132366D01*
X1133836Y436029D01*
X1134961Y437154D01*
X1135570Y438624D01*
Y440216D01*
X1134961Y441686D01*
X1133836Y442811D01*
X1132366Y443420D01*
D02*
G37*
G36*
X648819Y440300D02*
X646581D01*
X644419Y439721D01*
X642481Y438602D01*
X640898Y437019D01*
X639779Y435081D01*
X639200Y432919D01*
Y430681D01*
X639779Y428519D01*
X640898Y426581D01*
X642481Y424998D01*
X644419Y423879D01*
X646581Y423300D01*
X648819D01*
X650981Y423879D01*
X652919Y424998D01*
X654502Y426581D01*
X655621Y428519D01*
X656200Y430681D01*
Y432919D01*
X655621Y435081D01*
X654502Y437019D01*
X652919Y438602D01*
X650981Y439721D01*
X648819Y440300D01*
D02*
G37*
G36*
X656200Y415300D02*
X639200D01*
Y398300D01*
X656200D01*
Y415300D01*
D02*
G37*
%LPD*%
D91*
X659130Y582062D02*
D03*
Y912605D02*
D03*
X726440Y905312D02*
D03*
X716280Y699770D02*
D03*
X647700Y406800D02*
D03*
D92*
X659130Y607062D02*
D03*
Y632062D02*
D03*
Y657063D02*
D03*
Y682063D02*
D03*
Y707063D02*
D03*
Y887605D02*
D03*
Y862605D02*
D03*
Y837605D02*
D03*
Y812605D02*
D03*
Y787605D02*
D03*
Y762605D02*
D03*
X726440Y880312D02*
D03*
Y855312D02*
D03*
Y830312D02*
D03*
Y805312D02*
D03*
X716280Y724770D02*
D03*
Y749770D02*
D03*
X647700Y481800D02*
D03*
Y456800D02*
D03*
Y431800D02*
D03*
D93*
X706440Y921312D02*
D03*
D98*
X1191260Y720911D02*
X1192260Y721911D01*
Y722360D01*
X1191260Y720370D02*
Y720911D01*
X1192260Y722360D02*
X1206500Y736600D01*
X1200150Y720090D02*
X1200230D01*
X1209271Y729131D01*
X1198030Y750990D02*
X1227646Y780606D01*
X1197610Y750990D02*
X1198030D01*
X1187450Y745490D02*
X1233170D01*
X1346200Y858520D01*
X1228916Y780606D02*
X1258570Y810260D01*
X1227646Y780606D02*
X1228916D01*
X1258570Y810260D02*
Y910590D01*
X1187450Y755650D02*
X1248410Y816610D01*
X1187450Y745394D02*
Y755650D01*
X1185293Y699387D02*
X1190373D01*
X1196340Y676910D02*
Y693420D01*
X1190373Y699387D02*
X1196340Y693420D01*
X1190567Y706120D02*
X1202690Y693997D01*
Y681269D02*
Y693997D01*
X1167130Y706120D02*
X1190567D01*
X1294001Y642524D02*
X1434647D01*
X1438375Y651524D02*
X1454260Y635639D01*
X1297729Y651524D02*
X1438375D01*
X1454260Y624840D02*
Y635639D01*
X1257037Y679487D02*
X1294001Y642524D01*
X1256840Y679487D02*
X1257037D01*
X1434647Y642524D02*
X1445260Y631911D01*
Y624840D02*
Y631911D01*
X1262380Y686873D02*
Y687070D01*
Y686873D02*
X1297729Y651524D01*
X1334049Y549910D02*
X1473680D01*
X1202690Y681269D02*
X1334049Y549910D01*
X1206500Y736600D02*
X1236980D01*
X1184910Y699770D02*
X1185293Y699387D01*
X1366520Y890270D02*
X1464310D01*
X1240790Y764540D02*
X1366520Y890270D01*
X1231900Y722630D02*
X1242060D01*
X1248035Y728605D01*
X1262755D01*
X1316990Y674370D01*
X1257300Y718820D02*
X1313180Y662940D01*
X1249680Y718820D02*
X1257300D01*
X1313180Y662940D02*
X1466850D01*
X1209271Y729131D02*
X1239094D01*
X1302443Y792480D01*
X1640840D01*
X1464310Y704850D02*
Y725170D01*
X1433830Y674370D02*
X1464310Y704850D01*
X1316990Y674370D02*
X1433830D01*
X1236980Y736600D02*
X1304290Y803910D01*
X1346200Y858520D02*
X1675130D01*
X1442720Y934720D02*
X1464310Y956310D01*
X1442720Y906780D02*
Y934720D01*
X1433830Y897890D02*
X1442720Y906780D01*
X1360170Y897890D02*
X1433830D01*
X1233170Y770890D02*
X1360170Y897890D01*
X1233170Y756920D02*
Y770890D01*
X1156970Y695960D02*
X1167130Y706120D01*
X1377950Y1029970D02*
X1649730D01*
X1375410Y1037590D02*
X1502590D01*
X1258570Y910590D02*
X1377950Y1029970D01*
X1502590Y1037590D02*
X1515000Y1050000D01*
X1248410Y910590D02*
X1375410Y1037590D01*
X1196340Y676910D02*
X1336040Y537210D01*
X1648243D01*
X1443543Y803910D02*
X1447800Y808167D01*
Y809140D01*
X1304290Y803910D02*
X1443543D01*
X1640840Y792480D02*
X1651000Y802640D01*
X1248410Y816610D02*
Y910590D01*
X1473680Y549910D02*
X1493770Y570000D01*
D99*
X1725930Y591820D02*
D03*
X1723390Y1123950D02*
D03*
X1210310Y402590D02*
D03*
X777240Y1125220D02*
D03*
D100*
X1012190Y1112520D02*
D03*
X1172210Y1113790D02*
D03*
D101*
X1725930Y977900D02*
D03*
X1724025Y746760D02*
D03*
X1725930Y481330D02*
D03*
D102*
X1277593Y882918D02*
D03*
Y870218D02*
D03*
Y841008D02*
D03*
Y828308D02*
D03*
X1278863Y745758D02*
D03*
Y731788D02*
D03*
X1280160Y687070D02*
D03*
X1280133Y678448D02*
D03*
Y637808D02*
D03*
Y622568D02*
D03*
Y576848D02*
D03*
Y560338D02*
D03*
Y545098D02*
D03*
X873733Y691148D02*
D03*
X869950Y666750D02*
D03*
X854683Y772428D02*
D03*
X866113Y750838D02*
D03*
X919754Y627799D02*
D03*
X883920Y673100D02*
D03*
X956310Y647200D02*
D03*
X970280Y617220D02*
D03*
X952500D02*
D03*
X1191260Y720370D02*
D03*
X1200150Y720090D02*
D03*
X803910Y605790D02*
D03*
Y580390D02*
D03*
X1197610Y750990D02*
D03*
X1187450Y745394D02*
D03*
X1065530Y735370D02*
D03*
Y744220D02*
D03*
X985520Y710370D02*
D03*
X975521Y720370D02*
D03*
X1256030Y645160D02*
D03*
X1249666Y651524D02*
D03*
X1256840Y679487D02*
D03*
X1262380Y687070D02*
D03*
X1454260Y624840D02*
D03*
X1445260D02*
D03*
X1459810Y1014270D02*
D03*
X904240Y786130D02*
D03*
X920750Y744220D02*
D03*
X965200Y699080D02*
D03*
X980440Y698500D02*
D03*
X995680Y693420D02*
D03*
X1079500Y782320D02*
D03*
X1184910Y699770D02*
D03*
X1189990Y689610D02*
D03*
X852170Y608330D02*
D03*
X872490Y623570D02*
D03*
X833120Y684530D02*
D03*
X873760Y643890D02*
D03*
X836916Y652780D02*
D03*
X911860Y601980D02*
D03*
X909320Y549910D02*
D03*
X971550Y554990D02*
D03*
X872490Y584200D02*
D03*
X721360Y652780D02*
D03*
X736600Y566420D02*
D03*
X901700Y734060D02*
D03*
X1131570Y439420D02*
D03*
X1076960Y768350D02*
D03*
X986790Y819150D02*
D03*
X1017270Y770890D02*
D03*
X996950Y779780D02*
D03*
X1160780Y488950D02*
D03*
X1102360Y414020D02*
D03*
X941070Y857250D02*
D03*
X894080Y821690D02*
D03*
X908050D02*
D03*
X795020Y763270D02*
D03*
X789940Y716280D02*
D03*
X849230Y556649D02*
D03*
X967740Y523240D02*
D03*
X918210Y458470D02*
D03*
X996950Y1130300D02*
D03*
X1004570D02*
D03*
X1012190D02*
D03*
X1019810D02*
D03*
X1027430D02*
D03*
Y1122680D02*
D03*
X1019810D02*
D03*
X1012190D02*
D03*
X1004570D02*
D03*
X996950D02*
D03*
Y1115060D02*
D03*
X1004570D02*
D03*
X1012190D02*
D03*
X1019810D02*
D03*
X1027430D02*
D03*
Y1107440D02*
D03*
X1019810D02*
D03*
X1012190D02*
D03*
X1004570D02*
D03*
X996950D02*
D03*
Y1099820D02*
D03*
X1004570D02*
D03*
X1012190D02*
D03*
X1019810D02*
D03*
X1027430D02*
D03*
Y1092200D02*
D03*
X1019810D02*
D03*
X1012190D02*
D03*
X1004570D02*
D03*
X996950D02*
D03*
Y1084580D02*
D03*
X1004570D02*
D03*
X1012190D02*
D03*
X1019810D02*
D03*
X1027430D02*
D03*
Y1076960D02*
D03*
X1019810D02*
D03*
X1012190D02*
D03*
X1004570D02*
D03*
X996950D02*
D03*
Y1069340D02*
D03*
X1004570D02*
D03*
X1012190D02*
D03*
X1019810D02*
D03*
X1027430D02*
D03*
Y1137920D02*
D03*
X1019810D02*
D03*
X1012190D02*
D03*
X1004570D02*
D03*
X996950D02*
D03*
Y1145540D02*
D03*
X1004570D02*
D03*
X1012190D02*
D03*
X1019810D02*
D03*
X1027430Y1153160D02*
D03*
X1019810D02*
D03*
X1012190D02*
D03*
X1004570D02*
D03*
X996950D02*
D03*
X1027430Y1145540D02*
D03*
X1035050Y1153160D02*
D03*
Y1145540D02*
D03*
Y1137920D02*
D03*
Y1130300D02*
D03*
Y1122680D02*
D03*
Y1115060D02*
D03*
Y1107440D02*
D03*
Y1099820D02*
D03*
Y1092200D02*
D03*
Y1084580D02*
D03*
Y1076960D02*
D03*
Y1069340D02*
D03*
X1042670Y1153160D02*
D03*
Y1145540D02*
D03*
Y1137920D02*
D03*
Y1130300D02*
D03*
Y1122680D02*
D03*
Y1115060D02*
D03*
Y1107440D02*
D03*
Y1099820D02*
D03*
Y1092200D02*
D03*
Y1084580D02*
D03*
Y1076960D02*
D03*
Y1069340D02*
D03*
X1050290Y1145540D02*
D03*
Y1137920D02*
D03*
Y1130300D02*
D03*
Y1122680D02*
D03*
Y1115060D02*
D03*
Y1107440D02*
D03*
Y1099820D02*
D03*
Y1092200D02*
D03*
Y1084580D02*
D03*
Y1076960D02*
D03*
X989330Y1069340D02*
D03*
Y1076960D02*
D03*
Y1084580D02*
D03*
Y1092200D02*
D03*
Y1099820D02*
D03*
Y1107440D02*
D03*
Y1115060D02*
D03*
Y1122680D02*
D03*
Y1130300D02*
D03*
Y1137920D02*
D03*
Y1145540D02*
D03*
Y1153160D02*
D03*
X981710D02*
D03*
Y1145540D02*
D03*
Y1137920D02*
D03*
Y1130300D02*
D03*
Y1122680D02*
D03*
Y1115060D02*
D03*
Y1107440D02*
D03*
Y1099820D02*
D03*
Y1092200D02*
D03*
Y1084580D02*
D03*
Y1076960D02*
D03*
Y1069340D02*
D03*
X974090Y1076960D02*
D03*
Y1084580D02*
D03*
Y1092200D02*
D03*
Y1099820D02*
D03*
Y1107440D02*
D03*
Y1115060D02*
D03*
Y1122680D02*
D03*
Y1130300D02*
D03*
Y1137920D02*
D03*
Y1145540D02*
D03*
X1134110Y1146810D02*
D03*
Y1139190D02*
D03*
Y1131570D02*
D03*
Y1123950D02*
D03*
Y1116330D02*
D03*
Y1108710D02*
D03*
Y1101090D02*
D03*
Y1093470D02*
D03*
Y1085850D02*
D03*
Y1078230D02*
D03*
X1141730Y1070610D02*
D03*
Y1078230D02*
D03*
Y1085850D02*
D03*
Y1093470D02*
D03*
Y1101090D02*
D03*
Y1108710D02*
D03*
Y1116330D02*
D03*
Y1123950D02*
D03*
Y1131570D02*
D03*
Y1139190D02*
D03*
Y1146810D02*
D03*
Y1154430D02*
D03*
X1149350D02*
D03*
Y1146810D02*
D03*
Y1139190D02*
D03*
Y1131570D02*
D03*
Y1123950D02*
D03*
Y1116330D02*
D03*
Y1108710D02*
D03*
Y1101090D02*
D03*
Y1093470D02*
D03*
Y1085850D02*
D03*
Y1078230D02*
D03*
Y1070610D02*
D03*
X1210310Y1078230D02*
D03*
Y1085850D02*
D03*
Y1093470D02*
D03*
Y1101090D02*
D03*
Y1108710D02*
D03*
Y1116330D02*
D03*
Y1123950D02*
D03*
Y1131570D02*
D03*
Y1139190D02*
D03*
Y1146810D02*
D03*
X1202690Y1070610D02*
D03*
Y1078230D02*
D03*
Y1085850D02*
D03*
Y1093470D02*
D03*
Y1101090D02*
D03*
Y1108710D02*
D03*
Y1116330D02*
D03*
Y1123950D02*
D03*
Y1131570D02*
D03*
Y1139190D02*
D03*
Y1146810D02*
D03*
Y1154430D02*
D03*
X1195070Y1070610D02*
D03*
Y1078230D02*
D03*
Y1085850D02*
D03*
Y1093470D02*
D03*
Y1101090D02*
D03*
Y1108710D02*
D03*
Y1116330D02*
D03*
Y1123950D02*
D03*
Y1131570D02*
D03*
Y1139190D02*
D03*
Y1146810D02*
D03*
Y1154430D02*
D03*
X1187450Y1146810D02*
D03*
X1156970Y1154430D02*
D03*
X1164590D02*
D03*
X1172210D02*
D03*
X1179830D02*
D03*
X1187450D02*
D03*
X1179830Y1146810D02*
D03*
X1172210D02*
D03*
X1164590D02*
D03*
X1156970D02*
D03*
Y1139190D02*
D03*
X1164590D02*
D03*
X1172210D02*
D03*
X1179830D02*
D03*
X1187450D02*
D03*
Y1070610D02*
D03*
X1179830D02*
D03*
X1172210D02*
D03*
X1164590D02*
D03*
X1156970D02*
D03*
Y1078230D02*
D03*
X1164590D02*
D03*
X1172210D02*
D03*
X1179830D02*
D03*
X1187450D02*
D03*
Y1085850D02*
D03*
X1179830D02*
D03*
X1172210D02*
D03*
X1164590D02*
D03*
X1156970D02*
D03*
Y1093470D02*
D03*
X1164590D02*
D03*
X1172210D02*
D03*
X1179830D02*
D03*
X1187450D02*
D03*
Y1101090D02*
D03*
X1179830D02*
D03*
X1172210D02*
D03*
X1164590D02*
D03*
X1156970D02*
D03*
Y1108710D02*
D03*
X1164590D02*
D03*
X1172210D02*
D03*
X1179830D02*
D03*
X1187450D02*
D03*
Y1116330D02*
D03*
X1179830D02*
D03*
X1172210D02*
D03*
X1164590D02*
D03*
X1156970D02*
D03*
Y1123950D02*
D03*
X1164590D02*
D03*
X1172210D02*
D03*
X1179830D02*
D03*
X1187450D02*
D03*
Y1131570D02*
D03*
X1179830D02*
D03*
X1172210D02*
D03*
X1164590D02*
D03*
X1156970D02*
D03*
X1708150Y962660D02*
D03*
Y970280D02*
D03*
Y977900D02*
D03*
Y985520D02*
D03*
Y993140D02*
D03*
X1715770D02*
D03*
Y985520D02*
D03*
Y977900D02*
D03*
Y970280D02*
D03*
Y962660D02*
D03*
X1723390D02*
D03*
Y970280D02*
D03*
Y977900D02*
D03*
Y985520D02*
D03*
Y993140D02*
D03*
X1731010D02*
D03*
Y985520D02*
D03*
Y977900D02*
D03*
Y970280D02*
D03*
Y962660D02*
D03*
X1738630D02*
D03*
Y970280D02*
D03*
Y977900D02*
D03*
Y985520D02*
D03*
Y993140D02*
D03*
X1746250D02*
D03*
Y985520D02*
D03*
Y977900D02*
D03*
Y970280D02*
D03*
Y962660D02*
D03*
X1753870D02*
D03*
Y970280D02*
D03*
Y977900D02*
D03*
Y985520D02*
D03*
Y993140D02*
D03*
X1761490D02*
D03*
Y985520D02*
D03*
Y977900D02*
D03*
Y970280D02*
D03*
Y962660D02*
D03*
X1769110D02*
D03*
Y970280D02*
D03*
Y977900D02*
D03*
Y985520D02*
D03*
Y993140D02*
D03*
X1700530D02*
D03*
Y985520D02*
D03*
Y977900D02*
D03*
Y970280D02*
D03*
Y962660D02*
D03*
X1692910D02*
D03*
Y970280D02*
D03*
Y977900D02*
D03*
Y985520D02*
D03*
X1685290Y993140D02*
D03*
Y985520D02*
D03*
Y977900D02*
D03*
Y970280D02*
D03*
Y962660D02*
D03*
X1692910Y993140D02*
D03*
X1685290Y1000760D02*
D03*
X1692910D02*
D03*
X1700530D02*
D03*
X1708150D02*
D03*
X1715770D02*
D03*
X1723390D02*
D03*
X1731010D02*
D03*
X1738630D02*
D03*
X1746250D02*
D03*
X1753870D02*
D03*
X1761490D02*
D03*
X1769110D02*
D03*
X1685290Y1008380D02*
D03*
X1692910D02*
D03*
X1700530D02*
D03*
X1708150D02*
D03*
X1715770D02*
D03*
X1723390D02*
D03*
X1731010D02*
D03*
X1738630D02*
D03*
X1746250D02*
D03*
X1753870D02*
D03*
X1761490D02*
D03*
X1769110D02*
D03*
X1692910Y1016000D02*
D03*
X1700530D02*
D03*
X1708150D02*
D03*
X1715770D02*
D03*
X1723390D02*
D03*
X1731010D02*
D03*
X1738630D02*
D03*
X1746250D02*
D03*
X1753870D02*
D03*
X1761490D02*
D03*
X1769110Y955040D02*
D03*
X1761490D02*
D03*
X1753870D02*
D03*
X1746250D02*
D03*
X1738630D02*
D03*
X1731010D02*
D03*
X1723390D02*
D03*
X1715770D02*
D03*
X1708150D02*
D03*
X1700530D02*
D03*
X1692910D02*
D03*
X1685290D02*
D03*
Y947420D02*
D03*
X1692910D02*
D03*
X1700530D02*
D03*
X1708150D02*
D03*
X1715770D02*
D03*
X1723390D02*
D03*
X1731010D02*
D03*
X1738630D02*
D03*
X1746250D02*
D03*
X1753870D02*
D03*
X1761490D02*
D03*
X1769110D02*
D03*
X1761490Y939800D02*
D03*
X1753870D02*
D03*
X1746250D02*
D03*
X1738630D02*
D03*
X1731010D02*
D03*
X1723390D02*
D03*
X1715770D02*
D03*
X1708150D02*
D03*
X1700530D02*
D03*
X1692910D02*
D03*
X1691005Y708660D02*
D03*
X1698625D02*
D03*
X1706245D02*
D03*
X1713865D02*
D03*
X1721485D02*
D03*
X1729105D02*
D03*
X1736725D02*
D03*
X1744345D02*
D03*
X1751965D02*
D03*
X1759585D02*
D03*
X1767205Y716280D02*
D03*
X1759585D02*
D03*
X1751965D02*
D03*
X1744345D02*
D03*
X1736725D02*
D03*
X1729105D02*
D03*
X1721485D02*
D03*
X1713865D02*
D03*
X1706245D02*
D03*
X1698625D02*
D03*
X1691005D02*
D03*
X1683385D02*
D03*
Y723900D02*
D03*
X1691005D02*
D03*
X1698625D02*
D03*
X1706245D02*
D03*
X1713865D02*
D03*
X1721485D02*
D03*
X1729105D02*
D03*
X1736725D02*
D03*
X1744345D02*
D03*
X1751965D02*
D03*
X1759585D02*
D03*
X1767205D02*
D03*
X1759585Y784860D02*
D03*
X1751965D02*
D03*
X1744345D02*
D03*
X1736725D02*
D03*
X1729105D02*
D03*
X1721485D02*
D03*
X1713865D02*
D03*
X1706245D02*
D03*
X1698625D02*
D03*
X1691005D02*
D03*
X1767205Y777240D02*
D03*
X1759585D02*
D03*
X1751965D02*
D03*
X1744345D02*
D03*
X1736725D02*
D03*
X1729105D02*
D03*
X1721485D02*
D03*
X1713865D02*
D03*
X1706245D02*
D03*
X1698625D02*
D03*
X1691005D02*
D03*
X1683385D02*
D03*
X1767205Y769620D02*
D03*
X1759585D02*
D03*
X1751965D02*
D03*
X1744345D02*
D03*
X1736725D02*
D03*
X1729105D02*
D03*
X1721485D02*
D03*
X1713865D02*
D03*
X1706245D02*
D03*
X1698625D02*
D03*
X1691005D02*
D03*
X1683385D02*
D03*
X1691005Y762000D02*
D03*
X1683385Y731520D02*
D03*
Y739140D02*
D03*
Y746760D02*
D03*
Y754380D02*
D03*
Y762000D02*
D03*
X1691005Y754380D02*
D03*
Y746760D02*
D03*
Y739140D02*
D03*
Y731520D02*
D03*
X1698625D02*
D03*
Y739140D02*
D03*
Y746760D02*
D03*
Y754380D02*
D03*
Y762000D02*
D03*
X1767205D02*
D03*
Y754380D02*
D03*
Y746760D02*
D03*
Y739140D02*
D03*
Y731520D02*
D03*
X1759585D02*
D03*
Y739140D02*
D03*
Y746760D02*
D03*
Y754380D02*
D03*
Y762000D02*
D03*
X1751965D02*
D03*
Y754380D02*
D03*
Y746760D02*
D03*
Y739140D02*
D03*
Y731520D02*
D03*
X1744345D02*
D03*
Y739140D02*
D03*
Y746760D02*
D03*
Y754380D02*
D03*
Y762000D02*
D03*
X1736725D02*
D03*
Y754380D02*
D03*
Y746760D02*
D03*
Y739140D02*
D03*
Y731520D02*
D03*
X1729105D02*
D03*
Y739140D02*
D03*
Y746760D02*
D03*
Y754380D02*
D03*
Y762000D02*
D03*
X1721485D02*
D03*
Y754380D02*
D03*
Y746760D02*
D03*
Y739140D02*
D03*
Y731520D02*
D03*
X1713865D02*
D03*
Y739140D02*
D03*
Y746760D02*
D03*
Y754380D02*
D03*
Y762000D02*
D03*
X1706245D02*
D03*
Y754380D02*
D03*
Y746760D02*
D03*
Y739140D02*
D03*
Y731520D02*
D03*
X1708150Y466090D02*
D03*
Y473710D02*
D03*
Y481330D02*
D03*
Y488950D02*
D03*
Y496570D02*
D03*
X1715770D02*
D03*
Y488950D02*
D03*
Y481330D02*
D03*
Y473710D02*
D03*
Y466090D02*
D03*
X1723390D02*
D03*
Y473710D02*
D03*
Y481330D02*
D03*
Y488950D02*
D03*
Y496570D02*
D03*
X1731010D02*
D03*
Y488950D02*
D03*
Y481330D02*
D03*
Y473710D02*
D03*
Y466090D02*
D03*
X1738630D02*
D03*
Y473710D02*
D03*
Y481330D02*
D03*
Y488950D02*
D03*
Y496570D02*
D03*
X1746250D02*
D03*
Y488950D02*
D03*
Y481330D02*
D03*
Y473710D02*
D03*
Y466090D02*
D03*
X1753870D02*
D03*
Y473710D02*
D03*
Y481330D02*
D03*
Y488950D02*
D03*
Y496570D02*
D03*
X1761490D02*
D03*
Y488950D02*
D03*
Y481330D02*
D03*
Y473710D02*
D03*
Y466090D02*
D03*
X1769110D02*
D03*
Y473710D02*
D03*
Y481330D02*
D03*
Y488950D02*
D03*
Y496570D02*
D03*
X1700530D02*
D03*
Y488950D02*
D03*
Y481330D02*
D03*
Y473710D02*
D03*
Y466090D02*
D03*
X1692910D02*
D03*
Y473710D02*
D03*
Y481330D02*
D03*
Y488950D02*
D03*
X1685290Y496570D02*
D03*
Y488950D02*
D03*
Y481330D02*
D03*
Y473710D02*
D03*
Y466090D02*
D03*
X1692910Y496570D02*
D03*
X1685290Y504190D02*
D03*
X1692910D02*
D03*
X1700530D02*
D03*
X1708150D02*
D03*
X1715770D02*
D03*
X1723390D02*
D03*
X1731010D02*
D03*
X1738630D02*
D03*
X1746250D02*
D03*
X1753870D02*
D03*
X1761490D02*
D03*
X1769110D02*
D03*
X1685290Y511810D02*
D03*
X1692910D02*
D03*
X1700530D02*
D03*
X1708150D02*
D03*
X1715770D02*
D03*
X1723390D02*
D03*
X1731010D02*
D03*
X1738630D02*
D03*
X1746250D02*
D03*
X1753870D02*
D03*
X1761490D02*
D03*
X1769110D02*
D03*
X1692910Y519430D02*
D03*
X1700530D02*
D03*
X1708150D02*
D03*
X1715770D02*
D03*
X1723390D02*
D03*
X1731010D02*
D03*
X1738630D02*
D03*
X1746250D02*
D03*
X1753870D02*
D03*
X1761490D02*
D03*
X1769110Y458470D02*
D03*
X1761490D02*
D03*
X1753870D02*
D03*
X1746250D02*
D03*
X1738630D02*
D03*
X1731010D02*
D03*
X1723390D02*
D03*
X1715770D02*
D03*
X1708150D02*
D03*
X1700530D02*
D03*
X1692910D02*
D03*
X1685290D02*
D03*
Y450850D02*
D03*
X1692910D02*
D03*
X1700530D02*
D03*
X1708150D02*
D03*
X1715770D02*
D03*
X1723390D02*
D03*
X1731010D02*
D03*
X1738630D02*
D03*
X1746250D02*
D03*
X1753870D02*
D03*
X1761490D02*
D03*
X1769110D02*
D03*
X1761490Y443230D02*
D03*
X1753870D02*
D03*
X1746250D02*
D03*
X1738630D02*
D03*
X1731010D02*
D03*
X1723390D02*
D03*
X1715770D02*
D03*
X1708150D02*
D03*
X1700530D02*
D03*
X1692910D02*
D03*
X1085850Y690880D02*
D03*
X1035050Y588010D02*
D03*
X1240790Y764540D02*
D03*
X1079500Y756920D02*
D03*
X1172210Y516890D02*
D03*
X1219200Y485140D02*
D03*
X1126490Y455930D02*
D03*
X1129030Y476250D02*
D03*
X1064260Y477520D02*
D03*
X1066800Y518160D02*
D03*
X1065530Y497840D02*
D03*
X1127760Y518160D02*
D03*
Y497840D02*
D03*
X1191260Y816610D02*
D03*
X1189990Y770890D02*
D03*
X1056640Y629920D02*
D03*
X1046480Y626110D02*
D03*
X1038860Y617220D02*
D03*
X1036320Y609600D02*
D03*
X972820Y642620D02*
D03*
X886460Y681990D02*
D03*
X979170Y650240D02*
D03*
X948690Y668020D02*
D03*
X957580Y666757D02*
D03*
X985520Y636270D02*
D03*
X906780Y701040D02*
D03*
X918210D02*
D03*
X955040Y547370D02*
D03*
X1250950Y708660D02*
D03*
X1231900Y722630D02*
D03*
X1249680Y718820D02*
D03*
X1240224Y706824D02*
D03*
X1233170Y756920D02*
D03*
X1466174Y1022364D02*
D03*
X1217930Y675640D02*
D03*
X1200150Y661670D02*
D03*
X1156970Y695960D02*
D03*
X1675130Y858520D02*
D03*
X1651000Y802640D02*
D03*
X1649730Y1029970D02*
D03*
X1464310Y956310D02*
D03*
Y890270D02*
D03*
Y725170D02*
D03*
X1466850Y662940D02*
D03*
X1455420Y459740D02*
D03*
X1460500Y392430D02*
D03*
X1648460Y537210D02*
D03*
X1195070Y642620D02*
D03*
X758190Y518160D02*
D03*
X745490D02*
D03*
X765810Y629920D02*
D03*
X767080Y605790D02*
D03*
Y581660D02*
D03*
X758190Y652780D02*
D03*
X1022350Y678180D02*
D03*
X894080Y560070D02*
D03*
X806450Y652780D02*
D03*
X885190Y581660D02*
D03*
X800100Y629920D02*
D03*
X1064260Y455930D02*
D03*
X971550Y584200D02*
D03*
X1026160Y657860D02*
D03*
X1029970Y826770D02*
D03*
X1064260Y811530D02*
D03*
X1073150Y795020D02*
D03*
X1062990Y791210D02*
D03*
X1074420Y650240D02*
D03*
X1108710Y695960D02*
D03*
X952500Y728980D02*
D03*
X1057910Y769620D02*
D03*
D103*
X1502117Y845826D02*
D03*
X1452117D02*
D03*
X1202117Y995826D02*
D03*
X1152117D02*
D03*
X1102117D02*
D03*
Y945826D02*
D03*
Y645826D02*
D03*
Y445826D02*
D03*
Y395826D02*
D03*
X1052117Y995826D02*
D03*
Y945826D02*
D03*
Y895826D02*
D03*
Y645826D02*
D03*
Y595826D02*
D03*
Y545826D02*
D03*
Y445826D02*
D03*
Y395826D02*
D03*
X1002117Y995826D02*
D03*
Y895826D02*
D03*
Y495826D02*
D03*
Y445826D02*
D03*
Y395826D02*
D03*
X952117Y995826D02*
D03*
Y945826D02*
D03*
Y895826D02*
D03*
Y795826D02*
D03*
Y745826D02*
D03*
Y445826D02*
D03*
Y395826D02*
D03*
X902117Y995826D02*
D03*
Y945826D02*
D03*
Y895826D02*
D03*
Y845826D02*
D03*
Y745826D02*
D03*
Y545826D02*
D03*
Y495826D02*
D03*
Y445826D02*
D03*
Y395826D02*
D03*
X852117Y995826D02*
D03*
Y945826D02*
D03*
Y895826D02*
D03*
Y695826D02*
D03*
Y495826D02*
D03*
Y445826D02*
D03*
Y395826D02*
D03*
X802117Y995826D02*
D03*
Y945826D02*
D03*
Y795826D02*
D03*
Y745826D02*
D03*
Y645826D02*
D03*
Y595826D02*
D03*
Y495826D02*
D03*
Y445826D02*
D03*
Y395826D02*
D03*
X752117Y995826D02*
D03*
Y845826D02*
D03*
Y795826D02*
D03*
Y745826D02*
D03*
Y595826D02*
D03*
Y545826D02*
D03*
Y395826D02*
D03*
X702117Y945826D02*
D03*
Y845826D02*
D03*
Y795826D02*
D03*
Y745826D02*
D03*
Y695826D02*
D03*
Y595826D02*
D03*
Y545826D02*
D03*
Y495826D02*
D03*
Y395826D02*
D03*
X652117Y945826D02*
D03*
Y745826D02*
D03*
Y695826D02*
D03*
Y645826D02*
D03*
Y545826D02*
D03*
Y495826D02*
D03*
X1525000Y850000D02*
D03*
X1475000D02*
D03*
X1450000Y800000D02*
D03*
X1200000Y1000000D02*
D03*
X1225000Y950000D02*
D03*
X1150000Y1000000D02*
D03*
X1371600Y962660D02*
D03*
X1212850Y570230D02*
D03*
Y580390D02*
D03*
Y590550D02*
D03*
Y601980D02*
D03*
Y612140D02*
D03*
X1376680Y481330D02*
D03*
X1390650D02*
D03*
X1386840Y962660D02*
D03*
X1402080D02*
D03*
X1400810Y915670D02*
D03*
X1385570D02*
D03*
X1371600D02*
D03*
X1408430Y769620D02*
D03*
X1394460D02*
D03*
X1380490D02*
D03*
X1409700Y721360D02*
D03*
X1395730D02*
D03*
X1381760D02*
D03*
X1363980Y440690D02*
D03*
X1376680D02*
D03*
X1390650D02*
D03*
X1363980Y481330D02*
D03*
D104*
X1116386Y715518D02*
D03*
X1115695Y727710D02*
D03*
X1130300D02*
D03*
X1115695Y740410D02*
D03*
X1130300D02*
D03*
X1144905D02*
D03*
X1115695Y753110D02*
D03*
X1130300D02*
D03*
X1144905D02*
D03*
X1115695Y765810D02*
D03*
X1130300D02*
D03*
X1144905D02*
D03*
X1144270Y779780D02*
D03*
X1129665D02*
D03*
X1115060D02*
D03*
X1522500Y840000D02*
D03*
X1515000Y825000D02*
D03*
X1507500Y840000D02*
D03*
X1500000Y825000D02*
D03*
X1492500Y840000D02*
D03*
X1485000Y825000D02*
D03*
X1492500Y810000D02*
D03*
X1477500Y840000D02*
D03*
X1470000Y825000D02*
D03*
X1477500Y810000D02*
D03*
X1462500Y840000D02*
D03*
X1455000Y825000D02*
D03*
X1462500Y810000D02*
D03*
X1447500Y840000D02*
D03*
X1245000Y975000D02*
D03*
X1230000D02*
D03*
Y945000D02*
D03*
X1237500Y870000D02*
D03*
Y840000D02*
D03*
X1222500Y990000D02*
D03*
X1215000Y975000D02*
D03*
X1207500Y990000D02*
D03*
X1200000Y975000D02*
D03*
X1207500Y960000D02*
D03*
X1185000Y1005000D02*
D03*
X1192500Y990000D02*
D03*
X1185000Y975000D02*
D03*
X1170000Y1005000D02*
D03*
X1177500Y990000D02*
D03*
X1170000Y975000D02*
D03*
X1155000Y1005000D02*
D03*
X1162500Y990000D02*
D03*
X1155000Y975000D02*
D03*
X1162500Y540000D02*
D03*
X1147500Y990000D02*
D03*
X1177500Y660000D02*
D03*
X1162500D02*
D03*
X1515000Y825000D02*
D03*
X1507500Y840000D02*
D03*
X1492500D02*
D03*
X1485000Y825000D02*
D03*
X1477500Y840000D02*
D03*
X1470000Y825000D02*
D03*
X1477500Y810000D02*
D03*
X1462500Y840000D02*
D03*
X1455000Y825000D02*
D03*
X1462500Y810000D02*
D03*
X1447500Y840000D02*
D03*
X1230000Y945000D02*
D03*
X1237500Y870000D02*
D03*
X1207500Y960000D02*
D03*
X1185000Y1005000D02*
D03*
Y975000D02*
D03*
X1170000Y1005000D02*
D03*
Y975000D02*
D03*
X1155000Y1005000D02*
D03*
X1162500Y990000D02*
D03*
X1155000Y975000D02*
D03*
X1515000Y840000D02*
D03*
X1522500Y825000D02*
D03*
X1500000Y840000D02*
D03*
X1507500Y825000D02*
D03*
X1500000Y810000D02*
D03*
X1485000Y840000D02*
D03*
X1492500Y825000D02*
D03*
X1485000Y810000D02*
D03*
X1470000Y840000D02*
D03*
X1477500Y825000D02*
D03*
X1470000Y810000D02*
D03*
X1455000Y840000D02*
D03*
X1462500Y825000D02*
D03*
X1447500D02*
D03*
X1237500Y945000D02*
D03*
Y855000D02*
D03*
X1222500Y945000D02*
D03*
X1125000Y690000D02*
D03*
Y660000D02*
D03*
Y570000D02*
D03*
X1117500Y675000D02*
D03*
X1110000Y630000D02*
D03*
X1117500Y615000D02*
D03*
X1110000Y600000D02*
D03*
Y570000D02*
D03*
X1095000Y630000D02*
D03*
X1577340Y594360D02*
D03*
X1568770Y600000D02*
D03*
X1167130Y660400D02*
D03*
Y645160D02*
D03*
Y629920D02*
D03*
Y614680D02*
D03*
Y600710D02*
D03*
Y585470D02*
D03*
Y570230D02*
D03*
X1447800Y809140D02*
D03*
X1597500Y1095000D02*
D03*
X1582500D02*
D03*
Y1065000D02*
D03*
X1567500Y1095000D02*
D03*
X1552500D02*
D03*
X1537500D02*
D03*
X1530000Y1080000D02*
D03*
Y1050000D02*
D03*
X1522500Y1095000D02*
D03*
X1515000Y1080000D02*
D03*
X1522500Y1065000D02*
D03*
X1515000Y1050000D02*
D03*
X1507500Y1095000D02*
D03*
Y1065000D02*
D03*
X1581150Y561340D02*
D03*
Y571500D02*
D03*
X1579880Y582930D02*
D03*
X1553770Y600000D02*
D03*
X1538770D02*
D03*
X1531270Y585000D02*
D03*
X1523770Y600000D02*
D03*
X1516270Y585000D02*
D03*
X1523770Y570000D02*
D03*
X1508770Y600000D02*
D03*
X1501270Y585000D02*
D03*
X1508770Y570000D02*
D03*
X1493770Y600000D02*
D03*
Y570000D02*
D03*
M02*
