G04*
G04 #@! TF.GenerationSoftware,Altium Limited,Altium Designer,25.8.1 (18)*
G04*
G04 Layer_Color=16711935*
%FSLAX44Y44*%
%MOMM*%
G71*
G04*
G04 #@! TF.SameCoordinates,2693F913-D937-40AF-9520-92A55DCDFC83*
G04*
G04*
G04 #@! TF.FilePolarity,Positive*
G04*
G01*
G75*
%ADD14C,0.2000*%
%ADD119C,0.1000*%
%ADD120C,0.0500*%
D14*
X1189570Y672260D02*
X1200570D01*
X1189570D02*
Y694260D01*
X1200570D01*
Y672260D02*
Y694260D01*
X1277480Y889880D02*
Y999880D01*
X1410480D01*
Y889880D02*
Y999880D01*
X1277480Y889880D02*
X1410480D01*
X807150Y575660D02*
Y587660D01*
X831150D01*
Y575660D02*
Y587660D01*
X807150Y575660D02*
X831150D01*
X740840Y483450D02*
Y494450D01*
X762840D01*
Y483450D02*
Y494450D01*
X740840Y483450D02*
X762840D01*
X1057070Y705270D02*
X1079070D01*
X1057070Y694270D02*
Y705270D01*
Y694270D02*
X1079070D01*
Y705270D01*
X1057070Y684950D02*
X1079070D01*
X1057070Y673950D02*
Y684950D01*
Y673950D02*
X1079070D01*
Y684950D01*
X1055800Y664630D02*
X1077800D01*
X1055800Y653630D02*
Y664630D01*
Y653630D02*
X1077800D01*
Y664630D01*
X878700Y869210D02*
X924700D01*
X878700Y840210D02*
Y869210D01*
Y840210D02*
X924700D01*
Y869210D01*
X1033679Y797210D02*
X1056741D01*
X1033679Y785210D02*
Y797210D01*
Y785210D02*
X1056741D01*
Y797210D01*
X889430Y833540D02*
X911430D01*
X889430Y822540D02*
Y833540D01*
Y822540D02*
X911430D01*
Y833540D01*
X731490Y587160D02*
X759490D01*
X731490Y576160D02*
Y587160D01*
Y576160D02*
X759490D01*
Y587160D01*
X731490Y635420D02*
X759490D01*
X731490Y624420D02*
Y635420D01*
Y624420D02*
X759490D01*
Y635420D01*
X730610Y611290D02*
X758610D01*
X730610Y600290D02*
Y611290D01*
Y600290D02*
X758610D01*
Y611290D01*
X1024450Y653138D02*
X1046450D01*
Y664137D01*
X1024450D02*
X1046450D01*
X1024450Y653138D02*
Y664137D01*
X927520Y707820D02*
Y729820D01*
X916520D02*
X927520D01*
X916520Y707820D02*
Y729820D01*
Y707820D02*
X927520D01*
X957507Y587170D02*
Y609170D01*
X946507D02*
X957507D01*
X946507Y587170D02*
Y609170D01*
Y587170D02*
X957507D01*
X977050D02*
Y609170D01*
X966050D02*
X977050D01*
X966050Y587170D02*
Y609170D01*
Y587170D02*
X977050D01*
X844980Y571920D02*
X866980D01*
X844980Y560920D02*
Y571920D01*
Y560920D02*
X866980D01*
Y571920D01*
X907200Y707820D02*
Y729820D01*
X896200D02*
X907200D01*
X896200Y707820D02*
Y729820D01*
Y707820D02*
X907200D01*
X1024050Y672680D02*
X1046050D01*
Y683680D01*
X1024050D02*
X1046050D01*
X1024050Y672680D02*
Y683680D01*
X844980Y552377D02*
X866980D01*
X844980Y541377D02*
Y552377D01*
Y541377D02*
X866980D01*
Y552377D01*
X917229Y562211D02*
X957291D01*
X917229Y540149D02*
Y562211D01*
Y540149D02*
X957291D01*
Y562211D01*
X1216630Y698920D02*
X1244630D01*
X1216630Y687920D02*
Y698920D01*
Y687920D02*
X1244630D01*
Y698920D01*
X1216630Y682410D02*
X1244630D01*
X1216630Y671410D02*
Y682410D01*
Y671410D02*
X1244630D01*
Y682410D01*
X1200570Y644320D02*
Y666320D01*
X1189570D02*
X1200570D01*
X1189570Y644320D02*
Y666320D01*
Y644320D02*
X1200570D01*
X1182788Y813018D02*
X1228788D01*
Y842018D01*
X1182788D02*
X1228788D01*
X1182788Y813018D02*
Y842018D01*
X1169530Y563350D02*
X1215530D01*
Y592350D01*
X1169530D02*
X1215530D01*
X1169530Y563350D02*
Y592350D01*
Y596893D02*
X1215530D01*
Y625892D01*
X1169530D02*
X1215530D01*
X1169530Y596893D02*
Y625892D01*
X1091956Y622606D02*
X1164987D01*
X1091956Y563574D02*
Y622606D01*
Y563574D02*
X1164987D01*
Y622606D01*
X1166174Y880102D02*
X1239206D01*
Y939134D01*
X1166174D02*
X1239206D01*
X1166174Y880102D02*
Y939134D01*
X1183500Y846560D02*
X1229500D01*
Y875560D01*
X1183500D02*
X1229500D01*
X1183500Y846560D02*
Y875560D01*
X807150Y646780D02*
X831150D01*
Y658780D01*
X807150D02*
X831150D01*
X807150Y646780D02*
Y658780D01*
Y623920D02*
X831150D01*
Y635920D01*
X807150D02*
X831150D01*
X807150Y623920D02*
Y635920D01*
Y599790D02*
X831150D01*
Y611790D01*
X807150D02*
X831150D01*
X807150Y599790D02*
Y611790D01*
X1267000Y406010D02*
X1400000D01*
Y516010D01*
X1267000D02*
X1400000D01*
X1267000Y406010D02*
Y516010D01*
X1287320Y698110D02*
X1420320D01*
Y808110D01*
X1287320D02*
X1420320D01*
X1287320Y698110D02*
Y808110D01*
D119*
X1397310Y1021170D02*
X1511310D01*
Y1114970D01*
X1397310D02*
X1511310D01*
X1397310Y1021170D02*
Y1114970D01*
X1383855Y529554D02*
X1497855D01*
Y623354D01*
X1383855D02*
X1497855D01*
X1383855Y529554D02*
Y623354D01*
X1008710Y826770D02*
X1018210D01*
X1013460Y822020D02*
Y831520D01*
X1210890Y784860D02*
X1219890D01*
X1215390Y780360D02*
Y789360D01*
X1113790Y513660D02*
Y522660D01*
X1109290Y518160D02*
X1118290D01*
X1113790Y493340D02*
Y502340D01*
X1109290Y497840D02*
X1118290D01*
X1113790Y451430D02*
Y460430D01*
X1109290Y455930D02*
X1118290D01*
X1113790Y471750D02*
Y480750D01*
X1109290Y476250D02*
X1118290D01*
X1060450Y735910D02*
Y744910D01*
X1055950Y740410D02*
X1064950D01*
X1045210Y806780D02*
Y816280D01*
X1040460Y811530D02*
X1049960D01*
D120*
X993960Y816270D02*
Y837270D01*
X1032960Y816270D02*
Y837270D01*
X993960Y816270D02*
X1032960D01*
X993960Y837270D02*
X1032960D01*
X1204890Y779360D02*
Y790360D01*
X1225890Y779360D02*
Y790360D01*
X1204890Y779360D02*
X1225890D01*
X1204890Y790360D02*
X1225890D01*
X1103290Y523660D02*
X1124290D01*
X1103290Y512660D02*
X1124290D01*
Y523660D01*
X1103290Y512660D02*
Y523660D01*
Y503340D02*
X1124290D01*
X1103290Y492340D02*
X1124290D01*
Y503340D01*
X1103290Y492340D02*
Y503340D01*
Y461430D02*
X1124290D01*
X1103290Y450430D02*
X1124290D01*
Y461430D01*
X1103290Y450430D02*
Y461430D01*
Y481750D02*
X1124290D01*
X1103290Y470750D02*
X1124290D01*
Y481750D01*
X1103290Y470750D02*
Y481750D01*
X1049950Y723410D02*
X1070950D01*
X1049950Y757410D02*
X1070950D01*
Y723410D02*
Y757410D01*
X1049950Y723410D02*
Y757410D01*
X1034210Y805530D02*
X1056210D01*
X1034210Y817530D02*
X1056210D01*
X1034210Y805530D02*
Y817530D01*
X1056210Y805530D02*
Y817530D01*
M02*
