G04*
G04 #@! TF.GenerationSoftware,Altium Limited,Altium Designer,25.8.1 (18)*
G04*
G04 Layer_Color=32768*
%FSLAX44Y44*%
%MOMM*%
G71*
G04*
G04 #@! TF.SameCoordinates,2693F913-D937-40AF-9520-92A55DCDFC83*
G04*
G04*
G04 #@! TF.FilePolarity,Positive*
G04*
G01*
G75*
%ADD14C,0.2000*%
%ADD119C,0.1000*%
D14*
X1190570Y674760D02*
X1199570D01*
X1190570D02*
Y691760D01*
X1199570D01*
Y674760D02*
Y691760D01*
X1291480Y892380D02*
Y997380D01*
X1396480D01*
Y892380D02*
Y997380D01*
X1291480Y892380D02*
X1396480D01*
X810400Y576910D02*
Y586410D01*
X827900D01*
Y576910D02*
Y586410D01*
X810400Y576910D02*
X827900D01*
X743340Y484450D02*
Y493450D01*
X760340D01*
Y484450D02*
Y493450D01*
X743340Y484450D02*
X760340D01*
X1429810Y1035070D02*
X1498810D01*
Y1101070D01*
X1429810D02*
X1498810D01*
X1429810Y1035070D02*
Y1101070D01*
X1416355Y543454D02*
X1485355D01*
Y609454D01*
X1416355D02*
X1485355D01*
X1416355Y543454D02*
Y609454D01*
X1059570Y704270D02*
X1076570D01*
X1059570Y695270D02*
Y704270D01*
Y695270D02*
X1076570D01*
Y704270D01*
X1059570Y683950D02*
X1076570D01*
X1059570Y674950D02*
Y683950D01*
Y674950D02*
X1076570D01*
Y683950D01*
X1058300Y663630D02*
X1075300D01*
X1058300Y654630D02*
Y663630D01*
Y654630D02*
X1075300D01*
Y663630D01*
X884200Y868210D02*
X919200D01*
X884200Y841210D02*
Y868210D01*
Y841210D02*
X919200D01*
Y868210D01*
X1037210Y795210D02*
X1053210D01*
X1037210Y787210D02*
Y795210D01*
Y787210D02*
X1053210D01*
Y795210D01*
X891930Y832540D02*
X908930D01*
X891930Y823540D02*
Y832540D01*
Y823540D02*
X908930D01*
Y832540D01*
X736990Y586160D02*
X753990D01*
X736990Y577160D02*
Y586160D01*
Y577160D02*
X753990D01*
Y586160D01*
X736990Y634420D02*
X753990D01*
X736990Y625420D02*
Y634420D01*
Y625420D02*
X753990D01*
Y634420D01*
X736110Y610290D02*
X753110D01*
X736110Y601290D02*
Y610290D01*
Y601290D02*
X753110D01*
Y610290D01*
X1026950Y654137D02*
X1043950D01*
Y663137D01*
X1026950D02*
X1043950D01*
X1026950Y654137D02*
Y663137D01*
X926520Y710320D02*
Y727320D01*
X917520D02*
X926520D01*
X917520Y710320D02*
Y727320D01*
Y710320D02*
X926520D01*
X956507Y589670D02*
Y606670D01*
X947507D02*
X956507D01*
X947507Y589670D02*
Y606670D01*
Y589670D02*
X956507D01*
X976050D02*
Y606670D01*
X967050D02*
X976050D01*
X967050Y589670D02*
Y606670D01*
Y589670D02*
X976050D01*
X847480Y570920D02*
X864480D01*
X847480Y561920D02*
Y570920D01*
Y561920D02*
X864480D01*
Y570920D01*
X906200Y710320D02*
Y727320D01*
X897200D02*
X906200D01*
X897200Y710320D02*
Y727320D01*
Y710320D02*
X906200D01*
X1026550Y673680D02*
X1043550D01*
Y682680D01*
X1026550D02*
X1043550D01*
X1026550Y673680D02*
Y682680D01*
X847480Y551377D02*
X864480D01*
X847480Y542378D02*
Y551377D01*
Y542378D02*
X864480D01*
Y551377D01*
X929260Y555180D02*
X945260D01*
X929260Y547180D02*
Y555180D01*
Y547180D02*
X945260D01*
Y555180D01*
X1222130Y697920D02*
X1239130D01*
X1222130Y688920D02*
Y697920D01*
Y688920D02*
X1239130D01*
Y697920D01*
X1222130Y681410D02*
X1239130D01*
X1222130Y672410D02*
Y681410D01*
Y672410D02*
X1239130D01*
Y681410D01*
X1199570Y646820D02*
Y663820D01*
X1190570D02*
X1199570D01*
X1190570Y646820D02*
Y663820D01*
Y646820D02*
X1199570D01*
X1188288Y814017D02*
X1223288D01*
Y841018D01*
X1188288D02*
X1223288D01*
X1188288Y814017D02*
Y841018D01*
X1175030Y564350D02*
X1210030D01*
Y591350D01*
X1175030D02*
X1210030D01*
X1175030Y564350D02*
Y591350D01*
Y597892D02*
X1210030D01*
Y624893D01*
X1175030D02*
X1210030D01*
X1175030Y597892D02*
Y624893D01*
X1099972Y618090D02*
X1156972D01*
X1099972Y568090D02*
Y618090D01*
Y568090D02*
X1156972D01*
Y618090D01*
X1174190Y884618D02*
X1231190D01*
Y934618D01*
X1174190D02*
X1231190D01*
X1174190Y884618D02*
Y934618D01*
X1189000Y847560D02*
X1224000D01*
Y874560D01*
X1189000D02*
X1224000D01*
X1189000Y847560D02*
Y874560D01*
X810400Y648030D02*
X827900D01*
Y657530D01*
X810400D02*
X827900D01*
X810400Y648030D02*
Y657530D01*
Y625170D02*
X827900D01*
Y634670D01*
X810400D02*
X827900D01*
X810400Y625170D02*
Y634670D01*
Y601040D02*
X827900D01*
Y610540D01*
X810400D02*
X827900D01*
X810400Y601040D02*
Y610540D01*
X1281000Y408510D02*
X1386000D01*
Y513510D01*
X1281000D02*
X1386000D01*
X1281000Y408510D02*
Y513510D01*
X1301320Y700610D02*
X1406320D01*
Y805610D01*
X1301320D02*
X1406320D01*
X1301320Y700610D02*
Y805610D01*
D119*
X1004710Y822020D02*
Y831520D01*
X1022210Y822020D02*
Y831520D01*
X1004710Y822020D02*
X1022210D01*
X1004710Y831520D02*
X1022210D01*
X1206890Y780360D02*
Y789360D01*
X1223890Y780360D02*
Y789360D01*
X1206890Y780360D02*
X1223890D01*
X1206890Y789360D02*
X1223890D01*
X1105290Y522660D02*
X1122290D01*
X1105290Y513660D02*
X1122290D01*
Y522660D01*
X1105290Y513660D02*
Y522660D01*
Y502340D02*
X1122290D01*
X1105290Y493340D02*
X1122290D01*
Y502340D01*
X1105290Y493340D02*
Y502340D01*
Y460430D02*
X1122290D01*
X1105290Y451430D02*
X1122290D01*
Y460430D01*
X1105290Y451430D02*
Y460430D01*
Y480750D02*
X1122290D01*
X1105290Y471750D02*
X1122290D01*
Y480750D01*
X1105290Y471750D02*
Y480750D01*
X1055950Y731910D02*
X1064950D01*
X1055950Y748910D02*
X1064950D01*
Y731910D02*
Y748910D01*
X1055950Y731910D02*
Y748910D01*
X1036460Y806780D02*
X1053960D01*
X1036460Y816280D02*
X1053960D01*
X1036460Y806780D02*
Y816280D01*
X1053960Y806780D02*
Y816280D01*
M02*
