%FSTAX23Y23*%
%MOIN*%
%SFA1B1*%

%IPPOS*%
%ADD15C,0.007870*%
%ADD119C,0.003940*%
%ADD122C,0.001000*%
%LNpcb_top_3d_body-1*%
%LPD*%
G54D15*
X06421Y03684D02*
Y04048D01*
X06028D02*
X06421D01*
X06028Y03684D02*
Y04048D01*
Y03684D02*
X06421D01*
X06416Y01739D02*
Y02103D01*
X06023D02*
X06416D01*
X06023Y01739D02*
Y02103D01*
Y01739D02*
X06416D01*
X0363Y01879D02*
Y0208D01*
X03759*
Y01879D02*
Y0208D01*
X0363Y01879D02*
X03759D01*
X04344Y02629D02*
Y0318D01*
Y02629D02*
X04585D01*
Y0318*
X04344D02*
X04585D01*
X02605Y0378D02*
Y04098D01*
X02379Y0378D02*
X02605D01*
X02379D02*
Y04098D01*
X02605*
X02402Y0377D02*
Y04109D01*
X06421Y02769D02*
Y03133D01*
X06028D02*
X06421D01*
X06028Y02769D02*
Y03133D01*
Y02769D02*
X06421D01*
X04051Y02895D02*
X04118D01*
X04051D02*
Y0293D01*
X04118*
Y02895D02*
Y0293D01*
X04051Y02972D02*
X04118D01*
X04051D02*
Y03007D01*
X04118*
Y02972D02*
Y03007D01*
X04676Y03393D02*
X04813D01*
Y03286D02*
Y03393D01*
X04676Y03286D02*
X04813D01*
X04676D02*
Y03393D01*
X04625Y02406D02*
X04762D01*
Y02299D02*
Y02406D01*
X04625Y02299D02*
X04762D01*
X04625D02*
Y02406D01*
X04421Y02538D02*
X04558D01*
Y02431D02*
Y02538D01*
X04421Y02431D02*
X04558D01*
X04421D02*
Y02538D01*
X04426Y02406D02*
X04563D01*
Y02299D02*
Y02406D01*
X04426Y02299D02*
X04563D01*
X04426D02*
Y02406D01*
X04226Y02022D02*
X04293D01*
X04226D02*
Y02057D01*
X04293*
Y02022D02*
Y02057D01*
X04226Y01859D02*
X04293D01*
X04226D02*
Y01895D01*
X04293*
Y01859D02*
Y01895D01*
X04226Y01941D02*
X04293D01*
X04226D02*
Y01976D01*
X04293*
Y01941D02*
Y01976D01*
X03553Y02278D02*
Y02671D01*
X03946*
Y02278D02*
Y02671D01*
X03553Y02278D02*
X03946D01*
X03326Y02937D02*
X03393D01*
Y02902D02*
Y02937D01*
X03326Y02902D02*
X03393D01*
X03326D02*
Y02937D01*
X03201Y03019D02*
X03268D01*
Y02984D02*
Y03019D01*
X03201Y02984D02*
X03268D01*
X03201D02*
Y03019D01*
X03331Y03017D02*
X03398D01*
Y02982D02*
Y03017D01*
X03331Y02982D02*
X03398D01*
X03331D02*
Y03017D01*
X03201Y03102D02*
X03268D01*
Y03067D02*
Y03102D01*
X03201Y03067D02*
X03268D01*
X03201D02*
Y03102D01*
X03331D02*
X03398D01*
Y03067D02*
Y03102D01*
X03331Y03067D02*
X03398D01*
X03331D02*
Y03102D01*
X04226Y01778D02*
X04293D01*
X04226D02*
Y01813D01*
X04293*
Y01778D02*
Y01813D01*
X04268Y0171D02*
X04331D01*
Y01679D02*
Y0171D01*
X04268Y01679D02*
X04331D01*
X04268D02*
Y0171D01*
X04672Y01976D02*
Y02043D01*
X04637Y01976D02*
X04672D01*
X04637D02*
Y02043D01*
X04672*
X04585Y01978D02*
Y02041D01*
X04554Y01978D02*
X04585D01*
X04554D02*
Y02041D01*
X04585*
X06474Y02183D02*
Y02246D01*
X06505*
Y02183D02*
Y02246D01*
X06474Y02183D02*
X06505D01*
X06484Y03213D02*
Y03276D01*
X06515*
Y03213D02*
Y03276D01*
X06484Y03213D02*
X06515D01*
X06484Y04108D02*
Y04171D01*
X06515*
Y04108D02*
Y04171D01*
X06484Y04108D02*
X06515D01*
X05803Y0156D02*
X05866D01*
Y01529D02*
Y0156D01*
X05803Y01529D02*
X05866D01*
X05803D02*
Y0156D01*
X05833Y02625D02*
X05896D01*
Y02594D02*
Y02625D01*
X05833Y02594D02*
X05896D01*
X05833D02*
Y02625D01*
X04806Y02548D02*
X04873D01*
X04806D02*
Y02583D01*
X04873*
Y02548D02*
Y02583D01*
X04806Y02487D02*
X04873D01*
X04806D02*
Y02522D01*
X04873*
Y02487D02*
Y02522D01*
X03955Y03131D02*
X04024D01*
X03955D02*
Y03168D01*
X04024*
Y03131D02*
Y03168D01*
X04292Y03217D02*
X04537D01*
X04292D02*
Y03462D01*
X04537*
Y03217D02*
Y03462D01*
X048Y03138D02*
Y03201D01*
X04769Y03138D02*
X048D01*
X04769D02*
Y03201D01*
X048*
X04818Y02709D02*
Y02795D01*
X04761Y02709D02*
X04818D01*
X04761D02*
Y02795D01*
X04818*
X04813Y02837D02*
Y02923D01*
X04756Y02837D02*
X04813D01*
X04756D02*
Y02923D01*
X04813*
Y02966D02*
Y03052D01*
X04756Y02966D02*
X04813D01*
X04756D02*
Y03052D01*
X04813*
X02898Y02554D02*
X02961D01*
X02898D02*
Y02585D01*
X02961*
Y02554D02*
Y02585D01*
X03068Y02305D02*
X03131D01*
Y02274D02*
Y02305D01*
X03068Y02274D02*
X03131D01*
X03068D02*
Y02305D01*
X03063Y02495D02*
X03126D01*
Y02464D02*
Y02495D01*
X03063Y02464D02*
X03126D01*
X03063D02*
Y02495D01*
X03068Y024D02*
X03131D01*
Y02369D02*
Y024D01*
X03068Y02369D02*
X03131D01*
X03068D02*
Y024D01*
X02461Y02195D02*
Y0288D01*
X02687*
Y02195D02*
Y0288D01*
X02461Y02195D02*
X02687D01*
X02461Y02905D02*
Y03689D01*
X02687*
Y02905D02*
Y03689D01*
X02461Y02905D02*
X02687D01*
X02726Y03074D02*
Y0366D01*
X02952*
Y03074D02*
Y0366D01*
X02726Y03074D02*
X02952D01*
X03173Y02794D02*
X03236D01*
X03173D02*
Y02825D01*
X03236*
Y02794D02*
Y02825D01*
X03186Y02692D02*
X03253D01*
X03186D02*
Y02727D01*
X03253*
Y02692D02*
Y02727D01*
X02727Y02658D02*
Y03048D01*
X02953*
Y02658D02*
Y03048D01*
X02727Y02658D02*
X02953D01*
X02683Y01505D02*
Y01993D01*
X02457Y01505D02*
X02683D01*
X02457D02*
Y01993D01*
X02683*
X05813Y0352D02*
X05876D01*
Y03489D02*
Y0352D01*
X05813Y03489D02*
X05876D01*
X05813D02*
Y0352D01*
X02674Y03906D02*
X02735D01*
Y03873D02*
Y03906D01*
X02674Y03873D02*
X02735D01*
X02674D02*
Y03906D01*
Y04001D02*
X02735D01*
Y03968D02*
Y04001D01*
X02674Y03968D02*
X02735D01*
X02674D02*
Y04001D01*
X05279Y01614D02*
Y02008D01*
X05643*
Y01614D02*
Y02008D01*
X05279Y01614D02*
X05643D01*
X05294Y03558D02*
Y03951D01*
X05658*
Y03558D02*
Y03951D01*
X05294Y03558D02*
X05658D01*
X05314Y02663D02*
Y03056D01*
X05678*
Y02663D02*
Y03056D01*
X05314Y02663D02*
X05678D01*
X04076Y03451D02*
X04183D01*
Y03588*
X04076D02*
X04183D01*
X04076Y03451D02*
Y03588D01*
X03777Y03445D02*
X04022D01*
Y03724*
X03777D02*
X04022D01*
X03777Y03445D02*
Y03724D01*
G54D119*
X03042Y01938D02*
D01*
X03042Y01939*
X03042Y01941*
X03042Y01942*
X03041Y01943*
X03041Y01945*
X0304Y01946*
X0304Y01947*
X03039Y01948*
X03038Y01949*
X03038Y0195*
X03037Y01951*
X03036Y01952*
X03035Y01953*
X03034Y01954*
X03032Y01955*
X03031Y01956*
X0303Y01956*
X03029Y01957*
X03027Y01957*
X03026Y01957*
X03025Y01957*
X03023Y01957*
X03022*
X0302Y01957*
X03019Y01957*
X03018Y01957*
X03016Y01957*
X03015Y01956*
X03014Y01956*
X03013Y01955*
X03011Y01954*
X0301Y01953*
X03009Y01952*
X03008Y01951*
X03007Y0195*
X03007Y01949*
X03006Y01948*
X03005Y01947*
X03005Y01946*
X03004Y01945*
X03004Y01943*
X03003Y01942*
X03003Y01941*
X03003Y01939*
X03003Y01938*
X03003Y01936*
X03003Y01935*
X03003Y01934*
X03004Y01932*
X03004Y01931*
X03005Y0193*
X03005Y01929*
X03006Y01927*
X03007Y01926*
X03007Y01925*
X03008Y01924*
X03009Y01923*
X0301Y01922*
X03011Y01921*
X03013Y01921*
X03014Y0192*
X03015Y0192*
X03016Y01919*
X03018Y01919*
X03019Y01918*
X0302Y01918*
X03022Y01918*
X03023*
X03025Y01918*
X03026Y01918*
X03027Y01919*
X03029Y01919*
X0303Y0192*
X03031Y0192*
X03032Y01921*
X03034Y01921*
X03035Y01922*
X03036Y01923*
X03037Y01924*
X03038Y01925*
X03038Y01926*
X03039Y01927*
X0304Y01929*
X0304Y0193*
X03041Y01931*
X03041Y01932*
X03042Y01934*
X03042Y01935*
X03042Y01936*
X03042Y01938*
X0408Y03236D02*
X04149D01*
X0408Y03273D02*
X04149D01*
Y03236D02*
Y03273D01*
X0408Y03236D02*
Y03273D01*
X03532Y01991D02*
X03567D01*
X03532Y02058D02*
X03567D01*
X03532Y01991D02*
Y02058D01*
X03567Y01991D02*
Y02058D01*
X03676Y01787D02*
Y01823D01*
X03743Y01787D02*
Y01823D01*
X03676D02*
X03743D01*
X03676Y01787D02*
X03743D01*
X06507Y02326D02*
Y02393D01*
X06472Y02326D02*
Y02393D01*
X06507*
X06472Y02326D02*
X06507D01*
X06482Y03321D02*
Y03388D01*
X06517Y03321D02*
Y03388D01*
X06482Y03321D02*
X06517D01*
X06482Y03388D02*
X06517D01*
Y04236D02*
Y04303D01*
X06482Y04236D02*
Y04303D01*
X06517*
X06482Y04236D02*
X06517D01*
X04109Y03059D02*
Y03096D01*
X0404Y03059D02*
Y03096D01*
Y03059D02*
X04109D01*
X0404Y03096D02*
X04109D01*
X04075Y03168D02*
X04144D01*
X04075Y03131D02*
X04144D01*
X04075D02*
Y03168D01*
X04144Y03131D02*
Y03168D01*
X04431Y0351D02*
Y03559D01*
X04498*
Y0351D02*
Y03559D01*
X04431Y0351D02*
X04498D01*
X02924Y01734D02*
X02995D01*
X02924Y01695D02*
X02995D01*
X02924D02*
Y01734D01*
X02995Y01695D02*
Y01734D01*
X03463Y03417D02*
X03726D01*
X03463Y03562D02*
X03726D01*
X03463Y03417D02*
Y03562D01*
X03726Y03417D02*
Y03562D01*
X02861Y01816D02*
Y01973D01*
X03058Y01816D02*
Y01973D01*
X02861Y01816D02*
X03058D01*
X02861Y01973D02*
X03058D01*
G54D122*
X04838Y01802D02*
Y01857D01*
X04751Y01802D02*
X04838D01*
X04751D02*
Y01857D01*
X04838*
M02*