%FSTAX23Y23*%
%MOIN*%
%SFA1B1*%

%IPPOS*%
%AMD100*
4,1,8,0.098400,0.196800,-0.098400,0.196800,-0.196800,0.098400,-0.196800,-0.098400,-0.098400,-0.196800,0.098400,-0.196800,0.196800,-0.098400,0.196800,0.098400,0.098400,0.196800,0.0*
1,1,0.196860,0.098400,0.098400*
1,1,0.196860,-0.098400,0.098400*
1,1,0.196860,-0.098400,-0.098400*
1,1,0.196860,0.098400,-0.098400*
%
%AMD101*
4,1,8,-0.196800,0.098400,-0.196800,-0.098400,-0.098400,-0.196800,0.098400,-0.196800,0.196800,-0.098400,0.196800,0.098400,0.098400,0.196800,-0.098400,0.196800,-0.196800,0.098400,0.0*
1,1,0.196860,-0.098400,0.098400*
1,1,0.196860,-0.098400,-0.098400*
1,1,0.196860,0.098400,-0.098400*
1,1,0.196860,0.098400,0.098400*
%
%ADD13C,0.023620*%
%ADD15C,0.007870*%
%ADD32R,0.025590X0.027560*%
%ADD33R,0.043310X0.080710*%
%ADD34R,0.035430X0.031500*%
%ADD39R,0.037650X0.047490*%
%ADD40R,0.041340X0.037400*%
%ADD42R,0.027560X0.025590*%
%ADD48R,0.029530X0.035430*%
%ADD54R,0.033660X0.035680*%
%ADD91R,0.055120X0.055120*%
%ADD92C,0.055120*%
%ADD93C,0.043310*%
%ADD98C,0.011810*%
%ADD99C,0.196850*%
G04~CAMADD=100~8~0.0~0.0~3937.0~3937.0~984.3~0.0~15~0.0~0.0~0.0~0.0~0~0.0~0.0~0.0~0.0~0~0.0~0.0~0.0~0.0~3937.0~3937.0*
%ADD100D100*%
G04~CAMADD=101~8~0.0~0.0~3937.0~3937.0~984.3~0.0~15~0.0~0.0~0.0~0.0~0~0.0~0.0~0.0~0.0~0~0.0~0.0~0.0~90.0~3936.0~3936.0*
%ADD101D101*%
%ADD102C,0.019680*%
%ADD103C,0.031500*%
%ADD104C,0.023620*%
%ADD105R,0.161420X0.078740*%
%ADD106R,0.096060X0.220470*%
%ADD107R,0.096060X0.035040*%
%ADD108R,0.045280X0.041340*%
%ADD109R,0.023620X0.031500*%
%ADD110R,0.027560X0.033470*%
%ADD111R,0.037520X0.212720*%
%LNpcb_copper_signal_bot-1*%
%LPD*%
G36*
X0634Y04105D02*
X0593D01*
X05905Y0413*
X05815*
Y0435*
X0634*
Y04105*
G37*
G36*
X05831Y04059D02*
X0583Y0406D01*
X05829Y0406*
X05828*
X05826Y0406*
X05825Y04059*
X05823Y04058*
X05821Y04057*
X05819Y04055*
X05814Y04051*
X05806Y04059*
X05808Y04062*
X05812Y04066*
X05813Y04068*
X05814Y0407*
X05815Y04071*
X05815Y04073*
Y04074*
X05815Y04075*
X05814Y04076*
X05831Y04059*
G37*
G36*
X05715Y04059D02*
X05715Y04059D01*
X05715Y04048*
X05703*
X05703Y0405*
X05703Y04052*
X05703Y04054*
X05702Y04055*
X05702Y04056*
X05701Y04057*
X057Y04058*
X05699Y04059*
X05698Y04059*
X05697Y04059*
X05715*
X05715Y04059*
G37*
G36*
X0579Y04027D02*
X0578Y0402D01*
X05777Y04033*
X05778Y04033*
X05778Y04033*
X05778Y04033*
X05779Y04033*
X05779Y04033*
X0578Y04034*
X0578Y04034*
X05782Y04035*
X05783Y04036*
X0579Y04027*
G37*
G36*
X05742Y04013D02*
X05745Y0401D01*
X05745Y0401*
X05746Y0401*
X05746Y0401*
X05746Y04009*
X05747Y04009*
X05737Y04*
X05737Y04*
X05737Y04*
X05737Y04001*
X05736Y04001*
X05736Y04002*
X05735Y04003*
X05734Y04004*
X05733Y04005*
X05741Y04013*
X05742Y04013*
G37*
G36*
X04175Y04345D02*
X0453Y0399D01*
X04985*
X0534Y04345*
X0571*
Y0414*
X05625*
X0523Y03745*
Y0337*
X0603*
Y0319*
X0593*
X05865Y03125*
X0523*
Y02415*
X05658*
X0566Y0241*
X0566Y0241*
Y02195*
X0523*
Y0162*
X0524Y0161*
X05235Y01605*
X05015*
Y02195*
Y02415*
Y0367*
X0492Y03765*
Y03305*
X04835Y0322*
X0479*
Y03695*
X04785Y037*
X04765*
X0471Y03755*
Y0379*
X04535*
Y0278*
X04445Y0269*
Y02575*
Y022*
X04475Y0217*
X047*
Y0221*
X04725Y02235*
Y0245*
X0481*
Y0221*
Y0212*
Y0211*
X0478Y0207*
X0438*
Y02067*
X04335*
Y02056*
X04212*
X04211Y02056*
X04203Y02059*
X04196*
X04188Y02056*
X04183Y02051*
X0418Y02043*
Y02036*
X04183Y02028*
X04188Y02023*
X04196Y0202*
X04203*
X04211Y02023*
X04212Y02023*
X04335*
Y02012*
X0438*
Y01987*
X04335*
Y01976*
X04207*
X04206Y01976*
X04198Y01979*
X04191*
X04183Y01976*
X04178Y01971*
X04175Y01963*
Y01956*
X04178Y01948*
X04183Y01943*
X04191Y0194*
X04198*
X04206Y01943*
X04207Y01943*
X04335*
Y01932*
X0438*
Y01902*
X04335*
Y01893*
X04204*
X04201Y01896*
X04193Y01899*
X04186*
X04178Y01896*
X04173Y01891*
X0417Y01883*
Y01876*
X04173Y01868*
X04178Y01863*
X04186Y0186*
X04193*
X04197Y01861*
X04335*
Y01847*
X0438*
Y01822*
X04335*
Y01811*
X04202*
X04201Y01811*
X04193Y01814*
X04186*
X04178Y01811*
X04173Y01806*
X0417Y01798*
Y01791*
X04173Y01783*
X04178Y01778*
X04186Y01775*
X04193*
X04201Y01778*
X04202Y01778*
X04335*
Y01767*
X0438*
Y01455*
X0239*
Y041*
X0333*
X0346Y0397*
X04275*
X0406Y04185*
X03845*
X03775Y04265*
Y0454*
X04175*
Y04345*
G37*
G36*
X0555Y03575D02*
X05375D01*
X05374Y03574*
X0537Y03576*
Y0382*
X0555*
Y03575*
G37*
G36*
X0469Y03042D02*
X04691Y03042D01*
X04692Y03042*
X04693Y03041*
X04694Y03041*
X04694Y03041*
X04695Y03041*
X04697Y03041*
X04698Y03041*
X047Y03033*
X04699Y03033*
X04698Y03033*
X04697Y03033*
X04697Y03032*
X04696Y03032*
X04695Y03032*
X04694Y03031*
X04694Y03031*
X04693Y0303*
X04693Y03029*
X0469Y03043*
X0469Y03042*
G37*
G36*
X05585Y02815D02*
X0541D01*
X05409Y02814*
X05405Y02816*
Y0306*
X05585*
Y02815*
G37*
G36*
X04793Y02714D02*
X04793Y02714D01*
X04793Y02713*
X04793Y02713*
X04792Y02713*
X04791Y02713*
X04791Y02712*
X0479Y02712*
X04787Y02712*
X04786Y02712*
Y0272*
X04787Y0272*
X04788Y0272*
X0479Y0272*
X04791Y02721*
X04792Y02721*
X04792Y02721*
X04793Y02722*
X04793Y02723*
X04793Y02723*
X04794Y02724*
X04793Y02714*
G37*
G36*
X04896Y02725D02*
X04896Y02724D01*
X04897Y02724*
X04897Y02723*
X04898Y02722*
X049Y02722*
X04901Y02721*
X04903Y02721*
X04905Y02721*
X04907Y02721*
Y02709*
X04896Y02714*
X04895Y02727*
X04896Y02725*
G37*
G36*
X04718Y02723D02*
X04718Y02723D01*
X04719Y02722*
X04719Y02721*
X0472Y02721*
X04721Y02721*
X04722Y0272*
X04723Y0272*
X04725Y0272*
X04726Y0272*
Y02712*
X04725Y02712*
X04723Y02712*
X04722Y02712*
X04721Y02712*
X0472Y02711*
X04719Y02711*
X04719Y0271*
X04718Y0271*
X04718Y02709*
X04718Y02708*
Y02724*
X04718Y02723*
G37*
G36*
X04949Y0269D02*
X04949Y0269D01*
X04949Y0269*
X04948Y02689*
X04948Y02689*
X04947Y02689*
X04946Y02688*
X04945Y02686*
X04944Y02686*
X04936Y02694*
X04936Y02695*
X04939Y02697*
X04939Y02698*
X04939Y02698*
X0494Y02699*
X0494Y02699*
X0494Y02699*
X04949Y0269*
G37*
G36*
X04907Y02673D02*
X04905Y02673D01*
X04903Y02673*
X04901Y02673*
X049Y02672*
X04898Y02672*
X04897Y02671*
X04897Y0267*
X04896Y0267*
X04896Y02669*
X04895Y02667*
X04896Y0268*
X04907Y02685*
Y02673*
G37*
G36*
X04794Y02652D02*
X04793Y02652D01*
X04793Y02653*
X04793Y02654*
X04792Y02654*
X04792Y02655*
X04791Y02655*
X0479Y02655*
X04788Y02655*
X04787Y02655*
Y02653*
X04787Y02653*
X04786Y02654*
X04786Y02654*
X04785Y02655*
X04784Y02655*
X04783Y02655*
X04782Y02655*
X04781Y02655*
X04781Y02656*
X0478Y02656*
Y02663*
X04781Y02663*
X04781Y02664*
X04782Y02664*
X04783Y02664*
X04784Y02664*
X04785Y02665*
X04786Y02665*
X04786Y02665*
X04787Y02666*
X04787Y02666*
Y02664*
X04788Y02664*
X0479Y02664*
X04791Y02664*
X04792Y02664*
X04792Y02665*
X04793Y02665*
X04793Y02666*
X04793Y02667*
X04794Y02667*
Y02652*
G37*
G36*
X04718Y02667D02*
X04718Y02666D01*
X04719Y02665*
X04719Y02665*
X0472Y02664*
X04721Y02664*
X04722Y02664*
X04723Y02664*
X04725Y02663*
X04726Y02663*
Y02656*
X04725Y02656*
X04723Y02655*
X04722Y02655*
X04721Y02655*
X0472Y02655*
X04719Y02654*
X04719Y02654*
X04718Y02653*
X04718Y02652*
X04718Y02652*
Y02667*
X04718Y02667*
G37*
G36*
X04718Y0261D02*
X04718Y0261D01*
X04719Y0261*
X04719Y02609*
X0472Y02609*
X0472Y02609*
X04721Y02609*
X04722Y02609*
X04723Y02608*
X04725Y02608*
Y02601*
X04723Y02601*
X04721Y026*
X0472Y026*
X0472Y026*
X04719Y026*
X04719Y02599*
X04718Y02599*
X04718Y02599*
X04718Y02598*
Y02611*
X04718Y0261*
G37*
G36*
X04717Y02598D02*
X04717Y02598D01*
X04716Y02599*
X04716Y02599*
X04715Y026*
X04714Y026*
X04713Y026*
X04712Y026*
X04711Y026*
X04711Y02601*
X0471Y02601*
Y02608*
X04711Y02608*
X04711Y02609*
X04712Y02609*
X04713Y02609*
X04714Y02609*
X04715Y0261*
X04716Y0261*
X04716Y0261*
X04717Y02611*
X04717Y02611*
Y02598*
G37*
G36*
X04708Y02543D02*
X04709Y02543D01*
X04709Y02542*
X04709Y02541*
X04709Y0254*
X04712*
X04712Y0254*
X04711Y0254*
X0471Y0254*
X0471Y02539*
X0471Y02539*
X0471Y02538*
X0471Y02538*
X04711Y02537*
X04711Y02537*
X04709*
X04709Y02536*
X04709Y02535*
X04708Y02534*
X04708Y02532*
X04701*
X04701Y02534*
X047Y02535*
X047Y02536*
X047Y02537*
X04698*
X04698Y02537*
X04699Y02538*
X04699Y02538*
X04699Y02539*
X04699Y02539*
X04699Y0254*
X04698Y0254*
X04697Y0254*
X04697Y0254*
X047*
X047Y02541*
X047Y02542*
X047Y02543*
X04701Y02543*
X04701Y02544*
X04708*
X04708Y02543*
G37*
G36*
X05736Y02427D02*
X05736Y02427D01*
X05736Y02426*
X05736Y02426*
X05736Y02425*
X05736Y02424*
X05735Y02422*
X05735Y02421*
X05724*
X05724Y02422*
X05723Y02425*
X05723Y02426*
X05723Y02426*
X05723Y02427*
X05723Y02427*
X05723Y02427*
X05736*
X05736Y02427*
G37*
G36*
X05701D02*
X05701Y02427D01*
X05701Y02426*
X057Y02426*
X057Y02425*
X057Y02424*
X057Y02422*
X057Y02421*
X05688*
X05688Y02422*
X05688Y02425*
X05688Y02426*
X05688Y02426*
X05688Y02427*
X05687Y02427*
X05687Y02427*
X05701*
X05701Y02427*
G37*
G36*
X04725Y03155D02*
X0464Y0307D01*
Y02795*
Y0275*
X0465Y02735*
Y02625*
X04655Y0262*
Y0253*
Y0222*
X0453*
Y02595*
X0457Y02635*
X0459Y02655*
Y0309*
X04655Y03155*
Y03405*
X04595Y03465*
Y03695*
X04725*
Y03155*
G37*
G36*
X06265Y02345D02*
X06335D01*
Y0216*
X06055*
X06015Y022*
X05775*
X05774Y02199*
X0577Y02201*
Y02415*
X06195*
X06265Y02345*
G37*
G36*
X0567Y02159D02*
X05668Y02156D01*
X05664Y02152*
X05663Y0215*
X05662Y02148*
X05661Y02147*
X05661Y02145*
X05661Y02144*
X05661Y02143*
X05662Y02142*
X05645Y02159*
X05646Y02158*
X05647Y02158*
X05648Y02158*
X0565Y02158*
X05651Y02159*
X05653Y0216*
X05655Y02161*
X05657Y02163*
X05662Y02167*
X0567Y02159*
G37*
G36*
X05765Y02168D02*
X05773Y02162D01*
X05775Y0216*
X05777Y02159*
X05779Y02158*
X05781Y02158*
X05782Y02158*
X05783Y02159*
X05761Y02147*
X05762Y02148*
X05763Y02149*
X05763Y0215*
X05763Y02151*
X05762Y02153*
X05761Y02155*
X05759Y02157*
X05758Y02159*
X05753Y02164*
X05762Y02171*
X05765Y02168*
G37*
G36*
X04422Y0205D02*
X04422Y02049D01*
X04423Y02048*
X04424Y02048*
X04425Y02047*
X04426Y02046*
X04428Y02046*
X04429Y02046*
X0443Y02046*
X0443Y02046*
X04431Y02046*
X04431Y02046*
X04432Y02046*
X04432Y02046*
X04432Y02046*
Y02045*
X04434Y02045*
Y02034*
X04432Y02034*
Y02033*
X04432Y02033*
X04432Y02033*
X04431Y02033*
X04431Y02033*
X0443Y02033*
X0443Y02033*
X04429Y02033*
X04428Y02033*
X04426Y02033*
X04425Y02032*
X04424Y02031*
X04423Y02031*
X04422Y0203*
X04422Y02029*
X04422Y02028*
Y02051*
X04422Y0205*
G37*
G36*
X04207Y02046D02*
X04208Y02045D01*
X04208Y02045*
X04209Y02045*
X0421Y02044*
X04211Y02044*
X04212Y02044*
X04213Y02044*
X04213Y02043*
X04214Y02043*
Y02036*
X04213Y02036*
X04213Y02035*
X04212Y02035*
X04211Y02035*
X0421Y02035*
X04209Y02035*
X04208Y02034*
X04208Y02034*
X04207Y02033*
X04207Y02033*
Y02046*
X04207Y02046*
G37*
G36*
X04347Y02032D02*
X04347Y02032D01*
X04347Y02033*
X04347Y02034*
X04346Y02034*
X04345Y02035*
X04344Y02035*
X04343Y02035*
X04342Y02035*
X04341Y02036*
X04339Y02036*
Y02043*
X04341Y02043*
X04342Y02044*
X04343Y02044*
X04344Y02044*
X04345Y02044*
X04346Y02045*
X04347Y02045*
X04347Y02046*
X04347Y02047*
X04347Y02047*
Y02032*
G37*
G36*
X04624Y02034D02*
X04625Y02034D01*
X04625Y02033*
X04625Y02033*
X04625Y02032*
X04626Y02031*
X04628Y0203*
X04628Y02029*
X0462Y02021*
X04619Y02021*
X04617Y02024*
X04616Y02024*
X04616Y02024*
X04615Y02025*
X04615Y02025*
X04615Y02025*
X04624Y02034*
X04624Y02034*
G37*
G36*
X04422Y0197D02*
X04422Y01969D01*
X04423Y01968*
X04424Y01968*
X04425Y01967*
X04426Y01966*
X04428Y01966*
X04429Y01966*
X0443Y01966*
X0443Y01966*
X04431Y01966*
X04431Y01966*
X04432Y01966*
X04432Y01966*
X04432Y01966*
Y01965*
X04434Y01965*
Y01954*
X04432Y01954*
Y01953*
X04432Y01953*
X04432Y01953*
X04431Y01953*
X04431Y01953*
X0443Y01953*
X0443Y01953*
X04429Y01953*
X04428Y01953*
X04426Y01953*
X04425Y01952*
X04424Y01951*
X04423Y01951*
X04422Y0195*
X04422Y01949*
X04422Y01948*
Y01971*
X04422Y0197*
G37*
G36*
X04202Y01966D02*
X04203Y01965D01*
X04203Y01965*
X04204Y01965*
X04205Y01964*
X04206Y01964*
X04207Y01964*
X04208Y01964*
X04208Y01963*
X04209Y01963*
Y01956*
X04208Y01956*
X04208Y01955*
X04207Y01955*
X04206Y01955*
X04205Y01955*
X04204Y01955*
X04203Y01954*
X04203Y01954*
X04202Y01953*
X04202Y01953*
Y01966*
X04202Y01966*
G37*
G36*
X04347Y01952D02*
X04347Y01952D01*
X04347Y01953*
X04347Y01954*
X04346Y01954*
X04345Y01955*
X04344Y01955*
X04343Y01955*
X04342Y01955*
X04341Y01956*
X04339Y01956*
Y01963*
X04341Y01963*
X04342Y01964*
X04343Y01964*
X04344Y01964*
X04345Y01964*
X04346Y01965*
X04347Y01965*
X04347Y01966*
X04347Y01967*
X04347Y01967*
Y01952*
G37*
G36*
X04792Y01903D02*
X04792Y01903D01*
X04792Y01903*
X04791Y01903*
X04791Y01903*
X0479Y01903*
X04789Y01904*
X04787Y01904*
X04786*
Y01915*
X04787Y01915*
X0479Y01916*
X04791Y01916*
X04791Y01916*
X04792Y01916*
X04792Y01916*
X04792Y01916*
Y01903*
G37*
G36*
X04198Y01884D02*
X04199Y01883D01*
X04199Y01883*
X042Y01882*
X04201Y01882*
X04201Y01882*
X04202Y01882*
X04203Y01881*
X04204Y01881*
X04205Y01881*
X04203Y01873*
X04202Y01873*
X042Y01873*
X04199Y01873*
X04199Y01873*
X04198Y01873*
X04197Y01872*
X04196Y01872*
X04195Y01872*
X04195Y01871*
X04198Y01885*
X04198Y01884*
G37*
G36*
X04347Y01869D02*
X04347Y0187D01*
X04347Y01871*
X04347Y01871*
X04346Y01872*
X04345Y01872*
X04344Y01873*
X04343Y01873*
X04342Y01873*
X04341Y01873*
X04339Y01873*
Y01881*
X04341Y01881*
X04342Y01881*
X04343Y01882*
X04344Y01882*
X04345Y01882*
X04346Y01883*
X04347Y01883*
X04347Y01884*
X04347Y01884*
X04347Y01885*
Y01869*
G37*
G36*
X04422Y01885D02*
X04422Y01884D01*
X04423Y01883*
X04424Y01883*
X04425Y01882*
X04426Y01881*
X04428Y01881*
X04429Y01881*
X04431Y0188*
X04432Y0188*
X04435Y01881*
X04436Y01881*
X04436Y01881*
X04437Y01881*
X04437Y01881*
X04437Y01881*
Y01868*
X04437Y01868*
X04437Y01868*
X04436Y01868*
X04436Y01868*
X04435Y01868*
X04434Y01869*
X04432Y01869*
X04431Y01869*
X04429Y01868*
X04428Y01868*
X04426Y01868*
X04425Y01867*
X04424Y01866*
X04423Y01866*
X04422Y01865*
X04422Y01864*
X04422Y01863*
Y01886*
X04422Y01885*
G37*
G36*
X04197Y01801D02*
X04198Y018D01*
X04198Y018*
X04199Y018*
X042Y01799*
X04201Y01799*
X04202Y01799*
X04203Y01799*
X04203Y01798*
X04204Y01798*
Y01791*
X04203Y01791*
X04203Y0179*
X04202Y0179*
X04201Y0179*
X042Y0179*
X04199Y0179*
X04198Y01789*
X04198Y01789*
X04197Y01788*
X04197Y01788*
Y01801*
X04197Y01801*
G37*
G36*
X04347Y01787D02*
X04347Y01787D01*
X04347Y01788*
X04347Y01789*
X04346Y01789*
X04345Y0179*
X04344Y0179*
X04343Y0179*
X04342Y0179*
X04341Y01791*
X04339Y01791*
Y01798*
X04341Y01798*
X04342Y01799*
X04343Y01799*
X04344Y01799*
X04345Y01799*
X04346Y018*
X04347Y018*
X04347Y01801*
X04347Y01802*
X04347Y01802*
Y01787*
G37*
G36*
X04422Y01807D02*
X04422Y01807D01*
X04423Y01807*
X04424Y01807*
X04426Y01806*
X04435Y01806*
Y01783*
X04432Y01783*
X04422Y01782*
X04422Y01782*
X04422Y01782*
Y01807*
X04422Y01807*
G37*
G36*
X0551Y01695D02*
X05335D01*
X05334Y01694*
X0533Y01696*
Y0194*
X0551*
Y01695*
G37*
%LNpcb_copper_signal_bot-2*%
%LPC*%
G36*
X02897Y03601D02*
X02822D01*
Y03536*
X0274*
X02733Y03534*
X02728Y03531*
X02672Y03475*
X02632*
X02629Y03479*
X0263Y0348*
X02632Y03489*
Y03499*
X0263Y03509*
X02625Y03517*
X02618Y03524*
X02609Y03529*
X02599Y03532*
X0259*
X0258Y03529*
X02571Y03524*
X02564Y03517*
X0256Y03509*
X02557Y03499*
Y03489*
X0256Y0348*
X02564Y03471*
X02562Y0347*
X02503Y03411*
X025Y03406*
X02498Y034*
Y03229*
X025Y03222*
X02503Y03217*
X02578Y03142*
Y0314*
X02578Y03139*
X02577Y03137*
X02575Y03135*
X02571Y0313*
X02568Y03127*
X02567Y03126*
X02564Y03123*
X0256Y03115*
X02557Y03105*
Y03095*
X0256Y03086*
X02564Y03077*
X02571Y0307*
X0258Y03065*
X0259Y03063*
X02599*
X02609Y03065*
X02618Y0307*
X02625Y03077*
X0263Y03086*
X02632Y03095*
Y03105*
X0263Y03115*
X02625Y03123*
X02622Y03126*
X02621Y03127*
X02618Y0313*
X02614Y03135*
X02612Y03137*
X02611Y03139*
X02611Y0314*
Y03149*
X02609Y03155*
X02607Y03158*
X02609Y03163*
X02609Y03164*
X02609Y03164*
X02618Y03169*
X02625Y03176*
X0263Y03184*
X02632Y03194*
Y03204*
X0263Y03213*
X02625Y03222*
X02618Y03229*
X02609Y03234*
X02599Y03236*
X02595*
X02594Y03236*
X0259Y03237*
X02584Y03237*
X02581Y03237*
X02579Y03238*
X02578Y03238*
X02575Y03241*
Y0326*
X02579Y03262*
X0258Y03262*
X0259Y0326*
X02599*
X02609Y03262*
X02618Y03267*
X02625Y03274*
X0263Y03283*
X02632Y03292*
Y03296*
X02632Y03297*
X02632Y03301*
X02633Y03308*
X02633Y03311*
X02633Y03313*
X02634Y03314*
X02708Y03388*
X02824*
X02826Y03384*
X02825Y03381*
X02822Y03372*
Y03362*
X02825Y03352*
X02829Y03344*
X02836Y03337*
X02845Y03332*
X02855Y03329*
X02864*
X02874Y03332*
X02883Y03337*
X02886Y0334*
X02886Y0334*
X02889Y03343*
X02894Y03348*
X02896Y03349*
X02898Y0335*
X02899Y03351*
X03095*
X03157Y03289*
X03155Y03285*
X02899*
X02898Y03285*
X02896Y03286*
X02894Y03288*
X02889Y03292*
X02886Y03295*
X02886Y03296*
X02883Y03299*
X02874Y03303*
X02864Y03306*
X02855*
X02845Y03303*
X02836Y03299*
X02829Y03292*
X02825Y03283*
X02822Y03273*
Y03264*
X02825Y03254*
X02829Y03245*
X02836Y03238*
X02845Y03233*
X02855Y03231*
X02864*
X02874Y03233*
X02883Y03238*
X02886Y03241*
X02886Y03242*
X02889Y03245*
X02894Y03249*
X02896Y03251*
X02898Y03252*
X02899Y03252*
X03169*
X03368Y03053*
Y02635*
X03364Y02633*
X03299Y02697*
Y02698*
X03296Y02706*
X03291Y02711*
X03283Y02714*
X03276*
X03268Y02711*
X03263Y02706*
X0326Y02698*
Y02691*
X03263Y02683*
X03268Y02678*
X03276Y02675*
X03277*
X03306Y02645*
X03305Y02643*
X03304Y02641*
X03225*
X03218Y02639*
X03213Y02636*
X0319Y02612*
X03186Y02607*
X03185Y02601*
X03181Y02599*
X03174*
Y02589*
X03171*
X03163Y02586*
X03158Y02581*
X03155Y02573*
Y02566*
X03158Y02558*
X03163Y02553*
X03171Y0255*
X03174*
Y0254*
X03227*
Y02599*
X03226Y02603*
X03231Y02608*
X03298*
X03428Y02479*
X03427Y02473*
X03423Y02471*
X03423Y02471*
X03363*
X03357Y02469*
X03352Y02466*
X03205Y02319*
X03174*
Y0231*
X03173Y02309*
X03166*
X03158Y02306*
X03153Y02301*
X0315Y02293*
Y02286*
X03153Y02278*
X03158Y02273*
X03166Y0227*
X03173*
X03174Y02269*
Y0226*
X03227*
Y02296*
X0337Y02438*
X03423*
X03423Y02438*
X03431Y02435*
X03438*
X03446Y02438*
X03451Y02443*
X03453Y02447*
X03459Y02448*
X03548Y02358*
X03553Y02355*
X0356Y02353*
X03578*
X03578Y02353*
X03586Y0235*
X03593*
X03601Y02353*
X03606Y02358*
X03609Y02365*
X03614Y02367*
X03714Y02268*
Y02205*
X03699*
Y02134*
X0376*
Y02135*
X03763*
X03771Y02138*
X03776Y02143*
X03779Y02151*
Y02158*
X03776Y02166*
X03771Y02171*
X03763Y02174*
X0376*
Y02205*
X03746*
Y02274*
X03745Y0228*
X03741Y02286*
X03728Y02299*
X0373Y02303*
X03773*
Y02304*
X03799*
Y02303*
X03805*
Y02296*
X03808Y02288*
X03813Y02283*
X03821Y0228*
X03828*
X03836Y02283*
X03841Y02288*
X03844Y02296*
Y02303*
X0385*
Y02353*
X03799*
Y02352*
X03773*
Y02353*
X03722*
Y02311*
X03717Y02309*
X03427Y026*
X03429Y02605*
X03436Y02608*
X03441Y02613*
X03444Y02621*
Y02622*
X03459Y02636*
X03465Y02636*
X03468Y02633*
X03476Y0263*
X03477*
X03663Y02443*
X03668Y0244*
X03675Y02438*
X03923*
X04028Y02333*
X04033Y0233*
X0404Y02328*
X04105*
X04111Y0233*
X04116Y02333*
X04171Y02388*
X04174Y02393*
X04176Y024*
Y02467*
X04176Y02468*
X04179Y02476*
Y02483*
X04176Y02491*
X04171Y02496*
X04163Y02499*
X04156*
X04148Y02496*
X04143Y02491*
X0414Y02483*
Y02479*
X04135Y02477*
X04131Y02481*
X04123Y02484*
X04116*
X04108Y02481*
X04103Y02476*
X041Y02468*
Y02461*
X04103Y02453*
X04102Y02451*
X04096Y02448*
X04093Y02449*
X04092*
X03924Y02618*
X03918Y02622*
X03912Y02623*
X03789*
Y02628*
X03786Y02636*
X03781Y02641*
X03773Y02644*
X03772*
X03746Y02671*
Y02793*
X04016Y03063*
X04238*
X04238Y03063*
X04246Y0306*
X04253*
X04261Y03063*
X04266Y03068*
X04269Y03076*
Y03083*
X04266Y03091*
X04261Y03096*
X04253Y03099*
X04246*
X04238Y03096*
X04238Y03096*
X04201*
X04199Y03101*
X04201Y03103*
X04204Y03111*
Y03115*
X04209Y03117*
X04213Y03113*
X04221Y0311*
X04228*
X04236Y03113*
X04241Y03118*
X04244Y03126*
Y03133*
X04241Y03141*
X04241Y03142*
Y03215*
X04239Y03221*
X04236Y03226*
X04196Y03266*
X04191Y03269*
X04185Y03271*
X04067*
X04066Y03271*
X04058Y03274*
X04057*
Y03287*
X03989*
Y03222*
X04057*
Y03235*
X04058*
X04066Y03238*
X04067Y03238*
X04178*
X04199Y03218*
X04196Y03213*
X04193Y03214*
X04186*
X04178Y03211*
X04178Y03211*
X04165*
Y03223*
X04114*
Y03166*
X04165*
Y03178*
X04178*
X04178Y03178*
X04186Y03175*
X04193*
X04201Y03178*
X04203Y0318*
X04208Y03178*
Y03142*
X04208Y03141*
X04205Y03133*
Y03129*
X042Y03127*
X04196Y03131*
X04188Y03134*
X04181*
X04173Y03131*
X04173Y03131*
X04168Y03131*
Y03144*
X0411*
Y03096*
X0401*
X04003Y03094*
X03998Y03091*
X03774Y02867*
X03769Y02869*
Y02873*
X03766Y02881*
X03761Y02886*
X03753Y02889*
X03746*
X03738Y02886*
X03733Y02881*
X0373Y02873*
Y02872*
X0371Y02853*
X03706Y02855*
Y0292*
X03704Y02926*
X03701Y02931*
X03562Y0307*
X03564Y03075*
X03571Y03078*
X03576Y03083*
X03579Y03091*
Y03098*
X03576Y03106*
X03571Y03111*
X03563Y03114*
X03556*
X03548Y03111*
X03543Y03106*
X0354Y03099*
X03535Y03097*
X03101Y03531*
X03096Y03534*
X0309Y03536*
X02897*
Y03601*
G37*
G36*
X03648Y03417D02*
X03581D01*
Y03346*
X03555Y0332*
X0355Y03313*
X03548Y03303*
Y03285*
X03546*
Y03234*
X03551*
X03552Y03225*
X03557Y03217*
X03565Y03212*
X03575Y0321*
X03584Y03212*
X03592Y03217*
X03597Y03225*
X03599Y03235*
Y03272*
X03597Y03281*
X03596Y03282*
Y03293*
X03615Y03312*
X03648*
Y03417*
G37*
G36*
X0301Y03688D02*
X02666D01*
X02657Y03686*
X02649Y03681*
X02598Y0363*
X02557*
Y03599*
X02557Y03598*
X02557Y03598*
Y03589*
X02427Y03459*
X02422Y03452*
X0242Y03442*
Y02966*
X02422Y02957*
X02427Y02949*
X02522Y02854*
X02522Y02854*
X02523Y02853*
X02522Y02852*
X02522Y02852*
X02467Y02797*
X02462Y02789*
X0246Y0278*
Y02401*
X02462Y02392*
X02467Y02384*
X02557Y02295*
Y02254*
X02588*
X02589Y02253*
X02589Y02254*
X02598*
X02645Y02206*
Y01659*
X02611Y01625*
X02587*
Y01639*
X02512*
Y01564*
X02587*
Y01577*
X02621*
X0263Y01579*
X02638Y01584*
X02687Y01632*
X02692Y0164*
X02694Y0165*
Y02216*
X02692Y02225*
X02687Y02233*
X02632Y02288*
Y02297*
X02632Y02297*
X02632Y02297*
Y02329*
X02591*
X02509Y02411*
Y0277*
X02565Y02826*
X02565Y02826*
X02568Y02828*
X02572Y02829*
X02572Y02829*
X02789*
X0279Y02829*
X02791Y02828*
X02792Y02827*
X02793Y02826*
X02794Y02826*
X02796Y02823*
X02805Y02818*
X02815Y02815*
X02824*
X02834Y02818*
X02843Y02823*
X0285Y0283*
X02855Y02838*
X02857Y02848*
Y02858*
X02855Y02867*
X0285Y02876*
X02843Y02883*
X02834Y02888*
X02824Y0289*
X02815*
X02805Y02888*
X02796Y02883*
X02794Y0288*
X02793Y0288*
X02792Y02879*
X02791Y02878*
X0279Y02877*
X02789Y02877*
X02572*
X02572Y02877*
X02568Y02878*
X02565Y0288*
X02565Y0288*
X02469Y02976*
Y03432*
X02591Y03555*
X026*
X026Y03555*
X02601Y03555*
X02632*
Y03596*
X02676Y0364*
X02754*
X02756Y03635*
X02755Y0363*
Y03623*
X02757Y03617*
X0276Y03611*
X02765Y03606*
X02771Y03603*
X02777Y03601*
X02784*
X02791Y03603*
X02796Y03606*
X02801Y03611*
X02805Y03617*
X02806Y03623*
Y0363*
X02805Y03635*
X02808Y0364*
X03*
X03492Y03147*
X035Y03142*
X0351Y0314*
X0367*
X03679Y03142*
X03687Y03147*
X03722Y03182*
X03727Y0319*
X03729Y032*
Y03375*
X03727Y03384*
X03722Y03392*
X03714Y03397*
X03705Y03399*
X03695Y03397*
X03687Y03392*
X03682Y03384*
X0368Y03375*
Y03209*
X0366Y03189*
X03519*
X03027Y03681*
X03019Y03686*
X0301Y03688*
G37*
G36*
X04168Y03049D02*
X04161D01*
X04153Y03046*
X04153Y03046*
X04036*
X0403Y03044*
X04025Y03041*
X03898Y02914*
X03895Y02909*
X03893Y02903*
Y02823*
X03895Y02817*
X03898Y02811*
X03903Y02806*
Y02797*
X03898Y02796*
X03896Y02801*
X03891Y02806*
X03883Y02809*
X03876*
X03868Y02806*
X03863Y02801*
X03861Y02797*
X0386Y02796*
X03855Y02798*
Y02823*
X03857Y02826*
X0386Y02833*
Y02841*
X03857Y02848*
X03851Y02854*
X03844Y02857*
X03836*
X03829Y02854*
X03823Y02848*
X0382Y02841*
Y02833*
X03823Y02827*
Y02768*
X03812*
X03811Y02769*
X03803Y02772*
X03796*
X03788Y02769*
X03783Y02763*
X0378Y02756*
Y02748*
X03783Y02741*
X03788Y02735*
X03796Y02732*
X03803*
X03811Y02735*
X03812Y02736*
X03831*
X03837Y02737*
X0384Y02739*
X03843Y02738*
X03848Y02733*
X03856Y0273*
X03863*
X03871Y02733*
X03876Y02738*
X03879Y02746*
Y02753*
X03876Y02761*
X03876Y02762*
Y02767*
X03877Y02768*
X03879Y0277*
X03883*
X03891Y02773*
X03896Y02778*
X03898Y02783*
X03903Y02782*
Y02742*
X03903Y02741*
X039Y02733*
Y02726*
X03903Y02718*
X03908Y02713*
X03916Y0271*
X03923*
X03931Y02713*
X03936Y02718*
X03939Y02726*
Y02733*
X03936Y02741*
X03936Y02742*
Y02813*
X03934Y02819*
X03931Y02824*
X03926Y02829*
Y02896*
X04043Y03013*
X04153*
X04153Y03013*
X04161Y0301*
X04168*
X04176Y03013*
X04181Y03018*
X04184Y03026*
Y03033*
X04181Y03041*
X04176Y03046*
X04168Y03049*
G37*
G36*
X04243Y03044D02*
X04236D01*
X04228Y03041*
X04223Y03036*
X0422Y03028*
Y03021*
X04223Y03013*
X04228Y03008*
X04236Y03005*
X04243*
X04251Y03008*
X04256Y03013*
X04259Y03021*
Y03028*
X04256Y03036*
X04251Y03041*
X04243Y03044*
G37*
G36*
X04207Y02964D02*
X04142D01*
Y02903*
Y02845*
X04207*
Y02876*
X04211Y02878*
X04216Y02883*
X04219Y02891*
Y02899*
X04216Y02906*
X04211Y02911*
X0421Y02917*
X04211Y02918*
X04214Y02926*
Y02933*
X04211Y02941*
X04207Y02945*
Y02964*
G37*
G36*
X04253Y02999D02*
X04246D01*
X04238Y02996*
X04233Y02991*
X0423Y02983*
Y02976*
X04233Y02968*
X04233Y02967*
Y02855*
X04235Y02848*
X04238Y02843*
X04321Y0276*
X04319Y02756*
X04256*
Y0278*
X04206*
Y02729*
X04213*
Y027*
X04206*
Y02649*
X04256*
Y027*
X04249*
Y02723*
X04255*
Y02716*
X04258Y02708*
X04263Y02703*
X04271Y027*
X04278*
X04286Y02703*
X04291Y02708*
X04294Y02716*
Y02723*
X04352*
X04353Y02723*
X04361Y0272*
X04368*
X04375Y02722*
X04376Y02723*
X04381Y02728*
X04384Y02736*
Y02743*
X04381Y02751*
X04376Y02756*
X04375Y02757*
X04368Y02759*
X04367*
X04266Y02861*
Y02967*
X04266Y02968*
X04269Y02976*
Y02983*
X04266Y02991*
X04261Y02996*
X04253Y02999*
G37*
G36*
X02857Y02792D02*
X02782D01*
Y02717*
X02857*
Y02792*
G37*
G36*
X04073Y02695D02*
X04023D01*
Y02689*
X04021*
X04013Y02686*
X04008Y02681*
X04005Y02673*
Y02666*
X04008Y02658*
X04013Y02653*
X04021Y0265*
X04023*
Y02644*
X04073*
Y02695*
G37*
G36*
X04074Y02618D02*
X04025D01*
Y02603*
X04023Y02601*
X0402Y02593*
Y02586*
X04023Y02578*
X04025Y02576*
Y02567*
X04074*
Y02618*
G37*
G36*
X02599Y02624D02*
X0259D01*
X0258Y02621*
X02571Y02616*
X02564Y02609*
X0256Y02601*
X02557Y02591*
Y02581*
X0256Y02572*
X02564Y02563*
X02571Y02556*
X0258Y02551*
X0259Y02549*
X02599*
X02609Y02551*
X02618Y02556*
X02625Y02563*
X0263Y02572*
X02632Y02581*
Y02591*
X0263Y02601*
X02625Y02609*
X02618Y02616*
X02609Y02621*
X02599Y02624*
G37*
G36*
X04251Y0262D02*
X04201D01*
Y02569*
X04207*
X0421Y02565*
X0421Y02563*
Y02556*
X04213Y02548*
X04218Y02543*
X04226Y0254*
X04233*
X04241Y02543*
X04246Y02548*
X04249Y02556*
Y02563*
X04248Y02566*
X04251Y02569*
Y0262*
G37*
G36*
X02599Y02722D02*
X0259D01*
X0258Y0272*
X02571Y02715*
X02564Y02708*
X0256Y02699*
X02557Y0269*
Y0268*
X0256Y0267*
X02564Y02662*
X02571Y02655*
X0258Y0265*
X0259Y02647*
X02594*
X02594Y02647*
X02596Y02647*
X02597Y02647*
X02598Y02647*
X02599Y02646*
X02718Y02527*
X02726Y02522*
X02735Y0252*
X02959*
X02968Y02522*
X02976Y02527*
X03002Y02552*
X03007Y0256*
X03009Y0257*
X03007Y02579*
X03002Y02587*
X02994Y02592*
X02985Y02594*
X02975Y02592*
X02967Y02587*
X02949Y02568*
X02859*
Y02573*
X02856Y02581*
X02851Y02586*
X02843Y02589*
X02836*
X02828Y02586*
X02823Y02581*
X0282Y02573*
Y02568*
X02745*
X02633Y0268*
X02633Y02681*
X02632Y02682*
X02632Y02683*
X02632Y02685*
X02632Y02686*
Y0269*
X0263Y02699*
X02625Y02708*
X02618Y02715*
X02609Y0272*
X02599Y02722*
G37*
G36*
X03227Y02509D02*
X03174D01*
Y02496*
X03162*
X03161Y02496*
X03153Y02499*
X03146*
X03138Y02496*
X03133Y02491*
X0313Y02483*
Y02476*
X03133Y02468*
X03138Y02463*
X03146Y0246*
X03153*
X03161Y02463*
X03162Y02463*
X03174*
Y0245*
X03227*
Y02509*
G37*
G36*
X02997Y02507D02*
X02938D01*
Y02452*
X02997*
Y02455*
X03015*
X03024Y02457*
X03032Y02462*
X03037Y0247*
X03039Y0248*
X03037Y02489*
X03032Y02497*
X03024Y02502*
X03015Y02504*
X02997*
Y02507*
G37*
G36*
X02599Y02525D02*
X0259D01*
X0258Y02523*
X02571Y02518*
X02564Y02511*
X0256Y02502*
X02557Y02493*
Y02483*
X0256Y02473*
X02564Y02465*
X02571Y02458*
X0258Y02453*
X0259Y0245*
X02599*
X02609Y02453*
X02618Y02458*
X02625Y02465*
X0263Y02473*
X02632Y02483*
Y02493*
X0263Y02502*
X02625Y02511*
X02618Y02518*
X02609Y02523*
X02599Y02525*
G37*
G36*
X02994Y02412D02*
X02935D01*
Y02357*
X02994*
Y0236*
X0302*
X03029Y02362*
X03037Y02367*
X03042Y02375*
X03044Y02385*
X03042Y02394*
X03037Y02402*
X03029Y02407*
X0302Y02409*
X02994*
Y02412*
G37*
G36*
X03227Y02414D02*
X03174D01*
Y02405*
X03173Y02404*
X03166*
X03158Y02401*
X03153Y02396*
X0315Y02388*
Y02381*
X03153Y02373*
X03158Y02368*
X03166Y02365*
X03173*
X03174Y02364*
Y02355*
X03227*
Y02414*
G37*
G36*
X02599Y02427D02*
X0259D01*
X0258Y02425*
X02571Y0242*
X02564Y02413*
X0256Y02404*
X02557Y02394*
Y02385*
X0256Y02375*
X02564Y02366*
X02571Y02359*
X0258Y02355*
X0259Y02352*
X02599*
X02609Y02355*
X02618Y02359*
X02625Y02366*
X0263Y02375*
X02632Y02385*
Y02394*
X0263Y02404*
X02625Y02413*
X02618Y0242*
X02609Y02425*
X02599Y02427*
G37*
G36*
X02997Y02317D02*
X02938D01*
Y02262*
X02997*
Y02265*
X0302*
X03029Y02267*
X03037Y02272*
X03042Y0228*
X03044Y0229*
X03042Y02299*
X03037Y02307*
X03029Y02312*
X0302Y02314*
X02997*
Y02317*
G37*
G36*
X03488Y02309D02*
X03481D01*
X03473Y02306*
X03468Y02301*
X03465Y02293*
Y02286*
X03468Y02278*
X03466Y02274*
X03438Y02246*
X03421*
Y02255*
X03371*
Y02204*
X03421*
Y02213*
X03445*
X03451Y02215*
X03456Y02218*
X03496Y02258*
X03499Y02263*
X03501Y0227*
Y02278*
X03501Y02278*
X03504Y02286*
Y02293*
X03501Y02301*
X03496Y02306*
X03488Y02309*
G37*
G36*
X02931Y02507D02*
X02872D01*
Y02452*
X02877*
Y02412*
X02868*
Y02357*
X02877*
Y02317*
X02872*
Y02262*
X02877*
Y02237*
X02875Y0223*
X02877Y0222*
X02882Y02212*
X0289Y02207*
X029Y02205*
X02909Y02207*
X02917Y02212*
X02918Y02214*
X02923Y02222*
X02925Y02231*
Y02262*
X02931*
Y02317*
X02925*
Y02357*
X02927*
Y02412*
X02925*
Y02452*
X02931*
Y02507*
G37*
G36*
X03523Y02224D02*
X03516D01*
X03508Y02221*
X03503Y02216*
X035Y02208*
Y02207*
X03463Y02171*
X03421*
Y02178*
X03371*
Y02127*
X03421*
Y02138*
X0347*
X03476Y0214*
X03481Y02143*
X03522Y02185*
X03523*
X03531Y02188*
X03536Y02193*
X03539Y02201*
Y02208*
X03536Y02216*
X03531Y02221*
X03523Y02224*
G37*
G36*
X02938Y02059D02*
X02931D01*
X02923Y02056*
X02918Y02051*
X02915Y02043*
Y02036*
X02916Y02033*
Y0195*
X02908*
Y01899*
X02958*
Y0195*
X02952*
Y02029*
X02954Y02036*
Y02043*
X02951Y02051*
X02946Y02056*
X02938Y02059*
G37*
G36*
X02554Y01835D02*
X02545D01*
X02535Y01833*
X02526Y01828*
X02519Y01821*
X02515Y01812*
X02512Y01803*
Y01793*
X02515Y01783*
X02519Y01775*
X02526Y01768*
X02535Y01763*
X02545Y0176*
X02554*
X02564Y01763*
X02573Y01768*
X0258Y01775*
X02585Y01783*
X02587Y01793*
Y01803*
X02585Y01812*
X0258Y01821*
X02573Y01828*
X02564Y01833*
X02554Y01835*
G37*
G36*
Y01737D02*
X02545D01*
X02535Y01735*
X02526Y0173*
X02519Y01723*
X02515Y01714*
X02512Y01704*
Y01695*
X02515Y01685*
X02519Y01676*
X02526Y01669*
X02535Y01665*
X02545Y01662*
X02554*
X02564Y01665*
X02573Y01669*
X0258Y01676*
X02585Y01685*
X02587Y01695*
Y01704*
X02585Y01714*
X0258Y01723*
X02573Y0173*
X02564Y01735*
X02554Y01737*
G37*
%LNpcb_copper_signal_bot-3*%
%LPD*%
G36*
X02626Y03422D02*
X02625Y0342D01*
X02624Y03419*
X02623Y03417*
X02622Y03415*
X02621Y03413*
X02621Y03411*
X02621Y03408*
X02621Y03406*
X02621Y03403*
X02622Y03401*
X026Y03423*
X02602Y03422*
X02605Y03422*
X02607Y03422*
X0261Y03422*
X02612Y03423*
X02614Y03423*
X02616Y03424*
X02617Y03425*
X02619Y03426*
X02621Y03427*
X02626Y03422*
G37*
G36*
X02882Y03383D02*
X02888Y03378D01*
X0289Y03376*
X02893Y03375*
X02895Y03373*
X02897Y03372*
X02899Y03371*
X02901Y03371*
X02903Y03371*
Y03363*
X02901Y03363*
X02899Y03362*
X02897Y03362*
X02895Y0336*
X02893Y03359*
X0289Y03357*
X02888Y03355*
X02882Y03351*
X02879Y03348*
Y03386*
X02882Y03383*
G37*
G36*
X02628Y03325D02*
X02627Y03324D01*
X02626Y03322*
X02625Y0332*
X02624Y03318*
X02624Y03315*
X02623Y03312*
X02623Y03309*
X02622Y03302*
X02622Y03297*
X02595Y03325*
X02599Y03325*
X02606Y03325*
X0261Y03326*
X02613Y03326*
X02615Y03327*
X02617Y03328*
X0262Y03329*
X02621Y0333*
X02623Y03331*
X02628Y03325*
G37*
G36*
X02882Y03285D02*
X02888Y0328D01*
X0289Y03278*
X02893Y03276*
X02895Y03275*
X02897Y03274*
X02899Y03273*
X02901Y03273*
X02903Y03272*
Y03265*
X02901Y03264*
X02899Y03264*
X02897Y03263*
X02895Y03262*
X02893Y03261*
X0289Y03259*
X02888Y03257*
X02882Y03252*
X02879Y03249*
Y03288*
X02882Y03285*
G37*
G36*
X04062Y03261D02*
X04063Y0326D01*
X04063Y0326*
X04064Y0326*
X04065Y03259*
X04066Y03259*
X04067Y03259*
X04068Y03259*
X04068Y03258*
X04069Y03258*
Y03251*
X04068Y03251*
X04068Y0325*
X04067Y0325*
X04066Y0325*
X04065Y0325*
X04064Y0325*
X04063Y03249*
X04063Y03249*
X04062Y03248*
X04062Y03248*
Y03261*
X04062Y03261*
G37*
G36*
X04045Y03262D02*
X04046Y03261D01*
X04046Y0326*
X04046Y0326*
X04046Y0326*
X04047Y03261*
X04047Y03261*
Y03259*
X04048Y03259*
X04049Y03259*
X0405Y03259*
X04052Y03258*
X04053Y03258*
Y03251*
X04052Y03251*
X0405Y0325*
X04049Y0325*
X04048Y0325*
X04047Y0325*
Y03248*
X04047Y03248*
X04046Y03249*
X04046Y03249*
X04046Y03249*
X04046Y03248*
X04045Y03247*
X04045Y03247*
Y03249*
X04045Y0325*
X04044Y0325*
X04043Y0325*
X04042Y0325*
X04041Y0325*
X04041Y03251*
X0404Y03251*
Y03258*
X04041Y03258*
X04041Y03259*
X04042Y03259*
X04043Y03259*
X04044Y03259*
X04045Y0326*
X04045Y0326*
Y03262*
X04045Y03262*
G37*
G36*
X02568Y03231D02*
X02569Y0323D01*
X02572Y03229*
X02574Y03228*
X02576Y03228*
X02579Y03227*
X02583Y03227*
X0259Y03226*
X02594Y03226*
X02567Y03199*
X02567Y03203*
X02566Y03211*
X02566Y03214*
X02566Y03217*
X02565Y03219*
X02564Y03222*
X02563Y03224*
X02562Y03225*
X02561Y03227*
X02566Y03233*
X02568Y03231*
G37*
G36*
X04182Y03188D02*
X04182Y03188D01*
X04181Y03189*
X04181Y03189*
X0418Y0319*
X04179Y0319*
X04178Y0319*
X04177Y0319*
X04176Y0319*
X04176Y03191*
X04175Y03191*
Y03198*
X04176Y03198*
X04176Y03199*
X04177Y03199*
X04178Y03199*
X04179Y03199*
X0418Y032*
X04181Y032*
X04181Y032*
X04182Y03201*
X04182Y03201*
Y03188*
G37*
G36*
X04153Y03202D02*
X04153Y03201D01*
X04153Y032*
X04154Y032*
X04155Y03199*
X04156Y03199*
X04157Y03199*
X04158Y03199*
X04159Y03198*
X04161Y03198*
Y03191*
X04159Y03191*
X04158Y0319*
X04157Y0319*
X04156Y0319*
X04155Y0319*
X04154Y03189*
X04153Y03189*
X04153Y03188*
X04153Y03187*
X04153Y03187*
Y03202*
X04153Y03202*
G37*
G36*
X04228Y03143D02*
X04229Y03143D01*
X04229Y03142*
X04229Y03141*
X04229Y0314*
X0423Y03139*
X0423Y03138*
X0423Y03138*
X04231Y03137*
X04231Y03137*
X04218*
X04218Y03137*
X04219Y03138*
X04219Y03138*
X0422Y03139*
X0422Y0314*
X0422Y03141*
X0422Y03142*
X0422Y03143*
X04221Y03143*
X04221Y03144*
X04228*
X04228Y03143*
G37*
G36*
X02599Y03142D02*
X02599Y0314D01*
X026Y03138*
X02601Y03136*
X02602Y03134*
X02604Y03131*
X02606Y03128*
X02611Y03123*
X02614Y0312*
X02575*
X02578Y03123*
X02583Y03128*
X02585Y03131*
X02587Y03134*
X02588Y03136*
X02589Y03138*
X0259Y0314*
X0259Y03142*
X02591Y03144*
X02598*
X02599Y03142*
G37*
G36*
X04177Y03108D02*
X04177Y03108D01*
X04176Y03109*
X04176Y03109*
X04175Y0311*
X04174Y0311*
X04173Y0311*
X04172Y0311*
X04171Y0311*
X04171Y03111*
X0417Y03111*
Y03118*
X04171Y03118*
X04171Y03119*
X04172Y03119*
X04173Y03119*
X04174Y03119*
X04175Y0312*
X04176Y0312*
X04176Y0312*
X04177Y03121*
X04177Y03121*
Y03108*
G37*
G36*
X04156Y03122D02*
X04156Y03121D01*
X04156Y0312*
X04157Y0312*
X04158Y03119*
X04159Y03119*
X0416Y03119*
X04161Y03119*
X04162Y03118*
X04164Y03118*
Y03111*
X04162Y03111*
X04161Y0311*
X0416Y0311*
X04159Y0311*
X04158Y0311*
X04157Y03109*
X04156Y03109*
X04156Y03108*
X04156Y03107*
X04156Y03107*
Y03122*
X04156Y03122*
G37*
G36*
X03749Y0286D02*
X03749Y0286D01*
X03748Y0286*
X03747Y02859*
X03746Y02859*
X03745Y02859*
X03745Y02858*
X03744Y02858*
X03743Y02857*
X03742Y02857*
X03742Y02856*
X03736Y02862*
X03737Y02862*
X03737Y02863*
X03738Y02864*
X03738Y02865*
X03739Y02865*
X03739Y02866*
X03739Y02867*
X0374Y02868*
X0374Y02869*
X0374Y02869*
X03749Y0286*
G37*
G36*
X03627Y0279D02*
X03626Y0279D01*
X03626Y0279*
X03625Y02789*
X03625Y02788*
X03624Y02787*
X03624Y02786*
X03624Y02785*
X03624Y02784*
X03624Y02782*
X03616*
X03616Y0279*
X03628Y0279*
X03627Y0279*
G37*
G36*
X03557Y0279D02*
X03556Y0279D01*
X03555Y0279*
X03555Y02789*
X03554Y02788*
X03554Y02787*
X03554Y02786*
X03554Y02785*
X03553Y02784*
X03553Y02782*
X03546*
X03546Y02784*
X03545Y02785*
X03545Y02786*
X03545Y02787*
X03545Y02788*
X03544Y02789*
X03544Y0279*
X03543Y0279*
X03542Y0279*
X03542Y0279*
X03557*
X03557Y0279*
G37*
G36*
X03624Y02774D02*
X03624Y02762D01*
X03612Y02769*
X03613Y02769*
X03614Y0277*
X03614Y0277*
X03614Y0277*
X03615Y02771*
X03615Y02772*
X03615Y02772*
X03616Y02773*
X03616Y02774*
X03616Y02775*
X03624Y02774*
G37*
G36*
X03562Y02772D02*
X03563Y02772D01*
X03564Y02771*
X03565Y02771*
X03565Y0277*
X03566Y0277*
X03567Y0277*
X03568Y02769*
X03569Y02769*
X03569Y02769*
X0356Y0276*
X0356Y0276*
X0356Y02761*
X03559Y02762*
X03559Y02763*
X03559Y02764*
X03558Y02764*
X03558Y02765*
X03557Y02766*
X03557Y02767*
X03556Y02767*
X03562Y02773*
X03562Y02772*
G37*
G36*
X03605Y02924D02*
X03608Y02918D01*
X03613Y02913*
X03621Y0291*
X03628*
X03636Y02913*
X03641Y02918*
X03643Y02919*
X03653Y02908*
Y02828*
X03604*
Y02796*
X03604Y02794*
Y02776*
X03603Y02776*
X03598Y02771*
X03595Y02763*
Y02756*
X03598Y02748*
X03603Y02743*
X03611Y0274*
X03618*
X03626Y02743*
X03631Y02748*
X03634Y02756*
Y02761*
X03634Y02762*
X03636Y02768*
Y02778*
X03653*
Y0263*
X03655Y02623*
X03658Y02618*
X03696Y0258*
X03694Y02576*
X03681*
X03526Y02731*
Y02778*
X03534*
X03535Y02773*
X03538Y02768*
X0355Y02757*
Y02756*
X03553Y02748*
X03558Y02743*
X03566Y0274*
X03573*
X03581Y02743*
X03586Y02748*
X03589Y02756*
Y02763*
X03586Y02771*
X03581Y02776*
X03575Y02779*
Y02828*
X03526*
Y02997*
X0353Y02999*
X03605Y02924*
G37*
G36*
X03289Y02694D02*
X03289Y02693D01*
X0329Y02692*
X0329Y02691*
X0329Y0269*
X03291Y0269*
X03291Y02689*
X03292Y02688*
X03292Y02687*
X03293Y02687*
X03287Y02681*
X03287Y02682*
X03286Y02682*
X03285Y02683*
X03284Y02683*
X03284Y02684*
X03283Y02684*
X03282Y02684*
X03281Y02685*
X0328Y02685*
X0328Y02685*
X03289Y02694*
X03289Y02694*
G37*
G36*
X03499Y02684D02*
X03499Y02683D01*
X035Y02682*
X035Y02681*
X035Y0268*
X03501Y0268*
X03501Y02679*
X03502Y02678*
X03502Y02677*
X03503Y02677*
X03497Y02671*
X03497Y02672*
X03496Y02672*
X03495Y02673*
X03494Y02673*
X03494Y02674*
X03493Y02674*
X03492Y02674*
X03491Y02675*
X0349Y02675*
X0349Y02675*
X03499Y02684*
X03499Y02684*
G37*
G36*
X03489Y02649D02*
X03489Y02648D01*
X0349Y02647*
X0349Y02646*
X0349Y02645*
X03491Y02645*
X03491Y02644*
X03492Y02643*
X03492Y02642*
X03493Y02642*
X03487Y02636*
X03487Y02637*
X03486Y02637*
X03485Y02638*
X03484Y02638*
X03484Y02639*
X03483Y02639*
X03482Y02639*
X03481Y0264*
X0348Y0264*
X0348Y0264*
X03489Y02649*
X03489Y02649*
G37*
G36*
X03727Y02642D02*
X03728Y02642D01*
X03729Y02641*
X0373Y02641*
X0373Y0264*
X03731Y0264*
X03732Y0264*
X03733Y02639*
X03734Y02639*
X03734Y02639*
X03725Y0263*
X03725Y0263*
X03725Y02631*
X03724Y02632*
X03724Y02633*
X03724Y02634*
X03723Y02634*
X03723Y02635*
X03722Y02636*
X03722Y02637*
X03721Y02637*
X03727Y02643*
X03727Y02642*
G37*
G36*
X03762Y02637D02*
X03763Y02637D01*
X03764Y02636*
X03765Y02636*
X03765Y02635*
X03766Y02635*
X03767Y02635*
X03768Y02635*
X03769Y02634*
X03769Y02634*
X0376Y02625*
X0376Y02625*
X0376Y02626*
X03759Y02627*
X03759Y02628*
X03759Y02629*
X03758Y02629*
X03758Y0263*
X03757Y02631*
X03757Y02632*
X03756Y02632*
X03762Y02638*
X03762Y02637*
G37*
G36*
X03438Y02632D02*
X03437Y02632D01*
X03437Y02631*
X03436Y0263*
X03436Y02629*
X03435Y02629*
X03435Y02628*
X03435Y02627*
X03434Y02626*
X03434Y02625*
X03434Y02625*
X03425Y02634*
X03425Y02634*
X03426Y02634*
X03427Y02635*
X03428Y02635*
X03429Y02635*
X03429Y02636*
X0343Y02636*
X03431Y02637*
X03432Y02637*
X03432Y02638*
X03438Y02632*
G37*
G36*
X03205Y02593D02*
X03205Y02592D01*
X03205Y02591*
X03205Y0259*
X03206Y02589*
X03206Y02588*
X03207Y02588*
X03207Y02587*
X03208Y02587*
X03209Y02587*
X03193*
X03194Y02587*
X03194Y02587*
X03195Y02588*
X03196Y02588*
X03196Y02589*
X03196Y0259*
X03197Y02591*
X03197Y02592*
X03197Y02593*
X03197Y02595*
X03205*
X03205Y02593*
G37*
G36*
X03186Y02574D02*
X03187Y02574D01*
X03188Y02574*
X03188Y02573*
X03189Y02573*
Y02566*
X03188Y02566*
X03188Y02565*
X03187Y02565*
X03186Y02565*
Y02562*
X03186Y02562*
X03186Y02563*
X03186Y02564*
X03185Y02564*
X03184Y02565*
X03184Y02565*
X03183Y02564*
X03183Y02564*
X03182Y02563*
X03182Y02563*
Y02565*
X03181Y02565*
X0318Y02566*
X03178Y02566*
Y02573*
X0318Y02573*
X03181Y02574*
X03182Y02574*
Y02576*
X03182Y02576*
X03183Y02575*
X03183Y02575*
X03184Y02575*
X03184Y02574*
X03185Y02575*
X03186Y02575*
X03186Y02576*
X03186Y02577*
X03186Y02577*
Y02574*
G37*
G36*
X03432Y02547D02*
X03433Y02547D01*
X03434Y02546*
X03435Y02546*
X03435Y02545*
X03436Y02545*
X03437Y02545*
X03438Y02544*
X03439Y02544*
X03439Y02544*
X0343Y02535*
X0343Y02535*
X0343Y02536*
X03429Y02537*
X03429Y02538*
X03429Y02539*
X03428Y02539*
X03428Y0254*
X03427Y02541*
X03427Y02542*
X03426Y02542*
X03432Y02548*
X03432Y02547*
G37*
G36*
X03839Y02529D02*
X03839Y02528D01*
X0384Y02527*
X0384Y02526*
X0384Y02525*
X03841Y02525*
X03841Y02524*
X03842Y02523*
X03842Y02522*
X03843Y02522*
X03837Y02516*
X03837Y02517*
X03836Y02517*
X03835Y02518*
X03834Y02518*
X03834Y02519*
X03833Y02519*
X03832Y02519*
X03831Y0252*
X0383Y0252*
X0383Y0252*
X03839Y02529*
X03839Y02529*
G37*
G36*
X03872Y02498D02*
X03872Y02498D01*
X03871Y02499*
X03871Y02499*
X0387Y025*
X03869Y025*
X03868Y025*
X03867Y025*
X03866Y025*
X03866Y02501*
X03865Y02501*
Y02508*
X03866Y02508*
X03866Y02509*
X03867Y02509*
X03868Y02509*
X03869Y02509*
X0387Y0251*
X03871Y0251*
X03871Y0251*
X03872Y02511*
X03872Y02511*
Y02498*
G37*
G36*
X04166Y02472D02*
X04165Y02471D01*
X04165Y02471*
X04165Y0247*
X04164Y02469*
X04164Y02468*
X04164Y02467*
X04164Y02466*
X04163Y02466*
X04163Y02465*
X04156*
X04156Y02466*
X04155Y02466*
X04155Y02467*
X04155Y02468*
X04155Y02469*
X04155Y0247*
X04154Y02471*
X04154Y02471*
X04153Y02472*
X04153Y02472*
X04166*
X04166Y02472*
G37*
G36*
X04126Y02457D02*
X04125Y02456D01*
X04125Y02456*
X04125Y02455*
X04124Y02454*
X04124Y02453*
X04124Y02452*
X04124Y02451*
X04123Y02451*
X04123Y0245*
X04116*
X04116Y02451*
X04115Y02451*
X04115Y02452*
X04115Y02453*
X04115Y02454*
X04115Y02455*
X04114Y02456*
X04114Y02456*
X04113Y02457*
X04113Y02457*
X04126*
X04126Y02457*
G37*
G36*
X04082Y02442D02*
X04083Y02442D01*
X04084Y02441*
X04085Y02441*
X04085Y0244*
X04086Y0244*
X04087Y0244*
X04088Y02439*
X04089Y02439*
X04089Y02439*
X0408Y0243*
X0408Y0243*
X0408Y02431*
X04079Y02432*
X04079Y02433*
X04079Y02434*
X04078Y02434*
X04078Y02435*
X04077Y02436*
X04077Y02437*
X04076Y02437*
X04082Y02443*
X04082Y02442*
G37*
G36*
X04072Y02412D02*
X04073Y02412D01*
X04074Y02411*
X04075Y02411*
X04075Y0241*
X04076Y0241*
X04077Y0241*
X04078Y02409*
X04079Y02409*
X04079Y02409*
X0407Y024*
X0407Y024*
X0407Y02401*
X04069Y02402*
X04069Y02403*
X04069Y02404*
X04068Y02404*
X04068Y02405*
X04067Y02406*
X04067Y02407*
X04066Y02407*
X04072Y02413*
X04072Y02412*
G37*
G36*
X03582Y02363D02*
X03582Y02363D01*
X03581Y02364*
X03581Y02364*
X0358Y02365*
X03579Y02365*
X03578Y02365*
X03577Y02365*
X03576Y02365*
X03576Y02366*
X03575Y02366*
Y02373*
X03576Y02373*
X03576Y02374*
X03577Y02374*
X03578Y02374*
X03579Y02374*
X0358Y02375*
X03581Y02375*
X03581Y02375*
X03582Y02376*
X03582Y02376*
Y02363*
G37*
G36*
X03811Y02315D02*
X03811Y02315D01*
X0381Y02316*
X03809Y02316*
X03805Y02316*
X03787Y02316*
Y0234*
X03811Y02341*
Y02315*
G37*
G36*
X03761Y0234D02*
X03762Y0234D01*
X03763Y0234*
X03767Y0234*
X03785Y0234*
Y02316*
X03761Y02315*
Y02341*
X03761Y0234*
G37*
G36*
X03833Y02319D02*
X03832Y02318D01*
X03831Y02316*
X03831Y02315*
X03832*
X03832Y02315*
X03831Y02315*
X03831Y02315*
X0383Y02314*
X0383Y02312*
X03829Y0231*
X03829Y0231*
X0383Y02309*
X0383Y02308*
X0383Y02308*
X03831Y02307*
X03831Y02307*
X03829*
X03828Y02302*
X03828Y023*
X03821*
X03821Y02302*
X0382Y02307*
X03818*
X03818Y02307*
X03819Y02308*
X03819Y02308*
X0382Y02309*
X0382Y0231*
X0382Y0231*
X03819Y02312*
X03819Y02314*
X03818Y02315*
X03818Y02315*
X03817Y02315*
X03817Y02315*
X03818*
X03818Y02316*
X03817Y02318*
X03816Y02319*
X03815Y0232*
X03834*
X03833Y02319*
G37*
G36*
X03186Y02282D02*
X03186Y02282D01*
X03186Y02283*
X03186Y02284*
X03185Y02284*
X03184Y02285*
X03183Y02285*
X03182Y02285*
X03182Y02285*
X03182Y02285*
X03181Y02285*
X0318Y02285*
X03179Y02285*
X03178Y02284*
X03178Y02284*
X03177Y02283*
X03177Y02283*
Y02296*
X03177Y02296*
X03178Y02295*
X03178Y02295*
X03179Y02295*
X0318Y02294*
X03181Y02294*
X03182Y02294*
X03182Y02294*
X03182Y02294*
X03183Y02294*
X03184Y02294*
X03185Y02295*
X03186Y02295*
X03186Y02296*
X03186Y02297*
X03186Y02297*
Y02282*
G37*
G36*
X03734Y022D02*
X03734Y02198D01*
X03734Y02197*
X03734Y02196*
X03735Y02195*
X03735Y02194*
X03736Y02194*
X03736Y02193*
X03737Y02193*
X03738Y02193*
X03722*
X03723Y02193*
X03723Y02193*
X03724Y02194*
X03725Y02194*
X03725Y02195*
X03725Y02196*
X03726Y02197*
X03726Y02198*
X03726Y022*
X03726Y02201*
X03734*
X03734Y022*
G37*
G36*
X03749Y02162D02*
X03749Y02161D01*
X03749Y0216*
X0375Y0216*
X0375Y02159*
X0375Y02159*
X03751Y0216*
X03751Y0216*
X03752Y0216*
Y02159*
X03752Y02159*
X03754Y02159*
X03755Y02158*
X03756Y02158*
Y02151*
X03755Y02151*
X03754Y0215*
X03752Y0215*
X03752Y0215*
Y02149*
X03751Y02149*
X03751Y02149*
X0375Y0215*
X0375Y0215*
X0375Y02149*
X03749Y02149*
X03749Y02148*
X03749Y02147*
X03748Y02147*
Y0215*
X03748Y0215*
X03747Y0215*
X03745Y02151*
Y02158*
X03746Y02158*
X03748Y02159*
X03748Y02159*
Y02162*
X03749Y02162*
G37*
G36*
X03626Y03324D02*
X03625Y03326D01*
X03622Y03326*
X0362Y03326*
X03617Y03326*
X03614Y03324*
X0361Y03322*
X03606Y0332*
X03602Y03316*
X03593Y03308*
X03576Y03324*
X03581Y03329*
X03588Y03338*
X03591Y03342*
X03593Y03345*
X03594Y03348*
X03595Y03351*
X03595Y03354*
X03594Y03356*
X03593Y03358*
X03626Y03324*
G37*
G36*
X02639Y0362D02*
X02634Y03615D01*
X02627Y03606*
X02624Y03602*
X02622Y03599*
X02621Y03596*
X0262Y03593*
X0262Y0359*
X02621Y03588*
X02622Y03586*
X02589Y0362*
X0259Y03618*
X02593Y03618*
X02595Y03618*
X02598Y03618*
X02601Y0362*
X02605Y03622*
X02608Y03625*
X02613Y03628*
X02622Y03637*
X02639Y0362*
G37*
G36*
X026Y03565D02*
X02599Y03566D01*
X02596Y03567*
X02594*
X02591Y03566*
X02588Y03565*
X02584Y03563*
X02581Y0356*
X02576Y03557*
X02567Y03548*
X0255Y03565*
X02555Y0357*
X02562Y03579*
X02565Y03582*
X02567Y03586*
X02568Y03589*
X02569Y03592*
Y03594*
X02568Y03597*
X02567Y03598*
X026Y03565*
G37*
G36*
X028Y02834D02*
X02798Y02835D01*
X02797Y02836*
X02795Y02837*
X02793Y02838*
X02791Y02839*
X02788Y0284*
X02786Y0284*
X02784Y02841*
X02781Y02841*
X02778Y02841*
Y02865*
X02781Y02865*
X02784Y02865*
X02786Y02865*
X02788Y02866*
X02791Y02867*
X02793Y02867*
X02795Y02868*
X02797Y0287*
X02798Y02871*
X028Y02872*
Y02834*
G37*
G36*
X0255Y02878D02*
X02553Y02875D01*
X02557Y02873*
X02561Y02871*
X02565Y02869*
X02569Y02867*
X02573Y02866*
X02577Y02865*
X02582Y02865*
X02586Y02865*
Y02841*
X02582Y02841*
X02577Y0284*
X02573Y0284*
X02569Y02838*
X02565Y02837*
X02561Y02835*
X02557Y02833*
X02553Y0283*
X0255Y02828*
X02546Y02824*
X02525Y02836*
X02528Y0284*
X0253Y02843*
X02532Y02846*
X02533Y0285*
X02533Y02853*
X02533Y02856*
X02532Y0286*
X0253Y02863*
X02528Y02866*
X02525Y0287*
X02546Y02881*
X0255Y02878*
G37*
G36*
X02572Y02331D02*
X02581Y02323D01*
X02584Y0232*
X02588Y02318*
X02591Y02317*
X02594Y02316*
X02596Y02316*
X02599Y02317*
X026Y02318*
X02567Y02285*
X02569Y02287*
X02569Y02289*
X02569Y02292*
X02568Y02294*
X02567Y02298*
X02565Y02301*
X02562Y02305*
X02559Y02309*
X0255Y02319*
X02567Y02335*
X02572Y02331*
G37*
G36*
X02621Y02295D02*
X0262Y02293D01*
Y02291*
X02621Y02288*
X02622Y02285*
X02624Y02281*
X02627Y02277*
X0263Y02273*
X02639Y02264*
X02622Y02247*
X02617Y02252*
X02608Y02259*
X02605Y02262*
X02601Y02264*
X02598Y02265*
X02595Y02266*
X02593*
X0259Y02265*
X02589Y02264*
X02622Y02297*
X02621Y02295*
G37*
G36*
X02577Y01622D02*
X02578Y0162D01*
X02579Y01619*
X02581Y01617*
X02583Y01616*
X02585Y01615*
X02588Y01614*
X02592Y01613*
X02596Y01613*
X02601Y01613*
Y01589*
X02596Y01589*
X02592Y01589*
X02588Y01588*
X02585Y01587*
X02583Y01586*
X02581Y01585*
X02579Y01583*
X02578Y01582*
X02577Y0158*
X02577Y01577*
Y01625*
X02577Y01622*
G37*
G36*
X04157Y03023D02*
X04157Y03023D01*
X04156Y03024*
X04156Y03024*
X04155Y03025*
X04154Y03025*
X04153Y03025*
X04152Y03025*
X04151Y03025*
X04151Y03026*
X0415Y03026*
Y03033*
X04151Y03033*
X04151Y03034*
X04152Y03034*
X04153Y03034*
X04154Y03034*
X04155Y03035*
X04156Y03035*
X04156Y03035*
X04157Y03036*
X04157Y03036*
Y03023*
G37*
G36*
X04185Y02926D02*
X04185Y02926D01*
X04185Y02927*
X04184Y02927*
X04184Y02928*
X04183Y02928*
X04182Y02929*
X04182Y02929*
X04181Y02929*
X0418Y02929*
X04179Y02929*
X04182Y02937*
X04183Y02937*
X04186Y02937*
X04187Y02937*
X04188Y02938*
X04189Y02938*
X0419Y02938*
X04185Y02926*
G37*
G36*
X04256Y02972D02*
X04255Y02971D01*
X04255Y02971*
X04255Y0297*
X04254Y02969*
X04254Y02968*
X04254Y02967*
X04254Y02966*
X04253Y02966*
X04253Y02965*
X04246*
X04246Y02966*
X04245Y02966*
X04245Y02967*
X04245Y02968*
X04245Y02969*
X04245Y0297*
X04244Y02971*
X04244Y02971*
X04243Y02972*
X04243Y02972*
X04256*
X04256Y02972*
G37*
G36*
X04237Y02754D02*
X04237Y02754D01*
X04238Y02753*
X04238Y02753*
X04239Y02751*
X04243Y02747*
X04237Y02742*
X04236Y02743*
X04231Y02747*
X04231Y02748*
X0423Y02748*
X04237Y02754*
X04237Y02754*
G37*
G36*
X04357Y02752D02*
X04358Y02752D01*
X04359Y02751*
X0436Y02751*
X0436Y0275*
X04361Y0275*
X04362Y0275*
X04363Y02749*
X04364Y02749*
X04364Y02749*
X04357Y02742*
Y02733*
X04357Y02733*
X04356Y02734*
X04356Y02734*
X04355Y02735*
X04354Y02735*
X04353Y02735*
X04352Y02735*
X04351Y02735*
X04351Y02736*
X0435Y02736*
Y02743*
X04351Y02743*
X04351Y02744*
X04352Y02744*
X04353Y02744*
X04354Y02744*
X04353Y02744*
X04353Y02745*
X04352Y02746*
X04352Y02747*
X04351Y02747*
X04357Y02753*
X04357Y02752*
G37*
G36*
X04242Y02741D02*
X04241Y0274D01*
X0424Y0274*
X04239Y02739*
X04238Y02738*
X04238Y02737*
X04238Y02735*
X04237Y02733*
X04237Y02731*
X04237Y02729*
X04225*
X04225Y02731*
X04225Y02733*
X04225Y02735*
X04224Y02737*
X04224Y02738*
X04223Y02739*
X04222Y0274*
X04221Y0274*
X0422Y02741*
X04219Y02741*
X04243*
X04242Y02741*
G37*
G36*
X04237Y02698D02*
X04237Y02696D01*
X04238Y02694*
X04238Y02692*
X04238Y02691*
X04239Y0269*
X0424Y02689*
X04241Y02689*
X04242Y02688*
X04243Y02688*
X04219*
X0422Y02688*
X04221Y02689*
X04222Y02689*
X04223Y0269*
X04224Y02691*
X04224Y02692*
X04225Y02694*
X04225Y02696*
X04225Y02698*
X04225Y027*
X04237*
X04237Y02698*
G37*
G36*
X04035Y02674D02*
X04036Y02674D01*
X04037Y02674*
X04038Y02674*
X04038Y02673*
X04039Y02673*
Y02666*
X04038Y02666*
X04038Y02665*
X04037Y02665*
X04036Y02665*
X04035Y02665*
Y02662*
X04035Y02662*
X04035Y02663*
X04035Y02664*
X04034Y02664*
X04034Y02664*
X04033Y02664*
X04033Y02664*
X04032Y02663*
X04032Y02663*
Y02665*
X04031Y02665*
X0403Y02665*
X04029Y02666*
X04027Y02666*
Y02673*
X04029Y02673*
X0403Y02674*
X04031Y02674*
X04032Y02674*
Y02676*
X04032Y02676*
X04033Y02675*
X04033Y02675*
X04034Y02675*
X04034Y02675*
X04035Y02675*
X04035Y02676*
X04035Y02677*
X04035Y02677*
Y02674*
G37*
G36*
X04237Y02581D02*
X04236Y02581D01*
X04235Y0258*
X04235Y0258*
X04234Y02579*
X04234Y02578*
X04234Y02577*
X04234Y02576*
X04233Y02574*
X04233Y02574*
X04233Y02573*
X04234Y02573*
X04234Y02572*
X04234Y02571*
X04234Y0257*
X04235Y02569*
X04235Y02568*
X04235Y02568*
X04236Y02567*
X04236Y02567*
X04223*
X04223Y02567*
X04224Y02568*
X04224Y02568*
X04225Y02569*
X04225Y0257*
X04225Y02571*
X04225Y02572*
X04225Y02573*
X04226Y02573*
X04226Y02574*
X04226Y02574*
X04225Y02576*
X04225Y02577*
X04225Y02578*
X04225Y02579*
X04224Y0258*
X04224Y0258*
X04223Y02581*
X04222Y02581*
X04222Y02581*
X04237*
X04237Y02581*
G37*
G36*
X02622Y02682D02*
X02622Y0268D01*
X02623Y02678*
X02624Y02676*
X02625Y02674*
X02626Y02672*
X02627Y0267*
X02628Y02668*
X0263Y02666*
X02632Y02664*
X02615Y02647*
X02613Y02649*
X02611Y02651*
X02609Y02652*
X02607Y02654*
X02605Y02655*
X02603Y02656*
X02601Y02656*
X02599Y02657*
X02597Y02657*
X02595Y02657*
X02622Y02685*
X02622Y02682*
G37*
G36*
X03157Y02486D02*
X03158Y02485D01*
X03158Y02485*
X03159Y02485*
X0316Y02484*
X03161Y02484*
X03162Y02484*
X03163Y02484*
X03163Y02483*
X03164Y02483*
Y02476*
X03163Y02476*
X03163Y02475*
X03162Y02475*
X03161Y02475*
X0316Y02475*
X03159Y02475*
X03158Y02474*
X03158Y02474*
X03157Y02473*
X03157Y02473*
Y02486*
X03157Y02486*
G37*
G36*
X03186Y02472D02*
X03186Y02472D01*
X03186Y02473*
X03186Y02474*
X03185Y02474*
X03184Y02475*
X03183Y02475*
X03182Y02475*
X03181Y02475*
X0318Y02476*
X03178Y02476*
Y02483*
X0318Y02483*
X03181Y02484*
X03182Y02484*
X03183Y02484*
X03184Y02484*
X03185Y02485*
X03186Y02485*
X03186Y02486*
X03186Y02487*
X03186Y02487*
Y02472*
G37*
G36*
X02986Y02494D02*
X02987Y02494D01*
X02988Y02493*
X02989Y02493*
X02991Y02492*
X02994Y02492*
X03001Y02491*
X03009Y02491*
Y02468*
X03005Y02468*
X02991Y02467*
X02989Y02466*
X02988Y02466*
X02987Y02465*
X02986Y02465*
X02986Y02464*
Y02495*
X02986Y02494*
G37*
G36*
X02982Y02399D02*
X02983Y02399D01*
X02984Y02398*
X02986Y02398*
X02988Y02397*
X02991Y02397*
X02997Y02396*
X03006Y02396*
Y02373*
X03001Y02373*
X02988Y02372*
X02986Y02371*
X02984Y02371*
X02983Y0237*
X02982Y0237*
X02982Y02369*
Y024*
X02982Y02399*
G37*
G36*
X03186Y02377D02*
X03186Y02377D01*
X03186Y02378*
X03186Y02379*
X03185Y02379*
X03184Y0238*
X03183Y0238*
X03182Y0238*
X03182Y0238*
X03182Y0238*
X03181Y0238*
X0318Y0238*
X03179Y0238*
X03178Y02379*
X03178Y02379*
X03177Y02378*
X03177Y02378*
Y02391*
X03177Y02391*
X03178Y0239*
X03178Y0239*
X03179Y0239*
X0318Y02389*
X03181Y02389*
X03182Y02389*
X03182Y02389*
X03182Y02389*
X03183Y02389*
X03184Y02389*
X03185Y0239*
X03186Y0239*
X03186Y02391*
X03186Y02392*
X03186Y02392*
Y02377*
G37*
G36*
X02986Y02304D02*
X02987Y02304D01*
X02988Y02303*
X02989Y02303*
X02991Y02302*
X02994Y02302*
X03001Y02301*
X03009Y02301*
Y02278*
X03005Y02278*
X02991Y02277*
X02989Y02276*
X02988Y02276*
X02987Y02275*
X02986Y02275*
X02986Y02274*
Y02305*
X02986Y02304*
G37*
G36*
X03491Y02282D02*
X0349Y02281D01*
X0349Y02281*
X0349Y0228*
X03489Y02279*
X03489Y02278*
X03489Y02277*
X03489Y02276*
X03488Y02276*
X03488Y02275*
X03481*
X03481Y02276*
X0348Y02276*
X0348Y02277*
X0348Y02278*
X0348Y02279*
X0348Y0228*
X03479Y02281*
X03479Y02281*
X03478Y02282*
X03478Y02282*
X03491*
X03491Y02282*
G37*
G36*
X03409Y02237D02*
X03409Y02236D01*
X03409Y02235*
X0341Y02235*
X03411Y02234*
X03412Y02234*
X03413Y02234*
X03414Y02234*
X03415Y02233*
X03417Y02233*
Y02226*
X03415Y02226*
X03414Y02225*
X03413Y02225*
X03412Y02225*
X03411Y02225*
X0341Y02224*
X03409Y02224*
X03409Y02223*
X03409Y02222*
X03409Y02222*
Y02237*
X03409Y02237*
G37*
G36*
X02918Y02464D02*
X02917Y02463D01*
X02916Y02462*
X02915Y0246*
X02914Y02458*
X02914Y02455*
X02913Y02452*
X02913Y02445*
X02913Y0244*
X02889*
X02889Y02445*
X02888Y02455*
X02888Y02458*
X02887Y0246*
X02886Y02462*
X02886Y02463*
X02885Y02464*
X02883Y02464*
X02919*
X02918Y02464*
G37*
G36*
X02913Y02419D02*
X02914Y02402D01*
X02914Y02401*
X02915Y024*
X02915Y024*
X0288*
X02882Y024*
X02883Y02401*
X02885Y02402*
X02886Y02404*
X02887Y02406*
X02888Y02409*
X02888Y02412*
X02889Y02415*
X02889Y02419*
X02889Y02424*
X02913*
X02913Y02419*
G37*
G36*
X02915Y02369D02*
X02914Y02368D01*
X02914Y02367*
X02914Y02365*
X02913Y02363*
X02913Y02357*
X02913Y02345*
X02889*
X02889Y0235*
X02888Y02357*
X02888Y0236*
X02887Y02363*
X02886Y02365*
X02885Y02367*
X02883Y02368*
X02882Y02369*
X0288Y02369*
X02915*
X02915Y02369*
G37*
G36*
X02913Y02324D02*
X02914Y02314D01*
X02914Y02311*
X02915Y02309*
X02916Y02307*
X02917Y02306*
X02918Y02305*
X02919Y02305*
X02883*
X02885Y02305*
X02886Y02306*
X02886Y02307*
X02887Y02309*
X02888Y02311*
X02888Y02314*
X02889Y02317*
X02889Y02324*
X02889Y02329*
X02913*
X02913Y02324*
G37*
G36*
X02918Y02274D02*
X02917Y02273D01*
X02916Y02272*
X02915Y0227*
X02914Y02268*
X02914Y02265*
X02913Y02262*
X02913Y02255*
X02913Y0225*
X02889*
X02889Y02255*
X02888Y02265*
X02888Y02268*
X02887Y0227*
X02886Y02272*
X02886Y02273*
X02885Y02274*
X02883Y02274*
X02919*
X02918Y02274*
G37*
G36*
X03519Y02195D02*
X03519Y02195D01*
X03518Y02195*
X03517Y02194*
X03516Y02194*
X03515Y02194*
X03515Y02193*
X03514Y02193*
X03513Y02192*
X03512Y02192*
X03512Y02191*
X03506Y02197*
X03507Y02197*
X03507Y02198*
X03508Y02199*
X03508Y022*
X03509Y022*
X03509Y02201*
X03509Y02202*
X0351Y02203*
X0351Y02204*
X0351Y02204*
X03519Y02195*
G37*
G36*
X03409Y02162D02*
X03409Y02161D01*
X03409Y0216*
X0341Y0216*
X03411Y02159*
X03412Y02159*
X03413Y02159*
X03414Y02159*
X03415Y02158*
X03417Y02158*
Y02151*
X03415Y02151*
X03414Y0215*
X03413Y0215*
X03412Y0215*
X03411Y0215*
X0341Y02149*
X03409Y02149*
X03409Y02148*
X03409Y02147*
X03409Y02147*
Y02162*
X03409Y02162*
G37*
G36*
X02941Y02032D02*
X02941Y02032D01*
X0294Y02031*
X0294Y02031*
X0294Y0203*
X0294Y0203*
X0294Y02029*
X0294Y02027*
X0294Y02025*
X02928Y02026*
X02928Y02027*
X02928Y02032*
X02927Y02032*
X02927Y02033*
X02927Y02033*
X02927Y02033*
X02941Y02032*
G37*
G36*
X0294Y01948D02*
X0294Y01946D01*
X0294Y01944*
X02941Y01942*
X02941Y01941*
X02942Y0194*
X02943Y01939*
X02943Y01939*
X02944Y01938*
X02946Y01938*
X02922*
X02923Y01938*
X02924Y01939*
X02925Y01939*
X02926Y0194*
X02926Y01941*
X02927Y01942*
X02927Y01944*
X02928Y01946*
X02928Y01948*
X02928Y0195*
X0294*
X0294Y01948*
G37*
G54D13*
X03248Y0257D02*
X03294D01*
X02595Y02685D02*
X02735Y02544D01*
X02959*
X02985Y0257*
X02901Y0229D02*
Y0248D01*
X029Y0223D02*
X02901Y02231D01*
Y0229*
X0355Y02856D02*
Y0289D01*
Y02856D02*
X0363D01*
X03906Y03246D02*
X03947D01*
X03956Y03255*
X03885Y03225D02*
X03906Y03246D01*
X03925Y0307D02*
X0397Y03115D01*
X0409*
X02595Y03592D02*
X02666Y03664D01*
X0301*
X0351Y03165*
X0367*
X03705Y032*
Y03375*
X03519Y03235D02*
Y03259D01*
X03575Y03235D02*
Y03272D01*
X03519Y03235D02*
X0352Y03235D01*
X03518Y0326D02*
X03519Y03259D01*
X03572Y03275D02*
Y03303D01*
Y03275D02*
X03575Y03272D01*
X03572Y03303D02*
X03614Y03346D01*
Y03365*
X03516Y03261D02*
X03517D01*
X03518Y0326*
X03485Y03293D02*
Y03365D01*
Y03293D02*
X03516Y03261D01*
X03518Y0326D02*
Y0326D01*
X03343Y02191D02*
Y0223D01*
Y02153D02*
Y02191D01*
X0441Y01795D02*
X04435D01*
X04595Y02242D02*
X04605Y02232D01*
X04595Y02242D02*
Y02245D01*
X03303Y02231D02*
X03342D01*
X03343Y0223*
Y0223D02*
Y0223D01*
X03248Y02287D02*
Y0229D01*
Y02287D02*
X03303Y02231D01*
X03248Y0248D02*
Y0257D01*
Y02385D02*
Y0248D01*
X02445Y02966D02*
X02558Y02853D01*
X02445Y02966D02*
Y03442D01*
X02595Y03592*
X02558Y02853D02*
X0282D01*
X02485Y02401D02*
Y0278D01*
X02558Y02853*
X02485Y02401D02*
X02595Y02291D01*
X0267Y0165D02*
Y02216D01*
X02595Y02291D02*
X0267Y02216D01*
X02621Y01601D02*
X0267Y0165D01*
X0255Y01601D02*
X02621D01*
X05462Y0372D02*
X05472Y0371D01*
X02968Y0248D02*
X03015D01*
X02965Y02385D02*
X0302D01*
X02968Y0229D02*
X0302D01*
X04765Y04365D02*
Y04396D01*
X04793Y04425*
X04765Y04335D02*
Y0436D01*
Y04305D02*
Y04335D01*
Y04275D02*
Y04305D01*
X0461Y0428D02*
X04765D01*
X05148Y02975D02*
X05158Y02965D01*
X05153Y0296D02*
X05158Y02965D01*
X03748Y02328D02*
X03825D01*
G54D15*
X0309Y0352D02*
X0369Y0292D01*
Y02635D02*
Y0292D01*
X03083Y03501D02*
X0367Y02915D01*
Y0263D02*
Y02915D01*
X02761Y03501D02*
X03083D01*
X0274Y0352D02*
X0309D01*
X0348Y03072D02*
X03623Y0293D01*
X03625*
X0348Y03072D02*
D01*
X03087Y03465D02*
X0348Y03072D01*
X0286Y03465D02*
X03087D01*
X03839Y02835D02*
X0384Y02837D01*
X03839Y02759D02*
Y02835D01*
X03831Y02752D02*
X03839Y02759D01*
X0386Y02773D02*
X03865Y02779D01*
X03866*
X0386Y0275D02*
Y02773D01*
X03876Y0279D02*
X0388D01*
X03866Y02779D02*
X03876Y0279D01*
X038Y02752D02*
X03831D01*
X0392Y0273D02*
Y02813D01*
X0391Y02823D02*
X0392Y02813D01*
X0391Y02823D02*
Y02903D01*
X04193Y02892D02*
X04194D01*
X04196Y02895D02*
X042D01*
X04194Y02892D02*
X04196Y02895D01*
X04175Y02876D02*
X04176D01*
X04193Y02892*
X0401Y0308D02*
X0425D01*
X0373Y028D02*
X0401Y0308D01*
X04703Y02715D02*
X04705Y02716D01*
X04685Y02715D02*
X04703D01*
X0351Y02725D02*
X03675Y0256D01*
X03855*
X0368Y0253D02*
X0383D01*
X0349Y0272D02*
X0368Y0253D01*
X0349Y0272D02*
Y03005D01*
X03201Y02292D02*
X03363Y02455D01*
X03435*
X04708Y0266D02*
X04806D01*
X03385Y0262D02*
Y0306D01*
X03176Y03268D02*
X03385Y0306D01*
Y0262D02*
X0373Y02274D01*
X0356Y0237D02*
X0359D01*
X03305Y02625D02*
X0356Y0237D01*
X03225Y02625D02*
X03305D01*
X0328Y02695D02*
X0344Y02535D01*
X03201Y02601D02*
X03225Y02625D01*
X03175Y0257D02*
X03195D01*
X03201D02*
Y02601D01*
X03583Y02165D02*
X03588Y0217D01*
X03649*
X0358Y02165D02*
X03583D01*
X0373Y02665D02*
Y028D01*
X0391Y02903D02*
X04036Y0303D01*
X0425Y02855D02*
Y0298D01*
Y02855D02*
X04365Y0274D01*
X04175Y02933D02*
X04191D01*
X04195Y0293*
X0419Y0188D02*
X04192Y01877D01*
X04356*
X042Y0204D02*
X04359D01*
X04195Y0196D02*
X04359D01*
X04356Y01877D02*
X04359Y01875D01*
X04706Y03037D02*
X04747Y03078D01*
X04685Y03035D02*
X04687Y03037D01*
X04706*
X04747Y03078D02*
X04751D01*
X04759Y03086D02*
Y0309D01*
X04751Y03078D02*
X04759Y03086D01*
X0416Y024D02*
Y0248D01*
X04105Y02345D02*
X0416Y024D01*
X04093Y02368D02*
X0412Y02395D01*
Y02465*
X04056Y02368D02*
X04093D01*
X03912Y02607D02*
X0409Y0243D01*
X03895Y02584D02*
X0408Y024D01*
X03715Y02584D02*
X03895D01*
X0404Y02345D02*
X04105D01*
X0393Y02455D02*
X0404Y02345D01*
X0395Y02475D02*
X04056Y02368D01*
X03675Y02455D02*
X0393D01*
X037Y02475D02*
X0395D01*
X0349Y02685D02*
X037Y02475D01*
X03855Y02505D02*
X0388D01*
X0383Y0253D02*
X03855Y02505D01*
X0348Y0265D02*
X03675Y02455D01*
X03425Y02625D02*
X0346Y0266D01*
Y0301*
X03102Y03367D02*
X0346Y0301D01*
X0351Y02725D02*
Y0301D01*
X0309Y03405D02*
X0349Y03005D01*
X0367Y0263D02*
X03715Y02584D01*
X03717Y02607D02*
X03912D01*
X0371Y02655D02*
Y0283D01*
X0373Y02665D02*
X0377Y02625D01*
X0371Y02655D02*
X03735Y0263D01*
X03095Y03425D02*
X0351Y0301D01*
X0355Y0278D02*
X0357Y0276D01*
X03615Y02763D02*
X0362Y02768D01*
X03615Y0276D02*
Y02763D01*
X0362Y02768D02*
Y02794D01*
X0373Y0217D02*
Y02274D01*
Y02169D02*
Y0217D01*
X0369Y02635D02*
X03717Y02607D01*
X0371Y0283D02*
X0375Y0287D01*
X02679Y03459D02*
X0274Y0352D01*
X02574Y03459D02*
X02679D01*
X02588Y0344D02*
X027D01*
X02559Y0341D02*
X02588Y0344D01*
X027D02*
X02761Y03501D01*
X02623Y03425D02*
X03095D01*
X02595Y03396D02*
X02623Y03425D01*
X02559Y03234D02*
X02595Y03199D01*
X02559Y03234D02*
Y0341D01*
X02702Y03405D02*
X0309D01*
X02515Y03229D02*
X02595Y03149D01*
X02515Y03229D02*
Y034D01*
X02574Y03459*
X02595Y031D02*
Y03149D01*
Y03297D02*
X02702Y03405D01*
X0286Y03367D02*
X03102D01*
X0286Y03268D02*
X03176D01*
X0373Y02169D02*
X03745Y02155D01*
X0376*
X03629Y02803D02*
X0363D01*
X0362Y02794D02*
X03629Y02803D01*
X0355Y0278D02*
Y02803D01*
X04806Y0266D02*
X04811Y02665D01*
X04806Y0266D02*
X04811Y02665D01*
X04795Y0266D02*
X04806D01*
X04705Y02663D02*
X04708Y0266D01*
X04705Y02606D02*
X04706Y02605D01*
X04725*
X04705Y02716D02*
X04796D01*
X04705Y0253D02*
Y02553D01*
X0317Y0229D02*
X03201D01*
X04025Y0267D02*
X04048D01*
X0347Y02155D02*
X0352Y02205D01*
X03398Y02155D02*
X0347D01*
X03396Y02153D02*
X03398Y02155D01*
X04796Y02716D02*
X04809Y0273D01*
X04811*
X03485Y0227D02*
Y0229D01*
X03445Y0223D02*
X03485Y0227D01*
X03396Y0223D02*
X03445D01*
X0315Y0248D02*
X03191D01*
X0317Y02385D02*
X03201D01*
Y0229D02*
Y02292D01*
X0419Y01795D02*
X04359D01*
X03825Y023D02*
Y02328D01*
X04046Y0259D02*
X0405Y02593D01*
X0404Y0259D02*
X04046D01*
X04055Y03255D02*
X04185D01*
X04023D02*
X04055D01*
X04139Y03195D02*
X0419D01*
X04185Y03255D02*
X04225Y03215D01*
Y0313D02*
Y03215D01*
X04036Y0303D02*
X04165D01*
X04139Y03115D02*
X04185D01*
X04226Y02595D02*
X0423Y02591D01*
Y0256D02*
Y02591D01*
X04231Y02754D02*
X0424Y02745D01*
X04241*
X04246Y0274*
X04365*
G54D32*
X02986Y01925D03*
X02933D03*
X04231Y02755D03*
X04178D03*
X04231Y02675D03*
X04178D03*
X04226Y02595D03*
X04173D03*
X03571Y0326D03*
X03518D03*
X0405Y02593D03*
X04103D03*
X03396Y0223D03*
X03343D03*
X04048Y0267D03*
X04101D03*
X03396Y02153D03*
X03343D03*
G54D33*
X03614Y03365D03*
X03485D03*
X04682Y03257D03*
X04812D03*
X0463Y02275D03*
X04759D03*
X0463Y02407D03*
X04759D03*
X04685Y0339D03*
X04814D03*
G54D34*
X02968Y0229D03*
X02901D03*
X02968Y0248D03*
X02901D03*
X02965Y02385D03*
X02898D03*
X04878Y0273D03*
X04811D03*
X04878Y02665D03*
X04811D03*
G54D39*
X0373Y0217D03*
X03649D03*
G54D40*
X04175Y02876D03*
Y02933D03*
G54D42*
X04705Y02716D03*
Y02663D03*
X0363Y02803D03*
Y02856D03*
X03748Y02328D03*
Y02381D03*
X03825Y02328D03*
Y02381D03*
X0355Y02803D03*
Y02856D03*
X04705Y02553D03*
Y02606D03*
G54D48*
X03248Y0229D03*
X03201D03*
Y0257D03*
X03248D03*
X03201Y0248D03*
X03248D03*
X03201Y02385D03*
X03248D03*
G54D54*
X04139Y03115D03*
X0409D03*
G54D91*
X02595Y02291D03*
Y03592D03*
X0286Y03564D03*
X0282Y02755D03*
X0255Y01601D03*
G54D92*
X02595Y0239D03*
Y02488D03*
Y02586D03*
Y02685D03*
Y02783D03*
Y03494D03*
Y03396D03*
Y03297D03*
Y03199D03*
Y031D03*
Y03002D03*
X0286Y03465D03*
Y03367D03*
Y03268D03*
Y0317D03*
X0282Y02853D03*
Y02951D03*
X0255Y01896D03*
Y01798D03*
Y017D03*
G54D93*
X02781Y03627D03*
G54D98*
X04615Y02035D02*
X0474Y0191D01*
X048*
X0441Y01875D02*
X04445D01*
X0441Y0204D02*
X0444D01*
X0441Y0196D02*
X0444D01*
X04914Y02715D02*
X04923Y02725D01*
X04924*
X04929Y02679D02*
X0495Y027D01*
X0488Y0273D02*
X04895Y02715D01*
X04914*
X04878Y02665D02*
X0488D01*
X04878Y0273D02*
X0488D01*
Y02665D02*
X04895Y02679D01*
X04929*
X05667Y04077D02*
X05697D01*
X05709Y04037D02*
X05747Y04D01*
X05832Y04077D02*
X05862D01*
X05781Y04026D02*
X05832Y04077D01*
X05773Y04026D02*
X05781D01*
X05772Y04025D02*
X05773Y04026D01*
X05697Y04077D02*
X05709Y04065D01*
Y04037D02*
Y04065D01*
X05652Y02149D02*
X05685Y02182D01*
Y02184D02*
X05694Y02192D01*
X05622Y02149D02*
X05652D01*
X05685Y02182D02*
Y02184D01*
X05614Y02142D02*
X05622Y02149D01*
X05694Y02192D02*
Y02435D01*
X05779Y02142D02*
X0581D01*
X0573Y02222D02*
X0573Y02222D01*
X05767Y02153D02*
Y02158D01*
X0573Y02196D02*
X05767Y02158D01*
X0573Y02196D02*
Y02222D01*
X05767Y02153D02*
X05779Y02142D01*
X0573Y02222D02*
Y02435D01*
X02985Y0204D02*
X02985Y02039D01*
Y01925D02*
X02986Y01925D01*
X02985Y01925D02*
Y02039D01*
X02934Y01925D02*
Y02039D01*
X02935Y0204*
X02933Y01925D02*
X02934Y01925D01*
X04231Y02754D02*
Y02755D01*
Y02675D02*
Y02754D01*
G54D99*
X06795Y0233D03*
X06785Y04425D03*
X04765Y01585D03*
X0306Y0443D03*
G54D100*
X03985Y0438D03*
X04615Y04385D03*
G54D101*
X06795Y0385D03*
X06787Y0294D03*
X06795Y01895D03*
G54D102*
X0356Y03095D03*
X03625Y0293D03*
X0384Y02837D03*
X0388Y0279D03*
X038Y02752D03*
X0386Y0275D03*
X0392Y0273D03*
X042Y02895D03*
X0425Y0308D03*
X04685Y02835D03*
X04735Y02825D03*
X04665Y02755D03*
X04685Y02715D03*
X03355Y02395D03*
X03435Y02455D03*
X0328Y02695D03*
X0344Y02535D03*
X03294Y0257D03*
X0359Y0237D03*
X0358Y02165D03*
X03825Y02185D03*
X03435Y023D03*
X0284Y0257D03*
X029Y0223D03*
X0355Y0289D03*
X04455Y0173D03*
X0424Y03025D03*
X03885Y03225D03*
X04005Y03035D03*
X03925Y0307D03*
X0457Y01925D03*
X0434Y0163D03*
X03705Y03375D03*
X0352Y03235D03*
X03575D03*
X0313Y03005D03*
X0311Y0282D03*
X03343Y02191D03*
X0381Y0206D03*
X03615Y01805D03*
X03925Y0445D03*
X03955D03*
X03985D03*
X04015D03*
X04045D03*
Y0442D03*
X04015D03*
X03985D03*
X03955D03*
X03925D03*
Y0439D03*
X03955D03*
X03985D03*
X04015D03*
X04045D03*
Y0436D03*
X04015D03*
X03985D03*
X03955D03*
X03925D03*
Y0433D03*
X03955D03*
X03985D03*
X04015D03*
X04045D03*
Y043D03*
X04015D03*
X03985D03*
X03955D03*
X03925D03*
Y0427D03*
X03955D03*
X03985D03*
X04015D03*
X04045D03*
Y0424D03*
X04015D03*
X03985D03*
X03955D03*
X03925D03*
Y0421D03*
X03955D03*
X03985D03*
X04015D03*
X04045D03*
Y0448D03*
X04015D03*
X03985D03*
X03955D03*
X03925D03*
Y0451D03*
X03955D03*
X03985D03*
X04015D03*
X04045Y0454D03*
X04015D03*
X03985D03*
X03955D03*
X03925D03*
X04045Y0451D03*
X04075Y0454D03*
Y0451D03*
Y0448D03*
Y0445D03*
Y0442D03*
Y0439D03*
Y0436D03*
Y0433D03*
Y043D03*
Y0427D03*
Y0424D03*
Y0421D03*
X04105Y0454D03*
Y0451D03*
Y0448D03*
Y0445D03*
Y0442D03*
Y0439D03*
Y0436D03*
Y0433D03*
Y043D03*
Y0427D03*
Y0424D03*
Y0421D03*
X04135Y0451D03*
Y0448D03*
Y0445D03*
Y0442D03*
Y0439D03*
Y0436D03*
Y0433D03*
Y043D03*
Y0427D03*
Y0424D03*
X03895Y0421D03*
Y0424D03*
Y0427D03*
Y043D03*
Y0433D03*
Y0436D03*
Y0439D03*
Y0442D03*
Y0445D03*
Y0448D03*
Y0451D03*
Y0454D03*
X03865D03*
Y0451D03*
Y0448D03*
Y0445D03*
Y0442D03*
Y0439D03*
Y0436D03*
Y0433D03*
Y043D03*
Y0427D03*
Y0424D03*
Y0421D03*
X03835Y0424D03*
Y0427D03*
Y043D03*
Y0433D03*
Y0436D03*
Y0439D03*
Y0442D03*
Y0445D03*
Y0448D03*
Y0451D03*
X04465Y04515D03*
Y04485D03*
Y04455D03*
Y04425D03*
Y04395D03*
Y04365D03*
Y04335D03*
Y04305D03*
Y04275D03*
Y04245D03*
X04495Y04215D03*
Y04245D03*
Y04275D03*
Y04305D03*
Y04335D03*
Y04365D03*
Y04395D03*
Y04425D03*
Y04455D03*
Y04485D03*
Y04515D03*
Y04545D03*
X04525D03*
Y04515D03*
Y04485D03*
Y04455D03*
Y04425D03*
Y04395D03*
Y04365D03*
Y04335D03*
Y04305D03*
Y04275D03*
Y04245D03*
Y04215D03*
X04765Y04245D03*
Y04275D03*
Y04305D03*
Y04335D03*
Y04365D03*
Y04395D03*
Y04425D03*
Y04455D03*
Y04485D03*
Y04515D03*
X04735Y04215D03*
Y04245D03*
Y04275D03*
Y04305D03*
Y04335D03*
Y04365D03*
Y04395D03*
Y04425D03*
Y04455D03*
Y04485D03*
Y04515D03*
Y04545D03*
X04705Y04215D03*
Y04245D03*
Y04275D03*
Y04305D03*
Y04335D03*
Y04365D03*
Y04395D03*
Y04425D03*
Y04455D03*
Y04485D03*
Y04515D03*
Y04545D03*
X04675Y04515D03*
X04555Y04545D03*
X04585D03*
X04615D03*
X04645D03*
X04675D03*
X04645Y04515D03*
X04615D03*
X04585D03*
X04555D03*
Y04485D03*
X04585D03*
X04615D03*
X04645D03*
X04675D03*
Y04215D03*
X04645D03*
X04615D03*
X04585D03*
X04555D03*
Y04245D03*
X04585D03*
X04615D03*
X04645D03*
X04675D03*
Y04275D03*
X04645D03*
X04615D03*
X04585D03*
X04555D03*
Y04305D03*
X04585D03*
X04615D03*
X04645D03*
X04675D03*
Y04335D03*
X04645D03*
X04615D03*
X04585D03*
X04555D03*
Y04365D03*
X04585D03*
X04615D03*
X04645D03*
X04675D03*
Y04395D03*
X04645D03*
X04615D03*
X04585D03*
X04555D03*
Y04425D03*
X04585D03*
X04615D03*
X04645D03*
X04675D03*
Y04455D03*
X04645D03*
X04615D03*
X04585D03*
X04555D03*
X06725Y0379D03*
Y0382D03*
Y0385D03*
Y0388D03*
Y0391D03*
X06755D03*
Y0388D03*
Y0385D03*
Y0382D03*
Y0379D03*
X06785D03*
Y0382D03*
Y0385D03*
Y0388D03*
Y0391D03*
X06815D03*
Y0388D03*
Y0385D03*
Y0382D03*
Y0379D03*
X06845D03*
Y0382D03*
Y0385D03*
Y0388D03*
Y0391D03*
X06875D03*
Y0388D03*
Y0385D03*
Y0382D03*
Y0379D03*
X06905D03*
Y0382D03*
Y0385D03*
Y0388D03*
Y0391D03*
X06935D03*
Y0388D03*
Y0385D03*
Y0382D03*
Y0379D03*
X06965D03*
Y0382D03*
Y0385D03*
Y0388D03*
Y0391D03*
X06695D03*
Y0388D03*
Y0385D03*
Y0382D03*
Y0379D03*
X06665D03*
Y0382D03*
Y0385D03*
Y0388D03*
X06635Y0391D03*
Y0388D03*
Y0385D03*
Y0382D03*
Y0379D03*
X06665Y0391D03*
X06635Y0394D03*
X06665D03*
X06695D03*
X06725D03*
X06755D03*
X06785D03*
X06815D03*
X06845D03*
X06875D03*
X06905D03*
X06935D03*
X06965D03*
X06635Y0397D03*
X06665D03*
X06695D03*
X06725D03*
X06755D03*
X06785D03*
X06815D03*
X06845D03*
X06875D03*
X06905D03*
X06935D03*
X06965D03*
X06665Y04D03*
X06695D03*
X06725D03*
X06755D03*
X06785D03*
X06815D03*
X06845D03*
X06875D03*
X06905D03*
X06935D03*
X06965Y0376D03*
X06935D03*
X06905D03*
X06875D03*
X06845D03*
X06815D03*
X06785D03*
X06755D03*
X06725D03*
X06695D03*
X06665D03*
X06635D03*
Y0373D03*
X06665D03*
X06695D03*
X06725D03*
X06755D03*
X06785D03*
X06815D03*
X06845D03*
X06875D03*
X06905D03*
X06935D03*
X06965D03*
X06935Y037D03*
X06905D03*
X06875D03*
X06845D03*
X06815D03*
X06785D03*
X06755D03*
X06725D03*
X06695D03*
X06665D03*
X06657Y0279D03*
X06687D03*
X06717D03*
X06747D03*
X06777D03*
X06807D03*
X06837D03*
X06867D03*
X06897D03*
X06927D03*
X06957Y0282D03*
X06927D03*
X06897D03*
X06867D03*
X06837D03*
X06807D03*
X06777D03*
X06747D03*
X06717D03*
X06687D03*
X06657D03*
X06627D03*
Y0285D03*
X06657D03*
X06687D03*
X06717D03*
X06747D03*
X06777D03*
X06807D03*
X06837D03*
X06867D03*
X06897D03*
X06927D03*
X06957D03*
X06927Y0309D03*
X06897D03*
X06867D03*
X06837D03*
X06807D03*
X06777D03*
X06747D03*
X06717D03*
X06687D03*
X06657D03*
X06957Y0306D03*
X06927D03*
X06897D03*
X06867D03*
X06837D03*
X06807D03*
X06777D03*
X06747D03*
X06717D03*
X06687D03*
X06657D03*
X06627D03*
X06957Y0303D03*
X06927D03*
X06897D03*
X06867D03*
X06837D03*
X06807D03*
X06777D03*
X06747D03*
X06717D03*
X06687D03*
X06657D03*
X06627D03*
X06657Y03D03*
X06627Y0288D03*
Y0291D03*
Y0294D03*
Y0297D03*
Y03D03*
X06657Y0297D03*
Y0294D03*
Y0291D03*
Y0288D03*
X06687D03*
Y0291D03*
Y0294D03*
Y0297D03*
Y03D03*
X06957D03*
Y0297D03*
Y0294D03*
Y0291D03*
Y0288D03*
X06927D03*
Y0291D03*
Y0294D03*
Y0297D03*
Y03D03*
X06897D03*
Y0297D03*
Y0294D03*
Y0291D03*
Y0288D03*
X06867D03*
Y0291D03*
Y0294D03*
Y0297D03*
Y03D03*
X06837D03*
Y0297D03*
Y0294D03*
Y0291D03*
Y0288D03*
X06807D03*
Y0291D03*
Y0294D03*
Y0297D03*
Y03D03*
X06777D03*
Y0297D03*
Y0294D03*
Y0291D03*
Y0288D03*
X06747D03*
Y0291D03*
Y0294D03*
Y0297D03*
Y03D03*
X06717D03*
Y0297D03*
Y0294D03*
Y0291D03*
Y0288D03*
X06725Y01835D03*
Y01865D03*
Y01895D03*
Y01925D03*
Y01955D03*
X06755D03*
Y01925D03*
Y01895D03*
Y01865D03*
Y01835D03*
X06785D03*
Y01865D03*
Y01895D03*
Y01925D03*
Y01955D03*
X06815D03*
Y01925D03*
Y01895D03*
Y01865D03*
Y01835D03*
X06845D03*
Y01865D03*
Y01895D03*
Y01925D03*
Y01955D03*
X06875D03*
Y01925D03*
Y01895D03*
Y01865D03*
Y01835D03*
X06905D03*
Y01865D03*
Y01895D03*
Y01925D03*
Y01955D03*
X06935D03*
Y01925D03*
Y01895D03*
Y01865D03*
Y01835D03*
X06965D03*
Y01865D03*
Y01895D03*
Y01925D03*
Y01955D03*
X06695D03*
Y01925D03*
Y01895D03*
Y01865D03*
Y01835D03*
X06665D03*
Y01865D03*
Y01895D03*
Y01925D03*
X06635Y01955D03*
Y01925D03*
Y01895D03*
Y01865D03*
Y01835D03*
X06665Y01955D03*
X06635Y01985D03*
X06665D03*
X06695D03*
X06725D03*
X06755D03*
X06785D03*
X06815D03*
X06845D03*
X06875D03*
X06905D03*
X06935D03*
X06965D03*
X06635Y02015D03*
X06665D03*
X06695D03*
X06725D03*
X06755D03*
X06785D03*
X06815D03*
X06845D03*
X06875D03*
X06905D03*
X06935D03*
X06965D03*
X06665Y02045D03*
X06695D03*
X06725D03*
X06755D03*
X06785D03*
X06815D03*
X06845D03*
X06875D03*
X06905D03*
X06935D03*
X06965Y01805D03*
X06935D03*
X06905D03*
X06875D03*
X06845D03*
X06815D03*
X06785D03*
X06755D03*
X06725D03*
X06695D03*
X06665D03*
X06635D03*
Y01775D03*
X06665D03*
X06695D03*
X06725D03*
X06755D03*
X06785D03*
X06815D03*
X06845D03*
X06875D03*
X06905D03*
X06935D03*
X06965D03*
X06935Y01745D03*
X06905D03*
X06875D03*
X06845D03*
X06815D03*
X06785D03*
X06755D03*
X06725D03*
X06695D03*
X06665D03*
X04275Y0272D03*
X04075Y02315D03*
X04885Y0301D03*
X0472Y02955D03*
X0425Y0298D03*
X04195Y0293D03*
X04615Y02035D03*
X048Y0191D03*
X04435Y01795D03*
X04445Y01875D03*
X0419Y0188D03*
X042Y0204D03*
X04195Y0196D03*
X0444Y0204D03*
Y0196D03*
X0469Y03215D03*
X04665Y02935D03*
X04685Y03035D03*
X0416Y0248D03*
X0412Y02465D03*
X0409Y0243D03*
X0408Y024D03*
X0383Y0253D03*
X0348Y0265D03*
X0349Y02685D03*
X03855Y0256D03*
X03735Y0263D03*
X0377Y02625D03*
X0388Y02505D03*
X0357Y0276D03*
X03615D03*
X03425Y02625D03*
X0376Y02155D03*
X04925Y0279D03*
X0485Y02845D03*
X0492Y0283D03*
X04924Y02725D03*
X0495Y027D03*
X04882Y02782D03*
X04855Y0298D03*
X05772Y04025D03*
X05747Y04D03*
X04925Y0257D03*
Y02615D03*
X04795Y0266D03*
X04725Y02605D03*
X0573Y02435D03*
X05694D03*
X04555Y0274D03*
X06595Y0338D03*
X065Y0316D03*
X06495Y04055D03*
X05765Y03765D03*
Y03505D03*
Y02855D03*
X05775Y0261D03*
X0573Y0181D03*
X0575Y01545D03*
X0649Y02115D03*
X04705Y0253D03*
X02985Y0204D03*
X02935D03*
X0317Y0229D03*
X03015Y0248D03*
X0302Y02385D03*
Y0229D03*
X02985Y0257D03*
X04025Y0267D03*
X0352Y02205D03*
X03175Y0257D03*
X03485Y0229D03*
X0315Y0248D03*
X0317Y02385D03*
X0419Y01795D03*
X03825Y023D03*
X0404Y0259D03*
X04055Y03255D03*
X0419Y03195D03*
X04225Y0313D03*
X04185Y03115D03*
X0423Y0256D03*
X04365Y0274D03*
X0375Y0287D03*
X04165Y0303D03*
G54D103*
X04635Y02598D03*
X04576D03*
X05994Y03307D03*
X05964Y03248D03*
X05935Y03307D03*
X05905Y03248D03*
X05875Y03307D03*
X05846Y03248D03*
X05875Y03188D03*
X05816Y03307D03*
X05787Y03248D03*
X05816Y03188D03*
X05757Y03307D03*
X05728Y03248D03*
X05757Y03188D03*
X05698Y03307D03*
X04842Y0372D03*
X04872Y03425D03*
Y03307D03*
X04783Y03838D03*
X04753Y03897D03*
X04724Y03838D03*
X04753Y03779D03*
X04665Y03956D03*
X04694Y03897D03*
X04665Y03838D03*
X04606Y03956D03*
X04635Y03897D03*
X04606Y03838D03*
X04547Y03956D03*
X04576Y03897D03*
X04547Y03838D03*
X04576Y02125D03*
X05964Y03307D03*
X05994Y03248D03*
X05905Y03307D03*
X05935Y03248D03*
X05905Y03188D03*
X05846Y03307D03*
X05875Y03248D03*
X05846Y03188D03*
X05787Y03307D03*
X05816Y03248D03*
X05787Y03188D03*
X05728Y03307D03*
X05757Y03248D03*
X05698D03*
X04872Y0372D03*
Y03366D03*
X04812Y0372D03*
X04429Y02716D03*
Y02598D03*
Y02244D03*
X04399Y02657D03*
X0437Y0248D03*
X04399Y02421D03*
X0437Y02362D03*
Y02244D03*
X04311Y0248D03*
X0621Y0234D03*
X06176Y02362D03*
X04595Y026D03*
Y0254D03*
Y0248D03*
Y0242D03*
Y02365D03*
Y02305D03*
Y02245D03*
X057Y03185D03*
X06289Y04311D03*
X0623D03*
Y04192D03*
X06171Y04311D03*
X06112D03*
X06053D03*
X06023Y04251D03*
Y04133D03*
X05994Y04311D03*
X05964Y04251D03*
X05994Y04192D03*
X05964Y04133D03*
X05935Y04311D03*
Y04192D03*
X06225Y0221D03*
Y0225D03*
X0622Y02295D03*
X06117Y02362D03*
X06058D03*
X06028Y02303D03*
X05999Y02362D03*
X05969Y02303D03*
X05999Y02244D03*
X0594Y02362D03*
X0591Y02303D03*
X0594Y02244D03*
X0588Y02362D03*
Y02244D03*
G54D104*
X0542Y01895D03*
X05475D03*
X054Y0379D03*
X0546D03*
X0552D03*
X05515Y03605D03*
X05455D03*
X054D03*
X05545Y0303D03*
X0549D03*
X05435D03*
X0555Y0284D03*
X05495D03*
X0544D03*
X0537Y01735D03*
X0542D03*
X05475D03*
X0537Y01895D03*
G54D105*
X05462Y0372D03*
X0512D03*
X05078Y01815D03*
X05421D03*
X05158Y02965D03*
X05501D03*
G54D106*
X05667Y0424D03*
X05862D03*
X05614Y02304D03*
X05809D03*
G54D107*
X05667Y04077D03*
X05862D03*
X05614Y02141D03*
X05809D03*
G54D108*
X03956Y03255D03*
X04023D03*
G54D109*
X04759Y0309D03*
X0481D03*
X0441Y0204D03*
X04359D03*
X0441Y0196D03*
X04359D03*
X0441Y01795D03*
X04359D03*
X0441Y01875D03*
X04359D03*
G54D110*
X0409Y03195D03*
X04139D03*
G54D111*
X04557Y02335D03*
X04327D03*
X04619Y03581D03*
X0485D03*
M02*