%FSTAX23Y23*%
%MOIN*%
%SFA1B1*%

%IPPOS*%
%AMD25*
4,1,8,0.022500,0.004200,-0.022500,0.004200,-0.026700,0.000000,-0.026700,0.000000,-0.022500,-0.004200,0.022500,-0.004200,0.026700,0.000000,0.026700,0.000000,0.022500,0.004200,0.0*
1,1,0.008360,0.022500,0.000000*
1,1,0.008360,-0.022500,0.000000*
1,1,0.008360,-0.022500,0.000000*
1,1,0.008360,0.022500,0.000000*
%
%AMD36*
4,1,8,-0.004200,0.019200,-0.004200,-0.019200,0.000000,-0.023400,0.000000,-0.023400,0.004200,-0.019200,0.004200,0.019200,0.000000,0.023400,0.000000,0.023400,-0.004200,0.019200,0.0*
1,1,0.008360,0.000000,0.019200*
1,1,0.008360,0.000000,-0.019200*
1,1,0.008360,0.000000,-0.019200*
1,1,0.008360,0.000000,0.019200*
%
%AMD37*
4,1,8,-0.023400,0.000000,-0.023400,0.000000,-0.019200,-0.004200,0.019200,-0.004200,0.023400,0.000000,0.023400,0.000000,0.019200,0.004200,-0.019200,0.004200,-0.023400,0.000000,0.0*
1,1,0.008360,-0.019200,0.000000*
1,1,0.008360,-0.019200,0.000000*
1,1,0.008360,0.019200,0.000000*
1,1,0.008360,0.019200,0.000000*
%
%AMD63*
4,1,8,0.008900,0.024600,-0.008900,0.024600,-0.010800,0.022700,-0.010800,-0.022700,-0.008900,-0.024600,0.008900,-0.024600,0.010800,-0.022700,0.010800,0.022700,0.008900,0.024600,0.0*
1,1,0.003900,0.008900,0.022700*
1,1,0.003900,-0.008900,0.022700*
1,1,0.003900,-0.008900,-0.022700*
1,1,0.003900,0.008900,-0.022700*
%
%AMD100*
4,1,8,0.098400,0.196800,-0.098400,0.196800,-0.196800,0.098400,-0.196800,-0.098400,-0.098400,-0.196800,0.098400,-0.196800,0.196800,-0.098400,0.196800,0.098400,0.098400,0.196800,0.0*
1,1,0.196860,0.098400,0.098400*
1,1,0.196860,-0.098400,0.098400*
1,1,0.196860,-0.098400,-0.098400*
1,1,0.196860,0.098400,-0.098400*
%
%AMD101*
4,1,8,-0.196800,0.098400,-0.196800,-0.098400,-0.098400,-0.196800,0.098400,-0.196800,0.196800,-0.098400,0.196800,0.098400,0.098400,0.196800,-0.098400,0.196800,-0.196800,0.098400,0.0*
1,1,0.196860,-0.098400,0.098400*
1,1,0.196860,-0.098400,-0.098400*
1,1,0.196860,0.098400,-0.098400*
1,1,0.196860,0.098400,0.098400*
%
%ADD13C,0.023620*%
%ADD15C,0.007870*%
%ADD20R,0.039370X0.051180*%
%ADD21R,0.425200X0.370080*%
%ADD22R,0.031500X0.181100*%
%ADD23R,0.047240X0.070870*%
%ADD24R,0.029530X0.033470*%
G04~CAMADD=25~8~0.0~0.0~533.6~83.7~41.8~0.0~15~0.0~0.0~0.0~0.0~0~0.0~0.0~0.0~0.0~0~0.0~0.0~0.0~0.0~533.6~83.7*
%ADD25D25*%
%ADD26R,0.053360X0.008370*%
%ADD27R,0.051180X0.064960*%
%ADD28R,0.074800X0.070870*%
%ADD29R,0.074800X0.039370*%
%ADD30R,0.061020X0.056100*%
%ADD31R,0.054330X0.017720*%
%ADD32R,0.025590X0.027560*%
%ADD33R,0.043310X0.080710*%
%ADD34R,0.035430X0.031500*%
%ADD35R,0.008370X0.046780*%
G04~CAMADD=36~8~0.0~0.0~467.8~83.7~41.8~0.0~15~0.0~0.0~0.0~0.0~0~0.0~0.0~0.0~0.0~0~0.0~0.0~0.0~90.0~84.0~467.0*
%ADD36D36*%
G04~CAMADD=37~8~0.0~0.0~83.7~467.8~41.8~0.0~15~0.0~0.0~0.0~0.0~0~0.0~0.0~0.0~0.0~0~0.0~0.0~0.0~90.0~468.0~84.0*
%ADD37D37*%
%ADD38R,0.031500X0.031500*%
%ADD39R,0.037650X0.047490*%
%ADD40R,0.041340X0.037400*%
%ADD41R,0.037400X0.041340*%
%ADD42R,0.027560X0.025590*%
%ADD43R,0.035680X0.033660*%
%ADD44R,0.031500X0.023620*%
%ADD45R,0.033940X0.025870*%
%ADD46R,0.025870X0.033940*%
%ADD47R,0.031500X0.035430*%
%ADD48R,0.029530X0.035430*%
%ADD49R,0.031500X0.037400*%
%ADD50R,0.062990X0.224410*%
%ADD51R,0.024800X0.032680*%
%ADD52R,0.047490X0.037650*%
%ADD53R,0.053150X0.037400*%
%ADD54R,0.033660X0.035680*%
%ADD55R,0.036810X0.037880*%
%ADD56R,0.035430X0.039370*%
%ADD57R,0.181100X0.031500*%
%ADD58R,0.370080X0.425200*%
%ADD59R,0.080710X0.043310*%
%ADD60R,0.039370X0.086610*%
%ADD61R,0.129920X0.086610*%
%ADD62R,0.125980X0.067720*%
G04~CAMADD=63~8~0.0~0.0~216.5~492.1~19.5~0.0~15~0.0~0.0~0.0~0.0~0~0.0~0.0~0.0~0.0~0~0.0~0.0~0.0~0.0~216.5~492.1*
%ADD63D63*%
%ADD73R,0.142130X0.250000*%
%ADD91R,0.055120X0.055120*%
%ADD92C,0.055120*%
%ADD93C,0.043310*%
%ADD97C,0.047240*%
%ADD98C,0.011810*%
%ADD99C,0.196850*%
G04~CAMADD=100~8~0.0~0.0~3937.0~3937.0~984.3~0.0~15~0.0~0.0~0.0~0.0~0~0.0~0.0~0.0~0.0~0~0.0~0.0~0.0~0.0~3937.0~3937.0*
%ADD100D100*%
G04~CAMADD=101~8~0.0~0.0~3937.0~3937.0~984.3~0.0~15~0.0~0.0~0.0~0.0~0~0.0~0.0~0.0~0.0~0~0.0~0.0~0.0~90.0~3936.0~3936.0*
%ADD101D101*%
%ADD102C,0.019680*%
%ADD103C,0.031500*%
%ADD104C,0.023620*%
%LNpcb_copper_signal_top-1*%
%LPD*%
G36*
X06487Y0432D02*
X06494Y04315D01*
X06497Y04313*
X065Y04311*
X06503Y04309*
X06506Y04308*
X06509Y04307*
X06512Y04307*
X06515Y04307*
X06484Y04283*
X06484Y04285*
X06483Y04286*
X06482Y04288*
X06481Y0429*
X0648Y04293*
X06478Y04295*
X06473Y04301*
X06467Y04307*
X06484Y04323*
X06487Y0432*
G37*
G36*
X06514Y04232D02*
X06514Y04231D01*
X06513Y0423*
X06513Y04228*
X06512Y04226*
X06512Y04224*
X06511Y04217*
X06511Y04209*
X06488*
X06488Y04213*
X06487Y04226*
X06486Y04228*
X06486Y0423*
X06485Y04231*
X06485Y04232*
X06484Y04232*
X06515*
X06514Y04232*
G37*
G36*
X06511Y04199D02*
X06512Y04188D01*
X06513Y04186*
X06513Y04184*
X06514Y04182*
X06515Y04181*
X06515Y0418*
X06516Y0418*
X06483*
Y04154*
X06482Y04154*
X06482Y04155*
X06481Y04155*
X06477Y04155*
X06459Y04155*
Y04179*
X06483Y0418*
X06484Y0418*
X06484Y04181*
X06485Y04182*
X06486Y04184*
X06486Y04186*
X06487Y04188*
X06487Y04191*
X06488Y04199*
X06488Y04204*
X06511*
X06511Y04199*
G37*
G36*
X0639Y04188D02*
X06391Y04186D01*
X06392Y04185*
X06394Y04183*
X06396Y04182*
X06399Y04181*
X06402Y0418*
X06405Y04179*
X06409Y04179*
X06414Y04179*
Y04155*
X06409Y04155*
X06405Y04155*
X06402Y04154*
X06399Y04153*
X06396Y04152*
X06394Y04151*
X06392Y04149*
X06391Y04148*
X0639Y04146*
X0639Y04143*
Y04191*
X0639Y04188*
G37*
G36*
X0634Y04105D02*
X0593D01*
X05905Y0413*
X05815*
Y0435*
X0634*
Y04105*
G37*
G36*
X0651Y04099D02*
X06509Y04099D01*
X06508Y04098*
X06508Y04097*
X06507Y04096*
X06506Y04095*
X06506Y04093*
X06506Y04092*
X06505Y0409*
X06505Y04087*
X06494*
X06494Y0409*
X06493Y04092*
X06493Y04093*
X06493Y04095*
X06492Y04096*
X06491Y04097*
X06491Y04098*
X0649Y04099*
X06489Y04099*
X06488Y04099*
X06511*
X0651Y04099*
G37*
G36*
X06505Y04069D02*
X06504Y04058D01*
X06492Y04064*
X06492Y04064*
X06493Y04064*
X06493Y04065*
X06493Y04065*
X06493Y04066*
X06493Y04066*
X06493Y04067*
X06494Y04069*
X06494Y0407*
X06505Y04069*
G37*
G36*
X0346Y0397D02*
X04365D01*
X0454Y03795*
Y03464*
X04526*
Y03506*
X04533*
Y03563*
X04484*
Y03506*
X0449*
Y03464*
X04485*
X04484Y03467*
X04482Y03471*
X04478Y03473*
X04475Y03474*
X04355*
X04351Y03473*
X04351Y03473*
X04337Y03487*
X04333Y03489*
X0433Y0349*
X03974*
Y03504*
X03825*
Y0349*
X03675*
X03671Y03489*
X03667Y03487*
X03657Y03477*
X03655Y03473*
X03654Y0347*
Y03427*
X03654*
Y03316*
X03655*
X03655Y03316*
X03657Y03312*
X03677Y03292*
X03681Y0329*
X03685Y03289*
X04087*
X04088Y03288*
X04085Y03283*
X04062*
Y03277*
X04058Y03274*
X04051*
X04043Y03271*
X04038Y03266*
X04035Y03258*
Y03251*
X04038Y03243*
X04043Y03238*
X04051Y03235*
X04058*
X04062Y03232*
Y03226*
X04167*
Y03229*
X0427*
X04277Y03222*
X04279Y03221*
Y03215*
X04345*
X04347Y03212*
X04351Y0321*
X04355Y03209*
X04475*
X04479Y03205*
Y03145*
X0448Y03141*
X04482Y03137*
X0454Y0308*
Y02785*
X04445Y0269*
X0446Y02675*
Y02181*
X04191*
X04033Y02338*
X04028Y02342*
X04022Y02343*
X0399*
X03989Y02343*
X0395*
X03944Y02342*
X03939Y02338*
X03935Y02333*
X03934Y02327*
X03935Y02321*
X03939Y02315*
X03944Y02312*
X0395Y02311*
X03989*
X0399Y02311*
X04015*
X04173Y02153*
X04178Y0215*
X04185Y02148*
X04454*
X04456Y02143*
X0438Y02067*
Y01455*
X0239*
Y041*
X02422*
Y04032*
X0241*
Y03937*
X02508*
Y04032*
X02496*
Y041*
X0333*
X0346Y0397*
G37*
G36*
X0699Y0364D02*
X05718D01*
X05715Y03643*
X0572Y03925*
X059*
X06Y0402*
X0661*
X0666Y04055*
X0699*
Y0364*
G37*
G36*
X05895Y03589D02*
X05893Y03589D01*
X05891Y03588*
X05889Y03587*
X05888Y03585*
X05887Y03583*
X05886Y0358*
X05885Y03577*
X05884Y03574*
X05884Y0357*
X05884Y03565*
X0586*
X0586Y0357*
X0586Y03574*
X05859Y03577*
X05858Y0358*
X05857Y03583*
X05856Y03585*
X05854Y03587*
X05853Y03588*
X05851Y03589*
X05848Y03589*
X05895Y03589*
G37*
G36*
X05885Y03521D02*
X05859D01*
X05859Y03522*
X0586Y03522*
X0586Y03523*
X0586Y03527*
X0586Y03545*
X05884*
X05885Y03521*
G37*
G36*
X04519Y03518D02*
X04518Y03518D01*
X04517Y03517*
X04516Y03516*
X04516Y03515*
X04515Y03514*
X04515Y03513*
X04515Y03511*
X04514Y03509*
X04514Y03506*
X04502*
X04502Y03509*
X04502Y03511*
X04502Y03513*
X04502Y03514*
X04501Y03515*
X045Y03516*
X045Y03517*
X04499Y03518*
X04498Y03518*
X04497Y03518*
X0452*
X04519Y03518*
G37*
G36*
X05804Y03488D02*
X05804Y03489D01*
X05803Y03489*
X05802Y0349*
X058Y03491*
X05798Y03491*
X05796Y03492*
X05793Y03492*
X05785Y03493*
X0578Y03493*
Y03516*
X05785Y03516*
X05796Y03517*
X05798Y03518*
X058Y03518*
X05802Y03519*
X05803Y0352*
X05804Y0352*
X05804Y03521*
Y03488*
G37*
G36*
X04514Y03461D02*
X04515Y03459D01*
X04515Y03457*
X04515Y03456*
X04516Y03455*
X04516Y03453*
X04517Y03453*
X04518Y03452*
X04519Y03452*
X0452Y03452*
X04497*
X04498Y03452*
X04499Y03452*
X045Y03453*
X045Y03453*
X04501Y03455*
X04502Y03456*
X04502Y03457*
X04502Y03459*
X04502Y03461*
X04502Y03463*
X04514*
X04514Y03461*
G37*
G36*
X0491Y0373D02*
Y0331D01*
X0487Y0328*
X04785*
Y03775*
X04865*
X0491Y0373*
G37*
G36*
X06514Y03317D02*
X06514Y03316D01*
X06513Y03315*
X06513Y03313*
X06512Y03311*
X06512Y03309*
X06511Y03302*
X06512Y03293*
X06513Y03291*
X06513Y03289*
X06514Y03287*
X06515Y03286*
X06515Y03285*
X06516Y03285*
X06483*
Y03259*
X06482Y03259*
X06482Y0326*
X06481Y0326*
X06477Y0326*
X06459Y0326*
Y03284*
X06483Y03285*
X06484Y03285*
X06484Y03286*
X06485Y03287*
X06486Y03289*
X06486Y03291*
X06487Y03293*
X06487Y03296*
X06487Y03301*
X06487Y03311*
X06486Y03313*
X06486Y03315*
X06485Y03316*
X06485Y03317*
X06484Y03317*
X06515*
X06514Y03317*
G37*
G36*
X04074Y03247D02*
X04074Y03247D01*
X04074Y03248*
X04074Y03249*
X04073Y03249*
X04072Y0325*
X04072Y0325*
X0407Y0325*
X04069Y0325*
X04068Y03251*
X04068Y0325*
X04067Y0325*
X04066Y0325*
X04065Y0325*
X04064Y0325*
X04063Y03249*
X04063Y03249*
X04062Y03248*
X04062Y03248*
Y03261*
X04062Y03261*
X04063Y0326*
X04063Y0326*
X04064Y0326*
X04065Y03259*
X04066Y03259*
X04067Y03259*
X04068Y03259*
X04068Y03259*
X04069Y03259*
X0407Y03259*
X04072Y03259*
X04072Y03259*
X04073Y0326*
X04074Y0326*
X04074Y03261*
X04074Y03262*
X04074Y03262*
Y03247*
G37*
G36*
X0639Y03293D02*
X06391Y03291D01*
X06392Y0329*
X06394Y03288*
X06396Y03287*
X06399Y03286*
X06402Y03285*
X06405Y03284*
X06409Y03284*
X06414Y03284*
Y0326*
X06409Y0326*
X06405Y0326*
X06402Y03259*
X06399Y03258*
X06396Y03257*
X06394Y03256*
X06392Y03254*
X06391Y03253*
X0639Y03251*
X0639Y03248*
Y03296*
X0639Y03293*
G37*
G36*
X04345Y03465D02*
X04344Y03464D01*
Y0323*
X04285*
X04275Y0324*
X04125*
Y0327*
X04115Y03279*
Y03283*
X04111*
X04095Y033*
X03685*
X03665Y0332*
Y0347*
X03675Y0348*
X0433*
X04345Y03465*
G37*
G36*
X0651Y03204D02*
X06509Y03204D01*
X06508Y03203*
X06508Y03202*
X06507Y03201*
X06506Y032*
X06506Y03198*
X06506Y03197*
X06505Y03195*
X06505Y03192*
X06494*
X06494Y03195*
X06493Y03197*
X06493Y03198*
X06493Y032*
X06492Y03201*
X06491Y03202*
X06491Y03203*
X0649Y03204*
X06489Y03204*
X06488Y03204*
X06511*
X0651Y03204*
G37*
G36*
X04772Y03191D02*
X04771Y03192D01*
X04771Y03192*
X0477*
X04769Y03192*
X04768Y03191*
X04767Y0319*
X04765Y0319*
X04764Y03188*
X04761Y03186*
X04755Y03191*
X04757Y03193*
X04759Y03196*
X0476Y03197*
X04761Y03198*
X04761Y03199*
X04762Y032*
Y03201*
X04761Y03202*
X04761Y03202*
X04772Y03191*
G37*
G36*
X06505Y03172D02*
X06506Y03169D01*
X06506Y03168*
X06506Y03168*
X06506Y03167*
X06506Y03167*
X06506Y03167*
X06493*
X06493Y03167*
X06493Y03167*
X06493Y03168*
X06493Y03168*
X06493Y03169*
X06494Y0317*
X06494Y03172*
X06494Y03173*
X06505*
X06505Y03172*
G37*
G36*
X0634Y0319D02*
X0593D01*
X05865Y03125*
X0567*
Y0337*
X0634*
Y0319*
G37*
G36*
X04725Y03185D02*
X0465Y0311D01*
X0459*
Y03134*
X0463*
X04631Y03135*
X0464*
X04655Y0315*
Y03405*
X04595Y03465*
Y03685*
Y0369*
X04725*
Y03185*
G37*
G36*
X0451Y03147D02*
X04569Y03087D01*
X0457Y03085*
X04573Y0308*
X04578Y03076*
X04581Y03076*
X04582Y03075*
X047*
X04765Y0314*
X04782*
Y03107*
X04727Y03052*
X04694*
X04688Y03054*
X04681*
X04675Y03052*
X04582*
X0449Y03145*
Y0323*
X0451*
Y03147*
G37*
G36*
X04758Y03031D02*
X04758Y03031D01*
X04758Y03032*
X04757Y03033*
X04757Y03033*
X04756Y03034*
X04755Y03034*
X04754Y03034*
X04753Y03034*
X04752Y03035*
X0475Y03035*
Y03042*
X04752Y03043*
X04753Y03043*
X04754Y03043*
X04755Y03043*
X04756Y03043*
X04757Y03044*
X04757Y03044*
X04758Y03045*
X04758Y03046*
X04758Y03046*
Y03031*
G37*
G36*
X04679Y03026D02*
X04678Y03027D01*
X04678Y03027*
X04677Y03028*
X04676Y03028*
X04675Y03028*
X04674Y03028*
X04674Y03028*
X04673Y03029*
X04671Y03029*
X04669Y03036*
X0467Y03037*
X04671Y03037*
X04672Y03037*
X04673Y03037*
X04673Y03037*
X04674Y03038*
X04675Y03038*
X04675Y03039*
X04676Y03039*
X04676Y0304*
X04679Y03026*
G37*
G36*
X04877Y03003D02*
X04877Y03003D01*
X04876Y03004*
X04876Y03004*
X04875Y03005*
X04874Y03005*
X04873Y03005*
X04872Y03005*
X04871Y03005*
X04871Y03006*
X0487Y03006*
Y03013*
X04871Y03013*
X04871Y03014*
X04872Y03014*
X04873Y03014*
X04874Y03014*
X04875Y03015*
X04876Y03015*
X04876Y03015*
X04877Y03016*
X04877Y03016*
Y03003*
G37*
G36*
X04847Y02973D02*
X04847Y02973D01*
X04846Y02974*
X04846Y02974*
X04845Y02975*
X04844Y02975*
X04843Y02975*
X04842Y02975*
X04841Y02975*
X04841Y02976*
X0484Y02976*
Y02983*
X04841Y02983*
X04841Y02984*
X04842Y02984*
X04843Y02984*
X04844Y02984*
X04845Y02985*
X04846Y02985*
X04846Y02985*
X04847Y02986*
X04847Y02986*
Y02973*
G37*
G36*
X04811Y02987D02*
X04811Y02986D01*
X04812Y02985*
X04812Y02985*
X04813Y02984*
X04814Y02984*
X04815Y02984*
X04816Y02984*
X04817Y02983*
X04819Y02983*
Y02976*
X04817Y02976*
X04816Y02975*
X04815Y02975*
X04814Y02975*
X04813Y02975*
X04812Y02974*
X04812Y02974*
X04811Y02973*
X04811Y02972*
X04811Y02972*
Y02987*
X04811Y02987*
G37*
G36*
X04758Y02966D02*
X04758Y02966D01*
X04758Y02967*
X04757Y02968*
X04757Y02968*
X04756Y02968*
X04755Y02969*
X04754Y02969*
X04753Y02969*
X04752Y02969*
X0475Y02969*
Y02977*
X04752Y02977*
X04753Y02977*
X04754Y02978*
X04755Y02978*
X04756Y02978*
X04757Y02979*
X04757Y02979*
X04758Y0298*
X04758Y02981*
X04758Y02981*
Y02966*
G37*
G36*
X04713Y02947D02*
X04712Y02948D01*
X04712Y02948*
X04711Y02949*
X0471Y02949*
X04709Y02949*
X04709Y02949*
X04708Y0295*
X04707Y0295*
X04706Y0295*
X04705Y0295*
X04704Y02958*
X04705Y02958*
X04706Y02958*
X04707Y02958*
X04708Y02958*
X04709Y02959*
X04709Y02959*
X0471Y02959*
X04711Y0296*
X04711Y0296*
X04712Y02961*
X04713Y02947*
G37*
G36*
X04658Y02927D02*
X04657Y02928D01*
X04656Y02928*
X04656Y02929*
X04655Y02929*
X04654Y02929*
X04653Y0293*
X04653Y0293*
X04652Y0293*
X04651Y0293*
X0465Y0293*
X04649Y02938*
X0465Y02938*
X04651Y02938*
X04652Y02938*
X04653Y02939*
X04654Y02939*
X04655Y02939*
X04655Y0294*
X04656Y0294*
X04657Y02941*
X04657Y02941*
X04658Y02927*
G37*
G36*
X04758Y02906D02*
X04758Y02907D01*
X04758Y02908*
X04757Y02908*
X04757Y02909*
X04756Y02909*
X04755Y0291*
X04754Y0291*
X04753Y0291*
X04752Y0291*
X0475Y0291*
Y02918*
X04752Y02918*
X04753Y02918*
X04754Y02919*
X04755Y02919*
X04756Y02919*
X04757Y0292*
X04757Y0292*
X04758Y02921*
X04758Y02921*
X04758Y02922*
Y02906*
G37*
G36*
Y02843D02*
X04758Y02843D01*
X04758Y02844*
X04757Y02845*
X04757Y02845*
X04756Y02846*
X04755Y02846*
X04754Y02846*
X04753Y02846*
X04752Y02846*
X0475Y02847*
Y02854*
X04752Y02854*
X04753Y02855*
X04754Y02855*
X04755Y02855*
X04756Y02855*
X04757Y02856*
X04757Y02856*
X04758Y02857*
X04758Y02858*
X04758Y02858*
Y02843*
G37*
G36*
X0484Y02842D02*
X0484Y02843D01*
X04839Y02843*
X04839Y02844*
X04839Y02844*
X04838Y02845*
X04837Y02845*
X04837Y02845*
X04836Y02845*
X04835Y02846*
X04834Y02846*
X04835Y02853*
X04846Y02854*
X0484Y02842*
G37*
G36*
X04811Y02857D02*
X04811Y02856D01*
X04812Y02855*
X04812Y02855*
X04813Y02854*
X04814Y02854*
X04815Y02854*
X04816Y02854*
X04817Y02853*
X04819Y02853*
Y02846*
X04817Y02846*
X04816Y02845*
X04815Y02845*
X04814Y02845*
X04813Y02845*
X04812Y02844*
X04812Y02844*
X04811Y02843*
X04811Y02842*
X04811Y02842*
Y02857*
X04811Y02857*
G37*
G36*
X04921Y02844D02*
X04921Y02843D01*
X04922Y02842*
X04922Y02841*
X04922Y02841*
X04923Y0284*
X04923Y02839*
X04924Y02839*
X04924Y02838*
X04925Y02838*
X04911Y02835*
X04912Y02836*
X04912Y02836*
X04912Y02837*
X04913Y02838*
X04913Y02839*
X04913Y02839*
X04913Y0284*
X04913Y02841*
X04913Y02843*
X04921Y02845*
X04921Y02844*
G37*
G36*
X04763Y02777D02*
X04763Y02777D01*
X04763Y02778*
X04762Y02779*
X04762Y02779*
X04761Y0278*
X0476Y0278*
X04759Y0278*
X04758Y0278*
X04757Y02781*
X04755Y02781*
Y02788*
X04757Y02788*
X04758Y02789*
X04759Y02789*
X0476Y02789*
X04761Y02789*
X04762Y0279*
X04762Y0279*
X04763Y02791*
X04763Y02792*
X04763Y02792*
Y02777*
G37*
G36*
X04924Y0278D02*
X04924Y0278D01*
X04924Y0278*
X04923Y02779*
X04923Y02779*
X04922Y02779*
X04921Y02778*
X0492Y02776*
X04919Y02776*
X04911Y02784*
X04911Y02785*
X04914Y02787*
X04914Y02788*
X04914Y02788*
X04915Y02789*
X04915Y02789*
X04915Y02789*
X04924Y0278*
G37*
G36*
X06985Y0274D02*
X05735D01*
Y0303*
X0592*
X05995Y03105*
X0662*
X06655Y0314*
X06985*
Y0274*
G37*
G36*
X04563Y02744D02*
X04564Y02743D01*
X04564Y02743*
X04565Y02742*
X04566Y02742*
X04566Y02742*
X04567Y02742*
X04568Y02741*
X04569Y02741*
X0457Y02741*
X04568Y02733*
X04567Y02733*
X04565Y02733*
X04564Y02733*
X04564Y02733*
X04563Y02733*
X04562Y02732*
X04561Y02732*
X0456Y02732*
X0456Y02731*
X04563Y02745*
X04563Y02744*
G37*
G36*
X04785Y02718D02*
X04785Y02718D01*
X04785Y02718*
X04783Y02718*
X04773Y02718*
Y02726*
X04785Y02727*
Y02718*
G37*
G36*
X04763Y02714D02*
X04763Y02715D01*
X04763Y02716*
X04762Y02716*
X04762Y02717*
X04761Y02717*
X0476Y02718*
X04759Y02718*
X04758Y02718*
X04757Y02718*
X04755Y02718*
Y02726*
X04757Y02726*
X04758Y02726*
X04759Y02727*
X0476Y02727*
X04761Y02727*
X04762Y02728*
X04762Y02728*
X04763Y02729*
X04763Y02729*
X04763Y0273*
Y02714*
G37*
G36*
X04816Y02733D02*
X04816Y02732D01*
X04817Y02731*
X04818Y0273*
X04819Y0273*
X0482Y02729*
X04822Y02729*
X04823Y02728*
X04826Y02728*
X04828Y02728*
Y02716*
X04826Y02716*
X04823Y02716*
X04822Y02716*
X0482Y02715*
X04819Y02715*
X04818Y02714*
X04817Y02714*
X04816Y02713*
X04816Y02712*
X04816Y02711*
Y02734*
X04816Y02733*
G37*
G36*
X05915Y02694D02*
X05913Y02694D01*
X05911Y02693*
X05909Y02692*
X05908Y0269*
X05907Y02688*
X05906Y02685*
X05905Y02682*
X05904Y02679*
X05904Y02675*
X05904Y0267*
X0588*
X0588Y02675*
X0588Y02679*
X05879Y02682*
X05878Y02685*
X05877Y02688*
X05876Y0269*
X05874Y02692*
X05873Y02693*
X05871Y02694*
X05868Y02694*
X05915Y02694*
G37*
G36*
X04787Y02653D02*
X04787Y02653D01*
X04786Y02654*
X04786Y02654*
X04785Y02655*
X04784Y02655*
X04783Y02655*
X04782Y02655*
X04781Y02655*
X04781Y02656*
X0478Y02656*
Y02663*
X04781Y02663*
X04781Y02664*
X04782Y02664*
X04783Y02664*
X04784Y02664*
X04785Y02665*
X04786Y02665*
X04786Y02665*
X04787Y02666*
X04787Y02666*
Y02653*
G37*
G36*
X05905Y02626D02*
X05879D01*
X05879Y02627*
X0588Y02627*
X0588Y02628*
X0588Y02632*
X0588Y0265*
X05904*
X05905Y02626*
G37*
G36*
X04717Y02617D02*
X04718Y02617D01*
X04719Y02616*
X0472Y02616*
X0472Y02615*
X04721Y02615*
X04722Y02615*
X04723Y02614*
X04724Y02614*
X04724Y02614*
X04715Y02605*
X04715Y02605*
X04715Y02606*
X04714Y02607*
X04714Y02608*
X04714Y02609*
X04713Y02609*
X04713Y0261*
X04712Y02611*
X04712Y02612*
X04711Y02612*
X04717Y02618*
X04717Y02617*
G37*
G36*
X04924Y02605D02*
X04924Y02605D01*
X04923Y02605*
X04923Y02604*
X04922Y02604*
X04922Y02604*
X04921Y02603*
X0492Y02602*
X04918Y02601*
X04911Y0261*
X04911Y0261*
X04914Y02614*
X04914Y02614*
X04914Y02614*
X04915Y02615*
X04915Y02615*
X04924Y02605*
G37*
G36*
X05824Y02593D02*
X05824Y02594D01*
X05823Y02594*
X05822Y02595*
X0582Y02596*
X05818Y02596*
X05816Y02597*
X05813Y02597*
X05805Y02598*
X058Y02598*
Y02621*
X05805Y02621*
X05816Y02622*
X05818Y02623*
X0582Y02623*
X05822Y02624*
X05823Y02625*
X05824Y02625*
X05824Y02626*
Y02593*
G37*
G36*
X04734Y02604D02*
X04734Y02603D01*
X04735Y02602*
X04735Y02601*
X04735Y026*
X04736Y026*
X04736Y02599*
X04737Y02598*
X04737Y02597*
X04738Y02597*
X04732Y02591*
X04732Y02592*
X04731Y02592*
X0473Y02593*
X04729Y02593*
X04729Y02594*
X04728Y02594*
X04727Y02594*
X04726Y02595*
X04725Y02595*
X04725Y02595*
X04734Y02604*
X04734Y02604*
G37*
G36*
X04899Y02581D02*
X04897Y02579D01*
X04893Y02575*
X04892Y02573*
X04891Y02571*
X0489Y02569*
X0489Y02568*
Y02567*
X0489Y02566*
X04891Y02565*
X04874Y02581*
X04875Y02581*
X04876Y0258*
X04877*
X04879Y02581*
X0488Y02581*
X04882Y02582*
X04884Y02584*
X04886Y02585*
X04891Y0259*
X04899Y02581*
G37*
G36*
X04789Y0256D02*
X04788Y02561D01*
X04788Y02561*
X04788Y02562*
X04787Y02563*
X04787Y02563*
X04786Y02563*
X04785Y02564*
X04783Y02564*
X04782Y02564*
X04781Y02564*
Y02572*
X04782Y02572*
X04783Y02572*
X04785Y02572*
X04786Y02572*
X04787Y02573*
X04787Y02573*
X04788Y02574*
X04788Y02574*
X04788Y02575*
X04789Y02576*
Y0256*
G37*
G36*
X0493Y02562D02*
X0493Y02561D01*
X0493Y02561*
X0493Y0256*
X04929Y0256*
X04929Y02559*
X04929Y02559*
X04929Y02557*
X04929Y02556*
X04929Y02555*
X04917Y02557*
X04917Y02558*
X04917Y02563*
X04917Y02563*
X04917Y02564*
X0493Y02562*
G37*
G36*
X04697Y02542D02*
X04698Y02542D01*
X04699Y02541*
X047Y02541*
X047Y0254*
X04701Y0254*
X04702Y0254*
X04703Y02539*
X04704Y02539*
X04704Y02539*
X04695Y0253*
X04695Y0253*
X04695Y02531*
X04694Y02532*
X04694Y02533*
X04694Y02534*
X04693Y02534*
X04693Y02535*
X04692Y02536*
X04692Y02537*
X04691Y02537*
X04697Y02543*
X04697Y02542*
G37*
G36*
X04714Y02529D02*
X04714Y02528D01*
X04715Y02527*
X04715Y02526*
X04715Y02525*
X04716Y02525*
X04716Y02524*
X04717Y02523*
X04717Y02522*
X04718Y02522*
X04712Y02516*
X04712Y02517*
X04711Y02517*
X0471Y02518*
X04709Y02518*
X04709Y02519*
X04708Y02519*
X04707Y02519*
X04706Y0252*
X04705Y0252*
X04705Y0252*
X04714Y02529*
X04714Y02529*
G37*
G36*
X04789Y02497D02*
X04788Y02497D01*
X04788Y02498*
X04788Y02499*
X04787Y02499*
X04787Y025*
X04786Y025*
X04785Y025*
X04783Y025*
X04782Y02501*
X04781Y02501*
Y02508*
X04782Y02508*
X04783Y02509*
X04785Y02509*
X04786Y02509*
X04787Y02509*
X04787Y0251*
X04788Y0251*
X04788Y02511*
X04788Y02512*
X04789Y02512*
Y02497*
G37*
G36*
X06504Y02322D02*
X06504Y02321D01*
X06503Y0232*
X06503Y02318*
X06502Y02316*
X06502Y02314*
X06501Y02307*
X06501Y02299*
X06478*
X06478Y02303*
X06477Y02316*
X06476Y02318*
X06476Y0232*
X06475Y02321*
X06475Y02322*
X06474Y02322*
X06505*
X06504Y02322*
G37*
G36*
X06501Y02274D02*
X06502Y02263D01*
X06503Y02261*
X06503Y02259*
X06504Y02257*
X06505Y02256*
X06505Y02255*
X06506Y02255*
X06473*
Y02229*
X06472Y02229*
X06472Y0223*
X06471Y0223*
X06467Y0223*
X06449Y0223*
Y02254*
X06473Y02255*
X06474Y02255*
X06474Y02256*
X06475Y02257*
X06476Y02259*
X06476Y02261*
X06477Y02263*
X06477Y02266*
X06478Y02274*
X06478Y02279*
X06501*
X06501Y02274*
G37*
G36*
X06385Y02263D02*
X06386Y02261D01*
X06387Y0226*
X06389Y02258*
X06391Y02257*
X06394Y02256*
X06397Y02255*
X064Y02254*
X06404Y02254*
X06409Y02254*
Y0223*
X06404Y0223*
X064Y0223*
X06397Y02229*
X06394Y02228*
X06391Y02227*
X06389Y02226*
X06387Y02224*
X06386Y02223*
X06385Y02221*
X06385Y02218*
Y02266*
X06385Y02263*
G37*
G36*
X0481Y0221D02*
X0475D01*
X04725Y02235*
Y0245*
X0481*
Y0221*
G37*
G36*
X065Y02174D02*
X06499Y02174D01*
X06498Y02173*
X06498Y02172*
X06497Y02171*
X06496Y0217*
X06496Y02168*
X06496Y02167*
X06495Y02165*
X06495Y02162*
X06484*
X06484Y02165*
X06483Y02167*
X06483Y02168*
X06483Y0217*
X06482Y02171*
X06481Y02172*
X06481Y02173*
X0648Y02174*
X06479Y02174*
X06478Y02174*
X06501*
X065Y02174*
G37*
G36*
X06265Y02345D02*
X06335D01*
Y0216*
X06055*
X06015Y022*
X05775*
X05774Y02199*
X0577Y02201*
Y02415*
X06195*
X06265Y02345*
G37*
G36*
X06495Y02127D02*
X06496Y02124D01*
X06496Y02123*
X06496Y02123*
X06496Y02122*
X06496Y02122*
X06496Y02122*
X06483*
X06483Y02122*
X06483Y02122*
X06483Y02123*
X06483Y02123*
X06483Y02124*
X06484Y02125*
X06484Y02127*
X06484Y02128*
X06495*
X06495Y02127*
G37*
G36*
X054Y0397D02*
X0563D01*
Y01611*
X05625Y01609*
X05625Y0161*
X0524*
Y0201*
X04815*
X04655Y0217*
X04605Y0222*
X0453*
Y02595*
X04575Y0264*
X04635*
X04653Y02621*
Y02565*
X04654Y02559*
X04655Y02559*
Y0253*
Y02285*
X04835Y02105*
X0524*
Y03745*
X04785Y042*
X04455*
X04435Y0422*
Y0458*
X0463Y04585*
X04785*
X054Y0397*
G37*
G36*
X04642Y02053D02*
X04645Y0205D01*
X04647Y02049*
X04648Y02049*
X04649Y02048*
X0465Y02048*
X04651*
X04651Y02048*
X04652Y02049*
X04641Y02038*
X04641Y02038*
X04642Y02039*
Y0204*
X04641Y02041*
X04641Y02042*
Y02023*
X04641Y02025*
X0464Y02025*
X0464Y02026*
X04639Y02027*
X04638Y02028*
X04637Y02028*
X04635Y02029*
X04633Y02029*
X04631Y02029*
X04629Y02029*
Y02041*
X04631Y02041*
X04633Y02041*
X04635Y02042*
X04637Y02042*
X04638Y02042*
X04639Y02043*
X0464Y02044*
X04639Y02044*
X04638Y02046*
X04635Y02049*
X04641Y02054*
X04642Y02053*
G37*
G36*
X04621Y02042D02*
X04622Y02042D01*
X04622Y02041*
X04623Y02041*
X04623Y02041*
X04625Y02041*
X04628Y02041*
X04629Y02029*
X04628Y02029*
X04624Y02029*
X04623Y02029*
X04623Y02029*
X04623Y02028*
X04622Y02028*
X04622Y02028*
X04621Y02042*
X04621Y02042*
G37*
G36*
X04608Y02027D02*
X04607Y02028D01*
X04607Y02028*
X04607Y02028*
X04606Y02028*
X04605Y02028*
X04604Y02028*
X04602Y02028*
X04601Y02028*
X04601Y0204*
X04602Y0204*
X04605Y0204*
X04606Y02041*
X04606Y02041*
X04607Y02041*
X04607Y02041*
X04607Y02041*
X04608Y02027*
G37*
G36*
X04587Y02045D02*
X04588Y02044D01*
X04588Y02043*
X04589Y02042*
X0459Y02042*
X04591Y02041*
X04593Y02041*
X04595Y0204*
X04597Y0204*
X04599Y0204*
Y02028*
X04597Y02028*
X04595Y02028*
X04593Y02028*
X04591Y02027*
X0459Y02027*
X04589Y02026*
X04588Y02026*
X04588Y02025*
X04587Y02024*
X04587Y02023*
Y02046*
X04587Y02045*
G37*
G36*
X04641Y01996D02*
Y0197D01*
X04641Y01971*
X0464Y01971*
X04639Y01971*
X04637Y01971*
X04632Y01972*
X04617Y01972*
Y01996*
X04641Y01996*
G37*
G36*
X04587Y02D02*
X04588Y01999D01*
X04589Y01999*
X04591Y01998*
X04593Y01997*
X04596Y01997*
X04599Y01996*
X04606Y01996*
X04611Y01996*
Y01972*
X04606Y01972*
X04593Y01971*
X04591Y01971*
X04589Y0197*
X04588Y0197*
X04587Y01969*
X04587Y01968*
X04586Y01968*
X04585Y01967*
X04584Y01966*
X04583Y01964*
X04583Y01962*
X04582Y0196*
X04582Y01957*
X04581Y01949*
X04581Y01945*
X04558*
X04558Y01949*
X04557Y0196*
X04556Y01962*
X04556Y01964*
X04555Y01966*
X04554Y01967*
X04553Y01968*
X04552Y01968*
X04587*
Y02002*
X04587Y02*
G37*
G36*
X04809Y01909D02*
X0481Y01909D01*
X0481Y01908*
X0481Y01908*
X0481Y01907*
X04811Y01906*
X04813Y01905*
X04813Y01904*
X04805Y01896*
X04804Y01896*
X04802Y01899*
X04801Y01899*
X04801Y01899*
X048Y019*
X048Y019*
X048Y019*
X04809Y01909*
X04809Y01909*
G37*
G36*
X0484Y01865D02*
X0484Y01863D01*
X0484Y01861*
X04841Y01859*
X04841Y01858*
X04842Y01857*
X04843Y01856*
X04844Y01855*
X04845Y01855*
X04846Y01855*
X04822*
X04823Y01855*
X04824Y01855*
X04825Y01856*
X04826Y01857*
X04826Y01858*
X04827Y01859*
X04827Y01861*
X04828Y01863*
X04828Y01865*
X04828Y01867*
X0484*
X0484Y01865*
G37*
G36*
X04462Y01736D02*
X04462Y01736D01*
X04463Y01736*
X04463Y01736*
X04464Y01736*
X04465Y01735*
X04467Y01735*
X04468*
Y01724*
X04467Y01724*
X04464Y01723*
X04463Y01723*
X04463Y01723*
X04462Y01723*
X04462Y01723*
X04462Y01723*
Y01736*
X04462Y01736*
G37*
G36*
X0698Y02076D02*
Y01755D01*
X06985Y0175*
X06935Y017*
X057*
Y0198*
X05915*
X0601Y02075*
X06976Y02079*
X0698Y02076*
G37*
G36*
X0588Y01645D02*
X05879Y01645D01*
X05878Y01645*
X05877Y01643*
X05876Y01642*
X05875Y0164*
X05875Y01637*
X05874Y01634*
X05874Y01626*
X05874Y01622*
X0585*
X0585Y01626*
X0585Y0163*
X05849Y01634*
X05848Y01637*
X05847Y0164*
X05846Y01642*
X05844Y01643*
X05843Y01645*
X05841Y01645*
X05838Y01646*
X0588Y01645*
G37*
G36*
X05875Y01561D02*
X05849D01*
X05849Y01562*
X0585Y01562*
X0585Y01563*
X0585Y01567*
X0585Y01585*
X05874*
X05875Y01561*
G37*
G36*
X05757Y01551D02*
X05757Y01551D01*
X05758Y01551*
X05758Y01551*
X05759Y01551*
X0576Y0155*
X05762Y0155*
X05763Y0155*
Y01539*
X05762*
X05759Y01538*
X05758Y01538*
X05758Y01538*
X05757Y01538*
X05757Y01538*
X05757Y01538*
Y01551*
X05757Y01551*
G37*
G36*
X05794Y01533D02*
X05794Y01534D01*
X05794Y01535*
X05793Y01536*
X05792Y01536*
X05791Y01537*
X0579Y01538*
X05788Y01538*
X05787Y01538*
X05785Y01539*
X05782Y01539*
Y0155*
X05785Y0155*
X05787Y01551*
X05788Y01551*
X0579Y01551*
X05791Y01552*
X05792Y01553*
X05793Y01553*
X05794Y01554*
X05794Y01555*
X05794Y01556*
Y01533*
G37*
%LNpcb_copper_signal_top-2*%
%LPC*%
G36*
X02763Y04015D02*
X02646D01*
Y03983*
X02603*
Y04011*
X02525*
Y0397*
Y03944*
Y03919*
Y03893*
X02603*
Y03921*
X0262*
X02646Y03895*
Y03859*
X02668*
X02669Y03858*
X02676Y03856*
X02683Y03858*
X02685Y03859*
X02746*
X02747Y03858*
X02805*
X03545Y03118*
X03545Y03113*
X03542Y03112*
X0354Y03109*
X03427*
Y03112*
X03368*
Y03057*
X03427*
Y0306*
X0355*
X03559Y03062*
X03567Y03067*
X03577Y03077*
X03578Y0308*
X03583Y0308*
X03646Y03017*
Y02942*
X03642Y02941*
X03641Y02941*
X03636Y02946*
X03628Y02949*
X03621*
X03613Y02946*
X03608Y02941*
X03605Y02933*
Y02926*
X03608Y02918*
X03613Y02913*
X03621Y0291*
X03622*
X03625Y02906*
Y02781*
X03621Y02778*
X03618Y02779*
X03611*
X03603Y02776*
X03598Y02771*
X03596Y02766*
X0359Y02765*
X03588Y02767*
X03586Y02771*
X03581Y02776*
X03573Y02779*
X03566*
X03558Y02776*
X03553Y02771*
X0355Y02763*
Y02756*
X03553Y02748*
X03558Y02743*
X03566Y0274*
X0357*
X03586Y02724*
Y02715*
X03586Y02714*
Y02675*
X03587Y02669*
X0359Y02664*
X03596Y0266*
X03602Y02659*
X03608Y0266*
X03612Y02663*
X03615Y0266*
X03622Y02659*
X03628Y0266*
X03631Y02663*
X03635Y0266*
X03641Y02659*
X03647Y0266*
X03651Y02663*
X03655Y0266*
X03661Y02659*
X03667Y0266*
X03671Y02663*
X03674Y0266*
X03681Y02659*
X03687Y0266*
X0369Y02663*
X03694Y0266*
X037Y02659*
X03707Y0266*
X0371Y02663*
X03714Y0266*
X0372Y02659*
X03726Y0266*
X0373Y02663*
X03733Y0266*
X0374Y02659*
X03746Y0266*
X0375Y02663*
X03753Y0266*
X03759Y02659*
X03766Y0266*
X03769Y02663*
X03773Y0266*
X03779Y02659*
X03783Y02656*
Y02646*
X03778Y02643*
X03773Y02644*
X03766*
X03758Y02641*
X03756Y02639*
X03751Y0264*
X03751Y02641*
X03746Y02646*
X03738Y02649*
X03731*
X03723Y02646*
X03718Y02641*
X03715Y02633*
Y02632*
X03681Y02599*
X03568*
X03565Y02602*
X03564Y02609*
X03561Y02612*
X03564Y02616*
X03565Y02622*
X03564Y02628*
X0356Y02634*
X03555Y02637*
X03549Y02638*
X0351*
X03509Y02638*
X03502*
X03498Y02643*
X03499Y02646*
Y02653*
X03496Y02661*
X03498Y02666*
X03501Y02668*
X03506Y02673*
X03509Y02681*
Y02688*
X03506Y02696*
X03506Y02697*
Y02908*
X03504Y02914*
X03501Y02919*
X03427Y02993*
Y03027*
X03368*
Y02972*
X03403*
X03423Y02952*
X03421Y02947*
X03418*
X03363*
Y02892*
X03391*
Y02722*
X03392Y02716*
X03395Y02711*
X0346Y02647*
Y02646*
X03461Y02643*
X03457Y02638*
X03439*
X03436Y02641*
X03428Y02644*
X03421*
X03413Y02641*
X03408Y02636*
X03405Y02628*
Y02621*
X03408Y02613*
X03413Y02608*
X03421Y02605*
X03428*
X03432Y02606*
X03435*
X03435Y02606*
X03471*
X03491*
X03494Y02602*
X03495Y02596*
X03498Y02593*
X03495Y02589*
X03494Y02583*
X03491Y02579*
X03383*
X03377Y02578*
X03372Y02574*
X03293Y02496*
X03162*
X03161Y02496*
X03153Y02499*
X03148*
Y02509*
X03041*
Y02504*
X02711*
X02633Y02582*
X02633Y02583*
X02632Y02584*
X02632Y02585*
X02632Y02586*
X02632Y02587*
Y02591*
X0263Y02601*
X02625Y02609*
X02618Y02616*
X02609Y02621*
X02599Y02624*
X0259*
X0258Y02621*
X02571Y02616*
X02564Y02609*
X0256Y02601*
X02557Y02591*
Y02581*
X0256Y02572*
X02564Y02563*
X02571Y02556*
X0258Y02551*
X0259Y02549*
X02594*
X02594Y02549*
X02596Y02549*
X02597Y02548*
X02598Y02548*
X02599Y02548*
X02684Y02462*
X02692Y02457*
X02701Y02455*
X03041*
Y0245*
X03148*
Y0246*
X03153*
X03161Y02463*
X03162Y02463*
X033*
X03306Y02465*
X03311Y02468*
X0339Y02547*
X03418*
X03421Y02542*
X0342Y02538*
Y02531*
X03423Y02523*
X03426Y0252*
X03427Y02516*
X0343Y02511*
X03476Y02466*
X03474Y02461*
X03454*
X03453Y02462*
X03451Y02466*
X03446Y02471*
X03438Y02474*
X03431*
X03423Y02471*
X03418Y02466*
X03415Y02458*
Y02451*
X03416Y02446*
X03413Y02441*
X03315*
X03309Y0244*
X03304Y02437*
X03268Y02401*
X03182*
X03181Y02401*
X03173Y02404*
X03166*
X03158Y02401*
X03158Y02401*
X03153Y02401*
Y02414*
X03046*
Y02409*
X02708*
X02633Y02484*
X02633Y02484*
X02632Y02485*
X02632Y02486*
X02632Y02488*
X02632Y02489*
Y02493*
X0263Y02502*
X02625Y02511*
X02618Y02518*
X02609Y02523*
X02599Y02525*
X0259*
X0258Y02523*
X02571Y02518*
X02564Y02511*
X0256Y02502*
X02557Y02493*
Y02483*
X0256Y02473*
X02564Y02465*
X02571Y02458*
X0258Y02453*
X0259Y0245*
X02594*
X02594Y0245*
X02596Y0245*
X02597Y0245*
X02598Y0245*
X02599Y02449*
X02681Y02367*
X02689Y02362*
X02698Y0236*
X03046*
Y02355*
X03153*
Y02368*
X03158Y02368*
X03158Y02368*
X03166Y02365*
X03173*
X03181Y02368*
X03182Y02368*
X03275*
X03281Y0237*
X03286Y02373*
X03322Y02409*
X03509*
X0351Y02409*
X03549*
X03555Y0241*
X0356Y02414*
X03564Y02419*
X03565Y02425*
X03564Y02432*
X03561Y02435*
X03564Y02439*
X03565Y02445*
X03564Y02451*
X03561Y02455*
X03564Y02458*
X03565Y02465*
X03564Y02471*
X03561Y02475*
X03564Y02478*
X03565Y02484*
X03564Y02491*
X03561Y02494*
X03564Y02498*
X03565Y02504*
X03564Y0251*
X03561Y02514*
X03564Y02517*
X03565Y02524*
X03568Y02527*
X03688*
X03695Y02529*
X037Y02532*
X03772Y02605*
X03773*
X03778Y02606*
X03783Y02603*
Y0256*
X03784Y02554*
X03787Y02549*
X0381Y02527*
Y02526*
X03813Y02518*
X03818Y02513*
X03826Y0251*
X03833*
X03834Y0251*
X03838Y02507*
Y0246*
X0384Y02453*
X03843Y02448*
X03904Y02387*
X03902Y02382*
X03891*
X03885Y02381*
X0388Y02378*
X03822Y02319*
X03821*
X03813Y02316*
X03808Y02311*
X03805Y02303*
Y02296*
X03805Y02294*
X03802Y02289*
X03799Y0229*
X03792Y02289*
X03789Y02286*
X03785Y02289*
X03779Y0229*
X03773Y02289*
X03769Y02286*
X03766Y02289*
X03759Y0229*
X03753Y02289*
X0375Y02286*
X03655Y02381*
X0365Y02384*
X03644Y02386*
X03602*
X03601Y02386*
X03593Y02389*
X03586*
X03578Y02386*
X03573Y02381*
X0357Y02373*
Y02368*
X03565Y02367*
X03564Y02372*
X03561Y02376*
X03564Y0238*
X03565Y02386*
X03564Y02392*
X0356Y02397*
X03555Y02401*
X03549Y02402*
X0351*
X03509Y02402*
X03394*
X03387Y02401*
X03382Y02397*
X0312Y02136*
X0295*
X02943Y02134*
X02938Y02131*
X02873Y02066*
X0287Y02061*
X02868Y02055*
Y02032*
X02866Y0203*
X02863Y02026*
X02862Y02021*
Y01975*
X02863Y0197*
X02866Y01965*
X0287Y01962*
X02876Y01961*
X02893*
X02899Y01962*
X02903Y01965*
X02906Y0197*
X02907Y01973*
X02912*
X02913Y0197*
X02916Y01965*
X0292Y01962*
X02926Y01961*
X02943*
X02949Y01962*
X02953Y01965*
X02956Y0197*
X02957Y01975*
Y02021*
X02956Y02026*
X02953Y0203*
X02953Y02031*
Y02031*
X02954Y02036*
Y02043*
X02951Y02051*
X02946Y02056*
X02938Y02059*
X02931*
X02923Y02056*
X02918Y02051*
X02915Y02043*
Y02036*
X02916Y02031*
Y02031*
X02916Y0203*
X02913Y02026*
X02912Y02023*
X02907*
X02906Y02026*
X02903Y0203*
X02901Y02032*
Y02048*
X02956Y02103*
X03127*
X03133Y02105*
X03138Y02108*
X034Y0237*
X03424*
X03426Y02365*
X03093Y02033*
X0305*
X03049Y02033*
X03043Y02035*
X03026*
X0302Y02033*
X03016Y0203*
X03013Y02026*
X03012Y02021*
Y01975*
X03013Y0197*
X03016Y01965*
X0302Y01962*
X03026Y01961*
X03043*
X03049Y01962*
X03053Y01965*
X03056Y0197*
X03057Y01975*
Y02001*
X031*
X03106Y02002*
X03111Y02005*
X03456Y0235*
X03509*
X0351Y0235*
X03549*
X03555Y02351*
X0356Y02355*
X03564Y0236*
X03565Y02365*
X0357Y02366*
X03571Y02363*
X03573Y02358*
X03578Y02353*
X03586Y0235*
X03593*
X03601Y02353*
X03602Y02353*
X03637*
X03696Y02294*
X03695Y02289*
X03694Y02289*
X0369Y02286*
X03687Y02289*
X03681Y0229*
X03674Y02289*
X03671Y02286*
X03667Y02289*
X03661Y0229*
X03655Y02289*
X03651Y02286*
X03647Y02289*
X03641Y0229*
X03635Y02289*
X03631Y02286*
X03628Y02289*
X03623Y0229*
X03622Y0229*
X03618Y0229*
X03586*
Y02256*
X03586Y02254*
Y02233*
X03573Y02221*
X03532*
X03531Y02221*
X03523Y02224*
X03516*
X03508Y02221*
X03503Y02216*
X035Y02208*
Y02201*
X03503Y02193*
X03508Y02188*
X03516Y02185*
X03523*
X03531Y02188*
X03532Y02188*
X0358*
X03586Y0219*
X03591Y02193*
X03613Y02215*
X03614Y02217*
X03618Y02219*
X03622Y02219*
X03623Y02219*
X03628Y0222*
X03631Y02223*
X03635Y0222*
X03641Y02219*
X03647Y0222*
X03651Y02223*
X03655Y0222*
X03661Y02219*
X03665Y02216*
Y0212*
X03525*
X03521Y02119*
X03517Y02117*
X03515Y02113*
X03514Y0211*
Y01785*
X03515Y01781*
X03517Y01777*
X03521Y01775*
X03525Y01774*
X03708*
Y01773*
X03769*
Y01774*
X0382*
X03823Y01775*
X03827Y01777*
X03829Y01781*
X0383Y01785*
Y0209*
X03834Y02092*
X04142Y01784*
X04147Y01781*
X04153Y0178*
X04171*
Y01745*
X04173Y01738*
X04177Y01732*
X04222Y01687*
X04228Y01683*
X04229Y01683*
Y01659*
X0429*
Y0173*
X04229*
X04208Y01752*
Y01768*
X04256*
Y01823*
X04197*
Y01818*
X04193Y01814*
X04186*
X04179Y01812*
X0416*
X03795Y02177*
Y02216*
X03799Y02219*
X03805Y0222*
X0381Y02224*
X03814Y02229*
X03815Y02235*
Y02263*
X0382Y02266*
X03822Y02264*
Y02235*
X03823Y02229*
X03827Y02224*
X03832Y0222*
X03838Y02219*
X03842Y02216*
Y02157*
X03843Y0215*
X03846Y02145*
X04126Y01866*
X04131Y01862*
X04137Y01861*
X04182*
X04186Y0186*
X04193*
X04197Y01858*
Y0185*
X04256*
Y01905*
X04197*
Y01901*
X04193Y01899*
X04186*
X04178Y01896*
X04175Y01893*
X04144*
X04099Y01938*
X04101Y01942*
X04184*
X04191Y0194*
X04197*
Y01931*
X04256*
Y01986*
X04197*
Y01979*
X04191*
X04183Y01976*
X04181Y01974*
X04097*
X04053Y02018*
X04055Y02023*
X04187*
X04188Y02023*
X04196Y0202*
X04197*
Y02012*
X04256*
Y02067*
X04197*
Y02059*
X04196*
X04188Y02056*
X04187Y02056*
X04056*
X03913Y02199*
Y02234*
X03913Y02235*
Y02274*
X03912Y0228*
X03909Y02285*
X03903Y02289*
X03897Y0229*
X03891Y02289*
X03887Y02286*
X03884Y02289*
X03877Y0229*
X03871Y02289*
X03868Y02286*
X03864Y02289*
X03858Y0229*
X03852Y02289*
X03848Y02286*
X03843Y02292*
Y02292*
X03844Y02296*
Y02297*
X03898Y0235*
X03949*
X0395Y0235*
X03989*
X03995Y02351*
X04Y02355*
X04004Y0236*
X04005Y02366*
X04004Y02372*
X04001Y02376*
X04004Y0238*
X04005Y02386*
X04008Y0239*
X04062*
X04063Y02388*
X04068Y02383*
X04076Y0238*
X04083*
X04091Y02383*
X04096Y02388*
X04099Y02396*
Y02403*
X04096Y02411*
X04096Y02411*
X04101Y02413*
X04106Y02418*
X04109Y02426*
Y02433*
X04106Y02441*
X04108Y02446*
X0411Y02447*
X04116Y02445*
X04123*
X04131Y02448*
X04136Y02453*
X04139Y02461*
Y02465*
X04144Y02467*
X04148Y02463*
X04156Y0246*
X04163*
X04171Y02463*
X04176Y02468*
X04179Y02476*
Y02483*
X04176Y02491*
X04171Y02496*
X04163Y02499*
X04157*
X04151Y025*
X04085*
X04083Y02505*
X0424Y02662*
X04268*
X0427Y02657*
X04218Y02606*
X04215Y02601*
X04213Y02595*
Y02572*
X04213Y02571*
X0421Y02563*
Y02556*
X04213Y02548*
X04218Y02543*
X04226Y0254*
X04233*
X04241Y02543*
X04246Y02548*
X04249Y02556*
Y02563*
X04246Y02571*
X04246Y02572*
Y02588*
X043Y02642*
X04344*
X04351Y02643*
X04356Y02647*
X04359Y02652*
X04361Y02658*
X04359Y02665*
X04357Y02668*
X04359Y02672*
X04361Y02678*
X04359Y02684*
X04357Y02688*
X04359Y02692*
X04361Y02698*
X04359Y02704*
X04357Y02708*
X04359Y02711*
X0436Y02715*
X04361Y02717*
X04365Y0272*
X04368*
X04376Y02723*
X04381Y02728*
X04384Y02736*
Y02743*
X04381Y02751*
X04376Y02756*
X04368Y02759*
X04361*
X0436Y0276*
X04359Y02763*
X04357Y02767*
X04359Y0277*
X04361Y02777*
X04359Y02783*
X04357Y02786*
X04359Y0279*
X04361Y02796*
X04359Y02802*
X04357Y02806*
X04359Y0281*
X04361Y02816*
X04359Y02822*
X04357Y02826*
X04359Y02829*
X04361Y02836*
X04359Y02842*
X04357Y02845*
X04359Y02849*
X04361Y02855*
X04359Y02862*
X04357Y02865*
X04359Y02869*
X04361Y02875*
X04359Y02881*
X04357Y02885*
X04359Y02888*
X04361Y02895*
X04359Y02901*
X04357Y02905*
X04359Y02908*
X04361Y02914*
X04359Y02921*
X04357Y02924*
X04359Y02928*
X04361Y02934*
X04359Y0294*
X04357Y02944*
X04359Y02947*
X04361Y02954*
X04359Y0296*
X04357Y02964*
X04359Y02967*
X04361Y02973*
X04359Y0298*
X04356Y02985*
X04351Y02988*
X04344Y0299*
X04299*
X04298Y02989*
X0427*
X04268Y02992*
X04271Y02997*
X04298*
X04299Y02996*
X04344*
X04351Y02998*
X04356Y03001*
X04359Y03007*
X04361Y03013*
X04359Y03019*
X04356Y03024*
X04351Y03028*
X04344Y03029*
X04299*
X04298Y03029*
X04263*
X04261Y03031*
X04263Y03036*
X04298*
X04299Y03036*
X04344*
X04351Y03037*
X04356Y03041*
X04359Y03046*
X04361Y03052*
X04359Y03058*
X04357Y03062*
X04359Y03066*
X04361Y03072*
X04359Y03078*
X04357Y03082*
X04359Y03085*
X04361Y03092*
X04359Y03098*
X04357Y03101*
X04359Y03105*
X04361Y03111*
X04359Y03117*
X04357Y03121*
X04359Y03125*
X04361Y03131*
X04359Y03137*
X04357Y03141*
X04359Y03144*
X0436Y03149*
X04361Y03151*
X0436Y03154*
Y03186*
X04322*
X04322Y03186*
X0422*
X04209Y03197*
Y03198*
X04206Y03206*
X04201Y03211*
X04193Y03214*
X04186*
X04178Y03211*
X04173Y03206*
X0417Y03198*
Y03191*
X04173Y03183*
X04178Y03178*
X04186Y03175*
X04187*
X0419Y03171*
X04188Y03167*
X04164*
Y0318*
X04055*
Y03174*
X0404*
Y03179*
X03987*
Y0312*
X0404*
Y03125*
X04055*
Y03119*
X04098*
X041Y03114*
X04094Y03108*
X04094Y03108*
X04091Y03107*
X04091Y03107*
X04072*
Y03048*
X04127*
Y03073*
X04149Y03095*
X04154Y03103*
X04156Y03112*
Y03116*
X04159Y03117*
X04164Y03115*
X04165Y03114*
Y03111*
X04168Y03103*
X04168Y03102*
Y0309*
X0417Y03083*
X04173Y03078*
X04211Y03041*
X04216Y03037*
X04218Y03037*
X04221Y03031*
X0422Y03028*
Y03021*
X04223Y03013*
X04228Y03008*
X04236Y03005*
X04237*
X0424Y03002*
X04238Y02996*
X04238Y02996*
X04233Y02991*
X0423Y02983*
Y02983*
X04225Y0298*
X04183Y03022*
X04184Y03026*
Y03033*
X04181Y03041*
X04176Y03046*
X04168Y03049*
X04161*
X04153Y03046*
X04148Y03041*
X04145Y03033*
Y03026*
X04148Y03018*
X0415Y03016*
X04151Y0301*
X04155Y03005*
X0419Y0297*
X04188Y02966*
X04136*
Y03015*
X04086*
Y02964*
X04087*
Y02938*
X04086*
Y02891*
X03758*
X03752Y0289*
X03751Y02889*
X03746*
X03738Y02886*
X03733Y02881*
X0373Y02873*
Y02866*
X03733Y02858*
X03738Y02853*
X03745Y0285*
X03747Y02845*
X037Y02798*
X03696Y028*
Y02818*
X03696Y0282*
Y03037*
Y03037*
X03695Y03043*
X03691Y03048*
X02763Y03977*
Y04015*
G37*
G36*
X02603Y03881D02*
X02518D01*
Y03801*
X02603*
Y03881*
G37*
G36*
X02508Y0391D02*
X0241D01*
Y03847*
X02422*
Y03762*
X02496*
Y03847*
X02508*
Y0391*
G37*
G36*
X02784Y03652D02*
X02777D01*
X02771Y03651*
X02765Y03647*
X0276Y03642*
X02757Y03637*
X02755Y0363*
Y03623*
X02757Y03617*
X0276Y03611*
X02765Y03606*
X02771Y03603*
X02777Y03601*
X02784*
X02791Y03603*
X02796Y03606*
X02801Y03611*
X02805Y03617*
X02806Y03623*
Y0363*
X02805Y03637*
X02801Y03642*
X02796Y03647*
X02791Y03651*
X02784Y03652*
G37*
G36*
X02632Y0363D02*
X02557D01*
Y03555*
X02632*
Y0363*
G37*
G36*
X02897Y03601D02*
X02822D01*
Y03526*
X02897*
Y03601*
G37*
G36*
X02599Y03532D02*
X0259D01*
X0258Y03529*
X02571Y03524*
X02564Y03517*
X0256Y03509*
X02557Y03499*
Y03489*
X0256Y0348*
X02564Y03471*
X02571Y03464*
X0258Y03459*
X0259Y03456*
X02599*
X02609Y03459*
X02618Y03464*
X02625Y03471*
X0263Y0348*
X02632Y03489*
Y03499*
X0263Y03509*
X02625Y03517*
X02618Y03524*
X02609Y03529*
X02599Y03532*
G37*
G36*
X02864Y03503D02*
X02855D01*
X02845Y035*
X02836Y03495*
X02829Y03488*
X02825Y0348*
X02822Y0347*
Y0346*
X02825Y03451*
X02829Y03442*
X02836Y03435*
X02845Y0343*
X02855Y03428*
X02864*
X02874Y0343*
X02883Y03435*
X0289Y03442*
X02895Y03451*
X02897Y0346*
Y0347*
X02895Y0348*
X0289Y03488*
X02883Y03495*
X02874Y035*
X02864Y03503*
G37*
G36*
X02599Y03433D02*
X0259D01*
X0258Y03431*
X02571Y03426*
X02564Y03419*
X0256Y0341*
X02557Y03401*
Y03391*
X0256Y03381*
X02564Y03373*
X02571Y03366*
X0258Y03361*
X0259Y03358*
X02599*
X02609Y03361*
X02618Y03366*
X02625Y03373*
X0263Y03381*
X02632Y03391*
Y03401*
X0263Y0341*
X02625Y03419*
X02618Y03426*
X02609Y03431*
X02599Y03433*
G37*
G36*
X02864Y03404D02*
X02855D01*
X02845Y03402*
X02836Y03397*
X02829Y0339*
X02825Y03381*
X02822Y03372*
Y03362*
X02825Y03352*
X02829Y03344*
X02836Y03337*
X02845Y03332*
X02855Y03329*
X02864*
X02874Y03332*
X02883Y03337*
X0289Y03344*
X02895Y03352*
X02897Y03362*
Y03372*
X02895Y03381*
X0289Y0339*
X02883Y03397*
X02874Y03402*
X02864Y03404*
G37*
G36*
X02599Y03335D02*
X0259D01*
X0258Y03332*
X02571Y03327*
X02564Y0332*
X0256Y03312*
X02557Y03302*
Y03292*
X0256Y03283*
X02564Y03274*
X02571Y03267*
X0258Y03262*
X0259Y0326*
X02599*
X02609Y03262*
X02618Y03267*
X02625Y03274*
X0263Y03283*
X02632Y03292*
Y03302*
X0263Y03312*
X02625Y0332*
X02618Y03327*
X02609Y03332*
X02599Y03335*
G37*
G36*
X02864Y03306D02*
X02855D01*
X02845Y03303*
X02836Y03299*
X02829Y03292*
X02825Y03283*
X02822Y03273*
Y03264*
X02825Y03254*
X02829Y03245*
X02836Y03238*
X02845Y03233*
X02855Y03231*
X02864*
X02874Y03233*
X02883Y03238*
X0289Y03245*
X02895Y03254*
X02897Y03264*
Y03273*
X02895Y03283*
X0289Y03292*
X02883Y03299*
X02874Y03303*
X02864Y03306*
G37*
G36*
X03626Y03427D02*
X03563D01*
Y03316*
X0357*
Y03264*
X03557Y03252*
X03552Y03244*
X0355Y03235*
X03552Y03225*
X03557Y03217*
X03565Y03212*
X03575Y0321*
X03584Y03212*
X03592Y03217*
X03612Y03237*
X03617Y03245*
X03619Y03255*
Y03316*
X03626*
Y03427*
G37*
G36*
X02599Y03236D02*
X0259D01*
X0258Y03234*
X02571Y03229*
X02564Y03222*
X0256Y03213*
X02557Y03204*
Y03194*
X0256Y03184*
X02564Y03176*
X02571Y03169*
X0258Y03164*
X0259Y03161*
X02599*
X02609Y03164*
X02618Y03169*
X02625Y03176*
X0263Y03184*
X02632Y03194*
Y03204*
X0263Y03213*
X02625Y03222*
X02618Y03229*
X02609Y03234*
X02599Y03236*
G37*
G36*
X03361Y03112D02*
X03302D01*
Y03109*
X03292*
Y03112*
X03236*
Y03057*
X03292*
Y0306*
X03302*
Y03057*
X03361*
Y03112*
G37*
G36*
X02599Y03138D02*
X0259D01*
X0258Y03135*
X02571Y0313*
X02564Y03123*
X0256Y03115*
X02557Y03105*
Y03095*
X0256Y03086*
X02564Y03077*
X02571Y0307*
X0258Y03065*
X0259Y03063*
X02599*
X02609Y03065*
X02618Y0307*
X02625Y03077*
X0263Y03086*
X02632Y03095*
Y03105*
X0263Y03115*
X02625Y03123*
X02618Y0313*
X02609Y03135*
X02599Y03138*
G37*
G36*
X03292Y03029D02*
X03236D01*
Y02974*
X03292*
Y02976*
X03302*
Y02972*
X03361*
Y03027*
X03302*
Y03025*
X03292*
Y03029*
G37*
G36*
X03356Y02947D02*
X03297D01*
Y02944*
X03289*
Y02947*
X03233*
Y02892*
X03289*
Y02895*
X03297*
Y02892*
X03356*
Y02947*
G37*
G36*
X02824Y0289D02*
X02815D01*
X02805Y02888*
X02796Y02883*
X02789Y02876*
X02785Y02867*
X02782Y02858*
Y02848*
X02785Y02838*
X02789Y0283*
X02796Y02823*
X02805Y02818*
X02815Y02815*
X02824*
X02834Y02818*
X02843Y02823*
X0285Y0283*
X02855Y02838*
X02857Y02848*
Y02858*
X02855Y02867*
X0285Y02876*
X02843Y02883*
X02834Y02888*
X02824Y0289*
G37*
G36*
X02857Y02792D02*
X02782D01*
Y02717*
X02857*
Y0273*
X0297*
X03007Y02692*
X03015Y02687*
X03025Y02685*
X03157*
Y02682*
X03216*
Y02737*
X03157*
Y02734*
X03034*
X02997Y02772*
X02989Y02777*
X0298Y02779*
X02857*
Y02792*
G37*
G36*
X03275Y02845D02*
X03214D01*
Y02774*
X03221*
Y02716*
X03223Y02706*
X03223Y02705*
Y02682*
X03261*
X03263Y02682*
X03264*
X03268Y02678*
X03276Y02675*
X03283*
X03291Y02678*
X03296Y02683*
X03299Y02691*
Y02698*
X03296Y02706*
X03291Y02711*
X03283Y02714*
X03282*
Y02737*
X03269*
Y02774*
X03275*
Y02845*
G37*
G36*
X02599Y02722D02*
X0259D01*
X0258Y0272*
X02571Y02715*
X02564Y02708*
X0256Y02699*
X02557Y0269*
Y0268*
X0256Y0267*
X02564Y02662*
X02571Y02655*
X0258Y0265*
X0259Y02647*
X02599*
X02609Y0265*
X02618Y02655*
X02625Y02662*
X0263Y0267*
X02632Y0268*
Y0269*
X0263Y02699*
X02625Y02708*
X02618Y02715*
X02609Y0272*
X02599Y02722*
G37*
G36*
X02983Y02599D02*
X02876D01*
Y02594*
X0284*
X0283Y02592*
X02822Y02587*
X02817Y02579*
X02815Y0257*
X02817Y0256*
X02822Y02552*
X0283Y02547*
X0284Y02545*
X02876*
Y0254*
X02983*
Y02545*
X02985*
X02994Y02547*
X03002Y02552*
X03002Y02553*
X03163*
X03163Y02553*
X03171Y0255*
X03178*
X03186Y02553*
X03191Y02558*
X03194Y02566*
Y02573*
X03191Y02581*
X03186Y02586*
X03178Y02589*
X03171*
X03163Y02586*
X03163Y02586*
X03002*
X03002Y02587*
X02994Y02592*
X02985Y02594*
X02983*
Y02599*
G37*
G36*
X03549Y02343D02*
X0351D01*
X03509Y02343*
X03502*
X03496Y02342*
X03491Y02338*
X0347Y02318*
X03467Y02313*
X03466Y02307*
Y02297*
X03465Y02296*
X03463Y0229*
X03465Y02283*
X03467Y0228*
X03468Y02278*
X03473Y02273*
X03481Y0227*
X03488*
X03496Y02273*
X03501Y02278*
X03504Y02286*
Y02293*
X03501Y02301*
X035Y02302*
X03509Y02311*
X03509*
X0351Y02311*
X03549*
X03555Y02312*
X0356Y02315*
X03564Y02321*
X03565Y02327*
X03564Y02333*
X0356Y02338*
X03555Y02342*
X03549Y02343*
G37*
G36*
X02599Y02427D02*
X0259D01*
X0258Y02425*
X02571Y0242*
X02564Y02413*
X0256Y02404*
X02557Y02394*
Y02385*
X0256Y02375*
X02564Y02366*
X02571Y02359*
X0258Y02355*
X0259Y02352*
X02594*
X02594Y02352*
X02596Y02352*
X02597Y02352*
X02598Y02351*
X02599Y02351*
X02617Y02333*
X02615Y02329*
X02557*
Y02254*
X02632*
Y02311*
X02637Y02313*
X02677Y02272*
X02685Y02267*
X02695Y02265*
X03046*
Y0226*
X03153*
Y02273*
X03158Y02273*
X03158Y02273*
X03166Y0227*
X03173*
X03181Y02273*
X03186Y02278*
X03189Y02286*
Y02293*
X03186Y02301*
X03181Y02306*
X03173Y02309*
X03166*
X03158Y02306*
X03158Y02306*
X03153Y02306*
Y02319*
X03046*
Y02314*
X02704*
X02633Y02385*
X02633Y02386*
X02632Y02387*
X02632Y02388*
X02632Y0239*
X02632Y0239*
Y02394*
X0263Y02404*
X02625Y02413*
X02618Y0242*
X02609Y02425*
X02599Y02427*
G37*
G36*
X02903Y02249D02*
X02896D01*
X02888Y02246*
X02883Y02241*
X0288Y02233*
Y02226*
X02883Y02218*
X02888Y02213*
X02896Y0221*
X02903*
X02911Y02213*
X02916Y02218*
X02919Y02226*
Y02233*
X02916Y02241*
X02911Y02246*
X02903Y02249*
G37*
G36*
X02554Y01835D02*
X02545D01*
X02535Y01833*
X02526Y01828*
X02519Y01821*
X02515Y01812*
X02512Y01803*
Y01793*
X02515Y01783*
X02519Y01775*
X02526Y01768*
X02535Y01763*
X02545Y0176*
X02549*
X02549Y0176*
X02556Y0176*
X02559Y0176*
X02561Y01759*
X02563Y01759*
X02563Y01759*
X02573Y01749*
X02563Y01739*
X02563Y01739*
X02561Y01738*
X02559Y01738*
X02553Y01737*
X0255Y01737*
X02549Y01737*
X02545*
X02535Y01735*
X02526Y0173*
X02519Y01723*
X02515Y01714*
X02512Y01704*
Y01695*
X02515Y01685*
X02519Y01676*
X02526Y01669*
X02535Y01665*
X02545Y01662*
X02554*
X02564Y01665*
X02573Y01669*
X0258Y01676*
X02585Y01685*
X02587Y01695*
Y01699*
X02587Y01699*
X02587Y01706*
X02588Y01709*
X02588Y01711*
X02589Y01713*
X02589Y01713*
X02594Y01719*
X02753*
X0284Y01632*
X02846Y01628*
X02853Y01626*
X02949*
X02955Y01628*
X02961Y01632*
X02984Y01655*
X02988Y0166*
X02989Y01667*
Y01683*
X03015*
Y01746*
X02989*
Y01754*
X02993*
X02999Y01756*
X03003Y01759*
X03006Y01763*
X03007Y01766*
X03012*
X03013Y01763*
X03016Y01759*
X0302Y01756*
X03026Y01754*
X03043*
X03049Y01756*
X03053Y01759*
X03056Y01763*
X03057Y01769*
Y01814*
X03056Y01819*
X03053Y01824*
X03049Y01827*
X03043Y01828*
X03026*
X0302Y01827*
X03016Y01824*
X03013Y01819*
X03012Y01816*
X03007*
X03006Y01819*
X03003Y01824*
X02999Y01827*
X02993Y01828*
X02976*
X0297Y01827*
X02966Y01824*
X02963Y01819*
X02962Y01816*
X02957*
X02956Y01819*
X02953Y01824*
X02949Y01827*
X02943Y01828*
X02926*
X0292Y01827*
X02916Y01824*
X02913Y01819*
X02912Y01816*
X02907*
X02906Y01819*
X02903Y01824*
X02899Y01827*
X02893Y01828*
X02876*
X0287Y01827*
X02866Y01824*
X02863Y01819*
X02862Y01814*
Y01769*
X02863Y01763*
X02866Y01759*
X0287Y01756*
X02876Y01754*
X02893*
X02899Y01756*
X02903Y01759*
X02906Y01763*
X02907Y01766*
X02912*
X02913Y01763*
X02916Y01759*
X0292Y01756*
X02926Y01754*
X0293*
Y01746*
X02904*
Y01686*
X0287*
X02783Y01773*
X02777Y01777*
X0277Y01779*
X02594*
X02589Y01784*
X02589Y01784*
X02588Y01786*
X02588Y01789*
X02587Y01794*
X02587Y01798*
X02587Y01799*
Y01803*
X02585Y01812*
X0258Y01821*
X02573Y01828*
X02564Y01833*
X02554Y01835*
G37*
G36*
X02587Y01639D02*
X02512D01*
Y01564*
X02587*
Y01639*
G37*
%LNpcb_copper_signal_top-3*%
%LPD*%
G36*
X0275Y03977D02*
X0275Y03976D01*
X0275Y03975*
X02751Y03974*
X02751Y03973*
X02752Y03972*
X02753Y03971*
X02754Y03969*
X02757Y03966*
X02751Y0396*
X0275Y03962*
X02747Y03964*
X02746Y03965*
X02744Y03966*
X02743Y03966*
X02742Y03966*
X02742*
X02741Y03966*
X0274Y03966*
X02751Y03977*
X0275Y03977*
G37*
G36*
X02591Y03973D02*
X02591Y03973D01*
X02592Y03972*
X02593Y03972*
X02594Y03971*
X02595Y03971*
X02597Y03971*
X026Y03971*
X02603Y03971*
Y03959*
X026Y03959*
X02595Y03958*
X02594Y03958*
X02593Y03958*
X02592Y03958*
X02591Y03957*
X02591Y03957*
X02591Y03956*
Y03974*
X02591Y03973*
G37*
G36*
Y03947D02*
X02591Y03947D01*
X02592Y03947*
X02593Y03946*
X02594Y03946*
X02595Y03946*
X02597Y03945*
X026Y03945*
X02603Y03945*
Y03933*
X026Y03933*
X02595Y03933*
X02594Y03933*
X02593Y03932*
X02592Y03932*
X02591Y03932*
X02591Y03931*
X02591Y0393*
Y03948*
X02591Y03947*
G37*
G36*
X0266Y03914D02*
X02665Y03911D01*
X02667Y03909*
X02669Y03908*
X0267Y03908*
X02672Y03907*
X02673Y03907*
X02674Y03908*
X02675Y03908*
X02658Y03892*
X02659Y03893*
X02659Y03894*
X02659Y03895*
X02659Y03896*
X02658Y03898*
X02657Y039*
X02656Y03902*
X02654Y03904*
X0265Y03908*
X02658Y03917*
X0266Y03914*
G37*
G36*
X02751Y03882D02*
X02751Y03881D01*
X02752Y0388*
X02752Y0388*
X02753Y03879*
X02754Y03879*
X02755Y03879*
X02756Y03879*
X02757Y03878*
X02759Y03878*
Y03871*
X02751Y03871*
X02751Y03882*
X02751Y03882*
G37*
G36*
X04199Y03194D02*
X04199Y03193D01*
X042Y03192*
X042Y03191*
X042Y0319*
X04201Y0319*
X04201Y03189*
X04202Y03188*
X04202Y03187*
X04203Y03187*
X04197Y03181*
X04197Y03182*
X04196Y03182*
X04195Y03183*
X04194Y03183*
X04194Y03184*
X04193Y03184*
X04192Y03184*
X04191Y03185*
X0419Y03185*
X0419Y03185*
X04199Y03194*
X04199Y03194*
G37*
G36*
X04295Y03166D02*
X04295Y03166D01*
X04295Y03166*
X04294Y03166*
X04287Y03166*
Y03174*
X04295Y03174*
Y03166*
G37*
G36*
X04067Y03131D02*
X04067Y03132D01*
X04066Y03133*
X04065Y03134*
X04064Y03135*
X04061Y03136*
X04059Y03137*
X04056Y03137*
X04052Y03137*
X04047Y03138*
X04036Y03137*
X04034Y03136*
X04032Y03136*
X0403Y03135*
X04029Y03134*
X04028Y03133*
X04028Y03132*
Y03167*
X04028Y03166*
X04029Y03165*
X0403Y03164*
X04032Y03163*
X04034Y03163*
X04036Y03162*
X04039Y03162*
X04047Y03161*
X04047Y03161*
X04048Y03161*
X04056Y03162*
X04059Y03162*
X04061Y03163*
X04064Y03164*
X04065Y03165*
X04066Y03166*
X04067Y03167*
X04067Y03168*
Y03131*
G37*
G36*
X04152Y03158D02*
X04152Y03157D01*
X04152Y03156*
X04153Y03156*
X04154Y03155*
X04154Y03155*
X04156Y03155*
X04157Y03155*
X04158Y03155*
X0416Y03155*
Y03147*
X04158Y03147*
X04157Y03146*
X04156Y03146*
X04154Y03146*
X04154Y03146*
X04153Y03145*
X04152Y03145*
X04152Y03144*
X04152Y03143*
X04152Y03143*
Y03158*
X04152Y03158*
G37*
G36*
X04231Y03137D02*
X04232Y03136D01*
X04233Y03136*
X04233Y03136*
X04234Y03135*
X04235Y03135*
X04236Y03135*
X04237Y03135*
X04238Y03135*
X04239Y03135*
X0424Y03127*
X04239Y03127*
X04238Y03127*
X04237Y03127*
X04236Y03126*
X04236Y03126*
X04235Y03126*
X04234Y03125*
X04234Y03125*
X04233Y03124*
X04232Y03124*
X04231Y03137*
X04231Y03137*
G37*
G36*
X04149Y03131D02*
X04148Y0313D01*
X04147Y03129*
X04146Y03128*
X04146Y03126*
X04145Y03124*
X04145Y03122*
X04144Y03119*
X04144Y03116*
X04144Y03112*
X0412*
X0412Y03131*
X04151Y03131*
X04149Y03131*
G37*
G36*
X04191Y03107D02*
X0419Y03106D01*
X0419Y03106*
X0419Y03105*
X04189Y03104*
X04189Y03103*
X04189Y03102*
X04189Y03101*
X04188Y03101*
X04188Y031*
X04181*
X04181Y03101*
X0418Y03101*
X0418Y03102*
X0418Y03103*
X0418Y03104*
X0418Y03105*
X04179Y03106*
X04179Y03106*
X04178Y03107*
X04178Y03107*
X04191*
X04191Y03107*
G37*
G36*
X04131Y03095D02*
X04127Y0309D01*
X0412Y03082*
X04117Y03078*
X04115Y03074*
X04113Y03071*
X04113Y03068*
X04113Y03066*
X04113Y03064*
X04115Y03062*
X04083Y03095*
X04086Y03095*
X04089Y03096*
X04092Y03097*
X04095Y03098*
X04099Y03099*
X04102Y03101*
X04105Y03103*
X04108Y03106*
X04111Y03109*
X04115Y03112*
X04131Y03095*
G37*
G36*
X0417Y03016D02*
X04162D01*
Y03017*
X04162Y0302*
X04162Y0302*
X04162Y0302*
X0417Y03021*
X0417Y03016*
G37*
G36*
X04249Y03026D02*
X0425Y03025D01*
X0425Y03024*
X0425Y03024*
X04251Y03023*
X04251Y03022*
X04252Y03021*
X04253Y0302*
X04253Y03019*
X04249Y03012*
X04249Y03013*
X04248Y03014*
X04247Y03014*
X04246Y03014*
X04246Y03015*
X04245Y03015*
X04244Y03015*
X04243Y03015*
X04243Y03015*
X04242Y03015*
X04249Y03027*
X04249Y03026*
G37*
G36*
X03415Y02993D02*
X03415Y02992D01*
X03415Y02991*
X03415Y0299*
X03415Y02989*
X03416Y02988*
X03417Y02987*
X03418Y02985*
X03421Y02982*
X03416Y02976*
X03414Y02978*
X03409Y02982*
X03408Y02983*
X03406Y02984*
X03405Y02984*
X03404Y02984*
X03403Y02984*
X03402Y02984*
X03416Y02993*
X03415Y02993*
G37*
G36*
X04123Y02976D02*
X04124D01*
X04124Y02976*
X04123Y02975*
X04123Y02974*
X04123Y0297*
X04123Y02969*
X04124Y02965*
X04124Y02962*
X04125Y02959*
X04126Y02957*
X04127Y02956*
X04128Y02955*
X04128Y02955*
X04131Y02954*
X04138Y02954*
X04146Y02953*
Y02946*
X04142Y02946*
X04128Y02944*
X04128Y02944*
X04127Y02943*
X04126Y02942*
X04125Y0294*
X04124Y02937*
X04124Y02934*
X04124Y02933*
X04124Y02926*
X04123*
X04123Y02922*
X04119Y02926*
X04098*
X04099Y02926*
X04099Y02927*
X04099Y02928*
X04099Y02932*
X04099Y0295*
X04102Y02952*
X04099*
X04098Y02976*
X04122*
X04123Y02977*
X04123Y02976*
G37*
G36*
X04204Y02927D02*
X04204Y02927D01*
X04204Y02926*
X04204Y02925*
X04205Y02924*
X04205Y02923*
X04205Y02923*
X04206Y02922*
X04207Y02921*
X04207Y02921*
X04201Y02916*
X042Y02916*
X04199Y02917*
X04199Y02918*
X04198Y02918*
X04197Y02918*
X04196Y02919*
X04196Y02919*
X04195Y02919*
X04194Y0292*
X04193Y0292*
X04204Y02928*
X04204Y02927*
G37*
G36*
X03411Y02904D02*
X03411Y02904D01*
X03411Y02902*
X03411Y02896*
X03403*
X03403Y02897*
X03403Y02899*
X03402Y029*
X03402Y02901*
X03402Y02902*
X03401Y02903*
X03401Y02903*
X034Y02904*
X034Y02904*
X03399Y02904*
X03411*
X03411Y02904*
G37*
G36*
X03579Y02761D02*
X0358Y0276D01*
X0358Y02759*
X0358Y02759*
X03581Y02758*
X03581Y02757*
X03582Y02756*
X03583Y02755*
X03583Y02754*
X03579Y02747*
X03579Y02748*
X03578Y02749*
X03577Y02749*
X03576Y02749*
X03576Y0275*
X03575Y0275*
X03574Y0275*
X03573Y0275*
X03573Y0275*
X03572Y0275*
X03579Y02762*
X03579Y02761*
G37*
G36*
X04359Y02731D02*
X04359Y02732D01*
X04358Y02732*
X04357Y02732*
X04356Y02733*
X04355Y02733*
X04355Y02733*
X04354Y02733*
X04352Y02733*
X04351Y02733*
X04349Y02741*
X0435Y02741*
X04351Y02741*
X04352Y02742*
X04353Y02742*
X04353Y02742*
X04354Y02742*
X04355Y02743*
X04355Y02743*
X04356Y02744*
X04356Y02745*
X04359Y02731*
G37*
G36*
X04283Y02724D02*
X04284Y02724D01*
X04284Y02723*
X04285Y02723*
X04286Y02722*
X04286Y02722*
X04287Y02722*
X04288Y02722*
X04289Y02722*
X0429Y02722*
X04288Y02714*
X04287Y02714*
X04286Y02713*
X04285Y02713*
X04284Y02713*
X04283Y02713*
X04282Y02713*
X04281Y02712*
X04281Y02712*
X0428Y02711*
X04283Y02725*
X04283Y02724*
G37*
G36*
X03493Y02698D02*
X03494Y02698D01*
X03494Y02697*
X03494Y02696*
X03494Y02695*
X03495Y02694*
X03495Y02693*
X03495Y02693*
X03496Y02692*
X03496Y02692*
X03483*
X03483Y02692*
X03484Y02693*
X03484Y02693*
X03485Y02694*
X03485Y02695*
X03485Y02696*
X03485Y02697*
X03485Y02698*
X03486Y02698*
X03486Y02699*
X03493*
X03493Y02698*
G37*
G36*
X04028Y0266D02*
X04027Y0266D01*
X04027Y0266*
X04027Y0266*
X04027Y02659*
X04027Y02659*
X04026Y02658*
X04026Y02658*
X04026Y02657*
X04026Y02656*
X04018Y02656*
Y02657*
X04018Y02661*
X04018Y02662*
X04018Y02662*
X04018Y02662*
X04018Y02662*
X04028Y0266*
G37*
G36*
X03472Y02662D02*
X03473Y02662D01*
X03474Y02661*
X03475Y02661*
X03475Y0266*
X03476Y0266*
X03477Y0266*
X03478Y02659*
X03479Y02659*
X03479Y02659*
X0347Y0265*
X0347Y0265*
X0347Y02651*
X03469Y02652*
X03469Y02653*
X03469Y02654*
X03468Y02654*
X03468Y02655*
X03467Y02656*
X03467Y02657*
X03466Y02657*
X03472Y02663*
X03472Y02662*
G37*
G36*
X03998Y02626D02*
X03993Y02621D01*
X03982Y02626*
X03983Y02626*
X03983Y02626*
X03984Y02626*
X03985Y02626*
X03986Y02627*
X03988Y02627*
X03989Y02628*
X0399Y02629*
X03992Y0263*
X03993Y02632*
X03998Y02626*
G37*
G36*
X03734Y0262D02*
X03734Y0262D01*
X03733Y0262*
X03732Y02619*
X03731Y02619*
X0373Y02619*
X0373Y02618*
X03729Y02618*
X03728Y02617*
X03727Y02617*
X03727Y02616*
X03721Y02622*
X03722Y02622*
X03722Y02623*
X03723Y02624*
X03723Y02625*
X03724Y02625*
X03724Y02626*
X03724Y02627*
X03725Y02628*
X03725Y02629*
X03725Y02629*
X03734Y0262*
G37*
G36*
X03769Y02615D02*
X03769Y02615D01*
X03768Y02615*
X03767Y02614*
X03766Y02614*
X03765Y02614*
X03765Y02613*
X03764Y02613*
X03763Y02612*
X03762Y02612*
X03762Y02611*
X03756Y02617*
X03757Y02617*
X03757Y02618*
X03758Y02619*
X03758Y0262*
X03759Y0262*
X03759Y02621*
X03759Y02622*
X0376Y02623*
X0376Y02624*
X0376Y02624*
X03769Y02615*
G37*
G36*
X0403Y02601D02*
X04031Y026D01*
X04032Y026*
X04033Y026*
X04033Y02599*
X04034Y02599*
X04035Y02599*
X04036Y02599*
X04036Y02599*
X04037Y02599*
X0403Y02587*
X0403Y02588*
X04029Y02589*
X04029Y0259*
X04029Y0259*
X04028Y02591*
X04028Y02592*
X04027Y02593*
X04026Y02594*
X04026Y02595*
X0403Y02602*
X0403Y02601*
G37*
G36*
X03868Y02567D02*
X03867Y02567D01*
X03867Y02566*
X03866Y02565*
X03866Y02564*
X03865Y02564*
X03865Y02563*
X03865Y02562*
X03864Y02561*
X03864Y0256*
X03864Y0256*
X03855Y02569*
X03855Y02569*
X03856Y02569*
X03857Y0257*
X03858Y0257*
X03859Y0257*
X03859Y02571*
X0386Y02571*
X03861Y02572*
X03862Y02572*
X03862Y02573*
X03868Y02567*
G37*
G36*
X03847Y02572D02*
X03848Y02572D01*
X03849Y02571*
X0385Y02571*
X0385Y0257*
X03851Y0257*
X03852Y0257*
X03853Y02569*
X03854Y02569*
X03854Y02569*
X03845Y0256*
X03845Y0256*
X03845Y02561*
X03844Y02562*
X03844Y02563*
X03844Y02564*
X03843Y02564*
X03843Y02565*
X03842Y02566*
X03842Y02567*
X03841Y02567*
X03847Y02573*
X03847Y02572*
G37*
G36*
X02622Y02584D02*
X02622Y02582D01*
X02623Y0258*
X02624Y02578*
X02625Y02576*
X02626Y02574*
X02627Y02572*
X02628Y0257*
X0263Y02567*
X02632Y02565*
X02615Y02549*
X02613Y02551*
X02611Y02552*
X02609Y02554*
X02607Y02555*
X02605Y02556*
X02603Y02557*
X02601Y02558*
X02599Y02558*
X02597Y02559*
X02595Y02559*
X02622Y02586*
X02622Y02584*
G37*
G36*
X03861Y02552D02*
X0386Y02551D01*
X0386Y02551*
X0386Y0255*
X03859Y02549*
X03859Y02548*
X03859Y02547*
X03859Y02546*
X03858Y02546*
X03858Y02545*
X03851*
X03851Y02546*
X0385Y02546*
X0385Y02547*
X0385Y02548*
X0385Y02549*
X0385Y0255*
X03849Y02551*
X03849Y02551*
X03848Y02552*
X03848Y02552*
X03861*
X03861Y02552*
G37*
G36*
X03822Y02542D02*
X03823Y02542D01*
X03824Y02541*
X03825Y02541*
X03825Y0254*
X03826Y0254*
X03827Y0254*
X03828Y02539*
X03829Y02539*
X03829Y02539*
X0382Y0253*
X0382Y0253*
X0382Y02531*
X03819Y02532*
X03819Y02533*
X03819Y02534*
X03818Y02534*
X03818Y02535*
X03817Y02536*
X03817Y02537*
X03816Y02537*
X03822Y02543*
X03822Y02542*
G37*
G36*
X03883Y02518D02*
X03884Y02518D01*
X03884Y02517*
X03884Y02516*
X03884Y02515*
X03885Y02514*
X03885Y02513*
X03885Y02513*
X03886Y02512*
X03886Y02512*
X03873*
X03873Y02512*
X03874Y02513*
X03874Y02513*
X03875Y02514*
X03875Y02515*
X03875Y02516*
X03875Y02517*
X03875Y02518*
X03876Y02518*
X03876Y02519*
X03883*
X03883Y02518*
G37*
G36*
X03886Y02497D02*
X03885Y02496D01*
X03885Y02496*
X03885Y02495*
X03884Y02494*
X03884Y02493*
X03884Y02492*
X03884Y02491*
X03883Y02491*
X03883Y0249*
X03876*
X03876Y02491*
X03875Y02491*
X03875Y02492*
X03875Y02493*
X03875Y02494*
X03875Y02495*
X03874Y02496*
X03874Y02496*
X03873Y02497*
X03873Y02497*
X03886*
X03886Y02497*
G37*
G36*
X0415Y02477D02*
X0415Y02478D01*
X04149Y02478*
X04149Y02479*
X04149Y02479*
X04148Y0248*
X04147Y0248*
X04147Y0248*
X04146Y0248*
X04145Y0248*
X04144Y0248*
X04145Y02488*
X04156Y02489*
X0415Y02477*
G37*
G36*
X03157Y02486D02*
X03158Y02485D01*
X03158Y02485*
X03159Y02485*
X0316Y02484*
X03161Y02484*
X03162Y02484*
X03163Y02484*
X03163Y02483*
X03164Y02483*
Y02476*
X03163Y02476*
X03163Y02475*
X03162Y02475*
X03161Y02475*
X0316Y02475*
X03159Y02475*
X03158Y02474*
X03158Y02474*
X03157Y02473*
X03157Y02473*
Y02486*
X03157Y02486*
G37*
G36*
X03136Y02487D02*
X03136Y02486D01*
X03136Y02485*
X03137Y02485*
X03138Y02484*
X03139Y02484*
X03139Y02484*
X03139Y02484*
X0314Y02485*
X03141Y02485*
X03141Y02485*
X03142Y02486*
X03142Y02486*
Y02483*
X03144Y02483*
Y02476*
X03142Y02476*
Y02473*
X03142Y02473*
X03141Y02474*
X03141Y02474*
X0314Y02475*
X03139Y02475*
X03139Y02475*
X03139Y02475*
X03138Y02475*
X03137Y02474*
X03136Y02474*
X03136Y02473*
X03136Y02472*
X03136Y02472*
Y02476*
X03136Y02476*
X03135Y02476*
Y02483*
X03136Y02483*
X03136Y02483*
Y02487*
X03136Y02487*
G37*
G36*
X03053Y02462D02*
X03053Y02463D01*
X03052Y02464*
X03051Y02465*
X03049Y02466*
X03047Y02466*
X03045Y02467*
X03042Y02467*
X03034Y02468*
X0303Y02468*
Y02491*
X03034Y02491*
X03045Y02492*
X03047Y02493*
X03049Y02493*
X03051Y02494*
X03052Y02495*
X03053Y02496*
X03053Y02497*
Y02462*
G37*
G36*
X04112Y02458D02*
X04112Y02458D01*
X04111Y02459*
X0411Y02459*
X0411Y0246*
X04109Y0246*
X04108Y0246*
X04107Y0246*
X04106Y02461*
X04105Y02461*
X04105Y02461*
X04105Y02469*
X04106Y02469*
X04107Y02469*
X04107Y02469*
X04108Y02469*
X04109Y02469*
X0411Y0247*
X04111Y0247*
X04111Y0247*
X04112Y02471*
X04113Y02472*
X04112Y02458*
G37*
G36*
X02622Y02486D02*
X02622Y02483D01*
X02623Y02481*
X02624Y02479*
X02625Y02477*
X02626Y02475*
X02627Y02473*
X02628Y02471*
X0263Y02469*
X02632Y02467*
X02615Y0245*
X02613Y02452*
X02611Y02454*
X02609Y02455*
X02607Y02457*
X02605Y02458*
X02603Y02459*
X02601Y0246*
X02599Y0246*
X02597Y0246*
X02595Y0246*
X02622Y02488*
X02622Y02486*
G37*
G36*
X04086Y0242D02*
X04085Y02421D01*
X04085Y02421*
X04084Y02421*
X04082Y02421*
X04079Y02421*
X04075Y02421*
X04074Y02429*
X04075Y02429*
X04076Y02429*
X04077Y0243*
X04077Y0243*
X04078Y0243*
X04079Y0243*
X04079Y02431*
X0408Y02431*
X0408Y02432*
X0408Y02433*
X04086Y0242*
G37*
G36*
X03177Y02391D02*
X03178Y0239D01*
X03178Y0239*
X03179Y0239*
X0318Y02389*
X03181Y02389*
X03182Y02389*
X03183Y02389*
X03183Y02388*
X03184Y02388*
Y02381*
X03183Y02381*
X03183Y0238*
X03182Y0238*
X03181Y0238*
X0318Y0238*
X03179Y0238*
X03178Y02379*
X03178Y02379*
X03177Y02378*
X03177Y02378*
Y02391*
X03177Y02391*
G37*
G36*
X03162Y02378D02*
X03162Y02378D01*
X03161Y02379*
X03161Y02379*
X0316Y0238*
X03159Y0238*
X03158Y0238*
X03157Y0238*
X03156Y0238*
X03156Y02381*
X03155Y02381*
Y02388*
X03156Y02388*
X03156Y02389*
X03157Y02389*
X03158Y02389*
X03159Y02389*
X0316Y0239*
X03161Y0239*
X03161Y0239*
X03162Y02391*
X03162Y02391*
Y02378*
G37*
G36*
X03141Y02392D02*
X03141Y02391D01*
X03141Y0239*
X03142Y0239*
X03143Y02389*
X03144Y02389*
X03145Y02389*
X03146Y02389*
X03147Y02388*
X03149Y02388*
Y02381*
X03147Y02381*
X03146Y0238*
X03145Y0238*
X03144Y0238*
X03143Y0238*
X03142Y02379*
X03141Y02379*
X03141Y02378*
X03141Y02377*
X03141Y02377*
Y02392*
X03141Y02392*
G37*
G36*
X03058Y02367D02*
X03058Y02368D01*
X03057Y02369*
X03056Y0237*
X03054Y02371*
X03052Y02371*
X0305Y02372*
X03047Y02372*
X03039Y02373*
X03035Y02373*
Y02396*
X03039Y02396*
X0305Y02397*
X03052Y02398*
X03054Y02398*
X03056Y02399*
X03057Y024*
X03058Y02401*
X03058Y02402*
Y02367*
G37*
G36*
X03597Y02376D02*
X03598Y02375D01*
X03598Y02375*
X03599Y02375*
X036Y02374*
X03601Y02374*
X03602Y02374*
X03603Y02374*
X03603Y02373*
X03604Y02373*
Y02366*
X03603Y02366*
X03603Y02365*
X03602Y02365*
X03601Y02365*
X036Y02365*
X03599Y02365*
X03598Y02364*
X03598Y02364*
X03597Y02363*
X03597Y02363*
Y02376*
X03597Y02376*
G37*
G36*
X03838Y02307D02*
X03837Y02307D01*
X03837Y02306*
X03836Y02305*
X03836Y02304*
X03835Y02304*
X03835Y02303*
X03835Y02302*
X03834Y02301*
X03834Y023*
X03834Y023*
X03825Y02309*
X03825Y02309*
X03826Y02309*
X03827Y0231*
X03828Y0231*
X03829Y0231*
X03829Y02311*
X0383Y02311*
X03831Y02312*
X03832Y02312*
X03832Y02313*
X03838Y02307*
G37*
G36*
X03832Y02293D02*
X03832Y02292D01*
X03831Y02292*
X03831Y02291*
X03831Y02291*
X03831Y0229*
X03831Y02288*
X03831Y02286*
X03823Y02285*
X03823Y02286*
X03823Y02287*
X03823Y02287*
X03822Y02288*
X03822Y02289*
X03822Y02289*
X03822Y0229*
X03821Y0229*
X03821Y0229*
X03821Y0229*
X03832Y02293*
X03832Y02293*
G37*
G36*
X0384Y02277D02*
X03834Y02267D01*
X03834Y02267*
X03834Y02268*
X03834Y02269*
X03834Y0227*
X03834Y02271*
X03833Y02272*
X03832Y02274*
X03831Y02275*
X0383Y02276*
X03828Y02278*
X03835Y02283*
X0384Y02277*
G37*
G36*
X03741D02*
X03736Y02267D01*
X03736Y02267*
X03736Y02268*
X03736Y02269*
X03736Y0227*
X03735Y02271*
X03734Y02272*
X03734Y02274*
X03733Y02275*
X03731Y02276*
X0373Y02278*
X03736Y02283*
X03741Y02277*
G37*
G36*
X03606Y02231D02*
X03606Y02231D01*
X03606Y02231*
X03606Y0223*
X03606Y02229*
X03606Y02227*
X03606Y02227*
X03598*
X03598Y02231*
X03606*
X03606Y02231*
G37*
G36*
X03527Y02211D02*
X03528Y0221D01*
X03528Y0221*
X03529Y0221*
X0353Y02209*
X03531Y02209*
X03532Y02209*
X03533Y02209*
X03533Y02208*
X03534Y02208*
Y02201*
X03533Y02201*
X03533Y022*
X03532Y022*
X03531Y022*
X0353Y022*
X03529Y022*
X03528Y02199*
X03528Y02199*
X03527Y02198*
X03527Y02198*
Y02211*
X03527Y02211*
G37*
G36*
X03679Y02094D02*
X03677Y02092D01*
X03673Y02086*
X03672Y02085*
X03671Y02084*
X03671Y02082*
X0367Y02081*
X0367Y0208*
X03671Y0208*
X03662Y02094*
X03663Y02093*
X03664Y02093*
X03664Y02093*
X03665Y02093*
X03666Y02093*
X03667Y02094*
X03669Y02095*
X0367Y02096*
X03674Y02099*
X03679Y02094*
G37*
G36*
X03802Y02053D02*
X03802Y02053D01*
X03801Y02054*
X03801Y02054*
X038Y02055*
X03799Y02055*
X03798Y02055*
X03797Y02055*
X03796Y02055*
X03796Y02056*
X03795Y02056*
Y02063*
X03796Y02063*
X03796Y02064*
X03797Y02064*
X03798Y02064*
X03799Y02064*
X038Y02065*
X03801Y02065*
X03801Y02065*
X03802Y02066*
X03802Y02066*
Y02053*
G37*
G36*
X03765Y02067D02*
X03766Y02066D01*
X03766Y02065*
X03767Y02065*
X03767Y02064*
X03768Y02064*
X03769Y02064*
X0377Y02064*
X03772Y02063*
X03773Y02063*
Y02056*
X03772Y02056*
X0377Y02055*
X03769Y02055*
X03768Y02055*
X03767Y02055*
X03767Y02054*
X03766Y02054*
X03766Y02053*
X03765Y02052*
X03765Y02052*
Y02067*
X03765Y02067*
G37*
G36*
X04209Y02045D02*
X04209Y02045D01*
X0421Y02044*
X04211Y02044*
X04212Y02044*
X04213Y02044*
X04213Y02043*
X04214Y02043*
Y02036*
X04213Y02036*
X04213Y02035*
X04212Y02035*
X04211Y02035*
X0421Y02035*
X04209Y02035*
X04209Y02034*
Y02032*
X04208Y02032*
X04208Y02033*
X04208Y02034*
X04208Y02034*
X04208Y02034*
X04207Y02033*
X04207Y02033*
Y02035*
X04206Y02035*
X04205Y02035*
X04203Y02035*
X04202Y02036*
X04201Y02036*
Y02043*
X04202Y02043*
X04203Y02044*
X04205Y02044*
X04206Y02044*
X04207Y02044*
Y02046*
X04207Y02046*
X04208Y02045*
X04208Y02045*
X04208Y02045*
X04208Y02046*
X04208Y02047*
X04209Y02047*
Y02045*
G37*
G36*
X0357Y0207D02*
X03571Y02069D01*
X03572Y02068*
X03574Y02067*
X03576Y02067*
X03579Y02066*
X03582Y02065*
X03585Y02065*
X03594Y02065*
Y02041*
X03589Y02041*
X03582Y02041*
X03579Y0204*
X03576Y0204*
X03574Y02039*
X03572Y02038*
X03571Y02037*
X0357Y02036*
X0357Y02034*
Y02072*
X0357Y0207*
G37*
G36*
X04192Y02033D02*
X04192Y02033D01*
X04191Y02034*
X04191Y02034*
X0419Y02035*
X04189Y02035*
X04188Y02035*
X04187Y02035*
X04186Y02035*
X04186Y02036*
X04185Y02036*
Y02043*
X04186Y02043*
X04186Y02044*
X04187Y02044*
X04188Y02044*
X04189Y02044*
X0419Y02045*
X04191Y02045*
X04191Y02045*
X04192Y02046*
X04192Y02046*
Y02033*
G37*
G36*
X03624Y02029D02*
X03624Y02032D01*
X03623Y02034*
X03622Y02035*
X0362Y02037*
X03618Y02038*
X03615Y02039*
X03612Y0204*
X03609Y02041*
X03605Y02041*
X036Y02041*
Y02065*
X03605Y02065*
X03609Y02065*
X03612Y02066*
X03615Y02067*
X03618Y02068*
X0362Y02069*
X03622Y02071*
X03623Y02072*
X03624Y02074*
X03624Y02077*
Y02029*
G37*
G36*
X02888Y02029D02*
X02889Y02027D01*
X02889Y02026*
X02889Y02025*
X02889Y02024*
X0289Y02024*
X0289Y02023*
X02891Y02023*
X02892Y02022*
X02892Y02022*
X02877*
X02877Y02022*
X02878Y02023*
X02879Y02023*
X02879Y02024*
X0288Y02024*
X0288Y02025*
X0288Y02026*
X0288Y02027*
X02881Y02029*
X02881Y0203*
X02888*
X02888Y02029*
G37*
G36*
X0294Y02032D02*
X02941D01*
X02941Y02032*
X02941Y02032*
X02941Y02031*
X02941Y02031*
X02941Y0203*
Y0203*
X02941Y02029*
X02941Y02027*
X02942Y02026*
X02942Y02025*
X02943Y02024*
X02943Y02023*
X02944Y02022*
X02945Y02022*
X02924*
X02925Y02022*
X02926Y02023*
X02926Y02024*
X02927Y02025*
X02928Y02026*
X02928Y02027*
X02928Y02029*
X02928Y0203*
X02928Y0203*
X02928Y02031*
X02928Y02031*
X02928Y02032*
X02928Y02032*
X02928Y02032*
X02929*
X02929Y02034*
X0294*
X0294Y02032*
G37*
G36*
X03045Y02022D02*
X03045Y02021D01*
X03046Y02021*
X03046Y02021*
X03047Y02021*
X03048Y02021*
X0305Y02021*
X03053Y02021*
Y02013*
X03052Y02013*
X0305Y02012*
X03049Y02012*
X03048Y02012*
X03047Y02012*
X03046Y02011*
X03046Y02011*
X03046Y0201*
X03045Y02009*
X03045Y02009*
X03045Y02022*
X03045Y02022*
G37*
G36*
X04209Y01962D02*
X04209Y01962D01*
X0421Y01962*
X04209Y01954*
X04209Y01954*
Y0195*
X04208Y01951*
X04208Y01952*
X04208Y01952*
X04207Y01953*
X04207Y01953*
X04206Y01954*
X04205Y01954*
X04204Y01954*
X04204Y01953*
X04203Y01953*
X04202Y01953*
X04201Y01952*
X04201Y01952*
X04201Y01954*
X04201Y01954*
Y01962*
X04202Y01962*
X04202Y01966*
X04203Y01965*
X04203Y01964*
X04204Y01964*
X04205Y01963*
X04205Y01963*
X04206Y01963*
X04207Y01963*
X04207Y01964*
X04208Y01964*
X04208Y01965*
X04208Y01965*
X04209Y01966*
Y01962*
G37*
G36*
X03569Y02009D02*
X03568Y02007D01*
X03568Y02004*
X03569Y02001*
X0357Y01998*
X03572Y01995*
X03575Y01991*
X03578Y01987*
X03587Y01977*
X0357Y01961*
X03565Y01965*
X03556Y01973*
X03553Y01975*
X03549Y01977*
X03546Y01979*
X03543Y01979*
X03541Y01979*
X03538Y01979*
X03537Y01978*
X0357Y02011*
X03569Y02009*
G37*
G36*
X04188Y01952D02*
X04188Y01952D01*
X04187Y01953*
X04186Y01953*
X04185Y01953*
X04185Y01954*
X04184Y01954*
X04183Y01954*
X04182Y01954*
X04181Y01954*
X0418Y01954*
X04179Y01962*
X0418Y01962*
X04181Y01962*
X04182Y01963*
X04183Y01963*
X04184Y01963*
X04184Y01963*
X04185Y01964*
X04186Y01964*
X04186Y01965*
X04187Y01966*
X04188Y01952*
G37*
G36*
X04209Y01869D02*
X04208Y0187D01*
X04208Y01871*
X04208Y01871*
X04207Y01872*
X04207Y01872*
X04206Y01873*
X04205Y01873*
X04203Y01873*
X04202Y01873*
X04202Y01873*
X042Y01873*
X04199Y01873*
X04198Y01873*
X04198Y01872*
X04197Y01872*
X04196Y01872*
X04195Y01872*
X04195Y01871*
X04198Y01885*
X04198Y01884*
X04199Y01883*
X04199Y01883*
X042Y01882*
X04201Y01882*
X04202Y01882*
X04202Y01881*
X04203Y01881*
X04203*
X04203Y01881*
X04205Y01881*
X04206Y01882*
X04207Y01882*
X04207Y01883*
X04208Y01883*
X04208Y01884*
X04208Y01884*
X04209Y01885*
Y01869*
G37*
G36*
X04184Y01871D02*
X04184Y01872D01*
X04183Y01872*
X04182Y01872*
X04181Y01872*
X04181Y01873*
X0418Y01873*
X04179Y01873*
X04177Y01873*
X04176Y01873*
X04174Y01881*
X04175Y01881*
X04176Y01881*
X04177Y01881*
X04177Y01882*
X04178Y01882*
X04179Y01882*
X0418Y01883*
X0418Y01883*
X04181Y01884*
X04181Y01885*
X04184Y01871*
G37*
G36*
X03671Y01891D02*
X03671Y0189D01*
X03672Y01889*
X03673Y01887*
X03675Y01885*
X03682Y01877*
X03689Y0187*
X03673Y01853*
X0367Y01856*
X0366Y01865*
X03658Y01865*
X03657Y01866*
X03657Y01866*
X03656Y01865*
X03671Y01892*
X03671Y01891*
G37*
G36*
X03761Y01865D02*
X03759Y01865D01*
X03757Y01863*
X03756Y01862*
X03755Y0186*
X03754Y01857*
X03753Y01854*
X03752Y0185*
X03752Y01846*
X03752Y01845*
X03752Y01834*
X03753Y01832*
X03753Y01829*
X03754Y01828*
X03755Y01827*
X03756Y01826*
X03757Y01826*
X03719*
X03721Y01826*
X03723Y01827*
X03724Y01828*
X03725Y01829*
X03726Y01832*
X03727Y01834*
X03727Y01837*
X03728Y01841*
X03728Y01845*
X03728Y01845*
X03728Y01846*
X03727Y01854*
X03727Y01857*
X03726Y0186*
X03725Y01862*
X03723Y01863*
X03722Y01865*
X0372Y01865*
X03718Y01865*
X03764Y01866*
X03761Y01865*
G37*
G36*
X03693Y01845D02*
X03693Y01837D01*
X03694Y01834*
X03694Y01832*
X03695Y01829*
X03696Y01828*
X03697Y01827*
X03698Y01826*
X037Y01826*
X03662*
X03664Y01826*
X03665Y01827*
X03666Y01828*
X03667Y01829*
X03667Y01832*
X03668Y01834*
X03669Y01837*
X03669Y01841*
X03669Y01849*
X03693*
X03693Y01845*
G37*
G36*
X04209Y01783D02*
X04208Y01784D01*
X04208Y01785*
X04207Y01786*
X04207Y01787*
X04206Y01788*
X04204Y01788*
X04203Y01789*
X04201Y01789*
X042Y01789*
X04199Y01789*
X04199Y01789*
X04198Y01789*
X04198Y01788*
X04197Y01788*
X04197Y01788*
X04197Y01789*
X04197*
Y01793*
X04196Y01802*
X04196Y01802*
X04197Y01802*
X04197Y01801*
X04198Y01801*
X04198Y01801*
X04199Y01801*
X04201Y01801*
X04203Y01802*
X04204Y01802*
X04206Y01802*
X04207Y01803*
X04207Y01804*
X04208Y01805*
X04208Y01806*
X04209Y01807*
Y01783*
G37*
G36*
X03622Y01811D02*
X03623Y0181D01*
X03623Y0181*
X03624Y0181*
X03625Y01809*
X03626Y01809*
X03627Y01809*
X03628Y01809*
X03628Y01808*
X03629Y01808*
Y01801*
X03628Y01801*
X03628Y018*
X03627Y018*
X03626Y018*
X03625Y018*
X03624Y018*
X03623Y01799*
X03623Y01799*
X03622Y01798*
X03622Y01798*
Y01811*
X03622Y01811*
G37*
G36*
X03663Y01797D02*
X03662Y01797D01*
X03662Y01798*
X03662Y01799*
X03661Y01799*
X03661Y018*
X0366Y018*
X03659Y018*
X03657Y018*
X03656Y01801*
X03655Y01801*
Y01808*
X03656Y01808*
X03657Y01809*
X03659Y01809*
X0366Y01809*
X03661Y01809*
X03661Y0181*
X03662Y0181*
X03662Y01811*
X03662Y01812*
X03663Y01812*
Y01797*
G37*
G36*
X04182Y01789D02*
X04181Y01789D01*
X04181Y0179*
X0418Y0179*
X04179Y01791*
X04179Y01791*
X04178Y01791*
X04177Y01791*
X04176Y01792*
X04175Y01792*
X04174Y01792*
X04175Y018*
X04176Y018*
X04177Y018*
X04178Y018*
X04179Y018*
X0418Y018*
X04181Y01801*
X04181Y01801*
X04182Y01801*
X04183Y01802*
X04183Y01802*
X04182Y01789*
G37*
G36*
X04196Y01787D02*
X04196Y01787D01*
X04196Y01786*
X04196Y01786*
X04196Y01785*
X04195Y01784*
X04195Y01782*
X04195Y01781*
X04184*
X04184Y01782*
X04183Y01785*
X04183Y01786*
X04183Y01786*
X04183Y01787*
X04183Y01787*
X04183Y01787*
X04196*
X04196Y01787*
G37*
G36*
X04241Y01694D02*
X04241D01*
X0424Y01694*
X04235Y01694*
Y01705*
X04241Y01705*
Y01694*
G37*
G36*
X03613Y03328D02*
X03611Y03327D01*
X0361Y03326*
X03609Y03324*
X03608Y03322*
X03608Y0332*
X03607Y03317*
X03607Y03313*
X03606Y03305*
X03583*
X03583Y03309*
X03582Y03317*
X03581Y0332*
X03581Y03322*
X0358Y03324*
X03579Y03326*
X03578Y03327*
X03576Y03328*
X03575Y03328*
X03614*
X03613Y03328*
G37*
G36*
X03313Y03069D02*
X03313Y0307D01*
X03312Y0307*
X03311Y03071*
X0331Y03071*
X03308Y03072*
X03305Y03072*
X03298Y03073*
X03297Y03073*
X03286Y03072*
X03283Y03071*
X03282Y03071*
X03281Y0307*
X0328Y0307*
X0328Y03069*
Y031*
X0328Y03099*
X03281Y03099*
X03282Y03098*
X03283Y03098*
X03286Y03097*
X03288Y03097*
X03295Y03096*
X03296Y03096*
X03308Y03097*
X0331Y03098*
X03311Y03098*
X03312Y03099*
X03313Y03099*
X03313Y031*
Y03069*
G37*
G36*
X0328Y03016D02*
X03281Y03016D01*
X03282Y03015*
X03283Y03014*
X03286Y03014*
X03288Y03013*
X03291Y03013*
X03297Y03013*
X0331Y03013*
X03311Y03014*
X03312Y03014*
X03313Y03015*
X03313Y03015*
Y02984*
X03313Y02985*
X03312Y02986*
X03311Y02986*
X0331Y02987*
X03308Y02988*
X03305Y02988*
X03302Y02988*
X03297Y02989*
X03283Y02988*
X03282Y02987*
X03281Y02987*
X0328Y02987*
X0328Y02986*
Y03017*
X0328Y03016*
G37*
G36*
X03308Y02904D02*
X03308Y02905D01*
X03307Y02905*
X03306Y02906*
X03305Y02906*
X03303Y02907*
X033Y02907*
X03294Y02908*
X03283Y02907*
X0328Y02906*
X03279Y02906*
X03278Y02905*
X03277Y02905*
X03277Y02904*
Y02935*
X03277Y02934*
X03278Y02934*
X03279Y02933*
X0328Y02933*
X03283Y02932*
X03285Y02932*
X03291Y02931*
X03303Y02932*
X03305Y02933*
X03306Y02933*
X03307Y02934*
X03308Y02934*
X03308Y02935*
Y02904*
G37*
G36*
X02847Y02776D02*
X02848Y02774D01*
X02849Y02772*
X02851Y02771*
X02853Y02769*
X02855Y02768*
X02858Y02767*
X02862Y02767*
X02866Y02766*
X02871Y02766*
Y02743*
X02866Y02743*
X02862Y02742*
X02858Y02742*
X02855Y02741*
X02853Y0274*
X02851Y02738*
X02849Y02737*
X02848Y02735*
X02847Y02733*
X02847Y02731*
Y02778*
X02847Y02776*
G37*
G36*
X03168Y02694D02*
X03168Y02695D01*
X03167Y02695*
X03166Y02696*
X03165Y02696*
X03163Y02697*
X0316Y02697*
X03153Y02698*
X03145Y02698*
Y02721*
X03149Y02721*
X03163Y02722*
X03165Y02723*
X03166Y02723*
X03167Y02724*
X03168Y02724*
X03168Y02725*
Y02694*
G37*
G36*
X03262Y02786D02*
X03261Y02785D01*
X0326Y02784*
X03259Y02782*
X03258Y0278*
X03258Y02777*
X03257Y02774*
X03257Y02771*
X03257Y02762*
X03233*
X03233Y02767*
X03232Y02774*
X03232Y02777*
X03231Y0278*
X03231Y02782*
X0323Y02784*
X03229Y02785*
X03227Y02786*
X03226Y02786*
X03264*
X03262Y02786*
G37*
G36*
X03257Y02744D02*
X03257Y0274D01*
X03258Y02737*
X03259Y02734*
X0326Y02731*
X03261Y02729*
X03262Y02727*
X03264Y02726*
X03266Y02725*
X03268Y02725*
X03235*
X03235Y02725*
X03235Y02726*
X03234Y02727*
X03234Y02729*
X03234Y02731*
X03233Y02737*
X03233Y02749*
X03257*
X03257Y02744*
G37*
G36*
X03257Y02715D02*
X03257Y02714D01*
X03258Y02712*
X03259Y0271*
X03259Y02709*
X0326Y02707*
X03261Y02705*
X03263Y02704*
X03264Y02702*
X03266Y027*
X0326Y02695*
X03258Y02696*
X03255Y02699*
X03254Y027*
X03252Y02701*
X0325Y02702*
X03249Y02703*
X03247Y02703*
X03245Y02704*
X03243Y02704*
X03257Y02717*
X03257Y02715*
G37*
G36*
X03271Y0269D02*
X0327Y02691D01*
X0327Y02692*
X03269Y02692*
X03269Y02692*
X03268Y02693*
X03267Y02693*
X03267Y02693*
X03266Y02694*
X03265Y02694*
X03264Y02694*
X03267Y02702*
X03268Y02702*
X0327Y02702*
X03271Y02702*
X03272Y02702*
X03273Y02702*
X03274Y02703*
X03275Y02703*
X03271Y0269*
G37*
G36*
X02994Y02577D02*
X02995Y02576D01*
X02997Y02576*
X02999Y02575*
X03002Y02575*
X03004Y02574*
X03011Y02574*
X03019Y02573*
Y02566*
X03015Y02566*
X03002Y02564*
X02999Y02564*
X02997Y02563*
X02995Y02563*
X02994Y02562*
X02993Y02561*
Y02564*
X02993Y02564*
X02992Y02563*
X02992Y02563*
Y02576*
X02992Y02576*
X02993Y02575*
X02993Y02575*
Y02578*
X02994Y02577*
G37*
G36*
X03167Y02563D02*
X03167Y02563D01*
X03166Y02564*
X03166Y02564*
X03165Y02565*
X03164Y02565*
X03163Y02565*
X03162Y02565*
X03161Y02565*
X03161Y02566*
X0316Y02566*
Y02573*
X03161Y02573*
X03161Y02574*
X03162Y02574*
X03163Y02574*
X03164Y02574*
X03165Y02575*
X03166Y02575*
X03166Y02575*
X03167Y02576*
X03167Y02576*
Y02563*
G37*
G36*
X02971Y02583D02*
X02971Y02582D01*
X02972Y02582*
X02973Y02582*
X02974Y02582*
X02976Y02582*
X02982Y02581*
X02985Y02581*
Y02558*
X02982Y02558*
X02973Y02557*
X02972Y02557*
X02971Y02557*
X02971Y02556*
X02971Y02556*
Y02583*
X02971Y02583*
G37*
G36*
X02888Y02552D02*
X02888Y02553D01*
X02887Y02554*
X02886Y02555*
X02884Y02556*
X02882Y02556*
X0288Y02557*
X02877Y02557*
X02869Y02558*
X02865Y02558*
Y02581*
X02869Y02581*
X0288Y02582*
X02882Y02583*
X02884Y02583*
X02886Y02584*
X02887Y02585*
X02888Y02586*
X02888Y02587*
Y02552*
G37*
G36*
X03486Y02304D02*
X03486Y02303D01*
X03486Y02302*
X03486Y02302*
X03487Y02301*
X03487Y023*
X03487Y023*
X03488Y02299*
X03489Y02299*
X03489Y02298*
X03476Y02294*
X03476Y02295*
X03477Y02296*
X03477Y02296*
X03477Y02297*
X03477Y02298*
X03478Y023*
X03478Y02301*
X03478Y02303*
X03486Y02305*
X03486Y02304*
G37*
G36*
X02622Y02387D02*
X02622Y02385D01*
X02623Y02383*
X02624Y02381*
X02625Y02379*
X02626Y02377*
X02627Y02375*
X02628Y02373*
X0263Y02371*
X02632Y02369*
X02615Y02352*
X02613Y02354*
X02611Y02356*
X02609Y02357*
X02607Y02358*
X02605Y02359*
X02603Y0236*
X02601Y02361*
X02599Y02362*
X02597Y02362*
X02595Y02362*
X02622Y02389*
X02622Y02387*
G37*
G36*
X03162Y02283D02*
X03162Y02283D01*
X03161Y02284*
X03161Y02284*
X0316Y02285*
X03159Y02285*
X03158Y02285*
X03157Y02285*
X03156Y02285*
X03156Y02286*
X03155Y02286*
Y02293*
X03156Y02293*
X03156Y02294*
X03157Y02294*
X03158Y02294*
X03159Y02294*
X0316Y02295*
X03161Y02295*
X03161Y02295*
X03162Y02296*
X03162Y02296*
Y02283*
G37*
G36*
X03141Y02297D02*
X03141Y02296D01*
X03141Y02295*
X03142Y02295*
X03143Y02294*
X03144Y02294*
X03145Y02294*
X03146Y02294*
X03147Y02293*
X03149Y02293*
Y02286*
X03147Y02286*
X03146Y02285*
X03145Y02285*
X03144Y02285*
X03143Y02285*
X03142Y02284*
X03141Y02284*
X03141Y02283*
X03141Y02282*
X03141Y02282*
Y02297*
X03141Y02297*
G37*
G36*
X03058Y02272D02*
X03058Y02273D01*
X03057Y02274*
X03056Y02275*
X03054Y02276*
X03052Y02276*
X0305Y02277*
X03047Y02277*
X03039Y02278*
X03035Y02278*
Y02301*
X03039Y02301*
X0305Y02302*
X03052Y02303*
X03054Y02303*
X03056Y02304*
X03057Y02305*
X03058Y02306*
X03058Y02307*
Y02272*
G37*
G36*
X02577Y01794D02*
X02578Y01787D01*
X02578Y01784*
X02579Y01782*
X0258Y01779*
X02581Y01777*
X02582Y01775*
X02583Y01773*
X02584Y01771*
X02576Y01763*
X02574Y01764*
X02573Y01766*
X02571Y01767*
X02568Y01768*
X02566Y01769*
X02563Y01769*
X0256Y0177*
X02557Y0177*
X0255Y0177*
X02577Y01798*
X02577Y01794*
G37*
G36*
X02584Y01726D02*
X02583Y01724D01*
X02582Y01723*
X02581Y01721*
X0258Y01718*
X02579Y01716*
X02578Y01713*
X02578Y0171*
X02577Y01707*
X02577Y017*
X0255Y01727*
X02553Y01727*
X0256Y01728*
X02563Y01728*
X02566Y01729*
X02568Y0173*
X02571Y01731*
X02573Y01732*
X02574Y01733*
X02576Y01734*
X02584Y01726*
G37*
%LNpcb_copper_signal_top-4*%
%LPC*%
G36*
X0573Y01828D02*
X05723Y01826D01*
X05717Y01822*
X05713Y01816*
X05711Y0181*
Y01785*
X0571Y01784*
X0571Y01783*
X0571Y01783*
X05709Y01782*
X05708Y01781*
X05708Y0178*
X05708Y0178*
X05708Y01778*
X05707Y01777*
X05708Y01776*
X05708Y01776*
X05708Y01774*
X05708Y01773*
X05709Y01772*
X05709Y01772*
X0571Y01771*
X0571Y0177*
X05711Y01769*
X05711Y01769*
X05712Y01768*
X05713Y01764*
X05717Y01758*
X05727Y01748*
X05732Y01744*
X05739Y01743*
X0579*
X05796Y01744*
X05802Y01748*
X05806Y01754*
X05808Y01761*
X05806Y01768*
X05802Y01774*
X05796Y01778*
X0579Y01779*
X05751*
X05751Y0178*
X05751Y0178*
X05751Y01781*
X0575Y01782*
X05749Y01783*
X05749Y01783*
X05749Y01784*
X05748Y01785*
Y0181*
X05746Y01816*
X05742Y01822*
X05736Y01826*
X0573Y01828*
G37*
%LNpcb_copper_signal_top-5*%
%LPD*%
G36*
X05736Y01802D02*
X05736Y01802D01*
X05736Y01801*
X05736Y01801*
X05736Y018*
X05735Y01799*
X05735Y01797*
X05735Y01796*
X05724*
X05724Y01797*
X05723Y018*
X05723Y01801*
X05723Y01801*
X05723Y01802*
X05723Y01802*
X05723Y01802*
X05736*
X05736Y01802*
G37*
G36*
X05735Y01786D02*
X05736Y01784D01*
X05736Y01783*
X05736Y01781*
X05737Y0178*
X05738Y01779*
X05738Y01778*
X05739Y01777*
X0574Y01777*
X05741Y01777*
X05718*
X05719Y01777*
X0572Y01777*
X05721Y01778*
X05721Y01779*
X05722Y0178*
X05723Y01781*
X05723Y01783*
X05723Y01784*
X05724Y01786*
X05724Y01789*
X05735*
X05735Y01786*
G37*
G54D13*
X0355Y03085D02*
X0356Y03095D01*
X03398Y03085D02*
X0355D01*
X0284Y0257D02*
X02905D01*
X03525Y0363D02*
X03573D01*
X03595Y03608*
X03504Y03371D02*
Y03609D01*
X03525Y0363*
X04015Y03045D02*
X04058D01*
X04005Y03035D02*
X04015Y03045D01*
X04058D02*
Y03067D01*
Y0299D02*
Y03045D01*
X03976Y03088D02*
X03987Y03077D01*
X03966Y03098D02*
X03976Y03088D01*
X03925Y0307D02*
X03943Y03088D01*
X03976*
X0405Y03076D02*
X04058Y03067D01*
X0405Y03076D02*
Y03077D01*
X04058Y02913D02*
Y0299D01*
X0457Y01925D02*
Y01985D01*
X0457Y01984D02*
X04654D01*
X04655Y01983*
X0457Y01985D02*
X0457Y01984D01*
X0434Y0163D02*
Y01695D01*
X0434Y0163D02*
X0434Y0163D01*
X04293Y01746D02*
X0434Y01699D01*
X04293Y01746D02*
Y01796D01*
Y01877*
Y01958*
Y0204*
X03504Y0325D02*
X0352Y03235D01*
X03575D02*
X03595Y03255D01*
X03504Y0325D02*
Y03371D01*
X03595Y03255D02*
Y03371D01*
X03132Y03002D02*
X03205D01*
X0313Y03005D02*
X03132Y03002D01*
X03205Y03085D02*
D01*
Y03002D02*
Y03085D01*
X03198Y0292D02*
Y02995D01*
X03205Y03002*
X03157Y0282D02*
X03164Y02812D01*
X0311Y0282D02*
X03157D01*
X03164Y0281D02*
Y02812D01*
X04435Y01795D02*
X0457D01*
X0474Y01965*
Y021*
X04595Y02245D02*
X0474Y021D01*
X0468Y03264D02*
Y0334D01*
X0469Y03215D02*
Y03255D01*
X0468Y03264D02*
X0469Y03255D01*
X03551Y01996D02*
X03623Y01924D01*
X03635*
X03647Y01913*
Y01901D02*
Y01913D01*
X0355Y01996D02*
X03551D01*
X06178Y02362D02*
X06201Y02385D01*
X06176Y02362D02*
X06178D01*
X06201Y02385D02*
X0649D01*
X065Y0338D02*
X06594D01*
X06595Y0338*
X06315Y04335D02*
X06456D01*
X06289Y04311D02*
X06291D01*
X06315Y04335*
X06496Y04295D02*
X065D01*
X06456Y04335D02*
X06496Y04295D01*
X05765Y03505D02*
X05817D01*
X05775Y0261D02*
X05837D01*
X05862Y01545D02*
Y01657D01*
X0579Y01661D02*
X05858D01*
X05862Y01657*
X05872Y03505D02*
Y03601D01*
X05868Y03605D02*
X05872Y03601D01*
X05805Y03605D02*
X05868D01*
X05825Y0271D02*
X05888D01*
X05892Y0261D02*
Y02706D01*
X05888Y0271D02*
X05892Y02706D01*
X0637Y02246D02*
X06373Y02242D01*
X0637Y02246D02*
Y0225D01*
X06373Y02242D02*
X0649D01*
Y02334*
X065Y04167D02*
Y04244D01*
X06375Y04171D02*
X06378Y04167D01*
X06375Y04171D02*
Y04195D01*
X06378Y04167D02*
X065D01*
Y03272D02*
Y03329D01*
X06375Y03276D02*
X06378Y03272D01*
X065*
X06375Y03276D02*
Y0328D01*
X02701Y0248D02*
X03015D01*
X0307*
X02698Y02385D02*
X0302D01*
X03075*
X02695Y0229D02*
X0302D01*
X03075*
X02954Y0257D02*
X02985D01*
X02595Y0239D02*
X02695Y0229D01*
X02595Y02488D02*
X02698Y02385D01*
X02595Y02586D02*
X02701Y0248D01*
X03245Y02716D02*
Y0281D01*
X03025Y0271D02*
X03186D01*
X0298Y02755D02*
X03025Y0271D01*
X0282Y02755D02*
X0298D01*
X03264Y03085D02*
X03331D01*
X03261Y0292D02*
X03326D01*
X0333Y03001D02*
X03331Y03D01*
X03265Y03001D02*
X0333D01*
X03264Y03002D02*
X03265Y03001D01*
X03966Y03098D02*
Y0315D01*
X03987Y03077D02*
X0405D01*
X04013Y0315D02*
X04083D01*
X03647Y01889D02*
Y01901D01*
X03681Y01805D02*
Y01861D01*
X03665Y01877D02*
X03681Y01861D01*
X03659Y01877D02*
X03665D01*
X03647Y01889D02*
X03659Y01877D01*
X03738Y01805D02*
X0374Y01807D01*
Y01899*
X03742Y01901*
X0355Y02053D02*
X03642D01*
X03647Y02058*
X03541Y0206D02*
X03548Y02053D01*
X0355*
X03737Y01806D02*
X03738Y01805D01*
X04132Y03112D02*
Y03146D01*
X04099Y03077D02*
Y03079D01*
X04132Y03112*
Y03146D02*
X04136Y0315D01*
X04111Y0295D02*
Y0299D01*
Y02913D02*
Y0295D01*
G54D15*
X03641Y02695D02*
Y02913D01*
X03625Y0293D02*
X03641Y02913D01*
X03775Y02815D02*
X04298D01*
X0372Y0276D02*
X03775Y02815D01*
X0384Y02837D02*
X03841Y02836D01*
X04322*
X04322Y02836*
X04298Y02815D02*
X04299Y02816D01*
X04322*
X03889Y02796D02*
X04322D01*
X0388Y0279D02*
X03883D01*
X03889Y02796*
X0377Y0277D02*
X04294D01*
X04299Y02774*
Y02776D02*
X04299Y02777D01*
X03802Y02754D02*
X03821D01*
X04299Y02777D02*
X04322D01*
X038Y02752D02*
X03802Y02754D01*
X03821D02*
X03821Y02755D01*
X03833*
X04299Y02774D02*
Y02776D01*
X0374Y0274D02*
X0377Y0277D01*
X03858Y02695D02*
Y02748D01*
X03858Y02695D02*
X03858Y02695D01*
Y02748D02*
X0386Y0275D01*
X03833Y02755D02*
X03838Y0275D01*
Y02695D02*
Y0275D01*
X03783Y02858D02*
X04297D01*
X04299Y02855D02*
X04322D01*
X04297Y02858D02*
X04299Y02855D01*
X037Y02775D02*
X03783Y02858D01*
X03758Y02875D02*
X04322D01*
X03753Y0287D02*
X03758Y02875D01*
X0375Y0287D02*
X03753D01*
X03877Y02722D02*
X03912Y02757D01*
X04322*
X03877Y02695D02*
Y02722D01*
X03897Y02714D02*
X03912Y02729D01*
X03919*
X0392Y0273*
X03897Y02695D02*
Y02714D01*
X04322Y02895D02*
X04322Y02895D01*
X042Y02895D02*
X04322D01*
X0425Y0308D02*
X04252Y03077D01*
X0426*
X04265Y03072*
X04322*
X04683Y02836D02*
X04685Y02835D01*
X04607Y02836D02*
X04683D01*
X04734Y02825D02*
X04735D01*
X04703Y02855D02*
X04734Y02825D01*
X04855Y02755D02*
X04882Y02782D01*
X04731Y02755D02*
X04855D01*
X04689Y02796D02*
X04731Y02755D01*
X04659Y02757D02*
X04661Y02755D01*
X04665*
X04607Y02757D02*
X04659D01*
X04674Y02717D02*
X04675Y02717D01*
X04682*
X04685Y02715*
X04607Y02717D02*
X04674D01*
X0467Y02565D02*
Y0263D01*
X04607Y02658D02*
X04641D01*
X0467Y0263*
X04322Y02658D02*
X04322Y02658D01*
X04293Y02658D02*
X04322D01*
X0423Y02595D02*
X04293Y02658D01*
X0423Y0256D02*
Y02595D01*
X03369Y02406D02*
X03529D01*
X03355Y02395D02*
X03358D01*
X03369Y02406*
X03438Y02455D02*
X03447Y02445D01*
X03529*
X03435Y02455D02*
X03438D01*
X03499Y02465D02*
X03529D01*
X0344Y02535D02*
X03442Y02532D01*
Y02522D02*
Y02532D01*
Y02522D02*
X03499Y02465D01*
X03245Y02716D02*
X03263Y02698D01*
X03273*
X03276Y02695*
X0328*
X03383Y02563D02*
X03529D01*
X033Y0248D02*
X03383Y02563D01*
X0315Y0248D02*
X033D01*
X0359Y0237D02*
X03644D01*
X0374Y02254D02*
Y02274D01*
X03644Y0237D02*
X0374Y02274D01*
X03818Y02194D02*
X03825Y02188D01*
Y02185D02*
Y02188D01*
X03818Y02194D02*
Y02254D01*
X03435Y023D02*
X03482Y02347D01*
X03529*
X03529Y02406D02*
X03529Y02406D01*
X03315Y02425D02*
X03529D01*
X03394Y02386D02*
X03529D01*
X0424Y03025D02*
X04243D01*
X04254Y03013D02*
X04322D01*
X04243Y03025D02*
X04254Y03013D01*
X04465Y02926D02*
Y02958D01*
Y02905D02*
Y02926D01*
X04322Y03032D02*
X0439D01*
X04465Y02958*
X04322Y02993D02*
X04397D01*
X04465Y02926*
X03743Y0206D02*
X0381D01*
X03742Y02058D02*
X03743Y0206D01*
X03615Y01805D02*
X0368D01*
X03681Y01805*
X04322Y02718D02*
X04322Y02717D01*
X04276Y02718D02*
X04322D01*
X04275Y0272D02*
X04276Y02718D01*
X04223Y02698D02*
X04322D01*
X04378Y02639D02*
X04397Y02657D01*
X04322Y02639D02*
X04378D01*
X04397Y02657D02*
X04399D01*
X04042Y02347D02*
X04075Y02315D01*
X0397Y02347D02*
X04042D01*
X0397Y02327D02*
X04022D01*
X04185Y02165*
X03825Y023D02*
X03891Y02366D01*
X0397*
X0474Y0301D02*
X04885D01*
X04723Y02993D02*
X0474Y0301D01*
X04607Y02993D02*
X04723D01*
X04778Y02973D02*
X04785Y0298D01*
X04607Y02973D02*
X04778D01*
X04785Y0298D02*
X04855D01*
X04607Y03013D02*
X04713D01*
X04739Y03039*
X04719Y02954D02*
X0472Y02955D01*
X04607Y02954D02*
X04719D01*
X04607Y02954D02*
X04607Y02954D01*
X02733Y03984D02*
X02747Y0397D01*
X02733Y03984D02*
Y03985D01*
X02748Y0397D02*
X0368Y03037D01*
Y0282D02*
Y03037D01*
X02747Y0397D02*
X02748D01*
X02747Y03875D02*
X02812D01*
X03662Y03024*
X02733Y03889D02*
Y0389D01*
Y03889D02*
X02747Y03875D01*
X04253Y0298D02*
X04259Y02973D01*
X0425Y0298D02*
X04253D01*
X04259Y02973D02*
X04322D01*
X04195Y02925D02*
X04198D01*
X04208Y02914D02*
X04322D01*
X04198Y02925D02*
X04208Y02914D01*
X04322Y02934D02*
X04322Y02934D01*
X04225Y02934D02*
X04299D01*
X04299Y02934D02*
X04322D01*
X04111Y0295D02*
X0421D01*
X04299Y02934D02*
X04299Y02934D01*
X0421Y0295D02*
X04225Y02934D01*
X04229Y02954D02*
X04322D01*
X04619Y02071D02*
X04654Y02036D01*
X04655*
X04619Y02071D02*
Y02139D01*
X04593Y02165D02*
X04619Y02139D01*
X0419Y01877D02*
X04226D01*
X0419D02*
Y0188D01*
X042Y0204D02*
X04226D01*
X04137Y01877D02*
X0419D01*
X04091Y01958D02*
X04195D01*
Y0196*
Y01958D02*
X04226D01*
X04664Y02934D02*
X04665Y02935D01*
X04607Y02934D02*
X04664D01*
X04607Y03033D02*
X04683D01*
X04607Y03032D02*
X04607Y03033D01*
X04683D02*
X04685Y03035D01*
X04607Y03052D02*
X04607Y03052D01*
X04582Y03052D02*
X04607D01*
X04076Y024D02*
X0408D01*
X0397Y02406D02*
X0407D01*
X04076Y024*
X04151Y02484D02*
X04156Y0248D01*
X0397Y02484D02*
X04151D01*
X04156Y0248D02*
X0416D01*
X04119Y02465D02*
X0412Y02465D01*
X0397Y02465D02*
X04119D01*
X0397Y02425D02*
X04082D01*
X04086Y0243*
X0409*
X03799Y0256D02*
X0383Y0253D01*
X03407Y02722D02*
X0348Y0265D01*
X03393Y0292D02*
X03395D01*
X03407Y02908*
Y02722D02*
Y02908D01*
X0349Y02685D02*
Y02908D01*
X03398Y03D02*
X034D01*
X03412Y02986D02*
X0349Y02908D01*
X034Y03D02*
X03412Y02988D01*
Y02986D02*
Y02988D01*
X03855Y0256D02*
X03878Y02583D01*
X03529Y02543D02*
X03688D01*
X03818Y02596D02*
X03855Y0256D01*
X03529Y02583D02*
X03688D01*
X03688Y02543D02*
X0377Y02625D01*
X03688Y02583D02*
X03735Y0263D01*
X03471Y02622D02*
X03529D01*
X03471D02*
D01*
X03435D02*
X03471D01*
X03615Y02756D02*
Y0276D01*
X03573D02*
X03602Y0273D01*
X0357Y0276D02*
X03573D01*
X03435Y02622D02*
X03435Y02622D01*
X03425Y02625D02*
X03427Y02622D01*
X03435*
X0388Y0248D02*
Y02505D01*
X03855Y0246D02*
Y0256D01*
X03818Y02596D02*
Y02695D01*
X03878Y02583D02*
X0397D01*
X03855Y0246D02*
X03928Y02386D01*
X0388Y02505D02*
Y0253D01*
X03799Y0256D02*
Y02695D01*
X03914Y02445D02*
X0397D01*
X0388Y0248D02*
X03914Y02445D01*
X03913Y02563D02*
X0397D01*
X0388Y0253D02*
X03913Y02563D01*
X03928Y02386D02*
X0397D01*
X03751Y02159D02*
X03756Y02155D01*
X0372Y02189D02*
X0375Y02159D01*
X03751*
X03756Y02155D02*
X0376D01*
X0372Y02189D02*
Y02254D01*
X03662Y02827D02*
Y03024D01*
X0368Y02715D02*
X03681Y02714D01*
X0368Y02715D02*
Y0282D01*
X03661Y02714D02*
X03662Y02715D01*
X0368Y0282D02*
X0368Y0282D01*
X03662Y02715D02*
Y02827D01*
X03662Y02827*
X03681Y02695D02*
Y02714D01*
X03661Y02695D02*
Y02714D01*
X037Y02695D02*
Y02775D01*
X0372Y02695D02*
Y0276D01*
X037Y02695D02*
X037Y02695D01*
X0374Y02695D02*
Y0274D01*
X03615Y02756D02*
X03622Y02749D01*
Y02695D02*
Y02749D01*
X04785Y0285D02*
X04841D01*
X04846Y02845*
X0485*
X04785Y0285D02*
X04785Y0285D01*
X04734Y0285D02*
X04785D01*
X04917Y02832D02*
X0492Y0283D01*
X04917Y02832D02*
Y02862D01*
X04902Y02877D02*
X04917Y02862D01*
X04894Y02877D02*
X04902D01*
X04607Y02855D02*
X04703D01*
X04661Y02698D02*
X047Y0266D01*
X04607Y02698D02*
X04661D01*
X047Y0266D02*
X04795D01*
X04651Y02678D02*
X04725Y02605D01*
X04607Y02678D02*
X04651D01*
X04722Y02607D02*
X04761Y02568D01*
X0467Y02565D02*
X04705Y0253D01*
X04607Y02737D02*
X04607Y02737D01*
X04555Y0274D02*
X04557Y02737D01*
X04607*
X04607Y02836D02*
X04607Y02836D01*
X04607Y02816D02*
X04698D01*
X04709Y02875D02*
X04734Y0285D01*
X04607Y02875D02*
X04709D01*
X04698Y02816D02*
X0473Y02785D01*
X04786*
X04732Y02877D02*
X04894D01*
X04607Y02895D02*
X04714D01*
X04732Y02877*
X04894D02*
X04894Y02877D01*
X04607Y02934D02*
X04607Y02934D01*
X04607Y02914D02*
X0478D01*
X04739Y03039D02*
X04785D01*
X0478Y02914D02*
X04785Y0291D01*
X04786Y02785D02*
X0479Y02781D01*
X04692Y02777D02*
X04747Y02722D01*
X04607Y02777D02*
X04692D01*
X04607Y02796D02*
X04689D01*
X04747Y02722D02*
X0479D01*
X03127Y0212D02*
X03394Y02386D01*
X0295Y0212D02*
X03127D01*
X02885Y02055D02*
X0295Y0212D01*
X02885Y01998D02*
Y02055D01*
X03035Y0201D02*
X03041Y02017D01*
X031*
X0345Y02366*
X03035Y01998D02*
Y0201D01*
X0345Y02366D02*
X03529D01*
X02985Y0257D02*
X03175D01*
X03989Y02622D02*
X04022Y02656D01*
Y02667*
X04025Y0267*
X0397Y02622D02*
X03989D01*
X0478Y03124D02*
X04785Y03129D01*
X04585Y03072D02*
X04607D01*
X04661Y03092D02*
X0478Y0321D01*
X04607Y03092D02*
X04661D01*
X0478Y0321D02*
X04785D01*
X03602Y02695D02*
Y0273D01*
X03602Y02254D02*
X03602Y02254D01*
X03602Y02227D02*
Y02254D01*
X0358Y02205D02*
X03602Y02227D01*
X0352Y02205D02*
X0358D01*
X04185Y02165D02*
X04593D01*
X04607Y02678D02*
X04607Y02678D01*
X04761Y02568D02*
X04804D01*
X04806Y02566*
X04607Y02658D02*
X04607Y02658D01*
X04705Y0253D02*
X0473Y02505D01*
X04806*
X03482Y02292D02*
Y02307D01*
X03502Y02327*
X03529*
X0348Y0229D02*
X03482Y02292D01*
X03119Y0248D02*
X0315D01*
X0317Y02385D02*
X03275D01*
X03124D02*
X0317D01*
X03124Y0229D02*
X0317D01*
X03275Y02385D02*
X03315Y02425D01*
X04153Y01796D02*
X0419D01*
X0405Y0204D02*
X042D01*
X03858Y02157D02*
X04137Y01877D01*
X03858Y02157D02*
Y02254D01*
X03779Y0217D02*
Y0225D01*
Y0217D02*
X04153Y01796D01*
X03897Y02192D02*
Y02254D01*
Y02192D02*
X0405Y0204D01*
X03877Y02172D02*
Y02254D01*
Y02172D02*
X04091Y01958D01*
X03827Y02285D02*
X03838Y02274D01*
X03825Y023D02*
X03827Y02297D01*
Y02285D02*
Y02297D01*
X03838Y02254D02*
Y02274D01*
X03722Y01932D02*
X03732Y01923D01*
X037Y0195D02*
X03718Y01932D01*
X037Y0195D02*
Y02132D01*
X03718Y01932D02*
X03722D01*
X03732Y01906D02*
Y01923D01*
X03647Y02058D02*
Y0207D01*
X03667Y0209*
X0367D02*
X03681Y02101D01*
X03667Y0209D02*
X0367D01*
X03681Y02101D02*
Y02254D01*
X037Y02132D02*
X037Y02132D01*
Y02254*
X04023Y02602D02*
X04036Y0259D01*
X0397Y02602D02*
X04023D01*
X04036Y0259D02*
X0404D01*
X04055Y03255D02*
X04089D01*
X04214Y0317D02*
X04322D01*
X0419Y03195D02*
X04214Y0317D01*
X04226Y03131D02*
X04322D01*
X04225Y0313D02*
X04226Y03131D01*
X04137Y03151D02*
X04322D01*
X04222Y03052D02*
X04322D01*
X04185Y0309D02*
X04222Y03052D01*
X04185Y0309D02*
Y03115D01*
X04059Y02504D02*
X04233Y02678D01*
X0397Y02504D02*
X04059D01*
X04233Y02678D02*
X04322D01*
X04049Y02524D02*
X04223Y02698D01*
X0397Y02524D02*
X04049D01*
X04362Y02737D02*
X04365Y0274D01*
X04322Y02737D02*
X04322Y02737D01*
X04362*
X04136Y0315D02*
X04137Y03151D01*
X04166Y03016D02*
Y03028D01*
X04165Y0303D02*
X04166Y03028D01*
Y03016D02*
X04229Y02954D01*
G54D20*
X04755Y0183D03*
X04834D03*
G54D21*
X06225Y03835D03*
X0622Y0189D03*
X06225Y0292D03*
G54D22*
X06175Y04195D03*
X06125D03*
X06075D03*
X06275D03*
X06325D03*
X06375D03*
X0617Y0225D03*
X0612D03*
X0607D03*
X0627D03*
X0632D03*
X0637D03*
X06175Y0328D03*
X06125D03*
X06075D03*
X06275D03*
X06325D03*
X06375D03*
G54D23*
X03742Y01901D03*
Y02058D03*
X03647D03*
Y01901D03*
G54D24*
X0414Y03255D03*
X04089D03*
G54D25*
X04607Y0317D03*
Y03151D03*
Y03131D03*
Y03111D03*
Y03092D03*
Y03072D03*
Y03052D03*
Y03032D03*
Y03013D03*
Y02993D03*
Y02973D03*
Y02954D03*
Y02934D03*
Y02914D03*
Y02895D03*
Y02875D03*
Y02855D03*
Y02836D03*
Y02816D03*
Y02796D03*
Y02777D03*
Y02757D03*
Y02737D03*
Y02717D03*
Y02698D03*
Y02678D03*
Y02658D03*
Y02639D03*
X04322D03*
Y02658D03*
Y02678D03*
Y02698D03*
Y02717D03*
Y02737D03*
Y02757D03*
Y02777D03*
Y02796D03*
Y02816D03*
Y02836D03*
Y02855D03*
Y02875D03*
Y02895D03*
Y02914D03*
Y02934D03*
Y02954D03*
Y02973D03*
Y02993D03*
Y03013D03*
Y03032D03*
Y03052D03*
Y03072D03*
Y03092D03*
Y03111D03*
Y03131D03*
Y03151D03*
G54D26*
X04322Y0317D03*
G54D27*
X02459Y04072D03*
Y03806D03*
G54D28*
X02459Y03985D03*
G54D29*
X02459Y03878D03*
G54D30*
X0256Y04037D03*
Y03841D03*
G54D31*
X02564Y0399D03*
Y03965D03*
Y03939D03*
Y03914D03*
Y03888D03*
G54D32*
X04111Y02913D03*
X04058D03*
X04111Y0299D03*
X04058D03*
G54D33*
X0468Y0334D03*
X04809D03*
X04629Y02352D03*
X04758D03*
X04425Y02485D03*
X04555D03*
X0443Y02352D03*
X04559D03*
G54D34*
X04293Y0204D03*
X04226D03*
X04293Y01877D03*
X04226D03*
X04293Y01958D03*
X04226D03*
X03326Y0292D03*
X03393D03*
X03331Y03D03*
X03398D03*
X03331Y03085D03*
X03398D03*
X04293Y01796D03*
X04226D03*
X04873Y02566D03*
X04806D03*
X04873Y02505D03*
X04806D03*
X03253Y0271D03*
X03186D03*
G54D35*
X03602Y02254D03*
G54D36*
X03622Y02254D03*
X03641D03*
X03661D03*
X03681D03*
X037D03*
X0372D03*
X0374D03*
X03759D03*
X03779D03*
X03799D03*
X03818D03*
X03838D03*
X03858D03*
X03877D03*
X03897D03*
Y02695D03*
X03877D03*
X03858D03*
X03838D03*
X03818D03*
X03799D03*
X03779D03*
X03759D03*
X0374D03*
X0372D03*
X037D03*
X03681D03*
X03661D03*
X03641D03*
X03622D03*
X03602D03*
G54D37*
X0397Y02327D03*
Y02347D03*
Y02366D03*
Y02386D03*
Y02406D03*
Y02425D03*
Y02445D03*
Y02465D03*
Y02484D03*
Y02504D03*
Y02524D03*
Y02543D03*
Y02563D03*
Y02583D03*
Y02602D03*
Y02622D03*
X03529D03*
Y02602D03*
Y02583D03*
Y02563D03*
Y02543D03*
Y02524D03*
Y02504D03*
Y02484D03*
Y02465D03*
Y02445D03*
Y02425D03*
Y02406D03*
Y02386D03*
Y02366D03*
Y02347D03*
Y02327D03*
G54D38*
X03261Y0292D03*
X03198D03*
X03205Y03002D03*
X03264D03*
X03205Y03085D03*
X03264D03*
G54D39*
X04259Y01695D03*
X0434D03*
X03245Y0281D03*
X03164D03*
G54D40*
X0355Y01996D03*
Y02053D03*
G54D41*
X03681Y01805D03*
X03738D03*
G54D42*
X04655Y02036D03*
Y01983D03*
G54D43*
X0457Y02034D03*
Y01985D03*
G54D44*
X0649Y02385D03*
Y02334D03*
X065Y03329D03*
Y0338D03*
Y04295D03*
Y04244D03*
G54D45*
X0649Y02187D03*
Y02242D03*
X065Y03217D03*
Y03272D03*
Y04112D03*
Y04167D03*
G54D46*
X05807Y01545D03*
X05862D03*
X05837Y0261D03*
X05892D03*
X05817Y03505D03*
X05872D03*
G54D47*
X04099Y03077D03*
X0405D03*
G54D48*
X04013Y0315D03*
X03966D03*
G54D49*
X04083Y0315D03*
X04136D03*
G54D50*
X04507Y0334D03*
X04322D03*
G54D51*
X04508Y03535D03*
X04421D03*
G54D52*
X04785Y0321D03*
Y03129D03*
G54D53*
X0479Y02781D03*
Y02722D03*
X04785Y0291D03*
Y0285D03*
Y03039D03*
Y0298D03*
G54D54*
X02954Y0257D03*
X02905D03*
X03075Y0229D03*
X03124D03*
X0307Y0248D03*
X03119D03*
X03075Y02385D03*
X03124D03*
G54D55*
X02676Y0389D03*
X02733D03*
X02676Y03985D03*
X02733D03*
G54D56*
X02934Y01715D03*
X02985D03*
G54D57*
X0579Y01661D03*
Y01711D03*
Y01761D03*
Y01961D03*
Y01911D03*
Y01861D03*
X05805Y03605D03*
Y03655D03*
Y03705D03*
Y03905D03*
Y03855D03*
Y03805D03*
X05825Y0271D03*
Y0276D03*
Y0281D03*
Y0301D03*
Y0296D03*
Y0291D03*
G54D58*
X05429Y01811D03*
X05445Y03755D03*
X05464Y0286D03*
G54D59*
X0413Y03584D03*
Y03455D03*
G54D60*
X03504Y03371D03*
X03595D03*
X03685D03*
G54D61*
X03595Y03608D03*
G54D62*
X039Y03711D03*
Y03458D03*
G54D63*
X02885Y01791D03*
X02935D03*
X02985D03*
X03035D03*
X02885Y01998D03*
X02935D03*
X02985D03*
X03035D03*
G54D73*
X04465Y02905D03*
G54D91*
X02595Y02291D03*
Y03592D03*
X0286Y03564D03*
X0282Y02755D03*
X0255Y01601D03*
G54D92*
X02595Y0239D03*
Y02488D03*
Y02586D03*
Y02685D03*
Y02783D03*
Y03494D03*
Y03396D03*
Y03297D03*
Y03199D03*
Y031D03*
Y03002D03*
X0286Y03465D03*
Y03367D03*
Y03268D03*
Y0317D03*
X0282Y02853D03*
Y02951D03*
X0255Y01896D03*
Y01798D03*
Y017D03*
G54D93*
X02781Y03627D03*
G54D97*
X0399Y03352D03*
X04625Y02505D03*
G54D98*
X04655Y0173D02*
X04735Y0181D01*
X04755Y01824D02*
Y0183D01*
X04741Y0181D02*
X04755Y01824D01*
X04735Y0181D02*
X04741D01*
X04455Y0173D02*
X04655D01*
X04615Y02035D02*
X04655D01*
X04614Y02034D02*
X04615Y02035D01*
X0457Y02034D02*
X0457Y02034D01*
X04614*
X048Y0191D02*
X04834Y01875D01*
Y0183D02*
Y01875D01*
X02676Y0389D02*
Y0389D01*
X02627Y03939D02*
X02676Y0389D01*
X02564Y03939D02*
X02627D01*
X02676Y03875D02*
Y03875D01*
X02657Y03965D02*
X02676Y03984D01*
Y03985*
X02564Y03965D02*
X02657D01*
X04883Y02514D02*
X04894D01*
X04923Y02543D02*
Y02568D01*
X04873Y02505D02*
X04883Y02514D01*
X04894D02*
X04923Y02543D01*
X04857Y02722D02*
X04925Y0279D01*
X04923Y02568D02*
X04925Y0257D01*
X04924Y02615D02*
X04925D01*
X04873Y02566D02*
X04875D01*
X04924Y02615*
X065Y0316D02*
Y03217D01*
X06495Y04057D02*
X065Y04062D01*
X06495Y04055D02*
Y04057D01*
X065Y04062D02*
Y04112D01*
X05765Y03714D02*
X05774Y03705D01*
X05765Y03714D02*
Y03765D01*
X05774Y03705D02*
X05805D01*
X05765Y02819D02*
X05774Y0281D01*
X05825*
X05765Y02819D02*
Y02855D01*
X05739Y01761D02*
X0579D01*
X0573Y01771D02*
X05739Y01761D01*
X0573Y01771D02*
Y0181D01*
X0479Y02722D02*
X04857D01*
X0575Y01545D02*
X05807D01*
X0649Y02115D02*
Y02187D01*
X02978Y01722D02*
X02985Y01715D01*
X02973Y01726D02*
X02978Y01722D01*
X02973Y01718D02*
X02978Y01722D01*
X02973Y01696D02*
Y01718D01*
X02934Y01715D02*
X02946Y01726D01*
Y01733*
X02941Y01772D02*
X02948Y01766D01*
Y01735D02*
Y01766D01*
X02946Y01733D02*
X02948Y01735D01*
X02939Y01772D02*
X02941D01*
X02935Y01777D02*
X02939Y01772D01*
X02971Y01735D02*
X02973Y01733D01*
Y01726D02*
Y01733D01*
X02985Y01777D02*
Y01791D01*
X02978Y01772D02*
X0298D01*
X02985Y01777*
X02971Y01766D02*
X02978Y01772D01*
X02971Y01735D02*
Y01766D01*
X02935Y01777D02*
Y01791D01*
X02939Y01668D02*
X02948Y01677D01*
X02971Y01667D02*
Y01694D01*
X02934Y01715D02*
X02946Y01703D01*
Y01696D02*
Y01703D01*
X02948Y01677D02*
Y01694D01*
X02949Y01645D02*
X02971Y01667D01*
Y01694D02*
X02973Y01696D01*
X02946D02*
X02948Y01694D01*
X02863Y01668D02*
X02939D01*
X0277Y01761D02*
X02863Y01668D01*
X02853Y01645D02*
X02949D01*
X0276Y01737D02*
X02853Y01645D01*
X02587Y01737D02*
X0276D01*
X02587Y01761D02*
X0277D01*
X0255Y017D02*
X02587Y01737D01*
X0255Y01798D02*
X02587Y01761D01*
X02985Y01998D02*
Y0204D01*
X02935Y01998D02*
Y0204D01*
X04507Y0334D02*
X04508Y03341D01*
Y03535*
X0419Y01795D02*
X04225D01*
X04226Y01796*
X0419Y01795D02*
X0419Y01795D01*
X04235Y017D02*
X04254D01*
X04259Y01695*
X0419Y01745D02*
Y01795D01*
Y01745D02*
X04235Y017D01*
G54D99*
X06795Y0233D03*
X06785Y04425D03*
X04765Y01585D03*
X0306Y0443D03*
G54D100*
X03985Y0438D03*
X04615Y04385D03*
G54D101*
X06795Y0385D03*
X06787Y0294D03*
X06795Y01895D03*
G54D102*
X0356Y03095D03*
X03625Y0293D03*
X0384Y02837D03*
X0388Y0279D03*
X038Y02752D03*
X0386Y0275D03*
X0392Y0273D03*
X042Y02895D03*
X0425Y0308D03*
X04685Y02835D03*
X04735Y02825D03*
X04665Y02755D03*
X04685Y02715D03*
X03355Y02395D03*
X03435Y02455D03*
X0328Y02695D03*
X0344Y02535D03*
X03294Y0257D03*
X0359Y0237D03*
X0358Y02165D03*
X03825Y02185D03*
X03435Y023D03*
X0284Y0257D03*
X029Y0223D03*
X0355Y0289D03*
X04455Y0173D03*
X0424Y03025D03*
X03885Y03225D03*
X04005Y03035D03*
X03925Y0307D03*
X0457Y01925D03*
X0434Y0163D03*
X03705Y03375D03*
X0352Y03235D03*
X03575D03*
X0313Y03005D03*
X0311Y0282D03*
X03343Y02191D03*
X0381Y0206D03*
X03615Y01805D03*
X03925Y0445D03*
X03955D03*
X03985D03*
X04015D03*
X04045D03*
Y0442D03*
X04015D03*
X03985D03*
X03955D03*
X03925D03*
Y0439D03*
X03955D03*
X03985D03*
X04015D03*
X04045D03*
Y0436D03*
X04015D03*
X03985D03*
X03955D03*
X03925D03*
Y0433D03*
X03955D03*
X03985D03*
X04015D03*
X04045D03*
Y043D03*
X04015D03*
X03985D03*
X03955D03*
X03925D03*
Y0427D03*
X03955D03*
X03985D03*
X04015D03*
X04045D03*
Y0424D03*
X04015D03*
X03985D03*
X03955D03*
X03925D03*
Y0421D03*
X03955D03*
X03985D03*
X04015D03*
X04045D03*
Y0448D03*
X04015D03*
X03985D03*
X03955D03*
X03925D03*
Y0451D03*
X03955D03*
X03985D03*
X04015D03*
X04045Y0454D03*
X04015D03*
X03985D03*
X03955D03*
X03925D03*
X04045Y0451D03*
X04075Y0454D03*
Y0451D03*
Y0448D03*
Y0445D03*
Y0442D03*
Y0439D03*
Y0436D03*
Y0433D03*
Y043D03*
Y0427D03*
Y0424D03*
Y0421D03*
X04105Y0454D03*
Y0451D03*
Y0448D03*
Y0445D03*
Y0442D03*
Y0439D03*
Y0436D03*
Y0433D03*
Y043D03*
Y0427D03*
Y0424D03*
Y0421D03*
X04135Y0451D03*
Y0448D03*
Y0445D03*
Y0442D03*
Y0439D03*
Y0436D03*
Y0433D03*
Y043D03*
Y0427D03*
Y0424D03*
X03895Y0421D03*
Y0424D03*
Y0427D03*
Y043D03*
Y0433D03*
Y0436D03*
Y0439D03*
Y0442D03*
Y0445D03*
Y0448D03*
Y0451D03*
Y0454D03*
X03865D03*
Y0451D03*
Y0448D03*
Y0445D03*
Y0442D03*
Y0439D03*
Y0436D03*
Y0433D03*
Y043D03*
Y0427D03*
Y0424D03*
Y0421D03*
X03835Y0424D03*
Y0427D03*
Y043D03*
Y0433D03*
Y0436D03*
Y0439D03*
Y0442D03*
Y0445D03*
Y0448D03*
Y0451D03*
X04465Y04515D03*
Y04485D03*
Y04455D03*
Y04425D03*
Y04395D03*
Y04365D03*
Y04335D03*
Y04305D03*
Y04275D03*
Y04245D03*
X04495Y04215D03*
Y04245D03*
Y04275D03*
Y04305D03*
Y04335D03*
Y04365D03*
Y04395D03*
Y04425D03*
Y04455D03*
Y04485D03*
Y04515D03*
Y04545D03*
X04525D03*
Y04515D03*
Y04485D03*
Y04455D03*
Y04425D03*
Y04395D03*
Y04365D03*
Y04335D03*
Y04305D03*
Y04275D03*
Y04245D03*
Y04215D03*
X04765Y04245D03*
Y04275D03*
Y04305D03*
Y04335D03*
Y04365D03*
Y04395D03*
Y04425D03*
Y04455D03*
Y04485D03*
Y04515D03*
X04735Y04215D03*
Y04245D03*
Y04275D03*
Y04305D03*
Y04335D03*
Y04365D03*
Y04395D03*
Y04425D03*
Y04455D03*
Y04485D03*
Y04515D03*
Y04545D03*
X04705Y04215D03*
Y04245D03*
Y04275D03*
Y04305D03*
Y04335D03*
Y04365D03*
Y04395D03*
Y04425D03*
Y04455D03*
Y04485D03*
Y04515D03*
Y04545D03*
X04675Y04515D03*
X04555Y04545D03*
X04585D03*
X04615D03*
X04645D03*
X04675D03*
X04645Y04515D03*
X04615D03*
X04585D03*
X04555D03*
Y04485D03*
X04585D03*
X04615D03*
X04645D03*
X04675D03*
Y04215D03*
X04645D03*
X04615D03*
X04585D03*
X04555D03*
Y04245D03*
X04585D03*
X04615D03*
X04645D03*
X04675D03*
Y04275D03*
X04645D03*
X04615D03*
X04585D03*
X04555D03*
Y04305D03*
X04585D03*
X04615D03*
X04645D03*
X04675D03*
Y04335D03*
X04645D03*
X04615D03*
X04585D03*
X04555D03*
Y04365D03*
X04585D03*
X04615D03*
X04645D03*
X04675D03*
Y04395D03*
X04645D03*
X04615D03*
X04585D03*
X04555D03*
Y04425D03*
X04585D03*
X04615D03*
X04645D03*
X04675D03*
Y04455D03*
X04645D03*
X04615D03*
X04585D03*
X04555D03*
X06725Y0379D03*
Y0382D03*
Y0385D03*
Y0388D03*
Y0391D03*
X06755D03*
Y0388D03*
Y0385D03*
Y0382D03*
Y0379D03*
X06785D03*
Y0382D03*
Y0385D03*
Y0388D03*
Y0391D03*
X06815D03*
Y0388D03*
Y0385D03*
Y0382D03*
Y0379D03*
X06845D03*
Y0382D03*
Y0385D03*
Y0388D03*
Y0391D03*
X06875D03*
Y0388D03*
Y0385D03*
Y0382D03*
Y0379D03*
X06905D03*
Y0382D03*
Y0385D03*
Y0388D03*
Y0391D03*
X06935D03*
Y0388D03*
Y0385D03*
Y0382D03*
Y0379D03*
X06965D03*
Y0382D03*
Y0385D03*
Y0388D03*
Y0391D03*
X06695D03*
Y0388D03*
Y0385D03*
Y0382D03*
Y0379D03*
X06665D03*
Y0382D03*
Y0385D03*
Y0388D03*
X06635Y0391D03*
Y0388D03*
Y0385D03*
Y0382D03*
Y0379D03*
X06665Y0391D03*
X06635Y0394D03*
X06665D03*
X06695D03*
X06725D03*
X06755D03*
X06785D03*
X06815D03*
X06845D03*
X06875D03*
X06905D03*
X06935D03*
X06965D03*
X06635Y0397D03*
X06665D03*
X06695D03*
X06725D03*
X06755D03*
X06785D03*
X06815D03*
X06845D03*
X06875D03*
X06905D03*
X06935D03*
X06965D03*
X06665Y04D03*
X06695D03*
X06725D03*
X06755D03*
X06785D03*
X06815D03*
X06845D03*
X06875D03*
X06905D03*
X06935D03*
X06965Y0376D03*
X06935D03*
X06905D03*
X06875D03*
X06845D03*
X06815D03*
X06785D03*
X06755D03*
X06725D03*
X06695D03*
X06665D03*
X06635D03*
Y0373D03*
X06665D03*
X06695D03*
X06725D03*
X06755D03*
X06785D03*
X06815D03*
X06845D03*
X06875D03*
X06905D03*
X06935D03*
X06965D03*
X06935Y037D03*
X06905D03*
X06875D03*
X06845D03*
X06815D03*
X06785D03*
X06755D03*
X06725D03*
X06695D03*
X06665D03*
X06657Y0279D03*
X06687D03*
X06717D03*
X06747D03*
X06777D03*
X06807D03*
X06837D03*
X06867D03*
X06897D03*
X06927D03*
X06957Y0282D03*
X06927D03*
X06897D03*
X06867D03*
X06837D03*
X06807D03*
X06777D03*
X06747D03*
X06717D03*
X06687D03*
X06657D03*
X06627D03*
Y0285D03*
X06657D03*
X06687D03*
X06717D03*
X06747D03*
X06777D03*
X06807D03*
X06837D03*
X06867D03*
X06897D03*
X06927D03*
X06957D03*
X06927Y0309D03*
X06897D03*
X06867D03*
X06837D03*
X06807D03*
X06777D03*
X06747D03*
X06717D03*
X06687D03*
X06657D03*
X06957Y0306D03*
X06927D03*
X06897D03*
X06867D03*
X06837D03*
X06807D03*
X06777D03*
X06747D03*
X06717D03*
X06687D03*
X06657D03*
X06627D03*
X06957Y0303D03*
X06927D03*
X06897D03*
X06867D03*
X06837D03*
X06807D03*
X06777D03*
X06747D03*
X06717D03*
X06687D03*
X06657D03*
X06627D03*
X06657Y03D03*
X06627Y0288D03*
Y0291D03*
Y0294D03*
Y0297D03*
Y03D03*
X06657Y0297D03*
Y0294D03*
Y0291D03*
Y0288D03*
X06687D03*
Y0291D03*
Y0294D03*
Y0297D03*
Y03D03*
X06957D03*
Y0297D03*
Y0294D03*
Y0291D03*
Y0288D03*
X06927D03*
Y0291D03*
Y0294D03*
Y0297D03*
Y03D03*
X06897D03*
Y0297D03*
Y0294D03*
Y0291D03*
Y0288D03*
X06867D03*
Y0291D03*
Y0294D03*
Y0297D03*
Y03D03*
X06837D03*
Y0297D03*
Y0294D03*
Y0291D03*
Y0288D03*
X06807D03*
Y0291D03*
Y0294D03*
Y0297D03*
Y03D03*
X06777D03*
Y0297D03*
Y0294D03*
Y0291D03*
Y0288D03*
X06747D03*
Y0291D03*
Y0294D03*
Y0297D03*
Y03D03*
X06717D03*
Y0297D03*
Y0294D03*
Y0291D03*
Y0288D03*
X06725Y01835D03*
Y01865D03*
Y01895D03*
Y01925D03*
Y01955D03*
X06755D03*
Y01925D03*
Y01895D03*
Y01865D03*
Y01835D03*
X06785D03*
Y01865D03*
Y01895D03*
Y01925D03*
Y01955D03*
X06815D03*
Y01925D03*
Y01895D03*
Y01865D03*
Y01835D03*
X06845D03*
Y01865D03*
Y01895D03*
Y01925D03*
Y01955D03*
X06875D03*
Y01925D03*
Y01895D03*
Y01865D03*
Y01835D03*
X06905D03*
Y01865D03*
Y01895D03*
Y01925D03*
Y01955D03*
X06935D03*
Y01925D03*
Y01895D03*
Y01865D03*
Y01835D03*
X06965D03*
Y01865D03*
Y01895D03*
Y01925D03*
Y01955D03*
X06695D03*
Y01925D03*
Y01895D03*
Y01865D03*
Y01835D03*
X06665D03*
Y01865D03*
Y01895D03*
Y01925D03*
X06635Y01955D03*
Y01925D03*
Y01895D03*
Y01865D03*
Y01835D03*
X06665Y01955D03*
X06635Y01985D03*
X06665D03*
X06695D03*
X06725D03*
X06755D03*
X06785D03*
X06815D03*
X06845D03*
X06875D03*
X06905D03*
X06935D03*
X06965D03*
X06635Y02015D03*
X06665D03*
X06695D03*
X06725D03*
X06755D03*
X06785D03*
X06815D03*
X06845D03*
X06875D03*
X06905D03*
X06935D03*
X06965D03*
X06665Y02045D03*
X06695D03*
X06725D03*
X06755D03*
X06785D03*
X06815D03*
X06845D03*
X06875D03*
X06905D03*
X06935D03*
X06965Y01805D03*
X06935D03*
X06905D03*
X06875D03*
X06845D03*
X06815D03*
X06785D03*
X06755D03*
X06725D03*
X06695D03*
X06665D03*
X06635D03*
Y01775D03*
X06665D03*
X06695D03*
X06725D03*
X06755D03*
X06785D03*
X06815D03*
X06845D03*
X06875D03*
X06905D03*
X06935D03*
X06965D03*
X06935Y01745D03*
X06905D03*
X06875D03*
X06845D03*
X06815D03*
X06785D03*
X06755D03*
X06725D03*
X06695D03*
X06665D03*
X04275Y0272D03*
X04075Y02315D03*
X04885Y0301D03*
X0472Y02955D03*
X0425Y0298D03*
X04195Y0293D03*
X04615Y02035D03*
X048Y0191D03*
X04435Y01795D03*
X04445Y01875D03*
X0419Y0188D03*
X042Y0204D03*
X04195Y0196D03*
X0444Y0204D03*
Y0196D03*
X0469Y03215D03*
X04665Y02935D03*
X04685Y03035D03*
X0416Y0248D03*
X0412Y02465D03*
X0409Y0243D03*
X0408Y024D03*
X0383Y0253D03*
X0348Y0265D03*
X0349Y02685D03*
X03855Y0256D03*
X03735Y0263D03*
X0377Y02625D03*
X0388Y02505D03*
X0357Y0276D03*
X03615D03*
X03425Y02625D03*
X0376Y02155D03*
X04925Y0279D03*
X0485Y02845D03*
X0492Y0283D03*
X04924Y02725D03*
X0495Y027D03*
X04882Y02782D03*
X04855Y0298D03*
X05772Y04025D03*
X05747Y04D03*
X04925Y0257D03*
Y02615D03*
X04795Y0266D03*
X04725Y02605D03*
X0573Y02435D03*
X05694D03*
X04555Y0274D03*
X06595Y0338D03*
X065Y0316D03*
X06495Y04055D03*
X05765Y03765D03*
Y03505D03*
Y02855D03*
X05775Y0261D03*
X0573Y0181D03*
X0575Y01545D03*
X0649Y02115D03*
X04705Y0253D03*
X02985Y0204D03*
X02935D03*
X0317Y0229D03*
X03015Y0248D03*
X0302Y02385D03*
Y0229D03*
X02985Y0257D03*
X04025Y0267D03*
X0352Y02205D03*
X03175Y0257D03*
X03485Y0229D03*
X0315Y0248D03*
X0317Y02385D03*
X0419Y01795D03*
X03825Y023D03*
X0404Y0259D03*
X04055Y03255D03*
X0419Y03195D03*
X04225Y0313D03*
X04185Y03115D03*
X0423Y0256D03*
X04365Y0274D03*
X0375Y0287D03*
X04165Y0303D03*
G54D103*
X04635Y02598D03*
X04576D03*
X05994Y03307D03*
X05964Y03248D03*
X05935Y03307D03*
X05905Y03248D03*
X05875Y03307D03*
X05846Y03248D03*
X05875Y03188D03*
X05816Y03307D03*
X05787Y03248D03*
X05816Y03188D03*
X05757Y03307D03*
X05728Y03248D03*
X05757Y03188D03*
X05698Y03307D03*
X04842Y0372D03*
X04872Y03425D03*
Y03307D03*
X04783Y03838D03*
X04753Y03897D03*
X04724Y03838D03*
X04753Y03779D03*
X04665Y03956D03*
X04694Y03897D03*
X04665Y03838D03*
X04606Y03956D03*
X04635Y03897D03*
X04606Y03838D03*
X04547Y03956D03*
X04576Y03897D03*
X04547Y03838D03*
X04576Y02125D03*
X05964Y03307D03*
X05994Y03248D03*
X05905Y03307D03*
X05935Y03248D03*
X05905Y03188D03*
X05846Y03307D03*
X05875Y03248D03*
X05846Y03188D03*
X05787Y03307D03*
X05816Y03248D03*
X05787Y03188D03*
X05728Y03307D03*
X05757Y03248D03*
X05698D03*
X04872Y0372D03*
Y03366D03*
X04812Y0372D03*
X04429Y02716D03*
Y02598D03*
Y02244D03*
X04399Y02657D03*
X0437Y0248D03*
X04399Y02421D03*
X0437Y02362D03*
Y02244D03*
X04311Y0248D03*
X0621Y0234D03*
X06176Y02362D03*
X04595Y026D03*
Y0254D03*
Y0248D03*
Y0242D03*
Y02365D03*
Y02305D03*
Y02245D03*
X057Y03185D03*
X06289Y04311D03*
X0623D03*
Y04192D03*
X06171Y04311D03*
X06112D03*
X06053D03*
X06023Y04251D03*
Y04133D03*
X05994Y04311D03*
X05964Y04251D03*
X05994Y04192D03*
X05964Y04133D03*
X05935Y04311D03*
Y04192D03*
X06225Y0221D03*
Y0225D03*
X0622Y02295D03*
X06117Y02362D03*
X06058D03*
X06028Y02303D03*
X05999Y02362D03*
X05969Y02303D03*
X05999Y02244D03*
X0594Y02362D03*
X0591Y02303D03*
X0594Y02244D03*
X0588Y02362D03*
Y02244D03*
G54D104*
X0542Y01895D03*
X05475D03*
X054Y0379D03*
X0546D03*
X0552D03*
X05515Y03605D03*
X05455D03*
X054D03*
X05545Y0303D03*
X0549D03*
X05435D03*
X0555Y0284D03*
X05495D03*
X0544D03*
X0537Y01735D03*
X0542D03*
X05475D03*
X0537Y01895D03*
M02*