%FSTAX23Y23*%
%MOIN*%
%SFA1B1*%

%IPPOS*%
%ADD123C,0.005000*%
%ADD124C,0.006670*%
%LNpcb_drawing_1-1*%
%LPD*%
G54D123*
X06775Y0231D02*
X06785Y0233D01*
X06775Y0235*
X06795Y0234*
X06815Y0235*
X06805Y0233*
X06815Y0231*
X06795Y0232*
X06775Y0231*
X06765Y04405D02*
X06775Y04425D01*
X06765Y04445*
X06785Y04435*
X06805Y04445*
X06795Y04425*
X06805Y04405*
X06785Y04415*
X06765Y04405*
X04745Y01565D02*
X04755Y01585D01*
X04745Y01605*
X04765Y01595*
X04785Y01605*
X04775Y01585*
X04785Y01565*
X04765Y01575*
X04745Y01565*
X0304Y0441D02*
X0305Y0443D01*
X0304Y0445*
X0306Y0444*
X0308Y0445*
X0307Y0443*
X0308Y0441*
X0306Y0442*
X0304Y0441*
X02575Y02271D02*
Y02311D01*
X02615*
Y02271*
X02575*
Y0237D02*
Y0241D01*
X02615*
Y0237*
X02575*
Y02468D02*
Y02508D01*
X02615*
Y02468*
X02575*
Y02566D02*
Y02606D01*
X02615*
Y02566*
X02575*
Y02665D02*
Y02705D01*
X02615*
Y02665*
X02575*
Y02763D02*
Y02803D01*
X02615*
Y02763*
X02575*
Y03572D02*
Y03612D01*
X02615*
Y03572*
X02575*
Y03474D02*
Y03514D01*
X02615*
Y03474*
X02575*
Y03376D02*
Y03416D01*
X02615*
Y03376*
X02575*
Y03277D02*
Y03317D01*
X02615*
Y03277*
X02575*
Y03179D02*
Y03219D01*
X02615*
Y03179*
X02575*
Y0308D02*
Y0312D01*
X02615*
Y0308*
X02575*
Y02982D02*
Y03022D01*
X02615*
Y02982*
X02575*
X0284Y03544D02*
Y03584D01*
X0288*
Y03544*
X0284*
Y03445D02*
Y03485D01*
X0288*
Y03445*
X0284*
Y03347D02*
Y03387D01*
X0288*
Y03347*
X0284*
Y03248D02*
Y03288D01*
X0288*
Y03248*
X0284*
Y0315D02*
Y0319D01*
X0288*
Y0315*
X0284*
X028Y02735D02*
Y02775D01*
X0284*
Y02735*
X028*
Y02833D02*
Y02873D01*
X0284*
Y02833*
X028*
Y02931D02*
Y02971D01*
X0284*
Y02931*
X028*
X0253Y01876D02*
Y01916D01*
X0257*
Y01876*
X0253*
Y01778D02*
Y01818D01*
X0257*
Y01778*
X0253*
Y0168D02*
Y0172D01*
X0257*
Y0168*
X0253*
Y01581D02*
Y01621D01*
X0257*
Y01581*
X0253*
X0356Y03075D02*
X0354Y03115D01*
X0358*
X0356Y03075*
X03625Y0291D02*
X03605Y0295D01*
X03645*
X03625Y0291*
X0384Y02817D02*
X0382Y02857D01*
X0386*
X0384Y02817*
X0388Y0277D02*
X0386Y0281D01*
X039*
X0388Y0277*
X038Y02732D02*
X0378Y02772D01*
X0382*
X038Y02732*
X0386Y0273D02*
X0384Y0277D01*
X0388*
X0386Y0273*
X0392Y0271D02*
X039Y0275D01*
X0394*
X0392Y0271*
X042Y02875D02*
X0418Y02915D01*
X0422*
X042Y02875*
X0425Y0306D02*
X0423Y031D01*
X0427*
X0425Y0306*
X04685Y02815D02*
X04665Y02855D01*
X04705*
X04685Y02815*
X04735Y02805D02*
X04715Y02845D01*
X04755*
X04735Y02805*
X04665Y02735D02*
X04645Y02775D01*
X04685*
X04665Y02735*
X04685Y02695D02*
X04665Y02735D01*
X04705*
X04685Y02695*
X03355Y02375D02*
X03335Y02415D01*
X03375*
X03355Y02375*
X03435Y02435D02*
X03415Y02475D01*
X03455*
X03435Y02435*
X04635Y02578D02*
X04645Y02588D01*
X04655*
X04645Y02598*
X04655Y02608*
X04645*
X04635Y02618*
X04625Y02608*
X04615*
X04625Y02598*
X04615Y02588*
X04625*
X04635Y02578*
X04576D02*
X04586Y02588D01*
X04596*
X04586Y02598*
X04596Y02608*
X04586*
X04576Y02618*
X04566Y02608*
X04556*
X04566Y02598*
X04556Y02588*
X04566*
X04576Y02578*
X05994Y03287D02*
X06004Y03297D01*
X06014*
X06004Y03307*
X06014Y03317*
X06004*
X05994Y03327*
X05984Y03317*
X05974*
X05984Y03307*
X05974Y03297*
X05984*
X05994Y03287*
X05964Y03228D02*
X05974Y03238D01*
X05984*
X05974Y03248*
X05984Y03258*
X05974*
X05964Y03268*
X05954Y03258*
X05944*
X05954Y03248*
X05944Y03238*
X05954*
X05964Y03228*
X05935Y03287D02*
X05945Y03297D01*
X05955*
X05945Y03307*
X05955Y03317*
X05945*
X05935Y03327*
X05925Y03317*
X05915*
X05925Y03307*
X05915Y03297*
X05925*
X05935Y03287*
X05905Y03228D02*
X05915Y03238D01*
X05925*
X05915Y03248*
X05925Y03258*
X05915*
X05905Y03268*
X05895Y03258*
X05885*
X05895Y03248*
X05885Y03238*
X05895*
X05905Y03228*
X05875Y03287D02*
X05885Y03297D01*
X05895*
X05885Y03307*
X05895Y03317*
X05885*
X05875Y03327*
X05865Y03317*
X05855*
X05865Y03307*
X05855Y03297*
X05865*
X05875Y03287*
X05846Y03228D02*
X05856Y03238D01*
X05866*
X05856Y03248*
X05866Y03258*
X05856*
X05846Y03268*
X05836Y03258*
X05826*
X05836Y03248*
X05826Y03238*
X05836*
X05846Y03228*
X05875Y03168D02*
X05885Y03178D01*
X05895*
X05885Y03188*
X05895Y03198*
X05885*
X05875Y03208*
X05865Y03198*
X05855*
X05865Y03188*
X05855Y03178*
X05865*
X05875Y03168*
X05816Y03287D02*
X05826Y03297D01*
X05836*
X05826Y03307*
X05836Y03317*
X05826*
X05816Y03327*
X05806Y03317*
X05796*
X05806Y03307*
X05796Y03297*
X05806*
X05816Y03287*
X05787Y03228D02*
X05797Y03238D01*
X05807*
X05797Y03248*
X05807Y03258*
X05797*
X05787Y03268*
X05777Y03258*
X05767*
X05777Y03248*
X05767Y03238*
X05777*
X05787Y03228*
X05816Y03168D02*
X05826Y03178D01*
X05836*
X05826Y03188*
X05836Y03198*
X05826*
X05816Y03208*
X05806Y03198*
X05796*
X05806Y03188*
X05796Y03178*
X05806*
X05816Y03168*
X05757Y03287D02*
X05767Y03297D01*
X05777*
X05767Y03307*
X05777Y03317*
X05767*
X05757Y03327*
X05747Y03317*
X05737*
X05747Y03307*
X05737Y03297*
X05747*
X05757Y03287*
X05728Y03228D02*
X05738Y03238D01*
X05748*
X05738Y03248*
X05748Y03258*
X05738*
X05728Y03268*
X05718Y03258*
X05708*
X05718Y03248*
X05708Y03238*
X05718*
X05728Y03228*
X05757Y03168D02*
X05767Y03178D01*
X05777*
X05767Y03188*
X05777Y03198*
X05767*
X05757Y03208*
X05747Y03198*
X05737*
X05747Y03188*
X05737Y03178*
X05747*
X05757Y03168*
X05698Y03287D02*
X05708Y03297D01*
X05718*
X05708Y03307*
X05718Y03317*
X05708*
X05698Y03327*
X05688Y03317*
X05678*
X05688Y03307*
X05678Y03297*
X05688*
X05698Y03287*
X04842Y037D02*
X04852Y0371D01*
X04862*
X04852Y0372*
X04862Y0373*
X04852*
X04842Y0374*
X04832Y0373*
X04822*
X04832Y0372*
X04822Y0371*
X04832*
X04842Y037*
X04872Y03405D02*
X04882Y03415D01*
X04892*
X04882Y03425*
X04892Y03435*
X04882*
X04872Y03445*
X04862Y03435*
X04852*
X04862Y03425*
X04852Y03415*
X04862*
X04872Y03405*
Y03287D02*
X04882Y03297D01*
X04892*
X04882Y03307*
X04892Y03317*
X04882*
X04872Y03327*
X04862Y03317*
X04852*
X04862Y03307*
X04852Y03297*
X04862*
X04872Y03287*
X04783Y03818D02*
X04793Y03828D01*
X04803*
X04793Y03838*
X04803Y03848*
X04793*
X04783Y03858*
X04773Y03848*
X04763*
X04773Y03838*
X04763Y03828*
X04773*
X04783Y03818*
X04753Y03877D02*
X04763Y03887D01*
X04773*
X04763Y03897*
X04773Y03907*
X04763*
X04753Y03917*
X04743Y03907*
X04733*
X04743Y03897*
X04733Y03887*
X04743*
X04753Y03877*
X04724Y03818D02*
X04734Y03828D01*
X04744*
X04734Y03838*
X04744Y03848*
X04734*
X04724Y03858*
X04714Y03848*
X04704*
X04714Y03838*
X04704Y03828*
X04714*
X04724Y03818*
X04753Y03759D02*
X04763Y03769D01*
X04773*
X04763Y03779*
X04773Y03789*
X04763*
X04753Y03799*
X04743Y03789*
X04733*
X04743Y03779*
X04733Y03769*
X04743*
X04753Y03759*
X04665Y03936D02*
X04675Y03946D01*
X04685*
X04675Y03956*
X04685Y03966*
X04675*
X04665Y03976*
X04655Y03966*
X04645*
X04655Y03956*
X04645Y03946*
X04655*
X04665Y03936*
X04694Y03877D02*
X04704Y03887D01*
X04714*
X04704Y03897*
X04714Y03907*
X04704*
X04694Y03917*
X04684Y03907*
X04674*
X04684Y03897*
X04674Y03887*
X04684*
X04694Y03877*
X04665Y03818D02*
X04675Y03828D01*
X04685*
X04675Y03838*
X04685Y03848*
X04675*
X04665Y03858*
X04655Y03848*
X04645*
X04655Y03838*
X04645Y03828*
X04655*
X04665Y03818*
X04606Y03936D02*
X04616Y03946D01*
X04626*
X04616Y03956*
X04626Y03966*
X04616*
X04606Y03976*
X04596Y03966*
X04586*
X04596Y03956*
X04586Y03946*
X04596*
X04606Y03936*
X04635Y03877D02*
X04645Y03887D01*
X04655*
X04645Y03897*
X04655Y03907*
X04645*
X04635Y03917*
X04625Y03907*
X04615*
X04625Y03897*
X04615Y03887*
X04625*
X04635Y03877*
X04606Y03818D02*
X04616Y03828D01*
X04626*
X04616Y03838*
X04626Y03848*
X04616*
X04606Y03858*
X04596Y03848*
X04586*
X04596Y03838*
X04586Y03828*
X04596*
X04606Y03818*
X04547Y03936D02*
X04557Y03946D01*
X04567*
X04557Y03956*
X04567Y03966*
X04557*
X04547Y03976*
X04537Y03966*
X04527*
X04537Y03956*
X04527Y03946*
X04537*
X04547Y03936*
X04576Y03877D02*
X04586Y03887D01*
X04596*
X04586Y03897*
X04596Y03907*
X04586*
X04576Y03917*
X04566Y03907*
X04556*
X04566Y03897*
X04556Y03887*
X04566*
X04576Y03877*
X04547Y03818D02*
X04557Y03828D01*
X04567*
X04557Y03838*
X04567Y03848*
X04557*
X04547Y03858*
X04537Y03848*
X04527*
X04537Y03838*
X04527Y03828*
X04537*
X04547Y03818*
X04576Y02105D02*
X04586Y02115D01*
X04596*
X04586Y02125*
X04596Y02135*
X04586*
X04576Y02145*
X04566Y02135*
X04556*
X04566Y02125*
X04556Y02115*
X04566*
X04576Y02105*
X0328Y02675D02*
X0326Y02715D01*
X033*
X0328Y02675*
X0344Y02515D02*
X0342Y02555D01*
X0346*
X0344Y02515*
X03294Y0255D02*
X03274Y0259D01*
X03314*
X03294Y0255*
X0359Y0235D02*
X0357Y0239D01*
X0361*
X0359Y0235*
X0358Y02145D02*
X0356Y02185D01*
X036*
X0358Y02145*
X03825Y02165D02*
X03805Y02205D01*
X03845*
X03825Y02165*
X03435Y0228D02*
X03415Y0232D01*
X03455*
X03435Y0228*
X0284Y0255D02*
X0282Y0259D01*
X0286*
X0284Y0255*
X029Y0221D02*
X0288Y0225D01*
X0292*
X029Y0221*
X0355Y0287D02*
X0353Y0291D01*
X0357*
X0355Y0287*
X04455Y0171D02*
X04435Y0175D01*
X04475*
X04455Y0171*
X0424Y03005D02*
X0422Y03045D01*
X0426*
X0424Y03005*
X03885Y03205D02*
X03865Y03245D01*
X03905*
X03885Y03205*
X04005Y03015D02*
X03985Y03055D01*
X04025*
X04005Y03015*
X03925Y0305D02*
X03905Y0309D01*
X03945*
X03925Y0305*
X0457Y01905D02*
X0455Y01945D01*
X0459*
X0457Y01905*
X0434Y0161D02*
X0432Y0165D01*
X0436*
X0434Y0161*
X03705Y03355D02*
X03685Y03395D01*
X03725*
X03705Y03355*
X0352Y03215D02*
X035Y03255D01*
X0354*
X0352Y03215*
X03575D02*
X03555Y03255D01*
X03595*
X03575Y03215*
X0313Y02985D02*
X0311Y03025D01*
X0315*
X0313Y02985*
X0311Y028D02*
X0309Y0284D01*
X0313*
X0311Y028*
X03343Y02171D02*
X03323Y02211D01*
X03363*
X03343Y02171*
X0381Y0204D02*
X0379Y0208D01*
X0383*
X0381Y0204*
X03615Y01785D02*
X03595Y01825D01*
X03635*
X03615Y01785*
X03925Y0443D02*
X03905Y0447D01*
X03945*
X03925Y0443*
X03955D02*
X03935Y0447D01*
X03975*
X03955Y0443*
X03985D02*
X03965Y0447D01*
X04005*
X03985Y0443*
X04015D02*
X03995Y0447D01*
X04035*
X04015Y0443*
X04045D02*
X04025Y0447D01*
X04065*
X04045Y0443*
Y044D02*
X04025Y0444D01*
X04065*
X04045Y044*
X04015D02*
X03995Y0444D01*
X04035*
X04015Y044*
X03985D02*
X03965Y0444D01*
X04005*
X03985Y044*
X03955D02*
X03935Y0444D01*
X03975*
X03955Y044*
X03925D02*
X03905Y0444D01*
X03945*
X03925Y044*
Y0437D02*
X03905Y0441D01*
X03945*
X03925Y0437*
X03955D02*
X03935Y0441D01*
X03975*
X03955Y0437*
X03985D02*
X03965Y0441D01*
X04005*
X03985Y0437*
X04015D02*
X03995Y0441D01*
X04035*
X04015Y0437*
X04045D02*
X04025Y0441D01*
X04065*
X04045Y0437*
Y0434D02*
X04025Y0438D01*
X04065*
X04045Y0434*
X04015D02*
X03995Y0438D01*
X04035*
X04015Y0434*
X03985D02*
X03965Y0438D01*
X04005*
X03985Y0434*
X03955D02*
X03935Y0438D01*
X03975*
X03955Y0434*
X03925D02*
X03905Y0438D01*
X03945*
X03925Y0434*
Y0431D02*
X03905Y0435D01*
X03945*
X03925Y0431*
X03955D02*
X03935Y0435D01*
X03975*
X03955Y0431*
X03985D02*
X03965Y0435D01*
X04005*
X03985Y0431*
X04015D02*
X03995Y0435D01*
X04035*
X04015Y0431*
X04045D02*
X04025Y0435D01*
X04065*
X04045Y0431*
Y0428D02*
X04025Y0432D01*
X04065*
X04045Y0428*
X04015D02*
X03995Y0432D01*
X04035*
X04015Y0428*
X03985D02*
X03965Y0432D01*
X04005*
X03985Y0428*
X03955D02*
X03935Y0432D01*
X03975*
X03955Y0428*
X03925D02*
X03905Y0432D01*
X03945*
X03925Y0428*
Y0425D02*
X03905Y0429D01*
X03945*
X03925Y0425*
X03955D02*
X03935Y0429D01*
X03975*
X03955Y0425*
X03985D02*
X03965Y0429D01*
X04005*
X03985Y0425*
X04015D02*
X03995Y0429D01*
X04035*
X04015Y0425*
X04045D02*
X04025Y0429D01*
X04065*
X04045Y0425*
Y0422D02*
X04025Y0426D01*
X04065*
X04045Y0422*
X04015D02*
X03995Y0426D01*
X04035*
X04015Y0422*
X03985D02*
X03965Y0426D01*
X04005*
X03985Y0422*
X03955D02*
X03935Y0426D01*
X03975*
X03955Y0422*
X03925D02*
X03905Y0426D01*
X03945*
X03925Y0422*
Y0419D02*
X03905Y0423D01*
X03945*
X03925Y0419*
X03955D02*
X03935Y0423D01*
X03975*
X03955Y0419*
X03985D02*
X03965Y0423D01*
X04005*
X03985Y0419*
X04015D02*
X03995Y0423D01*
X04035*
X04015Y0419*
X04045D02*
X04025Y0423D01*
X04065*
X04045Y0419*
Y0446D02*
X04025Y045D01*
X04065*
X04045Y0446*
X04015D02*
X03995Y045D01*
X04035*
X04015Y0446*
X03985D02*
X03965Y045D01*
X04005*
X03985Y0446*
X03955D02*
X03935Y045D01*
X03975*
X03955Y0446*
X03925D02*
X03905Y045D01*
X03945*
X03925Y0446*
Y0449D02*
X03905Y0453D01*
X03945*
X03925Y0449*
X03955D02*
X03935Y0453D01*
X03975*
X03955Y0449*
X03985D02*
X03965Y0453D01*
X04005*
X03985Y0449*
X04015D02*
X03995Y0453D01*
X04035*
X04015Y0449*
X04045Y0452D02*
X04025Y0456D01*
X04065*
X04045Y0452*
X04015D02*
X03995Y0456D01*
X04035*
X04015Y0452*
X03985D02*
X03965Y0456D01*
X04005*
X03985Y0452*
X03955D02*
X03935Y0456D01*
X03975*
X03955Y0452*
X03925D02*
X03905Y0456D01*
X03945*
X03925Y0452*
X04045Y0449D02*
X04025Y0453D01*
X04065*
X04045Y0449*
X04075Y0452D02*
X04055Y0456D01*
X04095*
X04075Y0452*
Y0449D02*
X04055Y0453D01*
X04095*
X04075Y0449*
Y0446D02*
X04055Y045D01*
X04095*
X04075Y0446*
Y0443D02*
X04055Y0447D01*
X04095*
X04075Y0443*
Y044D02*
X04055Y0444D01*
X04095*
X04075Y044*
Y0437D02*
X04055Y0441D01*
X04095*
X04075Y0437*
Y0434D02*
X04055Y0438D01*
X04095*
X04075Y0434*
Y0431D02*
X04055Y0435D01*
X04095*
X04075Y0431*
Y0428D02*
X04055Y0432D01*
X04095*
X04075Y0428*
Y0425D02*
X04055Y0429D01*
X04095*
X04075Y0425*
Y0422D02*
X04055Y0426D01*
X04095*
X04075Y0422*
Y0419D02*
X04055Y0423D01*
X04095*
X04075Y0419*
X04105Y0452D02*
X04085Y0456D01*
X04125*
X04105Y0452*
Y0449D02*
X04085Y0453D01*
X04125*
X04105Y0449*
Y0446D02*
X04085Y045D01*
X04125*
X04105Y0446*
Y0443D02*
X04085Y0447D01*
X04125*
X04105Y0443*
Y044D02*
X04085Y0444D01*
X04125*
X04105Y044*
Y0437D02*
X04085Y0441D01*
X04125*
X04105Y0437*
Y0434D02*
X04085Y0438D01*
X04125*
X04105Y0434*
Y0431D02*
X04085Y0435D01*
X04125*
X04105Y0431*
Y0428D02*
X04085Y0432D01*
X04125*
X04105Y0428*
Y0425D02*
X04085Y0429D01*
X04125*
X04105Y0425*
Y0422D02*
X04085Y0426D01*
X04125*
X04105Y0422*
Y0419D02*
X04085Y0423D01*
X04125*
X04105Y0419*
X04135Y0449D02*
X04115Y0453D01*
X04155*
X04135Y0449*
Y0446D02*
X04115Y045D01*
X04155*
X04135Y0446*
Y0443D02*
X04115Y0447D01*
X04155*
X04135Y0443*
Y044D02*
X04115Y0444D01*
X04155*
X04135Y044*
Y0437D02*
X04115Y0441D01*
X04155*
X04135Y0437*
Y0434D02*
X04115Y0438D01*
X04155*
X04135Y0434*
Y0431D02*
X04115Y0435D01*
X04155*
X04135Y0431*
Y0428D02*
X04115Y0432D01*
X04155*
X04135Y0428*
Y0425D02*
X04115Y0429D01*
X04155*
X04135Y0425*
Y0422D02*
X04115Y0426D01*
X04155*
X04135Y0422*
X03895Y0419D02*
X03875Y0423D01*
X03915*
X03895Y0419*
Y0422D02*
X03875Y0426D01*
X03915*
X03895Y0422*
Y0425D02*
X03875Y0429D01*
X03915*
X03895Y0425*
Y0428D02*
X03875Y0432D01*
X03915*
X03895Y0428*
Y0431D02*
X03875Y0435D01*
X03915*
X03895Y0431*
Y0434D02*
X03875Y0438D01*
X03915*
X03895Y0434*
Y0437D02*
X03875Y0441D01*
X03915*
X03895Y0437*
Y044D02*
X03875Y0444D01*
X03915*
X03895Y044*
Y0443D02*
X03875Y0447D01*
X03915*
X03895Y0443*
Y0446D02*
X03875Y045D01*
X03915*
X03895Y0446*
Y0449D02*
X03875Y0453D01*
X03915*
X03895Y0449*
Y0452D02*
X03875Y0456D01*
X03915*
X03895Y0452*
X03865D02*
X03845Y0456D01*
X03885*
X03865Y0452*
Y0449D02*
X03845Y0453D01*
X03885*
X03865Y0449*
Y0446D02*
X03845Y045D01*
X03885*
X03865Y0446*
Y0443D02*
X03845Y0447D01*
X03885*
X03865Y0443*
Y044D02*
X03845Y0444D01*
X03885*
X03865Y044*
Y0437D02*
X03845Y0441D01*
X03885*
X03865Y0437*
Y0434D02*
X03845Y0438D01*
X03885*
X03865Y0434*
Y0431D02*
X03845Y0435D01*
X03885*
X03865Y0431*
Y0428D02*
X03845Y0432D01*
X03885*
X03865Y0428*
Y0425D02*
X03845Y0429D01*
X03885*
X03865Y0425*
Y0422D02*
X03845Y0426D01*
X03885*
X03865Y0422*
Y0419D02*
X03845Y0423D01*
X03885*
X03865Y0419*
X03835Y0422D02*
X03815Y0426D01*
X03855*
X03835Y0422*
Y0425D02*
X03815Y0429D01*
X03855*
X03835Y0425*
Y0428D02*
X03815Y0432D01*
X03855*
X03835Y0428*
Y0431D02*
X03815Y0435D01*
X03855*
X03835Y0431*
Y0434D02*
X03815Y0438D01*
X03855*
X03835Y0434*
Y0437D02*
X03815Y0441D01*
X03855*
X03835Y0437*
Y044D02*
X03815Y0444D01*
X03855*
X03835Y044*
Y0443D02*
X03815Y0447D01*
X03855*
X03835Y0443*
Y0446D02*
X03815Y045D01*
X03855*
X03835Y0446*
Y0449D02*
X03815Y0453D01*
X03855*
X03835Y0449*
X04465Y04495D02*
X04445Y04535D01*
X04485*
X04465Y04495*
Y04465D02*
X04445Y04505D01*
X04485*
X04465Y04465*
Y04435D02*
X04445Y04475D01*
X04485*
X04465Y04435*
Y04405D02*
X04445Y04445D01*
X04485*
X04465Y04405*
Y04375D02*
X04445Y04415D01*
X04485*
X04465Y04375*
Y04345D02*
X04445Y04385D01*
X04485*
X04465Y04345*
Y04315D02*
X04445Y04355D01*
X04485*
X04465Y04315*
Y04285D02*
X04445Y04325D01*
X04485*
X04465Y04285*
Y04255D02*
X04445Y04295D01*
X04485*
X04465Y04255*
Y04225D02*
X04445Y04265D01*
X04485*
X04465Y04225*
X04495Y04195D02*
X04475Y04235D01*
X04515*
X04495Y04195*
Y04225D02*
X04475Y04265D01*
X04515*
X04495Y04225*
Y04255D02*
X04475Y04295D01*
X04515*
X04495Y04255*
Y04285D02*
X04475Y04325D01*
X04515*
X04495Y04285*
Y04315D02*
X04475Y04355D01*
X04515*
X04495Y04315*
Y04345D02*
X04475Y04385D01*
X04515*
X04495Y04345*
Y04375D02*
X04475Y04415D01*
X04515*
X04495Y04375*
Y04405D02*
X04475Y04445D01*
X04515*
X04495Y04405*
Y04435D02*
X04475Y04475D01*
X04515*
X04495Y04435*
Y04465D02*
X04475Y04505D01*
X04515*
X04495Y04465*
Y04495D02*
X04475Y04535D01*
X04515*
X04495Y04495*
Y04525D02*
X04475Y04565D01*
X04515*
X04495Y04525*
X04525D02*
X04505Y04565D01*
X04545*
X04525Y04525*
Y04495D02*
X04505Y04535D01*
X04545*
X04525Y04495*
Y04465D02*
X04505Y04505D01*
X04545*
X04525Y04465*
Y04435D02*
X04505Y04475D01*
X04545*
X04525Y04435*
Y04405D02*
X04505Y04445D01*
X04545*
X04525Y04405*
Y04375D02*
X04505Y04415D01*
X04545*
X04525Y04375*
Y04345D02*
X04505Y04385D01*
X04545*
X04525Y04345*
Y04315D02*
X04505Y04355D01*
X04545*
X04525Y04315*
Y04285D02*
X04505Y04325D01*
X04545*
X04525Y04285*
Y04255D02*
X04505Y04295D01*
X04545*
X04525Y04255*
Y04225D02*
X04505Y04265D01*
X04545*
X04525Y04225*
Y04195D02*
X04505Y04235D01*
X04545*
X04525Y04195*
X04765Y04225D02*
X04745Y04265D01*
X04785*
X04765Y04225*
Y04255D02*
X04745Y04295D01*
X04785*
X04765Y04255*
Y04285D02*
X04745Y04325D01*
X04785*
X04765Y04285*
Y04315D02*
X04745Y04355D01*
X04785*
X04765Y04315*
Y04345D02*
X04745Y04385D01*
X04785*
X04765Y04345*
Y04375D02*
X04745Y04415D01*
X04785*
X04765Y04375*
Y04405D02*
X04745Y04445D01*
X04785*
X04765Y04405*
Y04435D02*
X04745Y04475D01*
X04785*
X04765Y04435*
Y04465D02*
X04745Y04505D01*
X04785*
X04765Y04465*
Y04495D02*
X04745Y04535D01*
X04785*
X04765Y04495*
X04735Y04195D02*
X04715Y04235D01*
X04755*
X04735Y04195*
Y04225D02*
X04715Y04265D01*
X04755*
X04735Y04225*
Y04255D02*
X04715Y04295D01*
X04755*
X04735Y04255*
Y04285D02*
X04715Y04325D01*
X04755*
X04735Y04285*
Y04315D02*
X04715Y04355D01*
X04755*
X04735Y04315*
Y04345D02*
X04715Y04385D01*
X04755*
X04735Y04345*
Y04375D02*
X04715Y04415D01*
X04755*
X04735Y04375*
Y04405D02*
X04715Y04445D01*
X04755*
X04735Y04405*
Y04435D02*
X04715Y04475D01*
X04755*
X04735Y04435*
Y04465D02*
X04715Y04505D01*
X04755*
X04735Y04465*
Y04495D02*
X04715Y04535D01*
X04755*
X04735Y04495*
Y04525D02*
X04715Y04565D01*
X04755*
X04735Y04525*
X04705Y04195D02*
X04685Y04235D01*
X04725*
X04705Y04195*
Y04225D02*
X04685Y04265D01*
X04725*
X04705Y04225*
Y04255D02*
X04685Y04295D01*
X04725*
X04705Y04255*
Y04285D02*
X04685Y04325D01*
X04725*
X04705Y04285*
Y04315D02*
X04685Y04355D01*
X04725*
X04705Y04315*
Y04345D02*
X04685Y04385D01*
X04725*
X04705Y04345*
Y04375D02*
X04685Y04415D01*
X04725*
X04705Y04375*
Y04405D02*
X04685Y04445D01*
X04725*
X04705Y04405*
Y04435D02*
X04685Y04475D01*
X04725*
X04705Y04435*
Y04465D02*
X04685Y04505D01*
X04725*
X04705Y04465*
Y04495D02*
X04685Y04535D01*
X04725*
X04705Y04495*
Y04525D02*
X04685Y04565D01*
X04725*
X04705Y04525*
X04675Y04495D02*
X04655Y04535D01*
X04695*
X04675Y04495*
X04555Y04525D02*
X04535Y04565D01*
X04575*
X04555Y04525*
X04585D02*
X04565Y04565D01*
X04605*
X04585Y04525*
X04615D02*
X04595Y04565D01*
X04635*
X04615Y04525*
X04645D02*
X04625Y04565D01*
X04665*
X04645Y04525*
X04675D02*
X04655Y04565D01*
X04695*
X04675Y04525*
X04645Y04495D02*
X04625Y04535D01*
X04665*
X04645Y04495*
X04615D02*
X04595Y04535D01*
X04635*
X04615Y04495*
X04585D02*
X04565Y04535D01*
X04605*
X04585Y04495*
X04555D02*
X04535Y04535D01*
X04575*
X04555Y04495*
Y04465D02*
X04535Y04505D01*
X04575*
X04555Y04465*
X04585D02*
X04565Y04505D01*
X04605*
X04585Y04465*
X04615D02*
X04595Y04505D01*
X04635*
X04615Y04465*
X04645D02*
X04625Y04505D01*
X04665*
X04645Y04465*
X04675D02*
X04655Y04505D01*
X04695*
X04675Y04465*
Y04195D02*
X04655Y04235D01*
X04695*
X04675Y04195*
X04645D02*
X04625Y04235D01*
X04665*
X04645Y04195*
X04615D02*
X04595Y04235D01*
X04635*
X04615Y04195*
X04585D02*
X04565Y04235D01*
X04605*
X04585Y04195*
X04555D02*
X04535Y04235D01*
X04575*
X04555Y04195*
Y04225D02*
X04535Y04265D01*
X04575*
X04555Y04225*
X04585D02*
X04565Y04265D01*
X04605*
X04585Y04225*
X04615D02*
X04595Y04265D01*
X04635*
X04615Y04225*
X04645D02*
X04625Y04265D01*
X04665*
X04645Y04225*
X04675D02*
X04655Y04265D01*
X04695*
X04675Y04225*
Y04255D02*
X04655Y04295D01*
X04695*
X04675Y04255*
X04645D02*
X04625Y04295D01*
X04665*
X04645Y04255*
X04615D02*
X04595Y04295D01*
X04635*
X04615Y04255*
X04585D02*
X04565Y04295D01*
X04605*
X04585Y04255*
X04555D02*
X04535Y04295D01*
X04575*
X04555Y04255*
Y04285D02*
X04535Y04325D01*
X04575*
X04555Y04285*
X04585D02*
X04565Y04325D01*
X04605*
X04585Y04285*
X04615D02*
X04595Y04325D01*
X04635*
X04615Y04285*
X04645D02*
X04625Y04325D01*
X04665*
X04645Y04285*
X04675D02*
X04655Y04325D01*
X04695*
X04675Y04285*
Y04315D02*
X04655Y04355D01*
X04695*
X04675Y04315*
X04645D02*
X04625Y04355D01*
X04665*
X04645Y04315*
X04615D02*
X04595Y04355D01*
X04635*
X04615Y04315*
X04585D02*
X04565Y04355D01*
X04605*
X04585Y04315*
X04555D02*
X04535Y04355D01*
X04575*
X04555Y04315*
Y04345D02*
X04535Y04385D01*
X04575*
X04555Y04345*
X04585D02*
X04565Y04385D01*
X04605*
X04585Y04345*
X04615D02*
X04595Y04385D01*
X04635*
X04615Y04345*
X04645D02*
X04625Y04385D01*
X04665*
X04645Y04345*
X04675D02*
X04655Y04385D01*
X04695*
X04675Y04345*
Y04375D02*
X04655Y04415D01*
X04695*
X04675Y04375*
X04645D02*
X04625Y04415D01*
X04665*
X04645Y04375*
X04615D02*
X04595Y04415D01*
X04635*
X04615Y04375*
X04585D02*
X04565Y04415D01*
X04605*
X04585Y04375*
X04555D02*
X04535Y04415D01*
X04575*
X04555Y04375*
Y04405D02*
X04535Y04445D01*
X04575*
X04555Y04405*
X04585D02*
X04565Y04445D01*
X04605*
X04585Y04405*
X04615D02*
X04595Y04445D01*
X04635*
X04615Y04405*
X04645D02*
X04625Y04445D01*
X04665*
X04645Y04405*
X04675D02*
X04655Y04445D01*
X04695*
X04675Y04405*
Y04435D02*
X04655Y04475D01*
X04695*
X04675Y04435*
X04645D02*
X04625Y04475D01*
X04665*
X04645Y04435*
X04615D02*
X04595Y04475D01*
X04635*
X04615Y04435*
X04585D02*
X04565Y04475D01*
X04605*
X04585Y04435*
X04555D02*
X04535Y04475D01*
X04575*
X04555Y04435*
X06725Y0377D02*
X06705Y0381D01*
X06745*
X06725Y0377*
Y038D02*
X06705Y0384D01*
X06745*
X06725Y038*
Y0383D02*
X06705Y0387D01*
X06745*
X06725Y0383*
Y0386D02*
X06705Y039D01*
X06745*
X06725Y0386*
Y0389D02*
X06705Y0393D01*
X06745*
X06725Y0389*
X06755D02*
X06735Y0393D01*
X06775*
X06755Y0389*
Y0386D02*
X06735Y039D01*
X06775*
X06755Y0386*
Y0383D02*
X06735Y0387D01*
X06775*
X06755Y0383*
Y038D02*
X06735Y0384D01*
X06775*
X06755Y038*
Y0377D02*
X06735Y0381D01*
X06775*
X06755Y0377*
X06785D02*
X06765Y0381D01*
X06805*
X06785Y0377*
Y038D02*
X06765Y0384D01*
X06805*
X06785Y038*
Y0383D02*
X06765Y0387D01*
X06805*
X06785Y0383*
Y0386D02*
X06765Y039D01*
X06805*
X06785Y0386*
Y0389D02*
X06765Y0393D01*
X06805*
X06785Y0389*
X06815D02*
X06795Y0393D01*
X06835*
X06815Y0389*
Y0386D02*
X06795Y039D01*
X06835*
X06815Y0386*
Y0383D02*
X06795Y0387D01*
X06835*
X06815Y0383*
Y038D02*
X06795Y0384D01*
X06835*
X06815Y038*
Y0377D02*
X06795Y0381D01*
X06835*
X06815Y0377*
X06845D02*
X06825Y0381D01*
X06865*
X06845Y0377*
Y038D02*
X06825Y0384D01*
X06865*
X06845Y038*
Y0383D02*
X06825Y0387D01*
X06865*
X06845Y0383*
Y0386D02*
X06825Y039D01*
X06865*
X06845Y0386*
Y0389D02*
X06825Y0393D01*
X06865*
X06845Y0389*
X06875D02*
X06855Y0393D01*
X06895*
X06875Y0389*
Y0386D02*
X06855Y039D01*
X06895*
X06875Y0386*
Y0383D02*
X06855Y0387D01*
X06895*
X06875Y0383*
Y038D02*
X06855Y0384D01*
X06895*
X06875Y038*
Y0377D02*
X06855Y0381D01*
X06895*
X06875Y0377*
X06905D02*
X06885Y0381D01*
X06925*
X06905Y0377*
Y038D02*
X06885Y0384D01*
X06925*
X06905Y038*
Y0383D02*
X06885Y0387D01*
X06925*
X06905Y0383*
Y0386D02*
X06885Y039D01*
X06925*
X06905Y0386*
Y0389D02*
X06885Y0393D01*
X06925*
X06905Y0389*
X06935D02*
X06915Y0393D01*
X06955*
X06935Y0389*
Y0386D02*
X06915Y039D01*
X06955*
X06935Y0386*
Y0383D02*
X06915Y0387D01*
X06955*
X06935Y0383*
Y038D02*
X06915Y0384D01*
X06955*
X06935Y038*
Y0377D02*
X06915Y0381D01*
X06955*
X06935Y0377*
X06965D02*
X06945Y0381D01*
X06985*
X06965Y0377*
Y038D02*
X06945Y0384D01*
X06985*
X06965Y038*
Y0383D02*
X06945Y0387D01*
X06985*
X06965Y0383*
Y0386D02*
X06945Y039D01*
X06985*
X06965Y0386*
Y0389D02*
X06945Y0393D01*
X06985*
X06965Y0389*
X06695D02*
X06675Y0393D01*
X06715*
X06695Y0389*
Y0386D02*
X06675Y039D01*
X06715*
X06695Y0386*
Y0383D02*
X06675Y0387D01*
X06715*
X06695Y0383*
Y038D02*
X06675Y0384D01*
X06715*
X06695Y038*
Y0377D02*
X06675Y0381D01*
X06715*
X06695Y0377*
X06665D02*
X06645Y0381D01*
X06685*
X06665Y0377*
Y038D02*
X06645Y0384D01*
X06685*
X06665Y038*
Y0383D02*
X06645Y0387D01*
X06685*
X06665Y0383*
Y0386D02*
X06645Y039D01*
X06685*
X06665Y0386*
X06635Y0389D02*
X06615Y0393D01*
X06655*
X06635Y0389*
Y0386D02*
X06615Y039D01*
X06655*
X06635Y0386*
Y0383D02*
X06615Y0387D01*
X06655*
X06635Y0383*
Y038D02*
X06615Y0384D01*
X06655*
X06635Y038*
Y0377D02*
X06615Y0381D01*
X06655*
X06635Y0377*
X06665Y0389D02*
X06645Y0393D01*
X06685*
X06665Y0389*
X06635Y0392D02*
X06615Y0396D01*
X06655*
X06635Y0392*
X06665D02*
X06645Y0396D01*
X06685*
X06665Y0392*
X06695D02*
X06675Y0396D01*
X06715*
X06695Y0392*
X06725D02*
X06705Y0396D01*
X06745*
X06725Y0392*
X06755D02*
X06735Y0396D01*
X06775*
X06755Y0392*
X06785D02*
X06765Y0396D01*
X06805*
X06785Y0392*
X06815D02*
X06795Y0396D01*
X06835*
X06815Y0392*
X06845D02*
X06825Y0396D01*
X06865*
X06845Y0392*
X06875D02*
X06855Y0396D01*
X06895*
X06875Y0392*
X06905D02*
X06885Y0396D01*
X06925*
X06905Y0392*
X06935D02*
X06915Y0396D01*
X06955*
X06935Y0392*
X06965D02*
X06945Y0396D01*
X06985*
X06965Y0392*
X06635Y0395D02*
X06615Y0399D01*
X06655*
X06635Y0395*
X06665D02*
X06645Y0399D01*
X06685*
X06665Y0395*
X06695D02*
X06675Y0399D01*
X06715*
X06695Y0395*
X06725D02*
X06705Y0399D01*
X06745*
X06725Y0395*
X06755D02*
X06735Y0399D01*
X06775*
X06755Y0395*
X06785D02*
X06765Y0399D01*
X06805*
X06785Y0395*
X06815D02*
X06795Y0399D01*
X06835*
X06815Y0395*
X06845D02*
X06825Y0399D01*
X06865*
X06845Y0395*
X06875D02*
X06855Y0399D01*
X06895*
X06875Y0395*
X06905D02*
X06885Y0399D01*
X06925*
X06905Y0395*
X06935D02*
X06915Y0399D01*
X06955*
X06935Y0395*
X06965D02*
X06945Y0399D01*
X06985*
X06965Y0395*
X06665Y0398D02*
X06645Y0402D01*
X06685*
X06665Y0398*
X06695D02*
X06675Y0402D01*
X06715*
X06695Y0398*
X06725D02*
X06705Y0402D01*
X06745*
X06725Y0398*
X06755D02*
X06735Y0402D01*
X06775*
X06755Y0398*
X06785D02*
X06765Y0402D01*
X06805*
X06785Y0398*
X06815D02*
X06795Y0402D01*
X06835*
X06815Y0398*
X06845D02*
X06825Y0402D01*
X06865*
X06845Y0398*
X06875D02*
X06855Y0402D01*
X06895*
X06875Y0398*
X06905D02*
X06885Y0402D01*
X06925*
X06905Y0398*
X06935D02*
X06915Y0402D01*
X06955*
X06935Y0398*
X06965Y0374D02*
X06945Y0378D01*
X06985*
X06965Y0374*
X06935D02*
X06915Y0378D01*
X06955*
X06935Y0374*
X06905D02*
X06885Y0378D01*
X06925*
X06905Y0374*
X06875D02*
X06855Y0378D01*
X06895*
X06875Y0374*
X06845D02*
X06825Y0378D01*
X06865*
X06845Y0374*
X06815D02*
X06795Y0378D01*
X06835*
X06815Y0374*
X06785D02*
X06765Y0378D01*
X06805*
X06785Y0374*
X06755D02*
X06735Y0378D01*
X06775*
X06755Y0374*
X06725D02*
X06705Y0378D01*
X06745*
X06725Y0374*
X06695D02*
X06675Y0378D01*
X06715*
X06695Y0374*
X06665D02*
X06645Y0378D01*
X06685*
X06665Y0374*
X06635D02*
X06615Y0378D01*
X06655*
X06635Y0374*
Y0371D02*
X06615Y0375D01*
X06655*
X06635Y0371*
X06665D02*
X06645Y0375D01*
X06685*
X06665Y0371*
X06695D02*
X06675Y0375D01*
X06715*
X06695Y0371*
X06725D02*
X06705Y0375D01*
X06745*
X06725Y0371*
X06755D02*
X06735Y0375D01*
X06775*
X06755Y0371*
X06785D02*
X06765Y0375D01*
X06805*
X06785Y0371*
X06815D02*
X06795Y0375D01*
X06835*
X06815Y0371*
X06845D02*
X06825Y0375D01*
X06865*
X06845Y0371*
X06875D02*
X06855Y0375D01*
X06895*
X06875Y0371*
X06905D02*
X06885Y0375D01*
X06925*
X06905Y0371*
X06935D02*
X06915Y0375D01*
X06955*
X06935Y0371*
X06965D02*
X06945Y0375D01*
X06985*
X06965Y0371*
X06935Y0368D02*
X06915Y0372D01*
X06955*
X06935Y0368*
X06905D02*
X06885Y0372D01*
X06925*
X06905Y0368*
X06875D02*
X06855Y0372D01*
X06895*
X06875Y0368*
X06845D02*
X06825Y0372D01*
X06865*
X06845Y0368*
X06815D02*
X06795Y0372D01*
X06835*
X06815Y0368*
X06785D02*
X06765Y0372D01*
X06805*
X06785Y0368*
X06755D02*
X06735Y0372D01*
X06775*
X06755Y0368*
X06725D02*
X06705Y0372D01*
X06745*
X06725Y0368*
X06695D02*
X06675Y0372D01*
X06715*
X06695Y0368*
X06665D02*
X06645Y0372D01*
X06685*
X06665Y0368*
X06657Y0277D02*
X06637Y0281D01*
X06677*
X06657Y0277*
X06687D02*
X06667Y0281D01*
X06707*
X06687Y0277*
X06717D02*
X06697Y0281D01*
X06737*
X06717Y0277*
X06747D02*
X06727Y0281D01*
X06767*
X06747Y0277*
X06777D02*
X06757Y0281D01*
X06797*
X06777Y0277*
X06807D02*
X06787Y0281D01*
X06827*
X06807Y0277*
X06837D02*
X06817Y0281D01*
X06857*
X06837Y0277*
X06867D02*
X06847Y0281D01*
X06887*
X06867Y0277*
X06897D02*
X06877Y0281D01*
X06917*
X06897Y0277*
X06927D02*
X06907Y0281D01*
X06947*
X06927Y0277*
X06957Y028D02*
X06937Y0284D01*
X06977*
X06957Y028*
X06927D02*
X06907Y0284D01*
X06947*
X06927Y028*
X06897D02*
X06877Y0284D01*
X06917*
X06897Y028*
X06867D02*
X06847Y0284D01*
X06887*
X06867Y028*
X06837D02*
X06817Y0284D01*
X06857*
X06837Y028*
X06807D02*
X06787Y0284D01*
X06827*
X06807Y028*
X06777D02*
X06757Y0284D01*
X06797*
X06777Y028*
X06747D02*
X06727Y0284D01*
X06767*
X06747Y028*
X06717D02*
X06697Y0284D01*
X06737*
X06717Y028*
X06687D02*
X06667Y0284D01*
X06707*
X06687Y028*
X06657D02*
X06637Y0284D01*
X06677*
X06657Y028*
X06627D02*
X06607Y0284D01*
X06647*
X06627Y028*
Y0283D02*
X06607Y0287D01*
X06647*
X06627Y0283*
X06657D02*
X06637Y0287D01*
X06677*
X06657Y0283*
X06687D02*
X06667Y0287D01*
X06707*
X06687Y0283*
X06717D02*
X06697Y0287D01*
X06737*
X06717Y0283*
X06747D02*
X06727Y0287D01*
X06767*
X06747Y0283*
X06777D02*
X06757Y0287D01*
X06797*
X06777Y0283*
X06807D02*
X06787Y0287D01*
X06827*
X06807Y0283*
X06837D02*
X06817Y0287D01*
X06857*
X06837Y0283*
X06867D02*
X06847Y0287D01*
X06887*
X06867Y0283*
X06897D02*
X06877Y0287D01*
X06917*
X06897Y0283*
X06927D02*
X06907Y0287D01*
X06947*
X06927Y0283*
X06957D02*
X06937Y0287D01*
X06977*
X06957Y0283*
X06927Y0307D02*
X06907Y0311D01*
X06947*
X06927Y0307*
X06897D02*
X06877Y0311D01*
X06917*
X06897Y0307*
X06867D02*
X06847Y0311D01*
X06887*
X06867Y0307*
X06837D02*
X06817Y0311D01*
X06857*
X06837Y0307*
X06807D02*
X06787Y0311D01*
X06827*
X06807Y0307*
X06777D02*
X06757Y0311D01*
X06797*
X06777Y0307*
X06747D02*
X06727Y0311D01*
X06767*
X06747Y0307*
X06717D02*
X06697Y0311D01*
X06737*
X06717Y0307*
X06687D02*
X06667Y0311D01*
X06707*
X06687Y0307*
X06657D02*
X06637Y0311D01*
X06677*
X06657Y0307*
X06957Y0304D02*
X06937Y0308D01*
X06977*
X06957Y0304*
X06927D02*
X06907Y0308D01*
X06947*
X06927Y0304*
X06897D02*
X06877Y0308D01*
X06917*
X06897Y0304*
X06867D02*
X06847Y0308D01*
X06887*
X06867Y0304*
X06837D02*
X06817Y0308D01*
X06857*
X06837Y0304*
X06807D02*
X06787Y0308D01*
X06827*
X06807Y0304*
X06777D02*
X06757Y0308D01*
X06797*
X06777Y0304*
X06747D02*
X06727Y0308D01*
X06767*
X06747Y0304*
X06717D02*
X06697Y0308D01*
X06737*
X06717Y0304*
X06687D02*
X06667Y0308D01*
X06707*
X06687Y0304*
X06657D02*
X06637Y0308D01*
X06677*
X06657Y0304*
X06627D02*
X06607Y0308D01*
X06647*
X06627Y0304*
X06957Y0301D02*
X06937Y0305D01*
X06977*
X06957Y0301*
X06927D02*
X06907Y0305D01*
X06947*
X06927Y0301*
X06897D02*
X06877Y0305D01*
X06917*
X06897Y0301*
X06867D02*
X06847Y0305D01*
X06887*
X06867Y0301*
X06837D02*
X06817Y0305D01*
X06857*
X06837Y0301*
X06807D02*
X06787Y0305D01*
X06827*
X06807Y0301*
X06777D02*
X06757Y0305D01*
X06797*
X06777Y0301*
X06747D02*
X06727Y0305D01*
X06767*
X06747Y0301*
X06717D02*
X06697Y0305D01*
X06737*
X06717Y0301*
X06687D02*
X06667Y0305D01*
X06707*
X06687Y0301*
X06657D02*
X06637Y0305D01*
X06677*
X06657Y0301*
X06627D02*
X06607Y0305D01*
X06647*
X06627Y0301*
X06657Y0298D02*
X06637Y0302D01*
X06677*
X06657Y0298*
X06627Y0286D02*
X06607Y029D01*
X06647*
X06627Y0286*
Y0289D02*
X06607Y0293D01*
X06647*
X06627Y0289*
Y0292D02*
X06607Y0296D01*
X06647*
X06627Y0292*
Y0295D02*
X06607Y0299D01*
X06647*
X06627Y0295*
Y0298D02*
X06607Y0302D01*
X06647*
X06627Y0298*
X06657Y0295D02*
X06637Y0299D01*
X06677*
X06657Y0295*
Y0292D02*
X06637Y0296D01*
X06677*
X06657Y0292*
Y0289D02*
X06637Y0293D01*
X06677*
X06657Y0289*
Y0286D02*
X06637Y029D01*
X06677*
X06657Y0286*
X06687D02*
X06667Y029D01*
X06707*
X06687Y0286*
Y0289D02*
X06667Y0293D01*
X06707*
X06687Y0289*
Y0292D02*
X06667Y0296D01*
X06707*
X06687Y0292*
Y0295D02*
X06667Y0299D01*
X06707*
X06687Y0295*
Y0298D02*
X06667Y0302D01*
X06707*
X06687Y0298*
X06957D02*
X06937Y0302D01*
X06977*
X06957Y0298*
Y0295D02*
X06937Y0299D01*
X06977*
X06957Y0295*
Y0292D02*
X06937Y0296D01*
X06977*
X06957Y0292*
Y0289D02*
X06937Y0293D01*
X06977*
X06957Y0289*
Y0286D02*
X06937Y029D01*
X06977*
X06957Y0286*
X06927D02*
X06907Y029D01*
X06947*
X06927Y0286*
Y0289D02*
X06907Y0293D01*
X06947*
X06927Y0289*
Y0292D02*
X06907Y0296D01*
X06947*
X06927Y0292*
Y0295D02*
X06907Y0299D01*
X06947*
X06927Y0295*
Y0298D02*
X06907Y0302D01*
X06947*
X06927Y0298*
X06897D02*
X06877Y0302D01*
X06917*
X06897Y0298*
Y0295D02*
X06877Y0299D01*
X06917*
X06897Y0295*
Y0292D02*
X06877Y0296D01*
X06917*
X06897Y0292*
Y0289D02*
X06877Y0293D01*
X06917*
X06897Y0289*
Y0286D02*
X06877Y029D01*
X06917*
X06897Y0286*
X06867D02*
X06847Y029D01*
X06887*
X06867Y0286*
Y0289D02*
X06847Y0293D01*
X06887*
X06867Y0289*
Y0292D02*
X06847Y0296D01*
X06887*
X06867Y0292*
Y0295D02*
X06847Y0299D01*
X06887*
X06867Y0295*
Y0298D02*
X06847Y0302D01*
X06887*
X06867Y0298*
X06837D02*
X06817Y0302D01*
X06857*
X06837Y0298*
Y0295D02*
X06817Y0299D01*
X06857*
X06837Y0295*
Y0292D02*
X06817Y0296D01*
X06857*
X06837Y0292*
Y0289D02*
X06817Y0293D01*
X06857*
X06837Y0289*
Y0286D02*
X06817Y029D01*
X06857*
X06837Y0286*
X06807D02*
X06787Y029D01*
X06827*
X06807Y0286*
Y0289D02*
X06787Y0293D01*
X06827*
X06807Y0289*
Y0292D02*
X06787Y0296D01*
X06827*
X06807Y0292*
Y0295D02*
X06787Y0299D01*
X06827*
X06807Y0295*
Y0298D02*
X06787Y0302D01*
X06827*
X06807Y0298*
X06777D02*
X06757Y0302D01*
X06797*
X06777Y0298*
Y0295D02*
X06757Y0299D01*
X06797*
X06777Y0295*
Y0292D02*
X06757Y0296D01*
X06797*
X06777Y0292*
Y0289D02*
X06757Y0293D01*
X06797*
X06777Y0289*
Y0286D02*
X06757Y029D01*
X06797*
X06777Y0286*
X06747D02*
X06727Y029D01*
X06767*
X06747Y0286*
Y0289D02*
X06727Y0293D01*
X06767*
X06747Y0289*
Y0292D02*
X06727Y0296D01*
X06767*
X06747Y0292*
Y0295D02*
X06727Y0299D01*
X06767*
X06747Y0295*
Y0298D02*
X06727Y0302D01*
X06767*
X06747Y0298*
X06717D02*
X06697Y0302D01*
X06737*
X06717Y0298*
Y0295D02*
X06697Y0299D01*
X06737*
X06717Y0295*
Y0292D02*
X06697Y0296D01*
X06737*
X06717Y0292*
Y0289D02*
X06697Y0293D01*
X06737*
X06717Y0289*
Y0286D02*
X06697Y029D01*
X06737*
X06717Y0286*
X06725Y01815D02*
X06705Y01855D01*
X06745*
X06725Y01815*
Y01845D02*
X06705Y01885D01*
X06745*
X06725Y01845*
Y01875D02*
X06705Y01915D01*
X06745*
X06725Y01875*
Y01905D02*
X06705Y01945D01*
X06745*
X06725Y01905*
Y01935D02*
X06705Y01975D01*
X06745*
X06725Y01935*
X06755D02*
X06735Y01975D01*
X06775*
X06755Y01935*
Y01905D02*
X06735Y01945D01*
X06775*
X06755Y01905*
Y01875D02*
X06735Y01915D01*
X06775*
X06755Y01875*
Y01845D02*
X06735Y01885D01*
X06775*
X06755Y01845*
Y01815D02*
X06735Y01855D01*
X06775*
X06755Y01815*
X06785D02*
X06765Y01855D01*
X06805*
X06785Y01815*
Y01845D02*
X06765Y01885D01*
X06805*
X06785Y01845*
Y01875D02*
X06765Y01915D01*
X06805*
X06785Y01875*
Y01905D02*
X06765Y01945D01*
X06805*
X06785Y01905*
Y01935D02*
X06765Y01975D01*
X06805*
X06785Y01935*
X06815D02*
X06795Y01975D01*
X06835*
X06815Y01935*
Y01905D02*
X06795Y01945D01*
X06835*
X06815Y01905*
Y01875D02*
X06795Y01915D01*
X06835*
X06815Y01875*
Y01845D02*
X06795Y01885D01*
X06835*
X06815Y01845*
Y01815D02*
X06795Y01855D01*
X06835*
X06815Y01815*
X06845D02*
X06825Y01855D01*
X06865*
X06845Y01815*
Y01845D02*
X06825Y01885D01*
X06865*
X06845Y01845*
Y01875D02*
X06825Y01915D01*
X06865*
X06845Y01875*
Y01905D02*
X06825Y01945D01*
X06865*
X06845Y01905*
Y01935D02*
X06825Y01975D01*
X06865*
X06845Y01935*
X06875D02*
X06855Y01975D01*
X06895*
X06875Y01935*
Y01905D02*
X06855Y01945D01*
X06895*
X06875Y01905*
Y01875D02*
X06855Y01915D01*
X06895*
X06875Y01875*
Y01845D02*
X06855Y01885D01*
X06895*
X06875Y01845*
Y01815D02*
X06855Y01855D01*
X06895*
X06875Y01815*
X06905D02*
X06885Y01855D01*
X06925*
X06905Y01815*
Y01845D02*
X06885Y01885D01*
X06925*
X06905Y01845*
Y01875D02*
X06885Y01915D01*
X06925*
X06905Y01875*
Y01905D02*
X06885Y01945D01*
X06925*
X06905Y01905*
Y01935D02*
X06885Y01975D01*
X06925*
X06905Y01935*
X06935D02*
X06915Y01975D01*
X06955*
X06935Y01935*
Y01905D02*
X06915Y01945D01*
X06955*
X06935Y01905*
Y01875D02*
X06915Y01915D01*
X06955*
X06935Y01875*
Y01845D02*
X06915Y01885D01*
X06955*
X06935Y01845*
Y01815D02*
X06915Y01855D01*
X06955*
X06935Y01815*
X06965D02*
X06945Y01855D01*
X06985*
X06965Y01815*
Y01845D02*
X06945Y01885D01*
X06985*
X06965Y01845*
Y01875D02*
X06945Y01915D01*
X06985*
X06965Y01875*
Y01905D02*
X06945Y01945D01*
X06985*
X06965Y01905*
Y01935D02*
X06945Y01975D01*
X06985*
X06965Y01935*
X06695D02*
X06675Y01975D01*
X06715*
X06695Y01935*
Y01905D02*
X06675Y01945D01*
X06715*
X06695Y01905*
Y01875D02*
X06675Y01915D01*
X06715*
X06695Y01875*
Y01845D02*
X06675Y01885D01*
X06715*
X06695Y01845*
Y01815D02*
X06675Y01855D01*
X06715*
X06695Y01815*
X06665D02*
X06645Y01855D01*
X06685*
X06665Y01815*
Y01845D02*
X06645Y01885D01*
X06685*
X06665Y01845*
Y01875D02*
X06645Y01915D01*
X06685*
X06665Y01875*
Y01905D02*
X06645Y01945D01*
X06685*
X06665Y01905*
X06635Y01935D02*
X06615Y01975D01*
X06655*
X06635Y01935*
Y01905D02*
X06615Y01945D01*
X06655*
X06635Y01905*
Y01875D02*
X06615Y01915D01*
X06655*
X06635Y01875*
Y01845D02*
X06615Y01885D01*
X06655*
X06635Y01845*
Y01815D02*
X06615Y01855D01*
X06655*
X06635Y01815*
X06665Y01935D02*
X06645Y01975D01*
X06685*
X06665Y01935*
X06635Y01965D02*
X06615Y02005D01*
X06655*
X06635Y01965*
X06665D02*
X06645Y02005D01*
X06685*
X06665Y01965*
X06695D02*
X06675Y02005D01*
X06715*
X06695Y01965*
X06725D02*
X06705Y02005D01*
X06745*
X06725Y01965*
X06755D02*
X06735Y02005D01*
X06775*
X06755Y01965*
X06785D02*
X06765Y02005D01*
X06805*
X06785Y01965*
X06815D02*
X06795Y02005D01*
X06835*
X06815Y01965*
X06845D02*
X06825Y02005D01*
X06865*
X06845Y01965*
X06875D02*
X06855Y02005D01*
X06895*
X06875Y01965*
X06905D02*
X06885Y02005D01*
X06925*
X06905Y01965*
X06935D02*
X06915Y02005D01*
X06955*
X06935Y01965*
X06965D02*
X06945Y02005D01*
X06985*
X06965Y01965*
X06635Y01995D02*
X06615Y02035D01*
X06655*
X06635Y01995*
X06665D02*
X06645Y02035D01*
X06685*
X06665Y01995*
X06695D02*
X06675Y02035D01*
X06715*
X06695Y01995*
X06725D02*
X06705Y02035D01*
X06745*
X06725Y01995*
X06755D02*
X06735Y02035D01*
X06775*
X06755Y01995*
X06785D02*
X06765Y02035D01*
X06805*
X06785Y01995*
X06815D02*
X06795Y02035D01*
X06835*
X06815Y01995*
X06845D02*
X06825Y02035D01*
X06865*
X06845Y01995*
X06875D02*
X06855Y02035D01*
X06895*
X06875Y01995*
X06905D02*
X06885Y02035D01*
X06925*
X06905Y01995*
X06935D02*
X06915Y02035D01*
X06955*
X06935Y01995*
X06965D02*
X06945Y02035D01*
X06985*
X06965Y01995*
X06665Y02025D02*
X06645Y02065D01*
X06685*
X06665Y02025*
X06695D02*
X06675Y02065D01*
X06715*
X06695Y02025*
X06725D02*
X06705Y02065D01*
X06745*
X06725Y02025*
X06755D02*
X06735Y02065D01*
X06775*
X06755Y02025*
X06785D02*
X06765Y02065D01*
X06805*
X06785Y02025*
X06815D02*
X06795Y02065D01*
X06835*
X06815Y02025*
X06845D02*
X06825Y02065D01*
X06865*
X06845Y02025*
X06875D02*
X06855Y02065D01*
X06895*
X06875Y02025*
X06905D02*
X06885Y02065D01*
X06925*
X06905Y02025*
X06935D02*
X06915Y02065D01*
X06955*
X06935Y02025*
X06965Y01785D02*
X06945Y01825D01*
X06985*
X06965Y01785*
X06935D02*
X06915Y01825D01*
X06955*
X06935Y01785*
X06905D02*
X06885Y01825D01*
X06925*
X06905Y01785*
X06875D02*
X06855Y01825D01*
X06895*
X06875Y01785*
X06845D02*
X06825Y01825D01*
X06865*
X06845Y01785*
X06815D02*
X06795Y01825D01*
X06835*
X06815Y01785*
X06785D02*
X06765Y01825D01*
X06805*
X06785Y01785*
X06755D02*
X06735Y01825D01*
X06775*
X06755Y01785*
X06725D02*
X06705Y01825D01*
X06745*
X06725Y01785*
X06695D02*
X06675Y01825D01*
X06715*
X06695Y01785*
X06665D02*
X06645Y01825D01*
X06685*
X06665Y01785*
X06635D02*
X06615Y01825D01*
X06655*
X06635Y01785*
Y01755D02*
X06615Y01795D01*
X06655*
X06635Y01755*
X06665D02*
X06645Y01795D01*
X06685*
X06665Y01755*
X06695D02*
X06675Y01795D01*
X06715*
X06695Y01755*
X06725D02*
X06705Y01795D01*
X06745*
X06725Y01755*
X06755D02*
X06735Y01795D01*
X06775*
X06755Y01755*
X06785D02*
X06765Y01795D01*
X06805*
X06785Y01755*
X06815D02*
X06795Y01795D01*
X06835*
X06815Y01755*
X06845D02*
X06825Y01795D01*
X06865*
X06845Y01755*
X06875D02*
X06855Y01795D01*
X06895*
X06875Y01755*
X06905D02*
X06885Y01795D01*
X06925*
X06905Y01755*
X06935D02*
X06915Y01795D01*
X06955*
X06935Y01755*
X06965D02*
X06945Y01795D01*
X06985*
X06965Y01755*
X06935Y01725D02*
X06915Y01765D01*
X06955*
X06935Y01725*
X06905D02*
X06885Y01765D01*
X06925*
X06905Y01725*
X06875D02*
X06855Y01765D01*
X06895*
X06875Y01725*
X06845D02*
X06825Y01765D01*
X06865*
X06845Y01725*
X06815D02*
X06795Y01765D01*
X06835*
X06815Y01725*
X06785D02*
X06765Y01765D01*
X06805*
X06785Y01725*
X06755D02*
X06735Y01765D01*
X06775*
X06755Y01725*
X06725D02*
X06705Y01765D01*
X06745*
X06725Y01725*
X06695D02*
X06675Y01765D01*
X06715*
X06695Y01725*
X06665D02*
X06645Y01765D01*
X06685*
X06665Y01725*
X04275Y027D02*
X04255Y0274D01*
X04295*
X04275Y027*
X05964Y03287D02*
X05974Y03297D01*
X05984*
X05974Y03307*
X05984Y03317*
X05974*
X05964Y03327*
X05954Y03317*
X05944*
X05954Y03307*
X05944Y03297*
X05954*
X05964Y03287*
X05994Y03228D02*
X06004Y03238D01*
X06014*
X06004Y03248*
X06014Y03258*
X06004*
X05994Y03268*
X05984Y03258*
X05974*
X05984Y03248*
X05974Y03238*
X05984*
X05994Y03228*
X05905Y03287D02*
X05915Y03297D01*
X05925*
X05915Y03307*
X05925Y03317*
X05915*
X05905Y03327*
X05895Y03317*
X05885*
X05895Y03307*
X05885Y03297*
X05895*
X05905Y03287*
X05935Y03228D02*
X05945Y03238D01*
X05955*
X05945Y03248*
X05955Y03258*
X05945*
X05935Y03268*
X05925Y03258*
X05915*
X05925Y03248*
X05915Y03238*
X05925*
X05935Y03228*
X05905Y03168D02*
X05915Y03178D01*
X05925*
X05915Y03188*
X05925Y03198*
X05915*
X05905Y03208*
X05895Y03198*
X05885*
X05895Y03188*
X05885Y03178*
X05895*
X05905Y03168*
X05846Y03287D02*
X05856Y03297D01*
X05866*
X05856Y03307*
X05866Y03317*
X05856*
X05846Y03327*
X05836Y03317*
X05826*
X05836Y03307*
X05826Y03297*
X05836*
X05846Y03287*
X05875Y03228D02*
X05885Y03238D01*
X05895*
X05885Y03248*
X05895Y03258*
X05885*
X05875Y03268*
X05865Y03258*
X05855*
X05865Y03248*
X05855Y03238*
X05865*
X05875Y03228*
X05846Y03168D02*
X05856Y03178D01*
X05866*
X05856Y03188*
X05866Y03198*
X05856*
X05846Y03208*
X05836Y03198*
X05826*
X05836Y03188*
X05826Y03178*
X05836*
X05846Y03168*
X05787Y03287D02*
X05797Y03297D01*
X05807*
X05797Y03307*
X05807Y03317*
X05797*
X05787Y03327*
X05777Y03317*
X05767*
X05777Y03307*
X05767Y03297*
X05777*
X05787Y03287*
X05816Y03228D02*
X05826Y03238D01*
X05836*
X05826Y03248*
X05836Y03258*
X05826*
X05816Y03268*
X05806Y03258*
X05796*
X05806Y03248*
X05796Y03238*
X05806*
X05816Y03228*
X05787Y03168D02*
X05797Y03178D01*
X05807*
X05797Y03188*
X05807Y03198*
X05797*
X05787Y03208*
X05777Y03198*
X05767*
X05777Y03188*
X05767Y03178*
X05777*
X05787Y03168*
X05728Y03287D02*
X05738Y03297D01*
X05748*
X05738Y03307*
X05748Y03317*
X05738*
X05728Y03327*
X05718Y03317*
X05708*
X05718Y03307*
X05708Y03297*
X05718*
X05728Y03287*
X05757Y03228D02*
X05767Y03238D01*
X05777*
X05767Y03248*
X05777Y03258*
X05767*
X05757Y03268*
X05747Y03258*
X05737*
X05747Y03248*
X05737Y03238*
X05747*
X05757Y03228*
X05698D02*
X05708Y03238D01*
X05718*
X05708Y03248*
X05718Y03258*
X05708*
X05698Y03268*
X05688Y03258*
X05678*
X05688Y03248*
X05678Y03238*
X05688*
X05698Y03228*
X04872Y037D02*
X04882Y0371D01*
X04892*
X04882Y0372*
X04892Y0373*
X04882*
X04872Y0374*
X04862Y0373*
X04852*
X04862Y0372*
X04852Y0371*
X04862*
X04872Y037*
Y03346D02*
X04882Y03356D01*
X04892*
X04882Y03366*
X04892Y03376*
X04882*
X04872Y03386*
X04862Y03376*
X04852*
X04862Y03366*
X04852Y03356*
X04862*
X04872Y03346*
X04812Y037D02*
X04822Y0371D01*
X04832*
X04822Y0372*
X04832Y0373*
X04822*
X04812Y0374*
X04802Y0373*
X04792*
X04802Y0372*
X04792Y0371*
X04802*
X04812Y037*
X04429Y02696D02*
X04439Y02706D01*
X04449*
X04439Y02716*
X04449Y02726*
X04439*
X04429Y02736*
X04419Y02726*
X04409*
X04419Y02716*
X04409Y02706*
X04419*
X04429Y02696*
Y02578D02*
X04439Y02588D01*
X04449*
X04439Y02598*
X04449Y02608*
X04439*
X04429Y02618*
X04419Y02608*
X04409*
X04419Y02598*
X04409Y02588*
X04419*
X04429Y02578*
Y02224D02*
X04439Y02234D01*
X04449*
X04439Y02244*
X04449Y02254*
X04439*
X04429Y02264*
X04419Y02254*
X04409*
X04419Y02244*
X04409Y02234*
X04419*
X04429Y02224*
X04399Y02637D02*
X04409Y02647D01*
X04419*
X04409Y02657*
X04419Y02667*
X04409*
X04399Y02677*
X04389Y02667*
X04379*
X04389Y02657*
X04379Y02647*
X04389*
X04399Y02637*
X0437Y0246D02*
X0438Y0247D01*
X0439*
X0438Y0248*
X0439Y0249*
X0438*
X0437Y025*
X0436Y0249*
X0435*
X0436Y0248*
X0435Y0247*
X0436*
X0437Y0246*
X04399Y02401D02*
X04409Y02411D01*
X04419*
X04409Y02421*
X04419Y02431*
X04409*
X04399Y02441*
X04389Y02431*
X04379*
X04389Y02421*
X04379Y02411*
X04389*
X04399Y02401*
X0437Y02342D02*
X0438Y02352D01*
X0439*
X0438Y02362*
X0439Y02372*
X0438*
X0437Y02382*
X0436Y02372*
X0435*
X0436Y02362*
X0435Y02352*
X0436*
X0437Y02342*
Y02224D02*
X0438Y02234D01*
X0439*
X0438Y02244*
X0439Y02254*
X0438*
X0437Y02264*
X0436Y02254*
X0435*
X0436Y02244*
X0435Y02234*
X0436*
X0437Y02224*
X04311Y0246D02*
X04321Y0247D01*
X04331*
X04321Y0248*
X04331Y0249*
X04321*
X04311Y025*
X04301Y0249*
X04291*
X04301Y0248*
X04291Y0247*
X04301*
X04311Y0246*
X04075Y02295D02*
X04055Y02335D01*
X04095*
X04075Y02295*
X04885Y0299D02*
X04865Y0303D01*
X04905*
X04885Y0299*
X0472Y02935D02*
X047Y02975D01*
X0474*
X0472Y02935*
X0425Y0296D02*
X0423Y03D01*
X0427*
X0425Y0296*
X04195Y0291D02*
X04175Y0295D01*
X04215*
X04195Y0291*
X04615Y02015D02*
X04595Y02055D01*
X04635*
X04615Y02015*
X048Y0189D02*
X0478Y0193D01*
X0482*
X048Y0189*
X04435Y01775D02*
X04415Y01815D01*
X04455*
X04435Y01775*
X04445Y01855D02*
X04425Y01895D01*
X04465*
X04445Y01855*
X0419Y0186D02*
X0417Y019D01*
X0421*
X0419Y0186*
X042Y0202D02*
X0418Y0206D01*
X0422*
X042Y0202*
X04195Y0194D02*
X04175Y0198D01*
X04215*
X04195Y0194*
X0444Y0202D02*
X0442Y0206D01*
X0446*
X0444Y0202*
Y0194D02*
X0442Y0198D01*
X0446*
X0444Y0194*
X0469Y03195D02*
X0467Y03235D01*
X0471*
X0469Y03195*
X04665Y02915D02*
X04645Y02955D01*
X04685*
X04665Y02915*
X04685Y03015D02*
X04665Y03055D01*
X04705*
X04685Y03015*
X0416Y0246D02*
X0414Y025D01*
X0418*
X0416Y0246*
X0412Y02445D02*
X041Y02485D01*
X0414*
X0412Y02445*
X0409Y0241D02*
X0407Y0245D01*
X0411*
X0409Y0241*
X0408Y0238D02*
X0406Y0242D01*
X041*
X0408Y0238*
X0383Y0251D02*
X0381Y0255D01*
X0385*
X0383Y0251*
X0348Y0263D02*
X0346Y0267D01*
X035*
X0348Y0263*
X0349Y02665D02*
X0347Y02705D01*
X0351*
X0349Y02665*
X03855Y0254D02*
X03835Y0258D01*
X03875*
X03855Y0254*
X03735Y0261D02*
X03715Y0265D01*
X03755*
X03735Y0261*
X0377Y02605D02*
X0375Y02645D01*
X0379*
X0377Y02605*
X0388Y02485D02*
X0386Y02525D01*
X039*
X0388Y02485*
X0357Y0274D02*
X0355Y0278D01*
X0359*
X0357Y0274*
X03615D02*
X03595Y0278D01*
X03635*
X03615Y0274*
X03425Y02605D02*
X03405Y02645D01*
X03445*
X03425Y02605*
X0376Y02135D02*
X0374Y02175D01*
X0378*
X0376Y02135*
X0542Y01875D02*
X054Y01915D01*
X0544*
X0542Y01875*
X05475D02*
X05455Y01915D01*
X05495*
X05475Y01875*
X054Y0377D02*
X0538Y0381D01*
X0542*
X054Y0377*
X0546D02*
X0544Y0381D01*
X0548*
X0546Y0377*
X0552D02*
X055Y0381D01*
X0554*
X0552Y0377*
X05515Y03585D02*
X05495Y03625D01*
X05535*
X05515Y03585*
X05455D02*
X05435Y03625D01*
X05475*
X05455Y03585*
X054D02*
X0538Y03625D01*
X0542*
X054Y03585*
X05545Y0301D02*
X05525Y0305D01*
X05565*
X05545Y0301*
X0549D02*
X0547Y0305D01*
X0551*
X0549Y0301*
X05435D02*
X05415Y0305D01*
X05455*
X05435Y0301*
X0555Y0282D02*
X0553Y0286D01*
X0557*
X0555Y0282*
X05495D02*
X05475Y0286D01*
X05515*
X05495Y0282*
X0544D02*
X0542Y0286D01*
X0546*
X0544Y0282*
X0537Y01715D02*
X0535Y01755D01*
X0539*
X0537Y01715*
X0542D02*
X054Y01755D01*
X0544*
X0542Y01715*
X05475D02*
X05455Y01755D01*
X05495*
X05475Y01715*
X0537Y01875D02*
X0535Y01915D01*
X0539*
X0537Y01875*
X04925Y0277D02*
X04905Y0281D01*
X04945*
X04925Y0277*
X0485Y02825D02*
X0483Y02865D01*
X0487*
X0485Y02825*
X0492Y0281D02*
X049Y0285D01*
X0494*
X0492Y0281*
X04924Y02705D02*
X04904Y02745D01*
X04944*
X04924Y02705*
X0495Y0268D02*
X0493Y0272D01*
X0497*
X0495Y0268*
X04882Y02762D02*
X04862Y02802D01*
X04902*
X04882Y02762*
X04855Y0296D02*
X04835Y03D01*
X04875*
X04855Y0296*
X05772Y04005D02*
X05752Y04045D01*
X05792*
X05772Y04005*
X05747Y0398D02*
X05727Y0402D01*
X05767*
X05747Y0398*
X04925Y0255D02*
X04905Y0259D01*
X04945*
X04925Y0255*
Y02595D02*
X04905Y02635D01*
X04945*
X04925Y02595*
X04795Y0264D02*
X04775Y0268D01*
X04815*
X04795Y0264*
X04725Y02585D02*
X04705Y02625D01*
X04745*
X04725Y02585*
X0573Y02415D02*
X0571Y02455D01*
X0575*
X0573Y02415*
X05694D02*
X05674Y02455D01*
X05714*
X05694Y02415*
X0621Y0232D02*
X0622Y0233D01*
X0623*
X0622Y0234*
X0623Y0235*
X0622*
X0621Y0236*
X062Y0235*
X0619*
X062Y0234*
X0619Y0233*
X062*
X0621Y0232*
X06176Y02342D02*
X06186Y02352D01*
X06196*
X06186Y02362*
X06196Y02372*
X06186*
X06176Y02382*
X06166Y02372*
X06156*
X06166Y02362*
X06156Y02352*
X06166*
X06176Y02342*
X04595Y0258D02*
X04605Y0259D01*
X04615*
X04605Y026*
X04615Y0261*
X04605*
X04595Y0262*
X04585Y0261*
X04575*
X04585Y026*
X04575Y0259*
X04585*
X04595Y0258*
Y0252D02*
X04605Y0253D01*
X04615*
X04605Y0254*
X04615Y0255*
X04605*
X04595Y0256*
X04585Y0255*
X04575*
X04585Y0254*
X04575Y0253*
X04585*
X04595Y0252*
Y0246D02*
X04605Y0247D01*
X04615*
X04605Y0248*
X04615Y0249*
X04605*
X04595Y025*
X04585Y0249*
X04575*
X04585Y0248*
X04575Y0247*
X04585*
X04595Y0246*
Y024D02*
X04605Y0241D01*
X04615*
X04605Y0242*
X04615Y0243*
X04605*
X04595Y0244*
X04585Y0243*
X04575*
X04585Y0242*
X04575Y0241*
X04585*
X04595Y024*
Y02345D02*
X04605Y02355D01*
X04615*
X04605Y02365*
X04615Y02375*
X04605*
X04595Y02385*
X04585Y02375*
X04575*
X04585Y02365*
X04575Y02355*
X04585*
X04595Y02345*
Y02285D02*
X04605Y02295D01*
X04615*
X04605Y02305*
X04615Y02315*
X04605*
X04595Y02325*
X04585Y02315*
X04575*
X04585Y02305*
X04575Y02295*
X04585*
X04595Y02285*
Y02225D02*
X04605Y02235D01*
X04615*
X04605Y02245*
X04615Y02255*
X04605*
X04595Y02265*
X04585Y02255*
X04575*
X04585Y02245*
X04575Y02235*
X04585*
X04595Y02225*
X04555Y0272D02*
X04535Y0276D01*
X04575*
X04555Y0272*
X06595Y0336D02*
X06575Y034D01*
X06615*
X06595Y0336*
X057Y03165D02*
X0571Y03175D01*
X0572*
X0571Y03185*
X0572Y03195*
X0571*
X057Y03205*
X0569Y03195*
X0568*
X0569Y03185*
X0568Y03175*
X0569*
X057Y03165*
X065Y0314D02*
X0648Y0318D01*
X0652*
X065Y0314*
X06495Y04035D02*
X06475Y04075D01*
X06515*
X06495Y04035*
X05765Y03745D02*
X05745Y03785D01*
X05785*
X05765Y03745*
Y03485D02*
X05745Y03525D01*
X05785*
X05765Y03485*
Y02835D02*
X05745Y02875D01*
X05785*
X05765Y02835*
X05775Y0259D02*
X05755Y0263D01*
X05795*
X05775Y0259*
X0573Y0179D02*
X0571Y0183D01*
X0575*
X0573Y0179*
X0575Y01525D02*
X0573Y01565D01*
X0577*
X0575Y01525*
X0649Y02095D02*
X0647Y02135D01*
X0651*
X0649Y02095*
X04705Y0251D02*
X04685Y0255D01*
X04725*
X04705Y0251*
X02985Y0202D02*
X02965Y0206D01*
X03005*
X02985Y0202*
X02935D02*
X02915Y0206D01*
X02955*
X02935Y0202*
X0317Y0227D02*
X0315Y0231D01*
X0319*
X0317Y0227*
X03015Y0246D02*
X02995Y025D01*
X03035*
X03015Y0246*
X0302Y02365D02*
X03Y02405D01*
X0304*
X0302Y02365*
Y0227D02*
X03Y0231D01*
X0304*
X0302Y0227*
X02985Y0255D02*
X02965Y0259D01*
X03005*
X02985Y0255*
X06289Y04291D02*
X06299Y04301D01*
X06309*
X06299Y04311*
X06309Y04321*
X06299*
X06289Y04331*
X06279Y04321*
X06269*
X06279Y04311*
X06269Y04301*
X06279*
X06289Y04291*
X0623D02*
X0624Y04301D01*
X0625*
X0624Y04311*
X0625Y04321*
X0624*
X0623Y04331*
X0622Y04321*
X0621*
X0622Y04311*
X0621Y04301*
X0622*
X0623Y04291*
Y04172D02*
X0624Y04182D01*
X0625*
X0624Y04192*
X0625Y04202*
X0624*
X0623Y04212*
X0622Y04202*
X0621*
X0622Y04192*
X0621Y04182*
X0622*
X0623Y04172*
X06171Y04291D02*
X06181Y04301D01*
X06191*
X06181Y04311*
X06191Y04321*
X06181*
X06171Y04331*
X06161Y04321*
X06151*
X06161Y04311*
X06151Y04301*
X06161*
X06171Y04291*
X06112D02*
X06122Y04301D01*
X06132*
X06122Y04311*
X06132Y04321*
X06122*
X06112Y04331*
X06102Y04321*
X06092*
X06102Y04311*
X06092Y04301*
X06102*
X06112Y04291*
X06053D02*
X06063Y04301D01*
X06073*
X06063Y04311*
X06073Y04321*
X06063*
X06053Y04331*
X06043Y04321*
X06033*
X06043Y04311*
X06033Y04301*
X06043*
X06053Y04291*
X06023Y04231D02*
X06033Y04241D01*
X06043*
X06033Y04251*
X06043Y04261*
X06033*
X06023Y04271*
X06013Y04261*
X06003*
X06013Y04251*
X06003Y04241*
X06013*
X06023Y04231*
Y04113D02*
X06033Y04123D01*
X06043*
X06033Y04133*
X06043Y04143*
X06033*
X06023Y04153*
X06013Y04143*
X06003*
X06013Y04133*
X06003Y04123*
X06013*
X06023Y04113*
X05994Y04291D02*
X06004Y04301D01*
X06014*
X06004Y04311*
X06014Y04321*
X06004*
X05994Y04331*
X05984Y04321*
X05974*
X05984Y04311*
X05974Y04301*
X05984*
X05994Y04291*
X05964Y04231D02*
X05974Y04241D01*
X05984*
X05974Y04251*
X05984Y04261*
X05974*
X05964Y04271*
X05954Y04261*
X05944*
X05954Y04251*
X05944Y04241*
X05954*
X05964Y04231*
X05994Y04172D02*
X06004Y04182D01*
X06014*
X06004Y04192*
X06014Y04202*
X06004*
X05994Y04212*
X05984Y04202*
X05974*
X05984Y04192*
X05974Y04182*
X05984*
X05994Y04172*
X05964Y04113D02*
X05974Y04123D01*
X05984*
X05974Y04133*
X05984Y04143*
X05974*
X05964Y04153*
X05954Y04143*
X05944*
X05954Y04133*
X05944Y04123*
X05954*
X05964Y04113*
X05935Y04291D02*
X05945Y04301D01*
X05955*
X05945Y04311*
X05955Y04321*
X05945*
X05935Y04331*
X05925Y04321*
X05915*
X05925Y04311*
X05915Y04301*
X05925*
X05935Y04291*
Y04172D02*
X05945Y04182D01*
X05955*
X05945Y04192*
X05955Y04202*
X05945*
X05935Y04212*
X05925Y04202*
X05915*
X05925Y04192*
X05915Y04182*
X05925*
X05935Y04172*
X04025Y0265D02*
X04005Y0269D01*
X04045*
X04025Y0265*
X06225Y0219D02*
X06235Y022D01*
X06245*
X06235Y0221*
X06245Y0222*
X06235*
X06225Y0223*
X06215Y0222*
X06205*
X06215Y0221*
X06205Y022*
X06215*
X06225Y0219*
Y0223D02*
X06235Y0224D01*
X06245*
X06235Y0225*
X06245Y0226*
X06235*
X06225Y0227*
X06215Y0226*
X06205*
X06215Y0225*
X06205Y0224*
X06215*
X06225Y0223*
X0622Y02275D02*
X0623Y02285D01*
X0624*
X0623Y02295*
X0624Y02305*
X0623*
X0622Y02315*
X0621Y02305*
X062*
X0621Y02295*
X062Y02285*
X0621*
X0622Y02275*
X06117Y02342D02*
X06127Y02352D01*
X06137*
X06127Y02362*
X06137Y02372*
X06127*
X06117Y02382*
X06107Y02372*
X06097*
X06107Y02362*
X06097Y02352*
X06107*
X06117Y02342*
X06058D02*
X06068Y02352D01*
X06078*
X06068Y02362*
X06078Y02372*
X06068*
X06058Y02382*
X06048Y02372*
X06038*
X06048Y02362*
X06038Y02352*
X06048*
X06058Y02342*
X06028Y02283D02*
X06038Y02293D01*
X06048*
X06038Y02303*
X06048Y02313*
X06038*
X06028Y02323*
X06018Y02313*
X06008*
X06018Y02303*
X06008Y02293*
X06018*
X06028Y02283*
X05999Y02342D02*
X06009Y02352D01*
X06019*
X06009Y02362*
X06019Y02372*
X06009*
X05999Y02382*
X05989Y02372*
X05979*
X05989Y02362*
X05979Y02352*
X05989*
X05999Y02342*
X05969Y02283D02*
X05979Y02293D01*
X05989*
X05979Y02303*
X05989Y02313*
X05979*
X05969Y02323*
X05959Y02313*
X05949*
X05959Y02303*
X05949Y02293*
X05959*
X05969Y02283*
X05999Y02224D02*
X06009Y02234D01*
X06019*
X06009Y02244*
X06019Y02254*
X06009*
X05999Y02264*
X05989Y02254*
X05979*
X05989Y02244*
X05979Y02234*
X05989*
X05999Y02224*
X0594Y02342D02*
X0595Y02352D01*
X0596*
X0595Y02362*
X0596Y02372*
X0595*
X0594Y02382*
X0593Y02372*
X0592*
X0593Y02362*
X0592Y02352*
X0593*
X0594Y02342*
X0591Y02283D02*
X0592Y02293D01*
X0593*
X0592Y02303*
X0593Y02313*
X0592*
X0591Y02323*
X059Y02313*
X0589*
X059Y02303*
X0589Y02293*
X059*
X0591Y02283*
X0594Y02224D02*
X0595Y02234D01*
X0596*
X0595Y02244*
X0596Y02254*
X0595*
X0594Y02264*
X0593Y02254*
X0592*
X0593Y02244*
X0592Y02234*
X0593*
X0594Y02224*
X0588Y02342D02*
X0589Y02352D01*
X059*
X0589Y02362*
X059Y02372*
X0589*
X0588Y02382*
X0587Y02372*
X0586*
X0587Y02362*
X0586Y02352*
X0587*
X0588Y02342*
Y02224D02*
X0589Y02234D01*
X059*
X0589Y02244*
X059Y02254*
X0589*
X0588Y02264*
X0587Y02254*
X0586*
X0587Y02244*
X0586Y02234*
X0587*
X0588Y02224*
X0352Y02185D02*
X035Y02225D01*
X0354*
X0352Y02185*
X03175Y0255D02*
X03155Y0259D01*
X03195*
X03175Y0255*
X03485Y0227D02*
X03465Y0231D01*
X03505*
X03485Y0227*
X0315Y0246D02*
X0313Y025D01*
X0317*
X0315Y0246*
X0317Y02365D02*
X0315Y02405D01*
X0319*
X0317Y02365*
X0419Y01775D02*
X0417Y01815D01*
X0421*
X0419Y01775*
X03825Y0228D02*
X03805Y0232D01*
X03845*
X03825Y0228*
X0404Y0257D02*
X0402Y0261D01*
X0406*
X0404Y0257*
X04055Y03235D02*
X04035Y03275D01*
X04075*
X04055Y03235*
X0419Y03175D02*
X0417Y03215D01*
X0421*
X0419Y03175*
X04225Y0311D02*
X04205Y0315D01*
X04245*
X04225Y0311*
X04185Y03095D02*
X04165Y03135D01*
X04205*
X04185Y03095*
X0423Y0254D02*
X0421Y0258D01*
X0425*
X0423Y0254*
X04365Y0272D02*
X04345Y0276D01*
X04385*
X04365Y0272*
X0375Y0285D02*
X0373Y0289D01*
X0377*
X0375Y0285*
X04165Y0301D02*
X04145Y0305D01*
X04185*
X04165Y0301*
G54D124*
X02801Y03627D02*
D01*
X02801Y03628*
X02801Y03629*
X028Y03631*
X028Y03632*
X028Y03634*
X02799Y03635*
X02798Y03636*
X02798Y03637*
X02797Y03638*
X02796Y0364*
X02795Y03641*
X02794Y03642*
X02793Y03642*
X02792Y03643*
X02791Y03644*
X0279Y03645*
X02788Y03645*
X02787Y03646*
X02786Y03646*
X02784Y03646*
X02783Y03647*
X02781Y03647*
X0278*
X02779Y03647*
X02777Y03646*
X02776Y03646*
X02775Y03646*
X02773Y03645*
X02772Y03645*
X02771Y03644*
X0277Y03643*
X02768Y03642*
X02767Y03642*
X02766Y03641*
X02765Y0364*
X02765Y03638*
X02764Y03637*
X02763Y03636*
X02762Y03635*
X02762Y03634*
X02762Y03632*
X02761Y03631*
X02761Y03629*
X02761Y03628*
X02761Y03627*
X02761Y03625*
X02761Y03624*
X02761Y03623*
X02762Y03621*
X02762Y0362*
X02762Y03619*
X02763Y03617*
X02764Y03616*
X02765Y03615*
X02765Y03614*
X02766Y03613*
X02767Y03612*
X02768Y03611*
X0277Y0361*
X02771Y03609*
X02772Y03609*
X02773Y03608*
X02775Y03608*
X02776Y03607*
X02777Y03607*
X02779Y03607*
X0278Y03607*
X02781*
X02783Y03607*
X02784Y03607*
X02786Y03607*
X02787Y03608*
X02788Y03608*
X0279Y03609*
X02791Y03609*
X02792Y0361*
X02793Y03611*
X02794Y03612*
X02795Y03613*
X02796Y03614*
X02797Y03615*
X02798Y03616*
X02798Y03617*
X02799Y03619*
X028Y0362*
X028Y03621*
X028Y03623*
X02801Y03624*
X02801Y03625*
X02801Y03627*
M02*