%FSTAX23Y23*%
%MOIN*%
%SFA1B1*%

%IPPOS*%
%ADD15C,0.007870*%
%ADD119C,0.003940*%
%LNpcb_bottom_3d_body-1*%
%LPD*%
G54D15*
X04687Y02656D02*
X04722D01*
X04687D02*
Y02723D01*
X04722*
Y02656D02*
Y02723D01*
X05084Y03513D02*
Y03926D01*
X05497*
Y03513D02*
Y03926D01*
X05084Y03513D02*
X05497D01*
X0319Y02271D02*
Y02308D01*
X03259*
Y02271D02*
Y02308D01*
X0319Y02271D02*
X03259D01*
X02926Y01907D02*
Y01942D01*
X02993*
Y01907D02*
Y01942D01*
X02926Y01907D02*
X02993D01*
X05629Y04075D02*
X059D01*
Y04334*
X05629D02*
X059D01*
X05629Y04075D02*
Y04334D01*
X05576Y02139D02*
X05847D01*
Y02399*
X05576D02*
X05847D01*
X05576Y02139D02*
Y02399D01*
X04171Y02772D02*
X04238D01*
X04171Y02737D02*
Y02772D01*
Y02737D02*
X04238D01*
Y02772*
X04171Y02692D02*
X04238D01*
X04171Y02657D02*
Y02692D01*
Y02657D02*
X04238D01*
Y02692*
X04166Y02612D02*
X04233D01*
X04166Y02577D02*
Y02612D01*
Y02577D02*
X04233D01*
Y02612*
X03481Y03418D02*
X03618D01*
X03481Y03311D02*
Y03418D01*
Y03311D02*
X03618D01*
Y03418*
X04083Y0313D02*
X04146D01*
X04083Y03099D02*
Y0313D01*
Y03099D02*
X04146D01*
Y0313*
X03511Y03277D02*
X03578D01*
X03511Y03242D02*
Y03277D01*
Y03242D02*
X03578D01*
Y03277*
X02901Y02307D02*
X02968D01*
X02901Y02272D02*
Y02307D01*
Y02272D02*
X02968D01*
Y02307*
X02901Y02497D02*
X02968D01*
X02901Y02462D02*
Y02497D01*
Y02462D02*
X02968D01*
Y02497*
X02898Y02402D02*
X02965D01*
X02898Y02367D02*
Y02402D01*
Y02367D02*
X02965D01*
Y02402*
X04043Y02575D02*
X0411D01*
Y0261*
X04043D02*
X0411D01*
X04043Y02575D02*
Y0261D01*
X03647Y02796D02*
Y02863D01*
X03612D02*
X03647D01*
X03612Y02796D02*
Y02863D01*
Y02796D02*
X03647D01*
X03765Y02321D02*
Y02388D01*
X0373D02*
X03765D01*
X0373Y02321D02*
Y02388D01*
Y02321D02*
X03765D01*
X03842D02*
Y02388D01*
X03807D02*
X03842D01*
X03807Y02321D02*
Y02388D01*
Y02321D02*
X03842D01*
X03336Y02247D02*
X03403D01*
X03336Y02212D02*
Y02247D01*
Y02212D02*
X03403D01*
Y02247*
X03567Y02796D02*
Y02863D01*
X03532D02*
X03567D01*
X03532Y02796D02*
Y02863D01*
Y02796D02*
X03567D01*
X04041Y02652D02*
X04108D01*
Y02687*
X04041D02*
X04108D01*
X04041Y02652D02*
Y02687D01*
X03336Y0217D02*
X03403D01*
X03336Y02135D02*
Y0217D01*
Y02135D02*
X03403D01*
Y0217*
X03658Y02185D02*
X03721D01*
X03658Y02154D02*
Y02185D01*
Y02154D02*
X03721D01*
Y02185*
X04811Y02747D02*
X04878D01*
X04811Y02712D02*
Y02747D01*
Y02712D02*
X04878D01*
Y02747*
X04811Y02682D02*
X04878D01*
X04811Y02647D02*
Y02682D01*
Y02647D02*
X04878D01*
Y02682*
X04722Y02546D02*
Y02613D01*
X04687D02*
X04722D01*
X04687Y02546D02*
Y02613D01*
Y02546D02*
X04722D01*
X04678Y03204D02*
X04816D01*
Y03311*
X04678D02*
X04816D01*
X04678Y03204D02*
Y03311D01*
X04626Y02221D02*
X04763D01*
Y02328*
X04626D02*
X04763D01*
X04626Y02221D02*
Y02328D01*
Y02353D02*
X04763D01*
Y0246*
X04626D02*
X04763D01*
X04626Y02353D02*
Y0246D01*
X0433Y02433D02*
X04555D01*
X0433Y02236D02*
Y02433D01*
Y02236D02*
X04555D01*
Y02433*
X04622Y03482D02*
X04847D01*
Y03679*
X04622D02*
X04847D01*
X04622Y03482D02*
Y03679D01*
X04681Y03336D02*
X04818D01*
Y03443*
X04681D02*
X04818D01*
X04681Y03336D02*
Y03443D01*
X0319Y02551D02*
X03259D01*
Y02588*
X0319D02*
X03259D01*
X0319Y02551D02*
Y02588D01*
Y02461D02*
X03259D01*
Y02498*
X0319D02*
X03259D01*
X0319Y02461D02*
Y02498D01*
Y02366D02*
X03259D01*
Y02403*
X0319D02*
X03259D01*
X0319Y02366D02*
Y02403D01*
X05043Y01608D02*
X05456D01*
Y02021*
X05043D02*
X05456D01*
X05043Y01608D02*
Y02021D01*
X05123Y02758D02*
X05536D01*
Y03171*
X05123D02*
X05536D01*
X05123Y02758D02*
Y03171D01*
G54D119*
X03955Y03236D02*
Y03273D01*
X04024Y03236D02*
Y03273D01*
X03955Y03236D02*
X04024D01*
X03955Y03273D02*
X04024D01*
X04751Y03072D02*
Y03107D01*
X04818Y03072D02*
Y03107D01*
X04751Y03072D02*
X04818D01*
X04751Y03107D02*
X04818D01*
X04351Y02057D02*
X04418D01*
X04351Y02022D02*
X04418D01*
Y02057*
X04351Y02022D02*
Y02057D01*
Y01977D02*
X04418D01*
X04351Y01942D02*
X04418D01*
Y01977*
X04351Y01942D02*
Y01977D01*
Y01812D02*
X04418D01*
X04351Y01777D02*
X04418D01*
Y01812*
X04351Y01777D02*
Y01812D01*
Y01892D02*
X04418D01*
X04351Y01857D02*
X04418D01*
Y01892*
X04351Y01857D02*
Y01892D01*
X04157Y02871D02*
X04192D01*
X04157Y02938D02*
X04192D01*
Y02871D02*
Y02938D01*
X04157Y02871D02*
Y02938D01*
X0408Y03176D02*
X04149D01*
X0408Y03213D02*
X04149D01*
X0408Y03176D02*
Y03213D01*
X04149Y03176D02*
Y03213D01*
M02*