%FSTAX23Y23*%
%MOIN*%
%SFA1B1*%

%IPPOS*%
%AMD89*
4,1,8,0.098400,0.200800,-0.098400,0.200800,-0.200800,0.098400,-0.200800,-0.098400,-0.098400,-0.200800,0.098400,-0.200800,0.200800,-0.098400,0.200800,0.098400,0.098400,0.200800,0.0*
1,1,0.204860,0.098400,0.098400*
1,1,0.204860,-0.098400,0.098400*
1,1,0.204860,-0.098400,-0.098400*
1,1,0.204860,0.098400,-0.098400*
%
%AMD90*
4,1,8,-0.200800,0.098400,-0.200800,-0.098400,-0.098400,-0.200800,0.098400,-0.200800,0.200800,-0.098400,0.200800,0.098400,0.098400,0.200800,-0.098400,0.200800,-0.200800,0.098400,0.0*
1,1,0.204860,-0.098400,0.098400*
1,1,0.204860,-0.098400,-0.098400*
1,1,0.204860,0.098400,-0.098400*
1,1,0.204860,0.098400,0.098400*
%
%ADD32R,0.025590X0.027560*%
%ADD33R,0.043310X0.080710*%
%ADD34R,0.035430X0.031500*%
%ADD39R,0.037650X0.047490*%
%ADD42R,0.027560X0.025590*%
%ADD48R,0.029530X0.035430*%
%ADD54R,0.033660X0.035680*%
%ADD76R,0.049340X0.045400*%
%ADD88C,0.204850*%
G04~CAMADD=89~8~0.0~0.0~4017.0~4017.0~1024.3~0.0~15~0.0~0.0~0.0~0.0~0~0.0~0.0~0.0~0.0~0~0.0~0.0~0.0~0.0~4017.0~4017.0*
%ADD89D89*%
G04~CAMADD=90~8~0.0~0.0~4017.0~4017.0~1024.3~0.0~15~0.0~0.0~0.0~0.0~0~0.0~0.0~0.0~0.0~0~0.0~0.0~0.0~90.0~4016.0~4016.0*
%ADD90D90*%
%ADD91R,0.055120X0.055120*%
%ADD92C,0.055120*%
%ADD93C,0.043310*%
%ADD94C,0.027690*%
%ADD95C,0.039500*%
%ADD96C,0.031620*%
%ADD105R,0.161420X0.078740*%
%ADD111R,0.037520X0.212720*%
%ADD112R,0.215000X0.090000*%
%ADD113R,0.090000X0.215000*%
%ADD114R,0.104060X0.228470*%
%ADD115R,0.104060X0.043040*%
%ADD116R,0.053280X0.049340*%
%ADD117R,0.031620X0.039500*%
%ADD118R,0.035560X0.041470*%
%LNpcb_soldermask_bot-1*%
%LPD*%
G36*
X06335Y04105D02*
X0594D01*
Y0435*
X06335*
Y04105*
G37*
G36*
X05495Y04065D02*
X0552Y0404D01*
X05465Y03985*
X05225Y04225*
Y04235*
X05275Y04285*
X05495Y04065*
G37*
G36*
X05375Y0394D02*
X054Y03915D01*
X05345Y0386*
X05105Y041*
Y0411*
X05155Y0416*
X05375Y0394*
G37*
G36*
X05275Y0384D02*
X053Y03815D01*
X05245Y0376*
X05005Y04*
Y0401*
X05055Y0406*
X05275Y0384*
G37*
G36*
X0603Y03185D02*
X05925D01*
X05865Y03125*
X0524*
X05235Y0312*
Y03365*
X06025*
X0603Y03185*
G37*
G36*
X06265Y02345D02*
X0633D01*
X06335Y0216*
X0606*
X0602Y022*
X0594*
Y02405*
X0595Y02415*
X06195*
X06265Y02345*
G37*
G54D32*
X02986Y01925D03*
X02933D03*
X04231Y02755D03*
X04178D03*
X04231Y02675D03*
X04178D03*
X04226Y02595D03*
X04173D03*
X03571Y0326D03*
X03518D03*
X0405Y02593D03*
X04103D03*
X03396Y0223D03*
X03343D03*
X04048Y0267D03*
X04101D03*
X03396Y02153D03*
X03343D03*
G54D33*
X03614Y03365D03*
X03485D03*
X04682Y03257D03*
X04812D03*
X0463Y02275D03*
X04759D03*
X0463Y02407D03*
X04759D03*
X04685Y0339D03*
X04814D03*
G54D34*
X02968Y0229D03*
X02901D03*
X02968Y0248D03*
X02901D03*
X02965Y02385D03*
X02898D03*
X04878Y0273D03*
X04811D03*
X04878Y02665D03*
X04811D03*
G54D39*
X0373Y0217D03*
X03649D03*
G54D42*
X04705Y02716D03*
Y02663D03*
X0363Y02803D03*
Y02856D03*
X03748Y02328D03*
Y02381D03*
X03825Y02328D03*
Y02381D03*
X0355Y02803D03*
Y02856D03*
X04705Y02553D03*
Y02606D03*
G54D48*
X03248Y0229D03*
X03201D03*
Y0257D03*
X03248D03*
X03201Y0248D03*
X03248D03*
X03201Y02385D03*
X03248D03*
G54D54*
X04139Y03115D03*
X0409D03*
G54D76*
X04175Y02876D03*
Y02933D03*
G54D88*
X06795Y0233D03*
X06785Y04425D03*
X04765Y01585D03*
X0306Y0443D03*
G54D89*
X03985Y0438D03*
X04615Y04385D03*
G54D90*
X06795Y0385D03*
X06787Y0294D03*
X06795Y01895D03*
G54D91*
X02595Y02291D03*
Y03592D03*
X0286Y03564D03*
X0282Y02755D03*
X0255Y01601D03*
G54D92*
X02595Y0239D03*
Y02488D03*
Y02586D03*
Y02685D03*
Y02783D03*
Y03494D03*
Y03396D03*
Y03297D03*
Y03199D03*
Y031D03*
Y03002D03*
X0286Y03465D03*
Y03367D03*
Y03268D03*
Y0317D03*
X0282Y02853D03*
Y02951D03*
X0255Y01896D03*
Y01798D03*
Y017D03*
G54D93*
X02781Y03627D03*
G54D94*
X0356Y03095D03*
X03625Y0293D03*
X0384Y02837D03*
X0388Y0279D03*
X038Y02752D03*
X0386Y0275D03*
X0392Y0273D03*
X042Y02895D03*
X0425Y0308D03*
X04685Y02835D03*
X04735Y02825D03*
X04665Y02755D03*
X04685Y02715D03*
X03355Y02395D03*
X03435Y02455D03*
X0328Y02695D03*
X0344Y02535D03*
X03294Y0257D03*
X0359Y0237D03*
X0358Y02165D03*
X03825Y02185D03*
X03435Y023D03*
X0284Y0257D03*
X029Y0223D03*
X0355Y0289D03*
X04455Y0173D03*
X0424Y03025D03*
X03885Y03225D03*
X04005Y03035D03*
X03925Y0307D03*
X0457Y01925D03*
X0434Y0163D03*
X03705Y03375D03*
X0352Y03235D03*
X03575D03*
X0313Y03005D03*
X0311Y0282D03*
X03343Y02191D03*
X0381Y0206D03*
X03615Y01805D03*
X03925Y0445D03*
X03955D03*
X03985D03*
X04015D03*
X04045D03*
Y0442D03*
X04015D03*
X03985D03*
X03955D03*
X03925D03*
Y0439D03*
X03955D03*
X03985D03*
X04015D03*
X04045D03*
Y0436D03*
X04015D03*
X03985D03*
X03955D03*
X03925D03*
Y0433D03*
X03955D03*
X03985D03*
X04015D03*
X04045D03*
Y043D03*
X04015D03*
X03985D03*
X03955D03*
X03925D03*
Y0427D03*
X03955D03*
X03985D03*
X04015D03*
X04045D03*
Y0424D03*
X04015D03*
X03985D03*
X03955D03*
X03925D03*
Y0421D03*
X03955D03*
X03985D03*
X04015D03*
X04045D03*
Y0448D03*
X04015D03*
X03985D03*
X03955D03*
X03925D03*
Y0451D03*
X03955D03*
X03985D03*
X04015D03*
X04045Y0454D03*
X04015D03*
X03985D03*
X03955D03*
X03925D03*
X04045Y0451D03*
X04075Y0454D03*
Y0451D03*
Y0448D03*
Y0445D03*
Y0442D03*
Y0439D03*
Y0436D03*
Y0433D03*
Y043D03*
Y0427D03*
Y0424D03*
Y0421D03*
X04105Y0454D03*
Y0451D03*
Y0448D03*
Y0445D03*
Y0442D03*
Y0439D03*
Y0436D03*
Y0433D03*
Y043D03*
Y0427D03*
Y0424D03*
Y0421D03*
X04135Y0451D03*
Y0448D03*
Y0445D03*
Y0442D03*
Y0439D03*
Y0436D03*
Y0433D03*
Y043D03*
Y0427D03*
Y0424D03*
X03895Y0421D03*
Y0424D03*
Y0427D03*
Y043D03*
Y0433D03*
Y0436D03*
Y0439D03*
Y0442D03*
Y0445D03*
Y0448D03*
Y0451D03*
Y0454D03*
X03865D03*
Y0451D03*
Y0448D03*
Y0445D03*
Y0442D03*
Y0439D03*
Y0436D03*
Y0433D03*
Y043D03*
Y0427D03*
Y0424D03*
Y0421D03*
X03835Y0424D03*
Y0427D03*
Y043D03*
Y0433D03*
Y0436D03*
Y0439D03*
Y0442D03*
Y0445D03*
Y0448D03*
Y0451D03*
X04465Y04515D03*
Y04485D03*
Y04455D03*
Y04425D03*
Y04395D03*
Y04365D03*
Y04335D03*
Y04305D03*
Y04275D03*
Y04245D03*
X04495Y04215D03*
Y04245D03*
Y04275D03*
Y04305D03*
Y04335D03*
Y04365D03*
Y04395D03*
Y04425D03*
Y04455D03*
Y04485D03*
Y04515D03*
Y04545D03*
X04525D03*
Y04515D03*
Y04485D03*
Y04455D03*
Y04425D03*
Y04395D03*
Y04365D03*
Y04335D03*
Y04305D03*
Y04275D03*
Y04245D03*
Y04215D03*
X04765Y04245D03*
Y04275D03*
Y04305D03*
Y04335D03*
Y04365D03*
Y04395D03*
Y04425D03*
Y04455D03*
Y04485D03*
Y04515D03*
X04735Y04215D03*
Y04245D03*
Y04275D03*
Y04305D03*
Y04335D03*
Y04365D03*
Y04395D03*
Y04425D03*
Y04455D03*
Y04485D03*
Y04515D03*
Y04545D03*
X04705Y04215D03*
Y04245D03*
Y04275D03*
Y04305D03*
Y04335D03*
Y04365D03*
Y04395D03*
Y04425D03*
Y04455D03*
Y04485D03*
Y04515D03*
Y04545D03*
X04675Y04515D03*
X04555Y04545D03*
X04585D03*
X04615D03*
X04645D03*
X04675D03*
X04645Y04515D03*
X04615D03*
X04585D03*
X04555D03*
Y04485D03*
X04585D03*
X04615D03*
X04645D03*
X04675D03*
Y04215D03*
X04645D03*
X04615D03*
X04585D03*
X04555D03*
Y04245D03*
X04585D03*
X04615D03*
X04645D03*
X04675D03*
Y04275D03*
X04645D03*
X04615D03*
X04585D03*
X04555D03*
Y04305D03*
X04585D03*
X04615D03*
X04645D03*
X04675D03*
Y04335D03*
X04645D03*
X04615D03*
X04585D03*
X04555D03*
Y04365D03*
X04585D03*
X04615D03*
X04645D03*
X04675D03*
Y04395D03*
X04645D03*
X04615D03*
X04585D03*
X04555D03*
Y04425D03*
X04585D03*
X04615D03*
X04645D03*
X04675D03*
Y04455D03*
X04645D03*
X04615D03*
X04585D03*
X04555D03*
X06725Y0379D03*
Y0382D03*
Y0385D03*
Y0388D03*
Y0391D03*
X06755D03*
Y0388D03*
Y0385D03*
Y0382D03*
Y0379D03*
X06785D03*
Y0382D03*
Y0385D03*
Y0388D03*
Y0391D03*
X06815D03*
Y0388D03*
Y0385D03*
Y0382D03*
Y0379D03*
X06845D03*
Y0382D03*
Y0385D03*
Y0388D03*
Y0391D03*
X06875D03*
Y0388D03*
Y0385D03*
Y0382D03*
Y0379D03*
X06905D03*
Y0382D03*
Y0385D03*
Y0388D03*
Y0391D03*
X06935D03*
Y0388D03*
Y0385D03*
Y0382D03*
Y0379D03*
X06965D03*
Y0382D03*
Y0385D03*
Y0388D03*
Y0391D03*
X06695D03*
Y0388D03*
Y0385D03*
Y0382D03*
Y0379D03*
X06665D03*
Y0382D03*
Y0385D03*
Y0388D03*
X06635Y0391D03*
Y0388D03*
Y0385D03*
Y0382D03*
Y0379D03*
X06665Y0391D03*
X06635Y0394D03*
X06665D03*
X06695D03*
X06725D03*
X06755D03*
X06785D03*
X06815D03*
X06845D03*
X06875D03*
X06905D03*
X06935D03*
X06965D03*
X06635Y0397D03*
X06665D03*
X06695D03*
X06725D03*
X06755D03*
X06785D03*
X06815D03*
X06845D03*
X06875D03*
X06905D03*
X06935D03*
X06965D03*
X06665Y04D03*
X06695D03*
X06725D03*
X06755D03*
X06785D03*
X06815D03*
X06845D03*
X06875D03*
X06905D03*
X06935D03*
X06965Y0376D03*
X06935D03*
X06905D03*
X06875D03*
X06845D03*
X06815D03*
X06785D03*
X06755D03*
X06725D03*
X06695D03*
X06665D03*
X06635D03*
Y0373D03*
X06665D03*
X06695D03*
X06725D03*
X06755D03*
X06785D03*
X06815D03*
X06845D03*
X06875D03*
X06905D03*
X06935D03*
X06965D03*
X06935Y037D03*
X06905D03*
X06875D03*
X06845D03*
X06815D03*
X06785D03*
X06755D03*
X06725D03*
X06695D03*
X06665D03*
X06657Y0279D03*
X06687D03*
X06717D03*
X06747D03*
X06777D03*
X06807D03*
X06837D03*
X06867D03*
X06897D03*
X06927D03*
X06957Y0282D03*
X06927D03*
X06897D03*
X06867D03*
X06837D03*
X06807D03*
X06777D03*
X06747D03*
X06717D03*
X06687D03*
X06657D03*
X06627D03*
Y0285D03*
X06657D03*
X06687D03*
X06717D03*
X06747D03*
X06777D03*
X06807D03*
X06837D03*
X06867D03*
X06897D03*
X06927D03*
X06957D03*
X06927Y0309D03*
X06897D03*
X06867D03*
X06837D03*
X06807D03*
X06777D03*
X06747D03*
X06717D03*
X06687D03*
X06657D03*
X06957Y0306D03*
X06927D03*
X06897D03*
X06867D03*
X06837D03*
X06807D03*
X06777D03*
X06747D03*
X06717D03*
X06687D03*
X06657D03*
X06627D03*
X06957Y0303D03*
X06927D03*
X06897D03*
X06867D03*
X06837D03*
X06807D03*
X06777D03*
X06747D03*
X06717D03*
X06687D03*
X06657D03*
X06627D03*
X06657Y03D03*
X06627Y0288D03*
Y0291D03*
Y0294D03*
Y0297D03*
Y03D03*
X06657Y0297D03*
Y0294D03*
Y0291D03*
Y0288D03*
X06687D03*
Y0291D03*
Y0294D03*
Y0297D03*
Y03D03*
X06957D03*
Y0297D03*
Y0294D03*
Y0291D03*
Y0288D03*
X06927D03*
Y0291D03*
Y0294D03*
Y0297D03*
Y03D03*
X06897D03*
Y0297D03*
Y0294D03*
Y0291D03*
Y0288D03*
X06867D03*
Y0291D03*
Y0294D03*
Y0297D03*
Y03D03*
X06837D03*
Y0297D03*
Y0294D03*
Y0291D03*
Y0288D03*
X06807D03*
Y0291D03*
Y0294D03*
Y0297D03*
Y03D03*
X06777D03*
Y0297D03*
Y0294D03*
Y0291D03*
Y0288D03*
X06747D03*
Y0291D03*
Y0294D03*
Y0297D03*
Y03D03*
X06717D03*
Y0297D03*
Y0294D03*
Y0291D03*
Y0288D03*
X06725Y01835D03*
Y01865D03*
Y01895D03*
Y01925D03*
Y01955D03*
X06755D03*
Y01925D03*
Y01895D03*
Y01865D03*
Y01835D03*
X06785D03*
Y01865D03*
Y01895D03*
Y01925D03*
Y01955D03*
X06815D03*
Y01925D03*
Y01895D03*
Y01865D03*
Y01835D03*
X06845D03*
Y01865D03*
Y01895D03*
Y01925D03*
Y01955D03*
X06875D03*
Y01925D03*
Y01895D03*
Y01865D03*
Y01835D03*
X06905D03*
Y01865D03*
Y01895D03*
Y01925D03*
Y01955D03*
X06935D03*
Y01925D03*
Y01895D03*
Y01865D03*
Y01835D03*
X06965D03*
Y01865D03*
Y01895D03*
Y01925D03*
Y01955D03*
X06695D03*
Y01925D03*
Y01895D03*
Y01865D03*
Y01835D03*
X06665D03*
Y01865D03*
Y01895D03*
Y01925D03*
X06635Y01955D03*
Y01925D03*
Y01895D03*
Y01865D03*
Y01835D03*
X06665Y01955D03*
X06635Y01985D03*
X06665D03*
X06695D03*
X06725D03*
X06755D03*
X06785D03*
X06815D03*
X06845D03*
X06875D03*
X06905D03*
X06935D03*
X06965D03*
X06635Y02015D03*
X06665D03*
X06695D03*
X06725D03*
X06755D03*
X06785D03*
X06815D03*
X06845D03*
X06875D03*
X06905D03*
X06935D03*
X06965D03*
X06665Y02045D03*
X06695D03*
X06725D03*
X06755D03*
X06785D03*
X06815D03*
X06845D03*
X06875D03*
X06905D03*
X06935D03*
X06965Y01805D03*
X06935D03*
X06905D03*
X06875D03*
X06845D03*
X06815D03*
X06785D03*
X06755D03*
X06725D03*
X06695D03*
X06665D03*
X06635D03*
Y01775D03*
X06665D03*
X06695D03*
X06725D03*
X06755D03*
X06785D03*
X06815D03*
X06845D03*
X06875D03*
X06905D03*
X06935D03*
X06965D03*
X06935Y01745D03*
X06905D03*
X06875D03*
X06845D03*
X06815D03*
X06785D03*
X06755D03*
X06725D03*
X06695D03*
X06665D03*
X04275Y0272D03*
X04075Y02315D03*
X04885Y0301D03*
X0472Y02955D03*
X0425Y0298D03*
X04195Y0293D03*
X04615Y02035D03*
X048Y0191D03*
X04435Y01795D03*
X04445Y01875D03*
X0419Y0188D03*
X042Y0204D03*
X04195Y0196D03*
X0444Y0204D03*
Y0196D03*
X0469Y03215D03*
X04665Y02935D03*
X04685Y03035D03*
X0416Y0248D03*
X0412Y02465D03*
X0409Y0243D03*
X0408Y024D03*
X0383Y0253D03*
X0348Y0265D03*
X0349Y02685D03*
X03855Y0256D03*
X03735Y0263D03*
X0377Y02625D03*
X0388Y02505D03*
X0357Y0276D03*
X03615D03*
X03425Y02625D03*
X0376Y02155D03*
X04925Y0279D03*
X0485Y02845D03*
X0492Y0283D03*
X04924Y02725D03*
X0495Y027D03*
X04882Y02782D03*
X04855Y0298D03*
X05772Y04025D03*
X05747Y04D03*
X04925Y0257D03*
Y02615D03*
X04795Y0266D03*
X04725Y02605D03*
X0573Y02435D03*
X05694D03*
X04555Y0274D03*
X06595Y0338D03*
X065Y0316D03*
X06495Y04055D03*
X05765Y03765D03*
Y03505D03*
Y02855D03*
X05775Y0261D03*
X0573Y0181D03*
X0575Y01545D03*
X0649Y02115D03*
X04705Y0253D03*
X02985Y0204D03*
X02935D03*
X0317Y0229D03*
X03015Y0248D03*
X0302Y02385D03*
Y0229D03*
X02985Y0257D03*
X04025Y0267D03*
X0352Y02205D03*
X03175Y0257D03*
X03485Y0229D03*
X0315Y0248D03*
X0317Y02385D03*
X0419Y01795D03*
X03825Y023D03*
X0404Y0259D03*
X04055Y03255D03*
X0419Y03195D03*
X04225Y0313D03*
X04185Y03115D03*
X0423Y0256D03*
X04365Y0274D03*
X0375Y0287D03*
X04165Y0303D03*
G54D95*
X04635Y02598D03*
X04576D03*
X05994Y03307D03*
X05964Y03248D03*
X05935Y03307D03*
X05905Y03248D03*
X05875Y03307D03*
X05846Y03248D03*
X05875Y03188D03*
X05816Y03307D03*
X05787Y03248D03*
X05816Y03188D03*
X05757Y03307D03*
X05728Y03248D03*
X05757Y03188D03*
X05698Y03307D03*
X04842Y0372D03*
X04872Y03425D03*
Y03307D03*
X04783Y03838D03*
X04753Y03897D03*
X04724Y03838D03*
X04753Y03779D03*
X04665Y03956D03*
X04694Y03897D03*
X04665Y03838D03*
X04606Y03956D03*
X04635Y03897D03*
X04606Y03838D03*
X04547Y03956D03*
X04576Y03897D03*
X04547Y03838D03*
X04576Y02125D03*
X05964Y03307D03*
X05994Y03248D03*
X05905Y03307D03*
X05935Y03248D03*
X05905Y03188D03*
X05846Y03307D03*
X05875Y03248D03*
X05846Y03188D03*
X05787Y03307D03*
X05816Y03248D03*
X05787Y03188D03*
X05728Y03307D03*
X05757Y03248D03*
X05698D03*
X04872Y0372D03*
Y03366D03*
X04812Y0372D03*
X04429Y02716D03*
Y02598D03*
Y02244D03*
X04399Y02657D03*
X0437Y0248D03*
X04399Y02421D03*
X0437Y02362D03*
Y02244D03*
X04311Y0248D03*
X0621Y0234D03*
X06176Y02362D03*
X04595Y026D03*
Y0254D03*
Y0248D03*
Y0242D03*
Y02365D03*
Y02305D03*
Y02245D03*
X057Y03185D03*
X06289Y04311D03*
X0623D03*
Y04192D03*
X06171Y04311D03*
X06112D03*
X06053D03*
X06023Y04251D03*
Y04133D03*
X05994Y04311D03*
X05964Y04251D03*
X05994Y04192D03*
X05964Y04133D03*
X05935Y04311D03*
Y04192D03*
X06225Y0221D03*
Y0225D03*
X0622Y02295D03*
X06117Y02362D03*
X06058D03*
X06028Y02303D03*
X05999Y02362D03*
X05969Y02303D03*
X05999Y02244D03*
X0594Y02362D03*
X0591Y02303D03*
X0594Y02244D03*
X0588Y02362D03*
Y02244D03*
G54D96*
X0542Y01895D03*
X05475D03*
X054Y0379D03*
X0546D03*
X0552D03*
X05515Y03605D03*
X05455D03*
X054D03*
X05545Y0303D03*
X0549D03*
X05435D03*
X0555Y0284D03*
X05495D03*
X0544D03*
X0537Y01735D03*
X0542D03*
X05475D03*
X0537Y01895D03*
G54D105*
X05462Y0372D03*
X0512D03*
X05078Y01815D03*
X05421D03*
X05158Y02965D03*
X05501D03*
G54D111*
X04557Y02335D03*
X04327D03*
X04619Y03581D03*
X0485D03*
G54D112*
X05122Y01655D03*
Y0198D03*
Y0216D03*
Y0234D03*
Y02485D03*
Y0263D03*
Y02785D03*
Y0308D03*
Y03255D03*
Y0341D03*
Y03555D03*
G54D113*
X054Y02307D03*
G54D114*
X05667Y0424D03*
X05862D03*
X05614Y02304D03*
X05809D03*
G54D115*
X05667Y04077D03*
X05862D03*
X05614Y02141D03*
X05809D03*
G54D116*
X03956Y03255D03*
X04023D03*
G54D117*
X04759Y0309D03*
X0481D03*
X0441Y0204D03*
X04359D03*
X0441Y0196D03*
X04359D03*
X0441Y01795D03*
X04359D03*
X0441Y01875D03*
X04359D03*
G54D118*
X0409Y03195D03*
X04139D03*
M02*