%FSTAX23Y23*%
%MOIN*%
%SFA1B1*%

%IPPOS*%
%AMD100*
4,1,8,0.098400,0.196800,-0.098400,0.196800,-0.196800,0.098400,-0.196800,-0.098400,-0.098400,-0.196800,0.098400,-0.196800,0.196800,-0.098400,0.196800,0.098400,0.098400,0.196800,0.0*
1,1,0.196860,0.098400,0.098400*
1,1,0.196860,-0.098400,0.098400*
1,1,0.196860,-0.098400,-0.098400*
1,1,0.196860,0.098400,-0.098400*
%
%AMD101*
4,1,8,-0.196800,0.098400,-0.196800,-0.098400,-0.098400,-0.196800,0.098400,-0.196800,0.196800,-0.098400,0.196800,0.098400,0.098400,0.196800,-0.098400,0.196800,-0.196800,0.098400,0.0*
1,1,0.196860,-0.098400,0.098400*
1,1,0.196860,-0.098400,-0.098400*
1,1,0.196860,0.098400,-0.098400*
1,1,0.196860,0.098400,0.098400*
%
%ADD91R,0.055120X0.055120*%
%ADD92C,0.055120*%
%ADD93C,0.043310*%
%ADD98C,0.011810*%
%ADD99C,0.196850*%
G04~CAMADD=100~8~0.0~0.0~3937.0~3937.0~984.3~0.0~15~0.0~0.0~0.0~0.0~0~0.0~0.0~0.0~0.0~0~0.0~0.0~0.0~0.0~3937.0~3937.0*
%ADD100D100*%
G04~CAMADD=101~8~0.0~0.0~3937.0~3937.0~984.3~0.0~15~0.0~0.0~0.0~0.0~0~0.0~0.0~0.0~0.0~0~0.0~0.0~0.0~90.0~3936.0~3936.0*
%ADD101D101*%
%ADD102C,0.019680*%
%ADD103C,0.031500*%
%ADD104C,0.023620*%
%LNpcb_copper_signal_2-1*%
%LPD*%
G36*
X04847Y02973D02*
X04847Y02973D01*
X04847Y02973*
X04846Y02973*
X04846Y02973*
X04845Y02973*
X04844Y02974*
X04842Y02974*
X04841Y02974*
Y02985*
X04842Y02985*
X04845Y02986*
X04846Y02986*
X04846Y02986*
X04847Y02986*
X04847Y02986*
X04847Y02986*
Y02973*
G37*
G36*
X04882Y02772D02*
X04882Y02772D01*
X04882Y02772*
X04881Y02772*
X04881Y02772*
X0488Y02771*
X04879Y0277*
X04878Y02769*
X04877Y02768*
X04868Y02777*
X04869Y02778*
X04871Y0278*
X04872Y02781*
X04872Y02781*
X04872Y02782*
X04872Y02782*
X04872Y02782*
X04882Y02772*
G37*
G36*
X0447Y0411D02*
X04484Y0286D01*
X04442Y02817*
X04438Y02811*
X04436Y02805*
Y02745*
X04432Y02742*
X04432Y02742*
X04425*
X04419Y0274*
X04413Y02737*
X04408Y02732*
X04405Y02726*
X04403Y02719*
Y02713*
X04405Y02706*
X04408Y027*
X04413Y02695*
X04419Y02692*
X04425Y0269*
X04432*
X04432Y0269*
X04436Y02687*
Y02627*
X04432Y02624*
X04432Y02624*
X04425*
X04419Y02622*
X04413Y02619*
X04408Y02614*
X04405Y02608*
X04403Y02601*
Y02595*
X04405Y02588*
X04408Y02582*
X04413Y02577*
X04419Y02574*
X04425Y02572*
X04432*
X04432Y02572*
X04436Y02569*
Y02272*
X04432Y02269*
X04432Y02269*
X04425*
X04419Y02268*
X04413Y02264*
X04408Y02259*
X04405Y02254*
X04403Y02247*
Y0224*
X04405Y02234*
X04408Y02228*
X04413Y02223*
X04419Y0222*
X04425Y02218*
X04432*
X04432Y02218*
X04436Y02215*
Y02062*
X04433Y02058*
X04428Y02056*
X04423Y02051*
X0442Y02043*
Y02036*
X04423Y02028*
X04428Y02023*
X04436Y0202*
X04443*
X04451Y02023*
X04456Y02028*
X04458Y02033*
X04462Y02036*
X04466Y02034*
Y02012*
X04433Y01978*
X04428Y01976*
X04423Y01971*
X0442Y01963*
Y01956*
X04423Y01948*
X04428Y01943*
X04436Y0194*
X04443*
X04451Y01943*
X04456Y01948*
X04458Y01953*
X0449Y01985*
X04495Y01983*
X04495Y01951*
X04438Y01893*
X04433Y01891*
X04428Y01886*
X04425Y01878*
Y01871*
X04428Y01863*
X04433Y01858*
X04441Y01855*
X04448*
X04456Y01858*
X04461Y01863*
X04463Y01868*
X04491Y01896*
X04496Y01894*
X04496Y01864*
Y01455*
X0239*
Y02065*
Y04114*
X02393Y04118*
X0447Y0411*
G37*
G36*
X04453Y02045D02*
X04453Y02044D01*
X0445Y02042*
X0445Y02041*
X0445Y02041*
X0445Y0204*
X04449Y0204*
X04449Y0204*
X0444Y02049*
X0444Y02049*
X0444Y0205*
X04441Y0205*
X04441Y0205*
X04442Y0205*
X04443Y02051*
X04444Y02053*
X04445Y02053*
X04453Y02045*
G37*
G36*
Y01965D02*
X04453Y01964D01*
X0445Y01962*
X0445Y01961*
X0445Y01961*
X0445Y0196*
X04449Y0196*
X04449Y0196*
X0444Y01969*
X0444Y01969*
X0444Y0197*
X04441Y0197*
X04441Y0197*
X04442Y0197*
X04443Y01971*
X04444Y01973*
X04445Y01973*
X04453Y01965*
G37*
G36*
X04458Y0188D02*
X04458Y01879D01*
X04455Y01877*
X04455Y01876*
X04455Y01876*
X04455Y01875*
X04454Y01875*
X04454Y01875*
X04445Y01884*
X04445Y01884*
X04445Y01885*
X04446Y01885*
X04446Y01885*
X04447Y01885*
X04448Y01886*
X04449Y01888*
X0445Y01888*
X04458Y0188*
G37*
G36*
X05736Y0155D02*
X05737Y0155D01*
X0574Y01551*
X05741Y01551*
X05741Y01551*
X05742Y01551*
X05742Y01551*
X05742Y01551*
Y01538*
X05742Y01538*
X05742Y01538*
X05741Y01538*
X05741Y01538*
X0574Y01538*
X05739Y01539*
X05737Y01539*
X05736*
Y0155*
G37*
G36*
X05716Y01804D02*
X05716Y01805D01*
X05719Y01807*
X05719Y01808*
X05719Y01808*
X0572Y01809*
X0572Y01809*
X0572Y01809*
X05729Y018*
X05729Y018*
X05729Y018*
X05728Y01799*
X05728Y01799*
X05727Y01799*
X05726Y01798*
X05725Y01796*
X05724Y01796*
X05716Y01804*
G37*
G36*
X04963Y02705D02*
X04963Y02704D01*
X0496Y02702*
X0496Y02701*
X0496Y02701*
X0496Y027*
X04959Y027*
X04959Y027*
X0495Y02709*
X0495Y02709*
X0495Y0271*
X04951Y0271*
X04951Y0271*
X04952Y0271*
X04953Y02711*
X04954Y02713*
X04955Y02713*
X04963Y02705*
G37*
G36*
X04938Y0273D02*
X04938Y02729D01*
X04935Y02727*
X04935Y02726*
X04935Y02726*
X04934Y02725*
X04934Y02725*
X04934Y02725*
X04925Y02734*
X04925Y02734*
X04925Y02735*
X04926Y02735*
X04926Y02735*
X04927Y02735*
X04928Y02736*
X04929Y02738*
X0493Y02738*
X04938Y0273*
G37*
G36*
X05741Y04013D02*
X05742Y04013D01*
X05745Y0401*
X05745Y0401*
X05746Y0401*
X05746Y0401*
X05746Y04009*
X05747Y04009*
X05737Y04*
X05737Y04*
X05737Y04*
X05737Y04001*
X05736Y04001*
X05736Y04002*
X05735Y04003*
X05734Y04004*
X05733Y04005*
X05741Y04013*
G37*
G36*
X05766Y04038D02*
X05767Y04038D01*
X0577Y04035*
X0577Y04035*
X05771Y04035*
X05771Y04035*
X05771Y04034*
X05772Y04034*
X05762Y04025*
X05762Y04025*
X05762Y04025*
X05762Y04026*
X05761Y04026*
X05761Y04027*
X0576Y04028*
X05759Y04029*
X05758Y0403*
X05766Y04038*
G37*
%LNpcb_copper_signal_2-2*%
%LPC*%
G36*
X02784Y03652D02*
X02777D01*
X02771Y03651*
X02765Y03647*
X0276Y03642*
X02757Y03637*
X02755Y0363*
Y03623*
X02757Y03617*
X0276Y03611*
X02765Y03606*
X02771Y03603*
X02777Y03601*
X02784*
X02791Y03603*
X02796Y03606*
X02801Y03611*
X02805Y03617*
X02806Y03623*
Y0363*
X02805Y03637*
X02801Y03642*
X02796Y03647*
X02791Y03651*
X02784Y03652*
G37*
G36*
X02632Y0363D02*
X02557D01*
Y03555*
X02632*
Y0363*
G37*
G36*
X02864Y03503D02*
X02855D01*
X02845Y035*
X02836Y03495*
X02829Y03488*
X02825Y0348*
X02822Y0347*
Y0346*
X02825Y03451*
X02829Y03442*
X02836Y03435*
X02845Y0343*
X02855Y03428*
X02864*
X02874Y0343*
X02883Y03435*
X0289Y03442*
X02895Y03451*
X02897Y0346*
Y0347*
X02895Y0348*
X0289Y03488*
X02883Y03495*
X02874Y035*
X02864Y03503*
G37*
G36*
X02599Y03433D02*
X0259D01*
X0258Y03431*
X02571Y03426*
X02564Y03419*
X0256Y0341*
X02557Y03401*
Y03391*
X0256Y03381*
X02564Y03373*
X02571Y03366*
X0258Y03361*
X0259Y03358*
X02599*
X02609Y03361*
X02618Y03366*
X02625Y03373*
X0263Y03381*
X02632Y03391*
Y03401*
X0263Y0341*
X02625Y03419*
X02618Y03426*
X02609Y03431*
X02599Y03433*
G37*
G36*
X03708Y03394D02*
X03701D01*
X03693Y03391*
X03688Y03386*
X03685Y03378*
Y03371*
X03688Y03363*
X03693Y03358*
X03701Y03355*
X03708*
X03716Y03358*
X03721Y03363*
X03724Y03371*
Y03378*
X03721Y03386*
X03716Y03391*
X03708Y03394*
G37*
G36*
X02864Y03404D02*
X02855D01*
X02845Y03402*
X02836Y03397*
X02829Y0339*
X02825Y03381*
X02822Y03372*
Y03362*
X02825Y03352*
X02829Y03344*
X02836Y03337*
X02845Y03332*
X02855Y03329*
X02864*
X02874Y03332*
X02883Y03337*
X0289Y03344*
X02895Y03352*
X02897Y03362*
Y03372*
X02895Y03381*
X0289Y0339*
X02883Y03397*
X02874Y03402*
X02864Y03404*
G37*
G36*
X02599Y03335D02*
X0259D01*
X0258Y03332*
X02571Y03327*
X02564Y0332*
X0256Y03312*
X02557Y03302*
Y03292*
X0256Y03283*
X02564Y03274*
X02571Y03267*
X0258Y03262*
X0259Y0326*
X02599*
X02609Y03262*
X02618Y03267*
X02625Y03274*
X0263Y03283*
X02632Y03292*
Y03302*
X0263Y03312*
X02625Y0332*
X02618Y03327*
X02609Y03332*
X02599Y03335*
G37*
G36*
X04058Y03274D02*
X04051D01*
X04043Y03271*
X04038Y03266*
X04035Y03258*
Y03251*
X04038Y03243*
X04043Y03238*
X04051Y03235*
X04058*
X04066Y03238*
X04071Y03243*
X04074Y03251*
Y03258*
X04071Y03266*
X04066Y03271*
X04058Y03274*
G37*
G36*
X02864Y03306D02*
X02855D01*
X02845Y03303*
X02836Y03299*
X02829Y03292*
X02825Y03283*
X02822Y03273*
Y03264*
X02825Y03254*
X02829Y03245*
X02836Y03238*
X02845Y03233*
X02855Y03231*
X02864*
X02874Y03233*
X02883Y03238*
X0289Y03245*
X02895Y03254*
X02897Y03264*
Y03273*
X02895Y03283*
X0289Y03292*
X02883Y03299*
X02874Y03303*
X02864Y03306*
G37*
G36*
X03523Y03254D02*
X03516D01*
X03508Y03251*
X03503Y03246*
X035Y03238*
Y03231*
X03503Y03223*
X03508Y03218*
X03516Y03215*
X03523*
X03531Y03218*
X03536Y03223*
X03539Y03231*
Y03238*
X03536Y03246*
X03531Y03251*
X03523Y03254*
G37*
G36*
X03888Y03244D02*
X03881D01*
X03873Y03241*
X03868Y03236*
X03865Y03228*
Y03221*
X03868Y03213*
X03873Y03208*
X03881Y03205*
X03888*
X03896Y03208*
X03901Y03213*
X03904Y03221*
Y03228*
X03901Y03236*
X03896Y03241*
X03888Y03244*
G37*
G36*
X04193Y03214D02*
X04186D01*
X04178Y03211*
X04173Y03206*
X0417Y03198*
Y03191*
X04173Y03183*
X04178Y03178*
X04186Y03175*
X04193*
X04201Y03178*
X04206Y03183*
X04209Y03191*
Y03198*
X04206Y03206*
X04201Y03211*
X04193Y03214*
G37*
G36*
X02599Y03236D02*
X0259D01*
X0258Y03234*
X02571Y03229*
X02564Y03222*
X0256Y03213*
X02557Y03204*
Y03194*
X0256Y03184*
X02564Y03176*
X02571Y03169*
X0258Y03164*
X0259Y03161*
X02599*
X02609Y03164*
X02618Y03169*
X02625Y03176*
X0263Y03184*
X02632Y03194*
Y03204*
X0263Y03213*
X02625Y03222*
X02618Y03229*
X02609Y03234*
X02599Y03236*
G37*
G36*
X02864Y03208D02*
X02855D01*
X02845Y03205*
X02836Y032*
X02829Y03193*
X02825Y03185*
X02822Y03175*
Y03165*
X02825Y03156*
X02829Y03147*
X02836Y0314*
X02845Y03135*
X02855Y03132*
X02864*
X02874Y03135*
X02883Y0314*
X0289Y03147*
X02895Y03156*
X02897Y03165*
Y03175*
X02895Y03185*
X0289Y03193*
X02883Y032*
X02874Y03205*
X02864Y03208*
G37*
G36*
X04228Y03149D02*
X04221D01*
X04213Y03146*
X04208Y03141*
X04205Y03133*
Y03129*
X042Y03127*
X04196Y03131*
X04188Y03134*
X04181*
X04173Y03131*
X04168Y03126*
X04165Y03118*
Y03111*
X04168Y03103*
X04173Y03098*
X04181Y03095*
X04188*
X04196Y03098*
X04201Y03103*
X04204Y03111*
Y03115*
X04209Y03117*
X04213Y03113*
X04221Y0311*
X04228*
X04236Y03113*
X04241Y03118*
X04244Y03126*
Y03133*
X04241Y03141*
X04236Y03146*
X04228Y03149*
G37*
G36*
X02599Y03138D02*
X0259D01*
X0258Y03135*
X02571Y0313*
X02564Y03123*
X0256Y03115*
X02557Y03105*
Y03095*
X0256Y03086*
X02564Y03077*
X02571Y0307*
X0258Y03065*
X0259Y03063*
X02599*
X02609Y03065*
X02618Y0307*
X02625Y03077*
X0263Y03086*
X02632Y03095*
Y03105*
X0263Y03115*
X02625Y03123*
X02618Y0313*
X02609Y03135*
X02599Y03138*
G37*
G36*
X04253Y03099D02*
X04246D01*
X04238Y03096*
X04233Y03091*
X0423Y03083*
Y03076*
X04233Y03068*
X04238Y03063*
X04246Y0306*
X04253*
X04261Y03063*
X04266Y03068*
X04269Y03076*
Y03083*
X04266Y03091*
X04261Y03096*
X04253Y03099*
G37*
G36*
X03928Y03089D02*
X03921D01*
X03913Y03086*
X03908Y03081*
X03905Y03073*
Y03066*
X03908Y03058*
X03913Y03053*
X03921Y0305*
X03928*
X03936Y03053*
X03941Y03058*
X03944Y03066*
Y03073*
X03941Y03081*
X03936Y03086*
X03928Y03089*
G37*
G36*
X04008Y03054D02*
X04001D01*
X03993Y03051*
X03988Y03046*
X03985Y03038*
Y03031*
X03988Y03023*
X03993Y03018*
X04001Y03015*
X04008*
X04016Y03018*
X04021Y03023*
X04024Y03031*
Y03038*
X04021Y03046*
X04016Y03051*
X04008Y03054*
G37*
G36*
X04168Y03049D02*
X04161D01*
X04153Y03046*
X04148Y03041*
X04145Y03033*
Y03026*
X04148Y03018*
X04153Y03013*
X04161Y0301*
X04168*
X04176Y03013*
X04181Y03018*
X04184Y03026*
Y03033*
X04181Y03041*
X04176Y03046*
X04168Y03049*
G37*
G36*
X03133Y03024D02*
X03126D01*
X03118Y03021*
X03113Y03016*
X0311Y03008*
Y03001*
X03113Y02993*
X03118Y02988*
X03126Y02985*
X03133*
X03141Y02988*
X03146Y02993*
X03149Y03001*
Y03008*
X03146Y03016*
X03141Y03021*
X03133Y03024*
G37*
G36*
X02599Y03039D02*
X0259D01*
X0258Y03037*
X02571Y03032*
X02564Y03025*
X0256Y03016*
X02557Y03007*
Y02997*
X0256Y02987*
X02564Y02979*
X02571Y02972*
X0258Y02967*
X0259Y02964*
X02599*
X02609Y02967*
X02618Y02972*
X02625Y02979*
X0263Y02987*
X02632Y02997*
Y03007*
X0263Y03016*
X02625Y03025*
X02618Y03032*
X02609Y03037*
X02599Y03039*
G37*
G36*
X04253Y02999D02*
X04246D01*
X04238Y02996*
X04233Y02991*
X0423Y02983*
Y02976*
X04233Y02968*
X04238Y02963*
X04246Y0296*
X04253*
X04261Y02963*
X04266Y02968*
X04269Y02976*
Y02983*
X04266Y02991*
X04261Y02996*
X04253Y02999*
G37*
G36*
X02824Y02989D02*
X02815D01*
X02805Y02986*
X02796Y02981*
X02789Y02974*
X02785Y02966*
X02782Y02956*
Y02946*
X02785Y02937*
X02789Y02928*
X02796Y02921*
X02805Y02916*
X02815Y02914*
X02824*
X02834Y02916*
X02843Y02921*
X0285Y02928*
X02855Y02937*
X02857Y02946*
Y02956*
X02855Y02966*
X0285Y02974*
X02843Y02981*
X02834Y02986*
X02824Y02989*
G37*
G36*
X03628Y02949D02*
X03621D01*
X03613Y02946*
X03608Y02941*
X03605Y02933*
Y02926*
X03608Y02918*
X03613Y02913*
X03621Y0291*
X03628*
X03636Y02913*
X03641Y02918*
X03644Y02926*
Y02933*
X03641Y02941*
X03636Y02946*
X03628Y02949*
G37*
G36*
X04198D02*
X04191D01*
X04183Y02946*
X04178Y02941*
X04175Y02933*
Y02926*
X04178Y02918*
X04183Y02913*
X04184Y02913*
X04185Y02908*
X04183Y02906*
X0418Y02899*
Y02891*
X04183Y02883*
X04188Y02878*
X04196Y02875*
X04204*
X04211Y02878*
X04216Y02883*
X04219Y02891*
Y02899*
X04216Y02906*
X04211Y02911*
X0421Y02912*
X0421Y02916*
X04211Y02918*
X04214Y02926*
Y02933*
X04211Y02941*
X04206Y02946*
X04198Y02949*
G37*
G36*
X03553Y02909D02*
X03546D01*
X03538Y02906*
X03533Y02901*
X0353Y02893*
Y02886*
X03533Y02878*
X03538Y02873*
X03546Y0287*
X03553*
X03561Y02873*
X03566Y02878*
X03569Y02886*
Y02893*
X03566Y02901*
X03561Y02906*
X03553Y02909*
G37*
G36*
X03753Y02889D02*
X03746D01*
X03738Y02886*
X03733Y02881*
X0373Y02873*
Y02866*
X03733Y02858*
X03738Y02853*
X03746Y0285*
X03753*
X03761Y02853*
X03766Y02858*
X03769Y02866*
Y02873*
X03766Y02881*
X03761Y02886*
X03753Y02889*
G37*
G36*
X03844Y02857D02*
X03836D01*
X03829Y02854*
X03823Y02848*
X0382Y02841*
Y02833*
X03823Y02826*
X03829Y0282*
X03836Y02817*
X03844*
X03851Y0282*
X03857Y02826*
X0386Y02833*
Y02841*
X03857Y02848*
X03851Y02854*
X03844Y02857*
G37*
G36*
X02824Y0289D02*
X02815D01*
X02805Y02888*
X02796Y02883*
X02789Y02876*
X02785Y02867*
X02782Y02858*
Y02848*
X02785Y02838*
X02789Y0283*
X02796Y02823*
X02805Y02818*
X02815Y02815*
X02824*
X02834Y02818*
X02843Y02823*
X0285Y0283*
X02855Y02838*
X02857Y02848*
Y02858*
X02855Y02867*
X0285Y02876*
X02843Y02883*
X02834Y02888*
X02824Y0289*
G37*
G36*
X03113Y02839D02*
X03106D01*
X03098Y02836*
X03093Y02831*
X0309Y02823*
Y02816*
X03093Y02808*
X03098Y02803*
X03106Y028*
X03113*
X03121Y02803*
X03126Y02808*
X03129Y02816*
Y02823*
X03126Y02831*
X03121Y02836*
X03113Y02839*
G37*
G36*
X03883Y02809D02*
X03876D01*
X03868Y02806*
X03863Y02801*
X0386Y02793*
Y02786*
X03863Y02778*
X03868Y02773*
X03866Y02768*
X03866Y02768*
X03863Y02769*
X03856*
X03848Y02766*
X03843Y02761*
X0384Y02753*
Y02746*
X03843Y02738*
X03848Y02733*
X03856Y0273*
X03863*
X03871Y02733*
X03876Y02738*
X03879Y02746*
Y02753*
X03876Y02761*
X03871Y02766*
X03873Y02771*
X03873Y02771*
X03876Y0277*
X03883*
X03891Y02773*
X03896Y02778*
X03899Y02786*
Y02793*
X03896Y02801*
X03891Y02806*
X03883Y02809*
G37*
G36*
X02599Y02821D02*
X0259D01*
X0258Y02818*
X02571Y02813*
X02564Y02806*
X0256Y02798*
X02557Y02788*
Y02778*
X0256Y02769*
X02564Y0276*
X02571Y02753*
X0258Y02748*
X0259Y02746*
X02599*
X02609Y02748*
X02618Y02753*
X02625Y0276*
X0263Y02769*
X02632Y02778*
Y02788*
X0263Y02798*
X02625Y02806*
X02618Y02813*
X02609Y02818*
X02599Y02821*
G37*
G36*
X03618Y02779D02*
X03611D01*
X03603Y02776*
X03598Y02771*
X03595Y02763*
Y02756*
X03598Y02748*
X03603Y02743*
X03611Y0274*
X03618*
X03626Y02743*
X03631Y02748*
X03634Y02756*
Y02763*
X03631Y02771*
X03626Y02776*
X03618Y02779*
G37*
G36*
X03803Y02772D02*
X03796D01*
X03788Y02769*
X03783Y02763*
X0378Y02756*
Y02748*
X03783Y02741*
X03788Y02735*
X03796Y02732*
X03803*
X03811Y02735*
X03816Y02741*
X03819Y02748*
Y02756*
X03816Y02763*
X03811Y02769*
X03803Y02772*
G37*
G36*
X04368Y02759D02*
X04361D01*
X04353Y02756*
X04348Y02751*
X04345Y02743*
Y02736*
X04348Y02728*
X04353Y02723*
X04361Y0272*
X04368*
X04376Y02723*
X04381Y02728*
X04384Y02736*
Y02743*
X04381Y02751*
X04376Y02756*
X04368Y02759*
G37*
G36*
X02857Y02792D02*
X02782D01*
Y02717*
X02857*
Y02792*
G37*
G36*
X03923Y02749D02*
X03916D01*
X03908Y02746*
X03903Y02741*
X039Y02733*
Y02726*
X03903Y02718*
X03908Y02713*
X03916Y0271*
X03923*
X03931Y02713*
X03936Y02718*
X03939Y02726*
Y02733*
X03936Y02741*
X03931Y02746*
X03923Y02749*
G37*
G36*
X03283Y02714D02*
X03276D01*
X03268Y02711*
X03263Y02706*
X0326Y02698*
Y02691*
X03263Y02683*
X03268Y02678*
X03276Y02675*
X03283*
X03291Y02678*
X03296Y02683*
X03299Y02691*
Y02698*
X03296Y02706*
X03291Y02711*
X03283Y02714*
G37*
G36*
X02599Y02722D02*
X0259D01*
X0258Y0272*
X02571Y02715*
X02564Y02708*
X0256Y02699*
X02557Y0269*
Y0268*
X0256Y0267*
X02564Y02662*
X02571Y02655*
X0258Y0265*
X0259Y02647*
X02599*
X02609Y0265*
X02618Y02655*
X02625Y02662*
X0263Y0267*
X02632Y0268*
Y0269*
X0263Y02699*
X02625Y02708*
X02618Y02715*
X02609Y0272*
X02599Y02722*
G37*
G36*
X04403Y02683D02*
X04396D01*
X04389Y02681*
X04383Y02678*
X04379Y02673*
X04375Y02667*
X04373Y0266*
Y02654*
X04375Y02647*
X04379Y02641*
X04383Y02636*
X04389Y02633*
X04396Y02631*
X04403*
X04409Y02633*
X04415Y02636*
X0442Y02641*
X04423Y02647*
X04425Y02654*
Y0266*
X04423Y02667*
X0442Y02673*
X04415Y02678*
X04409Y02681*
X04403Y02683*
G37*
G36*
X03493Y02704D02*
X03486D01*
X03478Y02701*
X03473Y02696*
X0347Y02688*
Y02681*
X03473Y02673*
X03471Y02668*
X03468Y02666*
X03463Y02661*
X0346Y02653*
Y02646*
X03463Y02638*
X03468Y02633*
X03476Y0263*
X03483*
X03491Y02633*
X03496Y02638*
X03499Y02646*
Y02653*
X03496Y02661*
X03498Y02666*
X03501Y02668*
X03506Y02673*
X03509Y02681*
Y02688*
X03506Y02696*
X03501Y02701*
X03493Y02704*
G37*
G36*
X03738Y02649D02*
X03731D01*
X03723Y02646*
X03718Y02641*
X03715Y02633*
Y02626*
X03718Y02618*
X03723Y02613*
X03731Y0261*
X03738*
X03746Y02613*
X03748Y02615*
X03753Y02614*
X03753Y02613*
X03758Y02608*
X03766Y02605*
X03773*
X03781Y02608*
X03786Y02613*
X03789Y02621*
Y02628*
X03786Y02636*
X03781Y02641*
X03773Y02644*
X03766*
X03758Y02641*
X03756Y02639*
X03751Y0264*
X03751Y02641*
X03746Y02646*
X03738Y02649*
G37*
G36*
X03428Y02644D02*
X03421D01*
X03413Y02641*
X03408Y02636*
X03405Y02628*
Y02621*
X03408Y02613*
X03413Y02608*
X03421Y02605*
X03428*
X03436Y02608*
X03441Y02613*
X03444Y02621*
Y02628*
X03441Y02636*
X03436Y02641*
X03428Y02644*
G37*
G36*
X04043Y02609D02*
X04036D01*
X04028Y02606*
X04023Y02601*
X0402Y02593*
Y02586*
X04023Y02578*
X04028Y02573*
X04036Y0257*
X04043*
X04051Y02573*
X04056Y02578*
X04059Y02586*
Y02593*
X04056Y02601*
X04051Y02606*
X04043Y02609*
G37*
G36*
X03298Y02589D02*
X03291D01*
X03283Y02586*
X03278Y02581*
X03275Y02573*
Y02566*
X03278Y02558*
X03283Y02553*
X03291Y0255*
X03298*
X03306Y02553*
X03311Y02558*
X03314Y02566*
Y02573*
X03311Y02581*
X03306Y02586*
X03298Y02589*
G37*
G36*
X03178D02*
X03171D01*
X03163Y02586*
X03158Y02581*
X03155Y02573*
Y02566*
X03158Y02558*
X03163Y02553*
X03171Y0255*
X03178*
X03186Y02553*
X03191Y02558*
X03194Y02566*
Y02573*
X03191Y02581*
X03186Y02586*
X03178Y02589*
G37*
G36*
X02988D02*
X02981D01*
X02973Y02586*
X02968Y02581*
X02965Y02573*
Y02566*
X02968Y02558*
X02973Y02553*
X02981Y0255*
X02988*
X02996Y02553*
X03001Y02558*
X03004Y02566*
Y02573*
X03001Y02581*
X02996Y02586*
X02988Y02589*
G37*
G36*
X02599Y02624D02*
X0259D01*
X0258Y02621*
X02571Y02616*
X02564Y02609*
X0256Y02601*
X02557Y02591*
Y02581*
X0256Y02572*
X02564Y02563*
X02571Y02556*
X0258Y02551*
X0259Y02549*
X02599*
X02609Y02551*
X02618Y02556*
X02625Y02563*
X0263Y02572*
X02632Y02581*
Y02591*
X0263Y02601*
X02625Y02609*
X02618Y02616*
X02609Y02621*
X02599Y02624*
G37*
G36*
X04233Y02579D02*
X04226D01*
X04218Y02576*
X04213Y02571*
X0421Y02563*
Y02556*
X04213Y02548*
X04218Y02543*
X04226Y0254*
X04233*
X04241Y02543*
X04246Y02548*
X04249Y02556*
Y02563*
X04246Y02571*
X04241Y02576*
X04233Y02579*
G37*
G36*
X03443Y02554D02*
X03436D01*
X03428Y02551*
X03423Y02546*
X0342Y02538*
Y02531*
X03423Y02523*
X03428Y02518*
X03436Y02515*
X03443*
X03451Y02518*
X03456Y02523*
X03459Y02531*
Y02538*
X03456Y02546*
X03451Y02551*
X03443Y02554*
G37*
G36*
X03858Y02579D02*
X03851D01*
X03843Y02576*
X03838Y02571*
X03835Y02563*
Y02556*
X03835Y02554*
X03835Y02553*
X03832Y02549*
X03826*
X03818Y02546*
X03813Y02541*
X0381Y02533*
Y02526*
X03813Y02518*
X03818Y02513*
X03826Y0251*
X03833*
X03841Y02513*
X03846Y02518*
X03849Y02526*
Y02533*
X03849Y02535*
X03849Y02536*
X03852Y0254*
X03858*
X03866Y02543*
X03871Y02548*
X03874Y02556*
Y02563*
X03871Y02571*
X03866Y02576*
X03858Y02579*
G37*
G36*
X03883Y02524D02*
X03876D01*
X03868Y02521*
X03863Y02516*
X0386Y02508*
Y02501*
X03863Y02493*
X03868Y02488*
X03876Y02485*
X03883*
X03891Y02488*
X03896Y02493*
X03899Y02501*
Y02508*
X03896Y02516*
X03891Y02521*
X03883Y02524*
G37*
G36*
X04163Y02499D02*
X04156D01*
X04148Y02496*
X04143Y02491*
X0414Y02483*
Y02479*
X04135Y02477*
X04131Y02481*
X04123Y02484*
X04116*
X04108Y02481*
X04103Y02476*
X041Y02468*
Y02461*
X04103Y02453*
X04108Y02448*
X04116Y02445*
X04123*
X04131Y02448*
X04136Y02453*
X04139Y02461*
Y02465*
X04144Y02467*
X04148Y02463*
X04156Y0246*
X04163*
X04171Y02463*
X04176Y02468*
X04179Y02476*
Y02483*
X04176Y02491*
X04171Y02496*
X04163Y02499*
G37*
G36*
X03153D02*
X03146D01*
X03138Y02496*
X03133Y02491*
X0313Y02483*
Y02476*
X03133Y02468*
X03138Y02463*
X03146Y0246*
X03153*
X03161Y02463*
X03166Y02468*
X03169Y02476*
Y02483*
X03166Y02491*
X03161Y02496*
X03153Y02499*
G37*
G36*
X03018D02*
X03011D01*
X03003Y02496*
X02998Y02491*
X02995Y02483*
Y02476*
X02998Y02468*
X03003Y02463*
X03011Y0246*
X03018*
X03026Y02463*
X03031Y02468*
X03034Y02476*
Y02483*
X03031Y02491*
X03026Y02496*
X03018Y02499*
G37*
G36*
X04373Y02506D02*
X04366D01*
X0436Y02504*
X04354Y025*
X04349Y02496*
X04346Y0249*
X04344Y02483*
Y02476*
X04346Y0247*
X04349Y02464*
X04354Y02459*
X0436Y02456*
X04366Y02454*
X04373*
X0438Y02456*
X04385Y02459*
X0439Y02464*
X04394Y0247*
X04395Y02476*
Y02483*
X04394Y0249*
X0439Y02496*
X04385Y025*
X0438Y02504*
X04373Y02506*
G37*
G36*
X04314D02*
X04307D01*
X04301Y02504*
X04295Y025*
X0429Y02496*
X04287Y0249*
X04285Y02483*
Y02476*
X04287Y0247*
X0429Y02464*
X04295Y02459*
X04301Y02456*
X04307Y02454*
X04314*
X0432Y02456*
X04326Y02459*
X04331Y02464*
X04335Y0247*
X04336Y02476*
Y02483*
X04335Y0249*
X04331Y02496*
X04326Y025*
X0432Y02504*
X04314Y02506*
G37*
G36*
X02599Y02525D02*
X0259D01*
X0258Y02523*
X02571Y02518*
X02564Y02511*
X0256Y02502*
X02557Y02493*
Y02483*
X0256Y02473*
X02564Y02465*
X02571Y02458*
X0258Y02453*
X0259Y0245*
X02599*
X02609Y02453*
X02618Y02458*
X02625Y02465*
X0263Y02473*
X02632Y02483*
Y02493*
X0263Y02502*
X02625Y02511*
X02618Y02518*
X02609Y02523*
X02599Y02525*
G37*
G36*
X03438Y02474D02*
X03431D01*
X03423Y02471*
X03418Y02466*
X03415Y02458*
Y02451*
X03418Y02443*
X03423Y02438*
X03431Y02435*
X03438*
X03446Y02438*
X03451Y02443*
X03454Y02451*
Y02458*
X03451Y02466*
X03446Y02471*
X03438Y02474*
G37*
G36*
X04403Y02447D02*
X04396D01*
X04389Y02445*
X04383Y02441*
X04379Y02437*
X04375Y02431*
X04373Y02424*
Y02417*
X04375Y02411*
X04379Y02405*
X04383Y024*
X04389Y02397*
X04396Y02395*
X04403*
X04409Y02397*
X04415Y024*
X0442Y02405*
X04423Y02411*
X04425Y02417*
Y02424*
X04423Y02431*
X0442Y02437*
X04415Y02441*
X04409Y02445*
X04403Y02447*
G37*
G36*
X04093Y02449D02*
X04086D01*
X04078Y02446*
X04073Y02441*
X0407Y02433*
Y02426*
X04073Y02418*
X04073Y02418*
X04068Y02416*
X04063Y02411*
X0406Y02403*
Y02396*
X04063Y02388*
X04068Y02383*
X04076Y0238*
X04083*
X04091Y02383*
X04096Y02388*
X04099Y02396*
Y02403*
X04096Y02411*
X04096Y02411*
X04101Y02413*
X04106Y02418*
X04109Y02426*
Y02433*
X04106Y02441*
X04101Y02446*
X04093Y02449*
G37*
G36*
X03358Y02414D02*
X03351D01*
X03343Y02411*
X03338Y02406*
X03335Y02398*
Y02391*
X03338Y02383*
X03343Y02378*
X03351Y02375*
X03358*
X03366Y02378*
X03371Y02383*
X03374Y02391*
Y02398*
X03371Y02406*
X03366Y02411*
X03358Y02414*
G37*
G36*
X03173Y02404D02*
X03166D01*
X03158Y02401*
X03153Y02396*
X0315Y02388*
Y02381*
X03153Y02373*
X03158Y02368*
X03166Y02365*
X03173*
X03181Y02368*
X03186Y02373*
X03189Y02381*
Y02388*
X03186Y02396*
X03181Y02401*
X03173Y02404*
G37*
G36*
X03023D02*
X03016D01*
X03008Y02401*
X03003Y02396*
X03Y02388*
Y02381*
X03003Y02373*
X03008Y02368*
X03016Y02365*
X03023*
X03031Y02368*
X03036Y02373*
X03039Y02381*
Y02388*
X03036Y02396*
X03031Y02401*
X03023Y02404*
G37*
G36*
X02599Y02427D02*
X0259D01*
X0258Y02425*
X02571Y0242*
X02564Y02413*
X0256Y02404*
X02557Y02394*
Y02385*
X0256Y02375*
X02564Y02366*
X02571Y02359*
X0258Y02355*
X0259Y02352*
X02599*
X02609Y02355*
X02618Y02359*
X02625Y02366*
X0263Y02375*
X02632Y02385*
Y02394*
X0263Y02404*
X02625Y02413*
X02618Y0242*
X02609Y02425*
X02599Y02427*
G37*
G36*
X03593Y02389D02*
X03586D01*
X03578Y02386*
X03573Y02381*
X0357Y02373*
Y02366*
X03573Y02358*
X03578Y02353*
X03586Y0235*
X03593*
X03601Y02353*
X03606Y02358*
X03609Y02366*
Y02373*
X03606Y02381*
X03601Y02386*
X03593Y02389*
G37*
G36*
X04373Y02387D02*
X04366D01*
X0436Y02386*
X04354Y02382*
X04349Y02378*
X04346Y02372*
X04344Y02365*
Y02358*
X04346Y02352*
X04349Y02346*
X04354Y02341*
X0436Y02338*
X04366Y02336*
X04373*
X0438Y02338*
X04385Y02341*
X0439Y02346*
X04394Y02352*
X04395Y02358*
Y02365*
X04394Y02372*
X0439Y02378*
X04385Y02382*
X0438Y02386*
X04373Y02387*
G37*
G36*
X04078Y02334D02*
X04071D01*
X04063Y02331*
X04058Y02326*
X04055Y02318*
Y02311*
X04058Y02303*
X04063Y02298*
X04071Y02295*
X04078*
X04086Y02298*
X04091Y02303*
X04094Y02311*
Y02318*
X04091Y02326*
X04086Y02331*
X04078Y02334*
G37*
G36*
X03438Y02319D02*
X03431D01*
X03423Y02316*
X03418Y02311*
X03415Y02303*
Y02296*
X03418Y02288*
X03423Y02283*
X03431Y0228*
X03438*
X03446Y02283*
X03451Y02288*
X03454Y02296*
Y02303*
X03451Y02311*
X03446Y02316*
X03438Y02319*
G37*
G36*
X03173Y02309D02*
X03166D01*
X03158Y02306*
X03153Y02301*
X0315Y02293*
Y02286*
X03153Y02278*
X03158Y02273*
X03166Y0227*
X03173*
X03181Y02273*
X03186Y02278*
X03189Y02286*
Y02293*
X03186Y02301*
X03181Y02306*
X03173Y02309*
G37*
G36*
X03023D02*
X03016D01*
X03008Y02306*
X03003Y02301*
X03Y02293*
Y02286*
X03003Y02278*
X03008Y02273*
X03016Y0227*
X03023*
X03031Y02273*
X03036Y02278*
X03039Y02286*
Y02293*
X03036Y02301*
X03031Y02306*
X03023Y02309*
G37*
G36*
X02632Y02329D02*
X02557D01*
Y02254*
X02632*
Y02329*
G37*
G36*
X04373Y02269D02*
X04366D01*
X0436Y02268*
X04354Y02264*
X04349Y02259*
X04346Y02254*
X04344Y02247*
Y0224*
X04346Y02234*
X04349Y02228*
X04354Y02223*
X0436Y0222*
X04366Y02218*
X04373*
X0438Y0222*
X04385Y02223*
X0439Y02228*
X04394Y02234*
X04395Y0224*
Y02247*
X04394Y02254*
X0439Y02259*
X04385Y02264*
X0438Y02268*
X04373Y02269*
G37*
G36*
X03347Y02211D02*
X03339D01*
X03332Y02208*
X03326Y02202*
X03323Y02195*
Y02187*
X03326Y0218*
X03332Y02174*
X03339Y02171*
X03347*
X03354Y02174*
X0336Y0218*
X03363Y02187*
Y02195*
X0336Y02202*
X03354Y02208*
X03347Y02211*
G37*
G36*
X03828Y02204D02*
X03821D01*
X03813Y02201*
X03808Y02196*
X03805Y02188*
Y02181*
X03808Y02173*
X03813Y02168*
X03821Y02165*
X03828*
X03836Y02168*
X03841Y02173*
X03844Y02181*
Y02188*
X03841Y02196*
X03836Y02201*
X03828Y02204*
G37*
G36*
X03583Y02184D02*
X03576D01*
X03568Y02181*
X03563Y02176*
X0356Y02168*
Y02161*
X03563Y02153*
X03568Y02148*
X03576Y02145*
X03583*
X03591Y02148*
X03596Y02153*
X03599Y02161*
Y02168*
X03596Y02176*
X03591Y02181*
X03583Y02184*
G37*
G36*
X03763Y02174D02*
X03756D01*
X03748Y02171*
X03743Y02166*
X0374Y02158*
Y02151*
X03743Y02143*
X03748Y02138*
X03756Y02135*
X03763*
X03771Y02138*
X03776Y02143*
X03779Y02151*
Y02158*
X03776Y02166*
X03771Y02171*
X03763Y02174*
G37*
G36*
X03813Y02079D02*
X03806D01*
X03798Y02076*
X03793Y02071*
X0379Y02063*
Y02056*
X03793Y02048*
X03798Y02043*
X03806Y0204*
X03813*
X03821Y02043*
X03826Y02048*
X03829Y02056*
Y02063*
X03826Y02071*
X03821Y02076*
X03813Y02079*
G37*
G36*
X04203Y02059D02*
X04196D01*
X04188Y02056*
X04183Y02051*
X0418Y02043*
Y02036*
X04183Y02028*
X04188Y02023*
X04196Y0202*
X04203*
X04211Y02023*
X04216Y02028*
X04219Y02036*
Y02043*
X04216Y02051*
X04211Y02056*
X04203Y02059*
G37*
G36*
X02988D02*
X02981D01*
X02973Y02056*
X02968Y02051*
X02965Y02043*
Y02036*
X02968Y02028*
X02973Y02023*
X02981Y0202*
X02988*
X02996Y02023*
X03001Y02028*
X03004Y02036*
Y02043*
X03001Y02051*
X02996Y02056*
X02988Y02059*
G37*
G36*
X04198Y01979D02*
X04191D01*
X04183Y01976*
X04178Y01971*
X04175Y01963*
Y01956*
X04178Y01948*
X04183Y01943*
X04191Y0194*
X04198*
X04206Y01943*
X04211Y01948*
X04214Y01956*
Y01963*
X04211Y01971*
X04206Y01976*
X04198Y01979*
G37*
G36*
X04193Y01899D02*
X04186D01*
X04178Y01896*
X04173Y01891*
X0417Y01883*
Y01876*
X04173Y01868*
X04178Y01863*
X04186Y0186*
X04193*
X04201Y01863*
X04206Y01868*
X04209Y01876*
Y01883*
X04206Y01891*
X04201Y01896*
X04193Y01899*
G37*
G36*
X02554Y01934D02*
X02545D01*
X02535Y01931*
X02526Y01926*
X02519Y01919*
X02515Y01911*
X02512Y01901*
Y01891*
X02515Y01882*
X02519Y01873*
X02526Y01866*
X02535Y01861*
X02545Y01859*
X02554*
X02564Y01861*
X02573Y01866*
X0258Y01873*
X02585Y01882*
X02587Y01891*
Y01901*
X02585Y01911*
X0258Y01919*
X02573Y01926*
X02564Y01931*
X02554Y01934*
G37*
G36*
X03618Y01824D02*
X03611D01*
X03603Y01821*
X03598Y01816*
X03595Y01808*
Y01801*
X03598Y01793*
X03603Y01788*
X03611Y01785*
X03618*
X03626Y01788*
X03631Y01793*
X03634Y01801*
Y01808*
X03631Y01816*
X03626Y01821*
X03618Y01824*
G37*
G36*
X04438Y01814D02*
X04431D01*
X04423Y01811*
X04418Y01806*
X04415Y01798*
Y01791*
X04418Y01783*
X04423Y01778*
X04431Y01775*
X04438*
X04446Y01778*
X04451Y01783*
X04454Y01791*
Y01798*
X04451Y01806*
X04446Y01811*
X04438Y01814*
G37*
G36*
X04193D02*
X04186D01*
X04178Y01811*
X04173Y01806*
X0417Y01798*
Y01791*
X04173Y01783*
X04178Y01778*
X04186Y01775*
X04193*
X04201Y01778*
X04206Y01783*
X04209Y01791*
Y01798*
X04206Y01806*
X04201Y01811*
X04193Y01814*
G37*
G36*
X02554Y01835D02*
X02545D01*
X02535Y01833*
X02526Y01828*
X02519Y01821*
X02515Y01812*
X02512Y01803*
Y01793*
X02515Y01783*
X02519Y01775*
X02526Y01768*
X02535Y01763*
X02545Y0176*
X02554*
X02564Y01763*
X02573Y01768*
X0258Y01775*
X02585Y01783*
X02587Y01793*
Y01803*
X02585Y01812*
X0258Y01821*
X02573Y01828*
X02564Y01833*
X02554Y01835*
G37*
G36*
Y01737D02*
X02545D01*
X02535Y01735*
X02526Y0173*
X02519Y01723*
X02515Y01714*
X02512Y01704*
Y01695*
X02515Y01685*
X02519Y01676*
X02526Y01669*
X02535Y01665*
X02545Y01662*
X02554*
X02564Y01665*
X02573Y01669*
X0258Y01676*
X02585Y01685*
X02587Y01695*
Y01704*
X02585Y01714*
X0258Y01723*
X02573Y0173*
X02564Y01735*
X02554Y01737*
G37*
G36*
X04343Y01649D02*
X04336D01*
X04328Y01646*
X04323Y01641*
X0432Y01633*
Y01626*
X04323Y01618*
X04328Y01613*
X04336Y0161*
X04343*
X04351Y01613*
X04356Y01618*
X04359Y01626*
Y01633*
X04356Y01641*
X04351Y01646*
X04343Y01649*
G37*
G36*
X02587Y01639D02*
X02512D01*
Y01564*
X02587*
Y01639*
G37*
%LNpcb_copper_signal_2-3*%
%LPD*%
G54D91*
X02595Y02291D03*
Y03592D03*
X0286Y03564D03*
X0282Y02755D03*
X0255Y01601D03*
G54D92*
X02595Y0239D03*
Y02488D03*
Y02586D03*
Y02685D03*
Y02783D03*
Y03494D03*
Y03396D03*
Y03297D03*
Y03199D03*
Y031D03*
Y03002D03*
X0286Y03465D03*
Y03367D03*
Y03268D03*
Y0317D03*
X0282Y02853D03*
Y02951D03*
X0255Y01896D03*
Y01798D03*
Y017D03*
G54D93*
X02781Y03627D03*
G54D98*
X04515Y0276D02*
X0456Y02805D01*
X04907D02*
X04922Y0279D01*
X0456Y02805D02*
X04907D01*
X04922Y0279D02*
X04925D01*
X04445Y01875D02*
X04515Y01945D01*
X0444Y0204D02*
X04455Y02055D01*
X0444Y0196D02*
X04485Y02005D01*
X04455Y02055D02*
Y02805D01*
X04875Y0274D02*
X04925Y0279D01*
X04539Y02854D02*
X04839D01*
X04848Y02845D02*
X0485D01*
X04839Y02854D02*
X04848Y02845D01*
X0499Y0274D02*
Y0352D01*
X05489Y04019D02*
X05727D01*
X0499Y0352D02*
X05489Y04019D01*
X04955Y02755D02*
Y0353D01*
X0548Y04055D02*
X05742D01*
X04955Y0353D02*
X0548Y04055D01*
X0495Y027D02*
X0499Y0274D01*
X04924Y02725D02*
X04955Y02755D01*
X04845Y02745D02*
X04882Y02782D01*
X05727Y04019D02*
X05747Y04D01*
X05742Y04055D02*
X05772Y04025D01*
X04455Y02805D02*
X04639Y02989D01*
X04734D02*
X04743Y0298D01*
X04639Y02989D02*
X04734D01*
X04743Y0298D02*
X04855D01*
X04875Y0194D02*
X05235Y0158D01*
X04875Y0194D02*
Y0274D01*
X04845Y0192D02*
Y02745D01*
Y0192D02*
X0522Y01545D01*
X05235Y0158D02*
X05645D01*
X0522Y01545D02*
X0575D01*
X04515Y01945D02*
Y0276D01*
X04485Y028D02*
X04539Y02854D01*
X04485Y02005D02*
Y028D01*
X05675Y0161D02*
Y01755D01*
X0573Y0181*
X05645Y0158D02*
X05675Y0161D01*
G54D99*
X06795Y0233D03*
X06785Y04425D03*
X04765Y01585D03*
X0306Y0443D03*
G54D100*
X03985Y0438D03*
X04615Y04385D03*
G54D101*
X06795Y0385D03*
X06787Y0294D03*
X06795Y01895D03*
G54D102*
X0356Y03095D03*
X03625Y0293D03*
X0384Y02837D03*
X0388Y0279D03*
X038Y02752D03*
X0386Y0275D03*
X0392Y0273D03*
X042Y02895D03*
X0425Y0308D03*
X04685Y02835D03*
X04735Y02825D03*
X04665Y02755D03*
X04685Y02715D03*
X03355Y02395D03*
X03435Y02455D03*
X0328Y02695D03*
X0344Y02535D03*
X03294Y0257D03*
X0359Y0237D03*
X0358Y02165D03*
X03825Y02185D03*
X03435Y023D03*
X0284Y0257D03*
X029Y0223D03*
X0355Y0289D03*
X04455Y0173D03*
X0424Y03025D03*
X03885Y03225D03*
X04005Y03035D03*
X03925Y0307D03*
X0457Y01925D03*
X0434Y0163D03*
X03705Y03375D03*
X0352Y03235D03*
X03575D03*
X0313Y03005D03*
X0311Y0282D03*
X03343Y02191D03*
X0381Y0206D03*
X03615Y01805D03*
X03925Y0445D03*
X03955D03*
X03985D03*
X04015D03*
X04045D03*
Y0442D03*
X04015D03*
X03985D03*
X03955D03*
X03925D03*
Y0439D03*
X03955D03*
X03985D03*
X04015D03*
X04045D03*
Y0436D03*
X04015D03*
X03985D03*
X03955D03*
X03925D03*
Y0433D03*
X03955D03*
X03985D03*
X04015D03*
X04045D03*
Y043D03*
X04015D03*
X03985D03*
X03955D03*
X03925D03*
Y0427D03*
X03955D03*
X03985D03*
X04015D03*
X04045D03*
Y0424D03*
X04015D03*
X03985D03*
X03955D03*
X03925D03*
Y0421D03*
X03955D03*
X03985D03*
X04015D03*
X04045D03*
Y0448D03*
X04015D03*
X03985D03*
X03955D03*
X03925D03*
Y0451D03*
X03955D03*
X03985D03*
X04015D03*
X04045Y0454D03*
X04015D03*
X03985D03*
X03955D03*
X03925D03*
X04045Y0451D03*
X04075Y0454D03*
Y0451D03*
Y0448D03*
Y0445D03*
Y0442D03*
Y0439D03*
Y0436D03*
Y0433D03*
Y043D03*
Y0427D03*
Y0424D03*
Y0421D03*
X04105Y0454D03*
Y0451D03*
Y0448D03*
Y0445D03*
Y0442D03*
Y0439D03*
Y0436D03*
Y0433D03*
Y043D03*
Y0427D03*
Y0424D03*
Y0421D03*
X04135Y0451D03*
Y0448D03*
Y0445D03*
Y0442D03*
Y0439D03*
Y0436D03*
Y0433D03*
Y043D03*
Y0427D03*
Y0424D03*
X03895Y0421D03*
Y0424D03*
Y0427D03*
Y043D03*
Y0433D03*
Y0436D03*
Y0439D03*
Y0442D03*
Y0445D03*
Y0448D03*
Y0451D03*
Y0454D03*
X03865D03*
Y0451D03*
Y0448D03*
Y0445D03*
Y0442D03*
Y0439D03*
Y0436D03*
Y0433D03*
Y043D03*
Y0427D03*
Y0424D03*
Y0421D03*
X03835Y0424D03*
Y0427D03*
Y043D03*
Y0433D03*
Y0436D03*
Y0439D03*
Y0442D03*
Y0445D03*
Y0448D03*
Y0451D03*
X04465Y04515D03*
Y04485D03*
Y04455D03*
Y04425D03*
Y04395D03*
Y04365D03*
Y04335D03*
Y04305D03*
Y04275D03*
Y04245D03*
X04495Y04215D03*
Y04245D03*
Y04275D03*
Y04305D03*
Y04335D03*
Y04365D03*
Y04395D03*
Y04425D03*
Y04455D03*
Y04485D03*
Y04515D03*
Y04545D03*
X04525D03*
Y04515D03*
Y04485D03*
Y04455D03*
Y04425D03*
Y04395D03*
Y04365D03*
Y04335D03*
Y04305D03*
Y04275D03*
Y04245D03*
Y04215D03*
X04765Y04245D03*
Y04275D03*
Y04305D03*
Y04335D03*
Y04365D03*
Y04395D03*
Y04425D03*
Y04455D03*
Y04485D03*
Y04515D03*
X04735Y04215D03*
Y04245D03*
Y04275D03*
Y04305D03*
Y04335D03*
Y04365D03*
Y04395D03*
Y04425D03*
Y04455D03*
Y04485D03*
Y04515D03*
Y04545D03*
X04705Y04215D03*
Y04245D03*
Y04275D03*
Y04305D03*
Y04335D03*
Y04365D03*
Y04395D03*
Y04425D03*
Y04455D03*
Y04485D03*
Y04515D03*
Y04545D03*
X04675Y04515D03*
X04555Y04545D03*
X04585D03*
X04615D03*
X04645D03*
X04675D03*
X04645Y04515D03*
X04615D03*
X04585D03*
X04555D03*
Y04485D03*
X04585D03*
X04615D03*
X04645D03*
X04675D03*
Y04215D03*
X04645D03*
X04615D03*
X04585D03*
X04555D03*
Y04245D03*
X04585D03*
X04615D03*
X04645D03*
X04675D03*
Y04275D03*
X04645D03*
X04615D03*
X04585D03*
X04555D03*
Y04305D03*
X04585D03*
X04615D03*
X04645D03*
X04675D03*
Y04335D03*
X04645D03*
X04615D03*
X04585D03*
X04555D03*
Y04365D03*
X04585D03*
X04615D03*
X04645D03*
X04675D03*
Y04395D03*
X04645D03*
X04615D03*
X04585D03*
X04555D03*
Y04425D03*
X04585D03*
X04615D03*
X04645D03*
X04675D03*
Y04455D03*
X04645D03*
X04615D03*
X04585D03*
X04555D03*
X06725Y0379D03*
Y0382D03*
Y0385D03*
Y0388D03*
Y0391D03*
X06755D03*
Y0388D03*
Y0385D03*
Y0382D03*
Y0379D03*
X06785D03*
Y0382D03*
Y0385D03*
Y0388D03*
Y0391D03*
X06815D03*
Y0388D03*
Y0385D03*
Y0382D03*
Y0379D03*
X06845D03*
Y0382D03*
Y0385D03*
Y0388D03*
Y0391D03*
X06875D03*
Y0388D03*
Y0385D03*
Y0382D03*
Y0379D03*
X06905D03*
Y0382D03*
Y0385D03*
Y0388D03*
Y0391D03*
X06935D03*
Y0388D03*
Y0385D03*
Y0382D03*
Y0379D03*
X06965D03*
Y0382D03*
Y0385D03*
Y0388D03*
Y0391D03*
X06695D03*
Y0388D03*
Y0385D03*
Y0382D03*
Y0379D03*
X06665D03*
Y0382D03*
Y0385D03*
Y0388D03*
X06635Y0391D03*
Y0388D03*
Y0385D03*
Y0382D03*
Y0379D03*
X06665Y0391D03*
X06635Y0394D03*
X06665D03*
X06695D03*
X06725D03*
X06755D03*
X06785D03*
X06815D03*
X06845D03*
X06875D03*
X06905D03*
X06935D03*
X06965D03*
X06635Y0397D03*
X06665D03*
X06695D03*
X06725D03*
X06755D03*
X06785D03*
X06815D03*
X06845D03*
X06875D03*
X06905D03*
X06935D03*
X06965D03*
X06665Y04D03*
X06695D03*
X06725D03*
X06755D03*
X06785D03*
X06815D03*
X06845D03*
X06875D03*
X06905D03*
X06935D03*
X06965Y0376D03*
X06935D03*
X06905D03*
X06875D03*
X06845D03*
X06815D03*
X06785D03*
X06755D03*
X06725D03*
X06695D03*
X06665D03*
X06635D03*
Y0373D03*
X06665D03*
X06695D03*
X06725D03*
X06755D03*
X06785D03*
X06815D03*
X06845D03*
X06875D03*
X06905D03*
X06935D03*
X06965D03*
X06935Y037D03*
X06905D03*
X06875D03*
X06845D03*
X06815D03*
X06785D03*
X06755D03*
X06725D03*
X06695D03*
X06665D03*
X06657Y0279D03*
X06687D03*
X06717D03*
X06747D03*
X06777D03*
X06807D03*
X06837D03*
X06867D03*
X06897D03*
X06927D03*
X06957Y0282D03*
X06927D03*
X06897D03*
X06867D03*
X06837D03*
X06807D03*
X06777D03*
X06747D03*
X06717D03*
X06687D03*
X06657D03*
X06627D03*
Y0285D03*
X06657D03*
X06687D03*
X06717D03*
X06747D03*
X06777D03*
X06807D03*
X06837D03*
X06867D03*
X06897D03*
X06927D03*
X06957D03*
X06927Y0309D03*
X06897D03*
X06867D03*
X06837D03*
X06807D03*
X06777D03*
X06747D03*
X06717D03*
X06687D03*
X06657D03*
X06957Y0306D03*
X06927D03*
X06897D03*
X06867D03*
X06837D03*
X06807D03*
X06777D03*
X06747D03*
X06717D03*
X06687D03*
X06657D03*
X06627D03*
X06957Y0303D03*
X06927D03*
X06897D03*
X06867D03*
X06837D03*
X06807D03*
X06777D03*
X06747D03*
X06717D03*
X06687D03*
X06657D03*
X06627D03*
X06657Y03D03*
X06627Y0288D03*
Y0291D03*
Y0294D03*
Y0297D03*
Y03D03*
X06657Y0297D03*
Y0294D03*
Y0291D03*
Y0288D03*
X06687D03*
Y0291D03*
Y0294D03*
Y0297D03*
Y03D03*
X06957D03*
Y0297D03*
Y0294D03*
Y0291D03*
Y0288D03*
X06927D03*
Y0291D03*
Y0294D03*
Y0297D03*
Y03D03*
X06897D03*
Y0297D03*
Y0294D03*
Y0291D03*
Y0288D03*
X06867D03*
Y0291D03*
Y0294D03*
Y0297D03*
Y03D03*
X06837D03*
Y0297D03*
Y0294D03*
Y0291D03*
Y0288D03*
X06807D03*
Y0291D03*
Y0294D03*
Y0297D03*
Y03D03*
X06777D03*
Y0297D03*
Y0294D03*
Y0291D03*
Y0288D03*
X06747D03*
Y0291D03*
Y0294D03*
Y0297D03*
Y03D03*
X06717D03*
Y0297D03*
Y0294D03*
Y0291D03*
Y0288D03*
X06725Y01835D03*
Y01865D03*
Y01895D03*
Y01925D03*
Y01955D03*
X06755D03*
Y01925D03*
Y01895D03*
Y01865D03*
Y01835D03*
X06785D03*
Y01865D03*
Y01895D03*
Y01925D03*
Y01955D03*
X06815D03*
Y01925D03*
Y01895D03*
Y01865D03*
Y01835D03*
X06845D03*
Y01865D03*
Y01895D03*
Y01925D03*
Y01955D03*
X06875D03*
Y01925D03*
Y01895D03*
Y01865D03*
Y01835D03*
X06905D03*
Y01865D03*
Y01895D03*
Y01925D03*
Y01955D03*
X06935D03*
Y01925D03*
Y01895D03*
Y01865D03*
Y01835D03*
X06965D03*
Y01865D03*
Y01895D03*
Y01925D03*
Y01955D03*
X06695D03*
Y01925D03*
Y01895D03*
Y01865D03*
Y01835D03*
X06665D03*
Y01865D03*
Y01895D03*
Y01925D03*
X06635Y01955D03*
Y01925D03*
Y01895D03*
Y01865D03*
Y01835D03*
X06665Y01955D03*
X06635Y01985D03*
X06665D03*
X06695D03*
X06725D03*
X06755D03*
X06785D03*
X06815D03*
X06845D03*
X06875D03*
X06905D03*
X06935D03*
X06965D03*
X06635Y02015D03*
X06665D03*
X06695D03*
X06725D03*
X06755D03*
X06785D03*
X06815D03*
X06845D03*
X06875D03*
X06905D03*
X06935D03*
X06965D03*
X06665Y02045D03*
X06695D03*
X06725D03*
X06755D03*
X06785D03*
X06815D03*
X06845D03*
X06875D03*
X06905D03*
X06935D03*
X06965Y01805D03*
X06935D03*
X06905D03*
X06875D03*
X06845D03*
X06815D03*
X06785D03*
X06755D03*
X06725D03*
X06695D03*
X06665D03*
X06635D03*
Y01775D03*
X06665D03*
X06695D03*
X06725D03*
X06755D03*
X06785D03*
X06815D03*
X06845D03*
X06875D03*
X06905D03*
X06935D03*
X06965D03*
X06935Y01745D03*
X06905D03*
X06875D03*
X06845D03*
X06815D03*
X06785D03*
X06755D03*
X06725D03*
X06695D03*
X06665D03*
X04275Y0272D03*
X04075Y02315D03*
X04885Y0301D03*
X0472Y02955D03*
X0425Y0298D03*
X04195Y0293D03*
X04615Y02035D03*
X048Y0191D03*
X04435Y01795D03*
X04445Y01875D03*
X0419Y0188D03*
X042Y0204D03*
X04195Y0196D03*
X0444Y0204D03*
Y0196D03*
X0469Y03215D03*
X04665Y02935D03*
X04685Y03035D03*
X0416Y0248D03*
X0412Y02465D03*
X0409Y0243D03*
X0408Y024D03*
X0383Y0253D03*
X0348Y0265D03*
X0349Y02685D03*
X03855Y0256D03*
X03735Y0263D03*
X0377Y02625D03*
X0388Y02505D03*
X0357Y0276D03*
X03615D03*
X03425Y02625D03*
X0376Y02155D03*
X04925Y0279D03*
X0485Y02845D03*
X0492Y0283D03*
X04924Y02725D03*
X0495Y027D03*
X04882Y02782D03*
X04855Y0298D03*
X05772Y04025D03*
X05747Y04D03*
X04925Y0257D03*
Y02615D03*
X04795Y0266D03*
X04725Y02605D03*
X0573Y02435D03*
X05694D03*
X04555Y0274D03*
X06595Y0338D03*
X065Y0316D03*
X06495Y04055D03*
X05765Y03765D03*
Y03505D03*
Y02855D03*
X05775Y0261D03*
X0573Y0181D03*
X0575Y01545D03*
X0649Y02115D03*
X04705Y0253D03*
X02985Y0204D03*
X02935D03*
X0317Y0229D03*
X03015Y0248D03*
X0302Y02385D03*
Y0229D03*
X02985Y0257D03*
X04025Y0267D03*
X0352Y02205D03*
X03175Y0257D03*
X03485Y0229D03*
X0315Y0248D03*
X0317Y02385D03*
X0419Y01795D03*
X03825Y023D03*
X0404Y0259D03*
X04055Y03255D03*
X0419Y03195D03*
X04225Y0313D03*
X04185Y03115D03*
X0423Y0256D03*
X04365Y0274D03*
X0375Y0287D03*
X04165Y0303D03*
G54D103*
X04635Y02598D03*
X04576D03*
X05994Y03307D03*
X05964Y03248D03*
X05935Y03307D03*
X05905Y03248D03*
X05875Y03307D03*
X05846Y03248D03*
X05875Y03188D03*
X05816Y03307D03*
X05787Y03248D03*
X05816Y03188D03*
X05757Y03307D03*
X05728Y03248D03*
X05757Y03188D03*
X05698Y03307D03*
X04842Y0372D03*
X04872Y03425D03*
Y03307D03*
X04783Y03838D03*
X04753Y03897D03*
X04724Y03838D03*
X04753Y03779D03*
X04665Y03956D03*
X04694Y03897D03*
X04665Y03838D03*
X04606Y03956D03*
X04635Y03897D03*
X04606Y03838D03*
X04547Y03956D03*
X04576Y03897D03*
X04547Y03838D03*
X04576Y02125D03*
X05964Y03307D03*
X05994Y03248D03*
X05905Y03307D03*
X05935Y03248D03*
X05905Y03188D03*
X05846Y03307D03*
X05875Y03248D03*
X05846Y03188D03*
X05787Y03307D03*
X05816Y03248D03*
X05787Y03188D03*
X05728Y03307D03*
X05757Y03248D03*
X05698D03*
X04872Y0372D03*
Y03366D03*
X04812Y0372D03*
X04429Y02716D03*
Y02598D03*
Y02244D03*
X04399Y02657D03*
X0437Y0248D03*
X04399Y02421D03*
X0437Y02362D03*
Y02244D03*
X04311Y0248D03*
X0621Y0234D03*
X06176Y02362D03*
X04595Y026D03*
Y0254D03*
Y0248D03*
Y0242D03*
Y02365D03*
Y02305D03*
Y02245D03*
X057Y03185D03*
X06289Y04311D03*
X0623D03*
Y04192D03*
X06171Y04311D03*
X06112D03*
X06053D03*
X06023Y04251D03*
Y04133D03*
X05994Y04311D03*
X05964Y04251D03*
X05994Y04192D03*
X05964Y04133D03*
X05935Y04311D03*
Y04192D03*
X06225Y0221D03*
Y0225D03*
X0622Y02295D03*
X06117Y02362D03*
X06058D03*
X06028Y02303D03*
X05999Y02362D03*
X05969Y02303D03*
X05999Y02244D03*
X0594Y02362D03*
X0591Y02303D03*
X0594Y02244D03*
X0588Y02362D03*
Y02244D03*
G54D104*
X0542Y01895D03*
X05475D03*
X054Y0379D03*
X0546D03*
X0552D03*
X05515Y03605D03*
X05455D03*
X054D03*
X05545Y0303D03*
X0549D03*
X05435D03*
X0555Y0284D03*
X05495D03*
X0544D03*
X0537Y01735D03*
X0542D03*
X05475D03*
X0537Y01895D03*
M02*