M48
;Layer_Color=9474304
;FILE_FORMAT=4:4
METRIC,LZ
;TYPE=PLATED
T01F00S00C0.3000
T02F00S00C0.4000
T03F00S00C0.5000
T04F00S00C0.5000
T05F00S00C0.9000
T06F00S00C5.0000
;TYPE=NON_PLATED
T07F00S00C1.1000
%
T01
X014605Y0039243
X0168529Y0045085
Y0045847
Y0046609
X0169291
X0170053
X0170815
Y0047371
Y0048133
Y0048895
Y0049657
X0171577
Y0048895
Y0048133
Y0047371
Y0046609
X0172339
Y0047371
Y0048133
Y0048895
Y0049657
X0173101
Y0048895
Y0048133
Y0047371
Y0046609
X0173863
Y0047371
Y0048133
Y0048895
Y0049657
X0174625
Y0048895
Y0048133
Y0047371
Y0046609
X0175387
Y0047371
Y0048133
Y0048895
Y0049657
X0176149
Y0048895
Y0048133
Y0047371
Y0046609
X0176911
Y0047371
Y0048133
Y0048895
Y0049657
Y0050419
X0176149
X0175387
X0174625
X0173863
X0173101
X0172339
X0171577
X0170815
X0170053
Y0049657
Y0048895
Y0048133
Y0047371
X0169291
Y0048133
Y0048895
X0168529
Y0049657
X0169291
Y0050419
X0168529
Y0051181
X0169291
X0170053
X0170815
X0171577
X0172339
X0173101
X0173863
X0174625
X0175387
X0176149
X0176911
X0176149Y0051943
X0175387
X0174625
X0173863
X0173101
X0172339
X0171577
X0170815
X0170053
X0169291
X0168529Y0048133
Y0047371
X0169291Y0045847
X0170053
X0170815
X0171577
X0172339
X0173101
X0173863
X0174625
X0175387
X0176149
X0176911
Y0045085
X0176149
X0175387
X0174625
X0173863
X0173101
X0172339
X0171577
X0170815
X0170053
X0169291
Y0044323
X0170053
X0170815
X0171577
X0172339
X0173101
X0173863
X0174625
X0175387
X0176149
X0164846Y0053721
X01691005Y0070866
X01698625
X01706245
X01713865
X01721485
X01729105
X01736725
X01744345
X01751965
X01759585
Y0071628
X01767205
Y007239
X01759585
X01751965
Y0071628
X01744345
X01736725
X01729105
X01721485
X01713865
X01706245
X01698625
X01691005
X01683385
Y007239
X01691005
X01698625
X01706245
X01713865
X01721485
X01729105
X01736725
X01744345
Y0073152
X01751965
X01759585
X01767205
Y0073914
Y0074676
Y0075438
Y00762
Y0076962
Y0077724
X01759585
Y0078486
X01751965
X01744345
X01736725
X01729105
X01721485
X01713865
X01706245
X01698625
X01691005
Y0077724
X01698625
X01706245
X01713865
X01721485
X01729105
X01736725
X01744345
X01751965
Y0076962
X01759585
Y00762
Y0075438
Y0074676
Y0073914
X01751965
Y0074676
Y0075438
Y00762
X01744345
Y0076962
X01736725
X01729105
X01721485
X01713865
X01706245
X01698625
X01691005
X01683385
Y0077724
Y00762
X01691005
Y0075438
X01683385
Y0074676
Y0073914
Y0073152
X01691005
Y0073914
Y0074676
X01698625
Y0073914
Y0073152
X01706245
X01713865
X01721485
X01729105
X01736725
Y0073914
X01744345
Y0074676
Y0075438
X01736725
Y00762
X01729105
Y0075438
Y0074676
X01736725
X01729105Y0073914
X01721485
Y0074676
Y0075438
Y00762
X01713865
Y0075438
Y0074676
Y0073914
X01706245
Y0074676
Y0075438
X01698625
Y00762
X01706245
X0146431Y0072517
X014097Y0072136
X0139573
X0138176
X0138049Y0076962
X0139446
X0140843
X01278863Y00745758
Y00731788
X0124968Y0071882
X0125095Y0070866
X01240224Y00706824
X012319Y0072263
X0120015Y0072009
X0119126Y0072037
X0119761Y0075099
X0123317Y0075692
X0124079Y0076454
X0126238Y0068707
X0125684Y00679487
X01280133Y00678448
X0128016Y0068707
X01280133Y00637808
Y00622568
Y00576848
Y00560338
Y00545098
X0121285Y0057023
Y0058039
Y0059055
Y0060198
Y0061214
X0119507Y0064262
X0120015Y0066167
X0121793Y0067564
X01249666Y00651524
X0125603Y0064516
X012192Y0048514
X0136398Y0048133
X0137668
X0139065
Y0044069
X0137668
X0136398
X0145542Y0045974
X0145426Y0062484
X0144526
X0146685Y0066294
X0118999Y0068961
X0118491Y0069977
X0115697Y0069596
X0110871
X0108585Y0069088
X0107442Y0065024
X0105664Y0062992
X0104648Y0062611
X0103886Y0061722
X0103632Y006096
X0103505Y0058801
X0097155Y005842
Y0055499
X0095504Y0054737
X0096774Y0052324
X0090932Y0054991
X0089408Y0056007
X0088519Y0058166
X0087249Y005842
Y0062357
X0087376Y0064389
X0086995Y0066675
X0088392Y006731
X0088646Y0068199
X00873733Y00691148
X0090678Y0070104
X0091821
X0092075Y0074422
X009017Y0073406
X00866113Y00750838
X00854683Y00772428
X0090424Y0078613
X0099695Y0077978
X0101727Y0077089
X0105791Y0076962
X0107696Y0076835
X010795Y0075692
Y0078232
X0106299Y0079121
X0106553Y0074422
Y0073537
X0102235Y0067818
X0102616Y0065786
X0097917Y0065024
X0097282Y0064262
X0098552Y0063627
X0097028Y0061722
X009525
X0095631Y006472
X0095758Y00666757
X0094869Y0066802
X009652Y0069908
X0098044Y006985
X0098552Y0071037
X00975521Y0072037
X009525Y0072898
X0099568Y0069342
X00919754Y00627799
X0091186Y0060198
X0085217Y0060833
X0080391Y0060579
Y0058039
X008001Y0062992
X0080645Y0065278
X00836916
X0083312Y0068453
X0079502Y0076327
X0084923Y00556649
X0091821Y0045847
X0106426Y0045593
Y0047752
X0106553Y0049784
X010668Y0051816
X0112776
Y0049784
X0112903Y0047625
X0112649Y0045593
X0113157Y0043942
X0110236Y0041402
X0116078Y0048895
X0117221Y0051689
X0118745Y00745394
X0118999Y0077089
X0078994Y0071628
X0075819Y0065278
X0076581Y0062992
X0076708Y0060579
Y0058166
X007366Y0056642
X0074549Y0051816
X0075819
X0072136Y0065278
X0089408Y0082169
X0090805
X0094107Y0085725
X0098679Y0081915
X0102997Y0082677
X0106426Y0081153
X0107315Y0079502
X0104267Y0106934
X0103505
X0102743
Y0107696
Y0108458
Y010922
Y0109982
Y0110744
Y0111506
Y0112268
Y011303
X0101981
X0101219
X0100457
X0099695
Y0112268
X0100457
X0101219
X0101981
Y0111506
X0101219
X0100457
X0099695
Y0110744
X0100457
X0101219
X0101981
Y0109982
X0101219
X0100457
X0099695
Y010922
X0100457
X0101219
X0101981
Y0108458
X0101219
X0100457
X0099695
Y0107696
X0100457
X0101219
X0101981
Y0106934
X0101219
X0100457
X0099695
X0098933
Y0107696
Y0108458
Y010922
Y0109982
Y0110744
Y0111506
Y0112268
Y011303
Y0113792
X0099695
X0100457
X0101219
X0101981
X0102743
Y0114554
X0101981
X0101219
X0100457
X0099695
Y0115316
X0100457
X0101219
X0101981
X0102743
X0103505
Y0114554
Y0113792
Y011303
Y0112268
Y0111506
Y0110744
Y0109982
Y010922
Y0108458
Y0107696
X0104267
Y0108458
Y010922
Y0109982
Y0110744
Y0111506
Y0112268
Y011303
Y0113792
Y0114554
Y0115316
X0105029Y0114554
Y0113792
Y011303
Y0112268
Y0111506
Y0110744
Y0109982
Y010922
Y0108458
Y0107696
X0098171
Y0108458
Y010922
Y0109982
Y0110744
Y0111506
Y0112268
Y011303
Y0113792
Y0114554
X0098933
Y0115316
X0098171
X0097409Y0114554
Y0113792
Y011303
Y0112268
Y0111506
Y0110744
Y0109982
Y010922
Y0108458
Y0107696
X0098171Y0106934
X0113411Y0107823
Y0108585
Y0109347
Y0110109
Y0110871
Y0111633
Y0112395
Y0113157
Y0113919
Y0114681
X0114173
Y0113919
Y0113157
Y0112395
Y0111633
Y0110871
Y0110109
Y0109347
Y0108585
Y0107823
Y0107061
X0114935
Y0107823
Y0108585
Y0109347
Y0110109
Y0110871
Y0111633
Y0112395
Y0113157
Y0113919
Y0114681
Y0115443
X0114173
X0115697
X0116459
X0117221
X0117983
X0118745
Y0114681
X0117983
X0117221
X0116459
X0115697
Y0113919
X0116459
X0117221
X0117983
X0118745
Y0113157
Y0112395
Y0111633
Y0110871
Y0110109
Y0109347
Y0108585
Y0107823
Y0107061
X0117983
X0117221
X0116459
X0115697
Y0107823
X0116459
X0117221
X0117983
Y0108585
X0117221
X0116459
X0115697
Y0109347
X0116459
X0117221
X0117983
Y0110109
X0117221
X0116459
X0115697
Y0110871
X0116459
X0117221
X0117983
Y0111633
X0117221
X0116459
X0115697
Y0112395
X0116459
X0117221
X0117983
Y0113157
X0117221
X0116459
X0115697
X0119507
X0120269
X0121031
Y0112395
Y0111633
Y0110871
Y0110109
Y0109347
Y0108585
Y0107823
X0120269
Y0107061
X0119507
Y0107823
Y0108585
X0120269
Y0109347
Y0110109
Y0110871
Y0111633
Y0112395
X0119507
Y0111633
Y0110871
Y0110109
Y0109347
Y0113919
X0120269
X0121031
Y0114681
X0120269
Y0115443
X0119507
Y0114681
X0119126Y0081661
X01277593Y00828308
Y00841008
Y00870218
Y00882918
X013716Y0091567
X0138557
X0140081
X0140208Y0096266
X0138684
X013716
X0146431Y0095631
X0145981Y0101427
X01466174Y01022364
X0146431Y0089027
X0167513Y0085852
X01651Y0080264
X0168529Y0094742
Y0095504
Y0096266
X0169291
X0170053
X0170815
Y0097028
Y009779
Y0098552
Y0099314
X0171577
Y0098552
Y009779
Y0097028
Y0096266
X0172339
Y0097028
Y009779
Y0098552
Y0099314
X0173101
Y0098552
Y009779
Y0097028
Y0096266
X0173863
Y0097028
Y009779
Y0098552
Y0099314
X0174625
Y0098552
Y009779
Y0097028
Y0096266
X0175387
Y0097028
Y009779
Y0098552
Y0099314
X0176149
Y0098552
Y009779
Y0097028
Y0096266
X0176911
Y0097028
Y009779
Y0098552
Y0099314
Y0100076
X0176149
X0175387
X0174625
X0173863
X0173101
X0172339
X0171577
X0170815
X0170053
Y0099314
Y0098552
Y009779
Y0097028
X0169291
Y009779
Y0098552
X0168529
Y0099314
X0169291
Y0100076
X0168529
Y0100838
X0169291
X0170053
X0170815
X0171577
X0172339
X0173101
X0173863
X0174625
X0175387
X0176149
X0176911
X0176149Y01016
X0175387
X0174625
X0173863
X0173101
X0172339
X0171577
X0170815
X0170053
X0169291
X0168529Y009779
Y0097028
X0169291Y0095504
X0170053
X0170815
X0171577
X0172339
X0173101
X0173863
X0174625
X0175387
X0176149
X0176911
Y0094742
X0176149
X0175387
X0174625
X0173863
X0173101
X0172339
X0171577
X0170815
X0170053
X0169291
Y009398
X0170053
X0170815
X0171577
X0172339
X0173101
X0173863
X0174625
X0175387
X0176149
X0164973Y0102997
T02
X00702117Y00395826
X00752117
X00802117
X00852117
X00902117
X00952117
X01002117
X01052117
X01102117
Y00445826
X01052117
X01002117
Y00495826
X01052117Y00545826
Y00595826
Y00645826
X01102117
X00952117Y00745826
X00902117
X00852117Y00695826
X00802117Y00745826
Y00645826
Y00595826
Y00495826
X00852117
X00902117
Y00545826
Y00445826
X00952117
X00852117
X00802117
X00752117Y00545826
Y00595826
X00702117
Y00545826
Y00495826
X00652117
Y00545826
Y00645826
Y00695826
X00702117
Y00745826
X00752117
X00652117
X00702117Y00795826
X00752117
Y00845826
X00702117
Y00945826
X00652117
X00752117Y00995826
X00802117
X00852117
X00902117
X00952117
X01002117
X01052117
X01102117
X01152117
X0115Y01
X01102117Y00945826
X01052117
Y00895826
X01002117
X00952117
Y00945826
X00902117
Y00895826
Y00845826
X00952117Y00795826
X00802117
X00852117Y00895826
Y00945826
X00802117
X01225Y0095
X01202117Y00995826
X012Y01
X01452117Y00845826
X01475Y0085
X01502117Y00845826
X01525Y0085
X0145Y008
T03
X011625Y0054
X011775Y0099
X011475
X011925
X012075
X012225
X01215Y00975
X0123
X01245
X012
X012375Y0084
X015Y00825
X014925Y0081
X015225Y0084
T04
X0149377Y0057
X0150877
X0152377
X0151627Y00585
X0153127
X0153877Y006
X0155377
X0156877
X0157734Y0059436
X0157988Y0058293
X0158115Y005715
Y0056134
X0152377Y006
X0150877
X0149377
X0150127Y00585
X0116713Y0058547
Y0060071
Y0061468
Y0062992
Y0064516
Y006604
X011625Y0066
X011775
X01125
X011175Y00675
X01125Y0069
X01116386Y00715518
X01115695Y0072771
Y0074041
Y0075311
Y0076581
X011303
Y0075311
Y0074041
Y0072771
X01144905Y0074041
Y0075311
Y0076581
X0114427Y0077978
X01129665
X0111506
X0111Y0063
X01095
X011175Y00615
X0111Y006
Y0057
X01125
X0116713Y0057023
X0117Y00975
X01185
Y01005
X0117
X01155
X011625Y0099
X01155Y00975
X012075Y0096
X012225Y00945
X0123
X012375
Y0087
Y00855
X014475Y0084
X01455
X014625
X0147
X014775
X01485
X014925
X015
X015075
X01515
Y00825
X015225
X015075
X014925
X01485
X014775
X0147
X014625
X01455
X014475
X014478Y0080914
X014625Y0081
X0147
X014775
X01485
X015
X01515Y0105
X0153
X015225Y01065
X015075
X01515Y0108
X0153
X015375Y01095
X015525
X015675
X015825
Y01065
X015225Y01095
X015075
X015975
T05
X006477Y004068
Y004318
Y004568
Y004818
X0065913Y00582062
Y00607062
Y00632062
Y00657063
Y00682063
Y00707063
Y00762605
Y00787605
X0071628Y0074977
Y0072477
Y0069977
X0072644Y00805312
Y00830312
Y00855312
Y00880312
Y00905312
X0065913Y00912605
Y00887605
Y00862605
Y00837605
Y00812605
T06
X0172593Y0059182
X0121031Y0040259
X0077724Y0112522
X0172339Y0112395
T07
X0070644Y00921312
M30
