%FSTAX23Y23*%
%MOIN*%
%SFA1B1*%

%IPPOS*%
%AMD27*
4,1,8,0.022500,0.004200,-0.022500,0.004200,-0.026700,0.000000,-0.026700,0.000000,-0.022500,-0.004200,0.022500,-0.004200,0.026700,0.000000,0.026700,0.000000,0.022500,0.004200,0.0*
1,1,0.008360,0.022500,0.000000*
1,1,0.008360,-0.022500,0.000000*
1,1,0.008360,-0.022500,0.000000*
1,1,0.008360,0.022500,0.000000*
%
%AMD38*
4,1,8,-0.004200,0.019200,-0.004200,-0.019200,0.000000,-0.023400,0.000000,-0.023400,0.004200,-0.019200,0.004200,0.019200,0.000000,0.023400,0.000000,0.023400,-0.004200,0.019200,0.0*
1,1,0.008360,0.000000,0.019200*
1,1,0.008360,0.000000,-0.019200*
1,1,0.008360,0.000000,-0.019200*
1,1,0.008360,0.000000,0.019200*
%
%AMD39*
4,1,8,-0.023400,0.000000,-0.023400,0.000000,-0.019200,-0.004200,0.019200,-0.004200,0.023400,0.000000,0.023400,0.000000,0.019200,0.004200,-0.019200,0.004200,-0.023400,0.000000,0.0*
1,1,0.008360,-0.019200,0.000000*
1,1,0.008360,-0.019200,0.000000*
1,1,0.008360,0.019200,0.000000*
1,1,0.008360,0.019200,0.000000*
%
%AMD63*
4,1,8,0.008900,0.024600,-0.008900,0.024600,-0.010800,0.022700,-0.010800,-0.022700,-0.008900,-0.024600,0.008900,-0.024600,0.010800,-0.022700,0.010800,0.022700,0.008900,0.024600,0.0*
1,1,0.003900,0.008900,0.022700*
1,1,0.003900,-0.008900,0.022700*
1,1,0.003900,-0.008900,-0.022700*
1,1,0.003900,0.008900,-0.022700*
%
%ADD18R,0.094250X0.089100*%
%ADD19R,0.094250X0.089100*%
%ADD20R,0.062990X0.224410*%
%ADD21R,0.088580X0.084650*%
%ADD22R,0.039370X0.051180*%
%ADD23R,0.425200X0.370080*%
%ADD24R,0.031500X0.181100*%
%ADD25R,0.047240X0.070870*%
%ADD26R,0.029530X0.033470*%
G04~CAMADD=27~8~0.0~0.0~533.6~83.7~41.8~0.0~15~0.0~0.0~0.0~0.0~0~0.0~0.0~0.0~0.0~0~0.0~0.0~0.0~0.0~533.6~83.7*
%ADD27D27*%
%ADD28R,0.053360X0.008370*%
%ADD29R,0.051180X0.064960*%
%ADD30R,0.074800X0.070870*%
%ADD31R,0.074800X0.039370*%
%ADD32R,0.061020X0.056100*%
%ADD33R,0.054330X0.017720*%
%ADD34R,0.025590X0.027560*%
%ADD35R,0.043310X0.080710*%
%ADD36R,0.035430X0.031500*%
%ADD37R,0.008370X0.046780*%
G04~CAMADD=38~8~0.0~0.0~467.8~83.7~41.8~0.0~15~0.0~0.0~0.0~0.0~0~0.0~0.0~0.0~0.0~0~0.0~0.0~0.0~90.0~84.0~467.0*
%ADD38D38*%
G04~CAMADD=39~8~0.0~0.0~83.7~467.8~41.8~0.0~15~0.0~0.0~0.0~0.0~0~0.0~0.0~0.0~0.0~0~0.0~0.0~0.0~90.0~468.0~84.0*
%ADD39D39*%
%ADD40R,0.031500X0.031500*%
%ADD41R,0.037650X0.047490*%
%ADD42R,0.041340X0.037400*%
%ADD43R,0.037400X0.041340*%
%ADD44R,0.027560X0.025590*%
%ADD45R,0.035680X0.033660*%
%ADD46R,0.031500X0.023620*%
%ADD47R,0.033940X0.025870*%
%ADD48R,0.025870X0.033940*%
%ADD49R,0.031500X0.035430*%
%ADD50R,0.029530X0.035430*%
%ADD51R,0.031500X0.037400*%
%ADD52R,0.047490X0.037650*%
%ADD53R,0.053150X0.037400*%
%ADD54R,0.033660X0.035680*%
%ADD55R,0.036810X0.037880*%
%ADD56R,0.035430X0.039370*%
%ADD57R,0.181100X0.031500*%
%ADD58R,0.370080X0.425200*%
%ADD59R,0.080710X0.043310*%
%ADD60R,0.039370X0.086610*%
%ADD61R,0.129920X0.086610*%
%ADD62R,0.125980X0.067720*%
G04~CAMADD=63~8~0.0~0.0~216.5~492.1~19.5~0.0~15~0.0~0.0~0.0~0.0~0~0.0~0.0~0.0~0.0~0~0.0~0.0~0.0~0.0~216.5~492.1*
%ADD63D63*%
%LNpcb_paste_top-1*%
%LPD*%
G54D18*
X04465Y02848D03*
G54D19*
X04465Y02961D03*
G54D20*
X04322Y0334D03*
X04507D03*
G54D21*
X04493Y03615D03*
X0432D03*
G54D22*
X04755Y0183D03*
X04834D03*
G54D23*
X06225Y03835D03*
X0622Y0189D03*
X06225Y0292D03*
G54D24*
X06175Y04195D03*
X06125D03*
X06075D03*
X06275D03*
X06325D03*
X06375D03*
X0617Y0225D03*
X0612D03*
X0607D03*
X0627D03*
X0632D03*
X0637D03*
X06175Y0328D03*
X06125D03*
X06075D03*
X06275D03*
X06325D03*
X06375D03*
G54D25*
X03742Y01901D03*
Y02058D03*
X03647D03*
Y01901D03*
G54D26*
X0414Y03255D03*
X04089D03*
G54D27*
X04607Y0317D03*
Y03151D03*
Y03131D03*
Y03111D03*
Y03092D03*
Y03072D03*
Y03052D03*
Y03032D03*
Y03013D03*
Y02993D03*
Y02973D03*
Y02954D03*
Y02934D03*
Y02914D03*
Y02895D03*
Y02875D03*
Y02855D03*
Y02836D03*
Y02816D03*
Y02796D03*
Y02777D03*
Y02757D03*
Y02737D03*
Y02717D03*
Y02698D03*
Y02678D03*
Y02658D03*
Y02639D03*
X04322D03*
Y02658D03*
Y02678D03*
Y02698D03*
Y02717D03*
Y02737D03*
Y02757D03*
Y02777D03*
Y02796D03*
Y02816D03*
Y02836D03*
Y02855D03*
Y02875D03*
Y02895D03*
Y02914D03*
Y02934D03*
Y02954D03*
Y02973D03*
Y02993D03*
Y03013D03*
Y03032D03*
Y03052D03*
Y03072D03*
Y03092D03*
Y03111D03*
Y03131D03*
Y03151D03*
G54D28*
X04322Y0317D03*
G54D29*
X02459Y04072D03*
Y03806D03*
G54D30*
X02459Y03985D03*
G54D31*
X02459Y03878D03*
G54D32*
X0256Y04037D03*
Y03841D03*
G54D33*
X02564Y0399D03*
Y03965D03*
Y03939D03*
Y03914D03*
Y03888D03*
G54D34*
X04111Y02913D03*
X04058D03*
X04111Y0299D03*
X04058D03*
G54D35*
X0468Y0334D03*
X04809D03*
X04629Y02352D03*
X04758D03*
X04425Y02485D03*
X04555D03*
X0443Y02352D03*
X04559D03*
G54D36*
X04293Y0204D03*
X04226D03*
X04293Y01877D03*
X04226D03*
X04293Y01958D03*
X04226D03*
X03326Y0292D03*
X03393D03*
X03331Y03D03*
X03398D03*
X03331Y03085D03*
X03398D03*
X04293Y01796D03*
X04226D03*
X04873Y02566D03*
X04806D03*
X04873Y02505D03*
X04806D03*
X03253Y0271D03*
X03186D03*
G54D37*
X03602Y02254D03*
G54D38*
X03622Y02254D03*
X03641D03*
X03661D03*
X03681D03*
X037D03*
X0372D03*
X0374D03*
X03759D03*
X03779D03*
X03799D03*
X03818D03*
X03838D03*
X03858D03*
X03877D03*
X03897D03*
Y02695D03*
X03877D03*
X03858D03*
X03838D03*
X03818D03*
X03799D03*
X03779D03*
X03759D03*
X0374D03*
X0372D03*
X037D03*
X03681D03*
X03661D03*
X03641D03*
X03622D03*
X03602D03*
G54D39*
X0397Y02327D03*
Y02347D03*
Y02366D03*
Y02386D03*
Y02406D03*
Y02425D03*
Y02445D03*
Y02465D03*
Y02484D03*
Y02504D03*
Y02524D03*
Y02543D03*
Y02563D03*
Y02583D03*
Y02602D03*
Y02622D03*
X03529D03*
Y02602D03*
Y02583D03*
Y02563D03*
Y02543D03*
Y02524D03*
Y02504D03*
Y02484D03*
Y02465D03*
Y02445D03*
Y02425D03*
Y02406D03*
Y02386D03*
Y02366D03*
Y02347D03*
Y02327D03*
G54D40*
X03261Y0292D03*
X03198D03*
X03205Y03002D03*
X03264D03*
X03205Y03085D03*
X03264D03*
G54D41*
X04259Y01695D03*
X0434D03*
X03245Y0281D03*
X03164D03*
G54D42*
X0355Y01996D03*
Y02053D03*
G54D43*
X03681Y01805D03*
X03738D03*
G54D44*
X04655Y02036D03*
Y01983D03*
G54D45*
X0457Y02034D03*
Y01985D03*
G54D46*
X0649Y02385D03*
Y02334D03*
X065Y03329D03*
Y0338D03*
Y04295D03*
Y04244D03*
G54D47*
X0649Y02187D03*
Y02242D03*
X065Y03217D03*
Y03272D03*
Y04112D03*
Y04167D03*
G54D48*
X05807Y01545D03*
X05862D03*
X05837Y0261D03*
X05892D03*
X05817Y03505D03*
X05872D03*
G54D49*
X04099Y03077D03*
X0405D03*
G54D50*
X04013Y0315D03*
X03966D03*
G54D51*
X04083Y0315D03*
X04136D03*
G54D52*
X04785Y0321D03*
Y03129D03*
G54D53*
X0479Y02781D03*
Y02722D03*
X04785Y0291D03*
Y0285D03*
Y03039D03*
Y0298D03*
G54D54*
X02954Y0257D03*
X02905D03*
X03075Y0229D03*
X03124D03*
X0307Y0248D03*
X03119D03*
X03075Y02385D03*
X03124D03*
G54D55*
X02676Y0389D03*
X02733D03*
X02676Y03985D03*
X02733D03*
G54D56*
X02934Y01715D03*
X02985D03*
G54D57*
X0579Y01661D03*
Y01711D03*
Y01761D03*
Y01961D03*
Y01911D03*
Y01861D03*
X05805Y03605D03*
Y03655D03*
Y03705D03*
Y03905D03*
Y03855D03*
Y03805D03*
X05825Y0271D03*
Y0276D03*
Y0281D03*
Y0301D03*
Y0296D03*
Y0291D03*
G54D58*
X05429Y01811D03*
X05445Y03755D03*
X05464Y0286D03*
G54D59*
X0413Y03584D03*
Y03455D03*
G54D60*
X03504Y03371D03*
X03595D03*
X03685D03*
G54D61*
X03595Y03608D03*
G54D62*
X039Y03711D03*
Y03458D03*
G54D63*
X02885Y01791D03*
X02935D03*
X02985D03*
X03035D03*
X02885Y01998D03*
X02935D03*
X02985D03*
X03035D03*
M02*