%FSTAX23Y23*%
%MOIN*%
%SFA1B1*%

%IPPOS*%
%ADD119C,0.003940*%
%LNpcb_top_component_center-1*%
%LPD*%
G54D119*
X04415Y0332D02*
Y03359D01*
X04395Y0334D02*
X04434D01*
X03695Y01957D02*
Y02002D01*
X03672Y0198D02*
X03717D01*
X04465Y02885D02*
Y02924D01*
X04445Y02905D02*
X04484D01*
X02473Y0392D02*
Y03959D01*
X02453Y03939D02*
X02492D01*
X04065Y02913D02*
X04104D01*
X04085Y02893D02*
Y02932D01*
X04065Y0299D02*
X04104D01*
X04085Y0297D02*
Y03009D01*
X04725Y0334D02*
X04764D01*
X04745Y0332D02*
Y03359D01*
X04674Y02352D02*
X04713D01*
X04693Y02333D02*
Y02372D01*
X0447Y02485D02*
X04509D01*
X0449Y02465D02*
Y02504D01*
X04475Y02352D02*
X04514D01*
X04495Y02333D02*
Y02372D01*
X0424Y0204D02*
X04279D01*
X0426Y0202D02*
Y02059D01*
X0424Y01877D02*
X04279D01*
X0426Y01857D02*
Y01897D01*
X0424Y01958D02*
X04279D01*
X0426Y01939D02*
Y01978D01*
X0375Y02455D02*
Y02494D01*
X0373Y02475D02*
X03769D01*
X0334Y0292D02*
X03379D01*
X0336Y029D02*
Y02939D01*
X03215Y03002D02*
X03254D01*
X03235Y02982D02*
Y03021D01*
X03345Y03D02*
X03384D01*
X03365Y0298D02*
Y03019D01*
X03215Y03085D02*
X03254D01*
X03235Y03065D02*
Y03104D01*
X03345Y03085D02*
X03384D01*
X03365Y03065D02*
Y03104D01*
X0424Y01796D02*
X04279D01*
X0426Y01776D02*
Y01815D01*
X0428Y01695D02*
X04319D01*
X043Y01675D02*
Y01714D01*
X04655Y0199D02*
Y02029D01*
X04635Y0201D02*
X04674D01*
X0457Y0199D02*
Y02029D01*
X0455Y0201D02*
X04589D01*
X0649Y02195D02*
Y02234D01*
X0647Y02215D02*
X06509D01*
X065Y03225D02*
Y03264D01*
X0648Y03245D02*
X06519D01*
X065Y0412D02*
Y04159D01*
X0648Y0414D02*
X06519D01*
X05815Y01545D02*
X05854D01*
X05835Y01525D02*
Y01564D01*
X05845Y0261D02*
X05884D01*
X05865Y0259D02*
Y02629D01*
X0482Y02566D02*
X04859D01*
X0484Y02546D02*
Y02585D01*
X0482Y02505D02*
X04859D01*
X0484Y02485D02*
Y02524D01*
X0397Y0315D02*
X04009D01*
X0399Y0313D02*
Y03169D01*
X04785Y0315D02*
Y03189D01*
X04765Y0317D02*
X04804D01*
X0479Y02732D02*
Y02772D01*
X0477Y02752D02*
X04809D01*
X04785Y0286D02*
Y029D01*
X04765Y0288D02*
X04804D01*
X04785Y02989D02*
Y03029D01*
X04765Y03009D02*
X04804D01*
X0291Y0257D02*
X02949D01*
X0293Y0255D02*
Y02589D01*
X0308Y0229D02*
X03119D01*
X031Y0227D02*
Y02309D01*
X03075Y0248D02*
X03114D01*
X03095Y0246D02*
Y02499D01*
X0308Y02385D02*
X03119D01*
X031Y02365D02*
Y02404D01*
X02574Y02517D02*
Y02557D01*
X02554Y02537D02*
X02594D01*
X02574Y03277D02*
Y03317D01*
X02554Y03297D02*
X02594D01*
X02839Y03347D02*
Y03387D01*
X02819Y03367D02*
X02859D01*
X03185Y0281D02*
X03224D01*
X03205Y0279D02*
Y02829D01*
X032Y0271D02*
X03239D01*
X0322Y0269D02*
Y02729D01*
X0284Y02833D02*
Y02873D01*
X0282Y02853D02*
X0286D01*
X0257Y01729D02*
Y01768D01*
X0255Y01749D02*
X0259D01*
X05825Y03505D02*
X05864D01*
X05845Y03485D02*
Y03524D01*
X02685Y0389D02*
X02724D01*
X02705Y0387D02*
Y03909D01*
X02685Y03985D02*
X02724D01*
X02705Y03965D02*
Y04004D01*
X0411Y0352D02*
X04149D01*
X0413Y035D02*
Y03539D01*
X0388Y03585D02*
X03919D01*
X039Y03565D02*
Y03604D01*
M02*