%FSTAX23Y23*%
%MOIN*%
%SFA1B1*%

%IPPOS*%
%AMD100*
4,1,8,0.098400,0.196800,-0.098400,0.196800,-0.196800,0.098400,-0.196800,-0.098400,-0.098400,-0.196800,0.098400,-0.196800,0.196800,-0.098400,0.196800,0.098400,0.098400,0.196800,0.0*
1,1,0.196860,0.098400,0.098400*
1,1,0.196860,-0.098400,0.098400*
1,1,0.196860,-0.098400,-0.098400*
1,1,0.196860,0.098400,-0.098400*
%
%AMD101*
4,1,8,-0.196800,0.098400,-0.196800,-0.098400,-0.098400,-0.196800,0.098400,-0.196800,0.196800,-0.098400,0.196800,0.098400,0.098400,0.196800,-0.098400,0.196800,-0.196800,0.098400,0.0*
1,1,0.196860,-0.098400,0.098400*
1,1,0.196860,-0.098400,-0.098400*
1,1,0.196860,0.098400,-0.098400*
1,1,0.196860,0.098400,0.098400*
%
%ADD91R,0.055120X0.055120*%
%ADD92C,0.055120*%
%ADD93C,0.043310*%
%ADD98C,0.011810*%
%ADD99C,0.196850*%
G04~CAMADD=100~8~0.0~0.0~3937.0~3937.0~984.3~0.0~15~0.0~0.0~0.0~0.0~0~0.0~0.0~0.0~0.0~0~0.0~0.0~0.0~0.0~3937.0~3937.0*
%ADD100D100*%
G04~CAMADD=101~8~0.0~0.0~3937.0~3937.0~984.3~0.0~15~0.0~0.0~0.0~0.0~0~0.0~0.0~0.0~0.0~0~0.0~0.0~0.0~90.0~3936.0~3936.0*
%ADD101D101*%
%ADD102C,0.019680*%
%ADD103C,0.023620*%
%ADD104C,0.031500*%
%LNpcb_copper_signal_1-1*%
%LPD*%
G36*
X05702Y0317D02*
X05701Y03169D01*
X05699Y03169*
X05698Y03168*
X05697Y03168*
X05695Y03167*
X05694Y03167*
X05693Y03166*
X05692Y03165*
X05691Y03164*
X0569Y03163*
X0568Y0317*
X05681Y03171*
X05682Y03172*
X05682Y03173*
X05683Y03174*
X05684Y03176*
X05684Y03177*
X05684Y03178*
X05684Y0318*
X05684Y03181*
X05684Y03182*
X05702Y0317*
G37*
G36*
X04898Y03015D02*
X04898Y03014D01*
X04895Y03012*
X04895Y03011*
X04895Y03011*
X04895Y0301*
X04894Y0301*
X04894Y0301*
X04885Y03019*
X04885Y03019*
X04885Y0302*
X04886Y0302*
X04886Y0302*
X04887Y0302*
X04888Y03021*
X04889Y03023*
X0489Y03023*
X04898Y03015*
G37*
G36*
X0486Y02992D02*
X04861Y02989D01*
X04861Y02988*
X04861Y02988*
X04861Y02987*
X04861Y02987*
X04861Y02987*
X04848*
X04848Y02987*
X04848Y02987*
X04848Y02988*
X04848Y02988*
X04848Y02989*
X04849Y0299*
X04849Y02992*
X04849Y02993*
X0486*
X0486Y02992*
G37*
G36*
X04857Y02851D02*
X04857Y02851D01*
X04858Y02851*
X04858Y02851*
X04859Y02851*
X0486Y0285*
X04862Y0285*
X04863Y0285*
Y02839*
X04862Y02839*
X04859Y02838*
X04858Y02838*
X04858Y02838*
X04857Y02838*
X04857Y02838*
X04857Y02838*
Y02851*
X04857Y02851*
G37*
G36*
X04927Y02836D02*
X04927Y02836D01*
X04928Y02836*
X04928Y02836*
X04929Y02836*
X0493Y02835*
X04932Y02835*
X04933Y02835*
Y02824*
X04932Y02824*
X04929Y02823*
X04928Y02823*
X04928Y02823*
X04927Y02823*
X04927Y02823*
X04927Y02823*
Y02836*
X04927Y02836*
G37*
G36*
X04568Y02745D02*
X04568Y02744D01*
X04565Y02742*
X04565Y02741*
X04565Y02741*
X04565Y0274*
X04564Y0274*
X04564Y0274*
X04555Y02749*
X04555Y02749*
X04555Y0275*
X04556Y0275*
X04556Y0275*
X04557Y0275*
X04558Y02751*
X04559Y02753*
X0456Y02753*
X04568Y02745*
G37*
G36*
X04979Y02704D02*
X04979Y02703D01*
X0498Y02703*
X0498Y02702*
X0498Y02702*
X04981Y02701*
X04982Y027*
X04983Y02698*
X04974Y02691*
X04974Y02691*
X0497Y02694*
X0497Y02694*
X0497Y02694*
X04969Y02695*
X04969Y02695*
X04979Y02704*
X04979Y02704*
G37*
G36*
X04958Y02675D02*
X04958Y02675D01*
X04958Y02674*
X04958Y02674*
X04959Y02673*
X0496Y02672*
X04962Y0267*
X04954Y02661*
X04953Y02662*
X0495Y02664*
X0495Y02664*
X04949Y02665*
X04949Y02665*
X04949Y02665*
X04948Y02665*
X04958Y02675*
X04958Y02675*
G37*
G36*
X05695Y02472D02*
X05696Y02469D01*
X05696Y02468*
X05696Y02468*
X05696Y02467*
X05696Y02467*
X05696Y02467*
X05683*
X05683Y02467*
X05683Y02467*
X05683Y02468*
X05683Y02468*
X05683Y02469*
X05684Y0247*
X05684Y02472*
X05684Y02473*
X05695*
X05695Y02472*
G37*
G36*
X0493Y03865D02*
Y03617D01*
X04906Y03593*
X04903Y03589*
X04902Y03585*
Y03219*
X04666Y02983*
X04663Y02979*
X04662Y02975*
Y02957*
X0456Y02855*
Y02762*
X04559Y02761*
X04559Y02761*
X04557Y02761*
X04557Y02761*
X04557*
X04556Y0276*
X04554Y02759*
X04554Y02758*
X04553Y02757*
X04552Y02757*
X04552Y02757*
X04551Y02756*
X04551Y02756*
X0455Y02756*
X04549Y02755*
X04549Y02755*
X04548Y02754*
X04548Y02754*
X04546Y02753*
X04541Y02748*
X04539Y02743*
Y02736*
X04541Y02731*
X04546Y02726*
X04551Y02724*
X04558*
X0456Y02723*
Y02645*
X04445Y0253*
Y022*
X0454*
X047Y0204*
Y0191*
X0454Y01455*
X024Y01465*
Y01565*
Y04115*
X04459*
X0493Y03865*
G37*
G36*
X05859Y02231D02*
X0586Y02232D01*
X05861Y02233*
X05862Y02234*
X05863Y02235*
X05863Y02237*
X05864Y02238*
X05864Y02239*
X05865Y02241*
X05865Y02242*
X05865Y02243*
X0588Y02228*
X05879Y02228*
X05878Y02228*
X05876Y02227*
X05875Y02227*
X05874Y02227*
X05872Y02226*
X05871Y02225*
X0587Y02224*
X05869Y02223*
X05868Y02222*
X05859Y02231*
G37*
G36*
X05731Y02473D02*
X05731Y02472D01*
X05731Y02469*
X05731Y02468*
X05731Y02468*
X05731Y02467*
X05732Y02467*
X05732Y02467*
X05718*
X05718Y02467*
X05718Y02467*
X05719Y02468*
X05719Y02468*
X05719Y02469*
X05719Y0247*
X05719Y02472*
X05719Y02473*
X05731*
G37*
G36*
X06476Y0212D02*
X06477Y0212D01*
X0648Y02121*
X06481Y02121*
X06481Y02121*
X06482Y02121*
X06482Y02121*
X06482Y02121*
Y02108*
X06482Y02108*
X06482Y02108*
X06481Y02108*
X06481Y02108*
X0648Y02108*
X06479Y02109*
X06477Y02109*
X06476Y02109*
Y0212*
G37*
G36*
X05761Y02615D02*
X05762Y02615D01*
X05765Y02616*
X05766Y02616*
X05766Y02616*
X05767Y02616*
X05767Y02616*
X05767Y02616*
Y02603*
X05767Y02603*
X05767Y02603*
X05766Y02603*
X05766Y02603*
X05765Y02603*
X05764Y02604*
X05762Y02604*
X05761Y02604*
Y02615*
G37*
G36*
X05759Y02841D02*
X05759Y02842D01*
X05758Y02845*
X05758Y02846*
X05758Y02846*
X05758Y02847*
X05758Y02847*
X05758Y02847*
X05771*
X05771Y02847*
X05771Y02847*
X05771Y02846*
X05771Y02846*
X05771Y02845*
X0577Y02844*
X0577Y02842*
X0577Y02841*
X05759*
G37*
G36*
X06486Y03154D02*
X06486Y03155D01*
X06489Y03157*
X06489Y03158*
X06489Y03158*
X0649Y03159*
X0649Y03159*
X0649Y03159*
X06499Y0315*
X06499Y0315*
X06499Y0315*
X06498Y03149*
X06498Y03149*
X06497Y03149*
X06496Y03148*
X06495Y03146*
X06494Y03146*
X06486Y03154*
G37*
G36*
X05751Y0351D02*
X05752Y0351D01*
X05755Y03511*
X05756Y03511*
X05756Y03511*
X05757Y03511*
X05757Y03511*
X05757Y03511*
Y03498*
X05757Y03498*
X05757Y03498*
X05756Y03498*
X05756Y03498*
X05755Y03498*
X05754Y03499*
X05752Y03499*
X05751Y03499*
Y0351*
G37*
G36*
X05751Y03759D02*
X05751Y0376D01*
X05754Y03762*
X05754Y03763*
X05754Y03763*
X05755Y03764*
X05755Y03764*
X05755Y03764*
X05764Y03755*
X05764Y03755*
X05764Y03755*
X05763Y03754*
X05763Y03754*
X05762Y03754*
X05761Y03753*
X0576Y03751*
X05759Y03751*
X05751Y03759*
G37*
G36*
X05943Y04121D02*
X05944Y04122D01*
X05945Y04123*
X05946Y04124*
X05946Y04125*
X05947Y04126*
X05947Y04128*
X05948Y04129*
X05948Y0413*
X05948Y04132*
X05948Y04133*
X05964Y04118*
X05962Y04118*
X05961Y04117*
X0596Y04117*
X05958Y04117*
X05957Y04116*
X05956Y04116*
X05955Y04115*
X05954Y04114*
X05952Y04113*
X05951Y04112*
X05943Y04121*
G37*
G36*
X06581Y03385D02*
X06582Y03385D01*
X06585Y03386*
X06586Y03386*
X06586Y03386*
X06587Y03386*
X06587Y03386*
X06587Y03386*
Y03373*
X06587Y03373*
X06587Y03373*
X06586Y03373*
X06586Y03373*
X06585Y03373*
X06584Y03374*
X06582Y03374*
X06581Y03374*
Y03385*
G37*
G36*
X06481Y0406D02*
X06482Y0406D01*
X06485Y04061*
X06486Y04061*
X06486Y04061*
X06487Y04061*
X06487Y04061*
X06487Y04061*
Y04048*
X06487Y04048*
X06487Y04048*
X06486Y04048*
X06486Y04048*
X06485Y04048*
X06484Y04049*
X06482Y04049*
X06481Y04049*
Y0406*
G37*
%LNpcb_copper_signal_1-2*%
%LPC*%
G36*
X02784Y03654D02*
X02777D01*
X0277Y03652*
X02764Y03649*
X02759Y03644*
X02755Y03637*
X02753Y0363*
Y03623*
X02755Y03616*
X02759Y0361*
X02764Y03605*
X0277Y03601*
X02777Y03599*
X02784*
X02791Y03601*
X02798Y03605*
X02803Y0361*
X02806Y03616*
X02808Y03623*
Y0363*
X02806Y03637*
X02803Y03644*
X02798Y03649*
X02791Y03652*
X02784Y03654*
G37*
G36*
X02628Y03626D02*
X02561D01*
Y03559*
X02628*
Y03626*
G37*
G36*
X02893Y03597D02*
X02826D01*
Y0353*
X02893*
Y03597*
G37*
G36*
X02599Y03527D02*
X0259D01*
X02582Y03525*
X02574Y03521*
X02568Y03515*
X02563Y03507*
X02561Y03498*
Y0349*
X02563Y03481*
X02568Y03473*
X02574Y03467*
X02582Y03463*
X0259Y03461*
X02599*
X02607Y03463*
X02615Y03467*
X02621Y03473*
X02626Y03481*
X02628Y0349*
Y03498*
X02626Y03507*
X02621Y03515*
X02615Y03521*
X02607Y03525*
X02599Y03527*
G37*
G36*
X02864Y03499D02*
X02855D01*
X02847Y03496*
X02839Y03492*
X02833Y03486*
X02828Y03478*
X02826Y0347*
Y03461*
X02828Y03452*
X02833Y03445*
X02839Y03439*
X02847Y03434*
X02855Y03432*
X02864*
X02872Y03434*
X0288Y03439*
X02886Y03445*
X02891Y03452*
X02893Y03461*
Y0347*
X02891Y03478*
X02886Y03486*
X0288Y03492*
X02872Y03496*
X02864Y03499*
G37*
G36*
X02599Y03429D02*
X0259D01*
X02582Y03427*
X02574Y03422*
X02568Y03416*
X02563Y03409*
X02561Y034*
Y03391*
X02563Y03383*
X02568Y03375*
X02574Y03369*
X02582Y03364*
X0259Y03362*
X02599*
X02607Y03364*
X02615Y03369*
X02621Y03375*
X02626Y03383*
X02628Y03391*
Y034*
X02626Y03409*
X02621Y03416*
X02615Y03422*
X02607Y03427*
X02599Y03429*
G37*
G36*
X03708Y0339D02*
X03701D01*
X03696Y03388*
X03691Y03383*
X03689Y03378*
Y03371*
X03691Y03366*
X03696Y03361*
X03701Y03359*
X03708*
X03713Y03361*
X03718Y03366*
X0372Y03371*
Y03378*
X03718Y03383*
X03713Y03388*
X03708Y0339*
G37*
G36*
X02864Y034D02*
X02855D01*
X02847Y03398*
X02839Y03394*
X02833Y03387*
X02828Y0338*
X02826Y03371*
Y03362*
X02828Y03354*
X02833Y03346*
X02839Y0334*
X02847Y03336*
X02855Y03333*
X02864*
X02872Y03336*
X0288Y0334*
X02886Y03346*
X02891Y03354*
X02893Y03362*
Y03371*
X02891Y0338*
X02886Y03387*
X0288Y03394*
X02872Y03398*
X02864Y034*
G37*
G36*
X02599Y03331D02*
X0259D01*
X02582Y03328*
X02574Y03324*
X02568Y03318*
X02563Y0331*
X02561Y03302*
Y03293*
X02563Y03284*
X02568Y03277*
X02574Y0327*
X02582Y03266*
X0259Y03264*
X02599*
X02607Y03266*
X02615Y0327*
X02621Y03277*
X02626Y03284*
X02628Y03293*
Y03302*
X02626Y0331*
X02621Y03318*
X02615Y03324*
X02607Y03328*
X02599Y03331*
G37*
G36*
X04058Y0327D02*
X04051D01*
X04046Y03268*
X04041Y03263*
X04039Y03258*
Y03251*
X04041Y03246*
X04046Y03241*
X04051Y03239*
X04058*
X04063Y03241*
X04068Y03246*
X0407Y03251*
Y03258*
X04068Y03263*
X04063Y03268*
X04058Y0327*
G37*
G36*
X02864Y03302D02*
X02855D01*
X02847Y033*
X02839Y03295*
X02833Y03289*
X02828Y03281*
X02826Y03273*
Y03264*
X02828Y03256*
X02833Y03248*
X02839Y03242*
X02847Y03237*
X02855Y03235*
X02864*
X02872Y03237*
X0288Y03242*
X02886Y03248*
X02891Y03256*
X02893Y03264*
Y03273*
X02891Y03281*
X02886Y03289*
X0288Y03295*
X02872Y033*
X02864Y03302*
G37*
G36*
X03578Y0325D02*
X03571D01*
X03566Y03248*
X03561Y03243*
X03559Y03238*
Y03231*
X03561Y03226*
X03566Y03221*
X03571Y03219*
X03578*
X03583Y03221*
X03588Y03226*
X0359Y03231*
Y03238*
X03588Y03243*
X03583Y03248*
X03578Y0325*
G37*
G36*
X04693Y0323D02*
X04686D01*
X04681Y03228*
X04676Y03223*
X04674Y03218*
Y03211*
X04676Y03206*
X04681Y03201*
X04686Y03199*
X04693*
X04698Y03201*
X04703Y03206*
X04705Y03211*
Y03218*
X04703Y03223*
X04698Y03228*
X04693Y0323*
G37*
G36*
X04193Y0321D02*
X04186D01*
X04181Y03208*
X04176Y03203*
X04174Y03198*
Y03191*
X04176Y03186*
X04181Y03181*
X04186Y03179*
X04193*
X04198Y03181*
X04203Y03186*
X04205Y03191*
Y03198*
X04203Y03203*
X04198Y03208*
X04193Y0321*
G37*
G36*
X02599Y03232D02*
X0259D01*
X02582Y0323*
X02574Y03226*
X02568Y03219*
X02563Y03212*
X02561Y03203*
Y03194*
X02563Y03186*
X02568Y03178*
X02574Y03172*
X02582Y03168*
X0259Y03165*
X02599*
X02607Y03168*
X02615Y03172*
X02621Y03178*
X02626Y03186*
X02628Y03194*
Y03203*
X02626Y03212*
X02621Y03219*
X02615Y03226*
X02607Y0323*
X02599Y03232*
G37*
G36*
X04228Y03145D02*
X04221D01*
X04216Y03143*
X04211Y03138*
X04209Y03133*
Y03126*
X04211Y03121*
X04216Y03116*
X04221Y03114*
X04228*
X04233Y03116*
X04238Y03121*
X0424Y03126*
Y03133*
X04238Y03138*
X04233Y03143*
X04228Y03145*
G37*
G36*
X04188Y0313D02*
X04181D01*
X04176Y03128*
X04171Y03123*
X04169Y03118*
Y03111*
X04171Y03106*
X04176Y03101*
X04181Y03099*
X04188*
X04193Y03101*
X04198Y03106*
X042Y03111*
Y03118*
X04198Y03123*
X04193Y03128*
X04188Y0313*
G37*
G36*
X03563Y0311D02*
X03556D01*
X03551Y03108*
X03546Y03103*
X03544Y03098*
Y03091*
X03546Y03086*
X03551Y03081*
X03556Y03079*
X03563*
X03568Y03081*
X03573Y03086*
X03575Y03091*
Y03098*
X03573Y03103*
X03568Y03108*
X03563Y0311*
G37*
G36*
X02599Y03134D02*
X0259D01*
X02582Y03131*
X02574Y03127*
X02568Y03121*
X02563Y03113*
X02561Y03105*
Y03096*
X02563Y03087*
X02568Y0308*
X02574Y03074*
X02582Y03069*
X0259Y03067*
X02599*
X02607Y03069*
X02615Y03074*
X02621Y0308*
X02626Y03087*
X02628Y03096*
Y03105*
X02626Y03113*
X02621Y03121*
X02615Y03127*
X02607Y03131*
X02599Y03134*
G37*
G36*
X04253Y03095D02*
X04246D01*
X04241Y03093*
X04236Y03088*
X04234Y03083*
Y03076*
X04236Y03071*
X04241Y03066*
X04246Y03064*
X04253*
X04258Y03066*
X04263Y03071*
X04265Y03076*
Y03083*
X04263Y03088*
X04258Y03093*
X04253Y03095*
G37*
G36*
X04688Y0305D02*
X04681D01*
X04676Y03048*
X04671Y03043*
X04669Y03038*
Y03031*
X04671Y03026*
X04676Y03021*
X04681Y03019*
X04688*
X04693Y03021*
X04698Y03026*
X047Y03031*
Y03038*
X04698Y03043*
X04693Y03048*
X04688Y0305*
G37*
G36*
X04168Y03045D02*
X04161D01*
X04156Y03043*
X04151Y03038*
X04149Y03033*
Y03026*
X04151Y03021*
X04156Y03016*
X04161Y03014*
X04168*
X04173Y03016*
X04178Y03021*
X0418Y03026*
Y03033*
X04178Y03038*
X04173Y03043*
X04168Y03045*
G37*
G36*
X04243Y0304D02*
X04236D01*
X04231Y03038*
X04226Y03033*
X04224Y03028*
Y03021*
X04226Y03016*
X04231Y03011*
X04236Y03009*
X04243*
X04248Y03011*
X04253Y03016*
X04255Y03021*
Y03028*
X04253Y03033*
X04248Y03038*
X04243Y0304*
G37*
G36*
X04253Y02995D02*
X04246D01*
X04241Y02993*
X04236Y02988*
X04234Y02983*
Y02976*
X04236Y02971*
X04241Y02966*
X04246Y02964*
X04253*
X04258Y02966*
X04263Y02971*
X04265Y02976*
Y02983*
X04263Y02988*
X04258Y02993*
X04253Y02995*
G37*
G36*
X03628Y02945D02*
X03621D01*
X03616Y02943*
X03611Y02938*
X03609Y02933*
Y02926*
X03611Y02921*
X03616Y02916*
X03621Y02914*
X03628*
X03633Y02916*
X03638Y02921*
X0364Y02926*
Y02933*
X03638Y02938*
X03633Y02943*
X03628Y02945*
G37*
G36*
X04198D02*
X04191D01*
X04186Y02943*
X04181Y02938*
X04179Y02933*
Y02926*
X04181Y02921*
X04186Y02916*
X04189Y02915*
Y02909*
X04186Y02908*
X04181Y02904*
X04179Y02898*
Y02892*
X04181Y02886*
X04186Y02881*
X04191Y02879*
X04198*
X04203Y02881*
X04208Y02886*
X0421Y02892*
Y02898*
X04208Y02904*
X04203Y02908*
X042Y02909*
Y02915*
X04203Y02916*
X04208Y02921*
X0421Y02926*
Y02933*
X04208Y02938*
X04203Y02943*
X04198Y02945*
G37*
G36*
X03753Y02885D02*
X03746D01*
X03741Y02883*
X03736Y02878*
X03734Y02873*
Y02866*
X03736Y02861*
X03741Y02856*
X03746Y02854*
X03753*
X03758Y02856*
X03763Y02861*
X03765Y02866*
Y02873*
X03763Y02878*
X03758Y02883*
X03753Y02885*
G37*
G36*
X03843Y02851D02*
X03837D01*
X03831Y02849*
X03827Y02845*
X03824Y02839*
Y02832*
X03827Y02827*
X03831Y02822*
X03837Y0282*
X03843*
X03849Y02822*
X03853Y02827*
X03856Y02832*
Y02839*
X03853Y02845*
X03849Y02849*
X03843Y02851*
G37*
G36*
X02824Y02886D02*
X02815D01*
X02807Y02884*
X02799Y0288*
X02793Y02873*
X02788Y02866*
X02786Y02857*
Y02849*
X02788Y0284*
X02793Y02832*
X02799Y02826*
X02807Y02822*
X02815Y02819*
X02824*
X02832Y02822*
X0284Y02826*
X02846Y02832*
X02851Y0284*
X02853Y02849*
Y02857*
X02851Y02866*
X02846Y02873*
X0284Y0288*
X02832Y02884*
X02824Y02886*
G37*
G36*
X03883Y02812D02*
X03876D01*
X03871Y0281*
X03866Y02805*
X03864Y02799*
Y02793*
X03866Y02787*
X03871Y02783*
X03876Y0278*
X03883*
X03888Y02783*
X03893Y02787*
X03895Y02793*
Y02799*
X03893Y02805*
X03888Y0281*
X03883Y02812*
G37*
G36*
X03618Y02775D02*
X03611D01*
X03606Y02773*
X03601Y02768*
X03599Y02763*
Y02756*
X03601Y02751*
X03606Y02746*
X03611Y02744*
X03618*
X03623Y02746*
X03628Y02751*
X0363Y02756*
Y02763*
X03628Y02768*
X03623Y02773*
X03618Y02775*
G37*
G36*
X03573D02*
X03566D01*
X03561Y02773*
X03556Y02768*
X03554Y02763*
Y02756*
X03556Y02751*
X03561Y02746*
X03566Y02744*
X03573*
X03578Y02746*
X03583Y02751*
X03585Y02756*
Y02763*
X03583Y02768*
X03578Y02773*
X03573Y02775*
G37*
G36*
X03803Y02768D02*
X03796D01*
X03791Y02765*
X03786Y02761*
X03784Y02755*
Y02749*
X03786Y02743*
X03791Y02738*
X03796Y02736*
X03803*
X03808Y02738*
X03813Y02743*
X03815Y02749*
Y02755*
X03813Y02761*
X03808Y02765*
X03803Y02768*
G37*
G36*
X03863Y02765D02*
X03856D01*
X03851Y02763*
X03846Y02758*
X03844Y02753*
Y02746*
X03846Y02741*
X03851Y02736*
X03856Y02734*
X03863*
X03868Y02736*
X03873Y02741*
X03875Y02746*
Y02753*
X03873Y02758*
X03868Y02763*
X03863Y02765*
G37*
G36*
X04368Y02755D02*
X04361D01*
X04356Y02753*
X04351Y02748*
X04349Y02743*
Y02736*
X04351Y02731*
X04356Y02726*
X04361Y02724*
X04368*
X04373Y02726*
X04378Y02731*
X0438Y02736*
Y02743*
X04378Y02748*
X04373Y02753*
X04368Y02755*
G37*
G36*
X02853Y02788D02*
X02786D01*
Y02721*
X02853*
Y02788*
G37*
G36*
X03923Y02745D02*
X03916D01*
X03911Y02743*
X03906Y02738*
X03904Y02733*
Y02726*
X03906Y02721*
X03911Y02716*
X03916Y02714*
X03923*
X03928Y02716*
X03933Y02721*
X03935Y02726*
Y02733*
X03933Y02738*
X03928Y02743*
X03923Y02745*
G37*
G36*
X04278Y02735D02*
X04271D01*
X04266Y02733*
X04261Y02728*
X04259Y02723*
Y02716*
X04261Y02711*
X04266Y02706*
X04271Y02704*
X04278*
X04283Y02706*
X04288Y02711*
X0429Y02716*
Y02723*
X04288Y02728*
X04283Y02733*
X04278Y02735*
G37*
G36*
X03283Y0271D02*
X03276D01*
X03271Y02708*
X03266Y02703*
X03264Y02698*
Y02691*
X03266Y02686*
X03271Y02681*
X03276Y02679*
X03283*
X03288Y02681*
X03293Y02686*
X03295Y02691*
Y02698*
X03293Y02703*
X03288Y02708*
X03283Y0271*
G37*
G36*
X04028Y02685D02*
X04021D01*
X04016Y02683*
X04011Y02678*
X04009Y02673*
Y02666*
X04011Y02661*
X04016Y02656*
X04021Y02654*
X04028*
X04033Y02656*
X04038Y02661*
X0404Y02666*
Y02673*
X04038Y02678*
X04033Y02683*
X04028Y02685*
G37*
G36*
X02599Y02718D02*
X0259D01*
X02582Y02716*
X02574Y02712*
X02568Y02705*
X02563Y02698*
X02561Y02689*
Y0268*
X02563Y02672*
X02568Y02664*
X02574Y02658*
X02582Y02654*
X0259Y02651*
X02599*
X02607Y02654*
X02615Y02658*
X02621Y02664*
X02626Y02672*
X02628Y0268*
Y02689*
X02626Y02698*
X02621Y02705*
X02615Y02712*
X02607Y02716*
X02599Y02718*
G37*
G36*
X03493Y027D02*
X03486D01*
X03481Y02698*
X03476Y02693*
X03474Y02688*
Y02681*
X03476Y02676*
X03481Y02671*
X03484Y0267*
X03483Y02665*
X0348*
X03476*
X03471Y02663*
X03466Y02658*
X03464Y02653*
Y02646*
X03466Y02641*
X03471Y02636*
X03476Y02634*
X03483*
X03488Y02636*
X03493Y02641*
X03495Y02646*
Y02653*
X03493Y02658*
X03488Y02663*
X03485Y02664*
X03486Y02669*
X03489*
X03493*
X03498Y02671*
X03503Y02676*
X03505Y02681*
Y02688*
X03503Y02693*
X03498Y02698*
X03493Y027*
G37*
G36*
X03738Y02645D02*
X03731D01*
X03726Y02643*
X03721Y02638*
X03719Y02633*
Y02626*
X03721Y02621*
X03726Y02616*
X03731Y02614*
X03738*
X03743Y02616*
X03748Y02621*
X03749Y02623*
X03754Y02622*
Y02621*
X03756Y02616*
X03761Y02611*
X03766Y02609*
X03773*
X03778Y02611*
X03783Y02616*
X03785Y02621*
Y02628*
X03783Y02633*
X03778Y02638*
X03773Y0264*
X03766*
X03761Y02638*
X03756Y02633*
X03755Y02631*
X0375Y02632*
Y02633*
X03748Y02638*
X03743Y02643*
X03738Y02645*
G37*
G36*
X03428Y0264D02*
X03421D01*
X03416Y02638*
X03411Y02633*
X03409Y02628*
Y02621*
X03411Y02616*
X03416Y02611*
X03421Y02609*
X03428*
X03433Y02611*
X03438Y02616*
X0344Y02621*
Y02628*
X03438Y02633*
X03433Y02638*
X03428Y0264*
G37*
G36*
X04043Y02605D02*
X04036D01*
X04031Y02603*
X04026Y02598*
X04024Y02593*
Y02586*
X04026Y02581*
X04031Y02576*
X04036Y02574*
X04043*
X04048Y02576*
X04053Y02581*
X04055Y02586*
Y02593*
X04053Y02598*
X04048Y02603*
X04043Y02605*
G37*
G36*
X03178Y02585D02*
X03171D01*
X03166Y02583*
X03161Y02578*
X03159Y02573*
Y02566*
X03161Y02561*
X03166Y02556*
X03171Y02554*
X03178*
X03183Y02556*
X03188Y02561*
X0319Y02566*
Y02573*
X03188Y02578*
X03183Y02583*
X03178Y02585*
G37*
G36*
X02988D02*
X02981D01*
X02976Y02583*
X02971Y02578*
X02969Y02573*
Y02566*
X02971Y02561*
X02976Y02556*
X02981Y02554*
X02988*
X02993Y02556*
X02998Y02561*
X03Y02566*
Y02573*
X02998Y02578*
X02993Y02583*
X02988Y02585*
G37*
G36*
X02843D02*
X02836D01*
X02831Y02583*
X02826Y02578*
X02824Y02573*
Y02566*
X02826Y02561*
X02831Y02556*
X02836Y02554*
X02843*
X02848Y02556*
X02853Y02561*
X02855Y02566*
Y02573*
X02853Y02578*
X02848Y02583*
X02843Y02585*
G37*
G36*
X02599Y0262D02*
X0259D01*
X02582Y02618*
X02574Y02613*
X02568Y02607*
X02563Y02599*
X02561Y02591*
Y02582*
X02563Y02573*
X02568Y02566*
X02574Y0256*
X02582Y02555*
X0259Y02553*
X02599*
X02607Y02555*
X02615Y0256*
X02621Y02566*
X02626Y02573*
X02628Y02582*
Y02591*
X02626Y02599*
X02621Y02607*
X02615Y02613*
X02607Y02618*
X02599Y0262*
G37*
G36*
X04233Y02575D02*
X04226D01*
X04221Y02573*
X04216Y02568*
X04214Y02563*
Y02556*
X04216Y02551*
X04221Y02546*
X04226Y02544*
X04233*
X04238Y02546*
X04243Y02551*
X04245Y02556*
Y02563*
X04243Y02568*
X04238Y02573*
X04233Y02575*
G37*
G36*
X03858D02*
X03851D01*
X03846Y02573*
X03841Y02568*
X03839Y02563*
Y02556*
X03841Y02551*
X03846Y02546*
X03851Y02544*
X03858*
X03863Y02546*
X03868Y02551*
X0387Y02556*
Y02563*
X03868Y02568*
X03863Y02573*
X03858Y02575*
G37*
G36*
X03443Y0255D02*
X03436D01*
X03431Y02548*
X03426Y02543*
X03424Y02538*
Y02531*
X03426Y02526*
X03431Y02521*
X03436Y02519*
X03443*
X03448Y02521*
X03453Y02526*
X03455Y02531*
Y02538*
X03453Y02543*
X03448Y02548*
X03443Y0255*
G37*
G36*
X03833Y02545D02*
X03826D01*
X03821Y02543*
X03816Y02538*
X03814Y02533*
Y02526*
X03816Y02521*
X03821Y02516*
X03826Y02514*
X03833*
X03838Y02516*
X03843Y02521*
X03845Y02526*
Y02533*
X03843Y02538*
X03838Y02543*
X03833Y02545*
G37*
G36*
X03883Y0252D02*
X03876D01*
X03871Y02518*
X03866Y02513*
X03864Y02508*
Y02501*
X03866Y02496*
X03871Y02491*
X03876Y02489*
X03883*
X03888Y02491*
X03893Y02496*
X03895Y02501*
Y02508*
X03893Y02513*
X03888Y02518*
X03883Y0252*
G37*
G36*
X04163Y02495D02*
X04156D01*
X04151Y02493*
X04146Y02488*
X04144Y02483*
Y02476*
X04146Y02471*
X04151Y02466*
X04156Y02464*
X04163*
X04168Y02466*
X04173Y02471*
X04175Y02476*
Y02483*
X04173Y02488*
X04168Y02493*
X04163Y02495*
G37*
G36*
X03153D02*
X03146D01*
X03141Y02493*
X03136Y02488*
X03134Y02483*
Y02476*
X03136Y02471*
X03141Y02466*
X03146Y02464*
X03153*
X03158Y02466*
X03163Y02471*
X03165Y02476*
Y02483*
X03163Y02488*
X03158Y02493*
X03153Y02495*
G37*
G36*
X03018D02*
X03011D01*
X03006Y02493*
X03001Y02488*
X02999Y02483*
Y02476*
X03001Y02471*
X03006Y02466*
X03011Y02464*
X03018*
X03023Y02466*
X03028Y02471*
X0303Y02476*
Y02483*
X03028Y02488*
X03023Y02493*
X03018Y02495*
G37*
G36*
X02599Y02521D02*
X0259D01*
X02582Y02519*
X02574Y02515*
X02568Y02508*
X02563Y02501*
X02561Y02492*
Y02484*
X02563Y02475*
X02568Y02467*
X02574Y02461*
X02582Y02457*
X0259Y02454*
X02599*
X02607Y02457*
X02615Y02461*
X02621Y02467*
X02626Y02475*
X02628Y02484*
Y02492*
X02626Y02501*
X02621Y02508*
X02615Y02515*
X02607Y02519*
X02599Y02521*
G37*
G36*
X04123Y0248D02*
X04116D01*
X04111Y02478*
X04106Y02473*
X04104Y02468*
Y02461*
X04106Y02456*
X04111Y02451*
X04116Y02449*
X04123*
X04128Y02451*
X04133Y02456*
X04135Y02461*
Y02468*
X04133Y02473*
X04128Y02478*
X04123Y0248*
G37*
G36*
X03438Y0247D02*
X03431D01*
X03426Y02468*
X03421Y02463*
X03419Y02458*
Y02451*
X03421Y02446*
X03426Y02441*
X03431Y02439*
X03438*
X03443Y02441*
X03448Y02446*
X0345Y02451*
Y02458*
X03448Y02463*
X03443Y02468*
X03438Y0247*
G37*
G36*
X04093Y02445D02*
X04086D01*
X04081Y02443*
X04076Y02438*
X04074Y02433*
Y02426*
X04076Y02421*
X04076Y0242*
X04076Y02419*
X04075Y02415*
X04071Y02413*
X04066Y02408*
X04064Y02403*
Y02396*
X04066Y02391*
X04071Y02386*
X04076Y02384*
X04083*
X04088Y02386*
X04093Y02391*
X04095Y02396*
Y02403*
X04093Y02408*
X04093Y02409*
X04093Y0241*
X04094Y02414*
X04098Y02416*
X04103Y02421*
X04105Y02426*
Y02433*
X04103Y02438*
X04098Y02443*
X04093Y02445*
G37*
G36*
X03168Y024D02*
X03161D01*
X03156Y02398*
X03151Y02393*
X03149Y02388*
Y02381*
X03151Y02376*
X03156Y02371*
X03161Y02369*
X03168*
X03173Y02371*
X03178Y02376*
X0318Y02381*
Y02388*
X03178Y02393*
X03173Y02398*
X03168Y024*
G37*
G36*
X03023D02*
X03016D01*
X03011Y02398*
X03006Y02393*
X03004Y02388*
Y02381*
X03006Y02376*
X03011Y02371*
X03016Y02369*
X03023*
X03028Y02371*
X03033Y02376*
X03035Y02381*
Y02388*
X03033Y02393*
X03028Y02398*
X03023Y024*
G37*
G36*
X02599Y02423D02*
X0259D01*
X02582Y02421*
X02574Y02416*
X02568Y0241*
X02563Y02402*
X02561Y02394*
Y02385*
X02563Y02377*
X02568Y02369*
X02574Y02363*
X02582Y02358*
X0259Y02356*
X02599*
X02607Y02358*
X02615Y02363*
X02621Y02369*
X02626Y02377*
X02628Y02385*
Y02394*
X02626Y02402*
X02621Y0241*
X02615Y02416*
X02607Y02421*
X02599Y02423*
G37*
G36*
X03593Y02385D02*
X03586D01*
X03581Y02383*
X03576Y02378*
X03574Y02373*
Y02366*
X03576Y02361*
X03581Y02356*
X03586Y02354*
X03593*
X03598Y02356*
X03603Y02361*
X03605Y02366*
Y02373*
X03603Y02378*
X03598Y02383*
X03593Y02385*
G37*
G36*
X03828Y02315D02*
X03821D01*
X03816Y02313*
X03811Y02308*
X03809Y02303*
Y02296*
X03811Y02291*
X03816Y02286*
X03821Y02284*
X03828*
X03833Y02286*
X03838Y02291*
X0384Y02296*
Y02303*
X03838Y02308*
X03833Y02313*
X03828Y02315*
G37*
G36*
X03488Y02305D02*
X03481D01*
X03476Y02303*
X03471Y02298*
X03469Y02293*
Y02286*
X03471Y02281*
X03476Y02276*
X03481Y02274*
X03488*
X03493Y02276*
X03498Y02281*
X035Y02286*
Y02293*
X03498Y02298*
X03493Y02303*
X03488Y02305*
G37*
G36*
X03023D02*
X03016D01*
X03011Y02303*
X03006Y02298*
X03004Y02293*
Y02286*
X03006Y02281*
X03011Y02276*
X03016Y02274*
X03023*
X03028Y02276*
X03033Y02281*
X03035Y02286*
Y02293*
X03033Y02298*
X03028Y02303*
X03023Y02305*
G37*
G36*
X03168Y023D02*
X03161D01*
X03156Y02298*
X03151Y02293*
X03149Y02288*
Y02281*
X03151Y02276*
X03156Y02271*
X03161Y02269*
X03168*
X03173Y02271*
X03178Y02276*
X0318Y02281*
Y02288*
X03178Y02293*
X03173Y02298*
X03168Y023*
G37*
G36*
X02628Y02325D02*
X02561D01*
Y02258*
X02628*
Y02325*
G37*
G36*
X02903Y02245D02*
X02896D01*
X02891Y02243*
X02886Y02238*
X02884Y02233*
Y02226*
X02886Y02221*
X02891Y02216*
X02896Y02214*
X02903*
X02908Y02216*
X02913Y02221*
X02915Y02226*
Y02233*
X02913Y02238*
X02908Y02243*
X02903Y02245*
G37*
G36*
X03523Y0222D02*
X03516D01*
X03511Y02218*
X03506Y02213*
X03504Y02208*
Y02201*
X03506Y02196*
X03511Y02191*
X03516Y02189*
X03523*
X03528Y02191*
X03533Y02196*
X03535Y02201*
Y02208*
X03533Y02213*
X03528Y02218*
X03523Y0222*
G37*
G36*
X03763Y0217D02*
X03756D01*
X03751Y02168*
X03746Y02163*
X03744Y02158*
Y02151*
X03746Y02146*
X03751Y02141*
X03756Y02139*
X03763*
X03768Y02141*
X03773Y02146*
X03775Y02151*
Y02158*
X03773Y02163*
X03768Y02168*
X03763Y0217*
G37*
G36*
X04443Y02055D02*
X04436D01*
X04431Y02053*
X04426Y02048*
X04424Y02043*
Y02036*
X04426Y02031*
X04431Y02026*
X04436Y02024*
X04443*
X04448Y02026*
X04453Y02031*
X04455Y02036*
Y02043*
X04453Y02048*
X04448Y02053*
X04443Y02055*
G37*
G36*
X04203D02*
X04196D01*
X04191Y02053*
X04186Y02048*
X04184Y02043*
Y02036*
X04186Y02031*
X04191Y02026*
X04196Y02024*
X04203*
X04208Y02026*
X04213Y02031*
X04215Y02036*
Y02043*
X04213Y02048*
X04208Y02053*
X04203Y02055*
G37*
G36*
X02938D02*
X02931D01*
X02926Y02053*
X02921Y02048*
X02919Y02043*
Y02036*
X02921Y02031*
X02926Y02026*
X02931Y02024*
X02938*
X02943Y02026*
X02948Y02031*
X0295Y02036*
Y02043*
X02948Y02048*
X02943Y02053*
X02938Y02055*
G37*
G36*
X04618Y0205D02*
X04611D01*
X04606Y02048*
X04601Y02043*
X04599Y02038*
Y02031*
X04601Y02026*
X04606Y02021*
X04611Y02019*
X04618*
X04623Y02021*
X04628Y02026*
X0463Y02031*
Y02038*
X04628Y02043*
X04623Y02048*
X04618Y0205*
G37*
G36*
X04443Y01975D02*
X04436D01*
X04431Y01973*
X04426Y01968*
X04424Y01963*
Y01956*
X04426Y01951*
X04431Y01946*
X04436Y01944*
X04443*
X04448Y01946*
X04453Y01951*
X04455Y01956*
Y01963*
X04453Y01968*
X04448Y01973*
X04443Y01975*
G37*
G36*
X04198D02*
X04191D01*
X04186Y01973*
X04181Y01968*
X04179Y01963*
Y01956*
X04181Y01951*
X04186Y01946*
X04191Y01944*
X04198*
X04203Y01946*
X04208Y01951*
X0421Y01956*
Y01963*
X04208Y01968*
X04203Y01973*
X04198Y01975*
G37*
G36*
X04193Y01895D02*
X04186D01*
X04181Y01893*
X04176Y01888*
X04174Y01883*
Y01876*
X04176Y01871*
X04181Y01866*
X04186Y01864*
X04193*
X04198Y01866*
X04203Y01871*
X04205Y01876*
Y01883*
X04203Y01888*
X04198Y01893*
X04193Y01895*
G37*
G36*
X04448Y0189D02*
X04441D01*
X04436Y01888*
X04431Y01883*
X04429Y01878*
Y01871*
X04431Y01866*
X04436Y01861*
X04441Y01859*
X04448*
X04453Y01861*
X04458Y01866*
X0446Y01871*
Y01878*
X04458Y01883*
X04453Y01888*
X04448Y0189*
G37*
G36*
X04438Y0181D02*
X04431D01*
X04426Y01808*
X04421Y01803*
X04419Y01798*
Y01791*
X04421Y01786*
X04426Y01781*
X04431Y01779*
X04438*
X04443Y01781*
X04448Y01786*
X0445Y01791*
Y01798*
X04448Y01803*
X04443Y01808*
X04438Y0181*
G37*
G36*
X04193D02*
X04186D01*
X04181Y01808*
X04176Y01803*
X04174Y01798*
Y01791*
X04176Y01786*
X04181Y01781*
X04186Y01779*
X04193*
X04198Y01781*
X04203Y01786*
X04205Y01791*
Y01798*
X04203Y01803*
X04198Y01808*
X04193Y0181*
G37*
G36*
X02554Y01831D02*
X02545D01*
X02537Y01829*
X02529Y01825*
X02523Y01818*
X02518Y01811*
X02516Y01802*
Y01794*
X02518Y01785*
X02523Y01777*
X02529Y01771*
X02537Y01767*
X02545Y01764*
X02554*
X02562Y01767*
X0257Y01771*
X02576Y01777*
X02581Y01785*
X02583Y01794*
Y01802*
X02581Y01811*
X02576Y01818*
X0257Y01825*
X02562Y01829*
X02554Y01831*
G37*
G36*
X04458Y01745D02*
X04451D01*
X04446Y01743*
X04441Y01738*
X04439Y01733*
Y01726*
X04441Y01721*
X04446Y01716*
X04451Y01714*
X04458*
X04463Y01716*
X04468Y01721*
X0447Y01726*
Y01733*
X04468Y01738*
X04463Y01743*
X04458Y01745*
G37*
G36*
X02554Y01733D02*
X02545D01*
X02537Y01731*
X02529Y01726*
X02523Y0172*
X02518Y01712*
X02516Y01704*
Y01695*
X02518Y01687*
X02523Y01679*
X02529Y01673*
X02537Y01668*
X02545Y01666*
X02554*
X02562Y01668*
X0257Y01673*
X02576Y01679*
X02581Y01687*
X02583Y01695*
Y01704*
X02581Y01712*
X02576Y0172*
X0257Y01726*
X02562Y01731*
X02554Y01733*
G37*
G36*
X02583Y01635D02*
X02516D01*
Y01568*
X02583*
Y01635*
G37*
%LNpcb_copper_signal_1-3*%
%LPD*%
G54D91*
X02595Y02291D03*
Y03592D03*
X0286Y03564D03*
X0282Y02755D03*
X0255Y01601D03*
G54D92*
X02595Y0239D03*
Y02488D03*
Y02586D03*
Y02685D03*
Y02783D03*
Y03494D03*
Y03396D03*
Y03297D03*
Y03199D03*
Y031D03*
Y03002D03*
X0286Y03465D03*
Y03367D03*
Y03268D03*
Y0317D03*
X0282Y02853D03*
Y02951D03*
X0255Y01896D03*
Y01798D03*
Y017D03*
G54D93*
X02781Y03627D03*
G54D98*
X04716Y02956D02*
X04833Y03073D01*
X04715Y02956D02*
X04716D01*
X04675Y02935D02*
X04855D01*
X053Y0338*
X04838Y03073D02*
X04955Y0319D01*
X04833Y03073D02*
X04838D01*
X04955Y0319D02*
Y03585D01*
X04675Y02975D02*
X04915Y03215D01*
X04675Y02934D02*
Y02975D01*
X0469Y02836D02*
Y02838D01*
X04693Y02842D02*
Y02843D01*
X0475Y029*
X0469Y02838D02*
X04693Y02842D01*
X04666Y02753D02*
X04686D01*
X0471Y02665D02*
Y0273D01*
X04686Y02753D02*
X0471Y0273D01*
X04687Y0278D02*
X04735Y02732D01*
Y02682D02*
Y02732D01*
X04595Y0278D02*
X04687D01*
X04725Y02835D02*
X0476Y0287D01*
X04725Y02835D02*
X04725D01*
X05094Y02529D02*
X05648D01*
X05662Y02565D02*
X05725Y02502D01*
X05109Y02565D02*
X05662D01*
X05725Y0246D02*
Y02502D01*
X04948Y02675D02*
X05094Y02529D01*
X04948Y02675D02*
X04948D01*
X05648Y02529D02*
X0569Y02487D01*
Y0246D02*
Y02487D01*
X0497Y02704D02*
Y02705D01*
Y02704D02*
X05109Y02565D01*
X05252Y02165D02*
X05801D01*
X04735Y02682D02*
X05252Y02165D01*
X0475Y029D02*
X0487D01*
X04665Y02755D02*
X04666Y02753D01*
X0538Y03505D02*
X05765D01*
X04885Y0301D02*
X0538Y03505D01*
X0485Y02845D02*
X0489D01*
X04913Y02868*
X04971*
X05185Y02655*
X0495Y0283D02*
X0517Y0261D01*
X0492Y0283D02*
X0495D01*
X0517Y0261D02*
X05775D01*
X0476Y0287D02*
X04878D01*
X05127Y0312*
X0646*
X05765Y02775D02*
Y02855D01*
X05645Y02655D02*
X05765Y02775D01*
X05185Y02655D02*
X05645D01*
X0487Y029D02*
X05135Y03165D01*
X053Y0338D02*
X06595D01*
X0568Y0368D02*
X05765Y03765D01*
X0568Y0357D02*
Y0368D01*
X05645Y03535D02*
X0568Y0357D01*
X05355Y03535D02*
X05645D01*
X04855Y03035D02*
X05355Y03535D01*
X04855Y0298D02*
Y03035D01*
X04555Y0274D02*
X04595Y0278D01*
X05425Y04055D02*
X06495D01*
X05415Y04085D02*
X05915D01*
X04955Y03585D02*
X05425Y04055D01*
X05915Y04085D02*
X05964Y04133D01*
X04915Y03585D02*
X05415Y04085D01*
X0471Y02665D02*
X0526Y02115D01*
X06489*
X05683Y03165D02*
X057Y03181D01*
Y03185*
X05135Y03165D02*
X05683D01*
X0646Y0312D02*
X065Y0316D01*
X04915Y03215D02*
Y03585D01*
X05801Y02165D02*
X0588Y02244D01*
G54D99*
X06795Y0233D03*
X06785Y04425D03*
X04765Y01585D03*
X0306Y0443D03*
G54D100*
X03985Y0438D03*
X04615Y04385D03*
G54D101*
X06795Y0385D03*
X06787Y0294D03*
X06795Y01895D03*
G54D102*
X03165Y02385D03*
Y02285D03*
X04715Y02956D03*
X04675Y02934D03*
X0469Y02836D03*
X04725Y02835D03*
X04195Y02895D03*
Y0293D03*
X0388Y02796D03*
X0384Y02836D03*
X04945Y0254D03*
X04919Y02565D03*
X04948Y02675D03*
X0497Y02705D03*
X05725Y0246D03*
X0569D03*
X05747Y03993D03*
X0356Y03095D03*
X03625Y0293D03*
X038Y02752D03*
X0386Y0275D03*
X0392Y0273D03*
X0425Y0308D03*
X04665Y02755D03*
X04685Y02715D03*
X03355Y02395D03*
X03435Y02455D03*
X0328Y02695D03*
X0344Y02535D03*
X03294Y0257D03*
X0359Y0237D03*
X0358Y02165D03*
X03825Y02185D03*
X03435Y023D03*
X0284Y0257D03*
X029Y0223D03*
X0355Y0289D03*
X04455Y0173D03*
X0424Y03025D03*
X03885Y03225D03*
X04005Y03035D03*
X03925Y0307D03*
X0457Y01925D03*
X0434Y0163D03*
X03705Y03375D03*
X0352Y03235D03*
X03575D03*
X0313Y03005D03*
X0311Y0282D03*
X03343Y02191D03*
X0381Y0206D03*
X03615Y01805D03*
X03925Y0445D03*
X03955D03*
X03985D03*
X04015D03*
X04045D03*
Y0442D03*
X04015D03*
X03985D03*
X03955D03*
X03925D03*
Y0439D03*
X03955D03*
X03985D03*
X04015D03*
X04045D03*
Y0436D03*
X04015D03*
X03985D03*
X03955D03*
X03925D03*
Y0433D03*
X03955D03*
X03985D03*
X04015D03*
X04045D03*
Y043D03*
X04015D03*
X03985D03*
X03955D03*
X03925D03*
Y0427D03*
X03955D03*
X03985D03*
X04015D03*
X04045D03*
Y0424D03*
X04015D03*
X03985D03*
X03955D03*
X03925D03*
Y0421D03*
X03955D03*
X03985D03*
X04015D03*
X04045D03*
Y0448D03*
X04015D03*
X03985D03*
X03955D03*
X03925D03*
Y0451D03*
X03955D03*
X03985D03*
X04015D03*
X04045Y0454D03*
X04015D03*
X03985D03*
X03955D03*
X03925D03*
X04045Y0451D03*
X04075Y0454D03*
Y0451D03*
Y0448D03*
Y0445D03*
Y0442D03*
Y0439D03*
Y0436D03*
Y0433D03*
Y043D03*
Y0427D03*
Y0424D03*
Y0421D03*
X04105Y0454D03*
Y0451D03*
Y0448D03*
Y0445D03*
Y0442D03*
Y0439D03*
Y0436D03*
Y0433D03*
Y043D03*
Y0427D03*
Y0424D03*
Y0421D03*
X04135Y0451D03*
Y0448D03*
Y0445D03*
Y0442D03*
Y0439D03*
Y0436D03*
Y0433D03*
Y043D03*
Y0427D03*
Y0424D03*
X03895Y0421D03*
Y0424D03*
Y0427D03*
Y043D03*
Y0433D03*
Y0436D03*
Y0439D03*
Y0442D03*
Y0445D03*
Y0448D03*
Y0451D03*
Y0454D03*
X03865D03*
Y0451D03*
Y0448D03*
Y0445D03*
Y0442D03*
Y0439D03*
Y0436D03*
Y0433D03*
Y043D03*
Y0427D03*
Y0424D03*
Y0421D03*
X03835Y0424D03*
Y0427D03*
Y043D03*
Y0433D03*
Y0436D03*
Y0439D03*
Y0442D03*
Y0445D03*
Y0448D03*
Y0451D03*
X04465Y04515D03*
Y04485D03*
Y04455D03*
Y04425D03*
Y04395D03*
Y04365D03*
Y04335D03*
Y04305D03*
Y04275D03*
Y04245D03*
X04495Y04215D03*
Y04245D03*
Y04275D03*
Y04305D03*
Y04335D03*
Y04365D03*
Y04395D03*
Y04425D03*
Y04455D03*
Y04485D03*
Y04515D03*
Y04545D03*
X04525D03*
Y04515D03*
Y04485D03*
Y04455D03*
Y04425D03*
Y04395D03*
Y04365D03*
Y04335D03*
Y04305D03*
Y04275D03*
Y04245D03*
Y04215D03*
X04765Y04245D03*
Y04275D03*
Y04305D03*
Y04335D03*
Y04365D03*
Y04395D03*
Y04425D03*
Y04455D03*
Y04485D03*
Y04515D03*
X04735Y04215D03*
Y04245D03*
Y04275D03*
Y04305D03*
Y04335D03*
Y04365D03*
Y04395D03*
Y04425D03*
Y04455D03*
Y04485D03*
Y04515D03*
Y04545D03*
X04705Y04215D03*
Y04245D03*
Y04275D03*
Y04305D03*
Y04335D03*
Y04365D03*
Y04395D03*
Y04425D03*
Y04455D03*
Y04485D03*
Y04515D03*
Y04545D03*
X04675Y04515D03*
X04555Y04545D03*
X04585D03*
X04615D03*
X04645D03*
X04675D03*
X04645Y04515D03*
X04615D03*
X04585D03*
X04555D03*
Y04485D03*
X04585D03*
X04615D03*
X04645D03*
X04675D03*
Y04215D03*
X04645D03*
X04615D03*
X04585D03*
X04555D03*
Y04245D03*
X04585D03*
X04615D03*
X04645D03*
X04675D03*
Y04275D03*
X04645D03*
X04615D03*
X04585D03*
X04555D03*
Y04305D03*
X04585D03*
X04615D03*
X04645D03*
X04675D03*
Y04335D03*
X04645D03*
X04615D03*
X04585D03*
X04555D03*
Y04365D03*
X04585D03*
X04615D03*
X04645D03*
X04675D03*
Y04395D03*
X04645D03*
X04615D03*
X04585D03*
X04555D03*
Y04425D03*
X04585D03*
X04615D03*
X04645D03*
X04675D03*
Y04455D03*
X04645D03*
X04615D03*
X04585D03*
X04555D03*
X06725Y0379D03*
Y0382D03*
Y0385D03*
Y0388D03*
Y0391D03*
X06755D03*
Y0388D03*
Y0385D03*
Y0382D03*
Y0379D03*
X06785D03*
Y0382D03*
Y0385D03*
Y0388D03*
Y0391D03*
X06815D03*
Y0388D03*
Y0385D03*
Y0382D03*
Y0379D03*
X06845D03*
Y0382D03*
Y0385D03*
Y0388D03*
Y0391D03*
X06875D03*
Y0388D03*
Y0385D03*
Y0382D03*
Y0379D03*
X06905D03*
Y0382D03*
Y0385D03*
Y0388D03*
Y0391D03*
X06935D03*
Y0388D03*
Y0385D03*
Y0382D03*
Y0379D03*
X06965D03*
Y0382D03*
Y0385D03*
Y0388D03*
Y0391D03*
X06695D03*
Y0388D03*
Y0385D03*
Y0382D03*
Y0379D03*
X06665D03*
Y0382D03*
Y0385D03*
Y0388D03*
X06635Y0391D03*
Y0388D03*
Y0385D03*
Y0382D03*
Y0379D03*
X06665Y0391D03*
X06635Y0394D03*
X06665D03*
X06695D03*
X06725D03*
X06755D03*
X06785D03*
X06815D03*
X06845D03*
X06875D03*
X06905D03*
X06935D03*
X06965D03*
X06635Y0397D03*
X06665D03*
X06695D03*
X06725D03*
X06755D03*
X06785D03*
X06815D03*
X06845D03*
X06875D03*
X06905D03*
X06935D03*
X06965D03*
X06665Y04D03*
X06695D03*
X06725D03*
X06755D03*
X06785D03*
X06815D03*
X06845D03*
X06875D03*
X06905D03*
X06935D03*
X06965Y0376D03*
X06935D03*
X06905D03*
X06875D03*
X06845D03*
X06815D03*
X06785D03*
X06755D03*
X06725D03*
X06695D03*
X06665D03*
X06635D03*
Y0373D03*
X06665D03*
X06695D03*
X06725D03*
X06755D03*
X06785D03*
X06815D03*
X06845D03*
X06875D03*
X06905D03*
X06935D03*
X06965D03*
X06935Y037D03*
X06905D03*
X06875D03*
X06845D03*
X06815D03*
X06785D03*
X06755D03*
X06725D03*
X06695D03*
X06665D03*
X06657Y0279D03*
X06687D03*
X06717D03*
X06747D03*
X06777D03*
X06807D03*
X06837D03*
X06867D03*
X06897D03*
X06927D03*
X06957Y0282D03*
X06927D03*
X06897D03*
X06867D03*
X06837D03*
X06807D03*
X06777D03*
X06747D03*
X06717D03*
X06687D03*
X06657D03*
X06627D03*
Y0285D03*
X06657D03*
X06687D03*
X06717D03*
X06747D03*
X06777D03*
X06807D03*
X06837D03*
X06867D03*
X06897D03*
X06927D03*
X06957D03*
X06927Y0309D03*
X06897D03*
X06867D03*
X06837D03*
X06807D03*
X06777D03*
X06747D03*
X06717D03*
X06687D03*
X06657D03*
X06957Y0306D03*
X06927D03*
X06897D03*
X06867D03*
X06837D03*
X06807D03*
X06777D03*
X06747D03*
X06717D03*
X06687D03*
X06657D03*
X06627D03*
X06957Y0303D03*
X06927D03*
X06897D03*
X06867D03*
X06837D03*
X06807D03*
X06777D03*
X06747D03*
X06717D03*
X06687D03*
X06657D03*
X06627D03*
X06657Y03D03*
X06627Y0288D03*
Y0291D03*
Y0294D03*
Y0297D03*
Y03D03*
X06657Y0297D03*
Y0294D03*
Y0291D03*
Y0288D03*
X06687D03*
Y0291D03*
Y0294D03*
Y0297D03*
Y03D03*
X06957D03*
Y0297D03*
Y0294D03*
Y0291D03*
Y0288D03*
X06927D03*
Y0291D03*
Y0294D03*
Y0297D03*
Y03D03*
X06897D03*
Y0297D03*
Y0294D03*
Y0291D03*
Y0288D03*
X06867D03*
Y0291D03*
Y0294D03*
Y0297D03*
Y03D03*
X06837D03*
Y0297D03*
Y0294D03*
Y0291D03*
Y0288D03*
X06807D03*
Y0291D03*
Y0294D03*
Y0297D03*
Y03D03*
X06777D03*
Y0297D03*
Y0294D03*
Y0291D03*
Y0288D03*
X06747D03*
Y0291D03*
Y0294D03*
Y0297D03*
Y03D03*
X06717D03*
Y0297D03*
Y0294D03*
Y0291D03*
Y0288D03*
X06725Y01835D03*
Y01865D03*
Y01895D03*
Y01925D03*
Y01955D03*
X06755D03*
Y01925D03*
Y01895D03*
Y01865D03*
Y01835D03*
X06785D03*
Y01865D03*
Y01895D03*
Y01925D03*
Y01955D03*
X06815D03*
Y01925D03*
Y01895D03*
Y01865D03*
Y01835D03*
X06845D03*
Y01865D03*
Y01895D03*
Y01925D03*
Y01955D03*
X06875D03*
Y01925D03*
Y01895D03*
Y01865D03*
Y01835D03*
X06905D03*
Y01865D03*
Y01895D03*
Y01925D03*
Y01955D03*
X06935D03*
Y01925D03*
Y01895D03*
Y01865D03*
Y01835D03*
X06965D03*
Y01865D03*
Y01895D03*
Y01925D03*
Y01955D03*
X06695D03*
Y01925D03*
Y01895D03*
Y01865D03*
Y01835D03*
X06665D03*
Y01865D03*
Y01895D03*
Y01925D03*
X06635Y01955D03*
Y01925D03*
Y01895D03*
Y01865D03*
Y01835D03*
X06665Y01955D03*
X06635Y01985D03*
X06665D03*
X06695D03*
X06725D03*
X06755D03*
X06785D03*
X06815D03*
X06845D03*
X06875D03*
X06905D03*
X06935D03*
X06965D03*
X06635Y02015D03*
X06665D03*
X06695D03*
X06725D03*
X06755D03*
X06785D03*
X06815D03*
X06845D03*
X06875D03*
X06905D03*
X06935D03*
X06965D03*
X06665Y02045D03*
X06695D03*
X06725D03*
X06755D03*
X06785D03*
X06815D03*
X06845D03*
X06875D03*
X06905D03*
X06935D03*
X06965Y01805D03*
X06935D03*
X06905D03*
X06875D03*
X06845D03*
X06815D03*
X06785D03*
X06755D03*
X06725D03*
X06695D03*
X06665D03*
X06635D03*
Y01775D03*
X06665D03*
X06695D03*
X06725D03*
X06755D03*
X06785D03*
X06815D03*
X06845D03*
X06875D03*
X06905D03*
X06935D03*
X06965D03*
X06935Y01745D03*
X06905D03*
X06875D03*
X06845D03*
X06815D03*
X06785D03*
X06755D03*
X06725D03*
X06695D03*
X06665D03*
X04275Y0272D03*
X04075Y02315D03*
X04885Y0301D03*
X0425Y0298D03*
X04615Y02035D03*
X048Y0191D03*
X04435Y01795D03*
X04445Y01875D03*
X0419Y0188D03*
X042Y0204D03*
X04195Y0196D03*
X0444Y0204D03*
Y0196D03*
X0469Y03215D03*
X04685Y03035D03*
X0416Y0248D03*
X0412Y02465D03*
X0409Y0243D03*
X0408Y024D03*
X0383Y0253D03*
X0348Y0265D03*
X0349Y02685D03*
X03855Y0256D03*
X03735Y0263D03*
X0377Y02625D03*
X0388Y02505D03*
X0357Y0276D03*
X03615D03*
X03425Y02625D03*
X0376Y02155D03*
X04925Y0279D03*
X0485Y02845D03*
X0492Y0283D03*
X04882Y02782D03*
X04855Y0298D03*
X05772Y04025D03*
X04795Y0266D03*
X04725Y02605D03*
X04555Y0274D03*
X06595Y0338D03*
X065Y0316D03*
X06495Y04055D03*
X05765Y03765D03*
Y03505D03*
Y02855D03*
X05775Y0261D03*
X0573Y0181D03*
X0575Y01545D03*
X0649Y02115D03*
X04705Y0253D03*
X02985Y0204D03*
X02935D03*
X03015Y0248D03*
X0302Y02385D03*
Y0229D03*
X02985Y0257D03*
X04025Y0267D03*
X0352Y02205D03*
X03175Y0257D03*
X03485Y0229D03*
X0315Y0248D03*
X0419Y01795D03*
X03825Y023D03*
X0404Y0259D03*
X04055Y03255D03*
X0419Y03195D03*
X04225Y0313D03*
X04185Y03115D03*
X0423Y0256D03*
X04365Y0274D03*
X0375Y0287D03*
X04165Y0303D03*
G54D103*
X054Y0379D03*
X04775Y02245D03*
Y02285D03*
Y02325D03*
Y0237D03*
Y0241D03*
X0542Y01895D03*
X05475D03*
X0546Y0379D03*
X0552D03*
X05515Y03605D03*
X05455D03*
X054D03*
X05545Y0303D03*
X0549D03*
X05435D03*
X0555Y0284D03*
X05495D03*
X0544D03*
X0537Y01735D03*
X0542D03*
X05475D03*
X0537Y01895D03*
G54D104*
X05994Y03307D03*
X05964Y03248D03*
X05935Y03307D03*
X05905Y03248D03*
X05875Y03307D03*
X05846Y03248D03*
X05875Y03188D03*
X05816Y03307D03*
X05787Y03248D03*
X05816Y03188D03*
X05757Y03307D03*
X05728Y03248D03*
X05757Y03188D03*
X05698Y03307D03*
X04901Y03838D03*
X04842D03*
Y0372D03*
X04872Y03425D03*
Y03307D03*
X04812Y03897D03*
X04783Y03838D03*
X04753Y03897D03*
X04724Y03838D03*
X04753Y03779D03*
X04665Y03956D03*
X04694Y03897D03*
X04665Y03838D03*
X04606Y03956D03*
X04635Y03897D03*
X04606Y03838D03*
X04547Y03956D03*
X04576Y03897D03*
X04547Y03838D03*
X04576Y02125D03*
X04517Y03897D03*
X04635Y02598D03*
X04576D03*
X05964Y03248D03*
X05935Y03307D03*
X05875D03*
X05846Y03248D03*
X05816Y03307D03*
X05787Y03248D03*
X05816Y03188D03*
X05757Y03307D03*
X05728Y03248D03*
X05757Y03188D03*
X05698Y03307D03*
X04842Y0372D03*
X04872Y03425D03*
X04753Y03779D03*
X04665Y03956D03*
Y03838D03*
X04606Y03956D03*
Y03838D03*
X04547Y03956D03*
X04576Y03897D03*
X04547Y03838D03*
X05964Y03307D03*
X05994Y03248D03*
X05905Y03307D03*
X05935Y03248D03*
X05905Y03188D03*
X05846Y03307D03*
X05875Y03248D03*
X05846Y03188D03*
X05787Y03307D03*
X05816Y03248D03*
X05787Y03188D03*
X05728Y03307D03*
X05757Y03248D03*
X05698D03*
X04872Y0372D03*
Y03366D03*
X04812Y0372D03*
X04429Y02716D03*
Y02598D03*
Y02244D03*
X04399Y02657D03*
X0437Y0248D03*
X04399Y02421D03*
X0437Y02362D03*
Y02244D03*
X04311Y0248D03*
X0621Y0234D03*
X06176Y02362D03*
X04595Y026D03*
Y0254D03*
Y0248D03*
Y0242D03*
Y02365D03*
Y02305D03*
Y02245D03*
X057Y03185D03*
X06289Y04311D03*
X0623D03*
Y04192D03*
X06171Y04311D03*
X06112D03*
X06053D03*
X06023Y04251D03*
Y04133D03*
X05994Y04311D03*
X05964Y04251D03*
X05994Y04192D03*
X05964Y04133D03*
X05935Y04311D03*
Y04192D03*
X06225Y0221D03*
Y0225D03*
X0622Y02295D03*
X06117Y02362D03*
X06058D03*
X06028Y02303D03*
X05999Y02362D03*
X05969Y02303D03*
X05999Y02244D03*
X0594Y02362D03*
X0591Y02303D03*
X0594Y02244D03*
X0588Y02362D03*
Y02244D03*
M02*